<?xml version="1.0" encoding="UTF-8"?>
<svg width="150px" height="60px" viewBox="0 0 150 60" version="1.1" xmlns="http://www.w3.org/2000/svg" xmlns:xlink="http://www.w3.org/1999/xlink">
    <title>Artboard</title>
    <g id="Artboard" stroke="none" stroke-width="1" fill="none" fill-rule="evenodd">
        <g id="Group-9" transform="translate(54.000000, 0.000000)" fill="#9DA6B9">
            <path d="M41.4233333,45.423744 C41.4169712,47.1853416 40.8023935,48.5055059 39.7502859,49.6446016 C38.1746694,51.3479408 35.5274954,52.5469133 32.6992746,53.4734737 C29.8712355,54.4070467 26.8926877,55.0809742 24.6114246,55.9052228 C23.4889705,56.3063787 22.8676672,56.6330933 22.1640202,57.1798952 L22.6428128,57.7896306 L22.1640202,57.1802548 C21.9460733,57.3492761 21.6895902,57.5747578 21.465463,57.7795612 C21.1546295,57.4925846 20.7440022,57.1408765 20.3102895,56.8472469 C19.9420155,56.6025256 19.4581333,56.377044 19.0331458,56.1851868 C18.6128844,55.9971057 18.2696952,55.8600905 18.2638784,55.8575732 L18.2402478,55.8480433 L18.2157083,55.8401316 C15.131368,54.8373318 10.872768,53.9675913 7.44451141,52.4305763 C5.73183729,51.6658448 4.24256336,50.7394641 3.21190508,49.6050435 C2.18233745,48.4652285 1.58284698,47.1515374 1.57666667,45.423744 L1.57666667,1.61485944 L41.4233333,1.61485944 L41.4233333,45.423744 Z M2.91322522e-13,0.0544491333 L2.91322522e-13,45.3879245 C-0.00560938263,47.4909951 0.788610552,49.2394501 2.03796981,50.6003979 C3.91510117,52.6468523 6.73361781,53.9103842 9.62671764,54.8913738 C12.5092667,55.8619388 15.4935035,56.5386384 17.6978913,57.256497 C17.7772042,57.2884897 18.0580735,57.4033399 18.3882405,57.5509017 C18.7744359,57.7212898 19.2412175,57.9517092 19.4311317,58.0825557 C19.7718495,58.3106385 20.1469483,58.6318236 20.4256348,58.8908207 C20.5657056,59.0207686 20.682492,59.135439 20.7636239,59.2163195 C20.8447559,59.2971999 20.8851399,59.3403361 20.8855038,59.3403361 L21.4326896,59.9174628 L22.0029781,59.3626232 C22.0033419,59.3622637 22.1817958,59.1888201 22.4159143,58.9724201 C22.6482136,58.7569187 22.9401795,58.4972027 23.1229992,58.3579086 L23.1228173,58.3577289 C23.7391291,57.8918576 24.0687504,57.7108652 25.1505703,57.314012 C27.9989202,56.2776642 32.3654927,55.4233872 36.071913,53.8219549 C37.9270332,53.0167454 39.6349881,52.018681 40.9123615,50.6527006 C42.1904626,49.2926514 43.0063299,47.5280204 43,45.3879245 L43,0.0544491333 L2.91322522e-13,0.0544491333 L2.91322522e-13,0.0544491333 Z" id="Fill-3"></path>
            <polyline id="Fill-4" points="10.1623794 15.0279452 10.8243659 16.3807169 12.3054662 16.5974248 11.2332929 17.6493424 11.4863524 19.1375342 10.1623794 18.4363154 8.83768647 19.1375342 9.09056603 17.6493424 8.0192926 16.5974248 9.50021293 16.3807169 10.1623794 15.0279452"></polyline>
            <path d="M7.28029715,8.28619862 L7.28029715,8.2899466 L9.13970507,8.2899466 L9.13970507,8.28619862 L8.0948189,5.74060831 L8.08896669,5.74060831 L7.28029715,8.28619862 Z M7.58130405,5.37755247 C7.64043866,5.15984411 7.70869899,4.92349572 7.78626754,4.66850729 C7.86748638,4.41026138 7.97097196,4.23490029 8.09654176,4.142424 L8.68898299,3.71044574 C8.76290126,3.64764873 8.81637794,3.61615974 8.84959553,3.61615974 C8.86912455,3.61615974 8.90361975,3.66972722 8.95417619,3.7766812 L11.7159817,10.584094 C11.8565177,10.9317397 11.9842777,11.1648306 12.0988966,11.2830048 C12.213333,11.3975596 12.4166539,11.4751962 12.7088592,11.5159147 C12.8086945,11.5347358 12.8585209,11.5754543 12.8585209,11.6384323 L12.8585209,11.822118 C12.8585209,11.9221951 12.8180027,11.9723241 12.7364189,11.9723241 C12.6068338,11.9723241 12.3754057,11.9623707 12.0421347,11.9430068 C11.7126965,11.9232809 11.4500585,11.9136895 11.2536732,11.9136895 C11.0908704,11.9136895 10.7796837,11.9232809 10.3206603,11.9430068 C9.86163701,11.9623707 9.58768313,11.9723241 9.4987987,11.9723241 C9.43583128,11.9723241 9.40443883,11.9428258 9.40443883,11.8832863 L9.40443883,11.6771601 C9.40443883,11.5698442 9.46576362,11.5159147 9.58841319,11.5159147 C10.0530945,11.5159147 10.2854351,11.3718617 10.2854351,11.0833936 C10.2854351,10.9947177 10.2670011,10.9042321 10.2299508,10.8117558 C10.1967332,10.7158411 10.1155143,10.5106197 9.98611173,10.1964537 L9.43181597,8.87283031 L9.43181597,8.87301128 L7.05256028,8.87301128 L7.05256028,8.87283031 L6.49205904,10.489989 C6.4031746,10.741358 6.35882364,10.930111 6.35882364,11.055524 C6.35882364,11.3624512 6.63040484,11.5159147 7.17356723,11.5159147 C7.27322,11.5159147 7.32322891,11.5624243 7.32322891,11.6552626 L7.32322891,11.8720661 C7.32322891,11.9390254 7.25077075,11.9723241 7.10676701,11.9723241 C7.02153286,11.9723241 6.83482079,11.9623707 6.54644828,11.9430068 C6.26154355,11.9232809 6.0469068,11.9136895 5.90272054,11.9136895 C5.75871681,11.9136895 5.53349423,11.9232809 5.22705281,11.9430068 C4.9206114,11.9623707 4.74156492,11.9723241 4.69009591,11.9723241 C4.60504427,11.9723241 4.56270096,11.9370347 4.56270096,11.8668179 L4.56270096,11.6719119 C4.56270096,11.5678535 4.62201809,11.5159147 4.74046984,11.5159147 C5.06954302,11.5159147 5.31739736,11.3903207 5.48403287,11.1389517 C5.65413614,10.8877637 5.84267336,10.464653 6.05000954,9.86980067 L7.58130405,5.37755247 L7.58130405,5.37755247 Z" id="Fill-5"></path>
            <path d="M17.5573224,10.113683 L17.5553071,10.113683 L19.3733285,5.47631599 C19.4548582,5.27586321 19.4960811,5.08808376 19.4960811,4.91297764 C19.4960811,4.74911686 19.4363537,4.6432678 19.3168989,4.59578745 C19.2012916,4.54491564 18.983085,4.51921198 18.6620961,4.51921198 C18.535496,4.51921198 18.4719211,4.46994665 18.4719211,4.371059 L18.4719211,4.19541738 C18.4719211,4.11116652 18.5166251,4.0690411 18.6060329,4.0690411 C18.6765699,4.0690411 18.8922115,4.07885846 19.2527744,4.0981362 C19.6168184,4.11759244 19.875515,4.12723131 20.0275816,4.12723131 C20.143189,4.12723131 20.3174244,4.11759244 20.5519369,4.0981362 C20.7897472,4.07885846 20.9478599,4.0690411 21.0260918,4.0690411 C21.1112858,4.0690411 21.1543408,4.11473648 21.1543408,4.20648423 L21.1543408,4.37659242 C21.1543408,4.47191013 21.1057894,4.51921198 21.0094195,4.51921198 C20.7494404,4.51921198 20.5713575,4.58132914 20.4748043,4.70520646 C20.3784343,4.82926228 20.2520174,5.08629879 20.0962865,5.47631599 L17.4125843,11.992727 C17.3867512,12.0584141 17.3552386,12.1019675 17.3182296,12.1239227 C17.2812206,12.1421295 17.2291882,12.1512329 17.1624987,12.1512329 L16.9681098,12.1512329 C16.8754041,12.1512329 16.8105468,12.140166 16.7735378,12.1185678 C16.7403762,12.0928642 16.7086804,12.0419924 16.6791831,11.9654169 L13.9570062,5.41062888 C13.8086038,5.06452208 13.6508575,4.82926228 13.4839506,4.70520646 C13.3166772,4.58132914 13.0774012,4.51921198 12.7657561,4.51921198 C12.6433699,4.51921198 12.5819936,4.47887153 12.5819936,4.39854762 L12.5819936,4.19541738 C12.5819936,4.11116652 12.6265143,4.0690411 12.7155558,4.0690411 C12.7974519,4.0690411 13.0184066,4.07885846 13.3784199,4.0981362 C13.7424639,4.11759244 14.0357877,4.12723131 14.2585746,4.12723131 C14.451681,4.12723131 14.7988694,4.11759244 15.3001398,4.0981362 C15.8015934,4.07885846 16.0987647,4.0690411 16.1914704,4.0690411 C16.3140399,4.0690411 16.3754162,4.11473648 16.3754162,4.20648423 L16.3754162,4.38765927 C16.3754162,4.47548008 16.3213684,4.51921198 16.213456,4.51921198 C15.9272775,4.51921198 15.7244608,4.54491564 15.6053725,4.59578745 C15.4862841,4.6432678 15.4267399,4.71805829 15.4267399,4.8203374 C15.4267399,4.92225951 15.4765738,5.09897211 15.5769745,5.3508322 L17.5573224,10.113683" id="Fill-6"></path>
            <path d="M25.4126968,7.48259934 L27.1282408,7.48259934 C27.4796373,7.48259934 27.7150066,7.434807 27.8347172,7.3401207 C27.9540593,7.24489537 28.0455919,7.04043044 28.1093147,6.72600721 C28.1244166,6.64569454 28.159409,6.60544836 28.2155808,6.60544836 L28.4509502,6.60544836 C28.5257232,6.60544836 28.5627414,6.64767091 28.5627414,6.731577 C28.5627414,6.80110945 28.5531645,6.97125733 28.5340108,7.24184098 C28.5185406,7.51242462 28.5106212,7.72281868 28.5106212,7.87266381 C28.5106212,7.97866935 28.5185406,8.15420735 28.5340108,8.39945747 C28.5531645,8.64434825 28.5627414,8.80353624 28.5627414,8.8766621 C28.5627414,8.99003413 28.5349317,9.04680998 28.478944,9.04680998 L28.2384179,9.04680998 C28.1708275,9.04680998 28.1279159,8.99919732 28.1093147,8.90415167 C28.0308583,8.57158173 27.9094902,8.33765085 27.7448422,8.20235902 C27.5840617,8.06365346 27.3356163,7.99412101 26.9991376,7.99412101 L25.4126968,7.99412101 L25.4126968,10.5937723 C25.4126968,10.9527538 25.4834181,11.203933 25.6246765,11.346771 C25.7664875,11.4897886 25.9917274,11.5611178 26.3005806,11.5611178 C26.4236062,11.5611178 26.4849348,11.5904041 26.4849348,11.6495156 L26.4849348,11.9147092 C26.4849348,11.9811872 26.4236062,12.0142466 26.3005806,12.0142466 C26.2374103,12.0142466 26.0138278,12.0043647 25.6298333,11.98514 C25.2500746,11.9655559 24.9780555,11.9560334 24.8139599,11.9560334 C24.6688339,11.9560334 24.3502197,11.9655559 23.8583015,11.98514 C23.3706192,12.0043647 23.0890232,12.0142466 23.0144344,12.0142466 C22.8803586,12.0142466 22.8135048,11.9738207 22.8135048,11.8926097 L22.8135048,11.6771849 C22.8135048,11.5999266 22.8785169,11.5611178 23.0087251,11.5611178 C23.3067122,11.5611178 23.5267954,11.4806254 23.6680539,11.3192814 C23.813364,11.158117 23.8861112,10.9162807 23.8861112,10.5937723 L23.8861112,5.66541274 C23.8861112,5.23312572 23.8279135,4.93451349 23.7124389,4.76957605 C23.601016,4.60481828 23.375776,4.52216989 23.0370873,4.52216989 C22.8880937,4.52216989 22.8135048,4.48156437 22.8135048,4.40071268 L22.8135048,4.18510818 C22.8135048,4.10767024 22.8805427,4.0690411 23.0148027,4.0690411 C23.0893916,4.0690411 23.3934563,4.07892297 23.9266286,4.09832737 C24.4598009,4.11791145 24.8944423,4.12761365 25.2300001,4.12761365 C25.5057027,4.12761365 26.1827118,4.11791145 27.2604749,4.09832737 C28.3419215,4.07892297 28.9384483,4.0690411 29.0502395,4.0690411 C29.1327477,4.0690411 29.1736334,4.10946694 29.1736334,4.19031863 L29.1736334,5.74554575 C29.1736334,5.84148975 29.1344052,5.88910241 29.0561329,5.88910241 L28.8879857,5.88910241 C28.813581,5.88910241 28.7574091,5.83232656 28.7200226,5.71877486 L28.5914719,5.38889997 C28.4758131,5.08453829 28.3133751,4.87396456 28.1043421,4.75646011 C27.8953091,4.63949467 27.4853466,4.58074244 26.8731653,4.58074244 L26.5263731,4.58074244 C26.0935735,4.58074244 25.7990856,4.6283551 25.6423568,4.72358042 C25.4891274,4.81880574 25.4126968,5.00566298 25.4126968,5.28433179 L25.4126968,7.48259934" id="Fill-7"></path>
            <path d="M37.9127497,6.06890747 C37.9127497,6.09830201 37.8574732,6.12408986 37.7472813,6.14627101 C37.6403411,6.16845217 37.5585101,6.17963292 37.5014271,6.17963292 C37.462589,6.17963292 37.4358539,6.16664882 37.4217638,6.14068064 C37.4111059,6.11489279 37.3966545,6.06890747 37.3793128,6.002364 C37.2403989,5.56757728 36.9847899,5.18580893 36.6115828,4.85778029 C36.2385563,4.52596463 35.7535316,4.35987646 35.1566892,4.35987646 C34.2756964,4.35987646 33.5616171,4.69692183 33.0142707,5.3711929 C32.4669244,6.04149661 32.1936125,6.89051191 32.1936125,7.91787813 C32.1936125,8.9528184 32.4882402,9.82401486 33.0783988,10.5311068 C33.6680155,11.2345921 34.4088298,11.5864249 35.3006612,11.5864249 C35.9509737,11.5864249 36.4307598,11.4610924 36.7398389,11.2100666 C37.0487373,10.9559751 37.3260233,10.5523863 37.571155,9.99911975 C37.6421475,9.84439267 37.6968821,9.76684879 37.7359009,9.76684879 C37.7853969,9.76684879 37.868673,9.78902994 37.9855486,9.83321192 C38.1024242,9.87360687 38.1607717,9.91580517 38.1607717,9.96016748 C38.1607717,9.9821683 38.1483074,10.0393344 38.12374,10.1311247 L37.7788937,11.5606371 C37.011525,11.9541272 36.1267387,12.1512329 35.1243542,12.1512329 C33.827342,12.1512329 32.7418621,11.7757762 31.8677337,11.025404 C30.9934246,10.274671 30.5562701,9.20222115 30.5562701,7.80769369 C30.5562701,6.70007857 30.9916182,5.75440393 31.8626757,4.97085009 C32.7337332,4.18711591 33.8072907,3.79506849 35.0837097,3.79506849 C35.6626684,3.79506849 36.2316919,3.89407219 36.7898768,4.09225991 C37.3478811,4.29026731 37.6551537,4.4554538 37.7122367,4.58763906 C37.7331912,4.64642814 37.7716681,4.89709324 37.8283898,5.33909334 C37.8845695,5.77784743 37.9127497,6.0211188 37.9127497,6.06890747" id="Fill-8"></path>
            <path d="M13.1350482,50.7910763 L13.1350482,50.0923305 C13.1350482,50.0923305 13.8263666,50.0016608 13.8263666,50.2185457 C13.8263666,50.6247535 13.1350482,50.7910763 13.1350482,50.7910763 Z M12.7202572,49.6879733 L12.7202572,52.6566993 L13.1251037,52.6566993 L13.1251037,51.1035137 C13.1251037,51.1035137 14.2411576,50.8287792 14.2411576,50.1316612 C14.2411576,49.434358 12.7202572,49.6879733 12.7202572,49.6879733 L12.7202572,49.6879733 Z" id="Fill-9"></path>
            <path d="M19.9099678,50.7910763 L19.9099678,50.0923305 C19.9099678,50.0923305 20.6012862,50.0016608 20.6012862,50.2185457 C20.6012862,50.6247535 19.9099678,50.7910763 19.9099678,50.7910763 Z M19.4951768,49.6879733 L19.4951768,52.6566993 L19.8999772,52.6566993 L19.8999772,51.1035137 C19.8999772,51.1035137 21.0160772,50.8287792 21.0160772,50.1316612 C21.0160772,49.434358 19.4951768,49.6879733 19.4951768,49.6879733 L19.4951768,49.6879733 Z" id="Fill-10"></path>
            <path d="M15.3472669,50.0923305 C15.3472669,50.0923305 16.0385852,50.0016608 16.0385852,50.2185457 C16.0385852,50.6247535 15.3472669,50.7910763 15.3472669,50.7910763 L15.3472669,50.0923305 Z M16.0549244,50.7522685 C16.2493815,50.6010997 16.4065914,50.3971329 16.4065914,50.1316612 C16.4065914,49.434358 14.9324759,49.6879733 14.9324759,49.6879733 L14.9324759,52.6566993 L15.3247456,52.6566993 L15.3247456,51.1035137 C15.3247456,51.1035137 15.525075,51.0521978 15.7532559,50.9388212 C15.8084555,51.0408972 15.936975,51.293401 16.0915005,51.6991115 C16.2983733,52.2419113 16.3482039,52.6539204 16.3482039,52.6539204 L16.7299035,52.6539204 C16.7299035,52.6539204 16.6408123,52.1111206 16.4696767,51.6316783 C16.3349493,51.2544973 16.1344521,50.8906547 16.0549244,50.7522685 L16.0549244,50.7522685 Z" id="Fill-11"></path>
            <path d="M24.1961415,50.0923305 C24.1961415,50.0923305 24.8874598,50.0016608 24.8874598,50.2185457 C24.8874598,50.6247535 24.1961415,50.7910763 24.1961415,50.7910763 L24.1961415,50.0923305 Z M24.9036312,50.7522685 C25.0980883,50.6010997 25.2552982,50.3971329 25.2552982,50.1316612 C25.2552982,49.434358 23.7813505,49.6879733 23.7813505,49.6879733 L23.7813505,52.6566993 L24.1736202,52.6566993 L24.1736202,51.1035137 C24.1736202,51.1035137 24.3739496,51.0521978 24.6019627,50.9388212 C24.6571623,51.0408972 24.7856818,51.293401 24.9403751,51.6991115 C25.1470801,52.2419113 25.1970785,52.6539204 25.1970785,52.6539204 L25.5787781,52.6539204 C25.5787781,52.6539204 25.4896869,52.1111206 25.3183835,51.6316783 C25.1836561,51.2544973 24.9833267,50.8906547 24.9036312,50.7522685 L24.9036312,50.7522685 Z" id="Fill-12"></path>
            <polyline id="Fill-13" points="17.5594855 49.8224658 17.5594855 52.6991781 18.8038585 52.6991781 18.8038585 52.3737907 17.9696331 52.3737907 17.9696331 51.0461741 18.5301917 51.0461741 18.5301917 50.7206069 17.9696331 50.7206069 17.9696331 50.1480329 18.8038585 50.1480329 18.8038585 49.8224658 17.5594855 49.8224658"></polyline>
            <polyline id="Fill-14" points="26.2700965 49.8224658 26.2700965 52.6991781 27.5144695 52.6991781 27.5144695 52.3737907 26.6803041 52.3737907 26.6803041 51.0461741 27.2408802 51.0461741 27.2408802 50.7206069 26.6803041 50.7206069 26.6803041 50.1480329 27.5144695 50.1480329 27.5144695 49.8224658 26.2700965 49.8224658"></polyline>
            <path d="M21.9025913,50.7867397 L22.1221865,50.0675616 L22.3417817,50.7867397 L21.9025913,50.7867397 Z M22.1913027,49.7804293 L22.1914903,49.7798904 L21.8143052,49.7798904 L20.8778135,52.6562435 L21.3403388,52.6562435 L21.8283723,51.0075583 L22.4158131,51.0075583 L22.9040342,52.6566027 L23.3665595,52.6566027 L22.4300678,49.7804293 L22.1913027,49.7804293 L22.1913027,49.7804293 Z" id="Fill-15"></path>
            <path d="M28.6205788,52.3696804 L28.6205788,50.0874348 C28.8252263,50.0561909 29.5884244,50.0000242 29.5884244,50.8999554 C29.5884244,52.1388732 28.8913048,52.3387977 28.6205788,52.3696804 Z M28.2057878,49.6838161 L28.2057878,52.6566993 L28.6190487,52.6566993 C28.6190487,52.6566993 30.0032154,52.6778677 30.0032154,50.8304583 C30.0032154,49.3090951 28.2057878,49.6838161 28.2057878,49.6838161 L28.2057878,49.6838161 Z" id="Fill-16"></path>
            <path d="M22.7204839,16.1706637 C22.4773906,16.5328612 21.8429941,16.7569863 21.8429941,16.7569863 C21.8429941,16.7569863 21.6995654,16.7516962 21.8106307,16.4991807 C21.9106631,16.2708235 21.948543,16.1590254 21.948543,16.1590254 L21.4395548,16.3364211 C21.4395548,16.3364211 21.616818,16.1815967 21.6881646,15.9317263 C21.759879,15.6818559 21.7424101,15.5194489 21.7424101,15.5194489 C21.7424101,15.5194489 21.6752928,15.7328174 21.423557,15.8324482 C21.2242278,15.9110948 20.8193173,15.9564135 20.8193173,15.9564135 C20.8193173,15.9564135 21.308814,14.987262 22.0653087,15.0581497 C22.821068,15.1290374 22.9643128,15.8082899 22.7204839,16.1706637 Z M19.3484814,17.3462379 C19.2538202,17.5677203 19.037426,17.7910347 18.7923245,17.8540537 C18.581926,17.9082793 18.3985996,17.9020507 18.2532466,17.8503898 C17.8796894,17.7173904 17.8041059,17.4523076 17.8041059,17.4523076 L18.2061886,17.2597699 C18.2772298,17.4634825 18.4098644,17.5785288 18.5817444,17.584391 C18.7481735,17.5900701 18.8722686,17.5098308 18.9209619,17.3678548 C18.9502142,17.2824861 18.9331352,17.1571809 18.9331352,17.1571809 C18.9331352,17.1571809 18.8853504,17.2707616 18.7821498,17.2758911 C18.7114719,17.2791886 18.5908289,17.2223982 18.633708,17.0470808 L19.5270838,16.6151076 C19.5270838,16.6151076 19.5009203,16.9908401 19.3484814,17.3462379 Z M35.6093634,21.5782053 C34.983162,21.7075382 34.5545264,21.6478322 34.5545264,21.6478322 C34.5545264,21.6478322 34.789056,21.62781 34.9651353,21.4952302 C35.1716233,21.3395617 35.288524,21.070073 35.288524,21.070073 C35.288524,21.070073 34.9174282,21.2610961 34.2943223,21.0944244 C34.0131781,21.019386 33.3942602,20.9614838 32.9042608,21.1400607 C32.5337112,21.2751658 32.0863204,21.6498164 32.0863204,21.6498164 C32.0863204,21.6498164 32.2316269,21.5028062 32.3035517,21.3296408 C32.39496,21.1092156 32.3499842,20.8635371 32.3499842,20.8635371 C32.3499842,20.8635371 32.2999099,21.10182 31.9930913,21.2331371 C31.8095463,21.3117831 31.4140507,21.4826036 31.2368789,21.7436144 C31.0027134,22.0890434 31.0260207,22.514381 30.939893,22.6116061 C30.8670577,22.6938597 28.5993309,23.7090421 28.4469231,25.7722362 C28.2948794,27.8347087 29.8475457,29.4218782 30.3557539,30.0086565 C30.8637801,30.5957955 33.0169734,33.0841468 33.3698604,33.6409819 C33.6495479,34.0818323 33.8864447,34.5565942 33.6158615,35.128942 C33.4559881,35.4669754 32.9111801,35.8625502 32.1145441,35.4943932 C31.3020665,35.1190211 30.7485183,34.5897842 29.8925215,34.2142317 C29.208416,33.9138979 28.4154218,33.6952765 28.2335157,33.5782094 C28.0996808,33.4919875 26.9151969,32.7358317 26.8013918,31.367464 C26.7128969,30.3028573 27.1422609,28.6401084 27.2067202,27.4883778 C27.2963076,25.8957969 26.8341677,25.2105308 26.8268841,25.1515463 C26.8130454,25.0451217 27.2358543,25.1762584 27.410659,25.4881366 C27.6559318,25.9248382 27.6300753,26.0990859 27.6300753,26.0990859 C27.6300753,26.0990859 28.1765221,25.0833624 27.9463625,23.7970679 C27.6845197,22.335263 26.7738965,22.159933 26.7662487,22.0536887 C26.7602398,21.9701725 27.0373781,21.9124507 27.3267163,22.002641 C28.1266299,22.2517467 28.2664736,23.0133139 28.2664736,23.0133139 C28.2664736,23.0133139 28.6108025,21.9416724 28.1357343,20.85542 C27.7010897,19.8609814 27.0579541,19.7677246 27.0386527,19.6521006 C27.02882,19.595461 27.2404065,19.4962517 27.6677676,19.6024959 C28.3354851,19.7682657 28.4822482,20.3301515 28.4822482,20.3301515 C28.4822482,20.3301515 28.6384799,19.3972227 28.3564252,18.6071554 C27.8489453,17.1864773 26.816323,17.0452392 26.8106783,16.9308779 C26.8074007,16.8688269 27.1042045,16.7842284 27.4019187,16.8653997 C27.9035718,17.0019478 27.9656639,17.1500404 27.9656639,17.1500404 C27.9656639,17.1500404 27.9408999,16.8065956 27.6670392,16.2849347 C27.3682324,15.7156533 26.6333243,14.9609406 26.3339713,14.7821834 C24.6563925,13.7805295 23.7368469,13.9852616 23.4378581,13.9625336 C23.3582855,13.9565811 23.1845733,13.8106531 23.2606862,13.5684019 C23.3766764,13.1998842 23.6346954,13.0687474 23.6346954,13.0687474 C23.6346954,13.0687474 22.9254618,13.0458391 22.2892455,13.2815966 C21.5399525,13.5588417 21.1582956,13.971733 21.0701649,13.9701096 C20.989864,13.9686666 20.9002765,13.8382514 20.90319,13.6598549 C20.9081063,13.3905465 20.9991505,13.3055872 20.9991505,13.3055872 C20.9991505,13.3055872 20.1191181,13.596902 19.6941241,13.9046314 C19.3982308,14.1192844 18.944649,14.4616469 18.7161283,15.000444 C18.5362251,15.4239778 18.4391721,15.9653002 18.4391721,15.9653002 C18.4391721,15.9653002 18.238875,15.8186507 17.9584592,16.0183321 C17.6667538,16.226311 17.3495561,16.6271168 17.1898648,16.8672035 C17.0383674,17.0946635 16.8102108,17.3374559 16.6567104,17.3960796 C16.4842729,17.4620989 15.4935308,17.8055437 15.2974218,17.9247753 C15.1260768,18.0290353 15.0463222,18.3935847 15.079098,18.5398734 C15.0938472,18.6067946 15.1624945,18.7675138 15.3176336,18.9395969 C15.4017584,19.0330341 15.4560207,18.9536666 15.5059128,18.845799 C15.5335903,18.7853715 15.5747422,18.7548871 15.609339,18.7723841 C15.8156449,18.8773656 15.6339209,19.3532098 15.6869085,19.4843466 C15.7522782,19.6468695 15.9081457,19.7926171 16.0771236,19.9028297 C16.3045518,20.0509222 16.7539455,20.1955875 16.7539455,20.1955875 C16.7539455,20.1955875 16.6903968,19.9919377 16.767238,19.8690985 C16.8327898,19.7653796 17.0241645,19.6252239 17.2126258,19.5999706 C17.5698829,19.5523501 18.1174222,19.5819325 18.4040291,19.8254464 C18.800253,20.1625779 18.7467191,20.6055928 18.7467191,20.6055928 C18.7467191,20.6055928 18.0398526,20.8759834 17.7008043,20.9291957 C17.3601173,20.982408 17.0984565,20.9746516 16.8504523,20.8859043 C16.6015377,20.7969767 16.3817572,20.540295 16.3817572,20.540295 C16.3817572,20.540295 16.3041876,20.9353286 16.2726864,20.9840314 C16.2495612,21.0197468 16.0656521,21.1057884 16.0809475,21.2197889 C16.1108099,21.4441825 16.4265509,21.4607775 16.4626044,21.5224677 C16.5070339,21.5993099 16.2655849,21.8282129 16.430921,22.1698539 C16.5212368,22.3561871 16.7153428,22.5127575 16.8954281,22.6116061 C17.093358,22.7203757 17.2738074,22.7625848 17.2738074,22.7625848 C17.2738074,22.7625848 17.2078915,22.4885865 17.3608456,22.2894463 C17.4469733,22.1772495 17.6159512,22.1418949 17.6405331,22.1539804 C17.6884223,22.1776103 17.6944312,22.2789842 17.8876268,22.3859499 C18.1003059,22.5033777 18.3612383,22.4624313 18.3612383,22.4624313 C18.3612383,22.4624313 18.1613054,22.2127845 18.3388415,21.9990334 C18.4601122,21.8531054 18.7241402,21.7961052 18.771301,21.8072888 C18.8302976,21.8211781 19.0535378,22.0857965 19.6018054,22.2486802 C19.8550901,22.3231775 20.2500395,22.3527599 20.4415963,22.2477783 C20.8980915,21.9977707 20.9091989,21.8004343 21.3760731,21.7125889 C21.3760731,21.7125889 21.1269764,21.8300167 20.8871662,22.4234691 C20.6743051,22.9500003 20.0887093,23.1449918 19.7188881,23.2600746 C19.2693123,23.40005 18.7722114,23.4979967 18.3240923,23.7065168 C18.0249214,23.8457707 17.6416257,24.0844143 17.3027595,24.3890772 C16.9646216,24.6935598 16.6490627,25.1795053 16.4757147,25.2794362 C16.3014563,25.3809905 14.7850256,25.5655199 13.3652837,25.0934637 C11.9457239,24.6214075 11.4087457,23.9049355 10.8116784,23.1377765 C10.1882083,22.3361649 9.61208115,21.7571429 9.21239749,21.6133795 C8.84403301,21.4809801 8.6029482,21.413157 8.27227598,21.4833251 C8.0213584,21.5365374 7.82579565,21.6885983 7.75896927,21.9223716 C7.65281183,22.2923324 7.72728592,22.4774029 7.81614497,22.5914035 C7.9208457,22.7259675 8.2409568,22.8338351 8.2409568,22.8338351 C8.2409568,22.8338351 7.85893571,22.7665531 7.64079401,22.9754339 C7.4321209,23.174935 7.37294223,23.8284541 7.67484451,24.0764775 C7.92357703,24.2808488 8.16557228,24.2824722 8.16557228,24.2824722 C8.16557228,24.2824722 8.0044242,24.2909501 7.94506344,24.4000804 C7.84327612,24.5873156 7.75969762,24.8957665 7.90209062,25.1050081 C8.25679848,25.6273905 8.61824361,25.4237407 9.00609153,25.5036493 C9.54798609,25.6154854 9.75429205,25.6495773 10.1494235,25.8424042 C10.7597832,26.1402127 11.3502954,26.6963263 11.9313389,27.2663292 C12.6243667,27.9461839 13.2130579,28.3002712 13.4022476,28.4501675 C14.9802241,29.7025505 16.5891557,29.5584263 16.5891557,29.5584263 C16.5891557,29.5584263 16.4627865,29.501426 16.2559343,29.3874254 C16.1044368,29.3040896 15.9848049,29.201453 16.0376105,29.193877 C16.1446783,29.1789054 16.5088548,29.2963332 17.0179735,29.2699976 C17.5137997,29.2440228 17.7399533,29.1244304 17.7962186,29.1343514 C17.8757911,29.1486014 17.7428667,29.9691531 17.2018826,30.4538359 C16.6725521,30.9280567 16.3362352,31.0267249 15.7420813,31.0698359 C15.2504431,31.1051905 13.5029424,31.311546 13.1189183,31.2523811 C12.734348,31.1932163 12.1057794,30.9085756 11.8537693,30.8661861 C11.5970249,30.8230752 11.4023726,30.7729293 11.1272373,31.0108514 C10.8528303,31.2489539 10.5989993,31.8561152 10.7339267,32.1571706 C10.8684899,32.4578651 11.3078688,32.4887102 11.3078688,32.4887102 C11.3078688,32.4887102 10.7104373,32.4840203 10.4921135,32.7991453 C10.3098432,33.0621404 10.2018649,33.4030598 10.4378513,33.9308536 C10.5733249,34.2340735 10.9242089,34.4896729 11.1698459,34.4559418 C11.399095,34.4243751 11.6975376,34.1860923 11.6975376,34.1860923 C11.6975376,34.1860923 11.3628594,34.5930311 11.5101688,34.8188677 C11.6572961,35.0454258 12.1108779,35.2534047 12.4817916,35.2339236 C12.8523411,35.2148032 13.2261683,34.6714967 13.463065,34.324805 C13.7247258,33.9422176 14.0956395,33.8119828 14.5057022,33.6426053 C14.9687526,33.4514018 17.8417406,33.0983969 18.2838508,33.1748783 C18.738343,33.2531635 18.7328804,33.2731857 18.9878039,33.3330721 C18.9878039,33.3330721 18.9603086,33.192736 18.8572466,33.0213743 C18.7270536,32.8045568 18.5966784,32.6943442 18.6261767,32.6550212 C18.6675107,32.5998247 19.2860644,32.5965779 19.7809802,32.7078727 C20.3623879,32.8388291 20.833086,33.2073468 20.833086,33.2073468 C20.833086,33.2073468 20.4181069,33.0816215 19.9896533,33.1169761 C19.7037748,33.1404256 19.466878,33.2160051 19.466878,33.2160051 C19.5096688,33.2850909 19.5171344,33.3224297 19.5495461,33.4109966 C19.6207426,33.6058077 19.6852018,33.8742141 19.6447782,33.873673 C19.5863279,33.8727711 19.3565326,33.7989954 19.072657,33.7445204 C18.7254148,33.6775992 18.6003202,33.6222223 18.3013313,33.6449503 C18.1163297,33.65902 16.117183,34.158494 15.4984472,35.3060758 C14.9133978,36.3910655 15.2194881,37.0182491 15.4012121,37.351773 C15.5836645,37.684936 16.1412187,38.1651094 16.3223965,38.3076101 C16.6071824,38.5311017 17.6002916,38.9777243 17.5961036,39.0702596 C17.5920977,39.1629752 16.9393114,39.3951251 16.2074988,39.4730496 C15.4704056,39.5513348 14.4022761,39.2897828 14.0719681,38.9198221 C13.8578323,38.6802766 13.4120803,37.9244816 13.1444106,37.6288377 C12.8780156,37.3333741 12.1924534,37.019151 11.7576267,37.1948418 C11.4650109,37.3119088 11.3220717,37.5525366 11.2048069,37.7884745 C11.087542,38.0254947 11.1953383,38.2327521 11.2770959,38.308512 C11.3339074,38.3608224 11.5052524,38.4658039 11.5052524,38.4658039 C11.5052524,38.4658039 11.3198866,38.4152974 11.1124881,38.5877413 C10.9334954,38.7367357 10.8231499,38.90936 10.7854577,39.3184633 C10.7523176,39.6763386 10.8672153,39.8969441 11.0332798,40.0363784 C11.2018934,40.1777968 11.4220381,40.1419011 11.4220381,40.1419011 C11.4220381,40.1419011 11.0831719,40.2497687 11.0711541,40.4923807 C11.0589542,40.7407649 11.2150038,41.1390454 11.5322015,41.2898436 C11.8486708,41.441183 12.9727014,41.254489 13.4761754,41.2018179 C13.8481816,41.1628556 14.5209976,41.2501599 14.8848099,41.4841136 C15.1246201,41.6383391 15.2961472,41.9044006 15.5122859,42.0680058 C15.671249,42.1885001 15.9638647,42.2225921 16.1556036,42.0847812 C16.3220323,41.96573 16.327677,41.8306249 16.4318315,41.7425991 C16.5301591,41.6594436 16.5966213,41.6087567 17.343183,41.5531994 C17.9644681,41.5072023 18.2162961,41.7534219 18.3100715,41.9002518 C18.3492205,41.9615812 18.3699786,41.8955619 18.3932858,42.0916357 C18.426608,42.3733903 18.3359281,42.4747642 18.3359281,42.4747642 C18.3359281,42.4747642 18.6813494,42.4572673 18.9448311,42.2965481 C19.0943255,42.2056363 19.2889778,42.0568222 19.3239388,42.0232714 C19.3660012,41.9834073 19.4754362,41.9323596 19.5078479,42.0689077 C19.5482715,42.2390067 19.4850869,42.2927601 19.4850869,42.2927601 C19.4850869,42.2927601 19.8241351,42.2483865 20.0710468,42.0916357 C20.358382,41.9094512 20.438865,41.8071754 20.5306374,41.795631 C20.5872669,41.7885962 20.622592,41.8524509 20.5728819,42.0501481 C20.5728819,42.0501481 21.6759724,41.8374793 21.5603464,40.6361441 C21.4075743,39.0516803 21.2365935,38.4201676 21.3939177,37.7827024 C21.5494211,37.1455979 22.1255482,36.5283352 22.1255482,36.5283352 L22.370639,36.892163 C22.370639,36.892163 21.939272,37.4807451 21.8875589,38.2466414 C21.8562397,38.7096786 22.0020924,39.6355726 22.1503122,40.0628944 C22.3282124,40.5769792 22.6075358,41.0062852 22.7441019,41.1722354 C23.02907,41.5187467 23.2428416,41.5452627 23.2428416,41.5452627 C23.2428416,41.5452627 23.241567,41.4521862 23.2894562,41.3030114 C23.3260559,41.1899127 23.4209239,41.1799918 23.4378581,41.1848621 C23.4886607,41.1987514 23.5207082,41.3695719 23.7139038,41.5337183 C23.9273112,41.715542 24.4952444,41.795631 24.4952444,41.795631 C24.4952444,41.795631 24.4520895,41.7159028 24.4646536,41.5793546 C24.4761251,41.4541704 24.5507813,41.3647016 24.587381,41.3746226 C24.6434642,41.3897745 24.591387,41.4792433 24.931892,41.6477189 C25.2536419,41.8071754 25.598517,41.7274471 25.598517,41.7274471 C25.598517,41.7274471 25.5296876,41.6390606 25.5296876,41.5452627 C25.5296876,41.4312621 25.594511,41.3371034 25.6331137,41.3291666 C25.6826417,41.3185242 25.615087,41.3749833 26.0276989,41.4579584 C26.413908,41.5358829 26.65736,41.2929101 26.65736,41.2929101 C26.65736,41.2929101 26.4912955,41.1309283 26.3987947,40.9584844 C26.3432578,40.855487 26.3698427,40.7432902 26.4226483,40.6855684 C26.4792777,40.6238782 26.9920381,40.6110712 27.2347618,40.9516299 C27.4470766,41.2497991 27.6147799,42.6151004 27.544858,43.3775695 C27.4940554,43.9333223 26.960719,44.9416502 26.1957663,45.4050481 C25.5309622,45.8080185 25.2998923,45.6393626 25.0673656,45.4687225 C24.7940512,45.2683196 24.3184367,44.8678745 24.0092509,44.8222382 C23.7004293,44.7769627 23.3892405,44.7773234 23.1468811,44.830175 C22.9431244,44.874729 23.041452,44.8373902 22.6712666,44.9385837 C22.4207132,45.0056853 22.0086476,45.1361006 21.8407622,45.4524882 C21.6910857,45.7344232 21.7100229,46.2357011 21.9514719,46.4133761 C22.1812672,46.5822124 22.3930358,46.6226176 22.5041096,46.5192595 C22.5041096,46.5192595 22.3797434,46.6235195 22.2850575,46.7887482 C22.14576,47.0313602 22.1464884,47.2418644 22.3779225,47.5952302 C22.5763987,47.8979089 22.9027008,48.0220108 23.0598429,48.0319318 C23.3134918,48.0476249 23.4589803,47.9781783 23.4589803,47.9781783 C23.4589803,47.9781783 23.5156097,47.9595991 23.6463491,47.7992407 C23.6463491,47.7992407 23.35519,48.2269233 23.5263529,48.5256336 C23.6068359,48.6666913 23.8785116,48.8185718 24.1733124,48.8215656 C24.5859243,48.8247048 24.9717693,48.7541759 25.1562247,48.6524412 C25.449933,48.4908202 25.7061311,48.2972717 25.9242728,48.1118404 C26.3159446,47.7770539 26.6637331,47.3702955 27.189786,47.0380343 C27.4743899,46.857834 28.607707,46.2605936 29.144321,46.1529064 C29.4502292,46.0910358 29.5920759,46.0647002 29.7788984,45.8936994 C29.9578912,45.7297333 30.1303287,45.2930317 29.9496972,44.9023272 C29.7692478,44.5130657 29.9165571,43.9717434 30.0633203,43.2305592 C30.2104475,42.4900966 30.3985447,42.0019865 30.6363519,41.8331502 C30.8730666,41.6635924 31.1443781,41.683795 31.6174433,41.3798536 C32.1243769,41.0539057 32.0651982,40.50627 32.0651982,40.50627 C32.0651982,40.50627 31.9259007,40.572109 31.5387812,40.3756744 C31.2183059,40.2131514 31.255816,40.0149131 31.2667413,39.9382513 C31.2800338,39.8475198 31.3698033,39.8585231 31.65204,39.6110408 C31.9787063,39.3244159 31.8840204,38.6205706 31.8840204,38.6205706 C31.8840204,38.6205706 31.7738571,38.7704669 31.4369938,38.7648751 C31.1955448,38.7607263 30.9664779,38.7410648 30.9200454,38.5357916 C30.8716099,38.319876 31.0547906,38.2837999 31.0981276,37.9924851 C31.1522078,37.6270339 30.9553705,37.3903744 30.9553705,37.3903744 C30.9553705,37.3903744 30.8131596,37.6382175 30.2033461,37.6769993 C29.8249668,37.7009899 29.6253981,37.6477776 29.4657067,37.576888 C29.2342726,37.4738907 28.966785,37.1962848 28.9107018,36.8993782 C28.8027235,36.3273912 29.0062981,36.0553771 29.0723961,35.9839464 C29.2989139,35.737366 29.8260593,35.8479394 30.4917739,36.3043024 C31.2416132,36.8183873 32.7041458,37.5433372 33.8882655,37.0613601 C34.9878963,36.6134749 35.9919308,34.657427 34.8369452,32.9977445 C33.8106959,31.5227718 30.8723382,28.38974 30.5464003,27.8752943 C30.2577905,27.4196528 29.7845432,26.6434748 29.8861484,25.8874994 C29.9731866,25.2415562 30.2729038,24.816399 30.5717106,24.566211 C30.8634159,24.3219756 31.2270461,24.1493513 31.3333856,24.1360031 C31.4344446,24.1230157 32.2379999,24.5997618 32.9308456,24.6802116 C33.583814,24.7559715 34.1830664,24.4641156 34.6433854,24.2088769 C35.0146633,24.0027018 35.3511623,24.0465343 35.3511623,24.0465343 C35.1843695,23.94498 35.2380856,23.9381256 35.0554511,23.8666948 C34.9469265,23.8243054 34.6969193,23.8326029 34.6969193,23.8326029 C34.6969193,23.8326029 35.7228044,23.5275792 36.2621497,22.9283546 C37.1818774,21.9072196 37.3311897,20.2646733 37.3311897,20.2646733 C37.3311897,20.2646733 36.5012316,21.3943974 35.6093634,21.5782053 L35.6093634,21.5782053 Z" id="Fill-17"></path>
        </g>
    </g>
</svg>