<?xml version="1.0" encoding="UTF-8"?>
<svg width="86px" height="121px" viewBox="0 0 86 121" version="1.1" xmlns="http://www.w3.org/2000/svg" xmlns:xlink="http://www.w3.org/1999/xlink">
    <title>Group 9</title>
    <g id="Page-1" stroke="none" stroke-width="1" fill="none" fill-rule="evenodd">
        <g id="iPhone-X" transform="translate(-566.000000, -2892.000000)" fill="#9DA6B9">
            <g id="Group-9" transform="translate(566.000000, 2892.000000)">
                <path d="M82.7652892,91.6045504 C82.7525775,95.1571056 81.5246295,97.8194369 79.4224812,100.116613 C76.2743434,103.551681 70.9851959,105.969608 65.3343104,107.838172 C59.6837881,109.720878 53.7325438,111.079965 49.1744993,112.742199 C46.9317962,113.551197 45.6904101,114.210071 44.2844985,115.312789 L45.2411431,116.542422 L44.2844985,115.313514 C43.8490328,115.654374 43.3365706,116.109095 42.8887563,116.522115 C42.2677001,115.943379 41.4472521,115.234101 40.5806788,114.641948 C39.8448543,114.148427 38.8780404,113.693705 38.0289003,113.306793 C37.1892032,112.927496 36.503499,112.651183 36.4918769,112.646106 L36.4446621,112.626887 L36.3956313,112.610932 C30.23301,110.588619 21.7241762,108.834642 14.8743978,105.734995 C11.4524142,104.192787 8.47679206,102.324586 6.41750028,100.036838 C4.36038764,97.7382108 3.16258441,95.0889337 3.15023592,91.6045504 L3.15023592,3.25663321 L82.7652892,3.25663321 L82.7652892,91.6045504 Z M-6.48895e-16,0.109805752 L-6.48895e-16,91.5323144 C-0.0112077455,95.7735068 1.57567185,99.2995576 4.07193596,102.044136 C7.82251099,106.171152 13.4540072,108.719275 19.2345233,110.697604 C24.9939585,112.65491 30.9565695,114.019587 35.3610146,115.467269 C35.5194844,115.531788 36.0806714,115.763402 36.7403568,116.060985 C37.5119888,116.404601 38.4446349,116.86928 38.8240903,117.133154 C39.5048566,117.593121 40.2543174,118.240844 40.8111427,118.763155 C41.0910093,119.025217 41.3243525,119.256469 41.486457,119.419578 C41.6485616,119.582686 41.7292504,119.669678 41.7299773,119.669678 L42.8232741,120.83355 L43.9627307,119.714623 C43.9634576,119.713898 44.3200148,119.364121 44.7877918,118.927714 C45.2519341,118.493119 45.8352922,117.969359 46.2005726,117.688449 L46.2002091,117.688087 C47.4316219,116.74858 48.0902169,116.383578 50.2517315,115.583257 C55.9428357,113.493289 64.6674023,111.770498 72.0729616,108.540942 C75.7795576,106.917103 79.192112,104.90434 81.7443494,102.149613 C84.2980407,99.406847 85.9281724,95.8481744 85.9155251,91.5323144 L85.9155251,0.109805752 L-6.48895e-16,0.109805752 L-6.48895e-16,0.109805752 Z" id="Fill-3"></path>
                <polyline id="Fill-4" points="20.3047945 30.3063562 21.627467 33.0344458 24.586758 33.4714734 22.4445176 35.5928405 22.9501396 38.5940274 20.3047945 37.1799027 17.658011 38.5940274 18.1632734 35.5928405 16.0228311 33.4714734 18.9817624 33.0344458 20.3047945 30.3063562"></polyline>
                <path d="M14.5462919,16.7105006 L14.5462919,16.718059 L18.2614549,16.718059 L18.2614549,16.7105006 L16.1737353,11.5768934 L16.1620423,11.5768934 L14.5462919,16.7105006 Z M15.1477144,10.8447308 C15.2658674,10.4056856 15.402254,9.9290497 15.5572387,9.41482304 C15.7195168,8.89402712 15.9262847,8.54038225 16.1771776,8.3538884 L17.3608962,7.48273224 C17.5085875,7.3560916 17.6154358,7.29258881 17.6818057,7.29258881 C17.7208254,7.29258881 17.789748,7.40061655 17.8907616,7.61630708 L23.408947,21.3445896 C23.6897429,22.0456751 23.9450118,22.5157417 24.1740246,22.7540597 C24.4026726,22.9850785 24.8089149,23.1416457 25.3927515,23.2237614 C25.5922259,23.2617171 25.6917808,23.3438328 25.6917808,23.4708384 L25.6917808,23.8412713 C25.6917808,24.0430935 25.6108241,24.144187 25.4478166,24.144187 C25.188901,24.144187 24.7264995,24.1241143 24.0606122,24.0850637 C23.402383,24.0452832 22.8776229,24.0259404 22.4852381,24.0259404 C22.1599525,24.0259404 21.5381903,24.0452832 20.6210454,24.0850637 C19.7039005,24.1241143 19.156531,24.144187 18.9789367,24.144187 C18.8531256,24.144187 18.7904023,24.0846987 18.7904023,23.9646274 L18.7904023,23.5489395 C18.7904023,23.3325191 18.9129314,23.2237614 19.1579896,23.2237614 C20.0864393,23.2237614 20.5506641,22.9332544 20.5506641,22.3515104 C20.5506641,22.1726807 20.5138324,21.9902014 20.4398044,21.8037075 C20.3734345,21.6102795 20.2111564,21.1964164 19.9526054,20.5628483 L18.8451028,17.8935411 L18.8451028,17.8939061 L14.0912656,17.8939061 L14.0912656,17.8935411 L12.9713642,21.1548111 C12.79377,21.6617386 12.7051552,22.0423904 12.7051552,22.2953067 C12.7051552,22.9142765 13.247784,23.2237614 14.3330417,23.2237614 C14.5321515,23.2237614 14.6320711,23.3175558 14.6320711,23.5047795 L14.6320711,23.9419999 C14.6320711,24.0770346 14.4872971,24.144187 14.1995726,24.144187 C14.0292717,24.144187 13.6562144,24.1241143 13.0800359,24.0850637 C12.5107861,24.0452832 12.0819343,24.0259404 11.793845,24.0259404 C11.5061204,24.0259404 11.0561177,24.0452832 10.4438369,24.0850637 C9.83155609,24.1241143 9.47381489,24.144187 9.37097797,24.144187 C9.20104178,24.144187 9.11643836,24.0730201 9.11643836,23.9314161 L9.11643836,23.5383557 C9.11643836,23.3285045 9.23495608,23.2237614 9.47162687,23.2237614 C10.1291268,23.2237614 10.6243485,22.9704801 10.9572922,22.4635527 C11.2971646,21.9569901 11.6738686,21.1037169 12.0881336,19.904098 L15.1477144,10.8447308 L15.1477144,10.8447308 Z" id="Fill-5"></path>
                <path d="M35.0801529,20.3959275 L35.0761262,20.3959275 L38.7085974,11.0439039 C38.8714967,10.6396575 38.9538615,10.2609689 38.9538615,9.90783824 C38.9538615,9.57738567 38.834524,9.3639234 38.5958491,9.26817135 C38.3648616,9.16557987 37.9288772,9.11374417 37.2875299,9.11374417 C37.0345784,9.11374417 36.9075535,9.01439242 36.9075535,8.81496898 L36.9075535,8.46075838 C36.9075535,8.29085249 36.9968736,8.20589954 37.1755137,8.20589954 C37.3164491,8.20589954 37.7473085,8.2256979 38.4677261,8.26457467 C39.1950989,8.30381141 39.7119838,8.3232498 40.0158185,8.3232498 C40.246806,8.3232498 40.5949346,8.30381141 41.0634989,8.26457467 C41.5386523,8.2256979 41.8545671,8.20589954 42.0108772,8.20589954 C42.1810978,8.20589954 42.2671233,8.29805189 42.2671233,8.48307653 L42.2671233,8.82612805 C42.2671233,9.01835209 42.1701158,9.11374417 41.9775652,9.11374417 C41.4581178,9.11374417 41.1023018,9.23901377 40.9093851,9.48883303 C40.7168345,9.73901226 40.4642491,10.2573692 40.1530931,11.0439039 L34.7909609,24.1853328 C34.7393457,24.3178018 34.6763823,24.4056346 34.602437,24.4499109 C34.5284917,24.4866278 34.4245291,24.5049863 34.2912811,24.5049863 L33.9028853,24.5049863 C33.7176559,24.5049863 33.5880686,24.4826682 33.5141233,24.4391118 C33.4478654,24.3872761 33.384536,24.2846846 33.3255994,24.1302574 L27.8865934,10.9114349 C27.5900801,10.2134529 27.2748974,9.73901226 26.9414115,9.48883303 C26.6071934,9.23901377 26.1291114,9.11374417 25.5064334,9.11374417 C25.2619015,9.11374417 25.1392694,9.03239092 25.1392694,8.87040437 L25.1392694,8.46075838 C25.1392694,8.29085249 25.2282234,8.20589954 25.4061314,8.20589954 C25.5697628,8.20589954 26.0112382,8.2256979 26.7305575,8.26457467 C27.4579303,8.30381141 28.0440017,8.3232498 28.4891378,8.3232498 C28.8749711,8.3232498 29.5686659,8.30381141 30.570222,8.26457467 C31.5721441,8.2256979 32.1659029,8.20589954 32.3511322,8.20589954 C32.5960303,8.20589954 32.7186623,8.29805189 32.7186623,8.48307653 L32.7186623,8.8484462 C32.7186623,9.02555149 32.6106729,9.11374417 32.3950601,9.11374417 C31.8232653,9.11374417 31.4180304,9.16557987 31.1800876,9.26817135 C30.9421449,9.3639234 30.8231735,9.51475088 30.8231735,9.72101375 C30.8231735,9.92655668 30.9227434,10.2829271 31.1233474,10.7908449 L35.0801529,20.3959275" id="Fill-6"></path>
                <path d="M50.7754695,15.0899087 L54.2031874,15.0899087 C54.9052899,15.0899087 55.3755662,14.9935275 55.6147521,14.8025767 C55.853202,14.610539 56.0360873,14.1982014 56.1634078,13.5641145 C56.193582,13.4021506 56.2634978,13.3209875 56.3757312,13.3209875 L56.8460075,13.3209875 C56.9954067,13.3209875 57.0693703,13.4061363 57.0693703,13.5753469 C57.0693703,13.7155707 57.0502355,14.0587023 57.0119657,14.6043793 C56.9810555,15.1500563 56.9652325,15.574351 56.9652325,15.8765387 C56.9652325,16.0903165 56.9810555,16.4443182 57.0119657,16.9389059 C57.0502355,17.432769 57.0693703,17.7537981 57.0693703,17.9012686 C57.0693703,18.1299022 57.0138056,18.2444001 56.9019402,18.2444001 L56.4213605,18.2444001 C56.2863125,18.2444001 56.2005736,18.1483813 56.1634078,17.9567059 C56.006649,17.2860232 55.7641513,16.8142625 55.4351787,16.541424 C55.1139336,16.2617011 54.6175309,16.1214774 53.9452346,16.1214774 L50.7754695,16.1214774 L50.7754695,21.3641074 C50.7754695,22.0880534 50.9167732,22.5945982 51.1990125,22.8826548 C51.4823558,23.1710737 51.9323933,23.3149209 52.5494929,23.3149209 C52.7953024,23.3149209 52.9178392,23.3739815 52.9178392,23.4931899 L52.9178392,24.0279968 C52.9178392,24.1620609 52.7953024,24.2287306 52.5494929,24.2287306 C52.4232763,24.2287306 51.9765507,24.2088021 51.2093159,24.1700323 C50.4505447,24.1305377 49.9070407,24.1113339 49.5791721,24.1113339 C49.2892052,24.1113339 48.6526027,24.1305377 47.6697327,24.1700323 C46.6953261,24.2088021 46.1326873,24.2287306 45.9836561,24.2287306 C45.7157679,24.2287306 45.5821918,24.1472051 45.5821918,23.9834296 L45.5821918,23.5489895 C45.5821918,23.3931853 45.7120881,23.3149209 45.9722488,23.3149209 C46.5676377,23.3149209 47.0073717,23.1525946 47.2896111,22.8272175 C47.579946,22.5022027 47.7252974,22.0144993 47.7252974,21.3641074 L47.7252974,11.425249 C47.7252974,10.5534702 47.6090162,9.95126887 47.3782939,9.61864503 C47.155667,9.28638353 46.7056295,9.11970927 46.0289174,9.11970927 C45.731223,9.11970927 45.5821918,9.03782148 45.5821918,8.87477058 L45.5821918,8.43996817 C45.5821918,8.28380164 45.7161359,8.20589954 45.9843921,8.20589954 C46.1334233,8.20589954 46.7409554,8.22582799 47.8062526,8.2649602 C48.8715498,8.30445476 49.7399786,8.32402086 50.410435,8.32402086 C50.9612985,8.32402086 52.3139868,8.30445476 54.4673958,8.2649602 C56.6281643,8.22582799 57.8200461,8.20589954 58.0434089,8.20589954 C58.2082632,8.20589954 58.2899543,8.28742499 58.2899543,8.4504759 L58.2899543,11.5868506 C58.2899543,11.7803377 58.211575,11.8763565 58.0551842,11.8763565 L57.71922,11.8763565 C57.5705568,11.8763565 57.4583234,11.7618586 57.3836238,11.5328626 L57.1267749,10.8676149 C56.8956846,10.2538189 56.5711277,9.82916186 56.1534723,9.59219455 C55.735817,9.35631425 54.9166973,9.23783059 53.6935374,9.23783059 L53.0006343,9.23783059 C52.1358853,9.23783059 51.547488,9.33384946 51.2343384,9.52588719 C50.9281805,9.71792492 50.7754695,10.0947537 50.7754695,10.6567358 L50.7754695,15.0899087" id="Fill-7"></path>
                <path d="M75.7510187,12.2389634 C75.7510187,12.2982424 75.6405741,12.3502479 75.4204069,12.3949799 C75.2067364,12.4397119 75.0432352,12.4622597 74.9291814,12.4622597 C74.8515815,12.4622597 74.7981639,12.4360751 74.7700113,12.383706 C74.7487165,12.3317005 74.7198421,12.2389634 74.6851928,12.1047674 C74.4076378,11.2279475 73.896922,10.458048 73.1512409,9.79652359 C72.4059208,9.127362 71.4368242,8.79241753 70.2443119,8.79241753 C68.484057,8.79241753 67.0573013,9.47212569 65.9636839,10.8319057 C64.8700664,12.1836848 64.3239796,13.8958657 64.3239796,15.9677209 C64.3239796,18.0548504 64.9126562,19.8117633 66.091814,21.2377321 C67.269889,22.6564274 68.7500623,23.3659569 70.531973,23.3659569 C71.8313205,23.3659569 72.7899502,23.1132029 73.4075011,22.6069676 C74.0246912,22.0945499 74.5787185,21.2806457 75.0685003,20.1648915 C75.2103457,19.8528585 75.3197075,19.6964784 75.3976683,19.6964784 C75.4965631,19.6964784 75.6629518,19.7412104 75.8964734,19.8303107 C76.129995,19.9117739 76.2465753,19.9968738 76.2465753,20.0863378 C76.2465753,20.1307061 76.2216712,20.245991 76.1725847,20.4311014 L75.4835696,23.3139514 C73.9503396,24.1074898 72.1825052,24.5049863 70.1797055,24.5049863 C67.5882292,24.5049863 65.4194017,23.7478154 63.6728621,22.2345647 C61.9259617,20.7205866 61.0525114,18.5578127 61.0525114,15.7455156 C61.0525114,13.5118251 61.9223524,11.6047146 63.6627561,10.0245477 C65.4031598,8.44401709 67.5481659,7.65338813 70.0984963,7.65338813 C71.2552764,7.65338813 72.3922055,7.85304558 73.5074787,8.25272416 C74.622391,8.65203907 75.2363327,8.98516516 75.3503865,9.25173878 C75.3922544,9.37029675 75.4691324,9.87580469 75.5824644,10.7671716 C75.6947136,11.6519923 75.7510187,12.1425896 75.7510187,12.2389634" id="Fill-8"></path>
                <path d="M26.2442922,102.428671 L26.2442922,101.019533 C26.2442922,101.019533 27.6255708,100.836683 27.6255708,101.274067 C27.6255708,102.093253 26.2442922,102.428671 26.2442922,102.428671 Z M25.4155251,100.204079 L25.4155251,106.19101 L26.2244227,106.19101 L26.2244227,103.058753 C26.2244227,103.058753 28.4543379,102.504705 28.4543379,101.09885 C28.4543379,99.6926219 25.4155251,100.204079 25.4155251,100.204079 L25.4155251,100.204079 Z" id="Fill-9"></path>
                <path d="M39.7808219,102.428671 L39.7808219,101.019533 C39.7808219,101.019533 41.1621005,100.836683 41.1621005,101.274067 C41.1621005,102.093253 39.7808219,102.428671 39.7808219,102.428671 Z M38.9520548,100.204079 L38.9520548,106.19101 L39.7608603,106.19101 L39.7608603,103.058753 C39.7608603,103.058753 41.9908676,102.504705 41.9908676,101.09885 C41.9908676,99.6926219 38.9520548,100.204079 38.9520548,100.204079 L38.9520548,100.204079 Z" id="Fill-10"></path>
                <path d="M30.6643836,101.019533 C30.6643836,101.019533 32.0456621,100.836683 32.0456621,101.274067 C32.0456621,102.093253 30.6643836,102.428671 30.6643836,102.428671 L30.6643836,101.019533 Z M32.0783084,102.350408 C32.4668405,102.045551 32.7809515,101.634218 32.7809515,101.09885 C32.7809515,99.6926219 29.8356164,100.204079 29.8356164,100.204079 L29.8356164,106.19101 L30.6193853,106.19101 L30.6193853,103.058753 C30.6193853,103.058753 31.0196505,102.955266 31.475564,102.726623 C31.5858548,102.932476 31.8426414,103.441692 32.1513886,104.259875 C32.5647278,105.354521 32.6642913,106.185406 32.6642913,106.185406 L33.4269406,106.185406 C33.4269406,106.185406 33.2489333,105.09076 32.9069982,104.123885 C32.6378081,103.363236 32.2372076,102.629487 32.0783084,102.350408 L32.0783084,102.350408 Z" id="Fill-11"></path>
                <path d="M48.3447489,101.019533 C48.3447489,101.019533 49.7260274,100.836683 49.7260274,101.274067 C49.7260274,102.093253 48.3447489,102.428671 48.3447489,102.428671 L48.3447489,101.019533 Z M49.7583385,102.350408 C50.1468706,102.045551 50.4609816,101.634218 50.4609816,101.09885 C50.4609816,99.6926219 47.5159817,100.204079 47.5159817,100.204079 L47.5159817,106.19101 L48.2997506,106.19101 L48.2997506,103.058753 C48.2997506,103.058753 48.7000158,102.955266 49.155594,102.726623 C49.2658849,102.932476 49.5226714,103.441692 49.8317539,104.259875 C50.2447579,105.354521 50.3446566,106.185406 50.3446566,106.185406 L51.1073059,106.185406 C51.1073059,106.185406 50.9292985,105.09076 50.5870282,104.123885 C50.3178381,103.363236 49.9175729,102.629487 49.7583385,102.350408 L49.7583385,102.350408 Z" id="Fill-12"></path>
                <polyline id="Fill-13" points="35.0844749 100.475306 35.0844749 106.276676 37.5707763 106.276676 37.5707763 105.620478 35.9039643 105.620478 35.9039643 102.943118 37.0239802 102.943118 37.0239802 102.286557 35.9039643 102.286557 35.9039643 101.131866 37.5707763 101.131866 37.5707763 100.475306 35.0844749 100.475306"></polyline>
                <polyline id="Fill-14" points="52.4885845 100.475306 52.4885845 106.276676 54.9748858 106.276676 54.9748858 105.620478 53.308194 105.620478 53.308194 102.943118 54.4282447 102.943118 54.4282447 102.286557 53.308194 102.286557 53.308194 101.131866 54.9748858 101.131866 54.9748858 100.475306 52.4885845 100.475306"></polyline>
                <path d="M43.7621542,102.419925 L44.2009132,100.969583 L44.6396723,102.419925 L43.7621542,102.419925 Z M44.3390099,100.390532 L44.3393846,100.389446 L43.5857556,100.389446 L41.7146119,106.190091 L42.6387537,106.190091 L43.6138621,102.865243 L44.7875897,102.865243 L45.7630728,106.190816 L46.6872146,106.190816 L44.8160709,100.390532 L44.3390099,100.390532 L44.3390099,100.390532 Z" id="Fill-15"></path>
                <path d="M57.1849315,105.612189 L57.1849315,101.00966 C57.5938245,100.946652 59.1187215,100.833382 59.1187215,102.648243 C59.1187215,105.146728 57.7258518,105.549909 57.1849315,105.612189 Z M56.3561644,100.195696 L56.3561644,106.19101 L57.1818744,106.19101 C57.1818744,106.19101 59.9474886,106.2337 59.9474886,102.508091 C59.9474886,99.4400085 56.3561644,100.195696 56.3561644,100.195696 L56.3561644,100.195696 Z" id="Fill-16"></path>
                <path d="M45.3963328,32.6108385 C44.9106236,33.3412701 43.643077,33.7932557 43.643077,33.7932557 C43.643077,33.7932557 43.3565013,33.7825873 43.5784138,33.2733478 C43.778282,32.8128274 43.8539674,32.587368 43.8539674,32.587368 L42.8369909,32.9451159 C42.8369909,32.9451159 43.1911691,32.6328866 43.3337222,32.1289813 C43.4770101,31.625076 43.4421066,31.2975553 43.4421066,31.2975553 C43.4421066,31.2975553 43.3080038,31.7278485 42.8050267,31.9287705 C42.4067598,32.0873744 41.5977345,32.1787673 41.5977345,32.1787673 C41.5977345,32.1787673 42.5757661,30.2243117 44.0872694,30.3672686 C45.5973032,30.5102255 45.8835115,31.8800514 45.3963328,32.6108385 Z M38.658952,34.9815797 C38.4698157,35.4282359 38.0374523,35.8785866 37.5477309,36.0056749 C37.1273473,36.11503 36.7610545,36.1024689 36.4706341,35.9982861 C35.7242536,35.7300707 35.573235,35.195487 35.573235,35.195487 L36.3766105,34.8072027 C36.5185535,35.218023 36.7835621,35.4500331 37.1269843,35.4618552 C37.4595157,35.473308 37.7074621,35.311492 37.8047529,35.0251739 C37.8632,34.8530136 37.8290756,34.6003148 37.8290756,34.6003148 C37.8290756,34.6003148 37.7335999,34.8293693 37.5274014,34.8397137 C37.3861845,34.8463636 37.1451355,34.7318364 37.2308096,34.3782797 L39.0158061,33.5071337 C39.0158061,33.5071337 38.9635304,34.2648608 38.658952,34.9815797 Z M71.1487711,43.5160474 C69.8975985,43.7768688 69.0411692,43.6564617 69.0411692,43.6564617 C69.0411692,43.6564617 69.5097678,43.6160835 69.8615805,43.3487142 C70.2741509,43.0347827 70.5077225,42.4913138 70.5077225,42.4913138 C70.5077225,42.4913138 69.76626,42.8765438 68.5212723,42.5404225 C67.9595361,42.3890951 66.7229162,42.2723257 65.74388,42.6324557 C65.0035089,42.9049177 64.1096063,43.6604631 64.1096063,43.6604631 C64.1096063,43.6604631 64.3999336,43.3639925 64.543642,43.0147755 C64.726279,42.5702514 64.6364158,42.0747999 64.6364158,42.0747999 C64.6364158,42.0747999 64.5363657,42.555337 63.9233311,42.8201598 C63.5566018,42.9787625 62.7663875,43.3232505 62.4123919,43.8496223 C61.944521,44.5462374 61.9910898,45.4040016 61.8190035,45.6000724 C61.673476,45.7659504 57.1424775,47.8132349 56.8379612,51.9740096 C56.5341726,56.1333292 59.636455,59.3341209 60.651873,60.5174572 C61.6669273,61.701521 65.9690838,66.719696 66.6741645,67.8426469 C67.2329901,68.7316951 67.7063183,69.6891316 67.1656836,70.8433664 C66.8462508,71.525067 65.7577051,72.3228095 64.1659982,71.5803597 C62.542639,70.8233592 61.43663,69.7560648 59.7263182,68.9987005 C58.3594512,68.3930273 56.7750206,67.9521409 56.4115657,67.7160557 C56.1441589,67.5421748 53.7775181,66.0172607 53.5501314,63.2577191 C53.3733154,61.1107623 54.2312,57.7575518 54.3599919,55.4348952 C54.5389907,52.2231904 53.6156187,50.841237 53.601066,50.722285 C53.5734157,50.5076621 54.4182029,50.7721212 54.7674688,51.4010755 C55.2575327,52.281757 55.2058704,52.6331566 55.2058704,52.6331566 C55.2058704,52.6331566 56.2976904,50.5847808 55.8378235,47.9907535 C55.3146522,45.0427803 53.4951947,44.6891981 53.4799143,44.474939 C53.4679083,44.3065145 54.0216404,44.1901089 54.5997484,44.3719927 C56.1980041,44.8743559 56.4774169,46.410183 56.4774169,46.410183 C56.4774169,46.410183 57.1653981,44.2490392 56.216195,42.0584303 C55.3477597,40.0529791 54.0627519,39.8649112 54.0241872,39.6317361 C54.0045409,39.5175131 54.4272983,39.3174409 55.2811809,39.5317 C56.6153042,39.8660025 56.9085421,40.9991388 56.9085421,40.9991388 C56.9085421,40.9991388 57.2206986,39.1177324 56.6571433,37.52443 C55.6431805,34.6593958 53.5799645,34.3745657 53.5686861,34.143937 C53.5621374,34.0188009 54.1551619,33.8481939 54.7500055,34.0118893 C55.7523261,34.2872615 55.8763883,34.5859147 55.8763883,34.5859147 C55.8763883,34.5859147 55.826909,33.8933011 55.2797256,32.841285 C54.6826991,31.6932342 53.2143267,30.1712302 52.6162087,29.8107365 C49.2643467,27.7907346 47.4270621,28.2036109 46.8296717,28.1577762 C46.6706829,28.1457718 46.3235998,27.8514838 46.4756761,27.3629438 C46.7074286,26.6197664 47.2229597,26.3553073 47.2229597,26.3553073 C47.2229597,26.3553073 45.8058858,26.3091088 44.5347031,26.7845532 C43.037589,27.3436641 42.275025,28.1763283 42.0989367,28.1730544 C41.9384926,28.1701443 41.7594938,27.9071402 41.7653149,27.547374 C41.775138,27.0042689 41.9570474,26.8329343 41.9570474,26.8329343 C41.9570474,26.8329343 40.1987115,27.4204191 39.3495585,28.0410067 C38.7583531,28.4738903 37.8520806,29.1643213 37.3954881,30.2508954 C37.0360352,31.1050219 36.8421198,32.1966886 36.8421198,32.1966886 C36.8421198,32.1966886 36.4419192,31.9009455 35.8816384,32.3036363 C35.2988007,32.7230605 34.6650285,33.5313522 34.3459595,34.015527 C34.0432623,34.4742381 33.5873974,34.9638693 33.2806982,35.0820938 C32.9361619,35.2152328 30.9566242,35.9078465 30.5647914,36.1482969 C30.222438,36.3585546 30.0630853,37.0937291 30.1285727,37.3887447 C30.158042,37.5237025 30.2952017,37.8478195 30.6051753,38.1948538 C30.7732595,38.3832855 30.8816775,38.2232277 30.9813638,38.0056946 C31.0366643,37.8838325 31.1188873,37.8223557 31.1880129,37.8576412 C31.6002195,38.069354 31.2371284,39.0289731 31.3429997,39.2934322 C31.4736106,39.6211869 31.7850394,39.9151112 32.1226632,40.1373732 C32.5770728,40.4360265 33.4749774,40.7277682 33.4749774,40.7277682 C33.4749774,40.7277682 33.3480047,40.3170744 33.5015362,40.0693487 C33.6325109,39.8601822 34.0148844,39.5775348 34.3914368,39.5266073 C35.1052492,39.4305726 36.1992521,39.4902305 36.7719028,39.9813169 C37.5635724,40.6611987 37.4566097,41.5546121 37.4566097,41.5546121 C37.4566097,41.5546121 36.0442653,42.0998998 35.3668348,42.2072113 C34.68613,42.3145228 34.1633225,42.2988807 33.6678014,42.119907 C33.1704612,41.9405696 32.7313319,41.4229282 32.7313319,41.4229282 C32.7313319,41.4229282 32.5763452,42.2195794 32.5134045,42.3177967 C32.4671995,42.3898227 32.0997426,42.5633398 32.1303034,42.793241 C32.1899697,43.245768 32.8208313,43.2792346 32.8928675,43.4036432 C32.9816392,43.5586082 32.4992156,44.0202294 32.829563,44.7092054 C33.0100171,45.0849774 33.3978479,45.4007277 33.7576646,45.6000724 C34.1531356,45.8194243 34.5136799,45.9045459 34.5136799,45.9045459 C34.5136799,45.9045459 34.3819775,45.3519828 34.6875853,44.9503833 C34.8596715,44.7241198 35.1972953,44.6528214 35.2464108,44.6771938 C35.3420952,44.7248474 35.3541012,44.9292848 35.7401129,45.144999 C36.1650532,45.3818118 36.6864054,45.2992365 36.6864054,45.2992365 C36.6864054,45.2992365 36.2869324,44.7957821 36.6416557,44.3647174 C36.883959,44.0704293 37.4114961,43.9554787 37.5057252,43.9780323 C37.6236025,44.0060424 38.0696442,44.5396896 39.1651024,44.8681718 C39.6711743,45.0184079 40.4602971,45.0780658 40.8430344,44.866353 C41.755128,44.362171 41.7773209,43.9642092 42.7101522,43.7870543 C42.7101522,43.7870543 42.2124481,44.0238671 41.7332989,45.2206627 C41.3079948,46.2825005 40.1379537,46.6757334 39.3990379,46.9078172 C38.5007694,47.1901009 37.5075443,47.3876267 36.6121864,47.8081422 C36.0144322,48.0889708 35.2485938,48.5702355 34.5715271,49.1846391 C33.8959157,49.7986789 33.2654178,50.778669 32.9190624,50.9801963 C32.5708879,51.1849975 29.5410055,51.5571318 26.7043108,50.6051518 C23.8679799,49.6531718 22.7950785,48.2082866 21.6021169,46.6611827 C20.3564015,45.0445991 19.2052791,43.8769049 18.4066969,43.5869821 C17.6706916,43.3199766 17.1889956,43.1832 16.5283008,43.3247056 C16.0269586,43.432017 15.6362173,43.7386732 15.5026958,44.2101161 C15.2905895,44.9562036 15.4393913,45.3294292 15.6169349,45.5593304 C15.8261306,45.8307011 16.465724,46.0482342 16.465724,46.0482342 C16.465724,46.0482342 15.7024323,45.9125488 15.2665774,46.3337918 C14.8496412,46.7361188 14.7314001,48.0540491 15.3346115,48.5542297 C15.8315879,48.9663785 16.315103,48.9696524 16.315103,48.9696524 C16.315103,48.9696524 15.9931234,48.9867494 15.8745185,49.2068289 C15.6711439,49.5844197 15.5041511,50.2064625 15.7886573,50.628433 C16.4973762,51.6819041 17.2195564,51.2712104 17.9944903,51.4323595 C19.0772149,51.6578955 19.4894215,51.7266476 20.2789081,52.1155152 C21.4984285,52.7160956 22.6782927,53.8375914 23.8392383,54.9870972 C25.2239324,56.3581376 26.4001583,57.0722135 26.778166,57.3745045 C29.9310191,59.9001434 33.1457215,59.6094931 33.1457215,59.6094931 C33.1457215,59.6094931 32.8932313,59.4945425 32.4799332,59.2646413 C32.177236,59.0965807 31.9382071,58.8895968 32.0437145,58.8743186 C32.2576399,58.8441259 32.9852774,59.0809386 34.0025146,59.0278286 C34.993193,58.975446 35.4450559,58.7342681 35.5574759,58.7542753 C35.7164647,58.7830129 35.450877,60.4377921 34.3699715,61.4152358 C33.3123505,62.371581 32.6403773,62.5705619 31.4532367,62.6575024 C30.4709261,62.7288009 26.9793578,63.1449511 26.212064,63.0256353 C25.4436789,62.9063195 24.1877766,62.3322941 23.6842515,62.2468087 C23.1712671,62.1598682 22.7823448,62.0587408 22.2326147,62.5385504 C21.6843399,63.0187237 21.1771766,64.2431657 21.4467663,64.850294 C21.7156283,65.4566947 22.5935229,65.518899 22.5935229,65.518899 C22.5935229,65.518899 21.3998337,65.509441 20.963615,66.1449431 C20.5994324,66.6753164 20.3836879,67.3628373 20.855197,68.4272215 C21.1258781,69.038715 21.8269568,69.5541738 22.3177483,69.4861492 C22.7757961,69.4224899 23.372095,68.9419528 23.372095,68.9419528 C23.372095,68.9419528 22.7033962,69.7626126 22.9977255,70.2180498 C23.2916911,70.674942 24.1979635,71.0943661 24.9390623,71.0550792 C25.6794334,71.0165198 26.4263533,69.9208516 26.8996815,69.2216901 C27.422489,68.4501389 28.1635877,68.1874986 28.9829075,67.8459208 C29.9080986,67.460327 35.6484305,66.7484337 36.5317824,66.9026712 C37.439874,67.0605464 37.4289594,67.1009246 37.9383057,67.2216954 C37.9383057,67.2216954 37.883369,66.9386842 37.6774476,66.5931049 C37.4173172,66.1558562 37.156823,65.9335941 37.2157617,65.8542927 C37.2983485,65.7429798 38.5342407,65.736432 39.5231001,65.9608767 C40.6847733,66.224972 41.6252447,66.9681494 41.6252447,66.9681494 C41.6252447,66.9681494 40.7961018,66.7146033 39.9400363,66.7859018 C39.3688409,66.8331916 38.8955127,66.9856102 38.8955127,66.9856102 C38.9810102,67.1249332 38.9959267,67.2002331 39.0606865,67.3788431 C39.2029396,67.7717122 39.3317314,68.3129985 39.2509637,68.3119072 C39.1341778,68.3100883 38.6750386,68.1613073 38.1078452,68.0514495 C37.4140429,67.9164917 37.1640994,67.804815 36.566709,67.8506497 C36.1970692,67.8790236 32.2027033,68.8862963 30.9664473,71.2005863 C29.7974977,73.3886488 30.409077,74.653469 30.7721681,75.3260755 C31.1367144,75.9979544 32.2507274,76.9663039 32.612727,77.2536804 C33.1817395,77.7043885 35.1660069,78.6050773 35.1576391,78.7916901 C35.1496351,78.9786667 33.8453449,79.4468357 32.3831574,79.6039833 C30.9104192,79.7618585 28.7762585,79.2343954 28.1162913,78.4883079 C27.6884405,78.0052244 26.7978122,76.4810378 26.2629987,75.8848226 C25.7307319,75.2889712 24.3609543,74.6552879 23.4921552,75.0095976 C22.9074985,75.2456828 22.6219008,75.7309489 22.3876015,76.206757 C22.1533023,76.6847477 22.3686829,77.1027168 22.5320376,77.2554992 C22.645549,77.3609918 22.9879024,77.5727046 22.9879024,77.5727046 C22.9879024,77.5727046 22.617535,77.4708497 22.2031454,77.8186116 C21.8455116,78.1190837 21.6250374,78.4672093 21.549727,79.2922344 C21.483512,80.0139495 21.7130816,80.4588374 22.0448843,80.7400298 C22.3817804,81.0252236 22.8216373,80.9528339 22.8216373,80.9528339 C22.8216373,80.9528339 22.1445706,81.1703669 22.1205586,81.6596344 C22.0961827,82.1605425 22.4079754,82.9637416 23.0417476,83.2678513 C23.6740646,83.5730524 25.9199176,83.1965529 26.9258764,83.0903327 C27.6691581,83.0117589 29.0134683,83.1878224 29.7403781,83.6596291 C30.2195274,83.9706505 30.5622446,84.5072078 30.9940975,84.8371451 C31.3117112,85.0801419 31.8963679,85.148894 32.2794691,84.8709755 C32.6119994,84.6308888 32.6232778,84.3584268 32.8313821,84.1809082 C33.0278442,84.0132113 33.160638,83.9109926 34.6522949,83.7989521 C35.8936444,83.7061914 36.3968057,84.2027343 36.5841723,84.4988411 C36.6623934,84.6225222 36.7038687,84.4893832 36.7504375,84.8847986 C36.8170163,85.4530038 36.6358346,85.6574412 36.6358346,85.6574412 C36.6358346,85.6574412 37.3259987,85.6221557 37.8524444,85.2980387 C38.1511396,85.1146998 38.5400618,84.8145915 38.609915,84.7469307 C38.6939572,84.666538 38.9126122,84.5635918 38.977372,84.8389639 C39.0581397,85.1819968 38.9318946,85.2903996 38.9318946,85.2903996 C38.9318946,85.2903996 39.6093251,85.2009128 40.1026633,84.8847986 C40.6767693,84.5173933 40.8375772,84.311137 41.0209418,84.2878559 C41.1340894,84.273669 41.2046703,84.4024427 41.1053477,84.8011321 C41.1053477,84.8011321 43.3093616,84.37225 43.0783367,81.9495573 C42.7730928,78.754222 42.431467,77.4806714 42.7458064,76.1951164 C43.0565076,74.910289 44.2076301,73.665476 44.2076301,73.665476 L44.6973301,74.3991954 C44.6973301,74.3991954 43.8354435,75.5861693 43.732119,77.1307269 C43.6695422,78.0645185 43.960961,79.931738 44.2571094,80.7935036 C44.6125603,81.8302415 45.1706583,82.6960086 45.4435223,83.0306748 C46.0128986,83.7294725 46.4400218,83.7829464 46.4400218,83.7829464 C46.4400218,83.7829464 46.4374751,83.5952422 46.5331594,83.2944064 C46.606287,83.066324 46.7958366,83.0463168 46.8296717,83.0561385 C46.9311771,83.0841487 46.9952092,83.4286366 47.3812209,83.7596652 C47.8076165,84.126343 48.9423671,84.2878559 48.9423671,84.2878559 C48.9423671,84.2878559 48.856142,84.1270706 48.8812455,83.8516985 C48.9041661,83.5992437 49.0533318,83.4188149 49.1264594,83.4388221 C49.2385155,83.4693786 49.1344634,83.6498074 49.8148044,83.9895664 C50.4576721,84.311137 51.1467448,84.1503517 51.1467448,84.1503517 C51.1467448,84.1503517 51.0092213,83.9721056 51.0092213,83.7829464 C51.0092213,83.5530452 51.1387408,83.3631585 51.2158704,83.3471527 C51.314829,83.3256904 51.1798523,83.4395497 52.0042656,83.6068828 C52.7759251,83.7640304 53.2623507,83.2740354 53.2623507,83.2740354 C53.2623507,83.2740354 52.930548,82.947372 52.7457281,82.5996101 C52.6347634,82.3918988 52.687881,82.1656353 52.7933884,82.0492296 C52.906536,81.9248211 53.9310496,81.8989936 54.4160199,82.5857869 C54.8402326,83.1870949 55.1753096,85.9404524 55.0356032,87.4780984 C54.9340978,88.5988666 53.8684727,90.6323279 52.3400702,91.5668471 C51.011768,92.3795041 50.5500821,92.0393813 50.0854855,91.6952571 C49.5393936,91.2911112 48.5890991,90.4835469 47.9713349,90.3915137 C47.3542983,90.300208 46.7325321,90.3009356 46.2482894,90.4075195 C45.8411762,90.4973701 46.0376383,90.4220702 45.2979948,90.6261439 C44.7973803,90.7614654 43.9740585,91.0244695 43.6386176,91.662518 C43.3395586,92.2310868 43.3773957,93.2419972 43.8598194,93.6003084 C44.3189586,93.9407949 44.7420798,94.0222789 44.9640092,93.81384 C44.9640092,93.81384 44.715521,94.0240977 44.5263353,94.3573089 C44.248014,94.8465764 44.2494692,95.2710933 44.7118828,95.9837142 C45.1084453,96.5941163 45.7604084,96.8443885 46.074384,96.8643957 C46.5811835,96.8960435 46.8718747,96.7559929 46.8718747,96.7559929 C46.8718747,96.7559929 46.9850223,96.7185249 47.2462441,96.3951354 C47.2462441,96.3951354 46.664498,97.2576286 47.0064876,97.8600278 C47.1672955,98.1444942 47.710113,98.4507865 48.2991356,98.4568239 C49.1235488,98.4631546 49.8944807,98.3209215 50.2630291,98.1157565 C50.8498687,97.7898207 51.3617617,97.399498 51.7976165,97.0255448 C52.5801906,96.350392 53.2750844,95.5300959 54.3261567,94.8600358 C54.8948054,94.4966319 57.1592132,93.2921971 58.231387,93.0750278 C58.8426025,92.9502555 59.1260173,92.8971455 59.4992953,92.5522937 C59.8569291,92.2216289 60.2014654,91.3409473 59.8405573,90.5530266 C59.4800129,89.7680159 59.7743423,88.6763491 60.0675802,87.1816277 C60.3615457,85.6883614 60.7373704,84.7040061 61.2125177,84.3635196 C61.6854821,84.021578 62.227572,84.0623199 63.172773,83.4493714 C64.1856444,82.7920432 64.0674033,81.6876446 64.0674033,81.6876446 C64.0674033,81.6876446 63.789082,81.8204198 63.0156034,81.4242768 C62.3752824,81.0965221 62.450229,80.6967414 62.4720582,80.5421401 C62.4986169,80.359165 62.6779796,80.3813548 63.2418986,79.8822656 C63.8945894,79.3042388 63.7054037,77.8848173 63.7054037,77.8848173 C63.7054037,77.8848173 63.4852933,78.1871082 62.8122287,78.1758314 C62.329805,78.1674648 61.8721211,78.1278141 61.7793473,77.7138465 C61.6825715,77.2784166 62.0485732,77.205663 62.135162,76.6181782 C62.2432162,75.8811849 61.8499281,75.4039217 61.8499281,75.4039217 C61.8499281,75.4039217 61.5657857,75.9037385 60.3473568,75.9819486 C59.5913414,76.0303297 59.1925961,75.9230182 58.8735271,75.7800575 C58.4111135,75.5723462 57.8766637,75.0125077 57.7646076,74.4137461 C57.5488631,73.2602388 57.9556124,72.7116772 58.0876786,72.5676252 C58.5402691,72.0703548 59.5935243,72.2933444 60.9236456,73.2136766 C62.4218512,74.2504144 65.3440432,75.7123967 67.7099565,74.7404095 C69.9070578,73.8371744 71.9131543,69.8924777 69.6054521,66.5454513 C67.5549697,63.5709231 61.6840268,57.2526423 61.0327913,56.2151769 C60.4561386,55.2962998 59.5105737,53.7310075 59.7135845,52.2064571 C59.8874899,50.9038051 60.4863355,50.0464047 61.0833621,49.5418589 C61.6661997,49.0493175 62.3927457,48.7011918 62.6052158,48.674273 C62.8071352,48.6480817 64.4126673,49.6095197 65.7969976,49.7717601 C67.1016516,49.9245425 68.298979,49.3359664 69.2187128,48.8212351 C69.9605392,48.4054487 70.6328762,48.4938442 70.6328762,48.4938442 C70.2996182,48.289043 70.4069447,48.2752199 70.0420346,48.1311679 C69.8251986,48.0456825 69.3256755,48.0624158 69.3256755,48.0624158 C69.3256755,48.0624158 71.3754302,47.4472846 72.4530613,46.2388484 C74.2907097,44.1795596 74.5890411,40.8670912 74.5890411,40.8670912 C74.5890411,40.8670912 72.9307553,43.1453681 71.1487711,43.5160474 L71.1487711,43.5160474 Z" id="Fill-17"></path>
            </g>
        </g>
    </g>
</svg>