<?xml version="1.0" encoding="UTF-8"?>
<svg width="150px" height="60px" viewBox="0 0 150 60" version="1.1" xmlns="http://www.w3.org/2000/svg" xmlns:xlink="http://www.w3.org/1999/xlink">
    <title>Artboard</title>
    <g id="Artboard" stroke="none" stroke-width="1" fill="none" fill-rule="evenodd">
        <g id="Clip-Path:-path4050" transform="translate(47.000000, 0.000000)" fill="#9DA6B9" fill-rule="nonzero">
            <path d="M26.3325891,0 C28.2348057,0.0733685159 29.758894,0.451795598 31.0128907,1.57163084 C32.2707459,2.66829708 32.5254037,5.34817866 32.579422,6.54138242 C32.6527326,7.71914017 32.6102896,11.2524134 33.8334188,12.9669198 C35.0989908,14.7470717 36.4648826,15.2645128 38.0931492,15.2645128 C38.467419,15.2645128 38.8571226,15.2413438 39.26226,15.1911443 C41.4229928,14.9324237 42.0287697,13.654267 42.0287697,13.654267 C42.0287697,13.654267 40.2152975,13.1638564 40.2152975,10.8739864 C40.2037221,9.33324752 41.5541801,7.89676921 43.5258488,7.30595958 C44.1586349,7.12446904 44.8531561,7.02793152 45.5746865,7.02793152 C47.8974743,7.02793152 50.5057875,8.00102973 52.2420907,10.2831767 C56.2008619,15.5116489 56.5211133,23.1110825 55.552642,30.208521 C54.5918876,37.3175441 50.0813579,43.8820955 49.9347367,44.071309 C49.8575677,44.1910156 49.7649648,44.2566611 49.6762204,44.2566611 C49.6222021,44.2566611 49.5604669,44.2296306 49.510307,44.1755696 C47.5579306,42.3143262 45.7174493,39.7232591 44.9226083,38.0010297 C44.0583151,38.6613464 44.5213293,40.0978247 44.9650512,41.6540095 C45.4319238,43.2372249 46.5238656,45.3108508 46.8827016,45.9788905 C47.2724052,46.6276226 47.7585701,47.4037843 47.1026333,47.8053804 C47.0293227,47.8478569 46.9405784,47.8710259 46.8325417,47.8710259 C45.9566732,47.8710259 43.9232693,46.353456 41.6236323,43.2990089 C39.057762,39.8854421 37.7458885,36.8194105 37.7458885,36.8194105 C37.5645413,36.8889175 37.271299,37.1785301 37.3060251,38.0512292 C37.3214589,38.9200669 38.2590626,42.2062041 40.0107995,45.2220363 C41.7818288,48.2610375 43.4293875,50.1724804 43.7419221,50.585661 C43.9387031,50.8598275 43.7727897,51.0027031 43.6377439,51.0915176 C43.5219904,51.1919166 40.3657771,54.1343802 35.8050874,56.6173253 C30.3955385,59.4980049 28.0032986,60 28.0032986,60 C28.0032986,60 25.6072002,59.4825589 20.1976513,56.6018793 C15.6331032,54.1227957 12.4923237,51.1919166 12.3611364,51.1031021 C12.229949,51.0027031 12.0563187,50.8443815 12.2608166,50.5972455 C12.5926435,50.1647574 14.2324853,48.264899 16.007373,45.2258978 C17.7668269,42.1868966 18.6697045,38.9200669 18.7044306,38.0435062 C18.7545904,37.1785301 18.4420559,36.861887 18.2529918,36.8194105 C18.2529918,36.8194105 16.9526936,39.8661346 14.3906818,43.2990089 C12.1026201,46.353456 10.049924,47.8710259 9.17791392,47.8710259 C9.07373573,47.8710259 8.98499135,47.8478569 8.91553922,47.8053804 C8.23645177,47.4076458 8.74190891,46.6430686 9.12003715,45.982752 C9.50974075,45.3108508 10.5862487,43.2256404 11.0299706,41.6540095 C11.4968432,40.1171322 11.9405652,38.6767924 11.0917058,38.0010297 C10.3007233,39.7271206 8.44480814,42.3027417 6.50014861,44.1910156 C6.44613029,44.2347793 6.39468427,44.2566611 6.34581055,44.2566611 C6.24549081,44.2566611 6.16060488,44.1910156 6.06414359,44.063586 C5.93295624,43.8820955 1.43014339,37.3098211 0.457813621,30.2123825 C-0.506799244,23.1265285 -0.186547773,15.5116489 3.77222343,10.2870382 C5.52010194,8.00875274 8.10912287,7.04337753 10.4126184,7.04337753 C11.1457242,7.04337753 11.8518208,7.13605355 12.4923237,7.32140559 C14.4485586,7.89676921 15.8028751,9.32166302 15.8183089,10.8778479 C15.8028751,13.1677179 14.0009782,13.654267 14.0009782,13.654267 C14.0009782,13.654267 14.656915,14.9633157 16.7404788,15.1911443 C17.357831,15.2490668 17.9365987,15.2490668 17.9365987,15.2490668 C22.4162609,15.2104518 23.5120611,11.9552066 23.681833,9.03205046 C23.8708971,6.10889432 22.3120827,5.00450508 20.2092266,4.75350753 C19.9584273,4.73420003 19.7192033,4.71103102 19.5069885,4.71103102 C17.9829002,4.71103102 17.519886,5.39065517 17.519886,5.39065517 C16.8330816,4.28240443 17.4465754,2.7686961 18.7430151,1.91530441 C20.0818977,1.01943622 21.6522875,0.837945682 22.8792751,0.837945682 C23.0992068,0.837945682 23.3114216,0.841807182 23.5159195,0.857253186 C24.0290936,0.281889561 24.3609204,0.00386150084 25.9506024,0.00386150084 C26.066356,0.00386150084 26.1936849,0.00386150084 26.3325891,0 Z" id="path4050"></path>
        </g>
    </g>
</svg>