<?xml version="1.0" encoding="UTF-8"?>
<svg width="150px" height="60px" viewBox="0 0 150 60" version="1.1" xmlns="http://www.w3.org/2000/svg" xmlns:xlink="http://www.w3.org/1999/xlink">
    <title>Artboard</title>
    <g id="Artboard" stroke="none" stroke-width="1" fill="none" fill-rule="evenodd">
        <g id="Clip-Path:-path4050" transform="translate(52.000000, 5.000000)" fill="#9DA6B9" fill-rule="nonzero">
            <path d="M21.9438243,0 C23.5290047,0.0611404299 24.7990783,0.376496332 25.8440756,1.30969237 C26.8922883,2.2235809 27.1045031,4.45681555 27.1495184,5.45115201 C27.2106105,6.43261681 27.1752414,9.3770112 28.1945156,10.8057665 C29.249159,12.2892264 30.3874022,12.7204273 31.744291,12.7204273 C32.0561825,12.7204273 32.3809355,12.7011198 32.71855,12.6592869 C34.5191606,12.4436864 35.0239747,11.3785558 35.0239747,11.3785558 C35.0239747,11.3785558 33.5127479,10.9698803 33.5127479,9.0616553 C33.5031018,7.77770627 34.6284834,6.58064101 36.2715407,6.08829965 C36.7988624,5.93705754 37.3776301,5.8566096 37.9789055,5.8566096 C39.9145619,5.8566096 42.0881563,6.66752478 43.5350756,8.56931394 C46.8340516,12.9263741 47.1009278,19.2592354 46.2938684,25.1737675 C45.4932397,31.0979534 41.7344649,36.5684129 41.6122806,36.7260909 C41.5479731,36.8258463 41.470804,36.8805509 41.3968504,36.8805509 C41.3518351,36.8805509 41.3003891,36.8580255 41.2585892,36.8129746 C39.6316088,35.2619385 38.0978744,33.1027159 37.4355069,31.6675248 C36.7152626,32.2177886 37.1011077,33.4148539 37.470876,34.7116746 C37.8599365,36.0310207 38.769888,37.7590423 39.068918,38.3157421 C39.393671,38.8563522 39.7988084,39.5031536 39.2521944,39.837817 C39.1911023,39.8732141 39.1171486,39.8925216 39.0271181,39.8925216 C38.2972277,39.8925216 36.6027244,38.62788 34.6863602,36.0825074 C32.548135,33.2378685 31.4549071,30.6828421 31.4549071,30.6828421 C31.3037844,30.7407646 31.0594158,30.9821084 31.0883542,31.7093577 C31.1012157,32.4333891 31.8825521,35.1718368 33.342333,37.6850302 C34.8181906,40.2175312 36.1911563,41.8104003 36.4516018,42.1547175 C36.6155859,42.3831896 36.4773248,42.5022525 36.3647866,42.5762646 C36.2683253,42.6599305 33.6381476,45.1119835 29.8375729,47.1811044 C25.3296154,49.5816707 23.3360822,50 23.3360822,50 C23.3360822,50 21.3393335,49.5687991 16.8313761,47.1682327 C13.027586,45.1023298 10.4102698,42.6599305 10.300947,42.5859184 C10.1916242,42.5022525 10.0469323,42.3703179 10.2173472,42.1643712 C10.4938696,41.8039645 11.8604044,40.2207491 13.3394775,37.6882482 C14.8056891,35.1557472 15.5580871,32.4333891 15.5870255,31.7029219 C15.6288254,30.9821084 15.3683799,30.7182392 15.2108265,30.6828421 C15.2108265,30.6828421 14.1272447,33.2217789 11.9922349,36.0825074 C10.0855168,38.62788 8.37493663,39.8925216 7.6482616,39.8925216 C7.56144644,39.8925216 7.48749279,39.8732141 7.42961602,39.837817 C6.8637098,39.5063715 7.28492409,38.8692238 7.60003096,38.31896 C7.92478396,37.7590423 8.82187392,36.021367 9.19164219,34.7116746 C9.58070271,33.4309435 9.95047097,32.2306603 9.2430882,31.6675248 C8.58393608,33.1059338 7.03734012,35.2522847 5.41679051,36.8258463 C5.37177524,36.862316 5.32890356,36.8805509 5.28817546,36.8805509 C5.20457568,36.8805509 5.1338374,36.8258463 5.05345299,36.719655 C4.9441302,36.5684129 1.19178616,31.0915176 0.381511351,25.1769855 C-0.422332703,19.2721071 -0.155456477,12.9263741 3.14351952,8.57253186 C4.60008495,6.67396061 6.75760239,5.86948127 8.67718199,5.86948127 C9.28810347,5.86948127 9.87651732,5.94671129 10.4102698,6.10117132 C12.0404655,6.58064101 13.1690626,7.76805252 13.1819241,9.06487321 C13.1690626,10.9730982 11.6674819,11.3785558 11.6674819,11.3785558 C11.6674819,11.3785558 12.2140958,12.4694298 13.950399,12.6592869 C14.4648592,12.7075557 14.9471656,12.7075557 14.9471656,12.7075557 C18.6802174,12.6753765 19.5933842,9.96267216 19.7348608,7.52670871 C19.8924142,5.09074527 18.5934022,4.1704209 16.8410222,3.96125627 C16.6320228,3.94516669 16.4326694,3.92585918 16.2558237,3.92585918 C14.9857501,3.92585918 14.599905,4.49221264 14.599905,4.49221264 C14.027568,3.56867036 14.5388128,2.30724675 15.6191792,1.59608701 C16.7349148,0.849530184 18.0435729,0.698288068 19.0660625,0.698288068 C19.249339,0.698288068 19.4261847,0.701505985 19.5965996,0.714377655 C20.0242447,0.234907968 20.300767,0.00321791736 21.625502,0.00321791736 C21.7219633,0.00321791736 21.8280707,0.00321791736 21.9438243,0 Z" id="path4050"></path>
        </g>
    </g>
</svg>