<?xml version="1.0" encoding="UTF-8"?>
<svg width="150px" height="60px" viewBox="0 0 150 60" version="1.1" xmlns="http://www.w3.org/2000/svg" xmlns:xlink="http://www.w3.org/1999/xlink">
    <title>Artboard</title>
    <g id="Artboard" stroke="none" stroke-width="1" fill="none" fill-rule="evenodd">
        <g id="Group-17" transform="translate(47.000000, 0.000000)" fill="#9DA6B9">
            <path d="M25.7625816,57.810219 C25.689902,57.8756731 25.620068,57.9381361 25.4783512,57.9970213 C25.3394232,58.0529741 25.2336193,58.0624168 25.1306612,58.0747921 L25.1306612,58.2186622 L25.4268437,58.2186622 L25.4268437,59.5857504 C25.4240549,59.8255729 25.3485864,59.8662765 25.1094891,59.869209 L25.1094891,60 L26.1313869,60 L26.1313869,59.869209 C26.0404377,59.8662765 25.9134617,59.8597663 25.8563765,59.7638138 C25.8260412,59.712905 25.8231955,59.6446357 25.8231955,59.5886829 L25.8231955,57.810219 L25.7625816,57.810219 Z" id="Fill-1"></path>
            <path d="M26.8940268,59.0110984 C27.0708047,59.1002394 27.3531062,59.2418093 27.3531062,59.5069701 C27.3531062,59.6579355 27.2483237,59.8361594 27.0187531,59.8361594 C26.796098,59.8361594 26.6545769,59.6427984 26.6545769,59.4674744 C26.6545769,59.3776375 26.6844,59.2971381 26.720336,59.2267301 C26.7793032,59.1189143 26.8382086,59.0635854 26.8940268,59.0110984 M27.1174845,58.7308004 C26.9896709,58.6603925 26.6974284,58.4965518 26.6974284,58.2629991 C26.6974284,58.1120338 26.7991853,57.9640262 26.9919555,57.9640262 C27.196272,57.9640262 27.297288,58.1393502 27.297288,58.3118323 C27.297288,58.5245642 27.1725617,58.6668881 27.1174845,58.7308004 M27.2942007,58.8228412 C27.4028732,58.7646125 27.6446077,58.6323801 27.6446077,58.3370029 C27.6446077,58.0351301 27.3791629,57.810219 27.0187531,57.810219 C26.6706307,57.810219 26.3531343,58.0286925 26.3531343,58.3614195 C26.3531343,58.6603925 26.5918432,58.8141997 26.7303389,58.9040366 C26.598697,58.949274 26.4548912,59.001761 26.3561598,59.159164 C26.3071954,59.2331678 26.2773723,59.3259045 26.2773723,59.4207291 C26.2773723,59.7319393 26.5757276,60 27.0026992,60 C27.4058988,60 27.7372263,59.7563559 27.7372263,59.4178872 C27.7372263,59.1131726 27.4908609,58.949274 27.2942007,58.8228412" id="Fill-2"></path>
            <path d="M27.8832117,58.4775314 L28.0336149,58.4775314 C28.0962162,58.2631658 28.158078,58.1874632 28.4131042,58.1774311 C28.4825448,58.1746059 28.5444067,58.1746059 28.6330097,58.1746059 L29.0223575,58.1746059 L28.3184014,59.3812917 C28.164979,59.6513532 28.1122978,59.7456787 28.1122978,59.8371213 C28.1122978,59.9414213 28.2206793,60 28.3184014,60 C28.4596855,60 28.4986264,59.9049826 28.5513076,59.7728347 C28.5772477,59.7149479 28.6749698,59.4642013 28.6948099,59.4120225 C28.7902522,59.1819744 28.9437362,58.8118795 29.0383775,58.5789486 L29.3430657,57.8623978 L28.2206793,57.8623978 C28.2076785,57.8623978 28.1878383,57.8623978 28.1748991,57.8566898 C28.1618982,57.8502324 28.1488973,57.8352418 28.1450772,57.810219 L28.0076748,57.810219 L27.8832117,58.4775314 Z" id="Fill-3"></path>
            <path d="M29.3430657,58.4775314 L29.4934753,58.4775314 C29.5560792,58.2631658 29.6179437,58.1874632 29.872919,58.1774311 C29.9416847,58.1746059 30.0042886,58.1746059 30.0920943,58.1746059 L30.4822596,58.1746059 L29.7782737,59.3812917 C29.6247833,59.6513532 29.5720999,59.7456787 29.5720999,59.8371213 C29.5720999,59.9414213 29.6797465,60 29.7782737,60 C29.9187628,60 29.9584448,59.9049826 30.0111282,59.7728347 C30.037131,59.7149479 30.1355966,59.4642013 30.1546982,59.4120225 C30.2501445,59.1819744 30.403635,58.8118795 30.4982802,58.5789486 L30.8029197,57.8623978 L29.6797465,57.8623978 C29.6668067,57.8623978 29.6477052,57.8623978 29.6347038,57.8566898 C29.6209629,57.8502324 29.6080232,57.8352418 29.6049423,57.810219 L29.4675341,57.810219 L29.3430657,58.4775314 Z" id="Fill-4"></path>
            <path d="M1.07118354,37.9562044 C4.08262437,39.173714 6.44430061,40.5802823 8.50938887,42.098474 L9.08291203,38.9781022 C11.9551017,42.180444 16.2547674,45.5622223 21.7985759,47.0845575 L21.7560904,47.2223469 L21.7560904,47.2223469 L21.7237561,47.3732267 C21.5827343,47.371738 21.4490438,47.3784074 21.3397311,47.3843026 C20.9866999,47.4027623 20.4807263,47.5038741 20.3308236,47.9591155 C20.1735301,48.4210262 20.5265613,48.8054655 20.8042538,49.0305554 C20.8891887,49.0998688 20.9933159,49.183295 21.1085293,49.2644583 C20.9734083,49.5374841 20.8950894,49.8680328 20.9091558,50.2620592 C20.9283481,50.7985235 21.1262912,51.1637885 21.3219693,51.4758774 C21.407679,51.6131346 21.5029253,51.7525951 21.5938206,51.9105153 C21.6720799,52.0477725 21.7481339,52.199738 21.8116712,52.3827277 C21.8700229,52.5723868 21.8995862,52.7443007 21.9165732,52.9044242 C21.9364808,53.0859848 21.9416663,53.2549214 21.9534677,53.4165335 C21.9786204,53.7840017 22.0325019,54.1949992 22.3330821,54.640713 C22.4581957,54.825442 22.5951267,54.9767775 22.7392068,55.0988962 C17.4191827,53.5431066 12.190336,50.1075102 7.45822623,47.8934036 C7.89749667,48.235612 20.7852435,57.6523173 23.6256575,59.4160584 L23.5581658,59.3763703 C23.5555166,59.4023883 23.5541206,59.4160584 23.5541206,59.4160584 C13.9137382,54.2808249 6.26538512,47.1265711 0.317036895,46.5636734 L0,46.5398727 L1.95062481,43.0439802 C1.95062481,42.9836109 1.26731323,38.3891282 1.07118354,37.9562044 Z M54.6959763,37.9562044 C54.4997811,38.3891282 53.8165069,42.9836109 53.8165069,43.0439802 L55.7664234,46.5398727 C49.773426,46.8704183 42.0243951,54.1891243 32.2123198,59.4160584 C32.2123198,59.4160584 32.2109237,59.4023883 32.2082745,59.3763703 L32.1409913,59.4160584 C33.3906021,58.640368 36.582377,56.3851535 39.8041208,54.0723635 L40.4080821,53.6383879 L41.0099447,53.2051457 C44.1838419,50.9185229 47.1519977,48.7501633 48.0475068,48.0883371 L48.148,48.0402044 L48.0275854,48.0978545 C43.3381946,50.347746 38.184923,53.6887621 32.9450871,55.164927 C33.1195715,55.0325697 33.2845848,54.8602158 33.43321,54.640713 C33.7337902,54.1949992 33.7877313,53.7840017 33.8135992,53.415819 C33.8246258,53.2549214 33.8305862,53.0859848 33.8497785,52.9044242 C33.8667655,52.7472781 33.8948387,52.5797707 33.9509255,52.3952923 C34.0151781,52.2071219 34.0927817,52.0499758 34.1725311,51.9105153 C34.264082,51.7525951 34.3586727,51.61242 34.4450381,51.4751628 C34.6400606,51.1637885 34.8380036,50.7985235 34.8571959,50.2620592 C34.8712027,49.8680328 34.7929434,49.5374841 34.6577628,49.2644583 C34.7729762,49.183295 34.8778783,49.0998688 34.9620383,49.0305554 C35.2375255,48.8069542 35.586146,48.4284101 35.4399388,47.9723946 C35.295162,47.5060774 34.7825724,47.4027623 34.4266206,47.3843026 C34.3173079,47.3784074 34.1836174,47.371738 34.042536,47.3732267 C34.0284912,47.2906616 34.0083302,47.2070337 33.9814042,47.1226968 C39.5931796,45.6205212 43.9406338,42.2080405 46.8375748,38.9781022 L47.3901988,42.0013837 C49.423834,40.5203058 51.7487378,39.1477192 54.6959763,37.9562044 Z" id="Combined-Shape"></path>
            <path d="M50.8172979,29.3693061 C50.5577134,30.3988439 50.2304137,31.4026849 49.8406809,32.3734107 L32.0284588,32.3734107 L32.0284588,43.5506143 C35.5018112,42.8453441 38.6537394,41.2539758 41.2401484,39.0242798 L45.7812751,39.0242798 C42.6488687,42.6425417 38.4352811,45.2974044 33.6436709,46.4856648 L33.6170867,46.4494053 C33.2862279,46.0266174 32.9110243,45.8480342 32.5697946,45.7100624 C32.4191171,45.649562 32.2603335,45.5919795 32.0934439,45.5167113 C31.9449717,45.4510303 31.7957843,45.3720702 31.6399213,45.2636341 C31.483343,45.1463253 31.3592486,45.0260392 31.2477306,44.9027756 C31.1244111,44.7677812 31.0209991,44.6349305 30.9168719,44.5102379 C30.6805442,44.227625 30.3946861,43.9273265 29.8894873,43.7435626 C29.5187539,43.6085682 29.1797295,43.5797472 28.8791494,43.6247651 L29.027562,43.609 L29.0280439,30.442226 C29.0280439,29.8495355 29.5075097,29.3693061 30.0994977,29.3693061 L50.8172979,29.3693061 Z M25.8128517,29.3693061 C26.4048397,29.3693061 26.885077,29.8495355 26.885077,30.442226 L26.885077,32.3734107 L9.58395273,32.3734107 C10.1656737,33.5889988 10.8643086,34.738416 11.6659108,35.8061728 L26.885077,35.8061728 L26.885077,38.8095059 L14.4281061,38.8095059 C17.4897962,41.5362468 21.3795082,43.3518756 25.6724744,43.831677 C25.2906593,44.0138811 25.0516708,44.2690994 24.8494202,44.5102379 C24.745293,44.6349305 24.641881,44.7677812 24.5185615,44.9027756 C24.4092488,45.0238359 24.2888498,45.1418592 24.1374571,45.2562502 C23.9771834,45.3683783 23.8243006,45.4496012 23.6729079,45.5174855 C23.5059586,45.5926941 23.347175,45.649562 23.1964975,45.7100624 C22.8552678,45.8480342 22.4800642,46.0266174 22.1492054,46.4494053 C22.147899,46.4510755 22.1465957,46.4527458 22.1452957,46.4544162 C13.7851615,44.3333239 7.20589156,37.7411385 5.09582303,29.3693061 L25.8128517,29.3693061 Z M25.811368,0.0726699222 C25.8238903,0.072046285 25.8378368,0.0743014406 25.8510713,0.0794052137 C26.4254332,0.0992861902 26.885077,0.5713852 26.885077,1.15090083 L26.885077,26.1512585 C26.885077,26.743949 26.4048397,27.2234662 25.8128517,27.2234662 L24.0692318,27.2241784 L22.8124368,27.2234662 L8.8853772,27.2241784 L4.65974003,27.2241784 C4.47511099,26.0350586 4.37956204,24.8172153 4.37956204,23.5766423 C4.37956204,11.2661636 13.7956433,1.15748826 25.811368,0.0726699222 Z M29.0280439,0 C30.4201505,0.0624915471 31.7813965,0.245633916 33.1006841,0.539753676 L33.0999719,22.0749461 C33.0999719,22.667696 33.5802092,23.1479254 34.1721972,23.1479254 L38.1367662,23.1479254 L38.1367662,2.28411649 C39.5825226,2.97757682 40.9459645,3.81376476 42.2094064,4.77564794 L42.2094064,22.1205834 C42.2329079,22.6919686 42.7035903,23.1479254 43.280148,23.1479254 L47.1226399,23.1479254 C47.0777734,21.2130613 46.7483373,19.3488785 46.1739753,17.5956731 L46.1739753,8.59522863 C49.522224,12.6700573 51.5328467,17.8883686 51.5328467,23.5766423 C51.5328467,24.8172153 51.4372384,26.0350586 51.2533809,27.2241784 L30.1002692,27.2234662 C29.5075097,27.2234662 29.0280439,26.743949 29.0280439,26.1512585 L29.0280439,0 Z M21.7409237,17.3552023 L9.5825284,17.3552023 C8.95962051,19.1782582 8.60074817,21.1248135 8.55368587,23.1479254 L21.7409237,23.1479254 C22.3329117,23.1479254 22.8124368,22.667696 22.8124368,22.0749461 L22.8124368,18.4245021 C22.8109531,17.8332359 22.3321995,17.3552023 21.7409237,17.3552023 Z M22.8124368,4.96092678 C18.0940401,6.23241908 14.0912516,9.24975785 11.5379583,13.2789493 L21.7409237,13.2789493 C22.3329117,13.2789493 22.8124368,12.7987199 22.8124368,12.2060294 L22.8124368,4.96092678 Z" id="Combined-Shape"></path>
            <path d="M27.8829124,43.0656802 C28.0057224,43.0649377 28.1445415,43.1915976 28.2667224,43.5229923 C28.3572673,43.7685794 28.5008215,44.1628112 28.4600181,44.4753695 C28.7594007,44.2656254 29.2009762,44.1264034 29.7973724,44.3412617 C30.4970082,44.5937732 30.64866,45.1194935 31.2353366,45.6309443 L31.4253733,45.783664 L31.6307696,45.9149916 C32.3031993,46.3102197 32.8543469,46.2903486 33.313152,46.871351 C33.6202781,47.2604825 33.687784,47.6271947 33.6504189,47.9353087 C33.9188123,47.8658153 34.2403344,47.8820344 34.4565615,47.8936888 C34.7731439,47.9107494 34.9421886,47.9909989 35.0057294,48.0957382 L35.0266243,48.142013 C35.0679773,48.2665687 34.9896808,48.4496783 34.7083735,48.6822589 C34.5236571,48.8340254 34.2392819,49.0666493 33.9564353,49.1581719 C34.2314877,49.3797716 34.4722654,49.7456324 34.4512776,50.3403681 C34.424837,51.0841542 33.9600188,51.3875361 33.6496104,52.1109985 L33.5692273,52.3193682 L33.5104431,52.5339863 C33.331728,53.3001253 33.5280709,53.8170696 33.1081963,54.4331683 C32.7932119,54.8962528 32.4112304,55.062247 32.0723727,55.0981216 C32.2205202,55.3274186 32.30408,55.6398631 32.3588014,55.849419 C32.4380894,56.149931 32.4163091,56.3311451 32.3403584,56.4217329 L32.3046282,56.4550913 C32.2047446,56.5304568 32.0156853,56.5130918 31.7217915,56.3189188 C31.5377934,56.1982918 31.2610209,56.0146208 31.090737,55.7926414 C30.956365,56.1058529 30.6789508,56.4215428 30.1288728,56.577785 C29.4071483,56.7833319 28.9714028,56.4383364 28.1804583,56.3697966 L27.9559124,56.3576802 L27.731249,56.3697966 C27.0123071,56.4321055 26.5873639,56.7228902 25.9737597,56.6208147 L25.7835359,56.577785 C25.2331555,56.4215428 24.9557048,56.1058529 24.8188368,55.7931591 C24.6505758,56.0151764 24.3743498,56.1984743 24.190664,56.3189188 C23.8967666,56.5130918 23.7077051,56.5304568 23.6071295,56.4543897 L23.6071295,56.4550913 C23.5044237,56.3804858 23.4630305,56.1928613 23.5536465,55.849419 C23.6083686,55.6398631 23.6916518,55.3274186 23.838955,55.0961174 C23.5015969,55.0625761 23.1191158,54.8967122 22.8034959,54.4331683 C22.3836212,53.8170696 22.5799642,53.3001253 22.401847,52.5339863 L22.3432412,52.3185992 L22.2628432,52.1109985 C21.9523307,51.3875361 21.4869149,51.0841542 21.4611312,50.3403681 C21.4401177,49.7449063 21.6815094,49.3788785 21.9565733,49.155915 C21.6731701,49.0666493 21.3887918,48.8340254 21.2040734,48.6822589 C20.9579269,48.4787508 20.8672122,48.3131191 20.8765621,48.1909616 L20.8865342,48.142013 C20.9249678,48.0152169 21.0940162,47.9131866 21.4558285,47.8936888 C21.6720936,47.8820344 21.9936121,47.8658153 22.2622366,47.9344506 C22.2241944,47.6271947 22.291867,47.2604825 22.5992567,46.871351 C23.0574104,46.2903486 23.6084987,46.3102197 24.2814615,45.9149916 L24.4870355,45.7829542 L24.6770555,45.6309443 C25.2636244,45.1194935 25.414684,44.5937732 26.1143197,44.3412617 C26.6180144,44.1599022 27.0111775,44.2308199 27.3024912,44.3829128 C27.2925394,44.0890281 27.417993,43.7451773 27.5003604,43.5229923 C27.6072688,43.2330219 27.726401,43.0998016 27.8368157,43.0715336 L27.8829124,43.0656802 Z M28.8274675,46.1314621 L28.7265006,46.139785 C28.3100189,46.2049057 28.0803646,46.6890838 27.9938855,46.9090827 L27.9588298,47.0039146 L27.9588298,47.0039146 L27.9535329,47.0173059 L27.9494737,47.0039146 C27.9168385,46.8995174 27.6854873,46.2179298 27.1857093,46.139785 C26.8288776,46.0838223 26.308678,46.310584 26.1599735,46.7500277 C26.0805955,46.9837995 25.977813,47.1438886 25.8104971,47.293863 L25.8104971,47.293863 L25.7020346,47.3824296 L25.5844887,47.4585829 C25.3913828,47.5722426 25.2076045,47.6209245 24.9627693,47.6246375 C24.4989769,47.6312318 24.1245845,48.0581997 24.0674087,48.4167291 C23.9802554,48.9600186 24.6601572,49.4208492 24.658679,49.4267306 L24.658679,49.4267306 L24.6182531,49.4265002 C24.4502239,49.428318 23.805807,49.4635044 23.5911995,49.8890465 C23.4278315,50.2122279 23.4812824,50.7790431 23.8520089,51.0580842 C24.0872162,51.2354775 24.2132159,51.412158 24.3084696,51.6904267 C24.3942038,51.9716659 24.3963915,52.1895757 24.3092382,52.4729536 C24.1721818,52.9168529 24.4608991,53.4064371 24.782491,53.5720676 C25.2697569,53.823068 25.9159562,53.3151265 25.9218098,53.3195821 L25.9218098,53.3195821 L25.9183406,53.3295634 C25.8872759,53.4211166 25.6663731,54.1198365 26.0288297,54.4819661 C26.284495,54.7381349 26.8376876,54.862536 27.2164553,54.5946043 C27.4167482,54.4522718 27.5940882,54.3830445 27.8168411,54.3609314 L27.8168411,54.3609314 L27.9557206,54.3531093 L28.0956185,54.3609314 C28.3186341,54.3830445 28.49558,54.4522718 28.6964641,54.5946043 C29.0745224,54.862536 29.6277149,54.7381349 29.8833802,54.4819661 C30.2717265,54.0939701 29.9911096,53.3195821 29.9962537,53.3151265 L29.9962537,53.3151265 L30.0288109,53.3392137 C30.1657606,53.4370853 30.7075164,53.7896012 31.1304284,53.5720676 C31.4513108,53.4064371 31.7400281,52.9168529 31.6037403,52.4729536 C31.516528,52.1895757 31.5180061,51.9716659 31.6037403,51.6904267 C31.698994,51.412158 31.8249937,51.2354775 32.0609106,51.0580842 C32.4316371,50.7790431 32.4843784,50.2122279 32.3210104,49.8890465 C32.1064029,49.4635044 31.461986,49.428318 31.2939568,49.4265002 L31.2939568,49.4265002 L31.2535309,49.4267306 L31.2520527,49.4201363 L31.2619323,49.4132311 C31.3452716,49.3539809 31.9257799,48.9212122 31.8455108,48.4167291 C31.7876254,48.0581997 31.413233,47.6312318 30.9501501,47.6246375 C30.6556384,47.6201819 30.4504676,47.5509711 30.2108848,47.3831425 L30.2108848,47.3831425 L30.1024472,47.2938094 C29.9351656,47.143674 29.8323831,46.983156 29.7530051,46.7500277 C29.6035319,46.3098117 29.0833323,46.0838223 28.7265006,46.139785 Z M28.8056126,46.7905442 C29.0760005,46.7375519 29.4035052,46.9546894 29.5698295,47.2683062 C29.668749,47.4545514 29.7808539,47.5914876 29.9610731,47.7269387 C30.1449582,47.8572212 30.3090948,47.9227486 30.5164533,47.9595818 C30.8651846,48.0221388 31.1714626,48.2672577 31.205165,48.5418431 C31.2249134,48.7067607 31.1560896,48.914393 30.9787676,49.1138862 C30.7958286,49.3211224 30.7901925,49.4834355 30.7967216,49.5453409 L30.7967216,49.5453409 L30.8014456,49.5725187 L30.8127542,49.5942756 C30.8435557,49.648117 30.9427461,49.7759396 31.2117281,49.8360542 C31.4725966,49.8934427 31.6498594,50.0201013 31.72974,50.1651171 C31.8638402,50.407325 31.7590671,50.787182 31.5136307,51.0425786 C31.3678235,51.1950204 31.2725698,51.3444324 31.2007305,51.558659 L31.2007305,51.558659 L31.16061,51.7144639 C31.1306354,51.8653621 31.1302363,52.0047563 31.151655,52.1615944 C31.2014991,52.5134701 31.0637331,52.8822772 30.8139214,53.000084 C30.6636796,53.0692353 30.4460921,53.0670372 30.2013654,52.9602804 C29.9489389,52.8492462 29.7935516,52.8940408 29.7369561,52.9194327 L29.7369561,52.9194327 L29.7126804,52.9323584 L29.6959495,52.9493186 C29.6545242,52.9955821 29.5642913,53.1302741 29.5910561,53.4056648 C29.6174268,53.6728836 29.5522097,53.8812287 29.4393953,54.0027188 C29.2511348,54.2051825 28.8598321,54.2228268 28.5411374,54.0674739 C28.3899141,53.9932848 28.2504216,53.9497028 28.0851213,53.9337472 L28.0851213,53.9337472 L27.9564893,53.9269138 L27.8270886,53.9337472 C27.6617883,53.9497028 27.5222958,53.9932848 27.3710725,54.0674739 C27.0530873,54.2228268 26.6610751,54.2051825 26.4735242,54.0027188 C26.3607098,53.8812287 26.2954927,53.6728836 26.3218633,53.4056648 C26.351821,53.0909326 26.2295259,52.9599701 26.2019793,52.934753 L26.2019793,52.934753 L26.1934555,52.9293046 C26.1610743,52.9105827 25.9993319,52.8333841 25.7108445,52.9602804 C25.4661178,53.0670372 25.2492398,53.0692353 25.0990571,53.000084 C24.8491863,52.8822772 24.7114794,52.5134701 24.7605549,52.1615944 C24.7898227,51.952477 24.7788842,51.7743707 24.712189,51.558659 C24.6396401,51.3444324 24.5451551,51.1950204 24.3993478,51.0425786 C24.1531429,50.787182 24.0483697,50.407325 24.1824699,50.1651171 C24.2622914,50.0201013 24.4396133,49.8934427 24.7004818,49.8360542 C24.9694178,49.7759396 25.0690987,49.648117 25.1001205,49.5942756 L25.1001205,49.5942756 L25.1107643,49.5725187 L25.1154883,49.5453487 C25.1220174,49.4834708 25.1163814,49.3212808 24.9334423,49.1145991 C24.756889,48.914393 24.6872965,48.7067607 24.7070449,48.5418431 C24.7407473,48.2672577 25.0470253,48.0221388 25.3957566,47.9595818 C25.6031151,47.9227486 25.7672517,47.8572212 25.9511368,47.7269387 L25.9511368,47.7269387 L26.0516078,47.645381 C26.1759165,47.535197 26.2638597,47.4173023 26.3423804,47.2683062 C26.5094143,46.9546894 26.8362094,46.7375519 27.1065382,46.7905442 C27.2691966,46.8222088 27.4436214,46.9524913 27.578431,47.1836493 C27.7386259,47.4565052 27.9138638,47.4897329 27.9550111,47.4942956 C27.9550111,47.4942956 28.1542692,47.4906122 28.3337789,47.1829364 C28.4685885,46.9524913 28.6430133,46.8222088 28.8056126,46.7905442 Z M28.383355,48.7600671 L28.3139479,48.7815255 C28.2029247,48.8372099 28.109536,48.9778165 27.9521348,48.9831546 L27.9521348,48.9831546 L27.8677392,48.965481 C27.7108019,48.9047156 27.6174279,48.7125785 27.451543,48.7695591 C27.1783292,48.8643256 27.2110632,49.0597319 27.0949142,49.2006538 L27.0949142,49.2006538 L27.0354182,49.2572608 L26.9630109,49.2968585 C26.7931796,49.3633626 26.6175149,49.2715296 26.4430041,49.5021965 C26.3197101,49.665045 26.549055,49.8405501 26.4893072,50.0519156 L26.4893072,50.0519156 L26.4459936,50.1266649 C26.3390921,50.2570623 26.1282138,50.2865969 26.1313869,50.462653 C26.1373917,50.7920264 26.3929027,50.7830463 26.4653719,51.0078519 L26.4653719,51.0078519 L26.4808349,51.0889534 C26.4920221,51.2710521 26.3508124,51.4099255 26.5161967,51.6471317 C26.6334617,51.8144401 26.8703429,51.6508684 27.0533848,51.7733362 L27.0533848,51.7733362 L27.1113104,51.8372169 C27.202691,51.9785788 27.165749,52.188878 27.3334943,52.2401244 C27.6100316,52.3250819 27.6977749,52.146973 27.8745665,52.1011183 L27.8745665,52.1011183 L27.9558125,52.090716 L28.0378758,52.1011183 C28.2148166,52.146973 28.3031534,52.3250819 28.579638,52.2401244 C28.7754011,52.1803369 28.6925017,51.904061 28.8657765,51.7688763 L28.8657765,51.7688763 L28.9445324,51.7337554 C29.1073493,51.6908505 29.2956992,51.7905389 29.396212,51.6471317 C29.5622821,51.4099255 29.4200042,51.2710521 29.4313982,51.0889534 L29.4313982,51.0889534 L29.4470369,51.0085751 L29.4821558,50.9338755 C29.5800392,50.7800045 29.7757676,50.7508548 29.7810219,50.462653 C29.7847238,50.2572542 29.497078,50.2512875 29.4208708,50.0444422 L29.4208708,50.0444422 L29.4118814,49.958752 C29.4215082,49.7906641 29.5744737,49.6417809 29.469465,49.5021965 C29.2707476,49.2385772 29.0690157,49.3961823 28.8777743,49.2572608 L28.8777743,49.2572608 L28.8175671,49.2006538 C28.701517,49.0597319 28.7347653,48.8643256 28.4608657,48.7695591 L28.4608657,48.7695591 L28.383355,48.7600671 Z M27.9565963,49.7352591 C28.3921346,49.7352591 28.7462808,50.0884993 28.7462808,50.5246102 C28.7462808,50.9607813 28.3921346,51.3132983 27.9565963,51.3132983 C27.5195507,51.3132983 27.1661882,50.9607813 27.1661882,50.5246102 C27.1661882,50.0884993 27.5195507,49.7352591 27.9565963,49.7352591 Z" id="Combined-Shape"></path>
        </g>
    </g>
</svg>