<?xml version="1.0" encoding="UTF-8"?>
<svg width="150px" height="60px" viewBox="0 0 150 60" version="1.1" xmlns="http://www.w3.org/2000/svg" xmlns:xlink="http://www.w3.org/1999/xlink">
    <title>Artboard</title>
    <g id="Artboard" stroke="none" stroke-width="1" fill="none" fill-rule="evenodd">
        <g id="chester-racecourse-logo-vector-2" transform="translate(22.500000, 15.000000)" fill-rule="nonzero">
            <g id="chester-racecourse-logo-vector" transform="translate(-0.500000, 0.000000)">
                <path d="M32.9043612,8.73640167 C35.546367,8.73640167 36.9016817,10.1990671 36.9016817,10.1990671 L36.1468229,11.3657169 C36.1468229,11.3657169 34.8772877,10.1468291 32.9729848,10.1468291 C30.5196937,10.1468291 28.9070408,12.0448116 28.9070408,14.4129366 C28.9070408,16.7984743 30.5368496,18.8183456 32.9901407,18.8183456 C35.0660024,18.8183456 36.3870053,17.3730928 36.3870053,17.3730928 L37.2104876,18.4875046 C37.2104876,18.4875046 35.70077,20.2635983 32.938673,20.2635983 C29.6447437,20.2635983 27.3115438,17.7039338 27.3115438,14.4303493 C27.3115438,11.2090028 29.7133672,8.73640167 32.9043612,8.73640167" id="Path" fill="#9DA6B9"></path>
                <polygon id="Path" fill="#00387F" points="40.4306259 8.85774059 41.9819947 8.85774059 41.9819947 13.7688431 47.7048216 13.7688431 47.7048216 8.85774059 49.2561903 8.85774059 49.2561903 20.0209205 47.7048216 20.0209205 47.7048216 15.1272332 41.9819947 15.1272332 41.9819947 20.0209205 40.4306259 20.0209205"></polygon>
                <polygon id="Path" fill="#00387F" points="53.3111793 8.85774059 59.7317835 8.85774059 59.7317835 10.2161307 54.8603868 10.2161307 54.8603868 13.7165974 58.8194725 13.7165974 58.8194725 15.0749874 54.8603868 15.0749874 54.8603868 18.6625304 59.9899848 18.6625304 59.9899848 20.0209205 53.3111793 20.0209205"></polygon>
                <path d="M63.8337465,17.603476 C63.8337465,17.603476 65.0062735,18.803139 66.6443626,18.803139 C67.6789452,18.803139 68.5583404,18.2120007 68.5583404,17.1688155 C68.5583404,14.7521031 63.212997,15.2736957 63.212997,11.8485709 C63.212997,10.1099289 64.6958987,8.73640167 66.782307,8.73640167 C68.8342291,8.73640167 69.9205409,9.84913257 69.9205409,9.84913257 L69.2135761,11.1357277 C69.2135761,11.1357277 68.1962365,10.1794746 66.782307,10.1794746 C65.60978,10.1794746 64.7821139,10.9270906 64.7821139,11.8137981 C64.7821139,14.126192 70.1274574,13.5002808 70.1274574,17.1166563 C70.1274574,18.8379119 68.8169861,20.2635983 66.6271196,20.2635983 C64.2820657,20.2635983 62.9715944,18.803139 62.9715944,18.803139 L63.8337465,17.603476 Z" id="Path" fill="#00387F"></path>
                <polygon id="Path" fill="#00387F" points="76.5208399 10.2161307 72.7512738 10.2161307 72.7512738 8.85774059 81.8153669 8.85774059 81.8153669 10.2161307 78.0629352 10.2161307 78.0629352 20.0209205 76.5208399 20.0209205"></polygon>
                <polygon id="Path" fill="#00387F" points="84.9162409 8.85774059 91.3361779 8.85774059 91.3361779 10.2161307 86.4694515 10.2161307 86.4694515 13.7165974 90.4215095 13.7165974 90.4215095 15.0749874 86.4694515 15.0749874 86.4694515 18.6625304 91.5950464 18.6625304 91.5950464 20.0209205 84.9162409 20.0209205"></polygon>
                <polygon id="Path" fill="#9DA6B9" points="40.4306259 8.85774059 41.9819947 8.85774059 41.9819947 13.7688431 47.7048216 13.7688431 47.7048216 8.85774059 49.2561903 8.85774059 49.2561903 20.0209205 47.7048216 20.0209205 47.7048216 15.1272332 41.9819947 15.1272332 41.9819947 20.0209205 40.4306259 20.0209205"></polygon>
                <polygon id="Path" fill="#9DA6B9" points="53.3111793 8.85774059 59.7317835 8.85774059 59.7317835 10.2161307 54.8603868 10.2161307 54.8603868 13.7165974 58.8194725 13.7165974 58.8194725 15.0749874 54.8603868 15.0749874 54.8603868 18.6625304 59.9899848 18.6625304 59.9899848 20.0209205 53.3111793 20.0209205"></polygon>
                <path d="M63.8337465,17.6168704 C63.8337465,17.6168704 65.0062735,18.8183456 66.6443626,18.8183456 C67.6789452,18.8183456 68.5583404,18.2263143 68.5583404,17.1815533 C68.5583404,14.7611903 63.212997,15.2835708 63.212997,11.8532721 C63.212997,10.1120037 64.6958987,8.73640167 66.782307,8.73640167 C68.8342291,8.73640167 69.9205409,9.85081343 69.9205409,9.85081343 L69.2135761,11.139352 C69.2135761,11.139352 68.1962365,10.1816544 66.782307,10.1816544 C65.60978,10.1816544 64.7821139,10.9303998 64.7821139,11.801034 C64.7821139,14.116921 70.1274574,13.4900643 70.1274574,17.1119026 C70.1274574,18.8357583 68.8169861,20.2635983 66.6271196,20.2635983 C64.2820657,20.2635983 62.9715944,18.8009329 62.9715944,18.8009329 L63.8337465,17.6168704 Z" id="Path" fill="#9DA6B9"></path>
                <polygon id="Path" fill="#9DA6B9" points="76.5208399 10.2161307 72.7512738 10.2161307 72.7512738 8.85774059 81.8153669 8.85774059 81.8153669 10.2161307 78.0629352 10.2161307 78.0629352 20.0209205 76.5208399 20.0209205"></polygon>
                <polygon id="Path" fill="#9DA6B9" points="84.9162409 8.85774059 91.3361779 8.85774059 91.3361779 10.2161307 86.4694515 10.2161307 86.4694515 13.7165974 90.4215095 13.7165974 90.4215095 15.0749874 86.4694515 15.0749874 86.4694515 18.6625304 91.5950464 18.6625304 91.5950464 20.0209205 84.9162409 20.0209205"></polygon>
                <g id="Group">
                    <path d="M98.9265597,14.237898 C100.128202,14.237898 100.866354,13.4690656 100.866354,12.2109762 C100.866354,11.3897234 100.55736,10.7956256 99.9908717,10.4811032 C99.6990442,10.323842 99.3385514,10.2364747 98.4802354,10.2364747 L96.7121043,10.2364747 L96.7121043,14.2553715 L98.9265597,14.2553715 L98.9265597,14.237898 Z M95.1671354,8.85607104 L98.5317343,8.85607104 C99.6818779,8.85607104 100.162535,8.94343836 100.591693,9.118173 C101.707504,9.53753614 102.445656,10.6733113 102.445656,12.1410823 C102.445656,13.5739064 101.673171,14.7795754 100.471529,15.1639916 L100.471529,15.1989386 C100.471529,15.1989386 100.591693,15.3387263 100.797689,15.705669 L103.132308,20.0565616 L101.381344,20.0565616 L99.0638903,15.6008283 L96.7121043,15.6008283 L96.7121043,20.0565616 L95.1671354,20.0565616 L95.1671354,8.85607104 L95.1671354,8.85607104 Z" id="Shape" fill="#9DA6B9"></path>
                    <path d="M9.52435875,28.9330815 C17.1290391,26.3819557 16.9573758,21.1573899 16.9573758,21.1573899 L16.9573758,10.5684705 L9.52435875,10.5684705 L9.52435875,10.5684705 L2.09134165,10.5684705 L2.09134165,21.1573899 C2.09134165,21.1573899 1.91967844,26.3819557 9.52435875,28.9330815 L9.52435875,28.9330815 Z" id="Path" fill="#9DA6B9"></path>
                    <path d="M3.12132092,21.1573899 C3.12132092,21.2447572 3.13848725,22.3630589 3.96247067,23.7259891 C4.75212144,25.036499 6.29709035,26.6265842 9.52435875,27.7798329 C12.7516271,26.6265842 14.2794297,25.036499 15.0862468,23.7259891 C15.9102302,22.3630589 15.9273966,21.2447572 15.9273966,21.1573899 L15.9273966,21.1573899 L15.9273966,21.1399164 L15.9273966,11.5994049 L9.52435875,11.5994049 L9.52435875,11.5994049 L3.12132092,11.5994049 L3.12132092,21.1573899 L3.12132092,21.1573899 L3.12132092,21.1573899 Z" id="Path" fill="#9DA6B9"></path>
                    <path d="M7.37856859,21.2971776 C7.37856859,21.3146511 7.39573491,21.3146511 7.37856859,21.2971776 C7.39573491,21.3146511 7.37856859,21.3146511 7.37856859,21.2971776" id="Path" fill="#FCCF00"></path>
                    <path d="M7.39573491,21.3146511 C7.39573491,21.3321245 7.39573491,21.3321245 7.39573491,21.3146511 C7.39573491,21.3321245 7.39573491,21.3321245 7.39573491,21.3146511" id="Path" fill="#FCCF00"></path>
                    <path d="M7.36140227,21.2797041 C7.36140227,21.2971776 7.36140227,21.2971776 7.36140227,21.2797041 C7.36140227,21.2971776 7.36140227,21.2797041 7.36140227,21.2797041" id="Path" fill="#FCCF00"></path>
                    <path d="M7.39573491,21.3321245 C7.41290123,21.349598 7.41290123,21.349598 7.39573491,21.3321245 C7.41290123,21.349598 7.41290123,21.3321245 7.39573491,21.3321245" id="Path" fill="#FCCF00"></path>
                    <path d="M7.41290123,21.3670715 C7.41290123,21.3670715 7.43006755,21.3670715 7.41290123,21.3670715 C7.43006755,21.3670715 7.41290123,21.3670715 7.41290123,21.3670715" id="Path" fill="#FCCF00"></path>
                    <path d="M6.53741885,21.2797041 C6.48591989,21.2797041 6.43442092,21.2272838 6.43442092,21.1748634 L6.64041678,21.1748634 C6.64041678,21.2272838 6.58891781,21.2797041 6.53741885,21.2797041 M7.36140227,21.2797041 C7.36140227,21.2797041 7.43006755,21.2797041 7.48156652,21.3321245 C7.48156652,21.3321245 7.4644002,21.122443 7.29273698,21.0700226 C7.29273698,21.0700226 7.39573491,20.9651818 7.30990331,20.8079206 C7.30990331,20.8079206 7.2240717,20.9826553 6.79491367,20.9826553 L6.52025253,20.9826553 C6.38292196,20.9826553 6.27992403,21.1049695 6.27992403,21.1399164 L5.850766,21.1399164 C5.850766,21.1399164 5.850766,21.2797041 5.98809657,21.2797041 C5.98809657,21.2797041 6.02242921,21.5418061 6.331423,21.3845449 C6.331423,21.3845449 6.26275771,21.5418061 5.88509864,21.4544388 C5.50743958,21.3845449 5.5246059,21.6641204 5.5246059,21.6641204 C5.5246059,21.6641204 5.59327118,21.4719123 5.88509864,21.576753 C5.88509864,21.576753 5.71343543,21.6291734 5.73060175,21.7864346 C5.73060175,21.7864346 5.86793232,21.6990673 5.90226496,21.6990673 C5.90226496,21.6990673 5.90226496,21.8039081 5.850766,21.8563285 C5.850766,21.8563285 6.02242921,21.7864346 6.27992403,21.7864346 C6.27992403,21.7864346 6.12542714,22.1533774 5.59327118,22.2232712 C5.59327118,22.2232712 5.02678258,21.8738019 4.87228569,21.6466469 C4.87228569,21.6466469 4.94095098,21.5243326 4.83795305,21.4194919 C4.83795305,21.4194919 4.76928776,21.3321245 4.63195719,21.3670715 C4.63195719,21.3670715 4.51179294,21.1923368 4.37446238,21.2797041 C4.37446238,21.2797041 4.25429813,21.1923368 4.13413388,21.2971776 C4.13413388,21.2971776 4.27146445,21.2971776 4.30579709,21.4020184 C4.30579709,21.4020184 4.28863077,21.4369653 4.28863077,21.5068592 C4.28863077,21.5068592 4.18563284,21.4544388 4.08263491,21.576753 C4.08263491,21.576753 4.20279916,21.5592796 4.27146445,21.6117 C4.27146445,21.6117 4.23713181,21.7514877 4.44312766,21.8039081 C4.44312766,21.8039081 4.44312766,21.8563285 4.52895927,21.8912754 C4.52895927,21.8912754 4.52895927,22.1533774 4.82078673,22.1359039 C4.83795305,22.2057978 4.87228569,22.4853732 5.0439489,22.6950548 C5.0439489,22.6950548 5.0439489,22.555267 5.12978051,22.5203201 C5.12978051,22.5203201 5.09544787,22.7824221 5.33577636,23.044524 C5.33577636,23.044524 5.31861004,22.9222098 5.42160797,22.8697894 C5.42160797,22.8697894 5.40444165,23.2367321 5.71343543,23.4638872 C5.71343543,23.4638872 5.66193647,23.3240995 5.74776807,23.2716791 C5.7649344,23.2891525 5.98809657,23.6735688 5.71343543,23.9706176 C5.71343543,23.9706176 5.64477015,23.9356707 5.55893854,24.0055646 C5.55893854,24.0055646 5.50743958,23.9531442 5.43877429,23.9880911 C5.43877429,23.9880911 5.40444165,23.8832503 5.30144372,23.8832503 C5.30144372,23.8832503 5.24994476,23.8832503 5.18127947,23.9531442 C5.18127947,23.9531442 5.0439489,23.9531442 5.00961626,24.1104054 C5.00961626,24.1104054 5.09544787,24.0405115 5.18127947,24.057985 C5.18127947,24.057985 5.21561212,24.1802992 5.37010901,24.1278788 C5.37010901,24.1278788 5.2842774,24.1977727 5.31861004,24.3026135 C5.31861004,24.3026135 5.35294269,24.1977727 5.45594061,24.2152461 C5.45594061,24.2152461 5.49027326,24.2501931 5.54177222,24.2327196 C5.54177222,24.2327196 5.5246059,24.3375604 5.64477015,24.3725073 C5.64477015,24.3725073 5.6104375,24.2676665 5.67910279,24.2152461 C5.67910279,24.2152461 5.71343543,24.3026135 5.81643336,24.3026135 C5.91943129,24.3026135 5.93659761,24.1977727 5.93659761,24.1977727 C5.93659761,24.1977727 6.0910945,24.1802992 6.1769261,24.0754584 C6.26275771,23.9706176 6.26275771,23.8832503 6.26275771,23.8832503 C6.26275771,23.8832503 6.27992403,23.8832503 6.29709035,23.9356707 C6.29709035,23.9356707 6.38292196,23.795883 6.31425667,23.5163076 C6.31425667,23.5163076 6.38292196,23.5512545 6.45158724,23.6910422 C6.45158724,23.6910422 6.55458517,23.4464137 6.45158724,23.2017852 C6.52025253,23.2192587 6.70908206,23.2542056 6.94941056,23.1668383 C6.94941056,23.1668383 6.84641263,23.1318914 6.84641263,23.079471 C6.84641263,23.079471 7.25840434,23.0095771 7.49873284,22.9047363 L7.49873284,22.9047363 C7.60173077,22.8697894 7.70472869,22.817369 7.7905603,22.7474751 C7.7905603,22.7474751 7.75622766,23.2367321 8.09955408,23.2367321 C8.09955408,23.2367321 8.09955408,23.568728 7.72189502,23.6036749 C7.72189502,23.6036749 7.60173077,23.6036749 7.49873284,23.5862014 C7.39573491,23.568728 7.29273698,23.6560953 7.30990331,23.795883 C7.30990331,23.795883 7.17257274,23.8657769 7.20690538,24.0055646 C7.20690538,24.0055646 7.27557066,23.8832503 7.34423595,23.8832503 C7.34423595,23.8832503 7.41290123,23.9356707 7.48156652,23.9007238 C7.48156652,23.9007238 7.36140227,23.9356707 7.37856859,24.057985 C7.37856859,24.057985 7.44723388,23.9706176 7.53306548,23.9880911 C7.53306548,23.9880911 7.60173077,24.0754584 7.72189502,24.0055646 C7.72189502,24.0055646 7.73906134,24.057985 7.7905603,24.0754584 C7.7905603,24.0754584 7.7905603,24.1802992 7.92789087,24.1977727 C7.92789087,24.1977727 7.87639191,24.1278788 7.89355823,24.057985 C7.89355823,24.057985 7.92789087,24.023038 7.94505719,24.0055646 C7.94505719,24.0055646 8.04805512,24.0055646 8.08238776,23.9181973 C8.08238776,23.9181973 8.09955408,23.8483034 8.04805512,23.8133565 C8.04805512,23.8133565 8.51154579,23.7085157 8.56304476,23.3240995 C8.56304476,23.3240995 8.63171004,23.4114668 8.5973774,23.5163076 C8.5973774,23.5163076 8.71754165,23.4114668 8.73470797,23.2542056 C8.73470797,23.2542056 8.76904061,23.2716791 8.78620693,23.3240995 C8.78620693,23.3240995 8.87203854,23.2192587 8.82053957,23.1318914 C8.82053957,23.1318914 9.21536496,23.0969444 9.21536496,23.4289403 C9.21536496,23.7609361 8.9235375,23.8308299 8.9235375,23.8308299 C8.9235375,23.8308299 8.75187429,23.7085157 8.66604268,23.8657769 C8.66604268,23.8657769 8.52871211,23.8657769 8.51154579,24.023038 C8.51154579,24.023038 8.61454372,23.9356707 8.683209,23.9531442 C8.683209,23.9531442 8.70037533,24.0405115 8.8377059,24.023038 C8.8377059,24.023038 8.73470797,24.0754584 8.76904061,24.1802992 C8.76904061,24.1802992 8.80337325,24.1104054 8.87203854,24.1278788 C8.87203854,24.1278788 8.97503647,24.2676665 9.12953336,24.1453523 C9.12953336,24.1453523 9.12953336,24.2501931 9.26686393,24.28514 C9.26686393,24.28514 9.19819864,24.2152461 9.24969761,24.1453523 C9.24969761,24.1453523 9.43852714,24.1977727 9.69602196,23.1843118 L9.69602196,22.0485366 L7.58456445,22.0485366 C7.58456445,22.0310631 7.61889709,21.6291734 7.36140227,21.2797041" id="Shape" fill="#1A202C"></path>
                    <path d="M8.9235375,21.760645 C8.94070382,21.7141706 8.94070382,21.6676962 8.94070382,21.6212219 C8.94070382,21.5747475 8.94070382,21.5282732 8.9235375,21.4817988 L9.04370175,21.4817988 C9.04370175,21.5979847 9.07803439,21.6909334 9.12953336,21.760645 L8.9235375,21.760645 L8.9235375,21.760645 Z M8.63171004,21.760645 L8.51154579,21.760645 L8.33988258,21.760645 L8.21971833,21.760645 C8.16821937,21.760645 8.1167204,21.6909334 8.1167204,21.6212219 C8.1167204,21.5515104 8.16821937,21.4817988 8.21971833,21.4817988 L8.32271626,21.4817988 L8.32271626,21.4817988 L8.49437947,21.4817988 L8.61454372,21.4817988 C8.66604268,21.4817988 8.71754165,21.5515104 8.71754165,21.6212219 C8.73470797,21.6909334 8.683209,21.760645 8.63171004,21.760645 M9.67885564,21.2029527 L9.59302403,21.2029527 L9.47285978,21.2029527 L9.23253128,21.2029527 C9.24969761,21.1564783 9.26686393,21.1100039 9.26686393,21.0635296 C9.26686393,20.9473437 9.23253128,20.8776321 9.163866,20.8079206 C9.163866,20.8079206 9.163866,20.8311578 9.163866,20.8311578 C9.163866,21.0170552 9.04370175,21.1797155 8.90637118,21.1797155 L8.8377059,21.1797155 L8.63171004,21.1797155 L8.32271626,21.1797155 L8.21971833,21.1797155 C8.04805512,21.1797155 7.91072455,21.3656129 7.91072455,21.5979847 C7.91072455,21.8303565 8.04805512,22.0162539 8.21971833,22.0162539 L8.63171004,22.0162539 L9.67885564,22.0162539 L9.67885564,21.7374078 L9.59302403,21.7374078 L9.47285978,21.7374078 C9.35269553,21.7374078 9.26686393,21.6212219 9.26686393,21.4585616 L9.67885564,21.4585616 L9.67885564,21.2029527 Z" id="Shape" fill="#1A202C"></path>
                    <path d="M7.37856859,17.0336523 C7.37856859,17.0511258 7.39573491,17.0511258 7.37856859,17.0336523 C7.39573491,17.0511258 7.37856859,17.0511258 7.37856859,17.0336523" id="Path" fill="#FCCF00"></path>
                    <path d="M7.39573491,17.0511258 C7.39573491,17.0511258 7.39573491,17.0685993 7.39573491,17.0511258 L7.39573491,17.0511258 Z" id="Path" fill="#FCCF00"></path>
                    <path d="M7.36140227,17.0161789 C7.36140227,17.0161789 7.36140227,17.0336523 7.36140227,17.0161789 C7.36140227,17.0161789 7.36140227,17.0161789 7.36140227,17.0161789" id="Path" fill="#FCCF00"></path>
                    <path d="M7.39573491,17.0685993 C7.41290123,17.0685993 7.41290123,17.0860727 7.39573491,17.0685993 C7.41290123,17.0860727 7.41290123,17.0685993 7.39573491,17.0685993" id="Path" fill="#FCCF00"></path>
                    <path d="M7.41290123,17.0860727 C7.41290123,17.1035462 7.43006755,17.1035462 7.41290123,17.0860727 C7.43006755,17.1035462 7.41290123,17.1035462 7.41290123,17.0860727" id="Path" fill="#FCCF00"></path>
                    <path d="M6.53741885,17.0161789 C6.48591989,17.0161789 6.43442092,16.9637585 6.43442092,16.9113381 L6.64041678,16.9113381 C6.64041678,16.9637585 6.58891781,17.0161789 6.53741885,17.0161789 M7.36140227,17.0161789 C7.36140227,17.0161789 7.43006755,17.0161789 7.48156652,17.0685993 C7.48156652,17.0685993 7.4644002,16.8589177 7.29273698,16.8064973 C7.29273698,16.8064973 7.39573491,16.7016565 7.30990331,16.5443953 C7.30990331,16.5443953 7.2240717,16.71913 6.79491367,16.71913 L6.52025253,16.71913 C6.38292196,16.71913 6.27992403,16.8414442 6.27992403,16.8763911 L5.850766,16.8763911 C5.850766,16.8763911 5.850766,17.0161789 5.98809657,17.0161789 C5.98809657,17.0161789 6.02242921,17.2782808 6.331423,17.1210196 C6.331423,17.1210196 6.26275771,17.2782808 5.88509864,17.1909135 C5.50743958,17.1210196 5.5246059,17.4005951 5.5246059,17.4005951 C5.5246059,17.4005951 5.59327118,17.208387 5.88509864,17.3132278 C5.88509864,17.3132278 5.71343543,17.3656481 5.73060175,17.5229093 C5.73060175,17.5229093 5.86793232,17.435542 5.90226496,17.435542 C5.90226496,17.435542 5.90226496,17.5403828 5.850766,17.5928032 C5.850766,17.5928032 6.02242921,17.5229093 6.27992403,17.5229093 C6.27992403,17.5229093 6.12542714,17.8898521 5.59327118,17.9597459 C5.59327118,17.9597459 5.02678258,17.6102766 4.87228569,17.3831216 C4.87228569,17.3831216 4.94095098,17.2608074 4.83795305,17.1559666 C4.83795305,17.1559666 4.76928776,17.0685993 4.63195719,17.1035462 C4.63195719,17.1035462 4.51179294,16.9288115 4.37446238,16.9987054 C4.37446238,16.9987054 4.25429813,16.9113381 4.13413388,17.0161789 C4.13413388,17.0161789 4.27146445,17.0161789 4.30579709,17.1210196 C4.30579709,17.1210196 4.28863077,17.1559666 4.28863077,17.2258604 C4.28863077,17.2258604 4.18563284,17.17344 4.08263491,17.2957543 C4.08263491,17.2957543 4.20279916,17.2782808 4.27146445,17.3307012 C4.27146445,17.3307012 4.23713181,17.4704889 4.44312766,17.5229093 C4.44312766,17.5229093 4.44312766,17.5753297 4.52895927,17.6102766 C4.52895927,17.6102766 4.52895927,17.8723786 4.82078673,17.8549051 C4.83795305,17.924799 4.87228569,18.2043744 5.0439489,18.414056 C5.0439489,18.414056 5.0439489,18.2742683 5.12978051,18.2393214 C5.12978051,18.2393214 5.09544787,18.5014233 5.33577636,18.7635253 C5.33577636,18.7635253 5.31861004,18.641211 5.42160797,18.5887906 C5.42160797,18.5887906 5.40444165,18.9557334 5.71343543,19.1828884 C5.71343543,19.1828884 5.66193647,19.0431007 5.74776807,18.9906803 C5.7649344,19.0081538 5.98809657,19.39257 5.71343543,19.6896189 C5.71343543,19.6896189 5.64477015,19.654672 5.55893854,19.7245658 C5.55893854,19.7245658 5.50743958,19.6721454 5.43877429,19.7070924 C5.43877429,19.7070924 5.40444165,19.6022516 5.30144372,19.6022516 C5.30144372,19.6022516 5.24994476,19.6022516 5.18127947,19.6721454 C5.18127947,19.6721454 5.0439489,19.6721454 5.00961626,19.8294066 C5.00961626,19.8294066 5.09544787,19.7595128 5.18127947,19.7769862 C5.18127947,19.7769862 5.21561212,19.8993005 5.37010901,19.8468801 C5.37010901,19.8468801 5.2842774,19.9167739 5.31861004,20.0216147 C5.31861004,20.0216147 5.35294269,19.9167739 5.45594061,19.9342474 C5.45594061,19.9342474 5.49027326,19.9691943 5.54177222,19.9517209 C5.54177222,19.9517209 5.5246059,20.0565616 5.64477015,20.0915086 C5.64477015,20.0915086 5.6104375,19.9866678 5.67910279,19.9342474 C5.67910279,19.9342474 5.71343543,20.0216147 5.81643336,20.0216147 C5.91943129,20.0216147 5.93659761,19.9167739 5.93659761,19.9167739 C5.93659761,19.9167739 6.0910945,19.8993005 6.1769261,19.7944597 C6.26275771,19.6896189 6.26275771,19.6022516 6.26275771,19.6022516 C6.26275771,19.6022516 6.27992403,19.6022516 6.29709035,19.654672 C6.29709035,19.654672 6.38292196,19.5148843 6.31425667,19.2353088 C6.31425667,19.2353088 6.38292196,19.2702558 6.45158724,19.4100435 C6.45158724,19.4100435 6.55458517,19.165415 6.45158724,18.9207865 C6.52025253,18.9382599 6.70908206,18.9732069 6.94941056,18.8858395 C6.94941056,18.8858395 6.84641263,18.8508926 6.84641263,18.7984722 C6.84641263,18.7984722 7.25840434,18.7285784 7.49873284,18.6237376 L7.49873284,18.6237376 C7.60173077,18.5887906 7.70472869,18.5363703 7.7905603,18.4664764 C7.7905603,18.4664764 7.75622766,18.9557334 8.09955408,18.9557334 C8.09955408,18.9557334 8.09955408,19.2877292 7.72189502,19.3226761 C7.72189502,19.3226761 7.60173077,19.3226761 7.49873284,19.3052027 C7.39573491,19.2877292 7.29273698,19.3750965 7.30990331,19.5148843 C7.30990331,19.5148843 7.17257274,19.5847781 7.20690538,19.7245658 C7.20690538,19.7245658 7.27557066,19.6022516 7.34423595,19.6022516 C7.34423595,19.6022516 7.41290123,19.654672 7.48156652,19.619725 C7.48156652,19.619725 7.36140227,19.654672 7.37856859,19.7769862 C7.37856859,19.7769862 7.44723388,19.6896189 7.53306548,19.7070924 C7.53306548,19.7070924 7.60173077,19.7944597 7.72189502,19.7245658 C7.72189502,19.7245658 7.73906134,19.7769862 7.7905603,19.7944597 C7.7905603,19.7944597 7.7905603,19.8993005 7.92789087,19.9167739 C7.92789087,19.9167739 7.87639191,19.8468801 7.89355823,19.7769862 C7.89355823,19.7769862 7.92789087,19.7420393 7.94505719,19.7245658 C7.94505719,19.7245658 8.04805512,19.7245658 8.08238776,19.6371985 C8.08238776,19.6371985 8.09955408,19.5673046 8.04805512,19.5323577 C8.04805512,19.5323577 8.51154579,19.4275169 8.56304476,19.0431007 C8.56304476,19.0431007 8.63171004,19.130468 8.5973774,19.2353088 C8.5973774,19.2353088 8.71754165,19.130468 8.73470797,18.9732069 C8.73470797,18.9732069 8.76904061,18.9906803 8.78620693,19.0431007 C8.78620693,19.0431007 8.87203854,18.9382599 8.82053957,18.8508926 C8.82053957,18.8508926 9.21536496,18.8159457 9.21536496,19.1479415 C9.21536496,19.4799373 8.9235375,19.5498312 8.9235375,19.5498312 C8.9235375,19.5498312 8.75187429,19.4275169 8.66604268,19.5847781 C8.66604268,19.5847781 8.52871211,19.5847781 8.51154579,19.7420393 C8.51154579,19.7420393 8.61454372,19.654672 8.683209,19.6721454 C8.683209,19.6721454 8.70037533,19.7595128 8.8377059,19.7420393 C8.8377059,19.7420393 8.73470797,19.7944597 8.76904061,19.8993005 C8.76904061,19.8993005 8.80337325,19.8294066 8.87203854,19.8468801 C8.87203854,19.8468801 8.97503647,19.9866678 9.12953336,19.8643535 C9.12953336,19.8643535 9.12953336,19.9691943 9.26686393,20.0041413 C9.26686393,20.0041413 9.19819864,19.9342474 9.24969761,19.8643535 C9.24969761,19.8643535 9.43852714,19.9167739 9.69602196,18.903313 L9.69602196,17.7675378 L7.58456445,17.7675378 C7.58456445,17.7675378 7.61889709,17.3656481 7.36140227,17.0161789" id="Shape" fill="#1A202C"></path>
                    <path d="M8.9235375,17.4971197 C8.94070382,17.4506453 8.94070382,17.404171 8.94070382,17.3576966 C8.94070382,17.3112222 8.94070382,17.2647479 8.9235375,17.2182735 L9.04370175,17.2182735 C9.04370175,17.3344594 9.07803439,17.4274081 9.12953336,17.4971197 L8.9235375,17.4971197 L8.9235375,17.4971197 Z M8.63171004,17.4971197 L8.51154579,17.4971197 L8.33988258,17.4971197 L8.21971833,17.4971197 C8.16821937,17.4971197 8.1167204,17.4274081 8.1167204,17.3576966 C8.1167204,17.2879851 8.16821937,17.2182735 8.21971833,17.2182735 L8.32271626,17.2182735 L8.32271626,17.2182735 L8.49437947,17.2182735 L8.61454372,17.2182735 C8.66604268,17.2182735 8.71754165,17.2879851 8.71754165,17.3576966 C8.73470797,17.4274081 8.683209,17.4971197 8.63171004,17.4971197 M9.67885564,16.9394274 L9.59302403,16.9394274 L9.47285978,16.9394274 L9.23253128,16.9394274 C9.24969761,16.892953 9.26686393,16.8464787 9.26686393,16.8000043 C9.26686393,16.6838184 9.23253128,16.6141069 9.163866,16.5443953 C9.163866,16.5443953 9.163866,16.5676325 9.163866,16.5676325 C9.163866,16.7535299 9.04370175,16.9161902 8.90637118,16.9161902 L8.8377059,16.9161902 L8.63171004,16.9161902 L8.32271626,16.9161902 L8.21971833,16.9161902 C8.04805512,16.9161902 7.91072455,17.1020876 7.91072455,17.3344594 C7.91072455,17.5668312 8.04805512,17.7527287 8.21971833,17.7527287 L8.63171004,17.7527287 L9.67885564,17.7527287 L9.67885564,17.4738825 L9.59302403,17.4738825 L9.47285978,17.4738825 C9.35269553,17.4738825 9.26686393,17.3576966 9.26686393,17.1950363 L9.67885564,17.1950363 L9.67885564,16.9394274 Z" id="Shape" fill="#1A202C"></path>
                    <path d="M7.37856859,12.770127 C7.37856859,12.770127 7.37856859,12.7876005 7.37856859,12.770127 C7.37856859,12.770127 7.37856859,12.770127 7.37856859,12.770127" id="Path" fill="#FCCF00"></path>
                    <path d="M7.37856859,12.7876005 C7.37856859,12.7876005 7.39573491,12.7876005 7.37856859,12.7876005 C7.39573491,12.7876005 7.37856859,12.7876005 7.37856859,12.7876005" id="Path" fill="#FCCF00"></path>
                    <path d="M7.39573491,12.805074 C7.41290123,12.8225474 7.41290123,12.8225474 7.39573491,12.805074 C7.41290123,12.8225474 7.41290123,12.8225474 7.39573491,12.805074" id="Path" fill="#FCCF00"></path>
                    <path d="M7.41290123,12.8400209 C7.41290123,12.8400209 7.43006755,12.8400209 7.41290123,12.8400209 C7.43006755,12.8400209 7.41290123,12.8400209 7.41290123,12.8400209" id="Path" fill="#FCCF00"></path>
                    <path d="M7.41290123,12.8225474 C7.41290123,12.8225474 7.41290123,12.8400209 7.41290123,12.8225474 C7.41290123,12.8400209 7.41290123,12.8225474 7.41290123,12.8225474" id="Path" fill="#FCCF00"></path>
                    <path d="M6.53741885,12.7526536 C6.48591989,12.7526536 6.43442092,12.7002332 6.43442092,12.6478128 L6.64041678,12.6478128 C6.64041678,12.7177066 6.58891781,12.7526536 6.53741885,12.7526536 M7.36140227,12.770127 C7.36140227,12.770127 7.43006755,12.770127 7.48156652,12.8225474 C7.48156652,12.8225474 7.4644002,12.6128659 7.29273698,12.5604455 C7.29273698,12.5604455 7.39573491,12.4556047 7.30990331,12.2983435 C7.30990331,12.2983435 7.2240717,12.4730781 6.79491367,12.4730781 L6.52025253,12.4730781 C6.38292196,12.4730781 6.27992403,12.5953924 6.27992403,12.6303393 L5.850766,12.6303393 C5.850766,12.6303393 5.850766,12.770127 5.98809657,12.770127 C5.98809657,12.770127 6.02242921,13.032229 6.331423,12.8749678 C6.331423,12.8749678 6.26275771,13.032229 5.88509864,12.9448617 C5.50743958,12.8749678 5.5246059,13.1545432 5.5246059,13.1545432 C5.5246059,13.1545432 5.59327118,12.9623351 5.88509864,13.0671759 C5.88509864,13.0671759 5.71343543,13.1195963 5.73060175,13.2768575 C5.73060175,13.2768575 5.86793232,13.1894902 5.90226496,13.1894902 C5.90226496,13.1894902 5.90226496,13.294331 5.850766,13.3467514 C5.850766,13.3467514 6.02242921,13.2768575 6.27992403,13.2768575 C6.27992403,13.2768575 6.12542714,13.6438002 5.59327118,13.7136941 C5.59327118,13.7136941 5.02678258,13.3642248 4.87228569,13.1370698 C4.87228569,13.1370698 4.94095098,13.0147555 4.83795305,12.9099147 C4.83795305,12.9099147 4.76928776,12.8225474 4.63195719,12.8574944 C4.63195719,12.8574944 4.51179294,12.6827597 4.37446238,12.7526536 C4.37446238,12.7526536 4.25429813,12.6652862 4.13413388,12.770127 C4.13413388,12.770127 4.27146445,12.770127 4.30579709,12.8749678 C4.30579709,12.8749678 4.28863077,12.9099147 4.28863077,12.9798086 C4.28863077,12.9798086 4.18563284,12.9273882 4.08263491,13.0497025 C4.08263491,13.0497025 4.20279916,13.032229 4.27146445,13.0846494 C4.27146445,13.0846494 4.23713181,13.2244371 4.44312766,13.2768575 C4.44312766,13.2768575 4.44312766,13.3292779 4.52895927,13.3642248 C4.52895927,13.3642248 4.52895927,13.6263268 4.82078673,13.6088533 C4.83795305,13.6787472 4.87228569,13.9583226 5.0439489,14.1680042 C5.0439489,14.1680042 5.0439489,14.0282165 5.12978051,13.9932695 C5.12978051,13.9932695 5.09544787,14.2553715 5.33577636,14.5174735 C5.33577636,14.5174735 5.31861004,14.3951592 5.42160797,14.3427388 C5.42160797,14.3427388 5.40444165,14.7096816 5.71343543,14.9368366 C5.71343543,14.9368366 5.66193647,14.7970489 5.74776807,14.7446285 C5.7649344,14.762102 5.98809657,15.1465182 5.71343543,15.4435671 C5.71343543,15.4435671 5.64477015,15.4086201 5.55893854,15.478514 C5.55893854,15.478514 5.50743958,15.4260936 5.43877429,15.4610405 C5.43877429,15.4610405 5.40444165,15.3561998 5.30144372,15.3561998 C5.30144372,15.3561998 5.24994476,15.3561998 5.18127947,15.4260936 C5.18127947,15.4260936 5.0439489,15.4260936 5.00961626,15.5833548 C5.00961626,15.5833548 5.09544787,15.5134609 5.18127947,15.5309344 C5.18127947,15.5309344 5.21561212,15.6532486 5.37010901,15.6008283 C5.37010901,15.6008283 5.2842774,15.6707221 5.31861004,15.7755629 C5.31861004,15.7755629 5.35294269,15.6707221 5.45594061,15.6881956 C5.45594061,15.6881956 5.49027326,15.7231425 5.54177222,15.705669 C5.54177222,15.705669 5.5246059,15.8105098 5.64477015,15.8454568 C5.64477015,15.8454568 5.6104375,15.740616 5.67910279,15.6881956 C5.67910279,15.6881956 5.71343543,15.7755629 5.81643336,15.7755629 C5.91943129,15.7755629 5.93659761,15.6707221 5.93659761,15.6707221 C5.93659761,15.6707221 6.0910945,15.6532486 6.1769261,15.5484079 C6.26275771,15.4435671 6.26275771,15.3561998 6.26275771,15.3561998 C6.26275771,15.3561998 6.27992403,15.3561998 6.29709035,15.4086201 C6.29709035,15.4086201 6.38292196,15.2688324 6.31425667,14.989257 C6.31425667,14.989257 6.38292196,15.0242039 6.45158724,15.1639916 C6.45158724,15.1639916 6.55458517,14.9193631 6.45158724,14.6747346 C6.52025253,14.6922081 6.70908206,14.727155 6.94941056,14.6397877 C6.94941056,14.6397877 6.84641263,14.6048408 6.84641263,14.5524204 C6.84641263,14.5524204 7.25840434,14.4825265 7.49873284,14.3776857 L7.49873284,14.3776857 C7.60173077,14.3427388 7.70472869,14.2903184 7.7905603,14.2204246 C7.7905603,14.2204246 7.75622766,14.7096816 8.09955408,14.7096816 C8.09955408,14.7096816 8.09955408,15.0416774 7.72189502,15.0766243 C7.72189502,15.0766243 7.60173077,15.0766243 7.49873284,15.0591509 C7.39573491,15.0416774 7.29273698,15.1290447 7.30990331,15.2688324 C7.30990331,15.2688324 7.17257274,15.3387263 7.20690538,15.478514 C7.20690538,15.478514 7.27557066,15.3561998 7.34423595,15.3561998 C7.34423595,15.3561998 7.41290123,15.4086201 7.48156652,15.3736732 C7.48156652,15.3736732 7.36140227,15.4086201 7.37856859,15.5309344 C7.37856859,15.5309344 7.44723388,15.4435671 7.53306548,15.4610405 C7.53306548,15.4610405 7.60173077,15.5484079 7.72189502,15.478514 C7.72189502,15.478514 7.73906134,15.5309344 7.7905603,15.5484079 C7.7905603,15.5484079 7.7905603,15.6532486 7.92789087,15.6707221 C7.92789087,15.6707221 7.87639191,15.6008283 7.89355823,15.5309344 C7.89355823,15.5309344 7.92789087,15.4959875 7.94505719,15.478514 C7.94505719,15.478514 8.04805512,15.478514 8.08238776,15.3911467 C8.08238776,15.3911467 8.09955408,15.3212528 8.04805512,15.2863059 C8.04805512,15.2863059 8.51154579,15.1814651 8.56304476,14.7970489 C8.56304476,14.7970489 8.63171004,14.8844162 8.5973774,14.989257 C8.5973774,14.989257 8.71754165,14.8844162 8.73470797,14.727155 C8.73470797,14.727155 8.76904061,14.7446285 8.78620693,14.7970489 C8.78620693,14.7970489 8.87203854,14.6922081 8.82053957,14.6048408 C8.82053957,14.6048408 9.21536496,14.5698939 9.21536496,14.9018897 C9.21536496,15.2338855 8.9235375,15.3037794 8.9235375,15.3037794 C8.9235375,15.3037794 8.75187429,15.1814651 8.66604268,15.3387263 C8.66604268,15.3387263 8.52871211,15.3387263 8.51154579,15.4959875 C8.51154579,15.4959875 8.61454372,15.4086201 8.683209,15.4260936 C8.683209,15.4260936 8.70037533,15.5134609 8.8377059,15.4959875 C8.8377059,15.4959875 8.73470797,15.5484079 8.76904061,15.6532486 C8.76904061,15.6532486 8.80337325,15.5833548 8.87203854,15.6008283 C8.87203854,15.6008283 8.97503647,15.740616 9.12953336,15.6183017 C9.12953336,15.6183017 9.12953336,15.7231425 9.26686393,15.7580894 C9.26686393,15.7580894 9.19819864,15.6881956 9.24969761,15.6183017 C9.24969761,15.6183017 9.43852714,15.6707221 9.69602196,14.6572612 L9.69602196,13.521486 L7.58456445,13.521486 C7.58456445,13.5040125 7.61889709,13.1195963 7.36140227,12.770127" id="Shape" fill="#1A202C"></path>
                    <path d="M8.9235375,13.2335944 C8.94070382,13.18712 8.94070382,13.1406457 8.94070382,13.0941713 C8.94070382,13.047697 8.94070382,13.0012226 8.9235375,12.9547482 L9.04370175,12.9547482 C9.04370175,13.0709341 9.07803439,13.1638829 9.12953336,13.2335944 L8.9235375,13.2335944 L8.9235375,13.2335944 Z M8.63171004,13.2335944 L8.51154579,13.2335944 L8.33988258,13.2335944 L8.21971833,13.2335944 C8.16821937,13.2335944 8.1167204,13.1638829 8.1167204,13.0941713 C8.1167204,13.0244598 8.16821937,12.9547482 8.21971833,12.9547482 L8.32271626,12.9547482 L8.32271626,12.9547482 L8.49437947,12.9547482 L8.61454372,12.9547482 C8.66604268,12.9547482 8.71754165,13.0244598 8.71754165,13.0941713 C8.73470797,13.18712 8.683209,13.2335944 8.63171004,13.2335944 M9.67885564,12.6759021 L9.59302403,12.6759021 L9.47285978,12.6759021 L9.23253128,12.6759021 C9.24969761,12.6294277 9.26686393,12.5829534 9.26686393,12.536479 C9.26686393,12.4202931 9.23253128,12.3505816 9.163866,12.28087 C9.163866,12.28087 9.163866,12.3041072 9.163866,12.3041072 C9.163866,12.4900047 9.04370175,12.6526649 8.90637118,12.6526649 L8.8377059,12.6526649 L8.63171004,12.6526649 L8.32271626,12.6526649 L8.21971833,12.6526649 C8.04805512,12.6526649 7.91072455,12.8385623 7.91072455,13.0709341 C7.91072455,13.3033059 8.04805512,13.4892034 8.21971833,13.4892034 L8.63171004,13.4892034 L9.67885564,13.4892034 L9.67885564,13.2103572 L9.59302403,13.2103572 L9.47285978,13.2103572 C9.35269553,13.2103572 9.26686393,13.0941713 9.26686393,12.9315111 L9.67885564,12.9315111 L9.67885564,12.6759021 Z" id="Shape" fill="#1A202C"></path>
                    <path d="M9.50719242,27.7973063 C12.7344608,26.6440577 14.2622634,25.0539724 15.0690805,23.7434626 C15.8930639,22.3805324 15.9102302,21.2622307 15.9102302,21.1748634 L15.9102302,21.1573899 L15.9102302,11.6168784 L9.52435875,11.6168784" id="Shape" fill="#1A202C"></path>
                    <path d="M11.0693277,14.272845 C11.0178287,14.272845 10.9834961,14.2903184 10.9491634,14.2903184 C10.8633318,14.2903184 10.7603339,14.272845 10.7603339,14.272845 C10.9663297,14.5698939 11.94481,15.3387263 11.94481,15.3387263 L11.94481,15.9153506 L11.4126541,17.1559666 L11.4126541,17.1559666 C11.4298204,17.17344 11.7731468,17.5054359 12.7344608,17.5054359 C12.7344608,17.5054359 12.7344608,17.5054359 12.7344608,17.5054359 C12.7344608,17.5054359 12.7344608,17.5054359 12.7344608,17.5054359 C13.6957748,17.5054359 14.0391012,17.1559666 14.0562676,17.1559666 L14.0562676,17.1559666 L14.0562676,17.1559666 L13.5241116,15.9153506 L13.5241116,15.3387263 C13.5241116,15.3387263 14.5025919,14.5524204 14.7085878,14.272845 C14.7085878,14.272845 14.6055898,14.2903184 14.5197582,14.2903184 C14.4854256,14.2903184 14.4510929,14.2903184 14.399594,14.272845 C14.5540909,14.1854776 14.6914214,14.0456899 14.7600867,13.8010614 L14.777253,13.748641 L14.7257541,13.748641 C14.7257541,13.748641 14.3652613,13.783588 14.2279308,14.010743 C14.2279308,13.9932695 14.2279308,13.9583226 14.2279308,13.9408491 C14.2279308,13.9059022 14.2622634,13.7661145 14.2622634,13.7311676 C14.2622634,13.7311676 14.2622634,13.7311676 14.2622634,13.7311676 C14.2622634,13.7311676 14.2450971,13.748641 14.2279308,13.748641 C14.1249328,13.8010614 13.9017707,13.9583226 13.7644401,14.1505307 C13.7644401,14.1505307 13.918937,13.9408491 14.0047686,13.5913799 C14.0219349,13.5564329 14.0219349,13.521486 14.0219349,13.521486 L13.9876023,13.5389595 C13.9532696,13.5564329 13.867438,13.6088533 13.7301074,13.6438002 C13.8159391,13.521486 13.8846043,13.3816983 13.8846043,13.1894902 C13.8846043,13.1545432 13.8846043,13.1195963 13.867438,13.0671759 L13.867438,13.0147555 L13.8331054,13.032229 C13.8331054,13.032229 13.5241116,13.2069636 13.4726126,13.4865391 C13.4726126,13.4690656 13.4554463,13.4515921 13.4554463,13.4341187 C13.43828,13.3991717 13.43828,13.3642248 13.4211137,13.3292779 C13.4211137,13.294331 13.4039473,13.2419106 13.4039473,13.2244371 C13.4039473,13.2244371 13.1979515,13.4865391 13.1121199,13.8010614 C13.1121199,13.8010614 13.1979515,13.521486 13.0949536,13.1370698 C13.0949536,13.1370698 13.0949536,13.1370698 13.0949536,13.1370698 L13.0777872,13.1545432 C13.0606209,13.1894902 13.009122,13.259384 12.906124,13.3467514 C12.9232903,13.3118044 12.9232903,13.2768575 12.9232903,13.2244371 C12.9232903,12.9972821 12.7687935,12.7876005 12.7687935,12.770127 L12.7344608,12.7351801 L12.7001282,12.770127 C12.7001282,12.770127 12.5456313,12.9972821 12.5456313,13.2244371 C12.5456313,13.259384 12.5456313,13.294331 12.5627976,13.3467514 C12.4597997,13.259384 12.425467,13.1894902 12.3911344,13.1545432 L12.3739681,13.1370698 C12.3739681,13.1370698 12.3739681,13.1370698 12.3739681,13.1370698 C12.2709701,13.521486 12.3568017,13.8010614 12.3568017,13.8010614 C12.2709701,13.4865391 12.0649743,13.2244371 12.0649743,13.2244371 C12.047808,13.259384 12.047808,13.3118044 12.047808,13.3292779 C12.0306416,13.3816983 12.0306416,13.3991717 12.0134753,13.4341187 C12.0134753,13.4515921 11.996309,13.4690656 11.996309,13.4865391 C11.94481,13.2244371 11.6358163,13.032229 11.6358163,13.032229 L11.6014836,13.0147555 L11.6014836,13.0671759 C11.6014836,13.1021229 11.5843173,13.1545432 11.5843173,13.1894902 C11.5843173,13.3816983 11.6529826,13.5389595 11.7388142,13.6438002 C11.6014836,13.6088533 11.5328183,13.5564329 11.4813194,13.5389595 L11.4469867,13.521486 C11.4469867,13.521486 11.4469867,13.5389595 11.464153,13.5913799 C11.5499847,13.9233757 11.7044815,14.1505307 11.7044815,14.1505307 C11.5499847,13.9583226 11.3268225,13.8185349 11.2409909,13.748641 C11.2238245,13.7311676 11.2066582,13.7311676 11.2066582,13.7311676 C11.2066582,13.7311676 11.2066582,13.7311676 11.2066582,13.7311676 C11.2238245,13.7661145 11.2409909,13.9059022 11.2409909,13.9408491 C11.2409909,13.9583226 11.2409909,13.9932695 11.2409909,14.010743 C11.086494,13.783588 10.7431676,13.748641 10.7431676,13.748641 L10.6916686,13.748641 L10.7088349,13.8010614 C10.7775002,14.0456899 10.9319971,14.1854776 11.0693277,14.272845" id="Path" fill="#9DA6B9"></path>
                    <path d="M11.0693277,20.1963494 C11.0178287,20.1963494 10.9834961,20.2138228 10.9491634,20.2138228 C10.8633318,20.2138228 10.7603339,20.1963494 10.7603339,20.1963494 C10.9663297,20.4933983 11.94481,21.2622307 11.94481,21.2622307 L11.94481,21.838855 L11.4126541,23.079471 L11.4126541,23.079471 C11.4298204,23.0969444 11.7731468,23.4289403 12.7344608,23.4289403 C12.7344608,23.4289403 12.7344608,23.4289403 12.7344608,23.4289403 C12.7344608,23.4289403 12.7344608,23.4289403 12.7344608,23.4289403 C13.6957748,23.4289403 14.0391012,23.079471 14.0562676,23.079471 L14.0562676,23.079471 L14.0562676,23.079471 L13.5241116,21.838855 L13.5241116,21.2622307 C13.5241116,21.2622307 14.5025919,20.4759248 14.7085878,20.1963494 C14.7085878,20.1963494 14.6055898,20.2138228 14.5197582,20.2138228 C14.4854256,20.2138228 14.4510929,20.2138228 14.399594,20.1963494 C14.5540909,20.108982 14.6914214,19.9691943 14.7600867,19.7245658 L14.777253,19.6721454 L14.7257541,19.6721454 C14.7257541,19.6721454 14.3652613,19.7070924 14.2279308,19.9342474 C14.2279308,19.9167739 14.2279308,19.881827 14.2279308,19.8643535 C14.2279308,19.8294066 14.2622634,19.6896189 14.2622634,19.654672 C14.2622634,19.654672 14.2622634,19.654672 14.2622634,19.654672 C14.2622634,19.654672 14.2450971,19.6721454 14.2279308,19.6721454 C14.1249328,19.7245658 13.9017707,19.881827 13.7644401,20.0740351 C13.7644401,20.0740351 13.918937,19.8643535 14.0047686,19.5148843 C14.0219349,19.4799373 14.0219349,19.4449904 14.0219349,19.4449904 L13.9876023,19.4624639 C13.9532696,19.4799373 13.867438,19.5323577 13.7301074,19.5673046 C13.8159391,19.4449904 13.8846043,19.3052027 13.8846043,19.1129946 C13.8846043,19.0780476 13.8846043,19.0431007 13.867438,18.9906803 L13.867438,18.9382599 L13.8331054,18.9557334 C13.8331054,18.9557334 13.5241116,19.130468 13.4726126,19.4100435 C13.4726126,19.39257 13.4554463,19.3750965 13.4554463,19.3576231 C13.43828,19.3226761 13.43828,19.2877292 13.4211137,19.2527823 C13.4211137,19.2178354 13.4039473,19.165415 13.4039473,19.1479415 C13.4039473,19.1479415 13.1979515,19.4100435 13.1121199,19.7245658 C13.1121199,19.7245658 13.1979515,19.4449904 13.0949536,19.0605742 C13.0949536,19.0605742 13.0949536,19.0605742 13.0949536,19.0605742 L13.0777872,19.0780476 C13.0606209,19.1129946 13.009122,19.1828884 12.906124,19.2702558 C12.9232903,19.2353088 12.9232903,19.2003619 12.9232903,19.1479415 C12.9232903,18.9207865 12.7687935,18.7111049 12.7687935,18.6936314 L12.7344608,18.6586845 L12.7001282,18.6936314 C12.7001282,18.6936314 12.5456313,18.9207865 12.5456313,19.1479415 C12.5456313,19.1828884 12.5456313,19.2178354 12.5627976,19.2702558 C12.4597997,19.1828884 12.425467,19.1129946 12.3911344,19.0780476 L12.3739681,19.0605742 C12.3739681,19.0605742 12.3739681,19.0605742 12.3739681,19.0605742 C12.2709701,19.4449904 12.3568017,19.7245658 12.3568017,19.7245658 C12.2709701,19.4100435 12.0649743,19.1479415 12.0649743,19.1479415 C12.047808,19.1828884 12.047808,19.2353088 12.047808,19.2527823 C12.0306416,19.3052027 12.0306416,19.3226761 12.0134753,19.3576231 C12.0134753,19.3750965 11.996309,19.39257 11.996309,19.4100435 C11.94481,19.1479415 11.6358163,18.9557334 11.6358163,18.9557334 L11.6014836,18.9382599 L11.6014836,18.9906803 C11.6014836,19.0256273 11.5843173,19.0780476 11.5843173,19.1129946 C11.5843173,19.3052027 11.6529826,19.4624639 11.7388142,19.5673046 C11.6014836,19.5323577 11.5328183,19.4799373 11.4813194,19.4624639 L11.4469867,19.4449904 C11.4469867,19.4449904 11.4469867,19.4624639 11.464153,19.5148843 C11.5499847,19.8468801 11.7044815,20.0740351 11.7044815,20.0740351 C11.5499847,19.881827 11.3268225,19.7420393 11.2409909,19.6721454 C11.2238245,19.654672 11.2066582,19.654672 11.2066582,19.654672 C11.2066582,19.654672 11.2066582,19.654672 11.2066582,19.654672 C11.2238245,19.6896189 11.2409909,19.8294066 11.2409909,19.8643535 C11.2409909,19.881827 11.2409909,19.9167739 11.2409909,19.9342474 C11.086494,19.7070924 10.7431676,19.6721454 10.7431676,19.6721454 L10.6916686,19.6721454 L10.7088349,19.7245658 C10.7775002,19.9691943 10.9319971,20.108982 11.0693277,20.1963494" id="Path" fill="#9DA6B9"></path>
                    <path d="M17.7470266,2.268575 C17.3522012,2.72288507 18.0216878,3.50919096 17.6440287,3.59655829 C17.6440287,3.59655829 17.5066981,3.63150521 17.4208665,3.07235436 C17.3522012,2.63551775 17.3350349,2.21615461 16.6312157,1.779318 C16.6312157,1.779318 16.2363903,2.58309736 17.3350349,4.36539071 C17.3350349,4.36539071 16.9745422,4.05086836 16.75138,3.82371332 C16.5453841,3.61403175 15.7728997,2.68793814 14.9660826,2.93256664 C14.9660826,2.93256664 15.0347479,3.08982782 15.0690805,3.15972168 C15.1034131,3.22961554 15.1720784,3.31698286 15.2235774,3.42182364 C15.2922427,3.52666443 15.3952406,3.59655829 15.4467396,3.66645214 C15.4467396,3.66645214 14.296596,3.40435018 14.1764318,4.43528457 C14.0562676,5.46621896 15.4639059,5.60600668 15.6355691,5.60600668 C15.9788955,5.60600668 15.8587313,5.85063518 15.8758976,5.86810864 C15.8930639,5.90305557 16.0475608,5.81568825 16.0475608,5.79821479 C16.1505587,5.693374 16.1677251,5.55358629 16.1162261,5.41379857 C16.0818935,5.32643125 16.0132282,5.23906393 15.9273966,5.18664354 C15.738567,5.06432929 15.2922427,5.02938236 15.3952406,4.69738654 C15.4639059,4.4702315 16.1162261,4.36539071 16.4595525,4.69738654 C16.8028789,5.02938236 16.7857126,5.58853321 16.5282178,5.97294943 C16.5282178,5.97294943 16.1848914,6.53210029 15.2922427,6.47967989 C15.2922427,6.47967989 14.0391012,6.46220643 13.5412779,5.25653739 C13.5412779,5.25653739 12.8374587,6.20010446 11.6701489,6.11273714 C10.7260012,6.02536982 10.1938453,5.53611282 10.1938453,4.74980693 C10.1938453,4.74980693 10.2281779,3.92855411 11.034995,3.84118679 C11.034995,3.84118679 11.7903131,3.80623986 11.8074795,4.26054993 C11.8074795,4.26054993 11.8589784,4.48770496 11.4126541,4.59254575 C11.4126541,4.59254575 10.8633318,4.74980693 10.9491634,5.11674968 C10.9491634,5.11674968 11.0178287,5.41379857 11.3783214,5.51863936 C11.3783214,5.51863936 11.4469867,5.53611282 11.4813194,5.48369243 C11.515652,5.43127204 11.3783214,5.41379857 11.3268225,5.34390471 C11.2753235,5.27401086 11.2924898,5.04685582 11.6014836,4.99443543 C11.9104774,4.94201504 13.1807852,4.99443543 13.2322841,3.99844796 C13.2322841,3.99844796 13.1979515,3.29950939 12.3911344,3.14224821 C12.3911344,3.14224821 12.8031261,2.68793814 12.5456313,2.21615461 C12.5456313,2.21615461 12.0306416,2.70541161 11.4298204,2.84519932 C11.0006624,2.95004011 10.3998411,3.21214207 10.1423463,3.35192979 C10.1423463,3.35192979 11.464153,2.11131382 11.464153,1.25511407 C11.464153,1.08037943 11.2581572,1.0454325 10.9491634,1.15027329 C10.6401696,1.25511407 10.4170074,1.55216296 10.3311758,1.69195068 C10.2453442,1.83173839 9.91918413,2.47825657 9.7303546,2.37341579 C9.7303546,2.37341579 9.59302403,2.32099539 9.71318828,2.14626075 C9.83335253,1.97152611 10.2625106,1.5346895 10.1938453,1.02795904 C10.1080137,0.503755107 9.67885564,0.171759285 9.4900261,0.0144981066 C9.30119657,0.171759285 8.87203854,0.503755107 8.78620693,1.02795904 C8.70037533,1.55216296 9.12953336,1.97152611 9.26686393,2.14626075 C9.38702818,2.32099539 9.24969761,2.37341579 9.24969761,2.37341579 C9.04370175,2.47825657 8.73470797,1.83173839 8.64887636,1.69195068 C8.56304476,1.55216296 8.32271626,1.25511407 8.0308888,1.15027329 C7.72189502,1.0454325 7.51589916,1.08037943 7.51589916,1.25511407 C7.51589916,2.12878729 8.8377059,3.35192979 8.8377059,3.35192979 C8.58021108,3.21214207 7.97938983,2.95004011 7.5502318,2.84519932 C6.96657688,2.70541161 6.43442092,2.21615461 6.43442092,2.21615461 C6.15975978,2.68793814 6.58891781,3.14224821 6.58891781,3.14224821 C5.79926704,3.29950939 5.74776807,3.99844796 5.74776807,3.99844796 C5.79926704,4.99443543 7.06957481,4.94201504 7.37856859,4.99443543 C7.68756237,5.04685582 7.70472869,5.27401086 7.65322973,5.34390471 C7.60173077,5.41379857 7.4644002,5.4487455 7.49873284,5.48369243 C7.53306548,5.53611282 7.60173077,5.51863936 7.60173077,5.51863936 C7.96222351,5.41379857 8.0308888,5.11674968 8.0308888,5.11674968 C8.13388673,4.74980693 7.56739812,4.59254575 7.56739812,4.59254575 C7.12107377,4.48770496 7.17257274,4.26054993 7.17257274,4.26054993 C7.18973906,3.80623986 7.94505719,3.84118679 7.94505719,3.84118679 C8.75187429,3.92855411 8.78620693,4.74980693 8.78620693,4.74980693 C8.76904061,5.53611282 8.25405097,6.04284329 7.29273698,6.11273714 C6.14259346,6.21757793 5.42160797,5.25653739 5.42160797,5.25653739 C4.92378465,6.46220643 3.6706432,6.47967989 3.6706432,6.47967989 C2.7779945,6.53210029 2.43466808,5.97294943 2.43466808,5.97294943 C2.17717326,5.58853321 2.16000694,5.02938236 2.50333336,4.69738654 C2.84665979,4.36539071 3.48181367,4.4702315 3.56764528,4.69738654 C3.6706432,5.02938236 3.22431885,5.08180275 3.03548932,5.18664354 C2.94965771,5.23906393 2.88099243,5.32643125 2.84665979,5.41379857 C2.79516082,5.53611282 2.81232714,5.693374 2.91532507,5.79821479 C2.93249139,5.81568825 3.06982196,5.90305557 3.08698828,5.86810864 C3.1041546,5.85063518 2.98399036,5.60600668 3.32731678,5.60600668 C3.49897999,5.60600668 4.90661833,5.48369243 4.78645408,4.43528457 C4.66628984,3.40435018 3.51614631,3.66645214 3.51614631,3.66645214 C3.56764528,3.59655829 3.6706432,3.52666443 3.73930849,3.42182364 C3.80797377,3.31698286 3.85947274,3.22961554 3.89380538,3.15972168 C3.92813802,3.08982782 3.99680331,2.93256664 3.99680331,2.93256664 C3.18998621,2.68793814 2.41750175,3.59655829 2.2115059,3.82371332 C2.00551004,4.03339489 1.62785098,4.36539071 1.62785098,4.36539071 C2.72649554,2.58309736 2.33167015,1.779318 2.33167015,1.779318 C1.61068466,2.21615461 1.61068466,2.63551775 1.54201937,3.07235436 C1.45618777,3.63150521 1.3188572,3.59655829 1.3188572,3.59655829 C0.924031807,3.52666443 1.59351834,2.74035854 1.21585927,2.268575 C0.700869631,1.67447721 0.0313831027,1.69195068 0.0313831027,1.69195068 L2.00551004,9.55500961 L2.34883647,9.55500961 C2.36600279,9.55500961 2.38316911,9.55500961 2.40033543,9.55500961 C2.4518344,9.55500961 2.48616704,9.55500961 2.48616704,9.55500961 L3.24148517,9.55500961 L9.52435875,9.55500961 L15.738567,9.55500961 L16.4938852,9.55500961 C16.4938852,9.55500961 16.5282178,9.55500961 16.5797168,9.55500961 C16.5968831,9.55500961 16.6140494,9.55500961 16.6312157,9.55500961 L16.9745422,9.55500961 L18.9486691,1.69195068 C18.9315028,1.67447721 18.2620163,1.65700375 17.7470266,2.268575" id="Path" fill="#9DA6B9"></path>
                </g>
            </g>
        </g>
    </g>
</svg>