<?xml version="1.0" encoding="UTF-8"?>
<svg width="200px" height="55px" viewBox="0 0 200 55" version="1.1" xmlns="http://www.w3.org/2000/svg" xmlns:xlink="http://www.w3.org/1999/xlink">
    <title>chester-racecourse-logo-vector</title>
    <g id="Page-1" stroke="none" stroke-width="1" fill="none" fill-rule="evenodd">
        <g id="iPhone-X" transform="translate(-754.000000, -3211.000000)" fill-rule="nonzero">
            <g id="chester-racecourse-logo-vector" transform="translate(754.000000, 3211.000000)">
                <path d="M63.4903157,16.5690377 C68.5881743,16.5690377 71.2033096,19.3430583 71.2033096,19.3430583 L69.7467785,21.55567 C69.7467785,21.55567 67.2971581,19.2439861 63.6227276,19.2439861 C58.8890017,19.2439861 55.7773217,22.8436082 55.7773217,27.3348797 C55.7773217,31.8591753 58.9221047,35.6899657 63.6558305,35.6899657 C67.6612909,35.6899657 70.2102202,32.9489691 70.2102202,32.9489691 L71.7991632,35.0625087 C71.7991632,35.0625087 68.8861011,38.4309623 63.5565216,38.4309623 C57.2007498,38.4309623 52.6987448,33.5764262 52.6987448,27.3679038 C52.6987448,21.2584535 57.3331617,16.5690377 63.4903157,16.5690377" id="Path" fill="#9DA6B9"></path>
                <polygon id="Path" fill="#00387F" points="78.0125523 16.7991632 81.005982 16.7991632 81.005982 26.1133232 92.0484113 26.1133232 92.0484113 16.7991632 95.041841 16.7991632 95.041841 37.9707113 92.0484113 37.9707113 92.0484113 28.6895802 81.005982 28.6895802 81.005982 37.9707113 78.0125523 37.9707113"></polygon>
                <polygon id="Path" fill="#00387F" points="102.866109 16.7991632 115.254928 16.7991632 115.254928 19.3754202 105.855368 19.3754202 105.855368 26.0142364 113.494587 26.0142364 113.494587 28.5904934 105.855368 28.5904934 105.855368 35.3944543 115.753138 35.3944543 115.753138 37.9707113 102.866109 37.9707113"></polygon>
                <path d="M123.169834,33.3859028 C123.169834,33.3859028 125.432273,35.6611257 128.593033,35.6611257 C130.589303,35.6611257 132.286132,34.5400014 132.286132,32.5615467 C132.286132,27.9781266 121.972072,28.9673539 121.972072,22.4714276 C121.972072,19.174003 124.833392,16.5690377 128.859203,16.5690377 C132.818471,16.5690377 134.914554,18.6793894 134.914554,18.6793894 L133.550436,21.1194835 C133.550436,21.1194835 131.587438,19.3059 128.859203,19.3059 C126.596764,19.3059 124.999748,20.7237926 124.999748,22.4054791 C124.999748,26.7910537 135.313808,25.6039809 135.313808,32.4626239 C135.313808,35.7270742 132.785199,38.4309623 128.559762,38.4309623 C124.034884,38.4309623 121.506276,35.6611257 121.506276,35.6611257 L123.169834,33.3859028 Z" id="Path" fill="#00387F"></path>
                <polygon id="Path" fill="#00387F" points="147.650102 19.3754202 140.376569 19.3754202 140.376569 16.7991632 157.866109 16.7991632 157.866109 19.3754202 150.625638 19.3754202 150.625638 37.9707113 147.650102 37.9707113"></polygon>
                <polygon id="Path" fill="#00387F" points="163.849372 16.7991632 176.236904 16.7991632 176.236904 19.3754202 166.846356 19.3754202 166.846356 26.0142364 174.472014 26.0142364 174.472014 28.5904934 166.846356 28.5904934 166.846356 35.3944543 176.736402 35.3944543 176.736402 37.9707113 163.849372 37.9707113"></polygon>
                <polygon id="Path" fill="#9DA6B9" points="78.0125523 16.7991632 81.005982 16.7991632 81.005982 26.1133232 92.0484113 26.1133232 92.0484113 16.7991632 95.041841 16.7991632 95.041841 37.9707113 92.0484113 37.9707113 92.0484113 28.6895802 81.005982 28.6895802 81.005982 37.9707113 78.0125523 37.9707113"></polygon>
                <polygon id="Path" fill="#9DA6B9" points="102.866109 16.7991632 115.254928 16.7991632 115.254928 19.3754202 105.855368 19.3754202 105.855368 26.0142364 113.494587 26.0142364 113.494587 28.5904934 105.855368 28.5904934 105.855368 35.3944543 115.753138 35.3944543 115.753138 37.9707113 102.866109 37.9707113"></polygon>
                <path d="M123.169834,33.4113059 C123.169834,33.4113059 125.432273,35.6899657 128.593033,35.6899657 C130.589303,35.6899657 132.286132,34.5671479 132.286132,32.5857045 C132.286132,27.9953608 121.972072,28.9860825 121.972072,22.4803436 C121.972072,19.177938 124.833392,16.5690377 128.859203,16.5690377 C132.818471,16.5690377 134.914554,18.6825772 134.914554,18.6825772 L133.550436,21.1263573 C133.550436,21.1263573 131.587438,19.3100343 128.859203,19.3100343 C126.596764,19.3100343 124.999748,20.7300686 124.999748,22.3812714 C124.999748,26.7734708 135.313808,25.5846048 135.313808,32.4536083 C135.313808,35.7229898 132.785199,38.4309623 128.559762,38.4309623 C124.034884,38.4309623 121.506276,35.6569417 121.506276,35.6569417 L123.169834,33.4113059 Z" id="Path" fill="#9DA6B9"></path>
                <polygon id="Path" fill="#9DA6B9" points="147.650102 19.3754202 140.376569 19.3754202 140.376569 16.7991632 157.866109 16.7991632 157.866109 19.3754202 150.625638 19.3754202 150.625638 37.9707113 147.650102 37.9707113"></polygon>
                <polygon id="Path" fill="#9DA6B9" points="163.849372 16.7991632 176.236904 16.7991632 176.236904 19.3754202 166.846356 19.3754202 166.846356 26.0142364 174.472014 26.0142364 174.472014 28.5904934 166.846356 28.5904934 166.846356 35.3944543 176.736402 35.3944543 176.736402 37.9707113 163.849372 37.9707113"></polygon>
                <g id="Group">
                    <path d="M190.882858,27.0029101 C193.201476,27.0029101 194.62577,25.5447796 194.62577,23.1587479 C194.62577,21.6011995 194.029554,20.4744623 192.936491,19.8779544 C192.373398,19.5797004 191.677813,19.4140038 190.021657,19.4140038 L186.609975,19.4140038 L186.609975,27.0360494 L190.882858,27.0360494 L190.882858,27.0029101 Z M183.628894,16.7959968 L190.121026,16.7959968 C192.340275,16.7959968 193.267722,16.9616934 194.0958,17.2930867 C196.248803,18.0884306 197.673098,20.242487 197.673098,23.0261906 C197.673098,25.7436156 196.182557,28.0302293 193.863939,28.7592945 L193.863939,28.8255732 C193.863939,28.8255732 194.0958,29.0906878 194.493278,29.7866137 L198.998022,38.0383066 L195.619464,38.0383066 L191.147843,29.5877777 L186.609975,29.5877777 L186.609975,38.0383066 L183.628894,38.0383066 L183.628894,16.7959968 L183.628894,16.7959968 Z" id="Shape" fill="#9DA6B9"></path>
                    <path d="M18.3776411,54.8730856 C33.051184,50.0347436 32.7199527,40.1260843 32.7199527,40.1260843 L32.7199527,20.043651 L18.3776411,20.043651 L18.3776411,20.043651 L4.03532956,20.043651 L4.03532956,40.1260843 C4.03532956,40.1260843 3.70409834,50.0347436 18.3776411,54.8730856 L18.3776411,54.8730856 Z" id="Path" fill="#9DA6B9"></path>
                    <path d="M6.02271685,40.1260843 C6.02271685,40.2917809 6.05583997,42.412698 7.6457498,44.9975656 C9.16941338,47.4830153 12.1504943,50.4986942 18.3776411,52.6858899 C24.604788,50.4986942 27.5527458,47.4830153 29.1095325,44.9975656 C30.6994423,42.412698 30.7325654,40.2917809 30.7325654,40.1260843 L30.7325654,40.1260843 L30.7325654,40.092945 L30.7325654,21.9988714 L18.3776411,21.9988714 L18.3776411,21.9988714 L6.02271685,21.9988714 L6.02271685,40.1260843 L6.02271685,40.1260843 L6.02271685,40.1260843 Z" id="Path" fill="#9DA6B9"></path>
                    <path d="M14.237251,40.3911989 C14.237251,40.4243382 14.2703741,40.4243382 14.237251,40.3911989 C14.2703741,40.4243382 14.237251,40.4243382 14.237251,40.3911989" id="Path" fill="#FCCF00"></path>
                    <path d="M14.2703741,40.4243382 C14.2703741,40.4574776 14.2703741,40.4574776 14.2703741,40.4243382 C14.2703741,40.4574776 14.2703741,40.4574776 14.2703741,40.4243382" id="Path" fill="#FCCF00"></path>
                    <path d="M14.2041278,40.3580596 C14.2041278,40.3911989 14.2041278,40.3911989 14.2041278,40.3580596 C14.2041278,40.3911989 14.2041278,40.3580596 14.2041278,40.3580596" id="Path" fill="#FCCF00"></path>
                    <path d="M14.2703741,40.4574776 C14.3034972,40.4906169 14.3034972,40.4906169 14.2703741,40.4574776 C14.3034972,40.4906169 14.3034972,40.4574776 14.2703741,40.4574776" id="Path" fill="#FCCF00"></path>
                    <path d="M14.3034972,40.5237562 C14.3034972,40.5237562 14.3366203,40.5237562 14.3034972,40.5237562 C14.3366203,40.5237562 14.3034972,40.5237562 14.3034972,40.5237562" id="Path" fill="#FCCF00"></path>
                    <path d="M12.614218,40.3580596 C12.5148487,40.3580596 12.4154793,40.2586416 12.4154793,40.1592236 L12.8129567,40.1592236 C12.8129567,40.2586416 12.7135874,40.3580596 12.614218,40.3580596 M14.2041278,40.3580596 C14.2041278,40.3580596 14.3366203,40.3580596 14.4359897,40.4574776 C14.4359897,40.4574776 14.4028666,40.0598056 14.0716354,39.9603876 C14.0716354,39.9603876 14.2703741,39.7615517 14.1047585,39.4632977 C14.1047585,39.4632977 13.9391429,39.794691 13.1110648,39.794691 L12.5810949,39.794691 C12.3161099,39.794691 12.1173712,40.0266663 12.1173712,40.092945 L11.2892932,40.092945 C11.2892932,40.092945 11.2892932,40.3580596 11.5542781,40.3580596 C11.5542781,40.3580596 11.6205244,40.8551495 12.2167406,40.5568956 C12.2167406,40.5568956 12.0842481,40.8551495 11.3555394,40.6894529 C10.6268307,40.5568956 10.6599538,41.0871248 10.6599538,41.0871248 C10.6599538,41.0871248 10.7924463,40.7225922 11.3555394,40.9214282 C11.3555394,40.9214282 11.0243082,41.0208462 11.0574313,41.3191001 C11.0574313,41.3191001 11.3224163,41.1534035 11.3886625,41.1534035 C11.3886625,41.1534035 11.3886625,41.3522394 11.2892932,41.4516574 C11.2892932,41.4516574 11.6205244,41.3191001 12.1173712,41.3191001 C12.1173712,41.3191001 11.8192631,42.015026 10.7924463,42.1475833 C10.7924463,42.1475833 9.69938333,41.4847968 9.40127523,41.0539855 C9.40127523,41.0539855 9.53376772,40.8220102 9.33502899,40.6231742 C9.33502899,40.6231742 9.20253651,40.4574776 8.93755153,40.5237562 C8.93755153,40.5237562 8.70568968,40.1923629 8.44070471,40.3580596 C8.44070471,40.3580596 8.20884286,40.1923629 7.97698101,40.3911989 C7.97698101,40.3911989 8.24196598,40.3911989 8.30821223,40.5900349 C8.30821223,40.5900349 8.2750891,40.6563135 8.2750891,40.7888709 C8.2750891,40.7888709 8.07635038,40.6894529 7.87761165,40.9214282 C7.87761165,40.9214282 8.1094735,40.8882888 8.24196598,40.9877068 C8.24196598,40.9877068 8.17571974,41.2528215 8.5731972,41.3522394 C8.5731972,41.3522394 8.5731972,41.4516574 8.73881281,41.5179361 C8.73881281,41.5179361 8.73881281,42.015026 9.30190587,41.9818867 C9.33502899,42.114444 9.40127523,42.6446733 9.73250645,43.0423452 C9.73250645,43.0423452 9.73250645,42.7772306 9.89812206,42.7109519 C9.89812206,42.7109519 9.83187581,43.2080419 10.2955995,43.7051318 C10.2955995,43.7051318 10.2624764,43.4731565 10.4612151,43.3737385 C10.4612151,43.3737385 10.428092,44.0696644 11.0243082,44.5004757 C11.0243082,44.5004757 10.9249388,44.2353611 11.0905544,44.1359431 C11.1236775,44.1690824 11.5542781,44.8981476 11.0243082,45.4615162 C11.0243082,45.4615162 10.8918157,45.3952376 10.7262001,45.5277949 C10.7262001,45.5277949 10.6268307,45.4283769 10.4943382,45.4946555 C10.4943382,45.4946555 10.428092,45.2958196 10.2293533,45.2958196 C10.2293533,45.2958196 10.1299839,45.2958196 9.99749142,45.4283769 C9.99749142,45.4283769 9.73250645,45.4283769 9.66626021,45.7266309 C9.66626021,45.7266309 9.83187581,45.5940735 9.99749142,45.6272129 C9.99749142,45.6272129 10.0637377,45.8591882 10.3618458,45.7597702 C10.3618458,45.7597702 10.1962301,45.8923275 10.2624764,46.0911635 C10.2624764,46.0911635 10.3287226,45.8923275 10.5274614,45.9254668 C10.5274614,45.9254668 10.5937076,45.9917455 10.693077,45.9586062 C10.693077,45.9586062 10.6599538,46.1574421 10.8918157,46.2237208 C10.8918157,46.2237208 10.8255695,46.0248848 10.9580619,45.9254668 C10.9580619,45.9254668 11.0243082,46.0911635 11.2230469,46.0911635 C11.4217856,46.0911635 11.4549088,45.8923275 11.4549088,45.8923275 C11.4549088,45.8923275 11.7530169,45.8591882 11.9186325,45.6603522 C12.0842481,45.4615162 12.0842481,45.2958196 12.0842481,45.2958196 C12.0842481,45.2958196 12.1173712,45.2958196 12.1504943,45.3952376 C12.1504943,45.3952376 12.3161099,45.1301229 12.1836174,44.5998937 C12.1836174,44.5998937 12.3161099,44.6661723 12.4486024,44.931287 C12.4486024,44.931287 12.6473411,44.4673364 12.4486024,44.0033858 C12.5810949,44.0365251 12.9454492,44.1028037 13.4091729,43.9371071 C13.4091729,43.9371071 13.2104342,43.8708284 13.2104342,43.7714105 C13.2104342,43.7714105 14.0053891,43.6388531 14.4691128,43.4400172 L14.4691128,43.4400172 C14.6678515,43.3737385 14.8665903,43.2743205 15.0322059,43.1417632 C15.0322059,43.1417632 14.9659596,44.0696644 15.6284221,44.0696644 C15.6284221,44.0696644 15.6284221,44.6993117 14.8997134,44.7655903 C14.8997134,44.7655903 14.6678515,44.7655903 14.4691128,44.732451 C14.2703741,44.6993117 14.0716354,44.8650083 14.1047585,45.1301229 C14.1047585,45.1301229 13.8397735,45.2626802 13.9060198,45.5277949 C13.9060198,45.5277949 14.0385122,45.2958196 14.1710047,45.2958196 C14.1710047,45.2958196 14.3034972,45.3952376 14.4359897,45.3289589 C14.4359897,45.3289589 14.2041278,45.3952376 14.237251,45.6272129 C14.237251,45.6272129 14.3697435,45.4615162 14.5353591,45.4946555 C14.5353591,45.4946555 14.6678515,45.6603522 14.8997134,45.5277949 C14.8997134,45.5277949 14.9328365,45.6272129 15.0322059,45.6603522 C15.0322059,45.6603522 15.0322059,45.8591882 15.2971909,45.8923275 C15.2971909,45.8923275 15.1978215,45.7597702 15.2309446,45.6272129 C15.2309446,45.6272129 15.2971909,45.5609342 15.330314,45.5277949 C15.330314,45.5277949 15.5290527,45.5277949 15.5952989,45.3620982 C15.5952989,45.3620982 15.6284221,45.2295409 15.5290527,45.1632623 C15.5290527,45.1632623 16.423377,44.9644263 16.5227463,44.2353611 C16.5227463,44.2353611 16.6552388,44.4010577 16.5889926,44.5998937 C16.5889926,44.5998937 16.8208544,44.4010577 16.8539776,44.1028037 C16.8539776,44.1028037 16.9202238,44.1359431 16.9533469,44.2353611 C16.9533469,44.2353611 17.1189625,44.0365251 17.0195932,43.8708284 C17.0195932,43.8708284 17.781425,43.8045498 17.781425,44.434197 C17.781425,45.0638443 17.2183319,45.1964016 17.2183319,45.1964016 C17.2183319,45.1964016 16.8871007,44.9644263 16.7214851,45.2626802 C16.7214851,45.2626802 16.4565001,45.2626802 16.423377,45.5609342 C16.423377,45.5609342 16.6221157,45.3952376 16.7546082,45.4283769 C16.7546082,45.4283769 16.7877313,45.5940735 17.0527163,45.5609342 C17.0527163,45.5609342 16.8539776,45.6603522 16.9202238,45.8591882 C16.9202238,45.8591882 16.98647,45.7266309 17.1189625,45.7597702 C17.1189625,45.7597702 17.3177013,46.0248848 17.6158094,45.7929095 C17.6158094,45.7929095 17.6158094,45.9917455 17.8807943,46.0580241 C17.8807943,46.0580241 17.7483018,45.9254668 17.8476712,45.7929095 C17.8476712,45.7929095 18.2120255,45.8923275 18.7088724,43.9702464 L18.7088724,41.81619 L14.6347284,41.81619 C14.6347284,41.7830507 14.7009747,41.0208462 14.2041278,40.3580596" id="Shape" fill="#1A202C"></path>
                    <path d="M17.2183319,40.8220102 C17.251455,40.7557315 17.251455,40.6894529 17.251455,40.6231742 C17.251455,40.5568956 17.251455,40.4906169 17.2183319,40.4243382 L17.4501937,40.4243382 C17.4501937,40.5900349 17.51644,40.7225922 17.6158094,40.8220102 L17.2183319,40.8220102 L17.2183319,40.8220102 Z M16.6552388,40.8220102 L16.423377,40.8220102 L16.0921458,40.8220102 L15.8602839,40.8220102 C15.7609146,40.8220102 15.6615452,40.7225922 15.6615452,40.6231742 C15.6615452,40.5237562 15.7609146,40.4243382 15.8602839,40.4243382 L16.0590226,40.4243382 L16.0590226,40.4243382 L16.3902539,40.4243382 L16.6221157,40.4243382 C16.7214851,40.4243382 16.8208544,40.5237562 16.8208544,40.6231742 C16.8539776,40.7225922 16.7546082,40.8220102 16.6552388,40.8220102 M18.6757492,40.0266663 L18.5101336,40.0266663 L18.2782718,40.0266663 L17.8145481,40.0266663 C17.8476712,39.9603876 17.8807943,39.894109 17.8807943,39.8278303 C17.8807943,39.6621337 17.8145481,39.5627157 17.6820556,39.4632977 C17.6820556,39.4632977 17.6820556,39.496437 17.6820556,39.496437 C17.6820556,39.7615517 17.4501937,39.993527 17.1852088,39.993527 L17.0527163,39.993527 L16.6552388,39.993527 L16.0590226,39.993527 L15.8602839,39.993527 C15.5290527,39.993527 15.2640677,40.2586416 15.2640677,40.5900349 C15.2640677,40.9214282 15.5290527,41.1865428 15.8602839,41.1865428 L16.6552388,41.1865428 L18.6757492,41.1865428 L18.6757492,40.7888709 L18.5101336,40.7888709 L18.2782718,40.7888709 C18.0464099,40.7888709 17.8807943,40.6231742 17.8807943,40.3911989 L18.6757492,40.3911989 L18.6757492,40.0266663 Z" id="Shape" fill="#1A202C"></path>
                    <path d="M14.237251,32.3052027 C14.237251,32.338342 14.2703741,32.338342 14.237251,32.3052027 C14.2703741,32.338342 14.237251,32.338342 14.237251,32.3052027" id="Path" fill="#FCCF00"></path>
                    <path d="M14.2703741,32.338342 C14.2703741,32.338342 14.2703741,32.3714813 14.2703741,32.338342 L14.2703741,32.338342 Z" id="Path" fill="#FCCF00"></path>
                    <path d="M14.2041278,32.2720633 C14.2041278,32.2720633 14.2041278,32.3052027 14.2041278,32.2720633 C14.2041278,32.2720633 14.2041278,32.2720633 14.2041278,32.2720633" id="Path" fill="#FCCF00"></path>
                    <path d="M14.2703741,32.3714813 C14.3034972,32.3714813 14.3034972,32.4046207 14.2703741,32.3714813 C14.3034972,32.4046207 14.3034972,32.3714813 14.2703741,32.3714813" id="Path" fill="#FCCF00"></path>
                    <path d="M14.3034972,32.4046207 C14.3034972,32.43776 14.3366203,32.43776 14.3034972,32.4046207 C14.3366203,32.43776 14.3034972,32.43776 14.3034972,32.4046207" id="Path" fill="#FCCF00"></path>
                    <path d="M12.614218,32.2720633 C12.5148487,32.2720633 12.4154793,32.1726454 12.4154793,32.0732274 L12.8129567,32.0732274 C12.8129567,32.1726454 12.7135874,32.2720633 12.614218,32.2720633 M14.2041278,32.2720633 C14.2041278,32.2720633 14.3366203,32.2720633 14.4359897,32.3714813 C14.4359897,32.3714813 14.4028666,31.9738094 14.0716354,31.8743914 C14.0716354,31.8743914 14.2703741,31.6755554 14.1047585,31.3773015 C14.1047585,31.3773015 13.9391429,31.7086948 13.1110648,31.7086948 L12.5810949,31.7086948 C12.3161099,31.7086948 12.1173712,31.9406701 12.1173712,32.0069487 L11.2892932,32.0069487 C11.2892932,32.0069487 11.2892932,32.2720633 11.5542781,32.2720633 C11.5542781,32.2720633 11.6205244,32.7691533 12.2167406,32.4708993 C12.2167406,32.4708993 12.0842481,32.7691533 11.3555394,32.6034566 C10.6268307,32.4708993 10.6599538,33.0011286 10.6599538,33.0011286 C10.6599538,33.0011286 10.7924463,32.636596 11.3555394,32.8354319 C11.3555394,32.8354319 11.0243082,32.9348499 11.0574313,33.2331039 C11.0574313,33.2331039 11.3224163,33.0674072 11.3886625,33.0674072 C11.3886625,33.0674072 11.3886625,33.2662432 11.2892932,33.3656612 C11.2892932,33.3656612 11.6205244,33.2331039 12.1173712,33.2331039 C12.1173712,33.2331039 11.8192631,33.9290298 10.7924463,34.0615871 C10.7924463,34.0615871 9.69938333,33.3988005 9.40127523,32.9679893 C9.40127523,32.9679893 9.53376772,32.736014 9.33502899,32.537178 C9.33502899,32.537178 9.20253651,32.3714813 8.93755153,32.43776 C8.93755153,32.43776 8.70568968,32.1063667 8.44070471,32.238924 C8.44070471,32.238924 8.20884286,32.0732274 7.97698101,32.2720633 C7.97698101,32.2720633 8.24196598,32.2720633 8.30821223,32.4708993 C8.30821223,32.4708993 8.2750891,32.537178 8.2750891,32.6697353 C8.2750891,32.6697353 8.07635038,32.5703173 7.87761165,32.8022926 C7.87761165,32.8022926 8.1094735,32.7691533 8.24196598,32.8685713 C8.24196598,32.8685713 8.17571974,33.1336859 8.5731972,33.2331039 C8.5731972,33.2331039 8.5731972,33.3325219 8.73881281,33.3988005 C8.73881281,33.3988005 8.73881281,33.8958905 9.30190587,33.8627511 C9.33502899,33.9953084 9.40127523,34.5255377 9.73250645,34.9232097 C9.73250645,34.9232097 9.73250645,34.658095 9.89812206,34.5918164 C9.89812206,34.5918164 9.83187581,35.0889063 10.2955995,35.5859962 C10.2955995,35.5859962 10.2624764,35.3540209 10.4612151,35.2546029 C10.4612151,35.2546029 10.428092,35.9505288 11.0243082,36.3813401 C11.0243082,36.3813401 10.9249388,36.1162255 11.0905544,36.0168075 C11.1236775,36.0499468 11.5542781,36.7790121 11.0243082,37.3423807 C11.0243082,37.3423807 10.8918157,37.276102 10.7262001,37.4086593 C10.7262001,37.4086593 10.6268307,37.3092413 10.4943382,37.37552 C10.4943382,37.37552 10.428092,37.176684 10.2293533,37.176684 C10.2293533,37.176684 10.1299839,37.176684 9.99749142,37.3092413 C9.99749142,37.3092413 9.73250645,37.3092413 9.66626021,37.6074953 C9.66626021,37.6074953 9.83187581,37.474938 9.99749142,37.5080773 C9.99749142,37.5080773 10.0637377,37.7400526 10.3618458,37.6406346 C10.3618458,37.6406346 10.1962301,37.7731919 10.2624764,37.9720279 C10.2624764,37.9720279 10.3287226,37.7731919 10.5274614,37.8063313 C10.5274614,37.8063313 10.5937076,37.8726099 10.693077,37.8394706 C10.693077,37.8394706 10.6599538,38.0383066 10.8918157,38.1045852 C10.8918157,38.1045852 10.8255695,37.9057492 10.9580619,37.8063313 C10.9580619,37.8063313 11.0243082,37.9720279 11.2230469,37.9720279 C11.4217856,37.9720279 11.4549088,37.7731919 11.4549088,37.7731919 C11.4549088,37.7731919 11.7530169,37.7400526 11.9186325,37.5412166 C12.0842481,37.3423807 12.0842481,37.176684 12.0842481,37.176684 C12.0842481,37.176684 12.1173712,37.176684 12.1504943,37.276102 C12.1504943,37.276102 12.3161099,37.0109874 12.1836174,36.4807581 C12.1836174,36.4807581 12.3161099,36.5470368 12.4486024,36.8121514 C12.4486024,36.8121514 12.6473411,36.3482008 12.4486024,35.8842502 C12.5810949,35.9173895 12.9454492,35.9836682 13.4091729,35.8179715 C13.4091729,35.8179715 13.2104342,35.7516929 13.2104342,35.6522749 C13.2104342,35.6522749 14.0053891,35.5197176 14.4691128,35.3208816 L14.4691128,35.3208816 C14.6678515,35.2546029 14.8665903,35.155185 15.0322059,35.0226276 C15.0322059,35.0226276 14.9659596,35.9505288 15.6284221,35.9505288 C15.6284221,35.9505288 15.6284221,36.5801761 14.8997134,36.6464548 C14.8997134,36.6464548 14.6678515,36.6464548 14.4691128,36.6133154 C14.2703741,36.5801761 14.0716354,36.7458727 14.1047585,37.0109874 C14.1047585,37.0109874 13.8397735,37.1435447 13.9060198,37.4086593 C13.9060198,37.4086593 14.0385122,37.176684 14.1710047,37.176684 C14.1710047,37.176684 14.3034972,37.276102 14.4359897,37.2098233 C14.4359897,37.2098233 14.2041278,37.276102 14.237251,37.5080773 C14.237251,37.5080773 14.3697435,37.3423807 14.5353591,37.37552 C14.5353591,37.37552 14.6678515,37.5412166 14.8997134,37.4086593 C14.8997134,37.4086593 14.9328365,37.5080773 15.0322059,37.5412166 C15.0322059,37.5412166 15.0322059,37.7400526 15.2971909,37.7731919 C15.2971909,37.7731919 15.1978215,37.6406346 15.2309446,37.5080773 C15.2309446,37.5080773 15.2971909,37.4417986 15.330314,37.4086593 C15.330314,37.4086593 15.5290527,37.4086593 15.5952989,37.2429627 C15.5952989,37.2429627 15.6284221,37.1104054 15.5290527,37.0441267 C15.5290527,37.0441267 16.423377,36.8452907 16.5227463,36.1162255 C16.5227463,36.1162255 16.6552388,36.2819221 16.5889926,36.4807581 C16.5889926,36.4807581 16.8208544,36.2819221 16.8539776,35.9836682 C16.8539776,35.9836682 16.9202238,36.0168075 16.9533469,36.1162255 C16.9533469,36.1162255 17.1189625,35.9173895 17.0195932,35.7516929 C17.0195932,35.7516929 17.781425,35.6854142 17.781425,36.3150615 C17.781425,36.9447087 17.2183319,37.077266 17.2183319,37.077266 C17.2183319,37.077266 16.8871007,36.8452907 16.7214851,37.1435447 C16.7214851,37.1435447 16.4565001,37.1435447 16.423377,37.4417986 C16.423377,37.4417986 16.6221157,37.276102 16.7546082,37.3092413 C16.7546082,37.3092413 16.7877313,37.474938 17.0527163,37.4417986 C17.0527163,37.4417986 16.8539776,37.5412166 16.9202238,37.7400526 C16.9202238,37.7400526 16.98647,37.6074953 17.1189625,37.6406346 C17.1189625,37.6406346 17.3177013,37.9057492 17.6158094,37.6737739 C17.6158094,37.6737739 17.6158094,37.8726099 17.8807943,37.9388886 C17.8807943,37.9388886 17.7483018,37.8063313 17.8476712,37.6737739 C17.8476712,37.6737739 18.2120255,37.7731919 18.7088724,35.8511109 L18.7088724,33.6970545 L14.6347284,33.6970545 C14.6347284,33.6970545 14.7009747,32.9348499 14.2041278,32.2720633" id="Shape" fill="#1A202C"></path>
                    <path d="M17.2183319,32.736014 C17.251455,32.6697353 17.251455,32.6034566 17.251455,32.537178 C17.251455,32.4708993 17.251455,32.4046207 17.2183319,32.338342 L17.4501937,32.338342 C17.4501937,32.5040387 17.51644,32.636596 17.6158094,32.736014 L17.2183319,32.736014 L17.2183319,32.736014 Z M16.6552388,32.736014 L16.423377,32.736014 L16.0921458,32.736014 L15.8602839,32.736014 C15.7609146,32.736014 15.6615452,32.636596 15.6615452,32.537178 C15.6615452,32.43776 15.7609146,32.338342 15.8602839,32.338342 L16.0590226,32.338342 L16.0590226,32.338342 L16.3902539,32.338342 L16.6221157,32.338342 C16.7214851,32.338342 16.8208544,32.43776 16.8208544,32.537178 C16.8539776,32.636596 16.7546082,32.736014 16.6552388,32.736014 M18.6757492,31.9406701 L18.5101336,31.9406701 L18.2782718,31.9406701 L17.8145481,31.9406701 C17.8476712,31.8743914 17.8807943,31.8081127 17.8807943,31.7418341 C17.8807943,31.5761374 17.8145481,31.4767195 17.6820556,31.3773015 C17.6820556,31.3773015 17.6820556,31.4104408 17.6820556,31.4104408 C17.6820556,31.6755554 17.4501937,31.9075307 17.1852088,31.9075307 L17.0527163,31.9075307 L16.6552388,31.9075307 L16.0590226,31.9075307 L15.8602839,31.9075307 C15.5290527,31.9075307 15.2640677,32.1726454 15.2640677,32.5040387 C15.2640677,32.8354319 15.5290527,33.1005466 15.8602839,33.1005466 L16.6552388,33.1005466 L18.6757492,33.1005466 L18.6757492,32.7028746 L18.5101336,32.7028746 L18.2782718,32.7028746 C18.0464099,32.7028746 17.8807943,32.537178 17.8807943,32.3052027 L18.6757492,32.3052027 L18.6757492,31.9406701 Z" id="Shape" fill="#1A202C"></path>
                    <path d="M14.237251,24.2192064 C14.237251,24.2192064 14.237251,24.2523458 14.237251,24.2192064 C14.237251,24.2192064 14.237251,24.2192064 14.237251,24.2192064" id="Path" fill="#FCCF00"></path>
                    <path d="M14.237251,24.2523458 C14.237251,24.2523458 14.2703741,24.2523458 14.237251,24.2523458 C14.2703741,24.2523458 14.237251,24.2523458 14.237251,24.2523458" id="Path" fill="#FCCF00"></path>
                    <path d="M14.2703741,24.2854851 C14.3034972,24.3186244 14.3034972,24.3186244 14.2703741,24.2854851 C14.3034972,24.3186244 14.3034972,24.3186244 14.2703741,24.2854851" id="Path" fill="#FCCF00"></path>
                    <path d="M14.3034972,24.3517638 C14.3034972,24.3517638 14.3366203,24.3517638 14.3034972,24.3517638 C14.3366203,24.3517638 14.3034972,24.3517638 14.3034972,24.3517638" id="Path" fill="#FCCF00"></path>
                    <path d="M14.3034972,24.3186244 C14.3034972,24.3186244 14.3034972,24.3517638 14.3034972,24.3186244 C14.3034972,24.3517638 14.3034972,24.3186244 14.3034972,24.3186244" id="Path" fill="#FCCF00"></path>
                    <path d="M12.614218,24.1860671 C12.5148487,24.1860671 12.4154793,24.0866491 12.4154793,23.9872311 L12.8129567,23.9872311 C12.8129567,24.1197885 12.7135874,24.1860671 12.614218,24.1860671 M14.2041278,24.2192064 C14.2041278,24.2192064 14.3366203,24.2192064 14.4359897,24.3186244 C14.4359897,24.3186244 14.4028666,23.9209525 14.0716354,23.8215345 C14.0716354,23.8215345 14.2703741,23.6226985 14.1047585,23.3244446 C14.1047585,23.3244446 13.9391429,23.6558379 13.1110648,23.6558379 L12.5810949,23.6558379 C12.3161099,23.6558379 12.1173712,23.8878132 12.1173712,23.9540918 L11.2892932,23.9540918 C11.2892932,23.9540918 11.2892932,24.2192064 11.5542781,24.2192064 C11.5542781,24.2192064 11.6205244,24.7162964 12.2167406,24.4180424 C12.2167406,24.4180424 12.0842481,24.7162964 11.3555394,24.5505997 C10.6268307,24.4180424 10.6599538,24.9482717 10.6599538,24.9482717 C10.6599538,24.9482717 10.7924463,24.5837391 11.3555394,24.782575 C11.3555394,24.782575 11.0243082,24.881993 11.0574313,25.180247 C11.0574313,25.180247 11.3224163,25.0145503 11.3886625,25.0145503 C11.3886625,25.0145503 11.3886625,25.2133863 11.2892932,25.3128043 C11.2892932,25.3128043 11.6205244,25.180247 12.1173712,25.180247 C12.1173712,25.180247 11.8192631,25.8761729 10.7924463,26.0087302 C10.7924463,26.0087302 9.69938333,25.3459436 9.40127523,24.9151324 C9.40127523,24.9151324 9.53376772,24.6831571 9.33502899,24.4843211 C9.33502899,24.4843211 9.20253651,24.3186244 8.93755153,24.3849031 C8.93755153,24.3849031 8.70568968,24.0535098 8.44070471,24.1860671 C8.44070471,24.1860671 8.20884286,24.0203705 7.97698101,24.2192064 C7.97698101,24.2192064 8.24196598,24.2192064 8.30821223,24.4180424 C8.30821223,24.4180424 8.2750891,24.4843211 8.2750891,24.6168784 C8.2750891,24.6168784 8.07635038,24.5174604 7.87761165,24.7494357 C7.87761165,24.7494357 8.1094735,24.7162964 8.24196598,24.8157144 C8.24196598,24.8157144 8.17571974,25.080829 8.5731972,25.180247 C8.5731972,25.180247 8.5731972,25.279665 8.73881281,25.3459436 C8.73881281,25.3459436 8.73881281,25.8430336 9.30190587,25.8098942 C9.33502899,25.9424515 9.40127523,26.4726808 9.73250645,26.8703528 C9.73250645,26.8703528 9.73250645,26.6052381 9.89812206,26.5389595 C9.89812206,26.5389595 9.83187581,27.0360494 10.2955995,27.5331393 C10.2955995,27.5331393 10.2624764,27.301164 10.4612151,27.201746 C10.4612151,27.201746 10.428092,27.8976719 11.0243082,28.3284832 C11.0243082,28.3284832 10.9249388,28.0633686 11.0905544,27.9639506 C11.1236775,27.9970899 11.5542781,28.7261552 11.0243082,29.2895238 C11.0243082,29.2895238 10.8918157,29.2232451 10.7262001,29.3558024 C10.7262001,29.3558024 10.6268307,29.2563844 10.4943382,29.3226631 C10.4943382,29.3226631 10.428092,29.1238271 10.2293533,29.1238271 C10.2293533,29.1238271 10.1299839,29.1238271 9.99749142,29.2563844 C9.99749142,29.2563844 9.73250645,29.2563844 9.66626021,29.5546384 C9.66626021,29.5546384 9.83187581,29.4220811 9.99749142,29.4552204 C9.99749142,29.4552204 10.0637377,29.6871957 10.3618458,29.5877777 C10.3618458,29.5877777 10.1962301,29.720335 10.2624764,29.919171 C10.2624764,29.919171 10.3287226,29.720335 10.5274614,29.7534744 C10.5274614,29.7534744 10.5937076,29.819753 10.693077,29.7866137 C10.693077,29.7866137 10.6599538,29.9854497 10.8918157,30.0517283 C10.8918157,30.0517283 10.8255695,29.8528923 10.9580619,29.7534744 C10.9580619,29.7534744 11.0243082,29.919171 11.2230469,29.919171 C11.4217856,29.919171 11.4549088,29.720335 11.4549088,29.720335 C11.4549088,29.720335 11.7530169,29.6871957 11.9186325,29.4883597 C12.0842481,29.2895238 12.0842481,29.1238271 12.0842481,29.1238271 C12.0842481,29.1238271 12.1173712,29.1238271 12.1504943,29.2232451 C12.1504943,29.2232451 12.3161099,28.9581305 12.1836174,28.4279012 C12.1836174,28.4279012 12.3161099,28.4941799 12.4486024,28.7592945 C12.4486024,28.7592945 12.6473411,28.2953439 12.4486024,27.8313933 C12.5810949,27.8645326 12.9454492,27.9308113 13.4091729,27.7651146 C13.4091729,27.7651146 13.2104342,27.698836 13.2104342,27.599418 C13.2104342,27.599418 14.0053891,27.4668607 14.4691128,27.2680247 L14.4691128,27.2680247 C14.6678515,27.201746 14.8665903,27.1023281 15.0322059,26.9697707 C15.0322059,26.9697707 14.9659596,27.8976719 15.6284221,27.8976719 C15.6284221,27.8976719 15.6284221,28.5273192 14.8997134,28.5935979 C14.8997134,28.5935979 14.6678515,28.5935979 14.4691128,28.5604585 C14.2703741,28.5273192 14.0716354,28.6930158 14.1047585,28.9581305 C14.1047585,28.9581305 13.8397735,29.0906878 13.9060198,29.3558024 C13.9060198,29.3558024 14.0385122,29.1238271 14.1710047,29.1238271 C14.1710047,29.1238271 14.3034972,29.2232451 14.4359897,29.1569664 C14.4359897,29.1569664 14.2041278,29.2232451 14.237251,29.4552204 C14.237251,29.4552204 14.3697435,29.2895238 14.5353591,29.3226631 C14.5353591,29.3226631 14.6678515,29.4883597 14.8997134,29.3558024 C14.8997134,29.3558024 14.9328365,29.4552204 15.0322059,29.4883597 C15.0322059,29.4883597 15.0322059,29.6871957 15.2971909,29.720335 C15.2971909,29.720335 15.1978215,29.5877777 15.2309446,29.4552204 C15.2309446,29.4552204 15.2971909,29.3889417 15.330314,29.3558024 C15.330314,29.3558024 15.5290527,29.3558024 15.5952989,29.1901058 C15.5952989,29.1901058 15.6284221,29.0575485 15.5290527,28.9912698 C15.5290527,28.9912698 16.423377,28.7924338 16.5227463,28.0633686 C16.5227463,28.0633686 16.6552388,28.2290652 16.5889926,28.4279012 C16.5889926,28.4279012 16.8208544,28.2290652 16.8539776,27.9308113 C16.8539776,27.9308113 16.9202238,27.9639506 16.9533469,28.0633686 C16.9533469,28.0633686 17.1189625,27.8645326 17.0195932,27.698836 C17.0195932,27.698836 17.781425,27.6325573 17.781425,28.2622046 C17.781425,28.8918518 17.2183319,29.0244091 17.2183319,29.0244091 C17.2183319,29.0244091 16.8871007,28.7924338 16.7214851,29.0906878 C16.7214851,29.0906878 16.4565001,29.0906878 16.423377,29.3889417 C16.423377,29.3889417 16.6221157,29.2232451 16.7546082,29.2563844 C16.7546082,29.2563844 16.7877313,29.4220811 17.0527163,29.3889417 C17.0527163,29.3889417 16.8539776,29.4883597 16.9202238,29.6871957 C16.9202238,29.6871957 16.98647,29.5546384 17.1189625,29.5877777 C17.1189625,29.5877777 17.3177013,29.8528923 17.6158094,29.620917 C17.6158094,29.620917 17.6158094,29.819753 17.8807943,29.8860317 C17.8807943,29.8860317 17.7483018,29.7534744 17.8476712,29.620917 C17.8476712,29.620917 18.2120255,29.720335 18.7088724,27.798254 L18.7088724,25.6441976 L14.6347284,25.6441976 C14.6347284,25.6110583 14.7009747,24.881993 14.2041278,24.2192064" id="Shape" fill="#1A202C"></path>
                    <path d="M17.2183319,24.6500177 C17.251455,24.5837391 17.251455,24.5174604 17.251455,24.4511817 C17.251455,24.3849031 17.251455,24.3186244 17.2183319,24.2523458 L17.4501937,24.2523458 C17.4501937,24.4180424 17.51644,24.5505997 17.6158094,24.6500177 L17.2183319,24.6500177 L17.2183319,24.6500177 Z M16.6552388,24.6500177 L16.423377,24.6500177 L16.0921458,24.6500177 L15.8602839,24.6500177 C15.7609146,24.6500177 15.6615452,24.5505997 15.6615452,24.4511817 C15.6615452,24.3517638 15.7609146,24.2523458 15.8602839,24.2523458 L16.0590226,24.2523458 L16.0590226,24.2523458 L16.3902539,24.2523458 L16.6221157,24.2523458 C16.7214851,24.2523458 16.8208544,24.3517638 16.8208544,24.4511817 C16.8539776,24.5837391 16.7546082,24.6500177 16.6552388,24.6500177 M18.6757492,23.8546738 L18.5101336,23.8546738 L18.2782718,23.8546738 L17.8145481,23.8546738 C17.8476712,23.7883952 17.8807943,23.7221165 17.8807943,23.6558379 C17.8807943,23.4901412 17.8145481,23.3907232 17.6820556,23.2913052 C17.6820556,23.2913052 17.6820556,23.3244446 17.6820556,23.3244446 C17.6820556,23.5895592 17.4501937,23.8215345 17.1852088,23.8215345 L17.0527163,23.8215345 L16.6552388,23.8215345 L16.0590226,23.8215345 L15.8602839,23.8215345 C15.5290527,23.8215345 15.2640677,24.0866491 15.2640677,24.4180424 C15.2640677,24.7494357 15.5290527,25.0145503 15.8602839,25.0145503 L16.6552388,25.0145503 L18.6757492,25.0145503 L18.6757492,24.6168784 L18.5101336,24.6168784 L18.2782718,24.6168784 C18.0464099,24.6168784 17.8807943,24.4511817 17.8807943,24.2192064 L18.6757492,24.2192064 L18.6757492,23.8546738 Z" id="Shape" fill="#1A202C"></path>
                    <path d="M18.344518,52.7190292 C24.5716649,50.5318335 27.5196227,47.5161546 29.0764094,45.0307049 C30.6663192,42.4458373 30.6994423,40.3249203 30.6994423,40.1592236 L30.6994423,40.1260843 L30.6994423,22.0320107 L18.3776411,22.0320107" id="Shape" fill="#1A202C"></path>
                    <path d="M21.3587221,27.0691887 C21.2593527,27.0691887 21.1931065,27.1023281 21.1268602,27.1023281 C20.9612446,27.1023281 20.7625059,27.0691887 20.7625059,27.0691887 C21.1599833,27.6325573 23.0480013,29.0906878 23.0480013,29.0906878 L23.0480013,30.1842856 L22.0211845,32.537178 L22.0211845,32.537178 C22.0543076,32.5703173 22.7167701,33.1999646 24.5716649,33.1999646 C24.5716649,33.1999646 24.5716649,33.1999646 24.5716649,33.1999646 C24.5716649,33.1999646 24.5716649,33.1999646 24.5716649,33.1999646 C26.4265597,33.1999646 27.0890221,32.537178 27.1221452,32.537178 L27.1221452,32.537178 L27.1221452,32.537178 L26.0953284,30.1842856 L26.0953284,29.0906878 C26.0953284,29.0906878 27.9833464,27.599418 28.3808238,27.0691887 C28.3808238,27.0691887 28.1820851,27.1023281 28.0164695,27.1023281 C27.9502232,27.1023281 27.883977,27.1023281 27.7846076,27.0691887 C28.0827157,26.9034921 28.3477007,26.6383775 28.4801932,26.1744268 L28.5133163,26.0750089 L28.4139469,26.0750089 C28.4139469,26.0750089 27.7183614,26.1412875 27.4533764,26.5720988 C27.4533764,26.5389595 27.4533764,26.4726808 27.4533764,26.4395415 C27.4533764,26.3732628 27.5196227,26.1081482 27.5196227,26.0418695 C27.5196227,26.0418695 27.5196227,26.0418695 27.5196227,26.0418695 C27.5196227,26.0418695 27.4864995,26.0750089 27.4533764,26.0750089 C27.2546377,26.1744268 26.8240371,26.4726808 26.5590521,26.8372134 C26.5590521,26.8372134 26.8571602,26.4395415 27.0227758,25.7767549 C27.055899,25.7104762 27.055899,25.6441976 27.055899,25.6441976 L26.9896527,25.6773369 C26.9234065,25.7104762 26.7577909,25.8098942 26.4928059,25.8761729 C26.6584215,25.6441976 26.790914,25.379083 26.790914,25.0145503 C26.790914,24.9482717 26.790914,24.881993 26.7577909,24.782575 L26.7577909,24.6831571 L26.6915446,24.7162964 C26.6915446,24.7162964 26.0953284,25.0476897 25.9959591,25.5779189 C25.9959591,25.5447796 25.962836,25.5116403 25.962836,25.4785009 C25.9297128,25.4122223 25.9297128,25.3459436 25.8965897,25.279665 C25.8965897,25.2133863 25.8634666,25.1139683 25.8634666,25.080829 C25.8634666,25.080829 25.4659891,25.5779189 25.3003735,26.1744268 C25.3003735,26.1744268 25.4659891,25.6441976 25.2672504,24.9151324 C25.2672504,24.9151324 25.2672504,24.9151324 25.2672504,24.9151324 L25.2341273,24.9482717 C25.2010042,25.0145503 25.1016348,25.1471077 24.9028961,25.3128043 C24.9360192,25.2465256 24.9360192,25.180247 24.9360192,25.080829 C24.9360192,24.6500177 24.6379111,24.2523458 24.6379111,24.2192064 L24.5716649,24.1529278 L24.5054186,24.2192064 C24.5054186,24.2192064 24.2073105,24.6500177 24.2073105,25.080829 C24.2073105,25.1471077 24.2073105,25.2133863 24.2404336,25.3128043 C24.0416949,25.1471077 23.9754487,25.0145503 23.9092024,24.9482717 L23.8760793,24.9151324 C23.8760793,24.9151324 23.8760793,24.9151324 23.8760793,24.9151324 C23.6773406,25.6441976 23.8429562,26.1744268 23.8429562,26.1744268 C23.6773406,25.5779189 23.2798631,25.080829 23.2798631,25.080829 C23.24674,25.1471077 23.24674,25.2465256 23.24674,25.279665 C23.2136169,25.379083 23.2136169,25.4122223 23.1804938,25.4785009 C23.1804938,25.5116403 23.1473706,25.5447796 23.1473706,25.5779189 C23.0480013,25.080829 22.4517851,24.7162964 22.4517851,24.7162964 L22.3855388,24.6831571 L22.3855388,24.782575 C22.3855388,24.8488537 22.3524157,24.9482717 22.3524157,25.0145503 C22.3524157,25.379083 22.4849082,25.6773369 22.6505238,25.8761729 C22.3855388,25.8098942 22.2530464,25.7104762 22.153677,25.6773369 L22.0874307,25.6441976 C22.0874307,25.6441976 22.0874307,25.6773369 22.1205539,25.7767549 C22.2861695,26.4064021 22.5842776,26.8372134 22.5842776,26.8372134 C22.2861695,26.4726808 21.8555689,26.2075662 21.6899533,26.0750089 C21.6568302,26.0418695 21.623707,26.0418695 21.623707,26.0418695 C21.623707,26.0418695 21.623707,26.0418695 21.623707,26.0418695 C21.6568302,26.1081482 21.6899533,26.3732628 21.6899533,26.4395415 C21.6899533,26.4726808 21.6899533,26.5389595 21.6899533,26.5720988 C21.3918452,26.1412875 20.7293828,26.0750089 20.7293828,26.0750089 L20.6300134,26.0750089 L20.6631365,26.1744268 C20.795629,26.6383775 21.0937371,26.9034921 21.3587221,27.0691887" id="Path" fill="#9DA6B9"></path>
                    <path d="M21.3587221,38.3034212 C21.2593527,38.3034212 21.1931065,38.3365605 21.1268602,38.3365605 C20.9612446,38.3365605 20.7625059,38.3034212 20.7625059,38.3034212 C21.1599833,38.8667898 23.0480013,40.3249203 23.0480013,40.3249203 L23.0480013,41.4185181 L22.0211845,43.7714105 L22.0211845,43.7714105 C22.0543076,43.8045498 22.7167701,44.434197 24.5716649,44.434197 C24.5716649,44.434197 24.5716649,44.434197 24.5716649,44.434197 C24.5716649,44.434197 24.5716649,44.434197 24.5716649,44.434197 C26.4265597,44.434197 27.0890221,43.7714105 27.1221452,43.7714105 L27.1221452,43.7714105 L27.1221452,43.7714105 L26.0953284,41.4185181 L26.0953284,40.3249203 C26.0953284,40.3249203 27.9833464,38.8336505 28.3808238,38.3034212 C28.3808238,38.3034212 28.1820851,38.3365605 28.0164695,38.3365605 C27.9502232,38.3365605 27.883977,38.3365605 27.7846076,38.3034212 C28.0827157,38.1377246 28.3477007,37.8726099 28.4801932,37.4086593 L28.5133163,37.3092413 L28.4139469,37.3092413 C28.4139469,37.3092413 27.7183614,37.37552 27.4533764,37.8063313 C27.4533764,37.7731919 27.4533764,37.7069133 27.4533764,37.6737739 C27.4533764,37.6074953 27.5196227,37.3423807 27.5196227,37.276102 C27.5196227,37.276102 27.5196227,37.276102 27.5196227,37.276102 C27.5196227,37.276102 27.4864995,37.3092413 27.4533764,37.3092413 C27.2546377,37.4086593 26.8240371,37.7069133 26.5590521,38.0714459 C26.5590521,38.0714459 26.8571602,37.6737739 27.0227758,37.0109874 C27.055899,36.9447087 27.055899,36.8784301 27.055899,36.8784301 L26.9896527,36.9115694 C26.9234065,36.9447087 26.7577909,37.0441267 26.4928059,37.1104054 C26.6584215,36.8784301 26.790914,36.6133154 26.790914,36.2487828 C26.790914,36.1825042 26.790914,36.1162255 26.7577909,36.0168075 L26.7577909,35.9173895 L26.6915446,35.9505288 C26.6915446,35.9505288 26.0953284,36.2819221 25.9959591,36.8121514 C25.9959591,36.7790121 25.962836,36.7458727 25.962836,36.7127334 C25.9297128,36.6464548 25.9297128,36.5801761 25.8965897,36.5138974 C25.8965897,36.4476188 25.8634666,36.3482008 25.8634666,36.3150615 C25.8634666,36.3150615 25.4659891,36.8121514 25.3003735,37.4086593 C25.3003735,37.4086593 25.4659891,36.8784301 25.2672504,36.1493648 C25.2672504,36.1493648 25.2672504,36.1493648 25.2672504,36.1493648 L25.2341273,36.1825042 C25.2010042,36.2487828 25.1016348,36.3813401 24.9028961,36.5470368 C24.9360192,36.4807581 24.9360192,36.4144795 24.9360192,36.3150615 C24.9360192,35.8842502 24.6379111,35.4865782 24.6379111,35.4534389 L24.5716649,35.3871603 L24.5054186,35.4534389 C24.5054186,35.4534389 24.2073105,35.8842502 24.2073105,36.3150615 C24.2073105,36.3813401 24.2073105,36.4476188 24.2404336,36.5470368 C24.0416949,36.3813401 23.9754487,36.2487828 23.9092024,36.1825042 L23.8760793,36.1493648 C23.8760793,36.1493648 23.8760793,36.1493648 23.8760793,36.1493648 C23.6773406,36.8784301 23.8429562,37.4086593 23.8429562,37.4086593 C23.6773406,36.8121514 23.2798631,36.3150615 23.2798631,36.3150615 C23.24674,36.3813401 23.24674,36.4807581 23.24674,36.5138974 C23.2136169,36.6133154 23.2136169,36.6464548 23.1804938,36.7127334 C23.1804938,36.7458727 23.1473706,36.7790121 23.1473706,36.8121514 C23.0480013,36.3150615 22.4517851,35.9505288 22.4517851,35.9505288 L22.3855388,35.9173895 L22.3855388,36.0168075 C22.3855388,36.0830862 22.3524157,36.1825042 22.3524157,36.2487828 C22.3524157,36.6133154 22.4849082,36.9115694 22.6505238,37.1104054 C22.3855388,37.0441267 22.2530464,36.9447087 22.153677,36.9115694 L22.0874307,36.8784301 C22.0874307,36.8784301 22.0874307,36.9115694 22.1205539,37.0109874 C22.2861695,37.6406346 22.5842776,38.0714459 22.5842776,38.0714459 C22.2861695,37.7069133 21.8555689,37.4417986 21.6899533,37.3092413 C21.6568302,37.276102 21.623707,37.276102 21.623707,37.276102 C21.623707,37.276102 21.623707,37.276102 21.623707,37.276102 C21.6568302,37.3423807 21.6899533,37.6074953 21.6899533,37.6737739 C21.6899533,37.7069133 21.6899533,37.7731919 21.6899533,37.8063313 C21.3918452,37.37552 20.7293828,37.3092413 20.7293828,37.3092413 L20.6300134,37.3092413 L20.6631365,37.4086593 C20.795629,37.8726099 21.0937371,38.1377246 21.3587221,38.3034212" id="Path" fill="#9DA6B9"></path>
                    <path d="M34.2436163,4.30246983 C33.4817845,5.16409238 34.7735863,6.65536217 34.0448776,6.82105882 C34.0448776,6.82105882 33.7798926,6.88733747 33.614277,5.82687895 C33.4817845,4.99839573 33.4486614,4.20305184 32.0906134,3.37456862 C32.0906134,3.37456862 31.3287816,4.89897775 33.4486614,8.27918928 C33.4486614,8.27918928 32.7530759,7.68268137 32.3224753,7.25187009 C31.9249978,6.85419815 30.4344574,5.09781372 28.8776706,5.56176432 C28.8776706,5.56176432 29.0101631,5.86001828 29.0764094,5.9925756 C29.1426556,6.12513291 29.2751481,6.29082956 29.3745175,6.48966553 C29.50701,6.6885015 29.7057487,6.82105882 29.805118,6.95361613 C29.805118,6.95361613 27.5858689,6.4565262 27.3540071,8.4117466 C27.1221452,10.366967 29.8382412,10.6320816 30.1694724,10.6320816 C30.8319348,10.6320816 30.600073,11.0960322 30.6331961,11.1291716 C30.6663192,11.1954502 30.9644273,11.0297536 30.9644273,10.9966142 C31.163166,10.7977783 31.1962891,10.5326636 31.0969198,10.267549 C31.0306735,10.1018524 30.8981811,9.93615573 30.7325654,9.83673774 C30.3682111,9.60476244 29.50701,9.53848378 29.7057487,8.90883653 C29.8382412,8.47802526 31.0969198,8.27918928 31.7593822,8.90883653 C32.4218446,9.53848378 32.3887215,10.5989423 31.8918747,11.3280075 C31.8918747,11.3280075 31.2294123,12.3884661 29.50701,12.2890481 C29.50701,12.2890481 27.0890221,12.2559087 26.1284516,9.96929505 C26.1284516,9.96929505 24.7704036,11.7588188 22.5180313,11.5931222 C20.6962596,11.4274255 19.6694429,10.4995243 19.6694429,9.00825452 C19.6694429,9.00825452 19.7356891,7.45070606 21.2924758,7.28500942 C21.2924758,7.28500942 22.7498932,7.21873076 22.7830163,8.08035331 C22.7830163,8.08035331 22.8823857,8.51116459 22.0211845,8.71000056 C22.0211845,8.71000056 20.9612446,9.00825452 21.1268602,9.70418042 C21.1268602,9.70418042 21.2593527,10.267549 21.9549383,10.466385 C21.9549383,10.466385 22.0874307,10.4995243 22.153677,10.4001063 C22.2199232,10.3006883 21.9549383,10.267549 21.8555689,10.1349917 C21.7561995,10.0024344 21.7893227,9.57162311 22.3855388,9.47220512 C22.981755,9.37278714 25.432866,9.47220512 25.5322354,7.58326338 C25.5322354,7.58326338 25.4659891,6.25769023 23.9092024,5.95943627 C23.9092024,5.95943627 24.7041573,5.09781372 24.2073105,4.20305184 C24.2073105,4.20305184 23.2136169,5.13095305 22.0543076,5.39606768 C21.2262296,5.59490365 20.0669203,6.09199358 19.5700735,6.35710821 C19.5700735,6.35710821 22.1205539,4.00421587 22.1205539,2.38038876 C22.1205539,2.04899547 21.7230764,1.98271681 21.1268602,2.18155278 C20.530644,2.38038876 20.1000435,2.94375735 19.9344279,3.20887198 C19.7688122,3.47398661 19.1394729,4.70014177 18.7751186,4.5013058 C18.7751186,4.5013058 18.5101336,4.40188781 18.7419955,4.07049452 C18.9738573,3.73910124 19.8019354,2.91061802 19.6694429,1.94957748 C19.5038273,0.955397616 18.6757492,0.325750368 18.3113949,0.0274964091 C17.9470406,0.325750368 17.1189625,0.955397616 16.9533469,1.94957748 C16.7877313,2.94375735 17.6158094,3.73910124 17.8807943,4.07049452 C18.1126562,4.40188781 17.8476712,4.5013058 17.8476712,4.5013058 C17.4501937,4.70014177 16.8539776,3.47398661 16.688362,3.20887198 C16.5227463,2.94375735 16.0590226,2.38038876 15.4959296,2.18155278 C14.8997134,1.98271681 14.5022359,2.04899547 14.5022359,2.38038876 C14.5022359,4.0373552 17.0527163,6.35710821 17.0527163,6.35710821 C16.5558695,6.09199358 15.3965602,5.59490365 14.5684822,5.39606768 C13.4422961,5.13095305 12.4154793,4.20305184 12.4154793,4.20305184 C11.8855093,5.09781372 12.7135874,5.95943627 12.7135874,5.95943627 C11.1899238,6.25769023 11.0905544,7.58326338 11.0905544,7.58326338 C11.1899238,9.47220512 13.6410348,9.37278714 14.237251,9.47220512 C14.8334672,9.57162311 14.8665903,10.0024344 14.7672209,10.1349917 C14.6678515,10.267549 14.4028666,10.3338277 14.4691128,10.4001063 C14.5353591,10.4995243 14.6678515,10.466385 14.6678515,10.466385 C15.3634371,10.267549 15.4959296,9.70418042 15.4959296,9.70418042 C15.6946683,9.00825452 14.6016053,8.71000056 14.6016053,8.71000056 C13.7404041,8.51116459 13.8397735,8.08035331 13.8397735,8.08035331 C13.8728966,7.21873076 15.330314,7.28500942 15.330314,7.28500942 C16.8871007,7.45070606 16.9533469,9.00825452 16.9533469,9.00825452 C16.9202238,10.4995243 15.9265302,11.4605649 14.0716354,11.5931222 C11.8523862,11.7919581 10.4612151,9.96929505 10.4612151,9.96929505 C9.5006446,12.2559087 7.08265673,12.2890481 7.08265673,12.2890481 C5.36025442,12.3884661 4.69779199,11.3280075 4.69779199,11.3280075 C4.20094517,10.5989423 4.16782204,9.53848378 4.83028447,8.90883653 C5.4927469,8.27918928 6.7183024,8.47802526 6.883918,8.90883653 C7.08265673,9.53848378 6.22145557,9.63790177 5.85710124,9.83673774 C5.69148563,9.93615573 5.55899315,10.1018524 5.4927469,10.267549 C5.39337754,10.4995243 5.42650066,10.7977783 5.62523939,10.9966142 C5.65836251,11.0297536 5.92334748,11.1954502 5.9564706,11.1291716 C5.98959372,11.0960322 5.75773187,10.6320816 6.4201943,10.6320816 C6.75142552,10.6320816 9.46752148,10.4001063 9.23565963,8.4117466 C9.00379778,6.4565262 6.78454864,6.95361613 6.78454864,6.95361613 C6.883918,6.82105882 7.08265673,6.6885015 7.21514922,6.48966553 C7.3476417,6.29082956 7.44701107,6.12513291 7.51325731,5.9925756 C7.57950355,5.86001828 7.71199604,5.56176432 7.71199604,5.56176432 C6.15520933,5.09781372 4.66466887,6.82105882 4.26719141,7.25187009 C3.86971395,7.64954204 3.14100528,8.27918928 3.14100528,8.27918928 C5.26088505,4.89897775 4.49905326,3.37456862 4.49905326,3.37456862 C3.10788216,4.20305184 3.10788216,4.99839573 2.97538967,5.82687895 C2.80977407,6.88733747 2.54478909,6.82105882 2.54478909,6.82105882 C1.7829573,6.6885015 3.07475904,5.1972317 2.34605037,4.30246983 C1.35235672,3.17573265 0.0605549849,3.20887198 0.0605549849,3.20887198 L3.86971395,18.1215699 L4.53217638,18.1215699 C4.5652995,18.1215699 4.59842262,18.1215699 4.63154575,18.1215699 C4.73091511,18.1215699 4.79716135,18.1215699 4.79716135,18.1215699 L6.2545787,18.1215699 L18.3776411,18.1215699 L30.3682111,18.1215699 L31.8256285,18.1215699 C31.8256285,18.1215699 31.8918747,18.1215699 31.9912441,18.1215699 C32.0243672,18.1215699 32.0574903,18.1215699 32.0906134,18.1215699 L32.7530759,18.1215699 L36.5622348,3.20887198 C36.5291117,3.17573265 35.23731,3.14259332 34.2436163,4.30246983" id="Path" fill="#9DA6B9"></path>
                </g>
            </g>
        </g>
    </g>
</svg>