<?xml version="1.0" encoding="UTF-8"?>
<svg width="150px" height="60px" viewBox="0 0 150 60" version="1.1" xmlns="http://www.w3.org/2000/svg" xmlns:xlink="http://www.w3.org/1999/xlink">
    <title>Artboard</title>
    <g id="Artboard" stroke="none" stroke-width="1" fill="none" fill-rule="evenodd">
        <g id="Group-13" transform="translate(25.500000, 9.000000)" fill="#9DA6B9">
            <g id="Group-4" transform="translate(0.500000, 0.000000)">
                <path d="M47.3207547,0 C56.216867,0 64.3018868,3.26724607 64.3018868,7.37317632 C64.3018868,11.477992 56.216867,14.7446809 47.3207547,14.7446809 C38.4252181,14.7446809 30.3396226,11.477992 30.3396226,7.37317632 C30.3396226,3.26724607 38.4252181,0 47.3207547,0 Z M47.3609992,0.867334168 C39.1780722,0.867334168 32.5439042,3.76187287 32.5439042,7.33263809 C32.5439042,10.9034033 39.1780722,13.7984981 47.3609992,13.7984981 C55.5445018,13.7984981 62.1792453,10.9034033 62.1792453,7.33263809 C62.1792453,3.76187287 55.5445018,0.867334168 47.3609992,0.867334168 Z" id="Combined-Shape"></path>
                <path d="M40.4690249,9.55666461 L40.4655978,9.45728498 C40.0914732,8.99465569 39.7619009,8.51889002 39.4197625,8.04255319 C41.2949549,9.08432582 43.1490136,10.1660787 45.305799,10.6761133 C45.8489936,10.7783486 46.6035258,10.8920069 47.0416228,10.6372752 C47.5356958,10.1312388 47.1501475,9.16828446 48.2890856,9.04948583 C50.1682763,8.78161776 51.978925,9.39388764 53.4697116,10.252322 C53.7781502,10.4739271 54.1408511,10.7229473 54.3396226,10.9873885 L53.8821054,12.5106383 C52.2559486,11.0970488 49.9141,10.2009187 47.627085,10.6846805 C46.5498346,10.9468371 47.3009397,12.199363 45.9849351,12.2838928 C44.348497,12.3444344 42.9639504,11.6476348 41.5948258,11.066778 C40.694642,10.62471 39.7721821,10.1660787 38.9433962,9.61377934 L40.4690249,9.55666461" id="Fill-6"></path>
                <path d="M40.9419038,6.31956048 L39.8766088,4.91489362 L39.9537213,4.92007902 C42.0734585,6.05049591 44.1012319,7.341084 46.6556551,7.63722787 C47.0297936,7.63261863 47.4130713,7.60381086 47.6221319,7.35087864 C47.8843144,6.84386189 47.7386575,6.05913824 48.6548683,5.90184781 C50.8408651,5.58265772 53.0428557,6.34606362 54.5971011,7.62800938 L54.7924528,7.82102144 C54.663932,8.35050825 54.5228447,8.87192889 54.336061,9.38297872 C52.8572145,8.08778139 50.9322578,7.31400469 48.7571138,7.3952426 C48.2881555,7.485699 47.7180941,7.54561916 47.515888,7.92300095 C47.2811233,8.34013745 47.4090729,8.96699453 46.6682216,9.1081526 C45.3795859,9.32824396 44.177202,8.75900243 43.0467897,8.35915058 C41.7792885,7.80316062 40.5300659,7.19877361 39.3962264,6.45150006 L40.9447598,6.39446068 L40.9419038,6.31956048" id="Fill-7"></path>
                <path d="M42.2727833,3.16295196 L41.2109353,1.78723404 C42.3982433,2.41084715 43.8353309,3.52558413 46.7517063,4.28739721 C47.3721631,4.41931536 48.2492428,4.62147566 48.7852993,4.33879389 C49.3105206,3.81854523 49.0111273,2.80317517 50.2155436,2.7203694 C52.4789565,2.52334878 54.6573988,3.31942632 56.1509434,4.73454836 C55.9867048,5.24109124 55.8578232,5.76705065 55.648533,6.25531915 C54.1492857,4.92985576 52.2137796,4.15490798 50.0444617,4.25141953 C49.5973678,4.31766414 49.0601708,4.36220794 48.8582942,4.73626158 C48.6016714,5.14058217 48.7858695,5.78932254 48.0120093,5.92752252 C46.6610329,6.15823652 45.4138462,5.54204738 44.2311003,5.13487143 C43.0323867,4.62090458 41.8633274,4.04069312 40.754717,3.33484532 L42.2779158,3.27716682 L42.2727833,3.16295196" id="Fill-8"></path>
                <path d="M5.0599091,20.5230291 L4.99325162,20.489613 C4.66988018,20.3242912 4.21484644,20.1308295 3.66781435,20.1308295 C2.43823165,20.1308295 1.51163752,21.4287814 1.51163752,23.6864204 C1.51163752,26.1943871 2.55612175,27.2302864 3.58903732,27.2302864 C4.16085939,27.2302864 4.6456411,26.9500601 4.96405454,26.7524947 L5.02850847,26.7132161 L5.43396226,27.5304451 L5.371161,27.5662062 C4.93485746,27.8094989 4.27985126,28.1489362 3.36096956,28.1489362 C1.13978791,28.1489362 0,26.1117262 0,23.7174915 C0,21.2851508 1.23619336,19.212766 3.54882248,19.212766 C4.10246523,19.212766 4.73653767,19.3112555 5.35243079,19.6448303 L5.41302851,19.6776602 L5.0599091,20.5230291" id="Fill-9"></path>
                <path d="M9.55692408,20.1290474 L9.55692408,23.3077069 L9.98644975,23.3077069 C10.6628095,23.3077069 11.7990481,23.3077069 11.7990481,21.5854566 C11.7990481,20.83314 11.5596591,20.4823001 11.2429555,20.3086886 C11.0797357,20.2194716 10.8907445,20.1742603 10.6897264,20.1513532 C10.4858449,20.1284461 10.2762364,20.1290474 10.0763638,20.1290474 L9.55692408,20.1290474 Z M10.1542511,19.212766 C11.0528188,19.212766 11.6341102,19.222411 12.2715263,19.5883214 C13.0584173,20.0446544 13.2519902,20.8885993 13.2519902,21.4214902 C13.2519902,22.4203592 12.7692034,23.5241185 11.2584184,23.9117303 L14.0377358,28.1489362 L12.3751852,28.1489362 L9.96067821,24.1365813 L9.55692408,24.1365813 L9.55692408,28.1489362 L8.1509434,28.1489362 L8.1509434,19.212766 L10.1542511,19.212766 L10.1542511,19.212766 Z" id="Fill-10"></path>
                <path d="M17.7607935,23.718664 C17.7607935,26.4130574 18.6572625,27.264875 19.4620471,27.264875 C20.1456583,27.264875 21.1826027,26.68918 21.1826027,23.6787992 C21.1826027,22.5661015 21.0812674,20.0698598 19.5145914,20.0698598 C18.4765747,20.0698598 17.7607935,21.1784537 17.7607935,23.7063528 L17.7607935,23.718664 Z M16.3018868,23.6764542 C16.3018868,20.6777984 17.8326397,19.212766 19.5478336,19.212766 C20.9515153,19.212766 22.6415094,20.1994205 22.6415094,23.562136 C22.6415094,26.5303069 21.2506957,28.1489362 19.4223709,28.1489362 C17.7120025,28.1489362 16.3018868,26.6798 16.3018868,23.6887654 L16.3018868,23.6764542 L16.3018868,23.6764542 Z" id="Fill-11"></path>
                <polyline id="Fill-12" points="25.4690902 19.212766 26.8465423 25.559834 28.3139035 19.212766 29.2193333 19.212766 30.6382819 25.5375297 32.0284136 19.212766 33.0566038 19.212766 30.9408603 28.1489362 30.0152586 28.1489362 28.5513555 21.627051 27.0401925 28.1489362 26.1151671 28.1489362 24 19.212766 25.4690902 19.212766"></polyline>
                <polyline id="Fill-13" points="37.1705992 19.212766 41.0794294 25.5471748 41.0794294 19.212766 42.1132075 19.212766 42.1132075 28.1489362 41.1695978 28.1489362 37.2613419 21.8139245 37.2613419 28.1489362 36.2264151 28.1489362 36.2264151 19.212766 37.1705992 19.212766"></polyline>
                <polyline id="Fill-14" points="50.6698053 19.212766 50.6698053 20.1567785 47.616035 20.1567785 47.616035 23.0599488 50.4661439 23.0599488 50.4661439 23.9876853 47.616035 23.9876853 47.616035 27.1621235 50.7169811 27.1621235 50.7169811 28.1489362 46.1886792 28.1489362 46.1886792 19.212766 50.6698053 19.212766"></polyline>
                <path d="M59.3948962,20.1290489 L59.3948962,23.2944449 L60.1628515,23.2944449 C60.9925434,23.2944449 61.8730091,23.1473574 61.8730091,21.5595354 C61.8730091,20.8054104 61.6277942,20.4612015 61.3098803,20.294221 C61.1454421,20.2080181 60.9561939,20.1664236 60.758868,20.1471335 C60.5592342,20.1266377 60.3538307,20.1290489 60.1645825,20.1290489 L59.3948962,20.1290489 Z M60.2384354,19.212766 C61.2308346,19.212766 61.9093586,19.2338646 62.5267232,19.655837 C63.28487,20.1760687 63.3962264,21.0676362 63.3962264,21.5480819 C63.3962264,22.8845288 62.5596109,24.2330321 60.4386462,24.2330321 L59.3948962,24.2330321 L59.3948962,28.1489362 L57.9622642,28.1489362 L57.9622642,19.212766 L60.2384354,19.212766 L60.2384354,19.212766 Z" id="Fill-15"></path>
                <polyline id="Fill-16" points="67.5749194 19.212766 67.5749194 27.170563 70.6415094 27.170563 70.6415094 28.1489362 66.1132075 28.1489362 66.1132075 19.212766 67.5749194 19.212766"></polyline>
                <path d="M74.0878737,24.3469647 L75.8011678,24.3469647 L74.9542924,21.3431239 L74.0878737,24.3469647 Z M75.5856489,19.212766 L78.3396226,28.1489362 L76.9080774,28.1489362 L76.0503446,25.2258729 L73.8430398,25.2258729 L73.0037645,28.1489362 L72,28.1489362 L74.7284589,19.212766 L75.5856489,19.212766 L75.5856489,19.212766 Z" id="Fill-17"></path>
                <polyline id="Fill-18" points="86.2711965 19.212766 86.2711965 19.9741248 82.2513065 27.1621235 86.490566 27.1621235 86.490566 28.1489362 80.6037736 28.1489362 80.6037736 27.3881802 84.6485405 20.1567785 80.8497162 20.1567785 80.8497162 19.212766 86.2711965 19.212766"></polyline>
                <path d="M90.8415049,24.3469647 L92.5558848,24.3469647 L91.7079236,21.3431239 L90.8415049,24.3469647 Z M92.3387372,19.212766 L95.0943396,28.1489362 L93.6617087,28.1489362 L92.8039759,25.2258729 L90.5966711,25.2258729 L89.7579386,28.1489362 L88.754717,28.1489362 L91.482633,19.212766 L92.3387372,19.212766 L92.3387372,19.212766 Z" id="Fill-19"></path>
                <polygon id="Fill-20" points="8.1509434 32.6170213 86.490566 32.6170213 86.490566 32.1702128 8.1509434 32.1702128"></polygon>
                <path d="M95.7334733,19.4730884 C95.8476422,19.5852153 95.9033343,19.7212573 95.9033343,19.8808224 C95.9033343,20.0415637 95.8476422,20.1779978 95.7334733,20.2913008 C95.6204978,20.4049959 95.482063,20.4610593 95.3197602,20.4610593 C95.1566618,20.4610593 95.020216,20.4049959 94.9052515,20.2913008 C94.7930716,20.1779978 94.7365839,20.0415637 94.7365839,19.8808224 C94.7365839,19.7212573 94.7930716,19.5852153 94.9064449,19.4730884 C95.0206138,19.3593934 95.1590486,19.3029379 95.3197602,19.3029379 C95.4808696,19.3029379 95.6197022,19.3593934 95.7334733,19.4730884 Z M95.8010995,19.4080078 C95.6694273,19.2778466 95.5079201,19.212766 95.3197602,19.212766 C95.1327937,19.212766 94.9724799,19.2778466 94.8408078,19.4080078 C94.70834,19.5389532 94.6415094,19.696558 94.6415094,19.8808224 C94.6415094,20.0670471 94.7071466,20.225044 94.8388188,20.3559894 C94.9716843,20.4873268 95.1312025,20.5531915 95.3197602,20.5531915 C95.5079201,20.5531915 95.6694273,20.4873268 95.8010995,20.3559894 C95.9335672,20.224652 96,20.066263 96,19.8808224 C96,19.696166 95.9335672,19.5381691 95.8010995,19.4080078 Z M95.4208017,19.8494583 C95.3933534,19.8608278 95.3515843,19.8663165 95.2958922,19.8663165 L95.1773474,19.8663165 L95.1773474,19.5997212 L95.2887317,19.5997212 C95.3623249,19.5997212 95.4148347,19.6087384 95.44825,19.6271648 C95.4808696,19.6451992 95.4979751,19.681268 95.4979751,19.734195 C95.4979751,19.7910425 95.472118,19.8294636 95.4208017,19.8494583 Z M95.0456753,20.2469989 L95.1773474,20.2469989 L95.1773474,19.9564885 L95.2811735,19.9564885 C95.3503909,19.9564885 95.400116,19.9643295 95.4279621,19.9804036 C95.4745048,20.0074552 95.4979751,20.0643027 95.4979751,20.148986 L95.4979751,20.2074017 L95.5015553,20.2313169 L95.6272604,20.2469989 C95.6197022,20.2313169 95.6173154,20.2187712 95.616122,20.1987765 C95.6153264,20.1799581 95.6145308,20.1615316 95.6145308,20.1442813 L95.6145308,20.0905702 C95.6145308,20.0533253 95.6006078,20.0156883 95.5739551,19.9764831 C95.5469046,19.93767 95.5031465,19.9133627 95.4450675,19.9043456 C95.4904169,19.8972886 95.5274124,19.8855271 95.5528716,19.8686688 C95.6014034,19.8380888 95.6268626,19.7894743 95.6268626,19.7240017 C95.6268626,19.6310854 95.5870825,19.5691412 95.5103069,19.537777 C95.4673444,19.5197426 95.400116,19.5111175 95.3074284,19.5111175 L95.0456753,19.5111175 L95.0456753,20.2469989 L95.0456753,20.2469989 Z" id="Fill-21"></path>
                <polyline id="Fill-22" points="16.6603774 42 16.6603774 37.0851064 17.5955216 37.0851064 17.5955216 38.9589279 19.347279 38.9589279 19.347279 37.0851064 20.2830189 37.0851064 20.2830189 42 19.347279 42 19.347279 39.8063436 17.5955216 39.8063436 17.5955216 42 16.6603774 42"></polyline>
                <path d="M24.4796142,40.7522836 C24.7093694,40.4689133 24.8242471,40.0652077 24.8242471,39.5428305 C24.8242471,39.0215623 24.7093694,38.6189658 24.4796142,38.3339319 C24.2498589,38.0494525 23.9395644,37.9074901 23.5487306,37.9074901 C23.1578969,37.9074901 22.8457294,38.048898 22.6128525,38.3322683 C22.3799755,38.6161931 22.2638492,39.0193441 22.2638492,39.5428305 C22.2638492,40.0652077 22.3799755,40.4689133 22.6128525,40.7522836 C22.8457294,41.0356538 23.1578969,41.1776162 23.5487306,41.1776162 C23.9395644,41.1776162 24.2498589,41.0356538 24.4796142,40.7522836 Z M25.0964572,41.4582138 C24.7399619,41.8192198 24.2236368,42 23.5487306,42 C22.8738245,42 22.3574994,41.8192198 22.0010041,41.4582138 C21.5221392,41.0151358 21.2830189,40.376305 21.2830189,39.5428305 C21.2830189,38.6921651 21.5221392,38.0533343 22.0010041,37.6268926 C22.3574994,37.2653321 22.8738245,37.0851064 23.5487306,37.0851064 C24.2236368,37.0851064 24.7399619,37.2653321 25.0964572,37.6268926 C25.5728248,38.0533343 25.8113208,38.6921651 25.8113208,39.5428305 C25.8113208,40.376305 25.5728248,41.0151358 25.0964572,41.4582138 L25.0964572,41.4582138 Z" id="Fill-23"></path>
                <polyline id="Fill-24" points="29.8867925 37.0851064 29.8867925 37.9554093 28.5489926 37.9554093 28.5489926 42 27.6084536 42 27.6084536 37.9554093 26.2641509 37.9554093 26.2641509 37.0851064 29.8867925 37.0851064"></polyline>
                <polyline id="Fill-25" points="33.8453844 37.9554093 31.3157268 37.9554093 31.3157268 38.9994208 33.6375279 38.9994208 33.6375279 39.852705 31.3157268 39.852705 31.3157268 41.1161994 33.9622642 41.1161994 33.9622642 42 30.3396226 42 30.3396226 37.0851064 33.8453844 37.0851064 33.8453844 37.9554093"></polyline>
                <polyline id="Fill-26" points="34.9622642 37.0851064 35.8980062 37.0851064 35.8980062 41.1161994 38.1320755 41.1161994 38.1320755 42 34.9622642 42 34.9622642 37.0851064"></polyline>
                <path d="M39.9093184,40.4418091 C39.9376203,40.6548712 39.9930689,40.8134162 40.0756642,40.9185565 C40.2269927,41.1104794 40.486908,41.2067189 40.8536773,41.2067189 C41.0737389,41.2067189 41.2522141,41.1811292 41.3896804,41.1305061 C41.6501733,41.0342665 41.7801309,40.8534696 41.7801309,40.5903406 C41.7801309,40.4362461 41.7160185,40.3171983 41.5889488,40.2331973 C41.4613015,40.1514214 41.2591452,40.0785464 40.9819022,40.0145721 L40.5088564,39.9044251 C40.0438968,39.7948344 39.7244898,39.6757866 39.5506353,39.5472817 C39.2560647,39.3325507 39.1087794,38.9959903 39.1087794,38.5387133 C39.1087794,38.122046 39.2531767,37.7754723 39.5408163,37.4989922 C39.8290335,37.2230683 40.2524066,37.0851064 40.8109357,37.0851064 C41.2770504,37.0851064 41.674432,37.2152801 42.0036581,37.4756276 C42.3328841,37.7359751 42.5050058,38.1137015 42.5211783,38.6082506 L41.6438198,38.6082506 C41.6276473,38.3284326 41.5103966,38.1292779 41.2914902,38.0113427 C41.14536,37.9329047 40.9639969,37.8945201 40.7474008,37.8945201 C40.5059684,37.8945201 40.3136311,37.9451432 40.1698113,38.0458332 C40.0259915,38.1470794 39.9537928,38.2883791 39.9537928,38.469176 C39.9537928,38.6360655 40.0248363,38.7606762 40.1663458,38.842452 C40.2576049,38.8975256 40.451675,38.9614998 40.7474008,39.0354875 L41.5138621,39.2279666 C41.8500193,39.3125239 42.1018483,39.4248961 42.2699268,39.5661959 C42.5304197,39.7853773 42.6603774,40.1024672 42.6603774,40.5174656 C42.6603774,40.9430336 42.506161,41.2968392 42.1977281,41.5777698 C41.8887178,41.8592566 41.4526377,42 40.8894879,42 C40.3142087,42 39.8619561,41.8614818 39.5321525,41.5844453 C39.2023489,41.3074089 39.0377358,40.9263447 39.0377358,40.4418091 L39.9093184,40.4418091" id="Fill-27"></path>
                <path d="M46.3601991,38.4442273 C46.3982932,38.5074155 46.4804335,38.6194309 46.6078106,38.7808481 C46.7345925,38.688938 46.8250659,38.6119632 46.8798262,38.548775 C46.9857753,38.4310152 47.0381547,38.3029155 47.0381547,38.1661992 C47.0381547,38.0656725 47.006608,37.9766345 46.9435147,37.8979365 C46.8798262,37.8198129 46.7839957,37.7801767 46.654833,37.7801767 C46.5750735,37.7801767 46.5000758,37.8031542 46.4298398,37.8485348 C46.3244859,37.916893 46.2715113,38.023164 46.2715113,38.1696458 C46.2715113,38.256386 46.3012723,38.3482961 46.3601991,38.4442273 Z M45.9768774,41.0205828 C46.1000879,41.153278 46.2584164,41.2204873 46.4512677,41.2204873 C46.5959062,41.2204873 46.733402,41.1854466 46.86316,41.1153651 C46.9923228,41.0452836 47.0976767,40.96716 47.1786266,40.8815687 L46.3363903,39.7855406 C46.1155636,39.9400645 45.9697347,40.0762063 45.8983083,40.1939662 C45.8274771,40.311726 45.7923591,40.4409746 45.7923591,40.5828609 C45.7923591,40.7419802 45.8536668,40.8878876 45.9768774,41.0205828 Z M45.1257127,39.8688341 C45.2602324,39.6620363 45.4804638,39.4569619 45.7858117,39.2553341 L45.8804517,39.1927203 C45.7500985,39.0364731 45.6495063,38.8762048 45.5780799,38.7124899 C45.5066535,38.5493495 45.4715355,38.3793157 45.4715355,38.2029632 C45.4715355,37.8519814 45.5828417,37.5779744 45.805454,37.3809421 C46.0280663,37.1833353 46.3161528,37.0851064 46.6709039,37.0851064 C46.9947036,37.0851064 47.2619574,37.1856331 47.4732606,37.3878353 C47.6845637,37.5894632 47.7899176,37.8473859 47.7899176,38.1621781 C47.7899176,38.4453761 47.7268243,38.6763003 47.6000424,38.8526529 C47.4732606,39.0295798 47.2875519,39.1932947 47.0423212,39.3437976 L47.6893254,40.181903 C47.763728,40.0693131 47.8208691,39.9463833 47.861344,39.8131136 C47.9012238,39.6809928 47.9226517,39.5402554 47.9244374,39.3926248 L48.697033,39.3926248 C48.6833429,39.6850139 48.6172735,39.9802751 48.4994199,40.2795575 C48.434541,40.4478679 48.3285918,40.632837 48.1827629,40.8361881 L49,41.879368 L47.9458653,41.879368 L47.6327795,41.4720913 C47.4804032,41.6231685 47.3381456,41.7346095 47.206602,41.8064143 C46.9720853,41.9356629 46.7006649,42 46.3941266,42 C45.9328311,42 45.5727229,41.8563904 45.313207,41.5691713 C45.0536911,41.2819522 44.9245283,40.963139 44.9245283,40.6127316 C44.9245283,40.3232148 44.9911929,40.0750574 45.1257127,39.8688341 L45.1257127,39.8688341 Z" id="Fill-28"></path>
                <path d="M51.7191847,37.9389775 L51.7191847,39.2593966 L52.7187164,39.2593966 C52.9179176,39.2593966 53.066584,39.2324014 53.1658908,39.1789978 C53.3415875,39.0856882 53.429142,38.9014163 53.429142,38.6255954 C53.429142,38.328061 53.3445255,38.1279441 53.174705,38.0258317 C53.0795115,37.9677332 52.9361337,37.9389775 52.7445715,37.9389775 L51.7191847,37.9389775 Z M53.6395079,37.2118666 C53.8028646,37.2899181 53.9421292,37.4043544 54.0555387,37.5557625 C54.149557,37.6801753 54.224184,37.8174989 54.2794197,37.968907 C54.3346555,38.120315 54.3610981,38.2922629 54.3610981,38.4859244 C54.3610981,38.718905 54.3088004,38.9489514 54.2018547,39.174303 C54.0949089,39.3996545 53.9192122,39.5592785 53.6735895,39.6525881 C53.8792545,39.7435503 54.0243952,39.8732448 54.1101868,40.0410848 C54.1953909,40.2089247 54.2376991,40.4653795 54.2376991,40.8098622 L54.2376991,41.1396735 C54.2376991,41.3644382 54.2459257,41.5164332 54.2623789,41.596832 C54.2864711,41.7230054 54.3440573,41.8169019 54.4339623,41.8767609 L54.4339623,42 L53.4085755,42 C53.3797824,41.8908453 53.3598035,41.8034043 53.3480512,41.736503 C53.3239591,41.5985926 53.3110315,41.4577479 53.3086811,41.313382 L53.3033926,40.8562236 C53.2992793,40.5434309 53.2505073,40.3339244 53.156489,40.2294646 C53.0612955,40.1250048 52.8855989,40.0727748 52.626461,40.0727748 L51.7191847,40.0727748 L51.7191847,42 L50.8113208,42 L50.8113208,37.0851064 L52.9384841,37.0851064 C53.2416931,37.0921486 53.4761511,37.134402 53.6395079,37.2118666 L53.6395079,37.2118666 Z" id="Fill-29"></path>
                <polyline id="Fill-30" points="58.8459959 37.9554093 56.315897 37.9554093 56.315897 38.9994208 58.638735 38.9994208 58.638735 39.852705 56.315897 39.852705 56.315897 41.1161994 58.9622642 41.1161994 58.9622642 42 55.3396226 42 55.3396226 37.0851064 58.8459959 37.0851064 58.8459959 37.9554093"></polyline>
                <path d="M60.2866769,40.4418091 C60.3149788,40.6548712 60.3704274,40.8134162 60.4536003,40.9185565 C60.6043512,41.1104794 60.8636889,41.2067189 61.2310358,41.2067189 C61.4510974,41.2067189 61.6295726,41.1811292 61.7670389,41.1305061 C62.0269542,41.0342665 62.1574894,40.8534696 62.1574894,40.5903406 C62.1574894,40.4362461 62.093377,40.3171983 61.9663073,40.2331973 C61.83866,40.1514214 61.6359261,40.0785464 61.3592607,40.0145721 L60.8867925,39.9044251 C60.4212553,39.7948344 60.1018483,39.6757866 59.9279938,39.5472817 C59.6334232,39.3325507 59.4861379,38.9959903 59.4861379,38.5387133 C59.4861379,38.122046 59.6305352,37.7754723 59.9187524,37.4989922 C60.206392,37.2230683 60.6297651,37.0851064 61.1877166,37.0851064 C61.6544089,37.0851064 62.0517905,37.2152801 62.380439,37.4756276 C62.7102426,37.7359751 62.8829419,38.1137015 62.8985368,38.6082506 L62.0206007,38.6082506 C62.0050058,38.3284326 61.8871775,38.1292779 61.6682711,38.0113427 C61.5227185,37.9329047 61.3413554,37.8945201 61.1247593,37.8945201 C60.8833269,37.8945201 60.6909896,37.9451432 60.5471698,38.0458332 C60.40335,38.1470794 60.3311513,38.2883791 60.3311513,38.469176 C60.3311513,38.6360655 60.4021948,38.7606762 60.5442819,38.842452 C60.6349634,38.8975256 60.8284559,38.9614998 61.1247593,39.0354875 L61.8912206,39.2279666 C62.2273777,39.3125239 62.4792068,39.4248961 62.6467077,39.5661959 C62.9077782,39.7853773 63.0377358,40.1024672 63.0377358,40.5174656 C63.0377358,40.9430336 62.8835194,41.2968392 62.574509,41.5777698 C62.2660762,41.8592566 61.8299961,42 61.2668464,42 C60.6915672,42 60.238737,41.8614818 59.909511,41.5844453 C59.5797074,41.3074089 59.4150943,40.9263447 59.4150943,40.4418091 L60.2866769,40.4418091" id="Fill-31"></path>
                <path d="M66.6871613,40.7522836 C66.917541,40.4689133 67.0317943,40.0652077 67.0317943,39.5428305 C67.0317943,39.0215623 66.917541,38.6189658 66.6871613,38.3339319 C66.457406,38.0494525 66.1477359,37.9074901 65.7562778,37.9074901 C65.3654441,37.9074901 65.0532766,38.048898 64.821024,38.3322683 C64.588147,38.6161931 64.4720207,39.0193441 64.4720207,39.5428305 C64.4720207,40.0652077 64.588147,40.4689133 64.821024,40.7522836 C65.0532766,41.0356538 65.3654441,41.1776162 65.7562778,41.1776162 C66.1477359,41.1776162 66.457406,41.0356538 66.6871613,40.7522836 Z M67.3046287,41.4582138 C66.947509,41.8192198 66.4318083,42 65.7562778,42 C65.0813717,42 64.5656709,41.8192198 64.2091756,41.4582138 C63.7303107,41.0151358 63.490566,40.376305 63.490566,39.5428305 C63.490566,38.6921651 63.7303107,38.0533343 64.2091756,37.6268926 C64.5656709,37.2653321 65.0813717,37.0851064 65.7562778,37.0851064 C66.4318083,37.0851064 66.947509,37.2653321 67.3046287,37.6268926 C67.7803719,38.0533343 68.0188679,38.6921651 68.0188679,39.5428305 C68.0188679,40.376305 67.7803719,41.0151358 67.3046287,41.4582138 L67.3046287,41.4582138 Z" id="Fill-32"></path>
                <path d="M69.3797093,37.9389775 L69.3797093,39.2593966 L70.3794032,39.2593966 C70.578049,39.2593966 70.7273273,39.2324014 70.8266502,39.1789978 C71.0023753,39.0856882 71.089944,38.9014163 71.089944,38.6255954 C71.089944,38.328061 71.0053139,38.1279441 70.8354658,38.0258317 C70.7402569,37.9677332 70.5968558,37.9389775 70.4052624,37.9389775 L69.3797093,37.9389775 Z M71.3003441,37.2118666 C71.4637273,37.2899181 71.6030145,37.4043544 71.7164424,37.5557625 C71.8104759,37.6801753 71.885115,37.8174989 71.9403597,37.968907 C71.9950167,38.120315 72.0220514,38.2922629 72.0220514,38.4859244 C72.0220514,38.718905 71.9691575,38.9489514 71.8627821,39.174303 C71.7558189,39.3996545 71.5795061,39.5592785 71.3344312,39.6525881 C71.5395418,39.7435503 71.6847061,39.8732448 71.7705117,40.0410848 C71.8557296,40.2089247 71.8986324,40.4653795 71.8986324,40.8098622 L71.8986324,41.1396735 C71.8986324,41.3644382 71.9068603,41.5164332 71.9233162,41.596832 C71.9474122,41.7230054 72.0050078,41.8169019 72.0943396,41.8767609 L72.0943396,42 L71.0687865,42 C71.0405764,41.8908453 71.0205943,41.8034043 71.0088401,41.736503 C70.984744,41.5985926 70.9712267,41.4577479 70.9694636,41.313382 L70.9635865,40.8562236 C70.9600602,40.5434309 70.9106926,40.3339244 70.8166591,40.2294646 C70.7226256,40.1250048 70.5463127,40.0727748 70.2871328,40.0727748 L69.3797093,40.0727748 L69.3797093,42 L68.4716981,42 L68.4716981,37.0851064 L70.5992066,37.0851064 C70.9024647,37.0921486 71.1369608,37.134402 71.3003441,37.2118666 L71.3003441,37.2118666 Z" id="Fill-33"></path>
                <polyline id="Fill-34" points="75.7169811 37.0851064 75.7169811 37.9554093 74.3788084 37.9554093 74.3788084 42 73.439014 42 73.439014 37.9554093 72.0943396 37.9554093 72.0943396 37.0851064 75.7169811 37.0851064"></polyline>
                <path d="M76.5887027,40.4418091 C76.6164314,40.6548712 76.6718889,40.8134162 76.755075,40.9185565 C76.9058499,41.1104794 77.1658067,41.2067189 77.5326345,41.2067189 C77.7527312,41.2067189 77.9318125,41.1811292 78.0687231,41.1305061 C78.3292575,41.0342665 78.4592358,40.8534696 78.4592358,40.5903406 C78.4592358,40.4362461 78.3956909,40.3171983 78.2680232,40.2331973 C78.1403556,40.1514214 77.9387447,40.0785464 77.6614575,40.0145721 L77.1883362,39.9044251 C76.7233025,39.7948344 76.4032669,39.6757866 76.2299624,39.5472817 C75.9353448,39.3325507 75.788036,38.9959903 75.788036,38.5387133 C75.788036,38.122046 75.9318787,37.7754723 76.2201418,37.4989922 C76.508405,37.2230683 76.9312679,37.0851064 77.4898861,37.0851064 C77.9560751,37.0851064 78.3535201,37.2152801 78.6833763,37.4756276 C79.0120772,37.7359751 79.184804,38.1137015 79.2004014,38.6082506 L78.3234807,38.6082506 C78.3067279,38.3284326 78.1894585,38.1292779 77.9705172,38.0113427 C77.8243637,37.9329047 77.6429717,37.8945201 77.4263411,37.8945201 C77.1854478,37.8945201 76.9925022,37.9451432 76.8486594,38.0458332 C76.7048167,38.1470794 76.6331842,38.2883791 76.6331842,38.469176 C76.6331842,38.6360655 76.7036614,38.7606762 76.845771,38.842452 C76.9370447,38.8975256 77.1305681,38.9614998 77.4263411,39.0354875 L78.1935023,39.2279666 C78.529713,39.3125239 78.7815822,39.4248961 78.9496875,39.5661959 C79.210222,39.7853773 79.3396226,40.1024672 79.3396226,40.5174656 C79.3396226,40.9430336 79.1859593,41.2968392 78.8774773,41.5777698 C78.56784,41.8592566 78.1316904,42 77.5690284,42 C76.9936575,42 76.5413328,41.8614818 76.2108989,41.5844453 C75.8816204,41.3074089 75.7169811,40.9263447 75.7169811,40.4418091 L76.5887027,40.4418091" id="Fill-35"></path>
            </g>
        </g>
    </g>
</svg>