<?xml version="1.0" encoding="UTF-8"?>
<svg width="192px" height="85px" viewBox="0 0 192 85" version="1.1" xmlns="http://www.w3.org/2000/svg" xmlns:xlink="http://www.w3.org/1999/xlink">
    <title>Group 4</title>
    <g id="Page-1" stroke="none" stroke-width="1" fill="none" fill-rule="evenodd">
        <g id="iPhone-X" transform="translate(-995.000000, -3193.000000)" fill="#9DA6B9">
            <g id="Group-4" transform="translate(995.000000, 3193.000000)">
                <path d="M94.4313284,0 C112.18404,0 128.318169,6.61228372 128.318169,14.9219045 C128.318169,23.2292696 112.18404,29.8404255 94.4313284,29.8404255 C76.6797659,29.8404255 60.5444881,23.2292696 60.5444881,14.9219045 C60.5444881,6.61228372 76.6797659,0 94.4313284,0 Z M94.5116387,1.75531915 C78.1821301,1.75531915 64.9432606,7.61331414 64.9432606,14.8398628 C64.9432606,22.0664115 78.1821301,27.9255319 94.5116387,27.9255319 C110.842296,27.9255319 124.082314,22.0664115 124.082314,14.8398628 C124.082314,7.61331414 110.842296,1.75531915 94.5116387,1.75531915 Z" id="Combined-Shape"></path>
                <path d="M80.7583016,19.3408689 L80.7514626,19.1397434 C80.0048752,18.2034699 79.3471943,17.2406107 78.6644372,16.2765957 C82.4064931,18.3849451 86.1063754,20.574207 90.4103666,21.6064197 C91.4943432,21.8133246 93.0000562,22.0433474 93.8743044,21.527819 C94.8602558,20.5036975 94.0908718,18.5548614 96.3636892,18.3144356 C100.113724,17.7723217 103.726979,19.0114393 106.701931,20.7487469 C107.317438,21.1972335 108.041229,21.7012029 108.437889,22.2363815 L107.524887,25.3191489 C104.279796,22.458313 99.6065004,20.6447165 95.0426283,21.6237581 C92.8929124,22.1543131 94.3917864,24.6891871 91.7656223,24.8602593 C88.5000146,24.982784 85.7370711,23.5725942 83.0049029,22.3970507 C81.2085337,21.5023893 79.3677112,20.574207 77.7138205,19.4564582 L80.7583016,19.3408689" id="Fill-6"></path>
                <path d="M81.7019591,12.7895867 L79.5761007,9.94680851 L79.7299832,9.95730277 C83.9600425,12.2450512 88.0065826,14.8569557 93.1040834,15.4562945 C93.8506985,15.4469663 94.6155516,15.3886648 95.0327442,14.8767782 C95.5559447,13.8506729 95.2652778,12.2625417 97.09363,11.9442158 C101.455914,11.2982359 105.850115,12.843224 108.951702,15.437638 L109.341538,15.8282577 C109.085067,16.8998381 108.803519,17.9550942 108.430782,18.9893617 C105.479657,16.368129 101.638294,14.8021524 97.2976668,14.9665624 C96.3618332,15.1496289 95.2242424,15.2708959 94.8207283,16.0346448 C94.3522415,16.8788496 94.6075725,18.1474889 93.1291605,18.433166 C90.5576127,18.878589 88.1581854,17.7265525 85.9023817,16.9173286 C83.3730092,15.7921108 80.8801125,14.5689466 78.6174696,13.0566073 L81.7076584,12.9411704 L81.7019591,12.7895867" id="Fill-7"></path>
                <path d="M84.3578068,6.40121231 L82.238827,3.61702128 C84.6081696,4.87909542 87.4759618,7.13511073 93.295759,8.6768753 C94.5339169,8.94385252 96.2841805,9.35298645 97.3539125,8.7808924 C98.4020223,7.7280082 97.8045656,5.67309261 100.208049,5.50550951 C104.724821,5.10677729 109.07203,6.71788659 112.052485,9.58182407 C111.724738,10.6069704 111.467547,11.671412 111.049896,12.6595745 C108.058061,9.97708904 104.195645,8.40874233 99.8666447,8.60406333 C98.9744427,8.73812981 97.9024347,8.82827797 97.4995782,9.5852913 C96.9874724,10.4035592 97.3550506,11.7164861 95.8107672,11.9961765 C93.114815,12.4630977 90.6259811,11.2160483 88.2657426,10.3920017 C85.8736398,9.3518307 83.5407136,8.17759322 81.3284168,6.74909172 L84.3680489,6.63236142 L84.3578068,6.40121231" id="Fill-8"></path>
                <path d="M10.097344,41.5347017 L9.96432509,41.4670738 C9.31901851,41.132494 8.41097212,40.7409645 7.31933765,40.7409645 C4.86563359,40.7409645 3.0165609,43.3677719 3.0165609,47.9368032 C3.0165609,53.0124501 5.10089016,55.1089129 7.16213349,55.1089129 C8.3032378,55.1089129 9.270648,54.5417883 9.90606061,54.1419535 L10.0346822,54.0624612 L10.8437889,55.716377 L10.7184653,55.7887506 C9.84779613,56.2811287 8.54069303,56.9680851 6.70701096,56.9680851 C2.27451331,56.9680851 0,52.8451602 0,47.9996852 C0,43.0770908 2.46689602,38.8829787 7.08188242,38.8829787 C8.18670884,38.8829787 9.45203741,39.0823029 10.6810881,39.7573947 L10.8020144,39.8238361 L10.097344,41.5347017" id="Fill-9"></path>
                <path d="M19.0713999,40.7373579 L19.0713999,47.1703592 L19.9285434,47.1703592 C21.2782588,47.1703592 23.5456892,47.1703592 23.5456892,43.6848526 C23.5456892,42.1623072 23.0679745,41.4522741 22.435974,41.1009174 C22.1102595,40.9203592 21.7331163,40.82886 21.3319731,40.7825005 C20.9251157,40.7361409 20.5068296,40.7373579 20.1079722,40.7373579 L19.0713999,40.7373579 Z M20.2634009,38.8829787 C22.0565451,38.8829787 23.2165461,38.9024985 24.4885471,39.6430314 C26.0588341,40.5665626 26.4451201,42.2745462 26.4451201,43.3530158 C26.4451201,45.3745364 25.4816907,47.608335 22.4668312,48.3927874 L28.0131213,56.9680851 L24.6954044,56.9680851 L19.8771148,48.8478431 L19.0713999,48.8478431 L19.0713999,56.9680851 L16.2656834,56.9680851 L16.2656834,38.8829787 L20.2634009,38.8829787 L20.2634009,38.8829787 Z" id="Fill-10"></path>
                <path d="M35.4427003,48.0020581 C35.4427003,53.4549971 37.2316564,55.1789137 38.8376512,55.1789137 C40.2018372,55.1789137 42.2711202,54.0138166 42.2711202,47.9213793 C42.2711202,45.6694911 42.0688997,40.6175733 38.9425062,40.6175733 C36.8710833,40.6175733 35.4427003,42.8611564 35.4427003,47.9771426 L35.4427003,48.0020581 Z M32.5313667,47.9166335 C32.5313667,41.8479253 35.5860736,38.8829787 39.0088431,38.8829787 C41.8099719,38.8829787 45.1824538,40.8797795 45.1824538,47.6852751 C45.1824538,53.6922878 42.4070039,56.9680851 38.7584749,56.9680851 C35.3453348,56.9680851 32.5313667,53.9948333 32.5313667,47.941549 L32.5313667,47.9166335 L32.5313667,47.9166335 Z" id="Fill-11"></path>
                <polyline id="Fill-12" points="50.8250562 38.8829787 53.5738424 51.7282354 56.5020472 38.8829787 58.3088853 38.8829787 61.1404801 51.6830958 63.9145689 38.8829787 65.9663825 38.8829787 61.744293 56.9680851 59.8972007 56.9680851 56.9758966 43.7690318 53.9602826 56.9680851 52.1143404 56.9680851 47.893401 38.8829787 50.8250562 38.8829787"></polyline>
                <polyline id="Fill-13" points="74.1761005 38.8829787 81.9763993 51.7026157 81.9763993 38.8829787 84.039364 38.8829787 84.039364 56.9680851 82.1563357 56.9680851 74.357183 44.1472282 74.357183 56.9680851 72.2919261 56.9680851 72.2919261 38.8829787 74.1761005 38.8829787"></polyline>
                <polyline id="Fill-14" points="101.114554 38.8829787 101.114554 40.7934804 95.0205774 40.7934804 95.0205774 46.668944 100.708136 46.668944 100.708136 48.546506 95.0205774 48.546506 95.0205774 54.9709643 101.208696 54.9709643 101.208696 56.9680851 92.1722057 56.9680851 92.1722057 38.8829787 101.114554 38.8829787"></polyline>
                <path d="M118.525983,40.7373609 L118.525983,47.1435194 L120.058482,47.1435194 C121.714181,47.1435194 123.471202,46.8458423 123.471202,43.6323931 C123.471202,42.1061878 122.981861,41.4095745 122.347445,41.0716377 C122.019299,40.8971794 121.641643,40.8130002 121.247868,40.7739606 C120.849487,40.732481 120.439592,40.7373609 120.061936,40.7373609 L118.525983,40.7373609 Z M120.209314,38.8829787 C122.189705,38.8829787 123.543739,38.9256783 124.775726,39.7796701 C126.288652,40.83252 126.510871,42.6368827 126.510871,43.6092134 C126.510871,46.3139274 124.841355,49.0430412 120.608847,49.0430412 L118.525983,49.0430412 L118.525983,56.9680851 L115.667082,56.9680851 L115.667082,38.8829787 L120.209314,38.8829787 L120.209314,38.8829787 Z" id="Fill-15"></path>
                <polyline id="Fill-16" points="134.849696 38.8829787 134.849696 54.9880441 140.969256 54.9880441 140.969256 56.9680851 131.932765 56.9680851 131.932765 38.8829787 134.849696 38.8829787"></polyline>
                <path d="M147.846677,49.273619 L151.265655,49.273619 L149.575666,43.1944173 L147.846677,49.273619 Z M150.835575,38.8829787 L156.33129,56.9680851 L153.474558,56.9680851 L151.762902,51.0523619 L147.358097,51.0523619 L145.683274,56.9680851 L143.680203,56.9680851 L149.125002,38.8829787 L150.835575,38.8829787 L150.835575,38.8829787 Z" id="Fill-17"></path>
                <polyline id="Fill-18" points="172.159209 38.8829787 172.159209 40.4238239 164.137284 54.9709643 172.596973 54.9709643 172.596973 56.9680851 160.849535 56.9680851 160.849535 55.4284599 168.921104 40.7934804 161.340328 40.7934804 161.340328 38.8829787 172.159209 38.8829787"></polyline>
                <path d="M181.279526,49.273619 L184.700671,49.273619 L183.008515,43.1944173 L181.279526,49.273619 Z M184.267341,38.8829787 L189.766306,56.9680851 L186.907407,56.9680851 L185.195751,51.0523619 L180.790946,51.0523619 L179.117206,56.9680851 L177.115219,56.9680851 L182.558935,38.8829787 L184.267341,38.8829787 L184.267341,38.8829787 Z" id="Fill-19"></path>
                <polygon id="Fill-20" points="16.2656834 66.0106383 172.596973 66.0106383 172.596973 65.106383 16.2656834 65.106383"></polygon>
                <path d="M191.041734,39.4098218 C191.269565,39.6367452 191.380702,39.9120684 191.380702,40.2349978 C191.380702,40.5603075 191.269565,40.8364241 191.041734,41.0657278 C190.816285,41.295825 190.540031,41.4092867 190.216146,41.4092867 C189.890673,41.4092867 189.618388,41.295825 189.38897,41.0657278 C189.165108,40.8364241 189.052383,40.5603075 189.052383,40.2349978 C189.052383,39.9120684 189.165108,39.6367452 189.391351,39.4098218 C189.619182,39.1797247 189.895436,39.0654696 190.216146,39.0654696 C190.537649,39.0654696 190.814698,39.1797247 191.041734,39.4098218 Z M191.176686,39.2781111 C190.913927,39.0146895 190.59163,38.8829787 190.216146,38.8829787 C189.843043,38.8829787 189.523128,39.0146895 189.260368,39.2781111 C188.996021,39.5431195 188.862657,39.8620817 188.862657,40.2349978 C188.862657,40.611881 188.99364,40.9316367 189.256399,41.1966452 C189.52154,41.462447 189.839868,41.5957447 190.216146,41.5957447 C190.59163,41.5957447 190.913927,41.462447 191.176686,41.1966452 C191.441034,40.9308433 191.573604,40.6102942 191.573604,40.2349978 C191.573604,39.8612883 191.441034,39.5415326 191.176686,39.2781111 Z M190.41778,40.1715227 C190.363005,40.1945324 190.279653,40.2056406 190.168516,40.2056406 L189.931953,40.2056406 L189.931953,39.6661024 L190.154227,39.6661024 C190.301086,39.6661024 190.405872,39.6843515 190.472555,39.7216431 C190.537649,39.7581413 190.571784,39.8311376 190.571784,39.9382518 C190.571784,40.0533004 190.520185,40.1310574 190.41778,40.1715227 Z M189.669193,40.9760693 L189.931953,40.9760693 L189.931953,40.3881314 L190.139144,40.3881314 C190.277271,40.3881314 190.376501,40.4040002 190.432069,40.4365311 C190.524948,40.4912784 190.571784,40.606327 190.571784,40.7777097 L190.571784,40.895932 L190.578929,40.9443317 L190.82978,40.9760693 C190.814698,40.9443317 190.809935,40.9189417 190.807553,40.8784763 C190.805965,40.8403913 190.804378,40.8030997 190.804378,40.7681884 L190.804378,40.6594873 C190.804378,40.5841107 190.776594,40.5079406 190.723407,40.4285968 C190.669426,40.3500464 190.582104,40.3008532 190.466204,40.2826041 C190.556701,40.2683222 190.630528,40.2445191 190.681333,40.2104012 C190.778181,40.148513 190.828987,40.0501266 190.828987,39.9176224 C190.828987,39.7295775 190.749603,39.6042142 190.596393,39.5407392 C190.510659,39.504241 190.376501,39.4867854 190.191537,39.4867854 L189.669193,39.4867854 L189.669193,40.9760693 L189.669193,40.9760693 Z" id="Fill-21"></path>
                <polyline id="Fill-22" points="35.242314 85 35.242314 75.0531915 37.1084488 75.0531915 37.1084488 78.8454493 40.6041831 78.8454493 40.6041831 75.0531915 42.4715066 75.0531915 42.4715066 85 40.6041831 85 40.6041831 80.5604573 37.1084488 80.5604573 37.1084488 85 35.242314 85"></polyline>
                <path d="M48.8504991,82.4748596 C49.3089892,81.9013722 49.5382342,81.084349 49.5382342,80.0271569 C49.5382342,78.9722094 49.3089892,78.1574307 48.8504991,77.5805764 C48.392009,77.0048444 47.7727982,76.7175396 46.9928667,76.7175396 C46.2129352,76.7175396 45.5899867,77.0037221 45.1252671,77.5772096 C44.6605475,78.1518193 44.4288107,78.9677202 44.4288107,80.0271569 C44.4288107,81.084349 44.6605475,81.9013722 45.1252671,82.4748596 C45.5899867,83.0483471 46.2129352,83.3356519 46.9928667,83.3356519 C47.7727982,83.3356519 48.392009,83.0483471 48.8504991,82.4748596 Z M50.0814453,83.9035279 C49.3700381,84.6341352 48.3396813,85 46.9928667,85 C45.6460521,85 44.6156953,84.6341352 43.9042881,83.9035279 C42.9486851,83.0068225 42.4715066,81.7139507 42.4715066,80.0271569 C42.4715066,78.3055723 42.9486851,77.0127004 43.9042881,76.1496636 C44.6156953,75.417934 45.6460521,75.0531915 46.9928667,75.0531915 C48.3396813,75.0531915 49.3700381,75.417934 50.0814453,76.1496636 C51.0320647,77.0127004 51.5079973,78.3055723 51.5079973,80.0271569 C51.5079973,81.7139507 51.0320647,83.0068225 50.0814453,83.9035279 L50.0814453,83.9035279 Z" id="Fill-23"></path>
                <polyline id="Fill-24" points="59.640839 75.0531915 59.640839 76.8145189 56.9711812 76.8145189 56.9711812 85 55.0942809 85 55.0942809 76.8145189 52.4116464 76.8145189 52.4116464 75.0531915 59.640839 75.0531915"></polyline>
                <polyline id="Fill-25" points="67.5404403 76.8145189 62.4923609 76.8145189 62.4923609 78.9273992 67.1256505 78.9273992 67.1256505 80.6542839 62.4923609 80.6542839 62.4923609 83.211356 67.7736807 83.211356 67.7736807 85 60.5444881 85 60.5444881 75.0531915 67.5404403 75.0531915 67.5404403 76.8145189"></polyline>
                <polyline id="Fill-26" points="67.7736807 75.0531915 69.6410085 75.0531915 69.6410085 83.211356 74.0992242 83.211356 74.0992242 85 67.7736807 85 67.7736807 75.0531915"></polyline>
                <path d="M77.6458163,81.8465183 C77.7022944,82.2777156 77.8129453,82.5985804 77.977769,82.8113644 C78.2797538,83.1997796 78.7984299,83.3945502 79.5303396,83.3945502 C79.9694854,83.3945502 80.325643,83.3427615 80.599965,83.2403099 C81.1197938,83.0455394 81.3791318,82.6796409 81.3791318,82.147118 C81.3791318,81.8352599 81.2511917,81.5943299 80.9976167,81.4243278 C80.7428891,81.2588291 80.3394743,81.1113439 79.7862198,80.9818721 L78.8422292,80.7589556 C77.9143753,80.5371648 77.27698,80.2962348 76.9300433,80.0361654 C76.3422103,79.6015906 76.0482938,78.9204566 76.0482938,77.995015 C76.0482938,77.1517598 76.3364472,76.4503606 76.9104488,75.8908175 C77.485603,75.3324001 78.3304688,75.0531915 79.4450462,75.0531915 C80.3752054,75.0531915 81.1682035,75.3166384 81.8251933,75.8435321 C82.482183,76.3704259 82.8256619,77.1348722 82.8579351,78.1357452 L81.107115,78.1357452 C81.0748418,77.569447 80.8408613,77.1663957 80.4040207,76.9277174 C80.1124095,76.7689737 79.7504888,76.6912907 79.3182587,76.6912907 C78.8364662,76.6912907 78.4526458,76.7937422 78.1656451,76.9975195 C77.8786443,77.2024227 77.7345676,77.4883864 77.7345676,77.8542848 C77.7345676,78.1920372 77.876339,78.4442257 78.1587294,78.6097244 C78.3408423,78.7211827 78.7281205,78.8506544 79.3182587,79.0003913 L80.8477769,79.3899324 C81.5185981,79.5610603 82.0211376,79.7884803 82.3565482,80.074444 C82.8763769,80.5180255 83.135715,81.1597551 83.135715,81.9996327 C83.135715,82.8609014 82.8279671,83.5769365 82.2124715,84.1454864 C81.5958232,84.7151621 80.7255999,85 79.6018016,85 C78.4537985,85 77.551302,84.7196655 76.8931596,84.1589965 C76.2350172,83.5983275 75.9065224,82.8271262 75.9065224,81.8465183 L77.6458163,81.8465183" id="Fill-27"></path>
                <path d="M90.5189252,77.8037933 C90.5949441,77.9316742 90.75886,78.1583721 91.0130485,78.4850497 C91.2660491,78.2990411 91.4465941,78.1432589 91.5558714,78.015378 C91.7672991,77.7770545 91.8718252,77.5178051 91.8718252,77.2411173 C91.8718252,77.0376705 91.808872,76.8574747 91.6829656,76.6982048 C91.5558714,76.5400975 91.3646362,76.4598813 91.1068844,76.4598813 C90.9477197,76.4598813 90.7980573,76.5063835 90.6578973,76.5982252 C90.4476574,76.7365691 90.3419435,76.9516415 90.3419435,77.2480927 C90.3419435,77.4236383 90.4013333,77.6096468 90.5189252,77.8037933 Z M89.7539843,83.0178461 C89.9998582,83.286396 90.315812,83.4224148 90.700658,83.4224148 C90.9892925,83.4224148 91.2636735,83.351499 91.5226131,83.2096675 C91.7803649,83.0678359 91.9906049,82.9097286 92.1521452,82.7365082 L90.4714133,80.5183559 C90.0307409,80.8310828 89.7397308,81.106608 89.5971952,81.3449315 C89.4558474,81.583255 89.3857674,81.8448296 89.3857674,82.1319803 C89.3857674,82.4540076 89.5081105,82.7492963 89.7539843,83.0178461 Z M88.0554355,80.6869262 C88.3238775,80.2684069 88.7633621,79.8533753 89.3727017,79.4453189 L89.5615613,79.3186006 C89.3014339,79.002386 89.1006963,78.6780336 88.9581608,78.3467058 C88.8156252,78.0165406 88.7455452,77.6724247 88.7455452,77.3155208 C88.7455452,76.6052005 88.9676631,76.0506625 89.411899,75.6519066 C89.8561348,75.2519882 90.4310282,75.0531915 91.1389549,75.0531915 C91.7851161,75.0531915 92.3184367,75.2566384 92.7401044,75.6658572 C93.1617721,76.0739135 93.372012,76.5959001 93.372012,77.2329795 C93.372012,77.8061184 93.2461056,78.2734649 92.993105,78.6303689 C92.7401044,78.9884354 92.3695119,79.3197632 91.8801398,79.6243522 L93.1712744,81.3205179 C93.319749,81.0926574 93.4337774,80.8438709 93.5145476,80.5741585 C93.5941299,80.3067712 93.6368906,80.0219455 93.640454,79.7231693 L95.1822137,79.7231693 C95.1548944,80.314909 95.023049,80.9124616 94.7878653,81.518152 C94.6583955,81.8587802 94.4469677,82.2331225 94.1559576,82.6446664 L95.786802,84.7558637 L93.6832147,84.7558637 L93.0584338,83.9316133 C92.7543579,84.2373648 92.4704746,84.4629002 92.2079716,84.6082194 C91.7399798,84.869794 91.1983447,85 90.5866296,85 C89.6660874,85 88.9474706,84.7093616 88.4295914,84.1280848 C87.9117122,83.546808 87.6539603,82.9015908 87.6539603,82.1924331 C87.6539603,81.6065061 87.7869935,81.1042829 88.0554355,80.6869262 L88.0554355,80.6869262 Z" id="Fill-28"></path>
                <path d="M101.213094,76.7812639 L101.213094,79.4535408 L103.207718,79.4535408 C103.605235,79.4535408 103.901908,79.3989076 104.10008,79.2908288 C104.450693,79.1019879 104.625413,78.7290568 104.625413,78.1708479 C104.625413,77.5686948 104.456556,77.1636964 104.11767,76.9570403 C103.927705,76.8394601 103.641587,76.7812639 103.259313,76.7812639 L101.213094,76.7812639 Z M105.045211,75.3097301 C105.371199,75.4676913 105.649109,75.6992887 105.875425,76.0057097 C106.063044,76.2574976 106.211966,76.5354144 106.322192,76.8418355 C106.432418,77.1482566 106.485186,77.4962464 106.485186,77.8881804 C106.485186,78.3596888 106.380823,78.8252588 106.167407,79.2813274 C105.95399,79.737396 105.603377,80.0604446 105.113223,80.2492855 C105.523639,80.4333757 105.813276,80.6958527 105.984478,81.0355287 C106.154508,81.3752048 106.238936,81.8942204 106.238936,82.5913877 L106.238936,83.2588631 C106.238936,83.713744 106.255353,84.0213528 106.288186,84.1840648 C106.336264,84.4394157 106.45118,84.6294443 106.630591,84.7505875 L106.630591,85 L104.584372,85 C104.526913,84.7790918 104.487044,84.6021277 104.463592,84.4667323 C104.415515,84.1876278 104.389717,83.9025849 104.385027,83.610416 L104.374473,82.6852144 C104.366265,82.0521816 104.268937,81.6281804 104.081318,81.4167736 C103.891354,81.2053668 103.540741,81.0996634 103.023617,81.0996634 L101.213094,81.0996634 L101.213094,85 L99.4013983,85 L99.4013983,75.0531915 L103.646277,75.0531915 C104.251348,75.0674436 104.719223,75.1529565 105.045211,75.3097301 L105.045211,75.3097301 Z" id="Fill-29"></path>
                <polyline id="Fill-30" points="115.435062 76.8145189 110.386102 76.8145189 110.386102 78.9273992 115.02146 78.9273992 115.02146 80.6542839 110.386102 80.6542839 110.386102 83.211356 115.667082 83.211356 115.667082 85 108.437889 85 108.437889 75.0531915 115.435062 75.0531915 115.435062 76.8145189"></polyline>
                <path d="M118.310025,81.8465183 C118.366503,82.2777156 118.477154,82.5985804 118.64313,82.8113644 C118.943962,83.1997796 119.461486,83.3945502 120.194548,83.3945502 C120.633694,83.3945502 120.989851,83.3427615 121.264173,83.2403099 C121.78285,83.0455394 122.04334,82.6796409 122.04334,82.147118 C122.04334,81.8352599 121.9154,81.5943299 121.661825,81.4243278 C121.407098,81.2588291 121.00253,81.1113439 120.450428,80.9818721 L119.50759,80.7589556 C118.578584,80.5371648 117.941188,80.2962348 117.594252,80.0361654 C117.006419,79.6015906 116.712502,78.9204566 116.712502,77.995015 C116.712502,77.1517598 117.000656,76.4503606 117.57581,75.8908175 C118.149811,75.3324001 118.994677,75.0531915 120.108102,75.0531915 C121.039414,75.0531915 121.832412,75.3166384 122.488249,75.8435321 C123.146391,76.3704259 123.491023,77.1348722 123.522143,78.1357452 L121.770171,78.1357452 C121.73905,77.569447 121.503917,77.1663957 121.067076,76.9277174 C120.776618,76.7689737 120.414697,76.6912907 119.982467,76.6912907 C119.500675,76.6912907 119.116854,76.7937422 118.829853,76.9975195 C118.542853,77.2024227 118.398776,77.4883864 118.398776,77.8542848 C118.398776,78.1920372 118.540547,78.4442257 118.82409,78.6097244 C119.005051,78.7211827 119.391176,78.8506544 119.982467,79.0003913 L121.511985,79.3899324 C122.182806,79.5610603 122.685346,79.7884803 123.019604,80.074444 C123.540585,80.5180255 123.799923,81.1597551 123.799923,81.9996327 C123.799923,82.8609014 123.492176,83.5769365 122.875527,84.1454864 C122.260032,84.7151621 121.389808,85 120.26601,85 C119.118007,85 118.214358,84.7196655 117.557368,84.1589965 C116.899226,83.5983275 116.570731,82.8271262 116.570731,81.8465183 L118.310025,81.8465183" id="Fill-31"></path>
                <path d="M131.082565,82.4748596 C131.542301,81.9013722 131.7703,81.084349 131.7703,80.0271569 C131.7703,78.9722094 131.542301,78.1574307 131.082565,77.5805764 C130.624075,77.0048444 130.00611,76.7175396 129.224933,76.7175396 C128.445001,76.7175396 127.822053,77.0037221 127.358579,77.5772096 C126.893859,78.1518193 126.662122,78.9677202 126.662122,80.0271569 C126.662122,81.084349 126.893859,81.9013722 127.358579,82.4748596 C127.822053,83.0483471 128.445001,83.3356519 129.224933,83.3356519 C130.00611,83.3356519 130.624075,83.0483471 131.082565,82.4748596 Z M132.314757,83.9035279 C131.602104,84.6341352 130.572993,85 129.224933,85 C127.878118,85 126.849007,84.6341352 126.1376,83.9035279 C125.181997,83.0068225 124.703572,81.7139507 124.703572,80.0271569 C124.703572,78.3055723 125.181997,77.0127004 126.1376,76.1496636 C126.849007,75.417934 127.878118,75.0531915 129.224933,75.0531915 C130.572993,75.0531915 131.602104,75.417934 132.314757,76.1496636 C133.264131,77.0127004 133.740063,78.3055723 133.740063,80.0271569 C133.740063,81.7139507 133.264131,83.0068225 132.314757,83.9035279 L132.314757,83.9035279 Z" id="Fill-32"></path>
                <path d="M136.455702,76.7812639 L136.455702,79.4535408 L138.450649,79.4535408 C138.847059,79.4535408 139.144952,79.3989076 139.343157,79.2908288 C139.693826,79.1019879 139.868575,78.7290568 139.868575,78.1708479 C139.868575,77.5686948 139.69969,77.1636964 139.360749,76.9570403 C139.170754,76.8394601 138.884588,76.7812639 138.502253,76.7812639 L136.455702,76.7812639 Z M140.28844,75.3097301 C140.614481,75.4676913 140.892437,75.6992887 141.118789,76.0057097 C141.306438,76.2574976 141.455385,76.5354144 141.565629,76.8418355 C141.6747,77.1482566 141.728649,77.4962464 141.728649,77.8881804 C141.728649,78.3596888 141.623097,78.8252588 141.410818,79.2813274 C141.197367,79.737396 140.845525,80.0604446 140.356463,80.2492855 C140.765774,80.4333757 141.055457,80.6958527 141.226687,81.0355287 C141.396745,81.3752048 141.48236,81.8942204 141.48236,82.5913877 L141.48236,83.2588631 C141.48236,83.713744 141.498779,84.0213528 141.531618,84.1840648 C141.579703,84.4394157 141.694638,84.6294443 141.872905,84.7505875 L141.872905,85 L139.826354,85 C139.770059,84.7790918 139.730183,84.6021277 139.706727,84.4667323 C139.658642,84.1876278 139.631668,83.9025849 139.628149,83.610416 L139.616421,82.6852144 C139.609384,82.0521816 139.510868,81.6281804 139.323219,81.4167736 C139.135569,81.2053668 138.783727,81.0996634 138.266518,81.0996634 L136.455702,81.0996634 L136.455702,85 L134.643712,85 L134.643712,75.0531915 L138.88928,75.0531915 C139.494449,75.0674436 139.9624,75.1529565 140.28844,75.3097301 L140.28844,75.3097301 Z" id="Fill-33"></path>
                <polyline id="Fill-34" points="149.102098 75.0531915 149.102098 76.8145189 146.431696 76.8145189 146.431696 85 144.556281 85 144.556281 76.8145189 141.872905 76.8145189 141.872905 75.0531915 149.102098 75.0531915"></polyline>
                <path d="M150.841669,81.8465183 C150.897003,82.2777156 151.007672,82.5985804 151.173674,82.8113644 C151.474555,83.1997796 151.993313,83.3945502 152.72534,83.3945502 C153.164556,83.3945502 153.521923,83.3427615 153.795136,83.2403099 C154.315047,83.0455394 154.574427,82.6796409 154.574427,82.147118 C154.574427,81.8352599 154.447619,81.5943299 154.192851,81.4243278 C153.938083,81.2588291 153.535756,81.1113439 152.982414,80.9818721 L152.038273,80.7589556 C151.110271,80.5371648 150.471621,80.2962348 150.125782,80.0361654 C149.537855,79.6015906 149.243892,78.9204566 149.243892,77.995015 C149.243892,77.1517598 149.530938,76.4503606 150.106184,75.8908175 C150.68143,75.3324001 151.525278,75.0531915 152.640033,75.0531915 C153.57034,75.0531915 154.363465,75.3166384 155.021712,75.8435321 C155.677654,76.3704259 156.02234,77.1348722 156.053466,78.1357452 L154.303519,78.1357452 C154.270088,77.569447 154.03607,77.1663957 153.59916,76.9277174 C153.307502,76.7689737 152.945524,76.6912907 152.513225,76.6912907 C152.032509,76.6912907 151.647474,76.7937422 151.360428,76.9975195 C151.073381,77.2024227 150.930434,77.4883864 150.930434,77.8542848 C150.930434,78.1920372 151.071075,78.4442257 151.354664,78.6097244 C151.536806,78.7211827 151.922993,78.8506544 152.513225,79.0003913 L154.04414,79.3899324 C154.715068,79.5610603 155.217688,79.7884803 155.553152,80.074444 C156.073063,80.5180255 156.33129,81.1597551 156.33129,81.9996327 C156.33129,82.8609014 156.024646,83.5769365 155.409052,84.1454864 C154.791153,84.7151621 153.920791,85 152.797966,85 C151.64978,85 150.747139,84.7196655 150.087739,84.1589965 C149.430645,83.5983275 149.102098,82.8271262 149.102098,81.8465183 L150.841669,81.8465183" id="Fill-35"></path>
            </g>
        </g>
    </g>
</svg>