<?xml version="1.0" encoding="UTF-8"?>
<svg width="150px" height="60px" viewBox="0 0 150 60" version="1.1" xmlns="http://www.w3.org/2000/svg" xmlns:xlink="http://www.w3.org/1999/xlink">
    <title>Artboard</title>
    <g id="Artboard" stroke="none" stroke-width="1" fill="none" fill-rule="evenodd">
        <g id="Group-140" transform="translate(46.000000, 0.000000)">
            <g id="Group-139" transform="translate(0.000000, 0.500000)">
                <path d="M27.6661343,50.7597297 C23.2308796,50.5043243 19.0037269,49.0109459 15.3675833,46.4021622 C12.2078319,44.1328378 9.64791065,41.1491892 7.86266528,37.6791892 L9.14363287,37.205 C10.0830449,39.3386486 11.4276514,41.3213514 13.140531,43.0590541 C16.5818241,46.5495946 21.257,48.7909459 26.3103843,49.3745946 L27.6661343,50.7597297 Z M50.1293194,37.6791892 C48.343537,41.1491892 45.7838843,44.1328378 42.6235556,46.4021622 C38.9876806,49.0109459 34.7605278,50.5043243 30.3254074,50.7597297 L31.6814259,49.3745946 C36.7348102,48.7906757 41.4098519,46.5493243 44.8506481,43.0590541 C46.5637963,41.3213514 47.9086713,39.3386486 48.8483519,37.205 L50.1293194,37.6791892 Z M57.9814722,37.2536486 C57.9692546,37.2244595 57.9457593,37.2010811 57.9162222,37.1895946 L54.3043796,35.7575676 C54.371375,35.5024324 54.5021435,35.1386486 54.7497176,34.7682432 L56.6128333,35.6156757 C56.673787,35.6425676 56.7368889,35.657027 56.8024074,35.657027 C56.9718426,35.657027 57.1289259,35.5632432 57.2117639,35.4128378 C57.2639907,35.3316216 57.4069769,35.0924324 57.5259306,34.7775676 C57.7142963,34.2797297 57.7544398,33.8362162 57.6463611,33.4578378 C57.5343889,33.067027 57.2618426,32.7644595 56.8590648,32.5828378 L51.887713,30.2337838 C51.8791204,30.2293243 51.8674398,30.2247297 51.8553565,30.2185135 L51.8481065,30.2152703 C51.5999954,30.1035135 51.0459074,29.9477027 50.4088472,30.4178378 C50.4167685,30.1990541 50.4224074,29.9793243 50.4224074,29.7593243 C50.4224074,28.5309459 50.22075,26.9193243 50.0209722,25.8697297 C49.7920602,24.5756757 49.3508843,23.0205405 49.0388657,22.1266216 L48.77075,21.3106757 L48.7651111,21.2958108 C48.5720463,20.767973 48.3911991,20.2267568 48.2271343,19.6877027 C47.6900972,17.9214865 47.3696204,16.29 47.3696204,15.3224324 C47.3696204,13.6685135 48.7988102,11.0933784 50.6933426,9.33243243 L51.5817361,8.5072973 L51.5817361,8.50702703 L42.5693148,0.117972973 L41.8581435,0.594864865 C40.2083657,1.70243243 38.0729722,2.3127027 35.8461481,2.3127027 C33.5108426,2.3127027 31.3008009,1.65121622 29.6239028,0.45027027 L28.9948981,0 L28.3662963,0.45027027 C26.6892639,1.65121622 24.4797593,2.3127027 22.1439167,2.3127027 C19.9168241,2.3127027 17.7819676,1.70243243 16.1315185,0.594864865 L15.421287,0.117972973 L7.27957731,7.69594595 L6.40998009,8.50648649 L6.40998009,8.5072973 L7.29770231,9.33243243 C9.19290602,11.0936486 10.6220958,13.6687838 10.6220958,15.3224324 C10.6220958,16.2894595 10.301619,17.9214865 9.76458194,19.6877027 C9.60078565,20.2274324 9.41966991,20.7682432 9.22633657,21.2962162 L8.95379028,22.1236486 C8.64029491,23.0228378 8.19898472,24.5787838 7.9716838,25.8675676 C7.77123472,26.9193243 7.5693088,28.5309459 7.5693088,29.7593243 C7.5693088,29.9795946 7.57494769,30.1995946 7.5831375,30.4186486 C6.9458088,29.9477027 6.39212361,30.1028378 6.14360972,30.2152703 L6.13568843,30.2185135 C6.12427639,30.2247297 6.11259583,30.2293243 6.10400324,30.2337838 L1.13238287,32.5828378 C0.729202315,32.7644595 0.457058796,33.067027 0.345086574,33.4578378 C0.236739352,33.8362162 0.277419907,34.2797297 0.465785648,34.7775676 C0.584739352,35.0924324 0.727725463,35.3316216 0.779683796,35.4128378 C0.862521759,35.5632432 1.01933657,35.657027 1.1893088,35.657027 C1.25429028,35.657027 1.31819769,35.6425676 1.37848009,35.6156757 L3.24173009,34.7682432 C3.48957269,35.1386486 3.61966991,35.5024324 3.68706806,35.7575676 L0.0749569444,37.1895946 C0.0456884259,37.2010811 0.0221930556,37.2244595 0.0098412037,37.2536486 C-0.00291342593,37.2831081 -0.00318194444,37.3158108 0.00849861111,37.3456757 L0.225864352,37.9066216 C2.4834338,43.7237838 6.31935509,48.6962162 11.3191699,52.2871622 C15.9632917,55.625 21.4034769,57.5766216 27.0540463,57.9322973 L28.9131343,59.8306757 C28.9359583,59.8543243 28.9661667,59.8660811 28.996375,59.8660811 C29.025912,59.8660811 29.0561204,59.8543243 29.0786759,59.8306757 L30.9383009,57.9322973 C36.5883333,57.5766216 42.0283843,55.6245946 46.6722778,52.2871622 C51.6719583,48.6962162 55.5080139,43.7237838 57.7653148,37.9066216 L57.9829491,37.3456757 C57.9946296,37.3158108 57.9940926,37.2831081 57.9814722,37.2536486 Z" id="Fill-1" fill="#9DA6B9"></path>
                <path d="M9.04683194,26.0743243 C9.27359583,24.7885135 9.71490602,23.2721622 9.98798935,22.4908108 L10.2516745,21.6875676 C10.4552116,21.1313514 10.6422347,20.5704054 10.8097903,20.0194595 C11.3740819,18.162973 11.7163088,16.4168919 11.7163088,15.3224324 C11.7163088,13.2297297 10.0371282,10.375 8.05317917,8.52324324 L8.03653102,8.50527027 L15.5304398,1.53027027 C17.2932639,2.71378378 19.6086991,3.43189189 22.1440509,3.43189189 C24.7959398,3.43189189 27.2046852,2.64851351 28.9947639,1.36635135 C30.7855139,2.64851351 33.1937222,3.43189189 35.8462824,3.43189189 C38.3812315,3.43189189 40.6962639,2.71378378 42.459625,1.53027027 L49.9549167,8.50554054 L49.9381343,8.52324324 C47.9543194,10.375 46.2750046,13.2297297 46.2750046,15.3224324 C46.2750046,16.4164865 46.6176343,18.1627027 47.1819259,20.0194595 C47.3494815,20.5701351 47.5361019,21.1310811 47.7395046,21.6871622 L48.0041296,22.4905405 C48.2768102,23.2717568 48.7181204,24.7885135 48.9446157,26.0743243 L48.9443472,26.0743243 C49.144662,27.1251351 49.3275231,28.6563514 49.3275231,29.7593243 C49.3275231,39.3828378 41.382463,47.3031081 31.1819815,48.3031081 L28.9955694,50.5367568 L26.8100972,48.3033784 C16.609213,47.3031081 8.66392454,39.3828378 8.66392454,29.7593243 C8.66392454,28.6563514 8.84665139,27.1251351 9.04683194,26.0743243 Z" id="Fill-2" fill="#1A202C"></path>
                <path d="M21.633463,12.1760811 C21.4127407,12.1244595 21.1095833,12.1922973 20.8211944,12.3793243 C20.5326713,12.5659459 20.329537,12.8266216 20.2586481,13.0664865 C20.4795046,13.1181081 20.7827963,13.0498649 21.0707824,12.8635135 C21.3591713,12.6768919 21.5631111,12.4158108 21.633463,12.1760811 Z" id="Fill-3" fill="#9DA6B9"></path>
                <path d="M20.445537,7.99851351 C20.4733287,7.74783784 20.3887454,7.41418919 20.1991713,7.10756757 C20.0095972,6.80081081 19.7610833,6.59405405 19.5425093,6.53513514 C19.5144491,6.78581081 19.5993009,7.11878378 19.788875,7.42581081 C19.9784491,7.7327027 20.2264259,7.93918919 20.445537,7.99851351 Z" id="Fill-4" fill="#9DA6B9"></path>
                <path d="M20.4604398,9.08891892 C20.4252639,9.31283784 20.4871574,9.61567568 20.6435694,9.90108108 C20.8006528,10.1860811 21.0142593,10.3844595 21.2081296,10.4493243 C21.2439769,10.2264865 21.1818148,9.92297297 21.0254028,9.6377027 C20.8683194,9.3522973 20.654713,9.15445946 20.4604398,9.08891892 Z" id="Fill-5" fill="#9DA6B9"></path>
                <path d="M20.8951713,8.37702703 C21.035338,8.17878378 21.1176389,7.84472973 21.0976343,7.47256757 C21.0787037,7.09918919 20.9623009,6.77891892 20.8023981,6.60013514 C20.661963,6.79837838 20.5806019,7.13216216 20.5999352,7.50527027 C20.6192685,7.87716216 20.735537,8.19851351 20.8951713,8.37702703 Z" id="Fill-6" fill="#9DA6B9"></path>
                <path d="M21.3205046,10.1283784 C21.5320972,10.0416216 21.7583241,9.80540541 21.9150046,9.47608108 C22.072625,9.14716216 22.1231065,8.80540541 22.0703426,8.55945946 C21.858213,8.64648649 21.6325231,8.88297297 21.4753056,9.21202703 C21.3179537,9.54094595 21.2677407,9.88243243 21.3205046,10.1283784 Z" id="Fill-7" fill="#9DA6B9"></path>
                <path d="M20.2256204,8.69675676 C20.4585602,8.9072973 20.7190231,9.01432432 20.9210833,9.00337838 C20.8880556,8.77959459 20.7398333,8.51675676 20.5074306,8.30594595 C20.2747593,8.09540541 20.0142963,7.98837838 19.8123704,7.99918919 C19.8449954,8.22310811 19.9932176,8.48608108 20.2256204,8.69675676 Z" id="Fill-8" fill="#9DA6B9"></path>
                <path d="M21.1644954,9.43621622 C21.3411806,9.27932432 21.4891343,8.97527027 21.5463287,8.60716216 C21.6033889,8.23972973 21.5553241,7.8972973 21.4358333,7.6827027 C21.2591481,7.83959459 21.1111944,8.14418919 21.0544028,8.51189189 C20.9974769,8.88 21.0452731,9.22175676 21.1644954,9.43621622 Z" id="Fill-9" fill="#9DA6B9"></path>
                <path d="M22.203125,11.1052703 C21.982537,11.0539189 21.6789769,11.1217568 21.3912593,11.3083784 C21.1030046,11.4951351 20.8990648,11.7555405 20.8289815,11.9958108 C21.0497037,12.0471622 21.3528611,11.9793243 21.6405787,11.7924324 C21.9289676,11.6059459 22.1325046,11.3452703 22.203125,11.1052703 Z" id="Fill-10" fill="#9DA6B9"></path>
                <path d="M21.7663796,10.8052703 C21.9795833,10.5181081 22.0903472,10.1943243 22.0824259,9.94216216 C21.8591528,9.97959459 21.5957361,10.1604054 21.383338,10.4475676 C21.17,10.7348649 21.0596389,11.0581081 21.0675602,11.3110811 C21.2904306,11.2733784 21.5538472,11.092027 21.7663796,10.8052703 Z" id="Fill-11" fill="#9DA6B9"></path>
                <path d="M20.4666157,12.1889189 C20.6427639,12.0302703 20.7887037,11.725 20.8428102,11.3566216 C20.8979907,10.9889189 20.8475093,10.6464865 20.7270787,10.432973 C20.5510648,10.5916216 20.405662,10.8971622 20.3506157,11.2645946 C20.2961065,11.6332432 20.3459167,11.975 20.4666157,12.1889189 Z" id="Fill-12" fill="#9DA6B9"></path>
                <path d="M20.4245926,13.245 C20.0967315,13.3110811 19.8259306,13.4791892 19.6864352,13.677973 C19.8792315,13.8104054 20.1842685,13.8613514 20.5125324,13.7955405 C20.8399907,13.7291892 21.1105231,13.5614865 21.2496157,13.3624324 C21.0574907,13.2302703 20.7515139,13.1790541 20.4245926,13.245 Z" id="Fill-13" fill="#9DA6B9"></path>
                <path d="M14.4303194,11.9956757 C14.3599676,11.7554054 14.1562963,11.495 13.8680417,11.3082432 C13.5800556,11.1218919 13.2766699,11.0537838 13.0558134,11.1051351 C13.1264338,11.3451351 13.3301051,11.6058108 13.6187222,11.7925676 C13.9069769,11.9791892 14.2095972,12.047027 14.4303194,11.9956757 Z" id="Fill-14" fill="#9DA6B9"></path>
                <path d="M15.0006528,13.0663514 C14.9296296,12.8266216 14.7260926,12.5659459 14.4377037,12.3793243 C14.1494491,12.1922973 13.8464259,12.1244595 13.6261065,12.1760811 C13.6961898,12.4158108 13.8997269,12.6768919 14.1881157,12.8637838 C14.4763704,13.0501351 14.7793935,13.117973 15.0006528,13.0663514 Z" id="Fill-15" fill="#9DA6B9"></path>
                <path d="M15.5723287,13.677973 C15.4332361,13.4793243 15.1627037,13.3112162 14.8348426,13.2451351 C14.50725,13.1790541 14.2016759,13.2304054 14.0094167,13.3624324 C14.1481065,13.5614865 14.4185046,13.7293243 14.7466343,13.7956757 C15.0744954,13.8613514 15.3802037,13.8104054 15.5723287,13.677973 Z" id="Fill-16" fill="#9DA6B9"></path>
                <path d="M20.1302963,12.8562162 C20.2820093,12.5244595 20.3280602,12.1814865 20.2712685,11.9367568 C20.0599444,12.0275676 19.8381481,12.2687838 19.6860324,12.6008108 C19.5343194,12.9332432 19.4892083,13.2756757 19.546,13.52 C19.7563843,13.4295946 19.9784491,13.1886486 20.1302963,12.8562162 Z" id="Fill-17" fill="#9DA6B9"></path>
                <path d="M14.8493426,14.2971622 C15.0338148,14.4425676 15.3356296,14.5163514 15.6664444,14.4737838 C15.9975278,14.4308108 16.276787,14.2832432 16.4267546,14.0939189 C16.2428194,13.9482432 15.9404676,13.8751351 15.6096528,13.9175676 C15.278838,13.9606757 14.9993102,14.1081081 14.8493426,14.2971622 Z" id="Fill-18" fill="#9DA6B9"></path>
                <path d="M16.4408519,13.9487838 C16.7182315,14.1558108 17.0172269,14.2441892 17.2398287,14.2082432 C17.1833056,13.9637838 16.994,13.6894595 16.7171574,13.4831081 C16.439375,13.277027 16.1407824,13.1885135 15.9172407,13.2241892 C15.9743009,13.4683784 16.163338,13.7432432 16.4408519,13.9487838 Z" id="Fill-19" fill="#9DA6B9"></path>
                <path d="M14.9883009,11.9367568 C14.9316435,12.1814865 14.9767546,12.5244595 15.1286019,12.8562162 C15.2805833,13.1886486 15.5030509,13.4295946 15.7131667,13.52 C15.7699583,13.2756757 15.7248472,12.9332432 15.572463,12.6008108 C15.42075,12.2687838 15.1985509,12.0275676 14.9883009,11.9367568 Z" id="Fill-20" fill="#9DA6B9"></path>
                <path d="M15.4702917,7.42581081 C15.6598657,7.11878378 15.7444491,6.78581081 15.7166574,6.53486486 C15.4975463,6.59418919 15.2493009,6.80094595 15.0597269,7.10756757 C14.8704213,7.41432432 14.785838,7.74756757 14.8133611,7.99851351 C15.0324722,7.93918919 15.2809861,7.73283784 15.4702917,7.42581081 Z" id="Fill-21" fill="#9DA6B9"></path>
                <path d="M15.033412,8.69675676 C15.2658148,8.48608108 15.4143056,8.22310811 15.4467963,7.99918919 C15.2447361,7.98837838 14.9842731,8.09540541 14.7521389,8.30594595 C14.5191991,8.51675676 14.3704398,8.77959459 14.3380833,9.00337838 C14.5402778,9.01432432 14.8004722,8.9072973 15.033412,8.69675676 Z" id="Fill-22" fill="#9DA6B9"></path>
                <path d="M19.592588,14.4737838 C19.9236713,14.5163514 20.2250833,14.4425676 20.4099583,14.2971622 C20.2599907,14.1081081 19.9801944,13.9606757 19.6493796,13.9177027 C19.3188333,13.8751351 19.01675,13.9483784 18.8325463,14.0940541 C18.9825139,14.2833784 19.2617731,14.4308108 19.592588,14.4737838 Z" id="Fill-23" fill="#9DA6B9"></path>
                <path d="M16.6218333,14.3477027 C16.2967917,14.4294595 16.033375,14.6105405 15.9022037,14.8160811 C16.0990278,14.9385135 16.4064815,14.9756757 16.7316574,14.8933784 C17.0446157,14.8140541 17.3013194,14.642973 17.4365185,14.4459459 C17.4773333,14.4828378 17.5166713,14.5208108 17.5550694,14.5597297 C17.1925694,14.7712162 16.8781343,15.0525676 16.6053194,15.412973 C16.7125926,15.5843243 16.7665648,15.6701351 16.873838,15.8412162 C17.081537,15.3681081 17.3350185,14.9741892 17.6399213,14.6497297 C17.9318009,14.9714865 18.1523889,15.3595946 18.3610278,15.8352703 C18.4685694,15.6641892 18.5221389,15.5783784 18.629412,15.407027 C18.3557917,15.0455405 18.0727731,14.7706757 17.7251759,14.5624324 C17.7642454,14.5240541 17.8037176,14.4866216 17.8438611,14.4501351 C17.9804028,14.645 18.2353611,14.8145946 18.5465741,14.8933784 C18.8714815,14.9756757 19.1788009,14.9385135 19.3757593,14.8160811 C19.2447222,14.6105405 18.9807685,14.4294595 18.6558611,14.3477027 C18.3847917,14.2793243 18.1266111,14.2945946 17.9335463,14.3721622 C17.7492083,14.4468919 17.6388472,14.5125676 17.6388472,14.5125676 C17.5560093,14.4668919 17.4691435,14.425 17.3786528,14.3860811 C17.3731481,14.3836486 17.367912,14.3816216 17.3630787,14.3793243 C17.3610648,14.3783784 17.3586481,14.3775676 17.3563657,14.3763514 C17.3566343,14.3766216 17.3569028,14.3772973 17.3571713,14.3772973 C17.1630324,14.295 16.8989444,14.2778378 16.6218333,14.3477027 Z" id="Fill-24" fill="#9DA6B9"></path>
                <path d="M13.9383935,10.1283784 C13.9916944,9.88243243 13.9413472,9.54094595 13.7837269,9.21202703 C13.626375,8.88297297 13.4007255,8.64648649 13.1888644,8.55945946 C13.1361005,8.80540541 13.1865819,9.14716216 13.3436653,9.47608108 C13.5009769,9.80540541 13.7265324,10.0416216 13.9383935,10.1283784 Z" id="Fill-25" fill="#9DA6B9"></path>
                <path d="M18.8181806,13.9487838 C19.0956944,13.7432432 19.2845972,13.4683784 19.3417917,13.2241892 C19.118787,13.1885135 18.8196574,13.277027 18.5421435,13.4831081 C18.2650324,13.6894595 18.0759954,13.9637838 18.0190694,14.2082432 C18.2420741,14.2441892 18.5409352,14.1558108 18.8181806,13.9487838 Z" id="Fill-26" fill="#9DA6B9"></path>
                <path d="M14.7922824,12.1889189 C14.912713,11.975 14.9627917,11.6332432 14.9084167,11.2645946 C14.8539074,10.8971622 14.7076991,10.5916216 14.532088,10.432973 C14.4116574,10.6464865 14.3613102,10.9889189 14.4158194,11.3566216 C14.4705972,11.725 14.6168056,12.0302703 14.7922824,12.1889189 Z" id="Fill-27" fill="#9DA6B9"></path>
                <path d="M13.1766468,9.94216216 C13.1687255,10.1943243 13.2794894,10.5181081 13.4919815,10.8052703 C13.7051852,11.0922973 13.9683333,11.2733784 14.191875,11.3110811 C14.1997963,11.0581081 14.0890324,10.7348649 13.8758287,10.4475676 C13.6630278,10.1604054 13.3999199,9.97959459 13.1766468,9.94216216 Z" id="Fill-28" fill="#9DA6B9"></path>
                <path d="M14.6157315,9.90121622 C14.771875,9.61567568 14.8343056,9.31283784 14.7984583,9.08891892 C14.604588,9.15445946 14.3905787,9.3522973 14.2338981,9.63783784 C14.0773519,9.9227027 14.0153241,10.2262162 14.051037,10.4494595 C14.2450417,10.3845946 14.4589167,10.1860811 14.6157315,9.90121622 Z" id="Fill-29" fill="#9DA6B9"></path>
                <path d="M14.6593657,7.50513514 C14.6789676,7.13202703 14.5969352,6.79851351 14.4567685,6.6 C14.2965972,6.77878378 14.1801944,7.09932432 14.1612639,7.47243243 C14.1415278,7.84486486 14.223963,8.17878378 14.3639954,8.37689189 C14.5238981,8.19851351 14.6403009,7.8772973 14.6593657,7.50513514 Z" id="Fill-30" fill="#9DA6B9"></path>
                <path d="M14.0942685,9.43621622 C14.213625,9.22175676 14.2616898,8.88 14.2047639,8.51189189 C14.1479722,8.14418919 14.0000185,7.83959459 13.8230648,7.6827027 C13.7041111,7.8972973 13.6560463,8.23972973 13.712838,8.60716216 C13.7700324,8.97527027 13.9173148,9.27932432 14.0942685,9.43621622 Z" id="Fill-31" fill="#9DA6B9"></path>
                <path d="M21.0707824,12.8636486 C20.7827963,13.05 20.4795046,13.1178378 20.2586481,13.0662162 C20.329537,12.8267568 20.532537,12.5660811 20.8211944,12.3794595 C21.1094491,12.1924324 21.4127407,12.1245946 21.633463,12.1762162 C21.5631111,12.4159459 21.3591713,12.6766216 21.0707824,12.8636486 Z" id="Fill-32" fill="#9DA6B9"></path>
                <path d="M21.24975,13.3625676 C21.1102546,13.5616216 20.840125,13.7290541 20.5125324,13.7958108 C20.1844028,13.8614865 19.8793657,13.8101351 19.6865694,13.6781081 C19.8257963,13.4790541 20.0967315,13.3112162 20.4245926,13.2452703 C20.7516481,13.1789189 21.0574907,13.2304054 21.24975,13.3625676 Z" id="Fill-33" fill="#9DA6B9"></path>
                <path d="M21.2081296,10.4494595 C21.0142593,10.3843243 20.8006528,10.1860811 20.6435694,9.90121622 C20.4871574,9.61554054 20.4252639,9.31283784 20.4604398,9.08905405 C20.654713,9.15445946 20.8683194,9.35243243 21.0254028,9.63756757 C21.1818148,9.92283784 21.2439769,10.2262162 21.2081296,10.4494595 Z" id="Fill-34" fill="#9DA6B9"></path>
                <path d="M21.383338,10.4475676 C21.5958704,10.1604054 21.859287,9.97959459 22.0825602,9.94216216 C22.0903472,10.1943243 21.9793148,10.5181081 21.7663796,10.8054054 C21.5535787,11.092027 21.2905648,11.2733784 21.0675602,11.3110811 C21.0596389,11.0581081 21.1701343,10.7348649 21.383338,10.4475676 Z" id="Fill-35" fill="#9DA6B9"></path>
                <path d="M20.7270787,10.432973 C20.8475093,10.6464865 20.8978565,10.9887838 20.8428102,11.3568919 C20.788838,11.7252703 20.6426296,12.0301351 20.4666157,12.1887838 C20.3461852,11.975 20.2959722,11.6332432 20.3504815,11.2645946 C20.405662,10.8971622 20.5511991,10.5916216 20.7270787,10.432973 Z" id="Fill-36" fill="#9DA6B9"></path>
                <path d="M20.8289815,11.9956757 C20.8989306,11.7554054 21.1031389,11.495 21.391125,11.3082432 C21.6792454,11.1218919 21.9828056,11.0537838 22.203125,11.1051351 C22.1327731,11.3451351 21.9291019,11.6058108 21.6408472,11.7925676 C21.3528611,11.9791892 21.0495694,12.047027 20.8289815,11.9956757 Z" id="Fill-37" fill="#9DA6B9"></path>
                <path d="M22.0702083,8.55945946 C22.1229722,8.80554054 22.072625,9.1472973 21.9152731,9.47608108 C21.7581898,9.80527027 21.5322315,10.0417568 21.3205046,10.1285135 C21.2677407,9.88216216 21.318088,9.54094595 21.4751713,9.21216216 C21.6327917,8.8827027 21.8580787,8.64648649 22.0702083,8.55945946 Z" id="Fill-38" fill="#9DA6B9"></path>
                <path d="M21.4359676,7.6827027 C21.5551898,7.8972973 21.6032546,8.23972973 21.546463,8.60716216 C21.4892685,8.97527027 21.3413148,9.27932432 21.1646296,9.43621622 C21.0451389,9.22175676 20.9976111,8.88 21.054537,8.51189189 C21.1113287,8.14418919 21.2592824,7.83959459 21.4359676,7.6827027 Z" id="Fill-39" fill="#9DA6B9"></path>
                <path d="M20.8022639,6.60013514 C20.9621667,6.77878378 21.0785694,7.09905405 21.0979028,7.47243243 C21.1175046,7.84459459 21.0352037,8.17878378 20.8951713,8.37702703 C20.7354028,8.19851351 20.6191343,7.87743243 20.6000694,7.50527027 C20.5804676,7.13216216 20.6622315,6.79837838 20.8022639,6.60013514 Z" id="Fill-40" fill="#9DA6B9"></path>
                <path d="M20.9210833,9.00337838 C20.7190231,9.01432432 20.4584259,8.90716216 20.2254861,8.69662162 C19.9932176,8.48608108 19.8448611,8.22297297 19.8123704,7.99918919 C20.0142963,7.98824324 20.2747593,8.09567568 20.5074306,8.30594595 C20.7396991,8.51675676 20.8880556,8.77945946 20.9210833,9.00337838 Z" id="Fill-41" fill="#9DA6B9"></path>
                <path d="M19.5425093,6.535 C19.7613519,6.59432432 20.009463,6.80067568 20.199037,7.1077027 C20.3886111,7.41445946 20.4733287,7.7477027 20.445537,7.99837838 C20.2265602,7.93905405 19.9784491,7.73297297 19.788875,7.42594595 C19.5993009,7.11891892 19.5143148,6.78567568 19.5425093,6.535 Z" id="Fill-42" fill="#9DA6B9"></path>
                <path d="M19.6860324,12.6009459 C19.8384167,12.2687838 20.060213,12.0275676 20.2711343,11.9367568 C20.3279259,12.1814865 20.2822778,12.5245946 20.130162,12.8563514 C19.9784491,13.1886486 19.7563843,13.4295946 19.5462685,13.5201351 C19.4893426,13.2756757 19.5344537,12.932973 19.6860324,12.6009459 Z" id="Fill-43" fill="#9DA6B9"></path>
                <path d="M19.6495139,13.9177027 C19.9803287,13.9606757 20.260125,14.1082432 20.4100926,14.2971622 C20.2252176,14.4425676 19.9238056,14.5163514 19.5927222,14.4739189 C19.2619074,14.4308108 18.9823796,14.2833784 18.8322778,14.0940541 C19.0168843,13.9483784 19.3186991,13.8751351 19.6495139,13.9177027 Z" id="Fill-44" fill="#9DA6B9"></path>
                <path d="M18.5422778,13.482973 C18.8196574,13.2768919 19.1189213,13.1883784 19.3415231,13.2240541 C19.2847315,13.4685135 19.0956944,13.742973 18.8183148,13.9486486 C18.5410694,14.1555405 18.2422083,14.2440541 18.0189352,14.2081081 C18.0757269,13.9639189 18.2650324,13.6893243 18.5422778,13.482973 Z" id="Fill-45" fill="#9DA6B9"></path>
                <path d="M17.3630787,14.3794595 C17.367912,14.3814865 17.3734167,14.3839189 17.3786528,14.3862162 C17.4691435,14.4251351 17.5560093,14.467027 17.6388472,14.5124324 C17.6388472,14.5124324 17.7493426,14.4466216 17.9335463,14.3722973 C18.1266111,14.2944595 18.3847917,14.2794595 18.6558611,14.3478378 C18.9807685,14.4295946 19.2447222,14.6106757 19.3757593,14.8159459 C19.1788009,14.9386486 18.871213,14.9754054 18.5465741,14.8931081 C18.2353611,14.8147297 17.9801343,14.6451351 17.8439954,14.4502703 C17.8034491,14.4864865 17.7639769,14.5241892 17.7253102,14.5625676 C18.0727731,14.7708108 18.3557917,15.0456757 18.629412,15.4071622 C18.5222731,15.5782432 18.4685694,15.6643243 18.3610278,15.8354054 C18.1523889,15.3597297 17.9318009,14.9716216 17.6400556,14.6495946 C17.3350185,14.9743243 17.081537,15.3682432 16.873838,15.8413514 C16.7665648,15.6702703 16.7125926,15.5844595 16.6054537,15.4131081 C16.8781343,15.0527027 17.1925694,14.7710811 17.5550694,14.5595946 C17.5164028,14.5209459 17.4773333,14.482973 17.4365185,14.4460811 C17.3013194,14.6431081 17.0446157,14.8141892 16.7316574,14.8931081 C16.4064815,14.9754054 16.099162,14.9386486 15.9022037,14.8159459 C16.0335093,14.6106757 16.2969259,14.4295946 16.6218333,14.3478378 C16.8989444,14.277973 17.1630324,14.2951351 17.3573056,14.377027 C17.3569028,14.377027 17.3566343,14.3767568 17.3563657,14.3764865 C17.3587824,14.3774324 17.3607963,14.3782432 17.3630787,14.3794595 Z" id="Fill-46" fill="#9DA6B9"></path>
                <path d="M16.7170231,13.482973 C16.994,13.6893243 17.1835741,13.9639189 17.2400972,14.2081081 C17.0170926,14.2440541 16.7182315,14.1555405 16.4407176,13.9486486 C16.163338,13.742973 15.9745694,13.4685135 15.9171065,13.2240541 C16.1407824,13.1883784 16.4392407,13.2768919 16.7170231,13.482973 Z" id="Fill-47" fill="#9DA6B9"></path>
                <path d="M16.4268889,14.0940541 C16.2769213,14.2833784 15.9973935,14.4308108 15.6665787,14.4737838 C15.3354954,14.5163514 15.0336806,14.4425676 14.8493426,14.2971622 C14.9994444,14.1081081 15.2785694,13.9606757 15.6093843,13.9177027 C15.9401991,13.8751351 16.2428194,13.9483784 16.4268889,14.0940541 Z" id="Fill-48" fill="#9DA6B9"></path>
                <path d="M15.7131667,13.52 C15.5030509,13.4294595 15.2807176,13.1885135 15.1286019,12.8562162 C14.9768889,12.5247297 14.931375,12.1817568 14.9883009,11.9366216 C15.1985509,12.0274324 15.42075,12.2687838 15.5721944,12.6008108 C15.7248472,12.9331081 15.7699583,13.2755405 15.7131667,13.52 Z" id="Fill-49" fill="#9DA6B9"></path>
                <path d="M15.0597269,7.1077027 C15.2491667,6.80094595 15.497412,6.59418919 15.7169259,6.535 C15.7447176,6.78594595 15.66,7.11891892 15.4701574,7.42581081 C15.2808519,7.73283784 15.0324722,7.93932432 14.8134954,7.99864865 C14.7859722,7.74756757 14.8704213,7.41432432 15.0597269,7.1077027 Z" id="Fill-50" fill="#9DA6B9"></path>
                <path d="M14.7521389,8.30581081 C14.9842731,8.09554054 15.2447361,7.98824324 15.4467963,7.99918919 C15.4143056,8.22297297 15.2658148,8.48608108 15.033412,8.69662162 C14.8004722,8.90716216 14.5402778,9.01418919 14.3380833,9.00337838 C14.3703056,8.77945946 14.5191991,8.51675676 14.7521389,8.30581081 Z" id="Fill-51" fill="#9DA6B9"></path>
                <path d="M14.0511713,10.4494595 C14.0153241,10.2262162 14.0774861,9.92283784 14.2338981,9.63756757 C14.390713,9.35243243 14.604588,9.15445946 14.7985926,9.08905405 C14.8343056,9.31283784 14.771875,9.61554054 14.6157315,9.90121622 C14.4586481,10.1860811 14.2450417,10.3843243 14.0511713,10.4494595 Z" id="Fill-52" fill="#9DA6B9"></path>
                <path d="M14.191875,11.3110811 C13.9686019,11.2736486 13.7051852,11.0922973 13.4921157,10.8052703 C13.2793551,10.5181081 13.1685912,10.1941892 13.1765125,9.94202703 C13.3997856,9.97959459 13.6628935,10.1606757 13.875963,10.4475676 C14.0890324,10.7348649 14.2000648,11.057973 14.191875,11.3110811 Z" id="Fill-53" fill="#9DA6B9"></path>
                <path d="M14.5322222,10.432973 C14.7074306,10.5916216 14.8539074,10.8971622 14.9084167,11.2645946 C14.9626574,11.6332432 14.9128472,11.975 14.7924167,12.1887838 C14.6169398,12.0301351 14.470463,11.7252703 14.4159537,11.3568919 C14.3614444,10.9887838 14.4117917,10.6464865 14.5322222,10.432973 Z" id="Fill-54" fill="#9DA6B9"></path>
                <path d="M14.1611296,7.47243243 C14.180463,7.09918919 14.296463,6.77891892 14.4567685,6.60013514 C14.5968009,6.79837838 14.6788333,7.13216216 14.6592315,7.50527027 C14.6401667,7.87716216 14.5241667,8.19824324 14.3638611,8.37702703 C14.2238287,8.17878378 14.1415278,7.84472973 14.1611296,7.47243243 Z" id="Fill-55" fill="#9DA6B9"></path>
                <path d="M13.8230648,7.6827027 C14.0000185,7.83959459 14.1479722,8.14418919 14.2047639,8.51189189 C14.2616898,8.88 14.213625,9.22175676 14.0944028,9.43621622 C13.9173148,9.27932432 13.7697639,8.97527027 13.712838,8.60716216 C13.6560463,8.23972973 13.7041111,7.8972973 13.8230648,7.6827027 Z" id="Fill-56" fill="#9DA6B9"></path>
                <path d="M13.1889986,8.55945946 C13.4005912,8.64648649 13.6265093,8.8827027 13.7835926,9.21216216 C13.941213,9.54094595 13.9915602,9.88216216 13.9385278,10.1285135 C13.7263981,10.0417568 13.5011111,9.80527027 13.3436653,9.47608108 C13.1867162,9.1472973 13.1362347,8.80554054 13.1889986,8.55945946 Z" id="Fill-57" fill="#9DA6B9"></path>
                <path d="M13.0556792,11.1052703 C13.2765356,11.0539189 13.5799213,11.1217568 13.8679074,11.3083784 C14.156162,11.4951351 14.3598333,11.7555405 14.4301852,11.9958108 C14.2098657,12.0471622 13.9068426,11.9793243 13.618588,11.7924324 C13.3302394,11.6059459 13.1262995,11.3452703 13.0556792,11.1052703 Z" id="Fill-58" fill="#9DA6B9"></path>
                <path d="M13.6262407,12.1760811 C13.8465602,12.1244595 14.1495833,12.1922973 14.437838,12.3793243 C14.7260926,12.5659459 14.9297639,12.8266216 15.0006528,13.0664865 C14.7792593,13.1181081 14.4765046,13.0498649 14.18825,12.8635135 C13.8995926,12.6768919 13.6961898,12.4158108 13.6262407,12.1760811 Z" id="Fill-59" fill="#9DA6B9"></path>
                <path d="M14.0095509,13.3625676 C14.2018102,13.2304054 14.5073843,13.1789189 14.8349769,13.2452703 C15.1625694,13.3112162 15.4332361,13.4790541 15.572463,13.6781081 C15.3802037,13.8101351 15.0746296,13.8614865 14.7465,13.7958108 C14.4186389,13.7290541 14.1481065,13.5616216 14.0095509,13.3625676 Z" id="Fill-60" fill="#9DA6B9"></path>
                <path d="M25.7585787,45.7022973 C25.704338,45.6990541 25.595588,45.6928378 25.4807963,45.6928378 C25.3960787,45.6928378 25.3003519,45.6960811 25.1877083,45.7022973 L25.1519954,45.7045946 L25.1576343,45.6686486 C25.1992546,45.397027 25.2193935,45.1127027 25.2193935,44.7989189 L25.2193935,43.1798649 C25.2193935,42.7324324 25.1816667,42.6837838 25.034787,42.6837838 C24.9931667,42.6837838 24.9331528,42.6932432 24.856088,42.7112162 L24.6043519,42.7687838 C24.5294352,42.7864865 24.479625,42.8041892 24.4280694,42.8248649 L24.4124954,42.8306757 L24.342412,42.7772973 L24.3539583,42.7555405 C24.388463,42.6894595 24.4365278,42.5722973 24.4605602,42.4706757 L24.4652593,42.4505405 L24.4858009,42.4485135 C24.6158981,42.4343243 24.7016898,42.4251351 24.8528657,42.3918919 L25.3843981,42.2771622 C25.4813333,42.2577027 25.588875,42.2278378 25.6817824,42.2013514 L25.6978935,42.1968919 L25.7583102,42.257027 L25.7558935,42.2714865 C25.7140046,42.5685135 25.6949398,42.9059459 25.6949398,43.1085135 L25.6949398,44.852027 C25.6949398,45.2052703 25.7268935,45.4863514 25.7878472,45.6636486 L25.8019444,45.7052703 L25.7585787,45.7022973 Z" id="Fill-61" fill="#9DA6B9"></path>
                <path d="M29.5150185,45.735 L29.5124676,45.7614865 L29.486287,45.7618919 C29.4825278,45.7618919 29.0855231,45.7666216 28.8523148,45.7854054 L28.8329815,45.7868919 L28.7884074,45.6978378 L30.5265278,42.7233784 L29.4383565,42.7233784 C29.2689213,42.7233784 29.0506157,42.7410811 28.8669491,42.8755405 L28.8543287,42.8852703 L28.7655833,42.8495946 L28.77525,42.822973 C28.8329815,42.6635135 28.879838,42.3959459 28.8974259,42.2886486 L28.9014537,42.2624324 L28.9279028,42.2644595 C29.0550463,42.2733784 29.1880972,42.2733784 29.329338,42.2733784 L30.5771435,42.2733784 C30.7391944,42.2733784 30.8133056,42.2733784 30.9589769,42.2597297 L30.9879769,42.2567568 L30.990662,42.2859459 C30.9949583,42.3335135 31.0281204,42.5537838 31.0459769,42.6036486 L31.0516157,42.6198649 L31.0404722,42.6325676 C30.7738333,42.9356757 30.4534907,43.4956757 30.1758426,44.0032432 C29.728625,44.8240541 29.5554306,45.2772973 29.5150185,45.735 Z" id="Fill-62" fill="#9DA6B9"></path>
                <path d="M27.3436435,45.5444595 C26.9463704,45.5444595 26.6598611,45.2559459 26.6598611,44.8660811 C26.6598611,44.447027 26.9800694,44.1918919 27.3150463,44.0282432 C27.7691111,44.2786486 28.0557546,44.4856757 28.0557546,44.8705405 C28.0557546,45.2504054 27.7450787,45.5444595 27.3436435,45.5444595 Z M26.8608472,42.9312162 C26.8608472,42.6087838 27.1039907,42.3685135 27.4293009,42.3685135 C27.7589074,42.3685135 28.0029907,42.6132432 28.0029907,42.9452703 C28.0029907,43.3163514 27.7356806,43.5041892 27.463,43.6578378 C27.1570231,43.48 26.8608472,43.2874324 26.8608472,42.9312162 Z M27.7366204,43.7840541 C28.0595139,43.6006757 28.3615972,43.3774324 28.3615972,42.9337838 C28.3615972,42.4551351 27.9658009,42.1071622 27.4207083,42.1071622 C26.8591019,42.1071622 26.419,42.5121622 26.419,43.0293243 C26.419,43.4567568 26.7052407,43.7 26.9985972,43.8793243 C26.5341944,44.1536486 26.2482222,44.4213514 26.2482222,44.8778378 C26.2482222,45.4182432 26.6797315,45.7956757 27.2979954,45.7956757 C27.9801667,45.7956757 28.4753148,45.3612162 28.4753148,44.7635135 C28.4753148,44.2768919 28.1259722,44.0028378 27.7366204,43.7840541 Z" id="Fill-63" fill="#9DA6B9"></path>
                <path d="M32.1589861,45.6160811 C31.7619815,45.6160811 31.4754722,45.327027 31.4754722,44.9374324 C31.4754722,44.5190541 31.7956806,44.2639189 32.1299861,44.1002703 C32.5844537,44.3502703 32.8716343,44.5567568 32.8716343,44.9421622 C32.8716343,45.322027 32.5604213,45.6160811 32.1589861,45.6160811 Z M31.6764583,43.0031081 C31.6764583,42.6805405 31.9202731,42.4401351 32.2451806,42.4401351 C32.574787,42.4401351 32.8188704,42.6852703 32.8188704,43.0175676 C32.8188704,43.387973 32.5507546,43.5759459 32.2784769,43.7298649 C31.9723657,43.5517568 31.6764583,43.3587838 31.6764583,43.0031081 Z M32.5170556,43.8548649 C32.8390093,43.672027 33.1414954,43.4487838 33.1414954,43.0052703 C33.1414954,42.5259459 32.7458333,42.177973 32.2011435,42.177973 C31.639537,42.177973 31.1994352,42.5832432 31.1994352,43.1008108 C31.1994352,43.5283784 31.4851389,43.7717568 31.7780926,43.9501351 C31.3142269,44.2240541 31.0286574,44.4918919 31.0286574,44.9490541 C31.0286574,45.4893243 31.4598981,45.8667568 32.0772222,45.8667568 C32.7599306,45.8667568 33.2550787,45.4327027 33.2550787,44.8345946 C33.2550787,44.347973 32.9061389,44.0740541 32.5170556,43.8548649 Z" id="Fill-64" fill="#9DA6B9"></path>
                <path d="M18.5578519,38.5098649 C18.4954213,38.7352703 18.2988657,39.4518919 18.2824861,39.5105405 C17.247213,39.4760811 16.5602083,39.4675676 15.9518796,39.4675676 C15.1863333,39.4675676 14.687963,39.4675676 14.2729676,39.4766216 C14.3468102,38.9856757 14.401588,38.42 14.401588,37.7154054 L14.401588,34.8060811 C14.401588,34.3339189 14.3837315,33.4339189 14.2176528,33.0174324 C14.5314167,33.0358108 14.7430093,33.0358108 14.9738009,33.0358108 L16.7078935,33.0358108 C17.3260231,33.0358108 17.5748056,33.0174324 18.2485185,33.0077027 C18.1259398,33.4524324 17.9967824,33.922027 17.9472407,34.1006757 C17.8983704,34.28 17.8047917,34.1455405 17.787338,34.1198649 C17.500963,33.7031081 16.9478148,33.6564865 16.4224583,33.6564865 C16.2557083,33.6564865 16.062375,33.6659459 15.8314491,33.6754054 C15.8227222,33.8325676 15.7947963,34.2775676 15.7947963,34.6763514 L15.7947963,35.6214865 L16.5607454,35.6214865 C17.1222176,35.6214865 17.6875833,35.5797297 17.9073657,35.5468919 C17.9997361,35.5331081 17.9809398,35.6117568 17.9809398,35.6117568 C17.9123333,35.8613514 17.8191574,36.1986486 17.7596806,36.4154054 C17.1690741,36.36 16.8461806,36.3440541 16.4405833,36.3440541 L15.7858009,36.3440541 L15.7858009,37.66 C15.7858009,38.5125676 15.878037,38.7906757 16.8828333,38.7906757 C17.4555833,38.7906757 17.7600833,38.7941892 18.3767361,38.3212162 C18.4872315,38.2364865 18.6200139,38.2851351 18.5578519,38.5098649 Z" id="Fill-65" fill="#9DA6B9"></path>
                <path d="M21.3299028,38.5195946 C21.1913472,38.8536486 21.1262315,39.0955405 21.0433935,39.4667568 C20.9510231,39.4582432 20.7376852,39.4582432 20.525287,39.4582432 C20.3406806,39.4582432 20.1092176,39.4667568 19.9332037,39.4764865 C19.868625,39.0678378 19.7945139,38.8074324 19.6556898,38.3991892 L19.0456157,36.522027 C18.8607407,35.9644595 18.6386759,35.3513514 18.2317361,34.8771622 C18.8423472,34.8958108 19.3225926,34.8685135 19.9056806,34.8218919 C19.9428704,35.277027 20.0442361,35.7137838 20.1733935,36.1495946 L20.5162917,37.3304054 C20.5998009,37.6085135 20.7755463,38.2310811 20.7755463,38.2310811 C20.8394537,38.0272973 20.9141019,37.8317568 20.9782778,37.6554054 L21.5150463,36.2616216 C21.6067454,36.0204054 21.7278472,35.6487838 21.7643657,35.267973 C21.7643657,35.1377027 21.7734954,35.0166216 21.7643657,34.8587838 C21.8941944,34.8685135 22.1345185,34.8685135 22.3283889,34.8685135 C22.5132639,34.8685135 22.8142731,34.8448649 22.9552454,34.8264865 C23.0817176,34.8104054 23.0638611,34.8889189 23.0219722,34.9424324 C22.7040463,35.3486486 22.4485509,35.8995946 22.2083611,36.4660811 L21.3299028,38.5195946 Z" id="Fill-66" fill="#9DA6B9"></path>
                <path d="M28.7478611,39.475 C28.5984306,39.4655405 28.2987639,39.4560811 28.0091667,39.4560811 C27.7199722,39.4560811 27.4297037,39.4655405 27.2523472,39.475 C27.3365278,38.9297297 27.364588,38.4790541 27.364588,37.8033784 L27.364588,36.6762162 C27.364588,36.2252703 27.3271296,35.4178378 27.1680324,34.92 C27.5236852,34.92 28.075088,34.9012162 28.448463,34.8824324 L28.4302037,35.9531081 L28.7669259,35.5116216 C29.1874259,34.9571622 29.4771574,34.7787838 29.9163194,34.7787838 C30.0751481,34.7787838 30.1499306,34.7922973 30.3177546,34.8678378 C30.1861806,35.3444595 30.0485648,35.8460811 29.9682778,36.1371622 C29.9509583,36.2 29.8932269,36.2851351 29.8091806,36.1902703 C29.63075,35.9902703 29.5990648,35.9156757 29.3834444,35.9156757 C29.1220417,35.9156757 28.9069583,36.0563514 28.7478611,36.3194595 C28.6169583,36.535 28.5609722,36.7140541 28.5609722,37.1643243 L28.5609722,37.9258108 C28.5609722,38.7332432 28.6169583,39.0709459 28.7478611,39.475 Z" id="Fill-67" fill="#9DA6B9"></path>
                <path d="M33.9125463,34.9558108 C33.876162,35.0874324 33.7700972,35.4745946 33.7259259,35.6341892 C33.3624861,35.5913514 33.1413611,35.5890541 32.8970093,35.5890541 L32.4829537,35.5890541 C32.4636204,35.9006757 32.4544907,36.2790541 32.4544907,36.5439189 L32.4544907,37.6117568 C32.4544907,38.3302703 32.5295417,38.8593243 33.1503565,38.8593243 C33.3485231,38.8593243 33.5076204,38.8141892 33.7525093,38.6891892 C33.7918472,38.6685135 33.8878426,38.6737838 33.853875,38.7991892 C33.7961435,39.0064865 33.7437824,39.1975676 33.6789352,39.435 C33.1205509,39.5836486 32.8873426,39.6251351 32.5872731,39.6251351 C31.7864167,39.6251351 31.2689815,39.2748649 31.2689815,38.122027 L31.2689815,36.6852703 C31.2689815,36.2224324 31.2689815,35.8916216 31.250588,35.5795946 C31.0056991,35.5795946 30.7437593,35.6093243 30.616213,35.6322973 C30.58775,35.6367568 30.5262593,35.625 30.5537824,35.5237838 C30.5617037,35.4952703 30.678375,35.0712162 30.7205324,34.9193243 C30.8392176,34.9310811 31.0624907,34.9368919 31.2883148,34.9368919 C31.2883148,34.5683784 31.2689815,34.3698649 31.250588,34.0860811 C31.5793889,33.9917568 32.1764398,33.7193243 32.4336806,33.5555405 C32.5290046,33.4954054 32.5776065,33.5821622 32.5694167,33.6835135 C32.5608241,33.7932432 32.4963796,34.1052703 32.4829537,34.9368919 L33.131963,34.9368919 C33.3575185,34.9368919 33.610463,34.9278378 33.8468935,34.8708108 C33.8808611,34.8622973 33.9333565,34.8806757 33.9125463,34.9558108 Z" id="Fill-68" fill="#9DA6B9"></path>
                <path d="M43.0177407,39.4577027 C42.7152546,39.4577027 42.4129028,39.4675676 42.2523287,39.4766216 C42.3373148,38.9637838 42.3657778,38.3659459 42.3657778,37.6824324 L42.3657778,36.8568919 C42.3657778,36.3060811 42.3276481,35.6698649 41.553912,35.6698649 C41.2790833,35.6698649 41.0053287,35.7840541 40.7973611,35.9831081 C40.5611991,36.2205405 40.4952778,36.4201351 40.4952778,37.0082432 L40.4952778,37.6824324 C40.4952778,38.5464865 40.5515324,39.0687838 40.6836435,39.4766216 C40.5429398,39.4675676 40.2306528,39.4577027 39.9374306,39.4577027 C39.6259491,39.4577027 39.3332639,39.4675676 39.1720185,39.4766216 C39.2572731,38.9637838 39.2857361,38.3659459 39.2857361,37.6824324 L39.2857361,36.5245946 C39.2857361,36.0689189 39.247875,35.3759459 39.0874352,34.8727027 C39.5031019,34.8727027 40.0794769,34.8727027 40.476213,34.8345946 L40.4480185,35.6513514 L40.8258241,35.3286486 C41.28875,34.9389189 41.6666898,34.7778378 42.1390139,34.7778378 C43.2160417,34.7778378 43.5843148,35.3852703 43.5843148,36.457973 L43.5843148,37.6824324 C43.5843148,38.5464865 43.6412407,39.0687838 43.7738889,39.4766216 C43.6224444,39.4675676 43.3101574,39.4577027 43.0177407,39.4577027 Z" id="Fill-69" fill="#9DA6B9"></path>
                <path d="M23.9898472,36.5324324 C24.0361667,35.7724324 24.2852176,35.3271622 24.875287,35.3271622 C25.2908194,35.3271622 25.6045833,35.642973 25.6045833,36.0782432 C25.6045833,36.3743243 25.4475,36.495 25.0504954,36.5044595 L23.9898472,36.5324324 Z M26.6347546,37.0789189 C26.7941204,37.0789189 26.7941204,36.6808108 26.7941204,36.5878378 C26.7941204,35.4758108 26.0841574,34.7901351 24.9488611,34.7901351 C23.6303009,34.7901351 22.7176065,35.7906757 22.7176065,37.2366216 C22.7176065,38.6637838 23.6209028,39.6366216 25.0417685,39.6366216 C25.5304722,39.6366216 26.0602593,39.4991892 26.4841157,39.3604054 C26.5594352,39.0858108 26.5829306,39.0037838 26.6719444,38.6797297 C26.7132963,38.5295946 26.629787,38.4817568 26.5539306,38.5343243 C26.2266065,38.7631081 25.9913843,38.8398649 25.5949167,38.8398649 C24.6086481,38.8398649 24.0179074,38.2093243 23.9989769,37.1068919 C24.3036111,37.0883784 24.9769213,37.0789189 25.4563611,37.0789189 L26.6347546,37.0789189 Z" id="Fill-70" fill="#9DA6B9"></path>
                <path d="M36.4146019,39.1039189 C35.7113519,39.1039189 35.3228056,38.4155405 35.3228056,37.1135135 C35.3228056,36.0064865 35.6188472,35.3087838 36.3870787,35.3087838 C37.1092593,35.3087838 37.5077407,36.0064865 37.5077407,37.2995946 C37.5077407,38.4895946 37.1275185,39.1039189 36.4146019,39.1039189 Z M36.5350324,34.7787838 C34.8874028,34.7787838 34.0076019,35.8391892 34.0076019,37.2995946 C34.0076019,38.7689189 34.8592083,39.625 36.3132361,39.625 C37.8405694,39.625 38.8216019,38.6290541 38.8216019,37.0666216 C38.8216019,35.6159459 37.9979213,34.7787838 36.5350324,34.7787838 Z" id="Fill-71" fill="#9DA6B9"></path>
                <path d="M34.1807963,16.7258108 C34.0866806,16.8909459 33.878713,16.8255405 33.6606759,16.7258108 C33.4591528,16.6335135 31.7740648,16.0194595 28.9472361,16.0194595 C26.1208102,16.0194595 24.5785741,16.5754054 24.3731574,16.6255405 C24.1694861,16.6759459 23.8857963,16.8402703 23.7288472,16.5427027 C23.6250648,16.3483784 23.7603981,16.1625676 24.0745648,16.0309459 C24.3900741,15.8977027 26.6746296,15.3966216 28.9472361,15.3739189 C31.2214537,15.3514865 33.3928287,15.8481081 34.006662,16.2454054 C34.1637454,16.3444595 34.2757176,16.5591892 34.1807963,16.7258108 Z M33.883412,31.2201351 C33.883412,31.2594595 33.8511898,31.2794595 33.8121204,31.2656757 C33.4143102,31.1255405 33.2156065,31.0562162 32.8180648,30.9175676 C32.7793981,30.9040541 32.747713,30.8616216 32.747713,30.8222973 C32.7491898,30.1505405 32.7497269,29.7741892 32.7512037,29.0260811 C32.7512037,28.9824324 32.7831574,28.9564865 32.8220926,28.9682432 C33.2185602,29.0867568 33.4165926,29.1458108 33.8127917,29.2648649 C33.8517269,29.2767568 33.883412,29.3236486 33.883412,29.3695946 L33.883412,31.2201351 Z M29.6614954,17.6562162 L29.5405278,19.9563514 C29.5405278,19.9563514 28.8903102,19.9451351 28.3731435,19.9563514 L28.2407639,17.6674324 C28.2407639,17.6674324 29.1217731,17.622973 29.6614954,17.6562162 Z M31.5258194,18.6943243 C31.6097315,18.6943243 33.1312917,18.7356757 33.7978889,19.2974324 L33.8056759,19.9356757 C33.3799398,19.8318919 32.3916574,19.6109459 31.2340741,19.4967568 C30.9267546,19.4658108 30.6202407,19.447027 30.3204398,19.4343243 C30.3204398,19.4343243 30.1663102,19.4298649 29.9278657,19.4260811 L30.0245324,17.642973 C30.4752407,17.6751351 30.946625,17.7187838 31.3574583,17.7736486 C32.0184167,17.8612162 33.2487685,18.0835135 33.7863426,18.3071622 L33.7919815,18.7666216 C33.5280278,18.7052703 32.961588,18.582027 32.5695509,18.5289189 C32.0412407,18.4583784 31.6351065,18.4583784 31.5451528,18.4710811 C31.4543935,18.482027 31.3445694,18.4890541 31.3465833,18.5885135 C31.3480602,18.6710811 31.4347917,18.6943243 31.5258194,18.6943243 Z M27.2773194,26.6914865 C25.3136435,26.0037838 24.42525,25.6428378 24.4051111,25.0682432 C24.3927593,24.7122973 24.3452201,23.2341892 24.3816157,22.8585135 L24.3452201,17.3466216 C24.3432176,17.1832432 24.6086481,17.087027 24.849912,17.0274324 C25.0816435,16.9702703 26.5281528,16.6472973 28.9472361,16.6472973 C31.3673935,16.6472973 33.0585231,16.9405405 33.4939259,17.1168919 C33.58925,17.1555405 33.7049815,17.2009459 33.7738565,17.2608108 L33.7796296,17.7359459 C33.3682593,17.6781081 31.806287,17.4618919 31.1384815,17.4167568 C30.8303565,17.3955405 30.4291898,17.3808108 30.0376898,17.3713514 C30.0359444,17.3294595 30.0205046,17.2887838 29.9925787,17.2575676 C29.960625,17.2221622 29.9157824,17.2009459 29.8686574,17.1987838 C29.0146343,17.1622973 28.7138935,17.1622973 27.8452361,17.1987838 C27.7977083,17.2009459 27.7531343,17.2221622 27.7213148,17.2575676 C27.6893611,17.2932432 27.6725787,17.3398649 27.6752639,17.3875676 L27.7889815,19.4902703 C27.7540741,19.492973 27.7233287,19.4947297 27.6968796,19.4967568 C27.2711435,19.5316216 25.5668565,19.7731081 25.4521991,19.802973 C25.2967269,19.8433784 25.2576574,19.8875676 25.2722917,19.9451351 C25.2948472,20.037973 25.4171574,20.0063514 25.5418843,19.9922973 C26.3893287,19.8952703 27.1516528,19.8427027 27.8065694,19.8174324 L27.8246944,20.1521622 C27.8301991,20.2477027 27.9082037,20.3216216 28.0021852,20.3216216 L28.0095694,20.3216216 C28.7324213,20.2910811 28.9809352,20.2910811 29.7036528,20.3216216 C29.7992454,20.3252703 29.8832917,20.2502703 29.8885278,20.1524324 L29.9065185,19.8194595 C30.1783935,19.832973 30.3248704,19.8471622 30.3248704,19.8471622 C31.5413935,19.9541892 33.1298148,20.1881081 33.8148056,20.6051351 L33.8200417,21.1008108 C33.4200833,21.0137838 32.3963565,20.7997297 32.0193565,20.7705405 C31.5481065,20.7345946 31.3242963,20.7590541 31.2454861,20.7705405 C31.1664074,20.7814865 31.1000833,20.8281081 31.1106898,20.8887838 C31.1215648,20.9474324 31.1886944,20.9837838 31.2897917,20.9940541 C31.3867269,21.005 32.8991574,21.0616216 33.8264861,21.6981081 L33.8323935,22.2005405 C33.2983102,22.0927027 31.529713,21.7505405 30.3023148,21.6906757 C28.696037,21.6139189 26.6974537,21.8086486 26.5410417,21.8331081 C26.3843611,21.8555405 26.3058194,21.9021622 26.3165602,21.9852703 C26.3279722,22.0690541 26.3546898,22.1085135 26.5750093,22.0927027 C26.7333009,22.0805405 29.6510231,21.9747297 31.178088,22.1982432 C32.4236111,22.3810811 33.2815278,22.5889189 33.8400463,22.857973 L33.8475648,23.4902703 C33.3521481,23.3882432 32.2684074,23.1764865 31.7172731,23.1298649 C30.5719074,23.0325676 29.8428796,23.0505405 29.7186898,23.0505405 C29.6052407,23.0505405 29.5581157,23.1027027 29.5633519,23.1740541 C29.568588,23.2610811 29.6503519,23.2608108 29.728625,23.2633784 C29.8789954,23.2685135 30.7250972,23.2917568 31.6603472,23.4377027 C32.2721667,23.5324324 33.2229907,23.6828378 33.8540093,24.0118919 L33.861662,24.6524324 C33.5329954,24.6144595 32.8862685,24.5424324 32.6138565,24.5339189 C32.2434352,24.5227027 31.9349074,24.5316216 31.8168935,24.5572973 C31.7403657,24.5752703 31.6990139,24.6271622 31.7096204,24.6740541 C31.7222407,24.7214865 31.7623843,24.7589189 31.8390463,24.7589189 C31.9182593,24.7589189 32.4684537,24.7940541 32.8839861,24.8641892 C33.2118472,24.9202703 33.6024074,25.0364865 33.8673009,25.1689189 C33.8673009,25.1689189 33.8693148,25.7952703 33.8701204,26.0037838 C33.8701204,26.0274324 33.1643194,25.7810811 32.4657685,25.7363514 C31.8332731,25.6955405 31.2311204,25.7052703 30.7553056,25.7441892 C30.7116713,25.7481081 30.5786204,25.7713514 30.5815741,25.8875676 C30.5847963,26.0140541 30.7289907,25.992027 30.7977315,25.9945946 C31.1584861,26.007973 31.4558704,25.9940541 32.0893056,26.0571622 C33.0111296,26.1494595 33.8789815,26.4464865 33.8789815,26.4655405 C33.8799213,26.7213514 33.8807269,26.9518919 33.8807269,27.2574324 C33.8807269,27.2686486 33.4842593,27.1439189 32.8666667,27.0610811 C32.6121111,27.0271622 32.1701296,26.9793243 32.0025741,26.9947297 C31.8892593,27.0047297 31.7831944,27.0247297 31.7787639,27.1282432 C31.7723194,27.2766216 32.0325139,27.2795946 32.1239444,27.2908108 C32.2218194,27.3031081 32.4936944,27.3210811 32.9700463,27.4001351 C33.357787,27.4641892 33.8807269,27.6136486 33.8807269,27.6263514 C33.8807269,28.2843243 33.8789815,28.8155405 33.8789815,28.8155405 C31.922287,28.2678378 29.3330972,27.4594595 27.2773194,26.6914865 Z M32.2228935,30.6394595 C32.2228935,30.6787838 32.1909398,30.6990541 32.1517361,30.6852703 C31.754463,30.5468919 31.5560278,30.4772973 31.1587546,30.3386486 C31.1194167,30.3251351 31.0881343,30.2824324 31.0881343,30.2433784 C31.0904167,29.5763514 31.0913565,29.2183784 31.0940417,28.5182432 C31.0940417,28.4771622 31.1259954,28.4541892 31.1651991,28.4663514 C31.5619352,28.5883784 31.7606389,28.6485135 32.1569722,28.767973 C32.1963102,28.7797297 32.2278611,28.8240541 32.2278611,28.867027 C32.2261157,29.5987838 32.2250417,29.9691892 32.2228935,30.6394595 Z M30.5637176,30.06 C30.5633148,30.0986486 30.5314954,30.1186486 30.4921574,30.1048649 C30.0946157,29.9652703 29.895912,29.8951351 29.4983704,29.7544595 C29.4590324,29.7402703 29.4273472,29.6981081 29.4277462,29.6594595 C29.4294954,28.997973 29.4305694,28.6539189 29.4323148,27.9891892 C29.4327176,27.9502703 29.4646713,27.9293243 29.5041435,27.9422973 C29.9023565,28.0713514 30.1006574,28.1345946 30.4983333,28.2589189 C30.537537,28.2713514 30.5694907,28.3135135 30.5692239,28.3539189 C30.566537,29.0408108 30.5657315,29.395 30.5637176,30.06 Z M28.9019907,29.4733784 C28.9017222,29.5114865 28.8701713,29.5314865 28.8311019,29.5174324 C28.4330231,29.3758108 28.2336481,29.305 27.8355694,29.1625676 C27.795963,29.1481081 27.7642778,29.1056757 27.7646768,29.0672973 C27.7654861,28.4093243 27.7664259,28.0752703 27.7675,27.4290541 C27.7675,27.3913514 27.7997222,27.3718919 27.8390602,27.3854054 C28.2380787,27.5231081 28.437588,27.5901351 28.8355324,27.7225676 C28.8751389,27.7355405 28.9070926,27.7774324 28.9070926,27.8156757 C28.9049444,28.4728378 28.9041389,28.8133784 28.9019907,29.4733784 Z M27.2386528,28.8791892 C27.2386528,28.9178378 27.2064306,28.9375676 27.1672269,28.9233784 C26.7690139,28.7806757 26.5695046,28.7093243 26.1712917,28.5674324 C26.1319537,28.5532432 26.1001343,28.5110811 26.1001343,28.4728378 C26.1004028,27.8133784 26.1004028,27.4827027 26.1009398,26.8368919 C26.1009398,26.7989189 26.1328935,26.7802703 26.1720972,26.7944595 C26.57125,26.9398649 26.7707593,27.0114865 27.1697778,27.1521622 C27.2091157,27.1660811 27.2410694,27.2075676 27.2410694,27.245 C27.2398611,27.8891892 27.2395926,28.2214865 27.2386528,28.8791892 Z M25.573838,28.2858108 C25.573838,28.3247297 25.5421528,28.3444595 25.5029491,28.3306757 C25.1044676,28.1902703 24.9052269,28.1204054 24.5072824,27.9832432 C24.4680787,27.9697297 24.436125,27.9271622 24.436125,27.8885135 L24.436125,26.2185135 C24.436125,26.1795946 24.4680787,26.1601351 24.5072824,26.1751351 C24.9052269,26.3258108 25.1044676,26.4004054 25.5032176,26.5482432 C25.5424213,26.562973 25.574375,26.6054054 25.574375,26.6433784 C25.5741065,27.2940541 25.5741065,27.6248649 25.573838,28.2858108 Z M29.0084583,6.69648649 C29.1633935,7.03 29.3363194,7.40135135 29.5187778,7.79472973 C29.3579352,7.805 29.0409491,7.83040541 28.8390231,7.87702703 C28.720338,7.90324324 28.6989907,7.94662162 28.6989907,7.98810811 C28.6989907,8.02567568 28.7461157,8.08527027 28.8695,8.08783784 C29.1235185,8.09310811 29.4848102,8.11027027 29.6696852,8.12094595 C29.7256713,8.23824324 29.7792407,8.35743243 29.8352269,8.47716216 C29.7021759,8.51689189 29.5120648,8.57540541 29.4587639,8.59635135 C29.3752546,8.63054054 29.2882546,8.66121622 29.2944306,8.72391892 C29.3002037,8.78 29.3908287,8.78716216 29.4637315,8.79716216 C29.6222917,8.81689189 29.8592593,8.83216216 29.9987546,8.82864865 C30.0907222,9.02797297 30.1583889,9.1722973 30.2525046,9.37662162 C30.3110417,9.50337838 30.1347593,9.52878378 29.9846574,9.53851351 C29.8079722,9.55148649 29.3553843,9.55027027 29.1396296,9.57864865 C29.0550463,9.58891892 29.0228241,9.635 29.0228241,9.68364865 C29.0228241,9.72959459 29.0865972,9.76945946 29.1668843,9.77472973 C29.4760833,9.79189189 29.856037,9.82337838 30.0582315,9.86297297 C30.225787,9.89540541 30.4136157,9.93783784 30.5347176,9.98351351 C30.5941944,10.1089189 30.6495093,10.2339189 30.7077778,10.3586486 C30.7409398,10.43 30.6448102,10.4654054 30.5741898,10.4713514 C30.4581898,10.4810811 29.9422315,10.4486486 29.666463,10.4758108 C29.5452269,10.4887838 29.5187778,10.517973 29.5187778,10.5801351 C29.5187778,10.6247297 29.5417361,10.6524324 29.65975,10.6721622 C29.8792639,10.7081081 30.3219167,10.7264865 30.461412,10.7497297 C30.6090972,10.772973 30.8024306,10.8243243 30.9562917,10.8921622 C31.0509444,11.0977027 31.1109583,11.2260811 31.2030602,11.4274324 C31.2410556,11.51 31.1886944,11.5381081 31.1374074,11.5418919 C31.0561806,11.5481081 30.1221389,11.5595946 30.0426574,11.5643243 C29.9471991,11.5713514 29.8405972,11.5987838 29.8255602,11.6760811 C29.8133426,11.7364865 29.8947037,11.8237838 30.1112639,11.837973 C30.3280926,11.8514865 31.1438519,11.8995946 31.5651574,12.2041892 C31.6796806,12.4510811 31.7904444,12.6908108 31.8965093,12.9185135 C31.5777778,12.8890541 30.4696019,12.7943243 29.9633102,12.8087838 C29.5279074,12.8212162 29.347463,12.8087838 29.3310833,12.8982432 C29.3152407,12.9872973 29.4062685,13.0267568 29.6810972,13.0547297 C29.9427685,13.0810811 31.385787,13.1674324 32.1505278,13.4664865 C32.2999583,13.7881081 32.4335463,14.0766216 32.5478009,14.3210811 C32.1458287,14.2397297 31.2132639,14.0998649 30.6477639,14.0866216 C30.4299954,14.0813514 30.3451435,14.127973 30.3451435,14.22 C30.3451435,14.3128378 30.541162,14.3243243 30.6750185,14.3375676 C31.3820278,14.4083784 32.379037,14.6522973 32.7702685,14.8017568 C32.8116204,14.8905405 32.8438426,14.9601351 32.8701574,15.0162162 C31.5865046,14.7468919 29.7564167,14.6166216 28.9472361,14.6166216 C28.1466481,14.6166216 26.4238333,14.7318919 25.1354815,15.0406757 C25.5014722,14.2556757 27.7754213,9.35121622 29.0084583,6.69648649 Z M34.1031944,15.422027 L29.4678935,5.60878378 C29.6371944,5.24459459 29.3011435,4.77594595 28.942537,4.77594595 C28.5835278,4.77594595 28.2997037,5.24756757 28.4698102,5.61621622 L23.8686111,15.4747297 C22.9520231,15.9702703 22.7517083,16.5993243 22.9408796,17.0171622 C22.9408796,17.0171622 23.0493611,17.3127027 23.4580463,17.4356757 C23.4622083,18.0752703 23.4691898,24.1794595 23.4753657,25.352973 C23.4756343,25.3691892 23.4803333,25.4059459 23.467713,25.4041892 C23.2810926,25.375 23.0701713,25.4994595 23.0701713,25.8227027 C23.0701713,26.3166216 23.0724537,26.6066216 23.0733935,27.0858108 C23.0733935,27.2028378 23.0759444,27.5452703 23.0759444,27.5816216 C23.0759444,27.9732432 23.4753657,28.0967568 23.4753657,28.0967568 C23.4753657,28.0967568 32.2598148,31.2559459 32.5490093,31.367027 C32.9672269,31.5278378 33.3454352,31.6602703 33.7055185,31.8035135 C33.8259491,31.8513514 33.832125,31.9209459 33.8415231,32.1391892 L33.8415231,32.5874324 C33.8415231,32.5874324 34.0650648,32.5974324 34.1805278,32.5974324 C35.0290463,32.5974324 34.9233843,32.162973 34.9487593,30.8589189 C34.9749398,29.4893243 34.9774907,29.0744595 34.5880046,28.9864865 C34.557125,25.3859459 34.6351296,19.0762162 34.6178102,17.2985135 C34.905125,17.187027 35.1555185,16.9617568 35.1933796,16.6152703 C35.2297639,16.2945946 34.8857917,15.807973 34.1031944,15.422027 Z" id="Fill-72" fill="#9DA6B9"></path>
                <path d="M36.3505602,11.7924324 C36.6389491,11.9791892 36.941838,12.0472973 37.1625602,11.9956757 C37.0922083,11.7555405 36.888537,11.4948649 36.6002824,11.3085135 C36.312162,11.1218919 36.0090046,11.0540541 35.7880139,11.1052703 C35.8583657,11.3451351 36.0623056,11.6058108 36.3505602,11.7924324 Z" id="Fill-73" fill="#9DA6B9"></path>
                <path d="M37.7205417,11.9367568 C37.6634815,12.1814865 37.7091296,12.5244595 37.8608426,12.8562162 C38.0132269,13.1886486 38.2350231,13.4295946 38.4451389,13.52 C38.5020648,13.2756757 38.4568194,12.9332432 38.305375,12.6008108 C38.1529907,12.2687838 37.9311944,12.0275676 37.7205417,11.9367568 Z" id="Fill-74" fill="#9DA6B9"></path>
                <path d="M36.6706343,10.1283784 C36.7239352,9.88243243 36.6733194,9.54094595 36.5159676,9.21202703 C36.3586157,8.88297297 36.1330602,8.64648649 35.9214676,8.55945946 C35.8681667,8.80540541 35.9187824,9.14716216 36.0761343,9.47608108 C36.2329491,9.80540541 36.4591759,10.0416216 36.6706343,10.1283784 Z" id="Fill-75" fill="#9DA6B9"></path>
                <path d="M38.2026667,7.42581081 C38.3919722,7.11878378 38.4768241,6.78581081 38.4490324,6.53486486 C38.2301898,6.59418919 37.9819444,6.80094595 37.7923704,7.10756757 C37.6025278,7.41432432 37.5179444,7.74756757 37.5460046,7.99851351 C37.7645787,7.93918919 38.0133611,7.73283784 38.2026667,7.42581081 Z" id="Fill-76" fill="#9DA6B9"></path>
                <path d="M37.7656528,8.69675676 C37.9980556,8.48608108 38.1465463,8.22310811 38.1793056,7.99918919 C37.9775139,7.98837838 37.7163796,8.09540541 37.4841111,8.30594595 C37.2514398,8.51675676 37.1034861,8.77959459 37.0700556,9.00337838 C37.2725185,9.01432432 37.532713,8.9072973 37.7656528,8.69675676 Z" id="Fill-77" fill="#9DA6B9"></path>
                <path d="M36.8266435,9.43621622 C36.9462685,9.22175676 36.993662,8.88 36.9371389,8.51189189 C36.8803472,8.14418919 36.7319907,7.83959459 36.5555741,7.6827027 C36.4360833,7.8972973 36.388287,8.23972973 36.445213,8.60716216 C36.5020046,8.97527027 36.6502269,9.27932432 36.8266435,9.43621622 Z" id="Fill-78" fill="#9DA6B9"></path>
                <path d="M37.3917407,7.50513514 C37.4110741,7.13202703 37.3290417,6.79851351 37.1892778,6.6 C37.0289722,6.77878378 36.9129722,7.09932432 36.8936389,7.47243243 C36.874037,7.84486486 36.9560694,8.17878378 37.0961019,8.37689189 C37.2561389,8.19851351 37.3724074,7.8772973 37.3917407,7.50513514 Z" id="Fill-79" fill="#9DA6B9"></path>
                <path d="M42.9582639,8.69675676 C43.1908009,8.9072973 43.4509954,9.01432432 43.6529213,9.00337838 C43.6209676,8.77959459 43.4722083,8.51675676 43.239537,8.30594595 C43.0074028,8.09540541 42.7466713,7.98837838 42.5444769,7.99918919 C42.5773704,8.22310811 42.7255926,8.48608108 42.9582639,8.69675676 Z" id="Fill-80" fill="#9DA6B9"></path>
                <path d="M42.3248287,14.4737838 C42.6556435,14.5163514 42.9574583,14.4425676 43.1420648,14.2971622 C42.9920972,14.1081081 42.7125694,13.9606757 42.3817546,13.9177027 C42.0512083,13.8751351 41.7483194,13.9483784 41.56425,14.0940541 C41.7146204,14.2833784 41.9941481,14.4308108 42.3248287,14.4737838 Z" id="Fill-81" fill="#9DA6B9"></path>
                <path d="M43.177912,7.99851351 C43.2054352,7.74783784 43.1211204,7.41418919 42.9315463,7.10756757 C42.7419722,6.80081081 42.4937269,6.59405405 42.2746157,6.53513514 C42.2466898,6.78581081 42.3314074,7.11878378 42.5209815,7.42581081 C42.710287,7.7327027 42.9586667,7.93918919 43.177912,7.99851351 Z" id="Fill-82" fill="#9DA6B9"></path>
                <path d="M42.8626713,12.8562162 C43.0143843,12.5244595 43.0594954,12.1814865 43.0029722,11.9367568 C42.792588,12.0275676 42.5707917,12.2687838 42.4190787,12.6008108 C42.2666944,12.9332432 42.2215833,13.2756757 42.2786435,13.52 C42.4887593,13.4295946 42.7105556,13.1886486 42.8626713,12.8562162 Z" id="Fill-83" fill="#9DA6B9"></path>
                <path d="M43.627412,8.37702703 C43.7671759,8.17878378 43.8498796,7.84472973 43.8305463,7.47256757 C43.8108102,7.09918919 43.6945417,6.77891892 43.5349074,6.60013514 C43.394875,6.79837838 43.3124398,7.13216216 43.3320417,7.50527027 C43.3511065,7.87716216 43.4675093,8.19851351 43.627412,8.37702703 Z" id="Fill-84" fill="#9DA6B9"></path>
                <path d="M43.8968704,9.43621622 C44.0738241,9.27932432 44.2215093,8.97527027 44.2783009,8.60716216 C44.3352269,8.23972973 44.2876991,7.8972973 44.1682083,7.6827027 C43.9912546,7.83959459 43.8433009,8.14418919 43.7867778,8.51189189 C43.7295833,8.88 43.7779167,9.22175676 43.8968704,9.43621622 Z" id="Fill-85" fill="#9DA6B9"></path>
                <path d="M43.9402361,10.4494595 C43.9759491,10.2262162 43.9144583,9.92283784 43.757375,9.63756757 C43.6005602,9.35243243 43.3864167,9.15445946 43.1930833,9.08905405 C43.1573704,9.31283784 43.2193981,9.61554054 43.3759444,9.90121622 C43.5323565,10.1860811 43.7462315,10.3843243 43.9402361,10.4494595 Z" id="Fill-86" fill="#9DA6B9"></path>
                <path d="M44.0527454,10.1283784 C44.264875,10.0416216 44.4902963,9.80540541 44.6476481,9.47608108 C44.8045972,9.14716216 44.8550787,8.80540541 44.8025833,8.55945946 C44.5907222,8.64648649 44.3651667,8.88297297 44.2075463,9.21202703 C44.0501944,9.54094595 43.999713,9.88243243 44.0527454,10.1283784 Z" id="Fill-87" fill="#9DA6B9"></path>
                <path d="M43.0829907,11.2647297 C43.0284815,11.6333784 43.0785602,11.9751351 43.1987222,12.1889189 C43.3741991,12.0302703 43.5206759,11.725 43.575588,11.3567568 C43.629963,10.9886486 43.5793472,10.6466216 43.4594537,10.4331081 C43.2837083,10.5913514 43.1377685,10.8968919 43.0829907,11.2647297 Z" id="Fill-88" fill="#9DA6B9"></path>
                <path d="M35.9089815,9.94216216 C35.9010602,10.1943243 36.0118241,10.5181081 36.2248935,10.8052703 C36.4375602,11.0922973 36.7007083,11.2733784 36.92425,11.3110811 C36.9319028,11.0581081 36.8211389,10.7348649 36.6080694,10.4475676 C36.3956713,10.1604054 36.1319861,9.97959459 35.9089815,9.94216216 Z" id="Fill-89" fill="#9DA6B9"></path>
                <path d="M37.478875,13.7956757 C37.8067361,13.8614865 38.1124444,13.8101351 38.3045694,13.677973 C38.1657454,13.4793243 37.8946759,13.3112162 37.5668148,13.2451351 C37.2398935,13.1790541 36.9339167,13.2304054 36.7416574,13.3625676 C36.8808843,13.5614865 37.1516852,13.7290541 37.478875,13.7956757 Z" id="Fill-90" fill="#9DA6B9"></path>
                <path d="M41.5504213,13.9487838 C41.8282037,13.7432432 42.016838,13.4683784 42.0740324,13.2241892 C41.8507593,13.1885135 41.5521667,13.277027 41.2746528,13.4831081 C40.9972731,13.6894595 40.8082361,13.9637838 40.7514444,14.2082432 C40.9744491,14.2441892 41.2731759,14.1558108 41.5504213,13.9487838 Z" id="Fill-91" fill="#9DA6B9"></path>
                <path d="M36.358213,12.1760811 C36.4284306,12.4158108 36.6323704,12.6768919 36.9207593,12.8635135 C37.2090139,13.0498649 37.5116343,13.1181081 37.7328935,13.0664865 C37.6620046,12.8266216 37.4586019,12.5659459 37.1700787,12.3793243 C36.8816898,12.1922973 36.5788009,12.1244595 36.358213,12.1760811 Z" id="Fill-92" fill="#9DA6B9"></path>
                <path d="M37.3481065,9.90121622 C37.50425,9.61567568 37.5660093,9.31283784 37.5309676,9.08891892 C37.336963,9.15445946 37.1233565,9.3522973 36.9662731,9.63783784 C36.8095926,9.9227027 36.7474306,10.2262162 36.782875,10.4494595 C36.9774167,10.3845946 37.1910231,10.1860811 37.3481065,9.90121622 Z" id="Fill-93" fill="#9DA6B9"></path>
                <path d="M37.5246574,12.1889189 C37.6453565,11.975 37.6951667,11.6332432 37.6406574,11.2645946 C37.5858796,10.8971622 37.4406111,10.5916216 37.264463,10.432973 C37.1437639,10.6464865 37.0936852,10.9889189 37.148463,11.3566216 C37.2029722,11.725 37.3491806,12.0302703 37.5246574,12.1889189 Z" id="Fill-94" fill="#9DA6B9"></path>
                <path d="M37.5814491,14.2971622 C37.7660556,14.4425676 38.0681389,14.5163514 38.3989537,14.4737838 C38.7297685,14.4308108 39.0092963,14.2832432 39.1589954,14.0939189 C38.9749259,13.9482432 38.6728426,13.8751351 38.3420278,13.9175676 C38.0109444,13.9606757 37.7314167,14.1081081 37.5814491,14.2971622 Z" id="Fill-95" fill="#9DA6B9"></path>
                <path d="M39.3355463,14.3477027 C39.0103704,14.4294595 38.7469537,14.6105405 38.6156481,14.8160811 C38.812338,14.9385135 39.1196574,14.9756757 39.4448333,14.8933784 C39.7560463,14.8145946 40.0110046,14.645 40.1475463,14.4501351 C40.1875556,14.4866216 40.227162,14.5240541 40.2658287,14.5624324 C39.9183657,14.7706757 39.6356157,15.0455405 39.3617269,15.407027 C39.469537,15.5783784 39.5231065,15.6641892 39.6303796,15.8352703 C39.8388843,15.3595946 40.059875,14.9714865 40.3513519,14.6497297 C40.6566574,14.9741892 40.9098704,15.3681081 41.1173009,15.8412162 C41.2248426,15.6701351 41.278412,15.5843243 41.3859537,15.412973 C41.1132731,15.0525676 40.7985694,14.7712162 40.436338,14.5597297 C40.4744676,14.5208108 40.5140741,14.4828378 40.5547546,14.4459459 C40.690088,14.642973 40.9465231,14.8140541 41.2600185,14.8933784 C41.5849259,14.9756757 41.8922454,14.9385135 42.0892037,14.8160811 C41.9583009,14.6105405 41.6944815,14.4294595 41.3695741,14.3477027 C41.0927315,14.2778378 40.828375,14.295 40.6341019,14.3772973 C40.6345046,14.3772973 40.6347731,14.3766216 40.6350417,14.3763514 C40.632625,14.3775676 40.6306111,14.3783784 40.6283287,14.3793243 C40.6233611,14.3816216 40.6179907,14.3836486 40.6130231,14.3860811 C40.5219954,14.425 40.4355324,14.4668919 40.3522917,14.5125676 C40.3522917,14.5125676 40.2420648,14.4468919 40.0581296,14.3721622 C39.8643935,14.2945946 39.6066157,14.2793243 39.3355463,14.3477027 Z" id="Fill-96" fill="#9DA6B9"></path>
                <path d="M39.1730926,13.9487838 C39.4506065,14.1558108 39.7497361,14.2441892 39.972338,14.2082432 C39.9155463,13.9637838 39.7262407,13.6894595 39.4493981,13.4831081 C39.1718843,13.277027 38.8724861,13.1885135 38.64975,13.2241892 C38.7066759,13.4683784 38.8955787,13.7432432 39.1730926,13.9487838 Z" id="Fill-97" fill="#9DA6B9"></path>
                <path d="M44.4992917,10.8052703 C44.7116898,10.5181081 44.823125,10.1943243 44.8148009,9.94216216 C44.5919306,9.97959459 44.3282454,10.1604054 44.1154444,10.4475676 C43.9021065,10.7348649 43.7917454,11.0581081 43.7996667,11.3110811 C44.0229398,11.2733784 44.2859537,11.092027 44.4992917,10.8052703 Z" id="Fill-98" fill="#9DA6B9"></path>
                <path d="M43.5534352,12.3793243 C43.2651806,12.5659459 43.0615093,12.8266216 42.9908889,13.0664865 C43.2118796,13.1181081 43.5145,13.05 43.8031574,12.8635135 C44.0920833,12.6768919 44.2950833,12.4158108 44.3654352,12.1760811 C44.144713,12.1244595 43.8418241,12.1922973 43.5534352,12.3793243 Z" id="Fill-99" fill="#9DA6B9"></path>
                <path d="M44.1237685,11.3083784 C43.8353796,11.4951351 43.6314398,11.7555405 43.5608194,11.9959459 C43.7818102,12.0471622 44.0846991,11.9793243 44.373088,11.7924324 C44.6610741,11.6059459 44.8650139,11.3452703 44.9356343,11.1052703 C44.714912,11.0539189 44.4117546,11.1217568 44.1237685,11.3083784 Z" id="Fill-100" fill="#9DA6B9"></path>
                <path d="M43.1565648,13.245 C42.8289722,13.3110811 42.5584398,13.4791892 42.4190787,13.677973 C42.6114722,13.8104054 42.9167778,13.8613514 43.2446389,13.7955405 C43.5726343,13.7291892 43.8430324,13.5614865 43.9822593,13.3624324 C43.7893287,13.2302703 43.4840231,13.1790541 43.1565648,13.245 Z" id="Fill-101" fill="#9DA6B9"></path>
                <path d="M44.8024491,8.55945946 C44.8549444,8.80554054 44.8048657,9.1472973 44.6475139,9.47608108 C44.4904306,9.80527027 44.264875,10.0417568 44.0527454,10.1285135 C43.9999815,9.88216216 44.0500602,9.54094595 44.207412,9.21216216 C44.3650324,8.8827027 44.5909907,8.64648649 44.8024491,8.55945946 Z" id="Fill-102" fill="#9DA6B9"></path>
                <path d="M43.3758102,9.90121622 C43.2193981,9.61567568 43.1572361,9.31283784 43.1930833,9.08891892 C43.3864167,9.15445946 43.6005602,9.3522973 43.757375,9.63783784 C43.9144583,9.9227027 43.9759491,10.2262162 43.9402361,10.4494595 C43.7462315,10.3845946 43.5323565,10.1860811 43.3758102,9.90121622 Z" id="Fill-103" fill="#9DA6B9"></path>
                <path d="M43.5754537,11.3567568 C43.5206759,11.7251351 43.3744676,12.0304054 43.1988565,12.1890541 C43.0788287,11.9752703 43.0283472,11.6331081 43.0828565,11.2647297 C43.1376343,10.897027 43.2835741,10.5914865 43.4594537,10.4328378 C43.5794815,10.6466216 43.629963,10.9886486 43.5754537,11.3567568 Z" id="Fill-104" fill="#9DA6B9"></path>
                <path d="M44.1154444,10.4475676 C44.3281111,10.1604054 44.5917963,9.97959459 44.8148009,9.94216216 C44.8229907,10.1943243 44.7119583,10.5181081 44.4992917,10.8054054 C44.2862222,11.092027 44.0228056,11.2733784 43.7998009,11.3110811 C43.7916111,11.0581081 43.9021065,10.7348649 44.1154444,10.4475676 Z" id="Fill-105" fill="#9DA6B9"></path>
                <path d="M44.1683426,7.6827027 C44.2875648,7.8972973 44.3353611,8.23972973 44.2781667,8.60716216 C44.2216435,8.97527027 44.0739583,9.27932432 43.8970046,9.43621622 C43.7780509,9.22175676 43.7297176,8.88 43.7867778,8.51189189 C43.8433009,8.14418919 43.9913889,7.83959459 44.1683426,7.6827027 Z" id="Fill-106" fill="#9DA6B9"></path>
                <path d="M43.5349074,6.60013514 C43.6945417,6.77878378 43.8109444,7.09905405 43.8302778,7.47243243 C43.8498796,7.84459459 43.7673102,8.17878378 43.6275463,8.37702703 C43.4672407,8.19851351 43.3512407,7.87743243 43.3321759,7.50527027 C43.3125741,7.13216216 43.394875,6.79837838 43.5349074,6.60013514 Z" id="Fill-107" fill="#9DA6B9"></path>
                <path d="M43.6530556,9.00337838 C43.4511296,9.01432432 43.1906667,8.90716216 42.9583981,8.69662162 C42.7254583,8.48608108 42.5771019,8.22297297 42.5446111,7.99918919 C42.746537,7.98824324 43.007537,8.09567568 43.2392685,8.30594595 C43.4719398,8.51675676 43.6208333,8.77945946 43.6530556,9.00337838 Z" id="Fill-108" fill="#9DA6B9"></path>
                <path d="M42.2744815,6.535 C42.4939954,6.59432432 42.741838,6.80067568 42.9316806,7.1077027 C43.1209861,7.41445946 43.2053009,7.7477027 43.1777778,7.99837838 C42.9589352,7.93905405 42.7101528,7.73297297 42.5208472,7.42594595 C42.3314074,7.11891892 42.2466898,6.78567568 42.2744815,6.535 Z" id="Fill-109" fill="#9DA6B9"></path>
                <path d="M42.4190787,12.6009459 C42.5707917,12.2687838 42.792588,12.0275676 43.0029722,11.9367568 C43.0596296,12.1814865 43.0145185,12.5245946 42.8626713,12.8563514 C42.7105556,13.1886486 42.4884907,13.4295946 42.2787778,13.5201351 C42.2215833,13.2756757 42.2666944,12.932973 42.4190787,12.6009459 Z" id="Fill-110" fill="#9DA6B9"></path>
                <path d="M42.3818889,13.9177027 C42.7125694,13.9606757 42.9918287,14.1082432 43.1419306,14.2971622 C42.9575926,14.4425676 42.6557778,14.5163514 42.324963,14.4739189 C41.9941481,14.4308108 41.7143519,14.2833784 41.5643843,14.0940541 C41.7483194,13.9483784 42.0510741,13.8751351 42.3818889,13.9177027 Z" id="Fill-111" fill="#9DA6B9"></path>
                <path d="M41.2746528,13.482973 C41.5520324,13.2768919 41.8508935,13.1883784 42.0738981,13.2240541 C42.0171065,13.4685135 41.8280694,13.742973 41.550287,13.9486486 C41.2734444,14.1555405 40.9743148,14.2440541 40.7513102,14.2081081 C40.8081019,13.9639189 40.9974074,13.6893243 41.2746528,13.482973 Z" id="Fill-112" fill="#9DA6B9"></path>
                <path d="M40.3524259,14.5125676 C40.4352639,14.4668919 40.5219954,14.425 40.6128889,14.3860811 C40.6178565,14.3839189 40.6230926,14.3816216 40.628463,14.3795946 C40.6307454,14.3783784 40.6327593,14.3775676 40.6351759,14.3763514 C40.6349074,14.3766216 40.6342361,14.3771622 40.6339676,14.3771622 C40.8285093,14.2948649 41.092463,14.2778378 41.3694398,14.3477027 C41.6943472,14.4294595 41.9583009,14.6105405 42.0890694,14.8160811 C41.8923796,14.9383784 41.5850602,14.9755405 41.2598843,14.8932432 C40.9466574,14.8139189 40.6899537,14.642973 40.5548889,14.4459459 C40.5138056,14.4828378 40.4746019,14.5208108 40.4362037,14.5597297 C40.7985694,14.7712162 41.1132731,15.0528378 41.3858194,15.412973 C41.2785463,15.5843243 41.2247083,15.6701351 41.1171667,15.8410811 C40.9097361,15.3681081 40.6565231,14.9740541 40.3512176,14.6497297 C40.0597407,14.9717568 39.8390185,15.3595946 39.6303796,15.8352703 C39.522838,15.6641892 39.469537,15.5783784 39.3617269,15.407027 C39.63575,15.0458108 39.9185,14.7706757 40.265963,14.5624324 C40.2272963,14.5240541 40.1876898,14.4866216 40.1472778,14.45 C40.0110046,14.645 39.7561806,14.8145946 39.4449676,14.8932432 C39.1197917,14.9755405 38.812338,14.9383784 38.6157824,14.8160811 C38.7466852,14.6105405 39.0105046,14.4294595 39.3356806,14.3477027 C39.60675,14.2793243 39.8645278,14.2945946 40.0579954,14.3724324 C40.2421991,14.4467568 40.3524259,14.5125676 40.3524259,14.5125676 Z" id="Fill-113" fill="#9DA6B9"></path>
                <path d="M39.4493981,13.482973 C39.7262407,13.6893243 39.9155463,13.9639189 39.9724722,14.2081081 C39.7494676,14.2440541 39.4506065,14.1555405 39.1730926,13.9486486 C38.8955787,13.742973 38.7066759,13.4685135 38.64975,13.2240541 C38.8724861,13.1883784 39.1718843,13.2768919 39.4493981,13.482973 Z" id="Fill-114" fill="#9DA6B9"></path>
                <path d="M39.1588611,14.0940541 C39.009162,14.2833784 38.7299028,14.4308108 38.3988194,14.4737838 C38.0680046,14.5163514 37.7659213,14.4425676 37.5814491,14.2971622 C37.7316852,14.1081081 38.0109444,13.9606757 38.3420278,13.9177027 C38.6728426,13.8751351 38.9749259,13.9483784 39.1588611,14.0940541 Z" id="Fill-115" fill="#9DA6B9"></path>
                <path d="M36.7830093,10.4494595 C36.7475648,10.2262162 36.8097269,9.92283784 36.9661389,9.63756757 C37.1234907,9.35243243 37.3368287,9.15445946 37.5308333,9.08905405 C37.5662778,9.31283784 37.5041157,9.61554054 37.3482407,9.90121622 C37.1911574,10.1860811 36.9772824,10.3843243 36.7830093,10.4494595 Z" id="Fill-116" fill="#9DA6B9"></path>
                <path d="M36.9241157,11.3110811 C36.7008426,11.2736486 36.4374259,11.0922973 36.2247593,10.8052703 C36.0116898,10.5181081 35.9009259,10.1941892 35.9088472,9.94202703 C36.1321204,9.97959459 36.395537,10.1606757 36.608338,10.4475676 C36.8210046,10.7348649 36.9317685,11.057973 36.9241157,11.3110811 Z" id="Fill-117" fill="#9DA6B9"></path>
                <path d="M37.2643287,10.432973 C37.4404769,10.5916216 37.5857454,10.8971622 37.6406574,11.2645946 C37.6950324,11.6332432 37.6452222,11.975 37.5245231,12.1887838 C37.3490463,12.0301351 37.202838,11.7252703 37.1483287,11.3568919 C37.0935509,10.9887838 37.1436296,10.6464865 37.2643287,10.432973 Z" id="Fill-118" fill="#9DA6B9"></path>
                <path d="M37.7328935,13.0663514 C37.5117685,13.117973 37.2087454,13.0501351 36.9207593,12.8637838 C36.6323704,12.6768919 36.4284306,12.4158108 36.358213,12.1760811 C36.5788009,12.1244595 36.8816898,12.1922973 37.1700787,12.3793243 C37.4586019,12.5659459 37.6620046,12.8266216 37.7328935,13.0663514 Z" id="Fill-119" fill="#9DA6B9"></path>
                <path d="M37.5668148,13.245 C37.8946759,13.3110811 38.1656111,13.4791892 38.3045694,13.677973 C38.1123102,13.8104054 37.8067361,13.8613514 37.478875,13.7955405 C37.1515509,13.7291892 36.8808843,13.5614865 36.7416574,13.3624324 C36.9341852,13.2302703 37.2397593,13.1790541 37.5668148,13.245 Z" id="Fill-120" fill="#9DA6B9"></path>
                <path d="M38.4451389,13.52 C38.2351574,13.4294595 38.0132269,13.1885135 37.8609769,12.8562162 C37.7091296,12.5247297 37.6634815,12.1817568 37.7205417,11.9366216 C37.9311944,12.0274324 38.153125,12.2687838 38.305375,12.6008108 C38.4569537,12.9331081 38.5020648,13.2755405 38.4451389,13.52 Z" id="Fill-121" fill="#9DA6B9"></path>
                <path d="M37.7923704,7.1077027 C37.9819444,6.80094595 38.2300556,6.59418919 38.4491667,6.535 C38.4770926,6.78594595 38.391838,7.11891892 38.2025324,7.42581081 C38.0132269,7.73283784 37.7644444,7.93932432 37.5458704,7.99864865 C37.5178102,7.74756757 37.6027963,7.41432432 37.7923704,7.1077027 Z" id="Fill-122" fill="#9DA6B9"></path>
                <path d="M37.4839769,8.30581081 C37.7163796,8.09554054 37.9773796,7.98824324 38.1793056,7.99918919 C38.146412,8.22297297 37.9981898,8.48608108 37.7655185,8.69662162 C37.5325787,8.90716216 37.2723843,9.01418919 37.0701898,9.00337838 C37.1033519,8.77945946 37.2515741,8.51675676 37.4839769,8.30581081 Z" id="Fill-123" fill="#9DA6B9"></path>
                <path d="M36.8936389,7.47243243 C36.9129722,7.09918919 37.0289722,6.77891892 37.1892778,6.60013514 C37.3290417,6.79837838 37.4110741,7.13216216 37.3917407,7.50527027 C37.3724074,7.87716216 37.2560046,8.19824324 37.0961019,8.37702703 C36.9560694,8.17878378 36.874037,7.84472973 36.8936389,7.47243243 Z" id="Fill-124" fill="#9DA6B9"></path>
                <path d="M36.5555741,7.6827027 C36.7319907,7.83959459 36.880213,8.14418919 36.9370046,8.51189189 C36.993662,8.88 36.9461343,9.22175676 36.8266435,9.43621622 C36.6502269,9.27932432 36.5020046,8.97527027 36.4450787,8.60716216 C36.388287,8.23972973 36.4363519,7.8972973 36.5555741,7.6827027 Z" id="Fill-125" fill="#9DA6B9"></path>
                <path d="M35.9213333,8.55945946 C36.1329259,8.64648649 36.3588843,8.8827027 36.5162361,9.21216216 C36.6734537,9.54094595 36.7239352,9.88216216 36.6706343,10.1285135 C36.4590417,10.0417568 36.2328148,9.80527027 36.0761343,9.47608108 C35.9190509,9.1472973 35.8680324,8.80554054 35.9213333,8.55945946 Z" id="Fill-126" fill="#9DA6B9"></path>
                <path d="M43.2447731,13.7956757 C42.916912,13.8614865 42.611338,13.8101351 42.4190787,13.677973 C42.5585741,13.4793243 42.8289722,13.3112162 43.1565648,13.2451351 C43.4841574,13.1790541 43.789463,13.2304054 43.9819907,13.3625676 C43.8430324,13.5614865 43.5726343,13.7290541 43.2447731,13.7956757 Z" id="Fill-127" fill="#9DA6B9"></path>
                <path d="M43.8031574,12.8636486 C43.5146343,13.05 43.2118796,13.1178378 42.9910231,13.0662162 C43.0616435,12.8267568 43.2651806,12.5660811 43.5535694,12.3794595 C43.8418241,12.1924324 44.1445787,12.1245946 44.3654352,12.1762162 C44.2950833,12.4159459 44.0918148,12.6766216 43.8031574,12.8636486 Z" id="Fill-128" fill="#9DA6B9"></path>
                <path d="M44.373088,11.7924324 C44.0848333,11.9791892 43.7818102,12.0472973 43.5608194,11.9956757 C43.6314398,11.7555405 43.8353796,11.4948649 44.1237685,11.3085135 C44.4114861,11.1218919 44.7150463,11.0540541 44.9356343,11.1052703 C44.8650139,11.3451351 44.6610741,11.6058108 44.373088,11.7924324 Z" id="Fill-129" fill="#9DA6B9"></path>
                <path d="M36.6001481,11.3083784 C36.888537,11.4951351 37.0924769,11.7555405 37.1626944,11.9959459 C36.9421065,12.0471622 36.6388148,11.9793243 36.3505602,11.7924324 C36.0621713,11.6059459 35.8583657,11.3452703 35.7880139,11.1052703 C36.0088704,11.0539189 36.312162,11.1217568 36.6001481,11.3083784 Z" id="Fill-130" fill="#9DA6B9"></path>
                <path d="M52.2649815,32.8614865 C52.4456944,32.3775676 52.5049028,31.8752703 52.4313287,31.4467568 C52.4258241,31.415 52.4199167,31.3845946 52.4129352,31.3536486 L52.3621852,31.117973 L56.6178009,33.1283784 C56.8676574,33.2413514 57.0197731,33.4041892 57.0836806,33.6262162 C57.2163287,34.0894595 56.9370694,34.692027 56.8108657,34.9291892 L56.7586389,35.0264865 L52.225375,32.9674324 L52.2649815,32.8614865 Z" id="Fill-131" fill="#1A202C"></path>
                <path d="M50.307213,31.7844595 C50.641787,31.2451351 50.9983796,30.9378378 51.3109352,30.9378378 L51.3126806,30.9378378 L51.5359537,30.992027 C51.6895463,31.0710811 51.8064861,31.2748649 51.8536111,31.5506757 C51.9163102,31.9125676 51.8518657,32.3404054 51.6731667,32.7551351 L51.6377222,32.8424324 C51.6367824,32.8437838 51.6338287,32.8509459 51.630875,32.8577027 C51.5410556,33.0966216 51.6506111,33.3637838 51.8808657,33.467027 L52.2816296,33.6489189 L54.0660694,34.4543243 L53.6118704,35.4839189 L50.9543426,34.4331081 C50.8770093,34.4021622 50.7973935,34.3868919 50.7185833,34.3864865 C50.510213,34.3871622 50.3214444,34.4932432 50.2004769,34.6791892 L50.1900046,34.6967568 C50.116162,34.8236486 49.8902037,35.1132432 49.6953935,35.1572973 C49.6807593,35.1604054 49.666125,35.1621622 49.6522963,35.1621622 C49.6379306,35.1621622 49.6238333,35.1608108 49.6101389,35.1572973 C49.9467269,34.0589189 50.1799352,32.9308108 50.307213,31.7844595 Z" id="Fill-132" fill="#1A202C"></path>
                <path d="M49.6344398,35.9128378 C49.7042546,35.9128378 49.7744722,35.9037838 49.8433472,35.8863514 C50.2286713,35.7895946 50.55425,35.3601351 50.7124074,35.1278378 C50.7285185,35.1074324 50.7522824,35.0941892 50.7788657,35.0941892 C50.7900093,35.0941892 50.8003472,35.0972973 50.8093426,35.1009459 L51.0288565,35.1959459 L51.2137315,35.2691892 C51.010463,35.7821622 50.7015324,36.5139189 50.4182454,37.1013514 L49.0859907,36.6052703 L49.0857222,36.6052703 C49.1439907,36.4416216 49.2919444,36.027027 49.3455139,35.8618919 C49.4393611,35.8958108 49.5357593,35.9128378 49.6344398,35.9128378 Z" id="Fill-133" fill="#1A202C"></path>
                <path d="M8.90384583,36.6052703 L8.90317454,36.6052703 L7.57145694,37.1013514 C7.28816991,36.5137838 6.97937361,35.7821622 6.77637361,35.2691892 L6.96084583,35.1958108 L7.17982269,35.1009459 C7.18975787,35.097027 7.19969306,35.0940541 7.21083657,35.0940541 C7.23715139,35.0940541 7.26091528,35.1074324 7.2779662,35.1277027 C7.43585509,35.3601351 7.76116528,35.7894595 8.14581806,35.8862162 C8.21496157,35.9036486 8.28558194,35.9128378 8.3552625,35.9128378 C8.4538088,35.9128378 8.55047546,35.8956757 8.64391991,35.8617568 C8.69775787,36.0268919 8.84584583,36.4416216 8.90384583,36.6052703 Z" id="Fill-134" fill="#1A202C"></path>
                <path d="M6.11058194,33.4671622 C6.34070231,33.3639189 6.45052639,33.0967568 6.36030417,32.8575676 C6.35761898,32.8510811 6.35506806,32.8439189 6.35412824,32.8424324 L6.31841528,32.7551351 C6.1397162,32.3405405 6.07540602,31.9125676 6.13756806,31.5504054 C6.18509583,31.2747297 6.30230417,31.0709459 6.45549398,30.9921622 L6.47858657,30.9806757 C6.54316528,30.952027 6.61083194,30.937973 6.67849861,30.937973 C6.99199398,30.937973 7.34791528,31.2452703 7.68289213,31.7845946 C7.80976713,32.9306757 8.04270694,34.0590541 8.3799662,35.1572973 C8.35244306,35.1637838 8.32545694,35.1637838 8.29578565,35.157027 C8.10124398,35.1131081 7.87541991,34.8233784 7.80157731,34.6966216 L7.79097083,34.6791892 C7.67000324,34.4933784 7.4809662,34.3866216 7.27273009,34.3866216 C7.19298009,34.3866216 7.11323009,34.4022973 7.03562824,34.432973 L4.37783194,35.4840541 C4.29579954,35.197027 4.1575125,34.8335135 3.92363287,34.4544595 L6.11058194,33.4671622 Z" id="Fill-135" fill="#1A202C"></path>
                <path d="M1.23240602,35.0263514 L1.18058194,34.9290541 C1.0545125,34.6918919 0.774984722,34.0894595 0.90776713,33.6260811 C0.971271759,33.4043243 1.12365602,33.2416216 1.37364676,33.1286486 L5.62953102,31.1178378 L5.57824398,31.3537838 C5.57179954,31.3844595 5.56562361,31.4151351 5.5603875,31.447027 C5.48654491,31.8752703 5.54575324,32.3774324 5.7264662,32.8614865 L5.7663412,32.9672973 L1.23240602,35.0263514 Z" id="Fill-136" fill="#1A202C"></path>
                <path d="M57.1032824,37.7659459 C54.8885417,43.4109459 51.149287,48.2395946 46.2895046,51.7298649 C41.6829352,55.0408108 36.2828935,56.9551351 30.674213,57.2656757 L30.6461528,57.2671622 L28.9957037,58.9525676 L27.3460602,57.2671622 L27.3175972,57.2656757 C21.7093194,56.9551351 16.3095463,55.0408108 11.7023458,51.7298649 C6.8429662,48.2395946 3.10371157,43.4109459 0.889105093,37.7659459 L0.832044907,37.6202703 L6.15233657,35.5113514 L6.20832269,35.6535135 C8.01236435,40.2222973 11.0468921,44.1322973 14.9842731,46.9595946 C18.91525,49.7804054 23.5446435,51.3402703 28.3715324,51.4705405 L28.4319491,51.472027 L28.9957037,52.0483784 L29.5597269,51.472027 L29.6206806,51.4705405 C34.4470324,51.3402703 39.0761574,49.7804054 43.0079398,46.9595946 C46.9454954,44.1322973 49.9801574,40.2225676 51.7839306,35.6535135 L51.8401852,35.5113514 L57.1602083,37.6202703 L57.1032824,37.7659459 Z" id="Fill-137" fill="#1A202C"></path>
                <path d="M54.1338704,40.9621622 L53.9150278,41.3163514 C53.8581019,41.407973 53.7990278,41.4006757 53.6990046,41.3418919 L52.4752315,40.6217568 L52.4710694,40.6291892 L53.4069907,41.9644595 C53.4593519,42.037027 53.4380046,42.0874324 53.4092731,42.1332432 L53.3284491,42.2644595 C53.2868287,42.3316216 53.2521898,42.3637838 53.1604907,42.355 L51.5191713,42.167973 L51.5147407,42.1751351 L52.7362315,42.9775676 C52.834375,43.0394595 52.81625,43.092027 52.7701991,43.1666216 L52.5912315,43.4564865 C52.5408843,43.5381081 52.4883889,43.5590541 52.4150833,43.5125676 C52.4115926,43.5104054 52.4081019,43.5081081 52.4046111,43.5060811 L50.260088,42.0160811 C50.1780556,41.9594595 50.1742963,41.9025676 50.2159167,41.8356757 L50.373537,41.5810811 C50.4238843,41.4994595 50.4710093,41.485 50.5574722,41.4955405 L52.6222454,41.7141892 L52.6266759,41.707027 L51.4833241,39.9989189 C51.4411667,39.9331081 51.4302917,39.8717568 51.4783565,39.7941892 L51.6316806,39.5467568 C51.6755833,39.4760811 51.7151898,39.4663514 51.7801713,39.5028378 L54.0845972,40.7983784 C54.0875509,40.8001351 54.0914444,40.8025676 54.0952037,40.8052703 C54.1613935,40.847027 54.1730741,40.8983784 54.1338704,40.9621622 Z M51.1024306,45.4616216 C50.5592176,46.1228378 49.9582731,46.1224324 49.2859028,45.5568919 L48.1531574,44.6051351 C48.0895185,44.5517568 48.1048241,44.4939189 48.1522176,44.4362162 L48.4133519,44.1185135 C48.463162,44.0575676 48.505588,44.0383784 48.5720463,44.0947297 L49.6670648,45.0147297 C50.1651667,45.4332432 50.4501991,45.3801351 50.6954907,45.0817568 C50.9274907,44.7991892 50.924,44.5033784 50.4323426,44.0895946 L49.3342361,43.1671622 C49.2705972,43.1137838 49.2834861,43.0591892 49.3310139,43.0017568 L49.5920139,42.6837838 C49.6420926,42.6231081 49.6843843,42.6044595 49.7508426,42.6602703 L50.8803657,43.6095946 C51.5943565,44.2097297 51.6084537,44.8452703 51.1024306,45.4616216 Z M49.521125,47.2081081 L49.2178333,47.4912162 C49.1390231,47.5648649 49.0845139,47.5421622 49.0031528,47.4587838 L48.0095,46.4381081 L48.0037269,46.4439189 L48.5588889,47.9816216 C48.5908426,48.0656757 48.5571435,48.1083784 48.5179398,48.1452703 L48.4054306,48.25 C48.3479676,48.3039189 48.3060787,48.3258108 48.2196157,48.2927027 L46.6848981,47.6752703 L46.6784537,47.6810811 L47.6483426,48.7808108 C47.7271528,48.8663514 47.6957361,48.9124324 47.6320972,48.9722973 L47.3837176,49.2045946 C47.3136343,49.2691892 47.2580509,49.2759459 47.1991111,49.2113514 C47.1964259,49.2087838 47.1934722,49.2052703 47.1906528,49.2022973 L45.5090556,47.1936486 C45.4448796,47.1175676 45.4560231,47.0617568 45.5137546,47.0078378 L45.7320602,46.8040541 C45.8020093,46.7391892 45.8512824,46.737973 45.931838,46.7709459 L47.8671852,47.5313514 L47.8733611,47.5254054 L47.2146852,45.5733784 C47.1911898,45.4985135 47.1964259,45.4364865 47.263287,45.3743243 L47.4756852,45.1763514 C47.5361019,45.1194595 47.5770509,45.1212162 47.6303519,45.1735135 L49.5164259,47.0367568 C49.5191111,47.0397297 49.5220648,47.0425676 49.5248843,47.0458108 C49.5780509,47.1043243 49.5756343,47.1572973 49.521125,47.2081081 Z M44.9720185,47.9551351 L44.7926481,48.0889189 L45.994,49.7340541 L46.1600787,49.6101351 C46.2131111,49.5706757 46.2690972,49.5906757 46.3030648,49.6375676 L46.433162,49.8156757 C46.4625648,49.8558108 46.4631019,49.9127027 46.4165139,49.9475676 L45.5635648,50.5845946 C45.5137546,50.6217568 45.4537407,50.6095946 45.4267546,50.5727027 L45.2942407,50.3916216 C45.2498009,50.3312162 45.2634954,50.2793243 45.3135741,50.2424324 L45.4662269,50.1282432 L44.2650093,48.4832432 L44.0888611,48.6148649 C44.0358287,48.6543243 43.9798426,48.6339189 43.9456065,48.587027 L43.8155093,48.4089189 C43.7862407,48.3682432 43.7855694,48.3118919 43.8321574,48.2771622 L44.7217593,47.612973 C44.7715694,47.5755405 44.8315833,47.5875676 44.8585694,47.6244595 L44.9910833,47.8058108 C45.0349861,47.8660811 45.0215602,47.917973 44.9720185,47.9551351 Z M43.44925,49.0960811 C43.4841574,49.1718919 43.448713,49.2175676 43.3741991,49.2621622 L42.7511019,49.6390541 L43.8910972,51.5701351 C43.9376852,51.6489189 43.9356713,51.6694595 43.8647824,51.7125676 L43.4641528,51.9540541 C43.3900417,51.9991892 43.3766157,51.9924324 43.3323102,51.9175676 L42.1876157,49.9793243 L41.5395463,50.3706757 C41.4685231,50.4137838 41.4193843,50.3948649 41.3768241,50.3232432 L41.2201435,50.0581081 C41.1842963,49.9972973 41.1993333,49.9495946 41.2632407,49.9106757 L42.988338,48.8690541 L43.1685139,48.7598649 C43.2324213,48.7209459 43.2743102,48.7348649 43.3015648,48.7814865 C43.3039815,48.785 43.3057269,48.7885135 43.3100231,48.7959459 L43.44925,49.0960811 Z M39.991537,51.102973 L39.8078704,51.1887838 L40.1852731,52.0101351 C40.2356204,51.9912162 40.3590046,51.9335135 40.3888102,51.9190541 C40.6692778,51.7878378 40.7495648,51.5754054 40.6241667,51.3022973 C40.4923241,51.0144595 40.2716019,50.9712162 39.991537,51.102973 Z M40.6063102,52.3832432 C40.5575741,52.4056757 40.4380833,52.4528378 40.3952546,52.4683784 L40.7533241,53.2478378 C40.7829954,53.3124324 40.7741343,53.3625676 40.6880741,53.4032432 L40.313625,53.5787838 C40.2462269,53.6102703 40.1927917,53.6032432 40.1509028,53.5124324 L39.0530648,51.1198649 C39.0096991,51.0256757 39.0252731,50.9909459 39.1113333,50.9502703 L39.6949583,50.6756757 C40.1295556,50.4718919 40.4635926,50.4072973 40.7515787,50.53 C40.955787,50.6178378 41.1187778,50.7941892 41.2110139,50.995 C41.4905417,51.6040541 41.1829537,52.1121622 40.6063102,52.3832432 Z M37.3803287,52.1398649 C37.0398472,52.2560811 36.9106898,52.6389189 37.1057685,53.2243243 C37.3138704,53.8486486 37.6159537,54.0497297 37.9874491,53.9232432 C38.3316898,53.8062162 38.4605787,53.4493243 38.2566389,52.8364865 C38.0445093,52.2001351 37.7515556,52.0133784 37.3803287,52.1398649 Z M38.1456065,54.4640541 C37.3595185,54.7316216 36.7295741,54.3166216 36.446287,53.4660811 C36.1643426,52.6202703 36.4401111,51.8656757 37.2180093,51.6008108 C38.0355139,51.3224324 38.6498843,51.7951351 38.9177315,52.5982432 C39.2136389,53.4877027 38.8808102,54.2133784 38.1456065,54.4640541 Z M34.0195509,52.9677027 L33.7995,53.0063514 L34.1458889,55.0206757 L34.3495602,54.9852703 C34.4145417,54.9737838 34.455625,55.0174324 34.4652917,55.0748649 L34.5026157,55.2931081 C34.5112083,55.342027 34.4861019,55.3928378 34.4294444,55.4031081 L33.3849074,55.5868919 C33.3236852,55.5974324 33.2753519,55.5591892 33.2676991,55.5140541 L33.2297037,55.2921622 C33.2170833,55.217973 33.2518565,55.1781081 33.3128102,55.1671622 L33.4998333,55.1341892 L33.1534444,53.1198649 L32.9383611,53.157973 C32.8731111,53.1694595 32.8320278,53.1258108 32.8223611,53.0682432 L32.7849028,52.85 C32.776713,52.8008108 32.8012824,52.7501351 32.8584769,52.7397297 L33.9471852,52.5483784 C34.0084074,52.537973 34.0567407,52.5758108 34.064662,52.6212162 L34.1027917,52.8432432 C34.115412,52.917027 34.0802361,52.9571622 34.0195509,52.9677027 Z M31.2249444,55.895 C30.958037,55.9166216 30.6286991,55.8891892 30.3538704,55.8148649 C30.2862037,55.7991892 30.2636481,55.7714865 30.2604259,55.7343243 C30.2589491,55.7136486 30.2653935,55.6877027 30.2715694,55.6617568 L30.3561528,55.3163514 C30.3652824,55.2733784 30.3826019,55.2347297 30.4364398,55.2302703 C30.456713,55.2287838 30.4777917,55.2314865 30.5073287,55.2414865 C30.715162,55.3043243 30.9495787,55.3355405 31.1590231,55.3185135 C31.3319491,55.3048649 31.5428704,55.1958108 31.5267593,54.9917568 C31.5141389,54.8339189 31.3845787,54.7648649 31.2524676,54.7168919 L30.6810602,54.5033784 C30.3655509,54.3862162 30.1440231,54.145 30.1162315,53.7952703 C30.0746111,53.262973 30.5771435,52.9210811 31.0588657,52.8818919 C31.3543704,52.8583784 31.6137593,52.8918919 31.881875,52.9836486 C31.9498102,53.0075676 31.9767963,53.0340541 31.97975,53.0718919 C31.9808241,53.0883784 31.9743796,53.1098649 31.9679352,53.1355405 L31.8663009,53.4702703 C31.8499213,53.5263514 31.8266944,53.5486486 31.7901759,53.5516216 C31.7693657,53.5533784 31.7438565,53.5466216 31.7141852,53.5366216 C31.5396481,53.4755405 31.3128843,53.4348649 31.1443889,53.4487838 C30.9800556,53.462027 30.7997454,53.5393243 30.8150509,53.7344595 C30.8255231,53.8681081 30.9964352,53.937973 31.1027685,53.9751351 L31.5929491,54.1535135 C31.9299398,54.2771622 32.1569722,54.485 32.186912,54.8636486 C32.234037,55.4621622 31.7886991,55.8498649 31.2249444,55.895 Z M29.1815185,53.4613514 L28.9589167,53.4581081 L28.9284398,55.5021622 L29.1349306,55.5058108 C29.2008519,55.5063514 29.2330741,55.557027 29.232537,55.6158108 L29.2290463,55.8366216 C29.227838,55.8867568 29.1944074,55.9321622 29.1369444,55.931362 L28.0766991,55.9154054 C28.014537,55.9141892 27.974125,55.8675676 27.9749187,55.8218919 L27.9778843,55.5968919 C27.9793611,55.5213514 28.0209815,55.4889189 28.0827407,55.4894595 L28.2727176,55.4924324 L28.3027917,53.4481081 L28.0839491,53.4448649 C28.0180278,53.4440541 27.9860741,53.3932432 27.9870139,53.3345946 L27.9899676,53.1136486 C27.9907731,53.0639189 28.0244722,53.0181081 28.0822037,53.0190397 L29.1876944,53.0358108 C29.249588,53.0367568 29.29,53.0833784 29.2893369,53.1293243 L29.286375,53.3543243 C29.2850324,53.4295946 29.2430093,53.4622973 29.1815185,53.4613514 Z M26.6213287,55.8481081 L26.2731944,55.8044595 C26.1993519,55.7954054 26.1416204,55.7585135 26.104162,55.6909459 L25.0854028,53.8935135 L25.0768102,53.8925676 L24.8797176,55.5036486 C24.8685741,55.5951351 24.8237315,55.6228378 24.7416991,55.6125676 L24.3608056,55.565 C24.2666898,55.5532432 24.2280231,55.5272973 24.240375,55.4278378 L24.5623287,52.802027 C24.5752176,52.6940541 24.6267731,52.6795946 24.7129676,52.6905405 L25.0569398,52.7339189 C25.1387037,52.7441892 25.1765648,52.7739189 25.2140231,52.8414865 L26.2313056,54.6510811 L26.2397639,54.6525676 L26.4387361,53.0287838 C26.4498796,52.9377027 26.4984815,52.9143243 26.5802454,52.9243243 L26.9775185,52.9744595 C27.0839861,52.9878378 27.0850602,53.0467568 27.0763333,53.1172973 L26.7557222,55.7345946 C26.7425648,55.8422973 26.6951713,55.8572973 26.6213287,55.8481081 Z M20.6870694,54.7395946 C20.4300972,54.6613514 20.1336528,54.5141892 19.9042037,54.3443243 C19.8467407,54.3051351 19.8353287,54.2709459 19.8462037,54.235 C19.8521111,54.2148649 19.8672824,54.1933784 19.8821852,54.1718919 L20.0853194,53.8808108 C20.1086806,53.8444595 20.1395602,53.8147297 20.1911157,53.8297297 C20.2107176,53.8362162 20.2291111,53.8459459 20.2531435,53.8663514 C20.4243241,54.0013514 20.6314861,54.1167568 20.8327407,54.1781081 C20.9985509,54.2285135 21.2341759,54.2043243 21.2924444,54.0085135 C21.3378241,53.8566216 21.2420972,53.7448649 21.1360324,53.6516216 L20.6803565,53.2422973 C20.4283519,53.0175676 20.3085926,52.7108108 20.40875,52.3752703 C20.5608657,51.8635135 21.152412,51.73 21.6148009,51.8706757 C21.8992963,51.957027 22.1287454,52.0839189 22.3455741,52.2675676 C22.4003519,52.3147297 22.4157917,52.3501351 22.4050509,52.3858108 C22.4003519,52.402027 22.3865231,52.4194595 22.3716204,52.4409459 L22.156,52.7155405 C22.1208241,52.7616216 22.0915556,52.7743243 22.0557083,52.7633784 C22.0361065,52.7574324 22.0144907,52.7421622 21.9904583,52.7217568 C21.8500231,52.6005405 21.6531991,52.4795946 21.4911481,52.4301351 C21.3328565,52.382027 21.1375093,52.387973 21.0815231,52.5755405 C21.0433935,52.7035135 21.1776528,52.8314865 21.2634444,52.9058108 L21.65575,53.2517568 C21.9250741,53.4905405 22.0624213,53.7678378 21.9543426,54.1317568 C21.782625,54.7071622 21.2282685,54.9044595 20.6870694,54.7395946 Z M19.7108704,51.7397297 L19.5039769,51.6554054 L18.7474259,53.5516216 L18.9387454,53.6298649 C19.0003704,53.6545946 19.0123194,53.7139189 18.9907037,53.7678378 L18.9089398,53.9728378 C18.8901435,54.0197297 18.8426157,54.0494595 18.7890463,54.027973 L17.805463,53.6266216 C17.748,53.602973 17.7269213,53.5448649 17.7439722,53.5021622 L17.8270787,53.2932432 C17.8550046,53.2233784 17.9056204,53.2081081 17.9630833,53.232027 L18.1392315,53.3033784 L18.8956481,51.407027 L18.6926481,51.3244595 C18.6314259,51.2990541 18.6194769,51.2404054 18.6410926,51.1862162 L18.7228565,50.9812162 C18.74125,50.9348649 18.7887778,50.9044595 18.8426157,50.9263514 L19.8682222,51.3448649 C19.9252824,51.3681081 19.9467639,51.4264865 19.929713,51.4689189 L19.8462037,51.6778378 C19.8186806,51.7474324 19.7679306,51.7632432 19.7108704,51.7397297 Z M17.9496574,51.0227027 C17.9041435,51.092973 17.8470833,51.0862162 17.770287,51.0458108 L17.1269167,50.7054054 L16.0963426,52.6990541 C16.0541852,52.7801351 16.0356574,52.7893243 15.9624861,52.7506757 L15.5493704,52.5321622 C15.4725741,52.4917568 15.4710972,52.477027 15.5109722,52.3991892 L16.5453056,50.3981081 L15.8760231,50.0441892 C15.8031204,50.0056757 15.7925139,49.9533784 15.8311806,49.8793243 L15.9726898,49.6054054 C16.004912,49.5425676 16.0532454,49.5305405 16.1188981,49.5652703 L17.9001157,50.5063514 L18.0864676,50.6051351 C18.1523889,50.6405405 18.1625926,50.6833784 18.1377546,50.7313514 C18.1356065,50.7348649 18.1335926,50.7387838 18.1301019,50.7460811 L17.9496574,51.0227027 Z M14.4761019,49.6605405 C14.5016111,49.567973 14.5232269,49.4874324 14.5445741,49.4166216 L14.5373241,49.4122973 C14.4798611,49.4635135 14.4139398,49.5198649 14.3425139,49.5774324 L13.6831667,50.1194595 L14.2501435,50.4931081 L14.4761019,49.6605405 Z M14.4652269,51.9490541 L14.0778889,51.6943243 C13.9949167,51.6391892 13.9884722,51.5801351 14.0057917,51.5072973 L14.1289074,51.0101351 L14.0043148,50.9283784 L13.3957579,50.5275676 L13.2747903,50.447973 L12.8663736,50.7764865 C12.8232764,50.8128378 12.770781,50.8331081 12.7083505,50.7921622 L12.3142995,50.5325676 C12.2761699,50.5072973 12.2746931,50.4716216 12.2949662,50.4406757 C12.3040958,50.4262162 12.3130912,50.4122973 12.3289338,50.4028378 L14.5950556,48.702973 C14.6495648,48.6643243 14.7031343,48.6498649 14.7690556,48.6932432 L15.1251111,48.9274324 C15.1942546,48.9728378 15.2121111,49.0294595 15.2000278,49.0863514 L14.6059306,51.8677027 C14.5997546,51.8933784 14.5918333,51.9128378 14.5827037,51.9266216 C14.5557176,51.9685135 14.5135602,51.9806757 14.4652269,51.9490541 Z M10.9263273,49.4974324 C10.7176884,49.327027 10.4980403,49.0775676 10.3491468,48.8321622 C10.3107486,48.7737838 10.313031,48.7381081 10.3362579,48.7086486 C10.3491468,48.6924324 10.371031,48.6782432 10.3933181,48.6643243 L10.6901653,48.472027 C10.7256097,48.4475676 10.7649477,48.4313514 10.8068366,48.4655405 C10.8229477,48.4787838 10.8363736,48.4947297 10.8507394,48.5233784 C10.9588181,48.7132432 11.1074431,48.8994595 11.2709708,49.0336486 C11.4056329,49.1435135 11.6330681,49.2110811 11.7599431,49.0521622 C11.8586236,48.9289189 11.8117671,48.7885135 11.748531,48.6617568 L11.4794755,48.1087838 C11.3304477,47.8043243 11.3342069,47.4743243 11.552244,47.2018919 C11.8844014,46.7863514 12.4818551,46.8889189 12.857244,47.1959459 C13.0881699,47.3847297 13.2533088,47.5897297 13.3855542,47.8427027 C13.4185819,47.9075676 13.4197903,47.9459459 13.3962949,47.9751351 C13.3860912,47.9883784 13.3667579,47.9993243 13.3444708,48.0135135 L13.042656,48.1848649 C12.9928458,48.2143243 12.9606236,48.2145946 12.9316236,48.1910811 C12.915781,48.1781081 12.9018181,48.1559459 12.8870495,48.1275676 C12.8024662,47.9612162 12.6652532,47.7740541 12.5338134,47.6666216 C12.4054616,47.5616216 12.2223319,47.4922973 12.100156,47.6448649 C12.0171838,47.7483784 12.0937116,47.9185135 12.1452671,48.02 L12.379281,48.4906757 C12.5393181,48.8144595 12.5628134,49.1235135 12.3266514,49.4190541 C11.9527394,49.8862162 11.3658921,49.8572973 10.9263273,49.4974324 Z M8.51086898,47.2163514 L7.44847546,46.0502703 C7.38980417,45.9854054 7.37396157,45.9378378 7.45599398,45.8614865 L9.37992917,44.0683784 C9.43470694,44.017973 9.49002176,44.0171622 9.54332269,44.0755405 L9.82580417,44.3854054 C9.88729491,44.452973 9.88823472,44.4975676 9.81855417,44.5624324 L8.2102625,46.0608108 L8.92304491,46.8435135 C8.97607731,46.9018919 8.9678875,46.9606757 8.91310972,47.0113514 L8.68258657,47.2263514 C8.61572546,47.2886486 8.5582625,47.2682432 8.51086898,47.2163514 Z M8.49059583,43.462027 L8.3552625,43.2833784 L6.75140139,44.5282432 L6.87706806,44.6939189 C6.91721157,44.7467568 6.89814676,44.8039189 6.85249861,44.8390541 L6.67863287,44.9737838 C6.63969769,45.0044595 6.58344306,45.0059459 6.54826713,44.9595946 L5.90288287,44.1087838 C5.86475324,44.0593243 5.87562824,43.997973 5.91187824,43.9702703 L6.08856343,43.8331081 C6.14750324,43.7874324 6.19879028,43.8 6.23651713,43.8498649 L6.35224861,44.0017568 L7.95557269,42.7568919 L7.82225324,42.5817568 C7.78210972,42.5286486 7.80144306,42.4714865 7.84749398,42.4360811 L8.02068843,42.3013514 C8.05989213,42.2712162 8.11614676,42.2694595 8.15132269,42.3158108 L8.82463287,43.2028378 C8.8620912,43.2527027 8.85135046,43.3135135 8.81523472,43.3414865 L8.63854954,43.4789189 C8.57974398,43.5243243 8.52845694,43.5118919 8.49059583,43.462027 Z M5.1260588,43.0264865 L4.94212361,42.7244595 C4.90345694,42.6602703 4.89553565,42.5914865 4.92453565,42.5195946 L5.67544769,40.5922973 L5.67101713,40.5855405 L4.30385509,41.4356757 C4.22652176,41.4840541 4.17711435,41.4660811 4.13374861,41.3947297 L3.93262824,41.0641892 C3.88281806,40.9824324 3.87879028,40.9362162 3.96310509,40.8836486 L6.1911375,39.497027 C6.28256806,39.4404054 6.32620231,39.4718919 6.37158194,39.5467568 L6.55323472,39.8452703 C6.59633194,39.9163514 6.59700324,39.965 6.56800324,40.0368919 L5.80648472,41.9706757 L5.81104954,41.9774324 L7.18854954,41.1208108 C7.26588287,41.0727027 7.3142162,41.0963514 7.35731343,41.1677027 L7.56702639,41.5127027 C7.6236838,41.6047297 7.57843843,41.6424324 7.51869306,41.6795946 L5.29777639,43.0616216 C5.20634583,43.1187838 5.16499398,43.0905405 5.1260588,43.0264865 Z" id="Fill-138" fill="#9DA6B9"></path>
            </g>
        </g>
    </g>
</svg>