<?xml version="1.0" encoding="UTF-8"?>
<svg width="150px" height="60px" viewBox="0 0 150 60" version="1.1" xmlns="http://www.w3.org/2000/svg" xmlns:xlink="http://www.w3.org/1999/xlink">
    <title>Artboard</title>
    <g id="Artboard" stroke="none" stroke-width="1" fill="none" fill-rule="evenodd">
        <g id="Group-15" transform="translate(52.000000, 0.000000)" fill="#9DA6B9">
            <path d="M24.4377873,6.4137931 L34.1281396,15.9311093 L31.2735014,18.9122592 L25.1050614,12.7208451 L22.9261837,14.9624129 L34.2195374,26.4069186 L31.2108825,29.189448 L24.9179275,23.1378221 L22.7208183,25.2696266 L27.2235991,29.8930182 L27.2423106,29.8991006 C28.3974532,30.2763161 29.4793144,30.9245546 30.5049551,31.835325 L30.5049551,31.835325 L30.5341482,31.8613326 L30.5663252,31.8891189 C31.6994289,32.8713705 32.5172763,33.9992879 33.0171046,35.2569392 L33.0171046,35.2569392 L33.0323061,35.2954792 L33.0613788,35.3674164 C34.0749046,37.9092554 33.7287962,40.287282 32.0306878,42.4496969 L32.0306878,42.4496969 L31.7917522,42.7539637 L28.2981709,39.6944481 L28.4465076,39.4349987 C28.9327818,38.5844777 29.1001668,37.7482471 28.9568494,36.9129767 L28.9568494,36.9129767 L28.9538826,36.9000031 C28.7800272,36.0818989 28.3967157,35.4086695 27.7770524,34.8510519 L27.7770524,34.8510519 L27.7580092,34.834018 C26.7262547,33.9256141 25.5242476,33.6023726 24.2044235,33.8896779 L24.2044235,33.8896779 L24.2007378,33.8904802 L24.1553229,33.8995545 C22.7793565,34.1802573 21.4605248,34.9781383 20.1740127,36.3148129 L20.1740127,36.3148129 L20.1356286,36.3534026 C19.0392039,37.4582589 18.3557464,38.6221911 18.0518848,39.8613698 L18.0518848,39.8613698 L18.0403466,39.9075638 C17.6915065,41.3297116 18.0418289,42.4839109 19.1223339,43.4225134 L19.1223339,43.4225134 L19.1746203,43.4687683 C20.7726843,44.8687311 22.4698165,44.9502129 24.3174137,43.711136 L24.3174137,43.711136 L24.5525063,43.553473 L28.0602326,46.6521888 L27.6880233,46.9197205 C25.2607303,48.6643784 22.7250233,49.2182367 20.1614285,48.5575678 L20.1614285,48.5575678 L20.1252111,48.5486122 C18.8029156,48.2173799 17.5632494,47.5440606 16.4103382,46.5345894 L16.4103382,46.5345894 L16.3750722,46.5035823 C15.0870477,45.3804067 14.1819116,44.0890671 13.6873151,42.6601246 L13.6873151,42.6601246 L13.6728009,42.6193146 C13.1536063,41.1442067 13.1174665,39.6301532 13.5766331,38.0656446 L13.5755191,38.0694172 L13.5884619,38.0232089 C14.0329397,36.4518157 15.0014793,34.8786689 16.4673032,33.3499439 L16.4673032,33.3499439 L16.5123307,33.3031601 C17.7172617,32.0726219 18.9878098,31.1220196 20.2989946,30.467111 L20.2989946,30.467111 L20.3479238,30.4426298 C20.7072253,30.264135 21.0772123,30.1084088 21.4556784,29.9763002 L21.4556784,29.9763002 L21.4694033,29.9715187 L19.8270587,28.3302668 L14.45232,33.5174514 L11.1991213,30.2982514 L21.5675556,19.6458278 L19.9233935,17.8606629 L14.4934859,23.1813227 L11.3405544,19.7495782 L24.4377873,6.4137931 Z" id="Combined-Shape"></path>
            <path d="M23.1470426,0.000521738158 C15.8222432,-0.0247171777 7.97362516,0.866256222 0.548106914,2.56048399 L0.265879039,2.62487792 L0,36.2586766 L0.0244899536,36.3228253 C2.20719936,42.040191 5.08546845,46.9365833 8.68119936,50.8596731 C12.5945061,55.1292512 17.3201064,58.2058475 22.8770528,59.9609053 L23.0008363,60 L23.1216705,59.9526111 C28.5293711,57.8318135 33.0473274,54.661796 36.7772173,50.4812813 C40.22357,46.618559 42.9884732,41.9064501 45.18593,36.3263811 L45.2112676,36.2620406 L45.2112676,2.83964168 L44.931861,2.7716695 C37.3412733,0.925081383 30.4076713,0.0273671274 23.1470426,0.000521738158 Z M23.1444195,0.730824824 L23.3603529,0.732406231 C30.3391164,0.774482748 37.0218453,1.630463 44.3068663,3.37228955 L44.4788299,3.41357757 L44.4788299,36.1235476 L44.5041932,36.0594539 C42.3366425,41.5635812 39.6150747,46.2018355 36.2300096,49.9958656 L36.1201565,50.1184343 C32.5240831,54.1126158 28.1888611,57.1533661 23.0123213,59.2103252 L22.9744924,59.2252445 L23.0982106,59.2646919 C17.6662937,57.5491223 13.0500338,54.5437119 9.22183985,50.3669954 L9.11616574,50.2511824 C5.67098024,46.4584964 2.89561773,41.7388888 0.773735923,36.2318386 L0.733476029,36.1268679 L0.993676169,3.20845905 L1.15427652,3.17242815 C8.32228556,1.57158603 15.869032,0.723351232 22.930619,0.730824824 L23.1444195,0.730824824 Z" id="Path" fill-rule="nonzero"></path>
            <path d="M0.704136956,2.86995034 L5.01064579,2.00320485 L9.73712821,1.24137931 L9.71079089,51.5172414 C6.06093567,47.7340769 3.09335958,42.3756906 0.414782272,36.2814419 L0.704136956,2.86995034 L0.704136956,2.86995034 Z M44.6885404,3.02715244 L40.3030196,2.1344437 L35.4455623,1.39893707 L35.419225,51.4116101 C39.1480922,47.6028381 42.2733363,42.5332483 45.0038765,36.4389997 L44.6885404,3.02715244 Z" id="Shape" stroke="#9DA6B9" stroke-width="0.5" fill-rule="nonzero"></path>
        </g>
    </g>
</svg>