<?xml version="1.0" encoding="UTF-8"?>
<svg width="135px" height="108px" viewBox="0 0 135 108" version="1.1" xmlns="http://www.w3.org/2000/svg" xmlns:xlink="http://www.w3.org/1999/xlink">
    <title>holiday-inn-seeklogo.com</title>
    <g id="Page-1" stroke="none" stroke-width="1" fill="none" fill-rule="evenodd">
        <g id="iPhone-X" transform="translate(-1125.000000, -3344.000000)" fill="#9DA6B9" fill-rule="nonzero">
            <g id="holiday-inn-seeklogo.com" transform="translate(1125.000000, 3344.000000)">
                <path d="M101.44946,22.54573 C100.08499,15.30359 92.58561,16.63311 90.51969,17.0678 C86.7144,17.86845 83.09642,18.73233 79.64817,19.65091 C81.45023,13.88794 83.53294,8.28532 86.72601,0.69181 C85.40226,0.3421 83.91161,0.12156 82.22604,0.32957 C80.32061,0.5647 78.18698,1.54195 76.91404,3.95868 C74.87257,7.83447 72.66559,13.92583 70.23385,22.42865 C65.20649,24.06386 60.59149,25.82469 56.33927,27.68342 C58.5743,19.71336 61.49467,11.67483 64.60206,4.93188 C63.95109,4.723 62.70271,4.5133 61.80117,4.5133 C58.35877,4.5133 56.3578,5.8135 54.79588,9.19275 C52.35958,14.44763 49.47391,23.30349 47.31763,32.0395 C43.12348,34.27244 39.33306,36.60031 35.87862,38.98381 C33.73445,40.4632 33.21051,42.40319 33.08466,43.28876 C32.98771,43.90585 33.11441,45.20059 33.53047,45.98746 C35.87073,44.58882 40.06038,42.22298 45.65477,39.50358 C44.53539,45.05167 43.23148,52.74982 43.20517,58.62075 C43.19193,61.61869 45.03945,63.37678 47.68086,63.37678 C48.40844,63.37678 49.84559,63.16796 50.00676,63.00186 C50.77045,52.71289 52.82826,42.30297 54.38055,35.51958 C58.54361,33.73765 63.15422,31.93097 68.11414,30.23802 C67.99404,30.70099 67.87468,31.15677 67.75351,31.63061 C63.92659,46.59596 61.36021,62.72575 61.57089,67.1034 C61.74164,70.65083 64.35183,72.0099 66.56687,72.0099 C67.25981,72.0099 68.67814,71.81893 69.16817,71.59816 C70.10373,60.62794 73.13777,44.01183 74.75918,37.57685 C75.72624,33.73951 76.57939,30.41118 77.41484,27.33962 C84.94778,25.21742 93.05209,23.48836 101.44946,22.54573 Z" id="XMLID_93_"></path>
                <path d="M44.51218,81.74607 C43.19661,81.74607 41.91419,82.94655 41.91419,84.28918 C41.91419,85.28665 42.62628,85.97309 43.59421,85.97309 C44.90967,85.97309 46.22224,84.77444 46.22224,83.43196 C46.22224,82.43823 45.48006,81.74607 44.51218,81.74607 Z" id="XMLID_92_"></path>
                <path d="M35.54001,82.92418 C34.80297,86.51892 32.45892,97.84351 32.45892,97.84351 C32.3129,98.46657 31.47361,101.72269 34.88083,101.72269 L35.39633,101.72269 L39.87328,80.02497 C39.87328,80.02498 36.27094,79.35921 35.54001,82.92418 Z" id="XMLID_91_"></path>
                <path d="M40.86136,90.47642 C40.1077,93.99156 39.34054,97.84352 39.34054,97.84352 C39.20185,98.46658 38.36119,101.7227 41.77081,101.7227 L42.27485,101.7227 L45.18541,87.61815 C45.0518,87.60081 41.60344,87.0153 40.86136,90.47642 Z" id="XMLID_90_"></path>
                <path d="M25.51236,87.3726 C23.51359,87.3726 21.74459,88.02887 20.40435,89.14469 C18.29282,90.85425 17.06517,93.67878 17.06517,96.67196 C17.06517,100.00871 19.34843,101.72277 22.51672,101.72277 C24.51445,101.72277 26.28243,101.06473 27.61972,99.95113 C29.73114,98.24112 30.95978,95.39284 30.95978,92.39042 C30.95978,89.05475 28.67553,87.3726 25.51236,87.3726 Z M25.36527,97.86839 C24.73701,98.66958 23.94105,99.21377 22.99915,99.21377 C21.48484,99.21377 20.88652,98.15598 20.88652,96.67195 C20.88652,95.07401 21.48487,92.70611 22.65863,91.22605 C23.28269,90.42486 24.11587,89.8825 25.05891,89.8825 C26.56707,89.8825 27.13417,90.94051 27.13417,92.42165 C27.13417,94.02225 26.53904,96.39054 25.36527,97.86839 Z" id="XMLID_87_"></path>
                <path d="M98.52837,81.98854 C97.96488,84.62467 95.25687,97.84129 95.25687,97.84129 C95.08568,98.60051 94.33709,101.72269 97.68134,101.72269 L98.19774,101.72269 L102.83324,79.19989 C101.95099,79.04324 99.15399,79.06171 98.52837,81.98854 Z" id="XMLID_86_"></path>
                <path d="M111.86162,87.37253 C110.05341,87.37253 108.50823,88.18814 107.52051,89.28418 C107.52051,89.28418 107.38997,86.54104 103.76784,87.63219 C104.4225,89.55162 104.0652,90.22768 103.32973,94.09969 L102.56203,97.84351 C102.43006,98.4888 101.58268,101.7227 104.9923,101.7227 C105.17206,101.7227 105.49634,101.7227 105.49634,101.7227 L106.84229,95.21772 C107.21586,93.47517 107.91202,90.16515 110.55042,90.16515 C111.86161,90.16515 112.5331,90.98148 112.12172,92.98349 L111.12048,97.83824 C110.97755,98.46123 110.11543,101.7227 113.54577,101.7227 L114.05207,101.7227 L115.8865,92.83858 C116.70122,89.03911 114.72676,87.37253 111.86162,87.37253 Z" id="XMLID_85_"></path>
                <path d="M13.65647,82.15186 C13.48702,82.97608 13.11083,84.77518 12.50019,87.7241 L6.20572,88.97758 L8.05376,80.02497 C7.48165,79.92222 4.36093,79.67363 3.72049,82.92417 C3.52012,83.94127 0.63182,97.84304 0.63182,97.84304 C0.48654,98.56725 -0.35641,101.72276 3.0489,101.72276 L3.57183,101.72276 L5.39068,92.92739 L11.6877,91.67499 C11.0614,94.69857 10.40804,97.84313 10.40804,97.84313 C10.26935,98.46886 9.42882,101.72276 12.83729,101.72276 L13.34856,101.72276 L18.0036,79.1999 C18.0036,79.19991 14.39577,78.55437 13.65647,82.15186 Z" id="XMLID_84_"></path>
                <path d="M127.3195,87.37253 C125.51129,87.37253 123.96611,88.18814 122.97839,89.28418 C122.97839,89.28418 122.84785,86.54104 119.22572,87.63219 C119.88038,89.55162 119.52308,90.22768 118.78761,94.09969 L118.01991,97.84351 C117.88794,98.4888 117.04056,101.7227 120.45018,101.7227 C120.62994,101.7227 120.95422,101.7227 120.95422,101.7227 L122.30017,95.21772 C122.67374,93.47517 123.3699,90.16515 126.0083,90.16515 C127.31949,90.16515 127.99098,90.98148 127.5796,92.98349 L126.57835,97.83824 C126.43544,98.46123 125.57331,101.7227 129.00366,101.7227 L129.50996,101.7227 L131.34439,92.83858 C132.1591,89.03911 130.18465,87.37253 127.3195,87.37253 Z" id="XMLID_83_"></path>
                <path d="M54.91883,95.73199 C54.6923,96.7587 54.3495,97.64279 53.83729,98.24105 C53.32164,98.8122 52.6904,99.15385 51.78057,99.15385 C50.49813,99.15385 49.73703,98.27204 49.73703,96.64486 C49.73703,93.33843 52.09103,89.77165 55.00272,89.77165 C55.43015,89.77165 55.91159,89.87132 56.11146,89.98942 L54.91883,95.73199 Z M57.55672,82.98719 C57.2209,84.69041 56.59108,87.66811 56.62556,87.50006 C56.28501,87.41714 55.74077,87.37253 55.2005,87.37253 C49.75604,87.37253 45.87659,91.79409 45.87659,96.7587 C45.87659,99.81189 47.75409,101.7227 50.61199,101.7227 C52.32514,101.7227 53.65446,101.10007 54.44804,100.26977 C54.77768,101.30699 55.77572,101.7227 56.91932,101.7227 L57.42451,101.7227 L61.90154,80.02498 C61.60165,79.98621 58.24599,79.49136 57.55672,82.98719 Z" id="XMLID_80_"></path>
                <path d="M70.36242,87.37253 C65.17242,87.37253 61.03861,91.56963 61.03861,96.78756 C61.03861,99.84341 62.77743,101.72269 65.63053,101.72269 C67.34307,101.72269 68.69614,101.08898 69.46652,100.2593 C69.7972,101.32545 70.80327,101.72269 71.94275,101.72269 L72.44794,101.72269 L75.14012,88.68441 C73.68965,87.89148 72.14757,87.37253 70.36242,87.37253 Z M69.9334,95.73199 C69.71096,96.7587 69.39347,97.64279 68.88209,98.24105 C68.37094,98.8122 67.70931,99.15385 66.79514,99.15385 C65.51205,99.15385 64.88198,98.29686 64.88198,96.67189 C64.88198,93.76338 66.97153,89.77166 70.28152,89.77166 C70.62096,89.77166 70.89515,89.86388 71.13285,89.98116 L69.9334,95.73199 Z" id="XMLID_77_"></path>
                <path d="M85.70108,93.8593 C85.332,95.59361 84.71885,98.90117 82.05519,98.90117 C79.67985,98.90117 80.43528,96.27777 80.57822,95.59361 L82.25988,87.62058 C82.25988,87.62058 78.65317,86.89217 77.8046,90.85711 C76.95603,94.82204 76.8155,95.4781 76.8155,95.4781 C76.64403,96.31096 76.47321,97.16064 76.47321,97.87622 C76.47321,98.90116 76.84229,99.72206 77.41492,100.3549 C75.22171,100.89656 74.19612,102.03124 74.19612,103.65844 C74.19612,106.05438 76.56437,107.47491 79.71991,107.47491 C82.42737,107.47491 84.56905,106.56329 85.93053,105.02501 C87.04264,103.77218 87.72922,102.06043 88.24301,99.6415 L90.80443,87.62056 C90.80443,87.62056 87.17295,87.01032 86.39939,90.61235 C85.62583,94.21444 85.70108,93.8593 85.70108,93.8593 Z M84.02252,101.40726 C83.73685,102.52378 83.22305,103.51596 82.48623,104.23288 C81.77483,104.91128 80.80435,105.28127 79.75,105.28127 C78.43921,105.28127 77.35609,104.65461 77.35609,103.54297 C77.35609,102.12242 78.75363,101.77723 80.80435,101.54755 C82.25989,101.38248 83.54059,101.03509 84.27675,100.38147 L84.02252,101.40726 Z" id="XMLID_74_"></path>
                <path d="M133.54158,88.21025 C133.54158,88.33971 133.48299,88.4276 133.30437,88.4276 L133.13568,88.4276 L133.13568,88.00895 L133.27838,88.00895 C133.45699,88.00896 133.54158,88.05762 133.54158,88.21025 M133.79814,88.8335 C133.77215,88.84956 133.73956,88.85949 133.71356,88.85949 C133.69089,88.85949 133.67434,88.85288 133.64836,88.80751 L133.49905,88.54433 C133.65828,88.49565 133.73956,88.37564 133.73956,88.20365 C133.73956,87.96976 133.56425,87.86249 133.30436,87.86249 L132.8498,87.86249 L132.8498,88.00897 L132.94384,88.00897 L132.94384,88.99558 L133.13567,88.99558 L133.13567,88.5703 L133.31098,88.5703 L133.4929,88.88877 C133.54158,88.97619 133.59355,89.00217 133.67765,89.00217 C133.71687,89.00217 133.75892,88.9861 133.78822,88.96673 L133.79814,88.8335 Z M134.19081,88.4276 C134.19081,88.99887 133.8369,89.34002 133.3143,89.34002 C132.79121,89.34002 132.4373,88.99886 132.4373,88.4276 C132.4373,87.85634 132.79121,87.51518 133.3143,87.51518 C133.8369,87.51518 134.19081,87.85634 134.19081,88.4276 M134.3661,88.4276 C134.3661,87.80104 133.95359,87.37248 133.3143,87.37248 C132.67451,87.37248 132.2587,87.80105 132.2587,88.4276 C132.2587,89.05415 132.67452,89.48603 133.3143,89.48603 C133.9536,89.48603 134.3661,89.05416 134.3661,88.4276" id="XMLID_69_"></path>
                <path d="M80.93105,31.07578 C80.93105,31.20525 80.87246,31.29314 80.69384,31.29314 L80.52515,31.29314 L80.52515,30.87449 L80.66785,30.87449 C80.84646,30.87449 80.93105,30.92316 80.93105,31.07578 M81.18761,31.69903 C81.16162,31.7151 81.12902,31.72502 81.10303,31.72502 C81.08035,31.72502 81.06381,31.7184 81.03782,31.67304 L80.88851,31.40985 C81.04774,31.36118 81.12902,31.24116 81.12902,31.06917 C81.12902,30.83528 80.95371,30.72801 80.69383,30.72801 L80.23927,30.72801 L80.23927,30.87449 L80.3333,30.87449 L80.3333,31.8611 L80.52514,31.8611 L80.52514,31.43584 L80.70044,31.43584 L80.88236,31.75431 C80.93104,31.84173 80.98301,31.86771 81.06711,31.86771 C81.10633,31.86771 81.14839,31.85164 81.17768,31.83227 L81.18761,31.69903 Z M81.58028,31.29314 C81.58028,31.86441 81.22637,32.20556 80.70377,32.20556 C80.18069,32.20556 79.82678,31.86441 79.82678,31.29314 C79.82678,30.72187 80.18069,30.38072 80.70377,30.38072 C81.22636,30.38072 81.58028,30.72187 81.58028,31.29314 M81.75558,31.29314 C81.75558,30.66659 81.34307,30.23802 80.70377,30.23802 C80.06398,30.23802 79.64817,30.66659 79.64817,31.29314 C79.64817,31.91969 80.06398,32.35157 80.70377,32.35157 C81.34307,32.35157 81.75558,31.91969 81.75558,31.29314" id="XMLID_64_"></path>
            </g>
        </g>
    </g>
</svg>