<?xml version="1.0" encoding="UTF-8"?>
<svg width="150px" height="60px" viewBox="0 0 150 60" version="1.1" xmlns="http://www.w3.org/2000/svg" xmlns:xlink="http://www.w3.org/1999/xlink">
    <title>Artboard</title>
    <g id="Artboard" stroke="none" stroke-width="1" fill="none" fill-rule="evenodd">
        <g id="holiday-inn-seeklogo.com" transform="translate(38.000000, 0.000000)" fill="#9DA6B9" fill-rule="nonzero">
            <path d="M57,12.4283801 C56.2419132,8.39156864 52.0753279,9.13265092 50.9275221,9.37494969 C48.8133386,9.82123671 46.8032228,10.3027685 44.8874074,10.8147904 C45.8886151,7.60247698 47.0457492,4.47954358 48.819789,0.246876356 C48.0843259,0.0519459414 47.2561348,-0.0709843542 46.3196478,0.0449616456 C45.2610088,0.176024493 44.0755839,0.720749402 43.3683504,2.06784895 C42.2341288,4.22823713 41.0079513,7.62359709 39.6568994,12.3631191 C36.8637452,13.2745948 34.2996944,14.2560918 31.9372008,15.2921588 C33.1789626,10.8496004 34.8014928,6.36887643 36.5279296,2.61031636 C36.1662567,2.49388542 35.4726685,2.3769974 34.9717813,2.3769974 C33.0592161,2.3769974 31.9474959,3.10173654 31.0797078,4.98535041 C29.7261223,7.91445149 28.1228711,12.85076 26.9248621,17.7202635 C24.5946316,18.9649174 22.4887098,20.2624859 20.5694553,21.5910628 C19.3781745,22.4156835 19.0870783,23.4970454 19.0171573,23.9906673 C18.9632927,24.3346369 19.0336861,25.0563326 19.2648451,25.4949386 C20.5650717,24.7153284 22.892802,23.3965953 26.0009927,21.8807857 C25.3790756,24.9733237 24.6546354,29.2643179 24.6400178,32.5368089 C24.6326618,34.2078783 25.6591266,35.187848 27.1266693,35.187848 C27.5309059,35.187848 28.329373,35.0714505 28.4189176,34.9788654 C28.8432166,29.2437329 29.9865165,23.4411822 30.8489543,19.6600806 C33.1619115,18.6668223 35.7235232,17.6597682 38.4792083,16.7161079 C38.4124819,16.9741701 38.3461666,17.2282246 38.2788457,17.4923458 C36.1526448,25.8341201 34.7267881,34.8249601 34.8438399,37.265088 C34.938707,39.2424464 36.3889041,40 37.6195596,40 C38.0045506,40 38.7925615,39.8935522 39.0648175,39.7704937 C39.5846059,33.6556284 41.2702901,24.3937108 42.1711303,20.806815 C42.7084198,18.6678591 43.182422,16.8126283 43.6465902,15.1005227 C47.8318211,13.9175959 52.3344999,12.9538077 57,12.4283801 Z" id="XMLID_93_"></path>
            <path d="M25.2061095,46 C24.5953598,46 24,46.568003 24,47.2032638 C24,47.6752133 24.3305858,48 24.7799445,48 C25.3906431,48 26,47.4328629 26,46.7976731 C26,46.3274931 25.655445,46 25.2061095,46 Z" id="XMLID_92_"></path>
            <path d="M19.7226732,46.6269523 C19.3353257,48.6105356 18.1034228,54.8594623 18.1034228,54.8594623 C18.0266828,55.2032678 17.5855984,57 19.3762446,57 L19.6471629,57 L22,45.0271637 C22,45.0271692 20.1068095,44.6597962 19.7226732,46.6269523 Z" id="XMLID_91_"></path>
            <path d="M23.1347459,50.6426636 C22.6353466,52.6297142 22.1270018,54.8071636 22.1270018,54.8071636 C22.0351014,55.1593691 21.4780531,57 23.7373766,57 L24.0713697,57 L26,49.0269308 C25.9114657,49.0171287 23.6264719,48.6861496 23.1347459,50.6426636 Z" id="XMLID_90_"></path>
            <path d="M13.863578,49 C12.7127606,49 11.6942361,49.3658605 10.9225757,49.987913 C9.70683524,50.9409666 9,52.5155988 9,54.1842508 C9,56.0444378 10.3146162,57 12.1387999,57 C13.2890185,57 14.3069557,56.6331528 15.0769176,56.0123378 C16.2925948,55.0590334 17,53.471161 17,51.7973578 C17,49.9377729 15.6848138,49 13.863578,49 Z M13.7788891,54.8512422 C13.4171603,55.2978933 12.9588761,55.6012709 12.4165651,55.6012709 C11.5446817,55.6012709 11.2001913,55.0115692 11.2001913,54.1842452 C11.2001913,53.2934181 11.544699,51.9733501 12.2205064,51.1482394 C12.5798169,50.7015882 13.059531,50.3992308 13.6024984,50.3992308 C14.4708409,50.3992308 14.797356,50.9890552 14.797356,51.814768 C14.797356,52.707078 14.4547022,54.0273634 13.7788891,54.8512422 Z" id="XMLID_87_"></path>
            <path d="M55.7833044,45.6356539 C55.4931479,47.1537275 54.0987193,54.7648101 54.0987193,54.7648101 C54.0105689,55.2020237 53.6250994,57 55.3471454,57 L55.6130539,57 L58,44.0297482 C57.5457053,43.9395378 56.1054533,43.9501742 55.7833044,45.6356539 Z" id="XMLID_86_"></path>
            <path d="M62.5413904,49 C61.4853511,49 60.5829278,49.4546901 60.006075,50.0657156 C60.006075,50.0657156 59.9298364,48.5364571 57.8144231,49.1447565 C58.1967607,50.2148093 57.9880886,50.5917024 57.558556,52.7502887 L57.1102003,54.837411 C57.0331265,55.1971503 56.5382357,57 58.5295379,57 C58.6345222,57 58.8239097,57 58.8239097,57 L59.6099778,53.3735733 C59.8281519,52.4021283 60.2347265,50.5568429 61.7756172,50.5568429 C62.5413845,50.5568429 62.9335513,51.0119344 62.6932952,52.1280243 L62.1085463,54.834473 C62.0250717,55.1817804 61.5215723,57 63.5249756,57 L63.8206673,57 L64.8920197,52.0472392 C65.3678363,49.9290928 64.2147029,49 62.5413904,49 Z" id="XMLID_85_"></path>
            <path d="M7.52571108,45.7263803 C7.42926393,46.2011639 7.21514502,47.2375173 6.86758243,48.936213 L3.28491124,49.6582675 L4.33677417,44.5012067 C4.01114198,44.4420186 2.23489813,44.2988208 1.87037404,46.1712617 C1.75632793,46.7571519 0.112372335,54.7651264 0.112372335,54.7651264 C0.0296822163,55.1823003 -0.450106023,57 1.48812007,57 L1.78576011,57 L2.82100874,51.9335157 L6.40513134,51.2120833 C6.04865542,52.9537861 5.67677756,54.7651782 5.67677756,54.7651782 C5.59783832,55.1256237 5.11942749,57 7.05945219,57 L7.35045561,57 L10,44.0259335 C10,44.0259392 7.94650406,43.6540824 7.52571108,45.7263803 Z" id="XMLID_84_"></path>
            <path d="M71.5413877,49 C70.4853489,49 69.5829261,49.4546901 69.0060735,50.0657156 C69.0060735,50.0657156 68.929835,48.5364571 66.8144227,49.1447565 C67.1967601,50.2148093 66.9880882,50.5917024 66.5585557,52.7502887 L66.1102002,54.837411 C66.0331265,55.1971503 65.5382359,57 67.5295372,57 C67.6345214,57 67.8239089,57 67.8239089,57 L68.6099765,53.3735733 C68.8281505,52.4021283 69.2347249,50.5568429 70.7756149,50.5568429 C71.5413819,50.5568429 71.9335484,51.0119344 71.6932924,52.1280243 L71.108538,54.834473 C71.0250751,55.1817804 70.5215701,57 72.5249782,57 L72.8206698,57 L73.8920217,52.0472392 C74.3678322,49.9290928 73.2147052,49 71.5413877,49 Z" id="XMLID_83_"></path>
            <path d="M31.078341,53.6937129 C30.9511162,54.2603566 30.7585914,54.748288 30.4709219,55.0784691 C30.1813204,55.3936881 29.8268007,55.5822456 29.3158181,55.5822456 C28.5955688,55.5822456 28.1681166,55.0955726 28.1681166,54.1975281 C28.1681166,52.3727015 29.49018,50.4041872 31.1254556,50.4041872 C31.3655107,50.4041872 31.635899,50.4591953 31.7481509,50.5243749 L31.078341,53.6937129 Z M32.5598439,46.6598276 C32.3712392,47.5998388 32.0175171,49.2432385 32.0368819,49.1504913 C31.8456207,49.1047275 31.5399624,49.0801071 31.2365337,49.0801071 C28.1787931,49.0801071 26,51.5203766 26,54.2603566 C26,55.9454194 27.0544495,57 28.6595153,57 C29.6216618,57 30.3682402,56.656369 30.8139339,56.1981245 C30.9990677,56.7705687 31.5595911,57 32.2018646,57 L32.4855915,57 L35,45.0249769 C34.8315745,45.0035796 32.9469546,44.7304707 32.5598439,46.6598276 Z" id="XMLID_80_"></path>
            <path d="M39.2895385,49 C36.345173,49 34,51.3398206 34,54.2487387 C34,55.9523295 34.9864589,57 36.6050657,57 C37.5766156,57 38.3442326,56.6467161 38.7812809,56.1841819 C38.9688806,56.7785446 39.5396394,57 40.1860836,57 L40.4726855,57 L42,49.7313535 C41.1771264,49.2893069 40.3022811,49 39.2895385,49 Z M39.046149,53.6602742 C38.9199554,54.2326497 38.7398385,54.7255166 38.4497249,55.0590377 C38.1597418,55.3774453 37.784389,55.56791 37.2657666,55.56791 C36.5378502,55.56791 36.180402,55.0901509 36.180402,54.1842544 C36.180402,52.5628035 37.3658353,50.3374792 39.2436427,50.3374792 C39.4362122,50.3374792 39.5917643,50.3888904 39.7266151,50.4542723 L39.046149,53.6602742 Z" id="XMLID_77_"></path>
            <path d="M48.2345079,52.4763998 C48.0345044,53.4347304 47.70224,55.2623943 46.2588096,55.2623943 C44.971619,55.2623943 45.3809846,53.8127778 45.4584434,53.4347304 L46.3697306,49.02906 C46.3697306,49.02906 44.4152638,48.6265613 43.9554259,50.8174747 C43.4955881,53.0083827 43.4194352,53.3709028 43.4194352,53.3709028 C43.3265161,53.8311177 43.2339491,54.3006268 43.2339491,54.696036 C43.2339491,55.2623888 43.4339526,55.7159948 43.7442593,56.0656843 C42.5557646,56.3649903 42,56.9919823 42,57.8911269 C42,59.2150554 43.2833485,60 44.9933274,60 C46.460493,60 47.6210638,59.4962646 48.3588463,58.6462547 C48.9614958,57.9539764 49.3335517,57.0081118 49.6119732,55.6714797 L51,49.029049 C51,49.029049 49.0321104,48.6918476 48.6129203,50.6822273 C48.1937301,52.6726401 48.2345079,52.4763998 48.2345079,52.4763998 Z M47.3249006,56.6471886 C47.1700968,57.2641459 46.8916699,57.8123964 46.4923891,58.2085461 C46.1068832,58.5834107 45.5809827,58.7878567 45.0096331,58.7878567 C44.2993194,58.7878567 43.7123795,58.4415822 43.7123795,57.8273214 C43.7123795,57.0423657 44.4697028,56.8516235 45.5809827,56.7247089 C46.369736,56.6334959 47.063744,56.441538 47.4626672,56.0803661 L47.3249006,56.6471886 Z" id="XMLID_74_"></path>
            <path d="M75.6087501,49.3963805 C75.6087501,49.4576329 75.5809481,49.499217 75.4961896,49.499217 L75.4161431,49.499217 L75.4161431,49.3011379 L75.4838569,49.3011379 C75.5686106,49.3011426 75.6087501,49.3241655 75.6087501,49.3963805 M75.7304926,49.6912635 C75.7181598,49.6988621 75.7026953,49.7035604 75.6903578,49.7035604 C75.6796005,49.7035604 75.6717472,49.7004329 75.6594192,49.6789667 L75.5885689,49.5544463 C75.6641264,49.531414 75.7026953,49.4746327 75.7026953,49.3932578 C75.7026953,49.2825956 75.6195074,49.2318422 75.4961849,49.2318422 L75.2804878,49.2318422 L75.2804878,49.3011474 L75.3251115,49.3011474 L75.3251115,49.7679497 L75.4161384,49.7679497 L75.4161384,49.5667337 L75.4993262,49.5667337 L75.5856506,49.7174138 C75.6087501,49.7587755 75.6334108,49.7710676 75.6733178,49.7710676 C75.6919284,49.7710676 75.7118819,49.7634643 75.7257853,49.7542996 L75.7304926,49.6912635 Z M75.9168217,49.499217 C75.9168217,49.7695063 75.7488849,49.9309172 75.5009016,49.9309172 C75.2526858,49.9309172 75.084749,49.7695015 75.084749,49.499217 C75.084749,49.2289324 75.2526858,49.0675167 75.5009016,49.0675167 C75.7488849,49.0675167 75.9168217,49.2289324 75.9168217,49.499217 M76,49.499217 C76,49.2027679 75.8042564,49 75.5009016,49 C75.1973095,49 75,49.2027726 75,49.499217 C75,49.7956613 75.1973142,50 75.5009016,50 C75.8042612,50 76,49.7956661 76,49.499217" id="XMLID_69_"></path>
            <path d="M45.6087472,17.3963758 C45.6087472,17.4576329 45.5809453,17.499217 45.4961873,17.499217 L45.4161411,17.499217 L45.4161411,17.3011379 L45.4838546,17.3011379 C45.5686079,17.3011379 45.6087472,17.3241655 45.6087472,17.3963758 M45.7304891,17.6912588 C45.7181564,17.6988621 45.7026872,17.7035556 45.6903545,17.7035556 C45.6795925,17.7035556 45.671744,17.7004235 45.6594113,17.6789619 L45.5885613,17.5544368 C45.6641185,17.5314092 45.7026872,17.4746233 45.7026872,17.3932483 C45.7026872,17.2825862 45.6194998,17.2318327 45.4961825,17.2318327 L45.2804865,17.2318327 L45.2804865,17.3011379 L45.3251052,17.3011379 L45.3251052,17.7679402 L45.4161364,17.7679402 L45.4161364,17.5667337 L45.4993191,17.5667337 L45.585643,17.7174138 C45.6087425,17.7587755 45.6334031,17.7710676 45.6733099,17.7710676 C45.6919204,17.7710676 45.7118786,17.7634643 45.7257771,17.7542996 L45.7304891,17.6912588 Z M45.9168173,17.499217 C45.9168173,17.7695063 45.7488813,17.9309172 45.5008992,17.9309172 C45.2526893,17.9309172 45.0847533,17.7695063 45.0847533,17.499217 C45.0847533,17.2289276 45.2526893,17.0675167 45.5008992,17.0675167 C45.7488766,17.0675167 45.9168173,17.2289276 45.9168173,17.499217 M46,17.499217 C46,17.2027726 45.8042574,17 45.5008992,17 C45.1973085,17 45,17.2027726 45,17.499217 C45,17.7956613 45.1973085,18 45.5008992,18 C45.8042574,18 46,17.7956613 46,17.499217" id="XMLID_64_"></path>
        </g>
    </g>
</svg>