<?xml version="1.0" encoding="UTF-8"?>
<svg width="66px" height="121px" viewBox="0 0 66 121" version="1.1" xmlns="http://www.w3.org/2000/svg" xmlns:xlink="http://www.w3.org/1999/xlink">
    <title>Fill 1</title>
    <g id="Page-1" stroke="none" stroke-width="1" fill="none" fill-rule="evenodd">
        <g id="iPhone-X" transform="translate(-1313.000000, -2892.000000)" fill="#9DA6B9">
            <path d="M1334.62308,2910.91826 L1334.62308,2910.02236 C1335.96211,2910.0855 1337.13818,2910.35739 1338.242,2910.69215 C1337.26502,2911.00871 1335.44674,2911.77805 1334.62308,2910.91826 Z M1327.03228,2941.67964 C1326.57123,2936.2962 1329.26722,2931.96227 1332.5966,2929.3661 C1332.72345,2929.3388 1332.77777,2929.39312 1332.79569,2929.46509 C1331.28487,2932.52314 1329.47541,2935.18328 1329.75557,2939.879 C1330.00926,2944.92712 1332.5693,2948.92603 1335.51898,2951.54095 C1336.52326,2952.41865 1337.87994,2952.907 1338.57676,2954.0384 C1332.92254,2952.29181 1327.62045,2948.43795 1327.03228,2941.67964 Z M1329.75557,2913.97631 C1329.98196,2913.38814 1330.00926,2912.59205 1330.19015,2911.92226 C1331.19415,2911.92226 1332.2078,2911.89579 1332.79569,2912.28432 C1332.77777,2913.82217 1330.94983,2913.56903 1329.75557,2913.97631 Z M1349.34335,2923.35837 C1348.36637,2924.20878 1347.10841,2924.95054 1346.71078,2926.29867 C1347.97729,2926.14481 1348.8823,2925.03216 1349.9045,2924.26282 C1355.38692,2920.15528 1360.58009,2916.82617 1364.72376,2911.34347 C1366.80483,2908.59315 1370.25169,2903.52628 1366.98572,2900.15195 L1366.75051,2900.15195 L1366.75051,2900.4867 C1366.83241,2904.17787 1365.14014,2907.08233 1363.36708,2909.65175 C1359.49474,2915.26102 1354.16591,2919.04319 1349.34335,2923.35837 Z M1357.13324,2929.80013 C1357.70348,2931.36527 1356.59966,2932.70431 1356.46372,2933.54589 C1361.8921,2931.26573 1366.91375,2927.95454 1370.47835,2923.6934 C1371.64559,2922.33617 1373.29181,2920.63508 1372.88481,2918.49086 C1368.34296,2923.00541 1363.30366,2926.94089 1357.13324,2929.80013 Z M1356.46372,2934.45034 C1356.54507,2935.21941 1356.4458,2936.02459 1356.13779,2936.72113 C1355.776,2937.41795 1354.7902,2937.77063 1355.09739,2938.28655 C1358.54424,2937.46345 1361.57527,2935.95262 1364.16316,2934.11586 C1366.60547,2932.34225 1369.24769,2930.16218 1370.04377,2926.76055 L1369.80856,2926.76055 C1366.03577,2930.00832 1361.68419,2932.64998 1356.46372,2934.45034 Z M1354.76235,2939.31785 C1354.9165,2941.71521 1353.27,2942.29483 1352.03934,2943.28091 C1355.64944,2943.07244 1358.68046,2941.74306 1361.09602,2940.21376 C1363.49309,2938.72086 1366.03577,2936.94752 1367.08554,2934.11586 L1366.85915,2934.11586 C1363.46635,2936.48619 1359.70266,2938.49474 1354.76235,2939.31785 Z M1362.91485,2941.25416 C1362.91485,2941.03687 1362.81503,2940.94697 1362.67936,2940.9012 C1360.21858,2942.29483 1357.59484,2943.49765 1354.19321,2943.93223 C1355.4145,2944.39355 1358.80703,2945.05397 1360.4265,2944.39355 C1361.71149,2943.89583 1362.04597,2941.98682 1362.91485,2941.25416 Z M1348.21223,2948.23886 L1347.85045,2948.23886 C1347.87775,2948.39245 1347.85045,2948.57334 1347.97729,2948.59154 C1350.96337,2951.26051 1355.07974,2953.74886 1357.92932,2957.42183 C1361.47572,2962.00918 1364.37108,2968.72172 1362.11877,2975.77012 C1363.3759,2974.68395 1364.28973,2972.95556 1364.95925,2971.33664 C1365.65606,2969.61763 1366.18936,2967.50098 1366.18936,2965.22054 C1366.27126,2953.92975 1356.21058,2951.43258 1348.21223,2948.23886 Z M1366.09009,2917.34209 C1368.60519,2915.69505 1371.06597,2913.32472 1373.5455,2910.69215 C1376.14194,2907.93274 1380.00463,2904.14202 1378.30436,2899.25604 C1378.15049,2899.22902 1378.15049,2899.10217 1377.96933,2899.12975 C1375.5808,2905.72482 1371.88081,2910.88186 1367.54659,2915.31534 C1366.98572,2915.87594 1366.09009,2916.41916 1366.09009,2917.34209 Z M1357.13324,2925.05946 C1357.67618,2926.12688 1357.52259,2927.8459 1356.90712,2928.69631 C1363.40265,2925.01396 1369.80856,2920.78895 1374.11547,2914.98086 C1375.55405,2913.05338 1377.24549,2910.82782 1377.39963,2908.08633 L1377.17297,2908.08633 C1371.60947,2914.87222 1364.98655,2920.56256 1357.13324,2925.05946 Z M1371.21101,3008.72976 C1372.34186,3008.72976 1373.25541,3009.64304 1373.25541,3010.76561 C1373.25541,3011.89646 1372.34186,3012.80063 1371.21101,3012.80063 C1370.08045,3012.80063 1369.18482,3011.89646 1369.18482,3010.76561 C1369.18482,3009.64304 1370.08045,3008.72976 1371.21101,3008.72976 Z M1343.58048,3008.72976 C1344.71105,3008.72976 1345.62516,3009.64304 1345.62516,3010.76561 C1345.62516,3011.89646 1344.71105,3012.80063 1343.58048,3012.80063 C1342.46756,3012.80063 1341.55373,3011.89646 1341.55373,3010.76561 C1341.55373,3009.64304 1342.46756,3008.72976 1343.58048,3008.72976 Z M1328.33519,3008.72976 C1329.46603,3008.72976 1330.37986,3009.64304 1330.37986,3010.76561 C1330.37986,3011.89646 1329.46603,3012.80063 1328.33519,3012.80063 C1327.22254,3012.80063 1326.30899,3011.89646 1326.30899,3010.76561 C1326.30899,3009.64304 1327.22254,3008.72976 1328.33519,3008.72976 Z M1325.63037,3007.62567 C1324.87014,3008.47663 1323.88378,3009.17289 1322.81636,3009.57107 C1321.44121,3010.06852 1319.77651,3010.28609 1318.22929,3010.17744 C1318.12037,3006.0335 1318.16587,3001.87163 1318.16587,2997.74616 C1318.22929,2995.64716 1318.12975,2993.29475 1319.92983,2991.88375 C1319.89426,2991.71141 1319.82146,2991.57574 1319.71309,2991.42159 C1317.50545,2991.39485 1315.71419,2991.43125 1313.60637,2991.37692 C1313.4252,2991.46682 1313.37116,2991.68383 1313.28926,2991.82887 C1313.78726,2992.2629 1314.20281,2992.81495 1314.32056,2993.47564 C1314.62829,2994.66991 1314.59245,2996.09056 1314.59245,2997.3932 C1314.55577,3001.04852 1314.63739,3004.73031 1314.48353,3008.42175 C1314.41156,3009.79718 1314.13084,3011.27189 1313,3012.18572 C1313.03612,3012.30318 1313.07197,3012.44795 1313.15387,3012.56597 C1316.83621,3012.56597 1320.5544,3012.69254 1324.25494,3012.61974 C1324.82519,3011.0546 1325.47596,3009.4718 1325.92846,3007.87935 C1325.84711,3007.74369 1325.74812,3007.64387 1325.63037,3007.62567 Z M1345.48011,2996.39802 C1344.72015,2995.52942 1343.73408,2994.85135 1342.66638,2994.43442 C1341.2915,2993.93725 1339.62653,2993.72878 1338.07021,2993.8377 C1338.00678,2996.16281 1337.99768,2998.48764 1338.00678,3000.8133 L1343.09186,2998.71403 L1342.96501,3004.25161 C1341.78895,3003.64496 1339.92517,3003.00247 1338.00678,3002.89383 C1338.00678,3004.02522 1338.01616,3005.15634 1338.01616,3006.26898 C1338.07021,3008.35916 1337.98886,3010.71101 1339.78012,3012.13194 C1339.744,3012.30318 1339.67175,3012.44795 1339.55401,3012.58362 C1339.12908,3012.6021 1338.71298,3012.6021 1338.30542,3012.6021 L1338.31452,3012.61974 L1333.12135,3012.61974 C1333.15775,3012.54777 1333.1936,3012.46643 1333.22117,3012.37571 C1333.18477,3012.30318 1333.15775,3012.24004 1333.12135,3012.18572 C1333.2118,3012.11347 1333.29314,3012.02302 1333.37449,3011.94113 C1333.87249,3010.43968 1334.0804,3008.83786 1334.0804,3007.08327 L1334.0804,2996.87727 C1334.0804,2995.36672 1333.93536,2993.97337 1333.57385,2992.65226 C1333.38359,2992.3448 1333.14838,2992.07346 1332.84974,2991.82887 C1332.88614,2991.71141 1332.92254,2991.57574 1333.00388,2991.45772 L1333.17567,2991.45772 C1333.15775,2991.40395 1333.14838,2991.37692 1333.12135,2991.3226 L1345.48921,2991.3226 C1345.45282,2993.10476 1345.54354,2994.79648 1345.77875,2996.13524 C1345.67948,2996.28 1345.59758,2996.37072 1345.48011,2996.39802 Z M1318.19317,2973.11025 C1319.12465,2972.77522 1322.52683,2968.7311 1328.92308,2969.93474 C1335.27439,2971.12873 1335.35629,2975.12763 1336.5955,2976.42144 C1337.47321,2975.64328 1337.41007,2974.01498 1336.88504,2972.97459 C1336.42371,2972.0784 1335.54601,2971.37276 1334.95784,2970.44101 C1333.56476,2968.24219 1336.05256,2964.76859 1337.34664,2964.46086 C1337.78067,2965.1028 1338.03408,2965.62755 1338.66748,2966.17987 C1339.22835,2966.6594 1340.53098,2968.26949 1341.51761,2968.45038 L1340.09696,2962.30726 C1338.79432,2962.06295 1336.07076,2961.67442 1334.83127,2961.10417 C1333.94474,2960.69662 1333.2846,2959.89143 1332.40661,2960.72447 C1332.01753,2961.0948 1330.6785,2962.17187 1330.52463,2962.40708 C1331.11308,2962.74212 1332.99451,2962.66905 1333.96294,2963.17587 C1333.71862,2964.37014 1331.57413,2965.98961 1330.39834,2966.52345 C1328.60653,2967.33801 1326.29052,2967.28369 1324.2009,2967.15685 C1322.44548,2967.04848 1320.36469,2966.52345 1319.36923,2968.56868 C1319.0797,2969.1836 1319.46878,2969.40034 1318.98043,2969.99788 C1318.37406,2970.74875 1316.95368,2971.40034 1318.19317,2973.11025 Z M1352.63661,3002.39665 C1352.63661,2997.16709 1355.74898,2993.95517 1360.4902,2993.95517 C1362.72458,2993.95517 1364.8142,2994.56099 1366.47945,2995.77373 L1366.51502,2992.03679 C1364.57044,2991.56664 1362.82441,2991.33115 1361.28601,2991.33115 C1357.8932,2991.33115 1355.04362,2992.23643 1352.79985,2994.00949 C1350.21195,2996.05444 1348.78275,2999.04879 1348.78275,3002.52322 C1348.78275,3005.9163 1350.16701,3008.82021 1352.72705,3010.74714 C1354.66336,3012.24004 1357.00667,3013 1359.66654,3013 C1361.81985,3013 1364.28973,3012.48463 1366.9496,3011.45278 L1367.0224,3007.87025 C1364.8142,3009.5435 1362.62504,3010.36743 1360.29083,3010.36743 C1355.66763,3010.36743 1352.63661,3007.29118 1352.63661,3002.39665 Z M1323.67559,2982.64618 C1322.32746,2982.18458 1322.38206,2981.55118 1321.57687,2980.62825 C1320.74439,2980.87257 1320.28279,2981.42462 1319.25149,2981.41552 C1318.17524,2981.39732 1317.79526,2980.8097 1317.12547,2980.69168 C1317.17069,2982.6732 1317.83111,2984.50969 1318.94403,2985.99349 C1319.09817,2986.12006 1319.26996,2986.2287 1319.44176,2986.31005 C1320.42811,2986.77165 1321.72164,2987.01569 1323.02428,2987.03389 C1324.31836,2987.05236 1328.50698,2986.52706 1328.49817,2984.76338 C1328.49817,2983.85809 1327.69297,2982.56484 1326.96003,2982.26592 C1326.10025,2981.91324 1325.1685,2983.16155 1323.67559,2982.64618 Z M1317.17979,2979.47011 C1317.42411,2980.22153 1318.15677,2980.66465 1319.64967,2980.47466 C1323.0786,2980.03154 1320.36469,2975.98741 1326.53483,2972.26895 C1326.91453,2972.04228 1327.5482,2971.76212 1327.82836,2971.40944 C1327.34001,2971.32754 1326.84229,2971.29142 1326.33546,2971.29142 C1321.5948,2971.29142 1317.69572,2974.86484 1317.17979,2979.47011 Z M1333.6552,2986.09248 L1333.6643,2986.06601 C1333.77267,2985.67721 1333.71862,2985.15218 1333.60088,2984.01196 C1333.37449,2981.7318 1331.86366,2979.13535 1330.26239,2978.38504 C1329.14947,2977.86002 1327.44838,2977.83244 1327.20407,2979.2258 C1326.84229,2981.2975 1327.46658,2981.1803 1328.47113,2982.2025 C1329.48396,2983.22525 1329.13127,2984.08476 1329.48396,2985.73125 C1329.6199,2986.32852 1330.0451,2986.59986 1330.17167,2987.36892 C1330.26239,2987.98384 1330.0542,2988.48157 1329.92736,2988.98839 C1331.40234,2988.36355 1332.68705,2987.35072 1333.6552,2986.09248 Z M1333.55538,2974.78349 C1333.05793,2974.85629 1332.6057,2974.91944 1332.21635,2975.03663 C1329.93646,2975.73372 1330.92281,2977.62453 1332.10798,2978.86374 C1334.41489,2981.27075 1333.67312,2983.34245 1334.41489,2984.69058 C1334.49678,2984.64591 1334.57813,2984.56456 1334.65948,2984.45592 C1335.22945,2983.2611 1335.54601,2981.91324 1335.54601,2980.50169 C1335.54601,2978.33927 1334.80424,2976.35829 1333.55538,2974.78349 Z M1328.5886,2989.43097 C1328.67877,2989.3863 1328.76977,2989.32287 1328.85966,2989.26855 C1329.75557,2988.63571 1329.50243,2987.17893 1328.87814,2986.46364 C1327.92818,2986.40105 1326.6432,2987.56774 1324.52655,2987.90277 C1322.52683,2988.21078 1321.86613,2987.64026 1320.18352,2987.35982 C1321.81209,2988.81605 1323.97423,2989.71223 1326.33546,2989.71223 C1327.11418,2989.71223 1327.86476,2989.61213 1328.5886,2989.43097 Z M1325.88351,2981.36175 C1326.0553,2980.08531 1325.85649,2978.35747 1327.15002,2977.57021 C1327.69297,2977.24482 1328.26322,2977.44364 1329.42053,2977.29859 C1330.48878,2977.17203 1329.71917,2975.65238 1330.94983,2974.63928 C1331.53801,2974.16003 1332.27977,2974.15065 1332.86766,2974.00588 C1331.80052,2972.92881 1330.46093,2972.11508 1328.96858,2971.67112 C1328.88724,2971.68022 1328.81472,2971.6987 1328.74219,2971.71635 C1327.23164,2972.13273 1325.70234,2973.2007 1324.5442,2974.57558 C1323.39543,2975.94219 1322.60817,2977.59751 1322.57177,2979.2167 C1322.50835,2981.55118 1324.09197,2982.69995 1325.88351,2981.36175 Z M1354.42815,2984.03044 C1353.98474,2983.80405 1353.67728,2983.36947 1353.39685,2982.89877 C1351.21623,2979.03608 1351.11641,2973.77977 1350.3388,2968.60453 C1351.34307,2969.33747 1353.11614,2970.31389 1354.76235,2969.6452 C1351.75945,2967.28369 1349.49722,2963.29389 1350.3388,2957.75687 C1347.33507,2955.006 1343.55291,2952.06597 1341.64418,2948.13022 C1340.98349,2946.80001 1340.28667,2945.01785 1340.84809,2943.38018 C1342.36774,2947.93113 1344.96446,2950.83531 1348.31205,2953.90246 C1351.85845,2957.19572 1356.05672,2960.57032 1355.42332,2967.71772 C1356.36417,2967.25667 1356.49074,2965.83574 1356.57264,2964.77742 C1357.25981,2955.70282 1350.3388,2952.26479 1345.94172,2948.13022 C1344.52134,2946.82731 1343.06456,2945.20811 1342.64846,2943.28091 C1344.08676,2944.20356 1345.52561,2945.92285 1347.51596,2947.10802 C1350.70058,2949.03495 1354.94352,2949.63222 1358.03797,2947.80428 C1358.9336,2947.26133 1360.16426,2946.64614 1360.29083,2945.64214 C1357.00667,2945.79601 1354.50039,2945.32558 1352.16618,2944.63814 C1350.60104,2944.17626 1348.8277,2943.65151 1347.97729,2942.61112 C1350.67356,2942.35798 1352.90822,2941.65206 1353.63206,2939.41767 C1351.88602,2939.47172 1349.49722,2939.80648 1348.31205,2938.98365 C1351.49639,2938.4134 1354.68101,2937.89747 1355.42332,2934.88492 C1353.11614,2934.97565 1350.7822,2936.20576 1348.41132,2935.46372 C1351.42442,2934.3235 1355.4145,2934.14289 1356.00239,2930.59621 C1353.65936,2930.72306 1350.98102,2932.68638 1348.41132,2932.18893 C1351.49639,2930.67756 1356.18328,2930.13488 1356.13779,2925.85527 C1354.27455,2926.06346 1352.08511,2928.05409 1350.11241,2927.77338 C1358.54424,2922.64363 1366.95842,2916.05738 1372.52275,2907.38979 C1374.9383,2903.68042 1379.38088,2896.35214 1375.0111,2892 L1374.67607,2892 C1374.67607,2892.15414 1374.52247,2892.15414 1374.57707,2892.33503 C1374.00655,2898.36013 1371.75369,2903.92473 1369.01247,2908.19497 C1366.3708,2912.38386 1363.15861,2916.03008 1359.52177,2919.07021 C1355.8033,2922.155 1351.3974,2924.61606 1347.75118,2927.67411 C1345.7065,2929.3388 1344.6752,2931.08484 1343.67975,2933.77173 C1342.7025,2936.38665 1341.59896,2938.80248 1339.7258,2939.97855 C1339.1015,2940.36735 1338.14273,2941.05507 1337.22007,2940.54879 C1337.98886,2939.67081 1338.85719,2939.36335 1339.36374,2938.74788 C1340.38649,2937.51749 1340.98349,2935.33743 1341.64418,2933.19321 C1342.26847,2931.18438 1343.01051,2929.3115 1344.01479,2927.67411 C1347.57029,2921.7207 1355.17928,2917.50479 1359.9649,2912.04911 C1362.3719,2909.28969 1365.08637,2905.87896 1365.39328,2901.63547 C1365.65606,2898.22474 1364.26216,2896.81374 1361.78373,2896.19799 C1361.93732,2897.35586 1362.76981,2898.37861 1362.55279,2900.26059 C1362.20011,2904.02428 1359.16909,2908.15857 1357.03369,2910.79197 C1354.65426,2913.69587 1351.7771,2916.21097 1348.8823,2918.69905 C1346.16755,2921.05118 1342.82935,2923.62061 1341.05628,2927.00431 C1340.23235,2928.56946 1339.51761,2931.13916 1339.01134,2932.99384 C1338.74882,2934.11586 1338.14273,2938.59457 1336.55028,2938.52177 C1335.60033,2938.49474 1335.16603,2936.38665 1335.18395,2934.88492 C1335.29287,2927.2489 1342.44054,2923.8743 1344.91042,2918.8259 C1345.14536,2918.36429 1345.42579,2917.41434 1345.47129,2916.79887 C1345.73353,2914.1845 1344.36747,2913.26157 1343.21843,2912.14893 C1346.51141,2912.59205 1350.80013,2912.35712 1350.57346,2908.98223 C1350.03106,2909.16285 1349.69603,2909.77832 1348.98101,2910.02236 C1344.2136,2911.56076 1336.08896,2904.25949 1332.5966,2908.52091 C1332.15348,2908.72882 1332.82272,2909.43419 1332.46093,2909.56103 C1331.59205,2909.56103 1330.6785,2909.52491 1329.96376,2909.65175 C1329.75557,2909.00953 1329.50243,2908.42081 1329.29424,2907.75157 C1328.83319,2907.93274 1328.13637,2907.87841 1327.70152,2908.08633 C1328.08205,2908.57495 1328.44356,2909.06358 1328.49816,2909.89606 C1326.72454,2910.36649 1325.07833,2910.98141 1324.77032,2912.95411 C1325.92846,2912.55566 1327.43928,2911.92226 1328.72427,2912.04911 C1328.72427,2912.86367 1328.5704,2913.56903 1328.26322,2914.07586 C1327.95521,2914.43791 1326.69752,2913.87677 1326.57123,2914.41061 C1326.48988,2915.26102 1327.57523,2914.95329 1327.70152,2915.54146 C1327.36731,2916.23827 1326.97796,2916.85319 1326.47141,2917.34209 C1324.82519,2915.36057 1322.80699,2917.26075 1321.03393,2917.70388 C1320.59962,2917.81252 1320.26486,2917.65838 1319.90281,2917.92999 C1321.29616,2920.34582 1323.92018,2917.96611 1326.00098,2917.81252 C1325.38606,2919.13308 1322.34594,2919.57648 1321.83001,2921.20505 C1321.45003,2922.38139 1321.98388,2923.79295 1323.63947,2923.79295 C1323.22364,2922.33617 1325.15967,2921.73918 1325.56695,2920.63508 C1325.69324,2920.25537 1325.44011,2919.73035 1325.56695,2919.40469 C1325.77459,2918.8259 1326.47141,2918.91634 1326.79734,2918.49086 C1327.21345,2921.61233 1332.26184,2921.43117 1332.36139,2918.14755 C1331.61963,2918.45446 1331.35684,2919.00679 1330.66967,2918.94336 C1329.78259,2918.8259 1329.11335,2917.07048 1327.49416,2917.70388 C1328.19042,2916.98004 1328.5704,2915.93054 1329.29424,2915.20698 C1331.98113,2914.85402 1336.06193,2913.56903 1337.11115,2916.45556 C1337.34664,2917.10661 1337.31907,2918.23772 1336.98486,2919.07021 C1336.2158,2920.99659 1333.77267,2922.74318 1332.02663,2924.12743 C1326.6705,2928.44317 1319.72192,2933.11186 1319.10672,2941.67964 C1318.54585,2949.44195 1322.65367,2953.92975 1327.36731,2956.74321 C1331.87276,2959.43011 1336.91206,2960.63347 1342.88367,2961.61955 C1343.90587,2963.82719 1344.24063,2967.61845 1343.21843,2970.10598 C1344.44854,2969.85284 1345.14536,2968.48678 1345.94172,2968.1796 C1346.51141,2972.64865 1347.54326,2976.67513 1348.98101,2980.16665 C1349.47019,2981.32452 1350.3388,2982.37484 1350.3388,2983.67693 C1348.15818,2984.35554 1343.59841,2980.86347 1342.98294,2984.22953 C1340.95646,2983.74063 1339.51761,2985.73125 1340.84809,2986.85355 C1341.51761,2986.08393 1342.2409,2985.39622 1343.77957,2985.49576 C1342.7753,2986.03871 1341.96074,2988.264 1344.01479,2988.31887 C1344.14163,2987.98384 1344.29495,2987.60413 1344.57538,2987.29612 C1346.34872,2985.46874 1354.40112,2985.67721 1357.70348,2986.40105 C1358.44525,2986.54499 1358.98792,2987.47729 1359.39465,2987.63116 C1360.01012,2987.11523 1361.01467,2986.65363 1360.76098,2985.49576 C1360.29083,2983.38767 1356.23761,2984.97984 1354.42815,2984.03044 Z" id="Fill-1"></path>
        </g>
    </g>
</svg>