<?xml version="1.0" encoding="UTF-8"?>
<svg width="150px" height="60px" viewBox="0 0 150 60" version="1.1" xmlns="http://www.w3.org/2000/svg" xmlns:xlink="http://www.w3.org/1999/xlink">
    <title>Artboard</title>
    <g id="Artboard" stroke="none" stroke-width="1" fill="none" fill-rule="evenodd">
        <g id="Fill-139" transform="translate(59.000000, 0.000000)" fill="#9DA6B9">
            <path d="M10.8571472,9.3809565 L10.8571472,8.93670551 C11.5294884,8.96801776 12.1200022,9.10283816 12.6742406,9.26883406 C12.1836919,9.42580548 11.2707145,9.80729525 10.8571472,9.3809565 Z M7.04573691,24.634531 C6.81423888,21.9650597 8.16792088,19.8160007 9.83963577,18.5286436 C9.90332542,18.5151069 9.93060121,18.5420436 9.93960083,18.5777314 C9.1810017,20.094119 8.27245498,21.4131985 8.41312604,23.7416535 C8.54050534,26.2448554 9.82592865,28.2277818 11.30699,29.5244368 C11.8112458,29.9596633 12.4924482,30.2018204 12.8423259,30.7628428 C10.0032905,29.8967653 7.34106306,27.9857614 7.04573691,24.634531 Z M8.41312604,10.8973442 C8.52679822,10.6056891 8.54050534,10.210936 8.63133232,9.87880749 C9.13544976,9.87880749 9.64441314,9.86568096 9.93960083,10.0583401 C9.93060121,10.8209095 9.01277795,10.695387 8.41312604,10.8973442 Z M18.2483312,15.5496051 C17.7577825,15.9712948 17.1261473,16.3391111 16.926494,17.007607 C17.5624214,16.9313091 18.0168332,16.3795846 18.5300887,15.9980948 C21.2828662,13.961295 23.8904036,12.3104971 25.9709784,9.59180139 C27.015904,8.22800964 28.7466011,5.71550982 27.106731,4.04228748 L26.9886282,4.04228748 L26.9886282,4.20828339 C27.0297496,6.03861387 26.1800466,7.47884031 25.289776,8.7529341 C23.3454417,11.5343911 20.6697841,13.409844 18.2483312,15.5496051 Z M22.1597066,18.743864 C22.4460331,19.5199701 21.8917947,20.1839537 21.823536,20.601268 C24.5491761,19.4706089 27.070594,17.8286988 28.8604117,15.7157377 C29.446495,15.0427296 30.2730759,14.1992133 30.0687152,13.1359644 C27.7882103,15.3745847 25.2579312,17.3260621 22.1597066,18.743864 Z M21.823536,21.0497578 C21.8643804,21.4311108 21.8145363,21.8303761 21.6598812,22.1757679 C21.4782273,22.5212964 20.9832479,22.6961801 21.1374876,22.9520107 C22.8681847,22.5438577 24.3900905,21.7946883 25.6894978,20.8838986 C26.9158005,20.0044211 28.2424836,18.9233967 28.6422054,17.2366376 L28.5241027,17.2366376 C26.6297509,18.8470987 24.4447805,20.157017 21.823536,21.0497578 Z M20.9692639,23.4633984 C21.0466607,24.6521698 20.2199413,24.9395861 19.6020132,25.4285493 C21.4146761,25.3251779 22.9365818,24.66598 24.1494543,23.9076494 C25.3530503,23.1673678 26.6297509,22.2880271 27.156852,20.8838986 L27.0431798,20.8838986 C25.3396201,22.0592699 23.4498374,23.0552454 20.9692639,23.4633984 Z M25.0627086,24.4235494 C25.0627086,24.3158024 25.0125876,24.2712269 24.9444673,24.248529 C23.7088881,24.9395861 22.3914815,25.5360228 20.6834912,25.7515166 C21.2967118,25.9802737 23.000133,26.3077533 23.8132837,25.9802737 C24.4584876,25.7334676 24.6264344,24.7868534 25.0627086,24.4235494 Z M17.6803857,27.8870389 L17.4987317,27.8870389 C17.5124388,27.9632001 17.4987317,28.0528981 17.5624214,28.0619226 C19.0617588,29.3853776 21.1286265,30.6192714 22.5594283,32.4405774 C24.3401079,34.7152956 25.7938934,38.043828 24.6629868,41.5389033 C25.2942066,41.0003054 25.753049,40.1432524 26.0892196,39.340483 C26.4390973,38.488079 26.7068708,37.4385036 26.7068708,36.3077077 C26.7479921,30.7089693 21.6964336,29.4707 17.6803857,27.8870389 Z M26.6570267,12.5663277 C27.9198817,11.7496114 29.1554609,10.5742401 30.4004552,9.26883406 C31.7041546,7.90053007 33.643643,6.02083837 32.7899247,3.59803649 C32.7126664,3.58463649 32.7126664,3.52173854 32.621701,3.535412 C31.4223972,6.80569546 29.5645977,9.36290753 27.38835,11.5613278 C27.106731,11.8393094 26.6570267,12.1086767 26.6570267,12.5663277 Z M22.1597066,16.3931213 C22.432326,16.9224213 22.3552061,17.7748253 22.0461728,18.1965151 C25.3076368,16.3705601 28.5241027,14.2755113 30.6866432,11.3954686 C31.4089669,10.4396932 32.2582546,9.33610753 32.3356514,7.97669129 L32.2218407,7.97669129 C29.4283572,11.3415951 26.1029267,14.1632521 22.1597066,16.3931213 Z M29.2282887,57.8825267 C29.7960958,57.8825267 30.2547997,58.3353919 30.2547997,58.8920389 C30.2547997,59.4527878 29.7960958,59.9011408 29.2282887,59.9011408 C28.66062,59.9011408 28.2109157,59.4527878 28.2109157,58.8920389 C28.2109157,58.3353919 28.66062,57.8825267 29.2282887,57.8825267 Z M15.3547442,57.8825267 C15.9224128,57.8825267 16.3813937,58.3353919 16.3813937,58.8920389 C16.3813937,59.4527878 15.9224128,59.9011408 15.3547442,59.9011408 C14.7959368,59.9011408 14.3370943,59.4527878 14.3370943,58.8920389 C14.3370943,58.3353919 14.7959368,57.8825267 15.3547442,57.8825267 Z M7.6999404,57.8825267 C8.26774748,57.8825267 8.72658989,58.3353919 8.72658989,58.8920389 C8.72658989,59.4527878 8.26774748,59.9011408 7.6999404,59.9011408 C7.14127139,59.9011408 6.68256744,59.4527878 6.68256744,58.8920389 C6.68256744,58.3353919 7.14127139,57.8825267 7.6999404,57.8825267 Z M6.34182781,57.335041 C5.96010527,57.7570042 5.464849,58.1022593 4.92888674,58.2997042 C4.23840784,58.5463736 3.4025504,58.6542572 2.62567511,58.6003838 C2.57098508,56.5455349 2.59383028,54.4817983 2.59383028,52.4361107 C2.62567511,51.3952863 2.57569258,50.2288027 3.4795318,49.5291313 C3.46167101,49.4436721 3.42511869,49.3763987 3.37070557,49.299964 C2.26222873,49.2867007 1.36282008,49.3047497 0.304464225,49.277813 C0.213498788,49.3223885 0.186361458,49.4299987 0.145240096,49.5019211 C0.395291206,49.7171415 0.603944042,49.9908844 0.663064653,50.3185007 C0.817581286,50.9106986 0.799582036,51.6151557 0.799582036,52.2610903 C0.78116742,54.0736453 0.822150326,55.8993268 0.74489201,57.729794 C0.708755055,58.4118266 0.567807088,59.1430837 0,59.5962225 C0.0181377051,59.6544715 0.0361369544,59.7262572 0.0772583162,59.7847796 C1.92619659,59.7847796 3.79313411,59.8475408 5.65121046,59.8114429 C5.93753698,59.0353368 6.26429258,58.2504797 6.49149849,57.4608369 C6.45065404,57.3935634 6.40094842,57.3440655 6.34182781,57.335041 Z M16.308566,51.7676148 C15.9269819,51.3369006 15.4318641,51.00067 14.8957634,50.7939272 C14.2054229,50.5473945 13.369427,50.4440231 12.5879827,50.4980333 C12.5561379,51.6509802 12.5515688,52.8037903 12.5561379,53.9570106 L15.1094006,52.9160495 L15.0457109,55.6619554 C14.4551971,55.3611391 13.5193746,55.0425473 12.5561379,54.9886738 C12.5561379,55.5496962 12.5608454,56.1105819 12.5608454,56.6623063 C12.5879827,57.6987553 12.5471382,58.8649654 13.4465469,59.5695592 C13.4284092,59.6544715 13.3921338,59.7262572 13.3330132,59.7935306 C13.1196528,59.8026919 12.9107231,59.8026919 12.7060855,59.8026919 L12.7106545,59.8114429 L10.1031171,59.8114429 C10.1213933,59.7757551 10.1393925,59.7354184 10.1532381,59.6904327 C10.1349619,59.6544715 10.1213933,59.6231592 10.1031171,59.5962225 C10.1485306,59.560398 10.189375,59.515549 10.2302195,59.4749388 C10.4802706,58.7304185 10.5846662,57.9361267 10.5846662,57.0660839 L10.5846662,52.0052597 C10.5846662,51.2562271 10.5118385,50.5653068 10.330323,49.9102109 C10.2347885,49.7577517 10.1166858,49.6232048 9.96673816,49.5019211 C9.98501432,49.4436721 10.0032905,49.3763987 10.0441349,49.3178762 L10.1303929,49.3178762 C10.1213933,49.291213 10.1166858,49.277813 10.1031171,49.2508762 L16.313135,49.2508762 C16.2948589,50.1345925 16.3404108,50.9734598 16.4585136,51.6373067 C16.4086695,51.7090924 16.3675481,51.7540781 16.308566,51.7676148 Z M2.6075374,40.2199605 C3.07524097,40.0538279 4.78350819,38.048477 7.99512809,38.6453239 C11.1841797,39.2373851 11.2253011,41.2203115 11.8475213,41.8618706 C12.288226,41.4760053 12.2565196,40.668587 11.9928998,40.1526871 C11.7612633,39.7082993 11.3205586,39.3583953 11.0252325,38.8963688 C10.325754,37.8060464 11.5749019,36.0835996 12.2246748,35.9310037 C12.4426041,36.249322 12.569845,36.5095281 12.8878779,36.7834077 C13.1694969,37.0211893 13.8235619,37.8195831 14.3189566,37.9092811 L13.6056325,34.8631058 C12.9515675,34.7419589 11.5840399,34.5492997 10.9616813,34.2665324 C10.516546,34.0644385 10.1850829,33.6651732 9.74423975,34.0782487 C9.54887867,34.2618834 8.87653748,34.7959691 8.79927916,34.9126037 C9.09474376,35.0787364 10.0394274,35.0425017 10.5256841,35.29382 C10.4030123,35.886018 9.3262418,36.6890608 8.73586642,36.9537791 C7.83618087,37.3576934 6.67329091,37.3307566 5.62407313,37.2678587 C4.74266374,37.214122 3.69787654,36.9537791 3.19805123,37.9679403 C3.05267268,38.2728586 3.24803376,38.3803321 3.00282861,38.6766361 C2.69836438,39.0489647 1.98517874,39.3720688 2.6075374,40.2199605 Z M19.9019084,54.7421412 C19.9019084,52.1489679 21.4646586,50.5562823 23.845267,50.5562823 C24.9671741,50.5562823 26.0163919,50.8566884 26.8525262,51.4580475 L26.870387,49.6050191 C25.893997,49.3718864 25.0172951,49.255115 24.2448504,49.255115 C22.5412906,49.255115 21.1104888,49.704015 19.9838742,50.583219 C18.6844669,51.5972434 17.9668507,53.0820454 17.9668507,54.8049024 C17.9668507,56.4874227 18.6618986,57.9273757 19.9473219,58.8828776 C20.9195583,59.6231592 22.0961554,60 23.4316997,60 C24.5129007,60 25.753049,59.7444429 27.0885933,59.2327817 L27.1251456,57.4563247 C26.0163919,58.2860307 24.9171915,58.694594 23.7451635,58.694594 C21.4238142,58.694594 19.9019084,57.1691818 19.9019084,54.7421412 Z M5.3603149,44.9485194 C4.68340467,44.7196255 4.71081891,44.405546 4.30652808,43.947895 C3.88853013,44.0690419 3.65675518,44.3427847 3.13893062,44.3382725 C2.59853778,44.329248 2.40774573,44.0378664 2.07143668,43.9793439 C2.09414343,44.9619194 2.42574498,45.8725724 2.98455245,46.6083417 C3.06194922,46.6711029 3.14820716,46.7249764 3.2344651,46.7653131 C3.72972137,46.994207 4.37921736,47.1152172 5.03328238,47.1242417 C5.68305528,47.1334029 7.78619834,46.8729233 7.78177474,45.9983683 C7.78177474,45.5494683 7.37747692,44.9081827 7.0094615,44.7599623 C6.57775643,44.5850786 6.1099144,45.2040765 5.3603149,44.9485194 Z M2.09871247,43.3736093 C2.22138428,43.7462113 2.58926124,43.9659439 3.33886075,43.8717338 C5.06055817,43.6520011 3.69787654,41.6466502 6.79596271,39.802783 C6.9866163,39.6903871 7.30478765,39.5514647 7.4454587,39.376581 C7.20025354,39.3359708 6.95034089,39.3180585 6.6958592,39.3180585 C4.3155277,39.3180585 2.3577632,41.0900033 2.09871247,43.3736093 Z M10.3711674,46.6574295 L10.3757365,46.6443029 C10.4301496,46.451507 10.4030123,46.1911642 10.3438917,45.6257663 C10.2302195,44.4951072 9.47162035,43.2076134 8.66760773,42.8355583 C8.10880027,42.5752155 7.25466666,42.561542 7.13199485,43.2524624 C6.95034089,44.27975 7.26380474,44.2216378 7.76819909,44.7285133 C8.27674711,45.2356622 8.09966219,45.6618642 8.27674711,46.478307 C8.3450058,46.7744744 8.55850459,46.9090213 8.62205578,47.2903743 C8.66760773,47.5952927 8.56307363,47.8420988 8.49938398,48.0934171 C9.23998386,47.7835763 9.88504926,47.2813498 10.3711674,46.6574295 Z M10.3210465,41.0496666 C10.0712723,41.0857646 9.84420481,41.1170768 9.64870527,41.175189 C8.50395302,41.5208543 8.99920928,42.4584441 9.59429216,43.0729297 C10.7526131,44.2664868 10.3801671,45.2937745 10.7526131,45.9622703 C10.7937344,45.9401193 10.8345789,45.8997826 10.8754233,45.8459091 C11.1616114,45.2534377 11.3205586,44.5850786 11.3205586,43.8851337 C11.3205586,42.8128604 10.9481126,41.8305584 10.3210465,41.0496666 Z M7.82718124,48.3128763 C7.87245628,48.2907253 7.91814668,48.2592763 7.96328326,48.2323396 C8.41312604,47.9185335 8.28602365,47.1961641 7.9725598,46.8414744 C7.49557969,46.8104356 6.85037583,47.38896 5.78758939,47.5550927 C4.78350819,47.7078253 4.45176818,47.4249213 3.6069111,47.2858621 C4.42463085,48.007958 5.51026249,48.4523457 6.6958592,48.4523457 C7.08685827,48.4523457 7.46373486,48.402711 7.82718124,48.3128763 Z M6.4689302,44.3116092 C6.55518814,43.6786644 6.45536154,42.8218848 7.10485752,42.4315073 C7.37747692,42.2701604 7.66380344,42.3687461 8.24490228,42.2968237 C8.78127991,42.2340624 8.39484988,41.4805176 9.01277795,40.9781544 C9.30810409,40.7405095 9.6805501,40.7358605 9.97573779,40.6640748 C9.43991398,40.1299891 8.76729588,39.7264851 8.01797329,39.5063422 C7.97712884,39.5108545 7.94071497,39.5200157 7.9043011,39.5287667 C7.14584043,39.7352361 6.37796476,40.2648095 5.79645055,40.9465686 C5.21964384,41.6242257 4.82435264,42.4450441 4.80607648,43.2479501 C4.77423165,44.405546 5.5693831,44.9751827 6.4689302,44.3116092 Z M20.8014555,45.6349275 C20.5788186,45.5226683 20.4244405,45.3071745 20.283631,45.0737684 C19.1887228,43.1583889 19.1386018,40.5519523 18.7481565,37.9857158 C19.2524124,38.3491566 20.142683,38.8333341 20.9692639,38.5017525 C19.4614806,37.3307566 18.3255895,35.3523425 18.7481565,32.60671 C17.2399579,31.2426448 15.3408986,29.7847796 14.3825078,27.8331655 C14.0507678,27.1735573 13.7008901,26.2898411 13.982786,25.4777738 C14.7458158,27.734443 16.0496537,29.1745327 17.7305067,30.6954326 C19.5111862,32.3284549 21.6191753,34.001814 21.3011424,37.545977 C21.7735534,37.3173566 21.8371046,36.6127628 21.878226,36.0879751 C22.2232577,31.5881734 18.7481565,29.8833653 16.5403409,27.8331655 C15.8271553,27.1870941 15.0956935,26.384188 14.8867637,25.4285493 C15.608949,25.8860635 16.3314112,26.7386043 17.3307849,27.32629 C18.9298105,28.281792 21.0602293,28.5779593 22.6139799,27.6715451 C23.0636842,27.4023145 23.6816123,27.0972594 23.7451635,26.5994084 C22.0961554,26.6757063 20.8377309,26.442437 19.6657029,26.1015574 C18.879828,25.8725268 17.9894189,25.6123207 17.5624214,25.0964207 C18.9162418,24.9708983 20.0382873,24.6208575 20.4017337,23.5128964 C19.5250318,23.5396964 18.3255895,23.7056923 17.7305067,23.297676 C19.3293938,23.0149086 20.9284194,22.759078 21.3011424,21.2652516 C20.142683,21.3102373 18.9707934,21.9202108 17.7803507,21.5522577 C19.2932569,20.9868598 21.2967118,20.8972986 21.5918995,19.1386171 C20.4154408,19.201515 19.07062,20.175066 17.7803507,19.9283966 C19.3293938,19.1789538 21.6827264,18.9098599 21.6598812,16.7877376 C20.7243356,16.8909723 19.6249969,17.87806 18.6344843,17.7388641 C22.8681847,15.1951888 27.0930239,11.9292808 29.8869227,7.63129948 C31.0997952,5.7919445 33.330456,2.15808353 31.1363475,0 L30.9681238,0 C30.9681238,0.0764346887 30.8910039,0.0764346887 30.9184182,0.166132642 C30.6319532,3.1537855 29.5007696,5.91309143 28.1243809,8.03056476 C26.7979746,10.1077014 25.1851034,11.9157441 23.3590104,13.423244 C21.4919344,14.9528949 19.2796882,16.173252 17.4488876,17.6896396 C16.4222382,18.5151069 15.9044136,19.3809109 15.4045883,20.7132537 C14.9139011,22.0099087 14.3598011,23.2078413 13.4192711,23.7910147 C13.1058072,23.9838106 12.6243966,24.3248269 12.1611236,24.073782 C12.5471382,23.6384188 12.9831354,23.4859596 13.2374787,23.1807678 C13.7510111,22.5706576 14.0507678,21.4896332 14.3825078,20.4263843 C14.6959717,19.4302721 15.0685562,18.5015702 15.572812,17.6896396 C17.3580607,14.7375378 21.178609,12.6470012 23.5815088,9.94170545 C24.7900892,8.57340146 26.1530477,6.88213014 26.307149,4.77792008 C26.4390973,3.08664877 25.7392034,2.38697739 24.494763,2.08164884 C24.5718829,2.65579778 24.9898808,3.16294672 24.8809161,4.09616095 C24.7038312,5.96245266 23.1819255,8.01251578 22.109724,9.31833202 C20.9149892,10.758285 19.4703418,12.005442 18.0168332,13.2391991 C16.6537362,14.405546 14.9775907,15.6796397 14.0873202,17.3575111 C13.6736143,18.1336171 13.314737,19.4078477 13.0605322,20.3275251 C12.9287223,20.8838986 12.6243966,23.1047433 11.8248145,23.0686454 C11.3478344,23.0552454 11.1297666,22.0099087 11.1387662,21.2652516 C11.1934562,17.4787947 14.7823681,15.8054357 16.0225164,13.3020971 C16.1404807,13.0732032 16.2812902,12.6021522 16.3041354,12.2969604 C16.4358068,11.0005788 15.749897,10.5429279 15.1729518,9.9912034 C16.8263905,10.210936 18.979793,10.0944381 18.8659824,8.42094228 C18.5936399,8.5105035 18.4254161,8.81569532 18.0664003,8.93670551 C15.6726386,9.69954832 11.593178,6.07908734 9.83963577,8.19218516 C9.61713736,8.29528311 9.9531695,8.64505043 9.77151554,8.70794839 C9.33524142,8.70794839 8.87653748,8.69003614 8.51766014,8.7529341 C8.41312604,8.43447902 8.28602365,8.14255047 8.18148954,7.81069539 C7.94999151,7.90053007 7.60011379,7.87359334 7.38176905,7.97669129 C7.57283801,8.21898516 7.75435351,8.46127902 7.78176775,8.87408103 C6.89122028,9.1073504 6.06463937,9.41226875 5.90998428,10.3904687 C6.49149849,10.1928871 7.25009762,9.87880749 7.89530148,9.94170545 C7.89530148,10.3456197 7.81804316,10.695387 7.66380344,10.9467054 C7.50914835,11.126238 6.87765161,10.8479829 6.81423888,11.1127013 C6.77339442,11.5343911 7.31835631,11.3817951 7.38176905,11.6734502 C7.21396067,12.0189788 7.01846113,12.3238971 6.76411789,12.5663277 C5.93753698,11.5837523 4.92417924,12.525991 4.03390868,12.7457236 C3.81584085,12.7995971 3.64775556,12.7231624 3.46596314,12.8578461 C4.16558011,14.0557786 5.48312516,12.8757583 6.52791236,12.7995971 C6.219156,13.4544195 4.69268121,13.6742889 4.43363047,14.4818439 C4.24283843,15.0651541 4.51088879,15.7650989 5.34217719,15.7650989 C5.1333859,15.0427296 6.10548382,14.746699 6.30998298,14.1992133 C6.37339572,14.0109297 6.24629333,13.7505868 6.30998298,13.5891032 C6.41424017,13.3020971 6.76411789,13.346946 6.9277726,13.1359644 C7.13670235,14.683801 9.67155047,14.5939664 9.72153301,12.9657297 C9.349087,13.1179154 9.21713866,13.391795 8.87210689,13.360346 C8.4266947,13.3020971 8.09066256,12.4316441 7.27765032,12.7457236 C7.62725112,12.3867951 7.81804316,11.8663829 8.18148954,11.5075911 C9.53060251,11.3325707 11.5796094,10.695387 12.1064335,12.1267257 C12.2246748,12.4495563 12.2108292,13.010442 12.0430208,13.423244 C11.6568677,14.3784725 10.4301496,15.24455 9.55344771,15.9309581 C6.86408295,18.0709926 3.37513616,20.3860476 3.06624135,24.634531 C2.78462232,28.4836123 4.84719784,30.7089693 7.21396067,32.1040733 C9.47618939,33.4364161 12.0064685,34.0331263 15.0048665,34.5220895 C15.518122,35.6167874 15.6862073,37.4967526 15.1729518,38.7302361 C15.790603,38.6047137 16.1404807,37.9273301 16.5403409,37.7750076 C16.8263905,39.9910667 17.344492,41.9876665 18.0664003,43.7190011 C18.3120209,44.29315 18.7481565,44.8139725 18.7481565,45.4596336 C17.6532484,45.7961377 15.3637438,44.0645297 15.0547106,45.73365 C14.0371992,45.4912194 13.314737,46.478307 13.982786,47.0348172 C14.3189566,46.6531907 14.6821261,46.3121744 15.4547093,46.3615356 C14.9504534,46.6307662 14.5414551,47.7342151 15.572812,47.7614253 C15.6365017,47.5952927 15.7134831,47.407009 15.8542926,47.2542764 C16.7447016,46.3481356 20.7878868,46.451507 22.4460331,46.8104356 C22.8184791,46.8818111 23.09096,47.3441111 23.2951823,47.420409 C23.6042155,47.1645784 24.1086099,46.9356846 23.9812306,46.3615356 C23.7451635,45.316199 21.7100022,46.105705 20.8014555,45.6349275 Z" id="Fill-1"></path>
        </g>
    </g>
</svg>