<?xml version="1.0" encoding="UTF-8"?>
<svg width="150px" height="60px" viewBox="0 0 150 60" version="1.1" xmlns="http://www.w3.org/2000/svg" xmlns:xlink="http://www.w3.org/1999/xlink">
    <title>Artboard</title>
    <g id="Artboard" stroke="none" stroke-width="1" fill="none" fill-rule="evenodd">
        <g id="ljla-logo" transform="translate(0.000000, 13.000000)" fill="#9DA6B9" fill-rule="nonzero">
            <g id="Group" transform="translate(75.000000, 16.580119) scale(-1, 1) rotate(-180.000000) translate(-75.000000, -16.580119) ">
                <polygon id="Path" points="109.40532 26.7486582 109.40532 20.3370791 110.305224 20.3370791 111.205128 20.3370791 111.205128 26.7486582 111.205128 33.1602374 110.305224 33.1602374 109.40532 33.1602374"></polygon>
                <path d="M114.075823,26.5596854 C114.062324,20.1076121 114.062324,19.9501347 113.972334,19.7071696 C113.91384,19.5451928 113.805852,19.3787167 113.657367,19.2257387 C113.409894,18.9692756 113.157921,18.8702898 112.658474,18.8207969 L112.375004,18.7938008 L112.375004,18.0964009 L112.375004,17.4035004 L113.085928,17.4259972 C113.846347,17.448494 114.138816,17.5069856 114.57077,17.7184552 C115.056719,17.956921 115.403182,18.415855 115.601161,19.0997568 C115.673153,19.3517206 115.682152,19.8466495 115.695651,26.2672274 L115.709149,33.1602374 L114.894736,33.1602374 L114.084822,33.1602374 L114.075823,26.5596854 Z" id="Path"></path>
                <path d="M127.223424,26.7486582 L127.223424,20.3370791 L128.01084,20.3370791 L128.798256,20.3370791 L128.798256,23.3741429 L128.798256,26.4157061 L129.126721,26.7396595 C129.734157,27.3470723 130.436082,27.5945368 131.250495,27.4910516 C131.718445,27.43256 132.073908,27.2660839 132.343879,26.9781253 C132.600352,26.7081641 132.672344,26.5821822 132.798331,26.186239 C132.960313,25.664314 132.982811,25.2683709 132.982811,22.7622308 L132.982811,20.3370791 L133.752229,20.3370791 L134.517148,20.3370791 L134.49915,23.1401765 C134.481151,26.1637423 134.485651,26.1187487 134.224679,26.8701408 C134.062696,27.3290749 133.855718,27.648529 133.477758,28.0354734 C132.861324,28.6608836 132.078407,28.9263455 131.025519,28.8678539 C130.202107,28.8273597 129.743156,28.6608836 129.13572,28.1884515 L128.820754,27.9454864 L128.807255,30.5551115 L128.798256,33.1602374 L128.01084,33.1602374 L127.223424,33.1602374 L127.223424,26.7486582 Z" id="Path"></path>
                <path d="M22.4520731,32.3503537 C22.0876119,32.1388841 22.0561152,32.0668944 22.0516157,31.4549823 C22.0516157,30.5326148 22.1371066,29.6237453 22.2675927,29.1828086 C22.434075,28.6158901 22.425076,28.3684256 22.218098,27.9454864 C22.0606147,27.6260322 22.0471162,27.57204 22.0336176,27.126604 C22.020119,26.7396595 22.0291181,26.6136776 22.0921114,26.4831964 C22.1641037,26.3302183 22.1866013,26.3167203 22.330586,26.3302183 C22.4835697,26.3437164 22.4970683,26.3617138 22.5960578,26.6136776 C22.6545515,26.757657 22.6995467,26.9601279 22.6995467,27.0546143 C22.6995467,27.2750826 22.9065247,27.5135484 23.0505094,27.4550568 C23.3249802,27.356071 23.918917,26.2087358 23.9054184,25.817292 C23.9009189,25.6418172 24.0359045,25.385354 24.2068863,25.2503734 C24.2833782,25.1873825 24.341872,25.0614006 24.4093648,24.78694 C24.4588595,24.5799697 24.5893456,24.2155221 24.7018337,23.9815557 C24.9088116,23.5316203 24.989803,23.2526604 24.9943025,22.9961972 C24.9943025,22.9107095 25.0437973,22.7172373 25.1067906,22.5642592 C25.1922815,22.3482902 25.2327772,22.1143238 25.2822719,21.556404 C25.3182681,21.1559615 25.3632633,20.8095113 25.3767618,20.7870145 C25.3902604,20.7645177 25.3857609,20.7375216 25.3632633,20.7240235 C25.3407657,20.7105255 25.2822719,20.8275087 25.2282776,20.9759873 C25.1697839,21.1289654 25.0797935,21.3179382 25.0168002,21.3989266 C24.9583064,21.4754156 24.8953131,21.5968982 24.877315,21.6688878 C24.8593169,21.7408775 24.7963236,21.8578607 24.7333303,21.9298503 C24.6748365,22.0063394 24.5263523,22.2673019 24.4003658,22.5147663 C24.2788787,22.7667301 24.134894,23.018694 24.0808997,23.0726862 C23.9414146,23.2256642 23.6579448,23.3606448 23.5184596,23.3426474 C23.4104711,23.3291494 23.3969725,23.3066526 23.383474,23.1311778 C23.3699754,22.9647017 23.3969725,22.8972114 23.5499562,22.663245 C23.7704328,22.3392915 23.7794318,22.2673019 23.6129495,22.2763006 C23.4599658,22.2852993 23.0100137,22.1593174 22.7670396,22.0333355 C22.6680501,21.9838426 22.5150664,21.8668594 22.425076,21.772373 L22.2630932,21.5968982 L21.5341708,21.6283936 C20.8007488,21.6553898 20.1843144,21.6058969 19.887346,21.493413 C19.8153537,21.4619176 19.5813786,21.4394208 19.3699011,21.4394208 L18.9874418,21.4394208 L18.9469461,21.2729447 C18.8884523,21.0344789 18.9604446,20.908497 19.2439145,20.755519 C19.3923987,20.6745306 19.4778896,20.602541 19.464391,20.5575474 C19.455392,20.526052 19.4373939,20.3460778 19.4238953,20.1661037 C19.4058972,19.878145 19.4193958,19.8106547 19.5318838,19.5586909 C19.6443719,19.3067271 19.6578704,19.2392368 19.6443719,18.8522924 C19.6218743,18.0604061 19.680368,17.3585069 19.7928561,17.1515366 C19.8648484,17.0120567 19.8648484,16.9895599 19.7973556,16.7780903 C19.7478609,16.6341109 19.7298628,16.4991303 19.7523604,16.4091433 C19.7703585,16.3281549 19.7973556,16.0221988 19.8153537,15.7252415 C19.8378513,15.3697925 19.8738474,15.1268274 19.9233422,15.0188429 C19.9773364,14.9063591 19.999834,14.7353836 19.999834,14.4879192 C19.999834,14.2854483 20.0223316,13.9839916 20.0493288,13.8130161 C20.1078225,13.4260717 20.0493288,13.1786072 19.8423508,12.971637 C19.7073652,12.8366563 19.6668695,12.8231583 19.4418934,12.8231583 C19.1809212,12.8231583 18.3080141,13.0751221 17.7995682,13.3000898 C17.6690821,13.3585814 17.5160983,13.4080743 17.4621041,13.4080743 C17.4081098,13.4080743 17.1966323,13.4485685 16.9941539,13.5025607 C16.6386917,13.5925478 16.6161941,13.5925478 16.3957176,13.5205581 C15.9952602,13.3855775 15.8827722,13.1561105 16.1032487,12.9356421 C16.2022382,12.8366563 16.2337348,12.8276576 16.5262037,12.8546538 L16.8411702,12.8816499 L17.3541156,12.6116887 C18.1325327,12.2022475 19.0909308,11.9232875 19.7163642,11.9232875 C19.9503393,11.9232875 20.5667737,12.2202449 20.6657632,12.3777223 C20.7287565,12.476708 20.8142474,13.0076318 20.8952388,13.7995181 C20.940234,14.2224573 20.9357344,14.2809489 20.8547431,14.4879192 C20.8052483,14.6139011 20.7647526,14.7758778 20.7647526,14.8478675 C20.7647526,14.9198571 20.742255,15.032341 20.7152579,15.1043307 C20.6882608,15.171821 20.6612637,15.3202996 20.6477651,15.4327835 C20.5937708,15.9592079 20.5352771,16.9040722 20.5217785,17.4124991 C20.5127795,17.7229546 20.4812828,18.0379093 20.4542857,18.109899 C20.3552962,18.3483647 20.310301,18.7263104 20.2923029,19.432709 C20.2788044,20.0761166 20.2698053,20.1391075 20.1573173,20.3550765 C19.9323412,20.7780158 19.9323412,20.7645177 20.1753154,20.894999 C20.3282991,20.9759873 20.4677842,21.0074828 20.6567641,21.0119822 C21.0707201,21.0164815 21.5971641,20.9489912 21.6781554,20.8815009 C21.7726454,20.8095113 21.7726454,20.6250377 21.6871545,20.4720597 C21.5611679,20.2515914 21.6331602,19.2392368 21.804142,18.7803027 C21.8806339,18.5823311 21.9526262,18.4923441 22.1731028,18.3123699 C22.6230549,17.9479222 22.6320539,17.9479222 23.4149706,17.9974151 C24.2113859,18.046908 24.2788787,18.0739042 24.5398509,18.4473505 C24.6388404,18.5868305 24.7963236,18.7983001 24.8953131,18.9152833 C25.0123006,19.0547633 25.1382872,19.293229 25.2462757,19.5766883 C25.3362662,19.8241528 25.4262566,20.0221243 25.4442547,20.0221243 C25.5387446,20.0221243 25.7187255,18.7578059 25.7367235,17.9524216 C25.7502221,17.4664914 25.7727197,17.2010295 25.8222144,17.0750476 C25.8582106,16.9760618 25.8897073,16.7465948 25.8942068,16.5666206 C25.8942068,16.3101575 25.9167044,16.1931743 26.0066948,16.0176995 C26.1146833,15.8062298 26.1191828,15.7792337 26.0651886,15.4822764 C26.0201934,15.2078158 26.0246929,15.0953319 26.1101838,14.5689076 C26.1641781,14.2359554 26.2091733,13.9165013 26.2091733,13.8490109 C26.2091733,13.78602 26.2451694,13.6870342 26.2946642,13.6285426 C26.3441589,13.5610523 26.4251503,13.2685943 26.5016421,12.8816499 C26.6186297,12.2967339 26.6276287,12.2157455 26.578134,11.9592824 C26.5466374,11.801805 26.5196402,11.5138463 26.5241397,11.3158748 C26.5241397,11.1179032 26.5241397,10.9064336 26.5241397,10.8434426 C26.5241397,10.6814659 26.5601359,10.3170182 26.6411273,9.70510611 C26.6951216,9.2686688 26.6996211,9.14268689 26.6546259,9.00770628 C26.578134,8.79173729 26.5826335,5.63319094 26.6546259,5.26424393 C26.681623,5.12926331 26.7131196,4.85480273 26.7266182,4.65683117 C26.7446163,4.35087511 26.7626144,4.27438609 26.8796019,4.10791 C26.99209,3.95043262 27.0415847,3.91443779 27.1585722,3.91443779 C27.424044,3.91443779 27.5905263,4.06741582 27.8020038,4.5173512 C27.9099923,4.74231889 28.0224803,5.03927624 28.053977,5.17425685 C28.0854736,5.30923747 28.1799635,5.646689 28.2654544,5.91665023 C28.3599444,6.21360758 28.4274372,6.52856234 28.4364363,6.70853649 C28.4409358,6.87051323 28.4724324,7.04598803 28.4994295,7.09998027 C28.5264267,7.14947316 28.5489243,7.30695055 28.5489243,7.44643051 C28.5489243,7.58591048 28.5804209,7.81537752 28.6209166,7.95035814 C28.6614123,8.08533875 28.6839099,8.26081355 28.6704114,8.33730256 C28.6614123,8.41379158 28.6659118,8.54427284 28.6884094,8.63425991 C28.7064075,8.71974763 28.701908,8.89072308 28.6794104,9.01670498 C28.6524133,9.16518366 28.6524133,9.29116556 28.6839099,9.38565199 C28.7199061,9.48463778 28.7199061,9.71410482 28.6839099,10.1505421 C28.6569128,10.4969924 28.6299157,11.0189174 28.6164171,11.3203741 C28.6074181,11.6713237 28.5669224,11.9952772 28.5039291,12.2382423 C28.4499348,12.4497119 28.4229377,12.6611815 28.4364363,12.7331712 C28.4499348,12.8051609 28.4409358,12.9896344 28.4139386,13.1471118 C28.382442,13.3000898 28.3419463,13.5925478 28.3239482,13.7905193 C28.2564554,14.4519244 28.0584765,15.6757486 27.968486,15.9727059 C27.9234908,16.1346827 27.846999,16.418142 27.8065033,16.6026155 C27.7030143,17.0750476 27.5815272,17.3135134 27.3970469,17.4035004 C27.311556,17.4394953 27.2305646,17.461992 27.217066,17.4439946 C27.1405742,17.372005 27.1270756,17.0075573 27.1900689,16.863578 C27.3880478,16.4001445 27.5725282,15.756737 27.64902,15.2123151 C27.8604975,13.7995181 27.9234908,13.1336137 27.9189913,12.3957197 C27.9189913,12.32373 27.9414889,11.8377998 27.968486,11.3158748 C28.0449779,9.95706992 27.950488,8.38679545 27.7390105,7.46892728 C27.6940153,7.27995442 27.6805167,7.26645636 27.5410315,7.25745765 C27.3925473,7.2529583 27.3880478,7.25745765 27.3655502,7.45992857 C27.3475521,7.57691177 27.3520516,7.9638562 27.3745493,8.3238045 C27.433043,9.40814876 27.3970469,9.84458608 27.2125665,10.3935072 L27.0505837,10.8659394 L27.1225761,11.2708812 C27.1630718,11.4913496 27.1990679,11.8288011 27.1990679,12.0222733 C27.1990679,12.4857068 27.1225761,13.1876059 27.0640823,13.2460975 C27.0415847,13.2685943 27.0190871,13.4080743 27.0190871,13.556553 C27.0190871,13.7590239 26.9875904,13.8850058 26.8751024,14.1189722 L26.7266182,14.4204289 L26.7356172,15.1403255 C26.7446163,15.6397538 26.7266182,15.9502092 26.6861225,16.1526801 C26.6501263,16.3146568 26.5961321,16.6701058 26.569135,16.940067 C26.5376383,17.2145276 26.474645,17.5924733 26.4296498,17.7814462 C26.3801551,17.9749184 26.3216613,18.3978576 26.2946642,18.7263104 C26.267667,19.0547633 26.2181723,19.3922148 26.1776766,19.4822019 C26.1371809,19.5766883 26.0966852,19.8601476 26.0786872,20.2065978 C26.0561895,20.6250377 26.0291924,20.8005125 25.9706986,20.8904996 C25.930203,20.9534906 25.8942068,21.0659744 25.8942068,21.1334647 C25.8942068,21.200955 25.8627101,21.3719305 25.8222144,21.5069111 C25.7862183,21.6418917 25.7367235,21.9883419 25.7142259,22.2718012 C25.6647312,22.9107095 25.619736,23.1986681 25.4712518,23.8015815 C25.4082585,24.062544 25.3542642,24.3190072 25.3542642,24.3774988 C25.3542642,24.431491 25.3182681,24.5529736 25.2687733,24.64746 C25.2237781,24.7374471 25.1472863,24.9444174 25.1022911,25.1018948 C25.0617954,25.2593721 24.9538069,25.4888392 24.8728155,25.6103217 C24.7828251,25.7363036 24.7018337,25.9252765 24.6793361,26.0647565 C24.6163428,26.3887099 24.5533495,26.5281899 24.4318624,26.6091783 C24.3553705,26.6586712 24.3193744,26.7396595 24.2968768,26.9151343 C24.2563811,27.216591 24.2158854,27.2930801 24.0719007,27.3290749 C23.9954088,27.3470723 23.9234165,27.4280607 23.8469246,27.5810387 C23.7884309,27.7025212 23.6669438,27.8509999 23.5814529,27.9184902 C23.5004615,27.9814812 23.3699754,28.1479573 23.2934835,28.2919366 C23.1090032,28.6428862 22.7355429,29.6552408 22.7670396,29.7317298 C22.7805381,29.7677246 22.76254,29.8982059 22.7265439,30.0286872 C22.5735602,30.5641103 22.5510625,30.7440844 22.6050568,31.0905346 C22.6590511,31.4549823 22.7850376,31.6304571 22.9830166,31.6304571 C23.2439888,31.6304571 23.7839314,31.2840069 24.3733686,30.7395851 C24.5308519,30.5956057 24.7243313,30.4516264 24.8098222,30.4156316 C24.8953131,30.3796368 25.093292,30.2311581 25.2462757,30.0826794 C25.403759,29.9297014 25.6242355,29.7317298 25.7367235,29.6372434 C25.8492116,29.5382576 26.0876862,29.2862938 26.2631675,29.0748242 C26.4386488,28.8588552 26.6951216,28.5663972 26.8256077,28.4269172 C27.113577,28.1209612 27.1900689,27.9544851 27.3790488,27.2750826 C27.536532,26.694666 27.6445205,26.4517009 27.8424995,26.2447306 C28.1799635,25.8892817 28.4904305,26.2132351 28.2114602,26.6271757 C28.0989722,26.7936518 28.062976,26.9961227 28.1439674,26.9961227 C28.1709645,26.9961227 28.2834525,26.910635 28.3959406,26.8071498 C28.5444248,26.6676699 28.6749109,26.4696983 28.8683903,26.0872532 C29.012375,25.7992946 29.1878563,25.4933385 29.2598486,25.4123502 C29.331841,25.3313618 29.453328,25.1423889 29.5343194,24.9939103 C29.6153108,24.8454316 29.7817931,24.5799697 29.8987806,24.4089943 C30.0157682,24.2335195 30.18675,23.9320628 30.2767404,23.7340912 C30.3667308,23.540619 30.4657203,23.3606448 30.497217,23.3426474 C30.5782083,23.2886552 30.7446906,23.2976539 30.8436801,23.3606448 C30.9111729,23.4056384 30.9561681,23.4056384 31.0101624,23.3696436 C31.1496475,23.2841558 31.3791231,22.9287069 31.3791231,22.7982256 C31.3881221,22.5687586 31.6670925,22.1368206 31.8110771,22.1368206 C31.9550618,22.1368206 32.0225546,22.2807999 31.991058,22.5147663 C31.9775594,22.6407482 31.9550618,22.8612166 31.9415633,23.0051959 C31.9235652,23.3156513 31.8695709,23.4236358 31.568103,23.7745854 C31.2936322,24.0985389 31.1991423,24.2920111 31.1811442,24.5619723 C31.1586466,24.8859258 31.0191614,25.1423889 30.6412016,25.5563295 C30.3802294,25.8442881 30.2452438,26.0422597 30.0967596,26.3572145 C29.9527749,26.6631705 29.8627845,26.7936518 29.763795,26.8521434 C29.6738046,26.9016363 29.5973127,27.0096208 29.5298199,27.1715975 C29.4758256,27.3065781 29.3228419,27.5765393 29.1923558,27.7790103 C28.9673798,28.1209612 28.9538812,28.1524566 28.9538812,28.4359159 C28.9538812,28.6293881 28.9223845,28.7958642 28.8638908,28.9218461 C28.7783999,29.1063196 28.6839099,29.6822369 28.6839099,29.9971917 C28.6839099,30.1006768 28.7064075,30.1456704 28.7559023,30.1456704 C28.8368936,30.1456704 29.2643481,29.8262162 30.3082371,28.9758384 C30.7401911,28.6248888 31.2936322,28.1929508 31.5411059,28.0129767 C31.78408,27.8375019 32.0900475,27.5945368 32.2205336,27.4685549 C32.3465202,27.3470723 32.5939938,27.1221046 32.7739747,26.9736259 C33.4129067,26.4382028 33.4893985,26.3617138 33.8448607,25.8622856 C34.0473392,25.5833256 34.2813143,25.2908676 34.3668052,25.2098793 C34.5512855,25.0434032 34.9202463,24.3999956 35.3297027,23.5361196 C35.4871859,23.1986681 35.6491687,22.8702153 35.6851649,22.802725 C35.82465,22.5462618 35.9821333,22.0558322 36.1531151,21.3494337 C36.247605,20.9444919 36.3645926,20.5350507 36.4050883,20.4405642 C36.5220758,20.1796017 36.5760701,19.293229 36.5625715,17.8894306 C36.5535725,16.8320825 36.5355744,16.5756193 36.463582,16.3011588 C36.4185868,16.1166853 36.351094,15.6082583 36.3105983,15.1673216 C36.2746021,14.7263849 36.2116089,14.2539528 36.1756127,14.1234715 C36.1396165,13.9884909 36.0766232,13.7590239 36.0361275,13.6105452 C36.0001314,13.4620665 35.9056414,13.1471118 35.8291496,12.9131454 C35.6311706,12.3057326 35.5771764,12.2517404 35.4691879,12.5666951 C35.2667094,13.138113 35.2262137,13.3315853 35.1227247,14.1054741 C35.0282348,14.8478675 34.9202463,15.1898184 34.7087688,15.4462815 C34.5557851,15.630755 34.4882922,15.6442531 34.2903133,15.5452673 C34.1328301,15.464279 34.0833353,15.5092725 34.0833353,15.7342402 C34.0833353,15.8827189 33.7683689,16.6161135 33.6468818,16.7465948 C33.5928875,16.8050864 33.579389,16.9085715 33.5838885,17.1335392 C33.588388,17.3360101 33.5613909,17.5429804 33.4938981,17.7499507 C33.4264052,17.970419 33.4084072,18.1143983 33.4264052,18.262877 C33.5253947,18.9917723 33.5118961,19.0862588 33.2284263,19.572189 C33.0979402,19.801656 33.052945,19.9276379 33.0349469,20.1481062 C33.0169488,20.3820726 32.9539555,20.5530481 32.7064819,21.0704738 C32.3555192,21.8038684 32.3150235,21.8668594 32.1485412,21.8668594 C32.0135556,21.8668594 31.8335747,21.7183807 31.8335747,21.6058969 C31.8335747,21.4664169 31.9325642,21.1739589 32.0855479,20.8455061 C32.2565297,20.4900571 32.2655288,20.4135681 32.1710388,20.247092 C32.0810484,20.0896146 32.0900475,19.9591334 32.1935364,19.7521631 C32.2430312,19.6531773 32.3060245,19.4687038 32.3330216,19.3382226 C32.3600187,19.2077413 32.4095135,19.0232678 32.4455096,18.9287814 C32.4815058,18.8342949 32.5399996,18.4698473 32.5759957,18.1143983 C32.6119919,17.7634487 32.6614866,17.4169985 32.6884838,17.3405095 C32.7199804,17.2685198 32.7604761,16.6881032 32.7829737,16.0311975 C32.8189699,15.0458391 32.8144704,14.7848765 32.7559766,14.4339269 C32.7199804,14.2044599 32.6884838,13.9120019 32.6884838,13.78602 C32.6884838,13.6645374 32.6479881,13.4080743 32.5984933,13.2236008 C32.4770063,12.7511686 32.0855479,11.7793082 31.9955575,11.7208166 C31.680591,11.522845 31.5501049,12.6341854 31.7885795,13.4980614 C31.8695709,13.7905193 31.87857,13.9120019 31.8515728,14.3754353 C31.8290752,14.8073733 31.8380743,14.9648507 31.896568,15.1583229 C31.9415633,15.3158003 31.9685604,15.5722634 31.9685604,15.8782195 C31.9685604,16.3371536 31.9865585,16.4361394 32.1080455,16.8590786 C32.1575403,17.016556 32.1530407,17.0975444 32.0810484,17.385503 C32.0090561,17.677961 32.0045565,17.7499507 32.0540513,17.8849313 C32.0855479,17.970419 32.094547,18.0604061 32.0810484,18.0874022 C32.0675498,18.109899 32.0360532,18.4248537 32.0135556,18.7758033 C31.991058,19.1312523 31.9505623,19.4777025 31.9235652,19.5451928 C31.9010676,19.6126831 31.87857,19.801656 31.8740704,19.9681321 C31.8695709,20.5485487 31.6940896,21.2459486 31.4151193,21.7903704 C31.3026312,22.0198374 31.2891327,22.0828284 31.3116303,22.2807999 C31.3431269,22.4922696 31.3296284,22.5282644 31.1946427,22.7307353 C31.0371595,22.9692011 31.0551576,22.9602024 30.6681988,22.8837133 C30.5512112,22.8612166 30.5287136,22.739734 30.6052055,22.5822566 C30.6547002,22.4877702 30.6906964,22.2718012 30.7086944,22.0243368 C30.7266925,21.7048827 30.7536897,21.5923988 30.8301815,21.479915 C30.9921643,21.2549473 31.0281605,21.110968 31.0731557,20.53955 C31.1496475,19.4956999 31.2396379,18.7803027 31.3116303,18.6093273 C31.4286178,18.3303673 31.3791231,16.8590786 31.2261394,16.062693 C31.1496475,15.6577512 31.0551576,14.8973604 30.9561681,13.9255 C30.9156724,13.5295568 30.8481796,13.0751221 30.8121834,12.9131454 C30.7626887,12.7196731 30.7401911,12.4047184 30.7356916,11.9907778 L30.7356916,11.3608683 L30.929171,10.7984491 C31.0371595,10.4879937 31.1586466,10.200035 31.1991423,10.1505421 C31.2981317,10.0380583 31.4916111,9.94357186 31.6265968,9.94357186 C31.7705814,9.94357186 32.1170446,10.1730389 32.2250331,10.3440143 C32.2700283,10.4115047 32.4410101,10.6499704 32.6074924,10.8659394 C32.9359574,11.3023767 33.3409143,11.9907778 33.3004186,12.0492694 C33.2869201,12.0717662 33.3139172,12.1617533 33.3634119,12.247241 C33.4084072,12.3372281 33.4983976,12.6341854 33.5613909,12.9131454 C33.6243842,13.1921053 33.6873775,13.430571 33.700876,13.4440691 C33.7458712,13.493562 33.7818674,13.3990756 33.9303516,12.8366563 C34.123831,12.1032617 34.1913238,11.5948347 34.2903133,10.1505421 C34.3533066,9.19217978 34.3578061,8.90872049 34.3173104,8.55327154 C34.2858138,8.31480579 34.2408186,7.90086524 34.218321,7.62640466 C34.0743363,6.11912115 33.8088645,5.24174716 33.2869201,4.55784538 C33.2059287,4.45436025 33.1024397,4.29238351 33.052945,4.19789708 C33.0079498,4.10341065 32.8549661,3.89644038 32.7154809,3.73896299 C32.5040034,3.49599789 32.3735173,3.25303279 32.3735173,3.0955554 C32.3735173,3.07755799 32.4185125,3.02356574 32.4725068,2.9695735 C32.7469775,2.71760969 33.3949086,3.04606251 33.8268626,3.65797463 C34.0428396,3.95943133 34.6547745,5.39022583 34.8842501,6.11912115 C35.0597314,6.66354295 35.4601888,8.31480579 35.496185,8.63875927 C35.5141831,8.77373988 35.5951745,9.08869464 35.6806654,9.3361591 C35.7661563,9.58362356 35.8786443,9.97056799 35.928139,10.1910363 C35.9776338,10.416004 36.1081199,10.8704387 36.2206079,11.2033909 C36.3330959,11.5363431 36.4365849,11.8737946 36.445584,11.954783 C36.454583,12.031272 36.5445734,12.3777223 36.6390634,12.7196731 C36.9765275,13.8850058 37.1430097,14.7353836 37.2330002,15.7477382 C37.2509982,15.9592079 37.3139915,16.3641497 37.3679858,16.647609 C37.4849733,17.2415237 37.4714748,17.8084423 37.3229906,18.7173117 C37.2779954,19.000771 37.2150021,19.4867012 37.1880049,19.7971566 C37.1610078,20.1076121 37.1070136,20.4540623 37.0665179,20.5710455 C37.0305217,20.6880287 36.9540298,20.9894854 36.8955361,21.2459486 C36.5625715,22.663245 36.3195974,23.3291494 35.8561467,24.1165363 C35.7166615,24.3505027 35.5636778,24.6294626 35.5186826,24.7374471 C35.4736874,24.8409322 35.3477008,25.0254057 35.2397123,25.1423889 C35.1317238,25.2593721 35.0012377,25.4438456 34.9472434,25.5608288 C34.8932491,25.6733127 34.7582635,25.8667849 34.650275,25.9927668 C34.5422865,26.1232481 34.443297,26.2762261 34.4252989,26.3347177 C34.4118004,26.3977087 34.2768147,26.541688 34.1193315,26.6676699 C33.804365,26.9151343 33.6468818,27.0861098 33.4354043,27.4235613 C33.3454139,27.57204 33.2329258,27.6800245 33.1114388,27.7385161 C33.0079498,27.788009 32.7199804,28.0219754 32.4680072,28.2604411 C32.216034,28.4989069 31.9235652,28.741872 31.8155767,28.7958642 C31.7120877,28.8543558 31.5951001,28.9533416 31.5546044,29.0253313 C31.5141087,29.0928216 31.3701241,29.2188035 31.2306389,29.3087905 C31.0911537,29.3987776 30.9651672,29.5022628 30.9516686,29.5382576 C30.93817,29.5742524 30.8211825,29.6597401 30.6951959,29.7362292 C30.5647098,29.8082188 30.3082371,30.001691 30.1237567,30.1681671 C29.9392763,30.3346432 29.6873031,30.5191167 29.5613165,30.5821077 C29.4398295,30.6450986 29.1743577,30.8565683 28.9718793,31.0545398 C28.58942,31.4279862 28.3599444,31.5539681 28.1484669,31.4999758 C27.8919942,31.4279862 27.8424995,30.9915489 28.0044822,30.204162 C28.0584765,29.9566975 28.0989722,29.7002343 28.0989722,29.6372434 C28.0989722,29.5787518 28.1394679,29.4122757 28.1889626,29.2682964 C28.2384573,29.124317 28.278953,28.9173468 28.278953,28.8093623 C28.278953,28.6473855 28.2654544,28.6158901 28.1889626,28.6158901 C28.0044822,28.6158901 27.8649971,28.7283739 27.6940153,29.0163326 C27.5995253,29.1828086 27.4780382,29.3537841 27.424044,29.403277 C27.3700497,29.4527699 27.2755598,29.5877505 27.2215655,29.7002343 C27.1630718,29.8127182 27.001089,30.0511839 26.8616038,30.2266587 C26.5646354,30.5956057 26.3936536,30.6855928 25.9616996,30.6855928 C25.6017379,30.6855928 25.4667523,30.7350857 25.2417762,30.955554 C25.1427867,31.0500405 24.9313093,31.2075178 24.773826,31.311003 C24.6163428,31.4144881 24.4183638,31.5764649 24.3328729,31.6754506 C24.2293839,31.7969332 24.1393935,31.8554248 24.0629017,31.8554248 C23.9999084,31.8554248 23.8739218,31.9229151 23.7704328,32.0084028 C23.6534452,32.111888 23.504961,32.1838776 23.3609764,32.2153731 C23.2304902,32.2423692 23.0865056,32.3053602 23.0370108,32.3503537 C22.8840271,32.494333 22.7040463,32.494333 22.4520731,32.3503537 Z M23.9909093,21.7678736 C24.1573916,21.5834001 24.350871,21.1334647 24.3823677,20.8545048 C24.4183638,20.5125539 24.4138643,19.6396793 24.3733686,19.5316948 C24.3553705,19.4822019 24.1753897,19.293229 23.9684117,19.1042562 C23.5589553,18.7263104 23.5274586,18.7173117 23.1135027,18.8342949 C22.8030357,18.924282 22.7760386,18.9422794 22.6320539,19.203242 C22.4970683,19.4462071 22.4295755,19.7341657 22.425076,20.1301088 C22.4205764,20.3685746 22.443074,20.4585617 22.6275544,20.8365074 C22.7400424,21.0704738 22.8705286,21.2999408 22.9110242,21.3359356 C22.9560195,21.3764298 23.1225017,21.4709163 23.279985,21.5474053 C23.4374682,21.6238943 23.6219486,21.7273794 23.6849419,21.7768723 C23.8379256,21.8893562 23.8784213,21.8893562 23.9909093,21.7678736 Z" id="Shape"></path>
                <polygon id="Path" points="45.7370952 26.3212196 45.7370952 20.3370791 49.2917169 20.3370791 52.8463387 20.3370791 52.8373396 21.2279512 52.8238411 22.1143238 50.2726125 22.1278219 47.7168845 22.1368206 47.7168845 27.2210904 47.7168845 32.3053602 46.7269899 32.3053602 45.7370952 32.3053602"></polygon>
                <polygon id="Path" points="53.971219 31.3155023 53.971219 30.3256445 54.9161184 30.3256445 55.8610179 30.3256445 55.8610179 31.3155023 55.8610179 32.3053602 54.9161184 32.3053602 53.971219 32.3053602"></polygon>
                <path d="M14.1954517,30.865567 C14.1594555,30.8385708 14.0199704,30.7890779 13.8849848,30.7485838 C13.732001,30.7035902 13.5925159,30.6226019 13.5025255,30.5281154 C13.4260336,30.4471271 13.2640508,30.3301439 13.1380642,30.2671529 C13.0165772,30.204162 12.8725925,30.1096755 12.8230978,30.0556833 C12.7781025,30.001691 12.5171303,29.8262162 12.247159,29.6642395 C11.9816873,29.5022628 11.608227,29.2457996 11.4192471,29.0928216 C11.2347668,28.9443429 11.0142902,28.7778668 10.9377984,28.7283739 C10.856807,28.678881 10.6093333,28.4719107 10.3888568,28.2694398 C10.1683803,28.0669689 9.82641665,27.7700116 9.62843772,27.6035355 C9.43045878,27.4415587 9.11999182,27.140102 8.93551145,26.9376311 C8.75103108,26.7351602 8.54405311,26.5461873 8.47656029,26.5146918 C8.40906748,26.4876957 8.31907705,26.4112067 8.27858136,26.3482158 C8.23808567,26.2852248 8.13459668,26.1952377 8.0536053,26.1457448 C7.96361488,26.0917526 7.84212781,25.9522726 7.7566369,25.803794 C7.68014504,25.6688133 7.52716132,25.4843398 7.41917282,25.3943528 C7.30218526,25.2998663 7.2031958,25.1693851 7.17169915,25.0703993 C7.13570298,24.9669141 6.9917183,24.7824406 6.77124177,24.5664717 C6.58226188,24.3819982 6.40228103,24.1840266 6.37078438,24.125535 C6.33928773,24.0715427 6.17730497,23.9230641 6.00632316,23.7970822 C5.83084184,23.6711003 5.69135668,23.5496177 5.69135668,23.5271209 C5.69135668,23.5001248 5.60136626,23.387641 5.48887823,23.2706578 C5.30889738,23.0726862 5.07492228,22.6722437 4.9939309,22.4157806 C4.98043234,22.3617883 4.89944095,22.231307 4.82294909,22.1233226 C4.74195771,22.0198374 4.65196729,21.8758581 4.62047064,21.8083678 C4.59347351,21.7408775 4.48098548,21.569902 4.3774965,21.4349214 C4.11652427,21.0974699 4.03553289,20.9804867 3.82405539,20.6250377 C3.72506593,20.463061 3.59457981,20.2740882 3.53608604,20.2110972 C3.47759226,20.1481062 3.36960375,19.9681321 3.30211093,19.8151541 C3.2301186,19.6576767 3.14912721,19.5181967 3.12213009,19.5001993 C3.09513296,19.4867012 3.03213966,19.3787167 2.97814541,19.2617335 C2.92865068,19.1492497 2.74866983,18.8387943 2.57768802,18.5778318 C2.41120574,18.3168693 2.27172058,18.0694048 2.27172058,18.03341 C2.27172058,17.9974151 2.20872729,17.8444371 2.13223543,17.7004578 C1.75877517,16.9850605 1.52929959,16.5036297 1.41231204,16.1841756 C1.2548288,15.7612363 1.16483837,15.5767628 1.04785082,15.4462815 C0.989357048,15.3832906 0.908365666,15.1493242 0.827374285,14.7938752 C0.696888171,14.2089593 0.57990062,13.8940045 0.413418336,13.6600381 C0.359424082,13.5835491 0.309929349,13.4485685 0.309929349,13.3630807 C0.296430786,13.124615 0.260434616,12.9041467 0.201940841,12.755668 C0.170444193,12.6836783 0.129948502,12.3777223 0.111950417,12.0807649 C0.0939523325,11.7838076 0.0534566419,11.4418567 0.0264595148,11.3203741 C-0.00953665465,11.1583974 -0.00953665465,11.0504129 0.030959036,10.9154323 C0.0579561631,10.8119471 0.0894528113,10.3215176 0.0939523325,9.78609448 C0.107450896,8.98970886 0.125448981,8.79623665 0.19744132,8.57126896 C0.336926476,8.1483297 0.485410675,7.07298415 0.4269169,6.88401129 C0.323427913,6.52406299 0.395420252,6.30809401 0.678890086,6.15511598 C0.890367582,6.04713149 1.01185465,5.8311625 1.01185465,5.58369805 C1.01185465,5.43971872 1.07484795,5.37222842 1.22783167,5.3452323 C1.30882305,5.33623359 1.35831778,5.26874328 1.43480964,5.07527107 C1.54729767,4.80530984 1.97925171,4.18439902 2.05574357,4.18439902 C2.08274069,4.18439902 2.18622968,4.11690871 2.28971867,4.03592034 C2.55519042,3.81545201 3.2526162,3.39701211 3.45959418,3.3295218 C3.55858364,3.29802632 3.78805922,3.2710302 3.97703911,3.2710302 C4.38199602,3.2710302 4.66096633,3.37001598 4.79595197,3.55898884 C4.8454467,3.6309785 4.91743904,3.6894701 4.94893569,3.6894701 C5.03442659,3.6894701 5.38988876,4.19339773 5.55637105,4.54884668 C5.74985046,4.96728658 5.87583705,5.48921162 5.92083226,6.05163084 C6.01082269,7.23946024 6.01982173,7.59040983 5.96132795,7.88736718 C5.89833466,8.24281613 5.87133753,8.57576831 5.85333944,9.44864295 C5.83984088,10.0110622 5.82634232,10.1370441 5.73185237,10.3710105 C5.64186195,10.5959782 5.60586578,10.6409717 5.51587536,10.6409717 C5.41688589,10.6409717 5.39438828,10.6094762 5.32239594,10.3260169 C5.23690504,9.97956669 5.21890696,9.48463778 5.28639978,9.18768043 C5.31789642,9.05269981 5.31789642,8.93571662 5.28190025,8.80523536 C5.25490313,8.70175022 5.23690504,8.45428576 5.24140456,8.25631419 C5.25940265,7.68489626 5.25940265,7.61740596 5.20090887,6.88401129 C5.13791558,6.02463472 5.09292036,5.76817155 4.95343521,5.4712142 C4.89494143,5.3452323 4.83194814,5.16075879 4.81395005,5.06177301 C4.76895484,4.79631113 4.6339692,4.51285185 4.52148117,4.45436025 C4.47198644,4.42736412 4.21101421,4.400368 3.94104294,4.39586865 C3.48209178,4.38686994 3.45059513,4.39136929 3.27061429,4.50835249 C3.00064302,4.68832664 2.21322681,5.45771614 1.88926128,5.85815863 C1.64628714,6.15511598 1.59679241,6.25410176 1.52929959,6.53306169 C1.48430438,6.71303585 1.42131108,6.90650806 1.38531491,6.96499966 C1.35381826,7.0189919 1.33132066,7.08198286 1.34481922,7.09998027 C1.35381826,7.11797769 1.33582018,7.27545507 1.29982401,7.44643051 C1.26832736,7.62190531 1.24133023,7.97285491 1.23683071,8.23381742 C1.23683071,8.4992793 1.20533406,8.81423406 1.16933789,8.95371403 C1.13334173,9.08869464 1.10184508,9.25967009 1.10184508,9.32716039 C1.10184508,9.3946507 1.06584891,9.53863002 1.0208537,9.64211516 C0.953360878,9.79059383 0.939862315,9.91657574 0.953360878,10.2135331 C0.96235992,10.4250027 0.975858484,10.8074478 0.980358005,11.0684103 C0.99835609,11.7028192 0.99835609,11.6983198 1.10184508,11.6983198 C1.17833694,11.6983198 1.1918355,11.7298153 1.1918355,11.8827933 C1.1918355,11.9817791 1.16933789,12.1032617 1.14234077,12.1527546 C1.1063446,12.2247442 1.11084412,12.2562397 1.16033885,12.2967339 C1.20983359,12.3372281 1.23233119,12.5307003 1.2548288,13.1471118 C1.27282688,13.5880484 1.31332257,14.0559812 1.34931874,14.1864625 C1.47980486,14.6858908 2.09173974,16.1661781 2.34821244,16.5936168 C2.41570526,16.7106 2.50569569,16.9040722 2.5506909,17.0300541 C2.6361818,17.2685198 3.16262578,18.2088848 3.45059513,18.6408227 C3.5495846,18.784802 3.64857407,18.9647762 3.67557119,19.0367659 C3.72506593,19.1762458 4.40899315,20.1211101 4.47648596,20.1481062 C4.55297782,20.1751024 4.59797303,19.9906289 4.62946968,19.5631903 C4.64296825,19.3202251 4.67446489,19.07726 4.6969625,19.0232678 C4.72845915,18.9332807 4.72845915,16.6161135 4.6969625,16.2201704 C4.69246298,16.1481807 4.71046106,15.9052156 4.74195771,15.6802479 C4.81844957,15.1133294 4.95343521,14.9918468 5.23690504,15.2348119 C5.40788685,15.3787912 5.48437871,15.3337977 5.547372,15.0593371 C5.65986003,14.5779063 5.80384471,14.1639657 6.04681886,13.6195439 C6.19080353,13.2910911 6.39778151,12.8141596 6.50127049,12.5531971 C6.60475948,12.2922345 6.7352456,12.0087752 6.78923985,11.9232875 C6.84773363,11.8333005 6.91072692,11.6983198 6.92872501,11.6173315 C6.94672309,11.5363431 7.02771447,11.3833651 7.10870585,11.2708812 C7.30668479,11.0144181 7.40117473,10.8299446 7.40117473,10.6949639 C7.40117473,10.6364723 7.46416803,10.5194891 7.53616037,10.4340014 C7.61265223,10.3530131 7.86912493,9.89857832 8.10310003,9.42614618 C8.33707514,8.95821338 8.57554976,8.50827801 8.63404353,8.42728964 C8.69253731,8.34630127 8.82752294,8.07634004 8.93551145,7.82437623 C9.07049709,7.4959234 9.1784856,7.3114499 9.30447219,7.18996735 C9.40346166,7.09548092 9.47095447,7.0189919 9.45295639,7.0189919 C9.43945783,7.0189919 9.50245112,6.86151452 9.59694107,6.67254166 C9.69143101,6.47906945 9.82191713,6.20010951 9.8804109,6.05163084 C9.93890468,5.90315216 10.0423937,5.70967995 10.1098865,5.61969288 C10.321364,5.3452323 10.54634,4.81430855 10.64083,4.36437317 C10.6948242,4.13040677 10.753318,3.91893715 10.7713161,3.89194102 C10.7938137,3.86944425 10.8793046,3.68497075 10.960296,3.48699918 C11.1537754,3.01006768 11.3292567,2.83459288 11.599228,2.83459288 C11.8961964,2.83459288 11.9456911,2.92457996 11.9456911,3.45550371 C11.9456911,3.77045847 11.918694,3.97742875 11.8287036,4.28788416 C11.7162155,4.67932794 11.6397237,4.86380144 11.2572644,5.60619481 C11.0457869,6.02013536 10.8838041,6.59155329 10.7713161,7.3114499 C10.7218214,7.63540337 10.6453295,8.10783552 10.5958348,8.36879804 C10.4833467,8.99870757 10.4698482,9.093194 10.4158539,9.85358479 C10.3888568,10.2135331 10.3393621,10.7174607 10.3033659,10.9784232 C10.1908779,11.8288011 10.1368836,12.9491402 10.1908779,13.2910911 C10.217875,13.4620665 10.2538712,13.6240433 10.2718692,13.6510394 C10.2898673,13.6780355 10.3168645,14.1864625 10.330363,14.7803772 C10.3438616,15.4462815 10.3843573,16.0311975 10.4293525,16.3101575 C10.4698482,16.5576219 10.54634,17.1155418 10.5958348,17.5474798 C10.7578175,18.9422794 10.9827936,19.864647 11.4822404,21.1919563 C11.5812299,21.4529188 11.7162155,21.8218659 11.7837084,22.0108387 C11.8557007,22.2043109 11.9861868,22.4787715 12.0806768,22.6182515 C12.1706672,22.7622308 12.4361389,23.2031675 12.6656145,23.5991106 C13.0885695,24.3280059 13.3495417,24.7149503 13.4980259,24.8364329 C13.5430211,24.8724277 13.6870058,25.0524019 13.8219915,25.2368754 C14.1594555,25.6913101 14.7713904,26.3212196 14.8793789,26.3212196 C14.9243741,26.3212196 15.0458612,26.2807255 15.1448507,26.2267332 C15.311333,26.1457448 15.3383301,26.1412455 15.43282,26.2042364 C15.5633062,26.2897242 15.6083014,26.4876957 15.5453081,26.7171628 C15.4643167,27.0231188 15.3743263,27.0996078 15.0593598,27.1221046 C14.8208852,27.140102 14.7443933,27.1221046 14.5329158,27.0186195 C14.2899417,26.8926376 13.9164814,26.541688 13.7050039,26.2312326 C13.6465101,26.1457448 13.5205235,25.9882675 13.4260336,25.8847823 C13.3270441,25.7767978 13.2505523,25.6733127 13.2505523,25.6463166 C13.2505523,25.6193204 13.1830594,25.5293334 13.1020681,25.4438456 C13.0165772,25.3583579 12.8995896,25.1918818 12.8320968,25.0703993 C12.7691035,24.9489167 12.6431169,24.7734419 12.5531265,24.6834549 C12.4631361,24.5889684 12.3326499,24.3954962 12.2606576,24.2560163 C12.1886653,24.1120369 12.0626787,23.9050667 11.9771878,23.7925828 C11.7747093,23.5271209 11.2707629,22.5012683 11.2707629,22.3527896 C11.2707629,22.294298 11.1897716,22.0918271 11.0952816,21.9073536 C11.0007917,21.7228801 10.865806,21.4124247 10.7938137,21.2144531 C10.7263209,21.0164815 10.6453295,20.8140106 10.6138329,20.7645177 C10.5823362,20.7150248 10.5193429,20.4810584 10.4788472,20.247092 C10.4383515,20.0131256 10.3753582,19.7476638 10.3348625,19.662176 C10.2943668,19.5766883 10.2583707,19.4147116 10.2538712,19.3022277 C10.2493716,19.1897439 10.1908779,18.9377801 10.123385,18.7443079 C10.0603917,18.5463363 10.0153965,18.3528641 10.0243956,18.3078705 C10.0378941,18.262877 10.0198961,18.1009003 9.98839941,17.9434229 C9.92090659,17.6149701 9.78592096,16.1976736 9.78592096,15.8062298 C9.78592096,15.6397538 9.74542527,15.4192854 9.67793245,15.2258132 C9.57894298,14.9468533 9.56994394,14.8613655 9.58794202,14.3754353 C9.61943867,13.6015465 9.60144059,13.1606098 9.52044921,12.5756938 C9.48445304,12.3192307 9.49345208,12.1662526 9.58794202,11.6128321 C9.6464358,11.2483845 9.69593053,10.8029484 9.69143101,10.6139756 C9.68693149,10.4250027 9.70043005,10.2450286 9.71842814,10.2180324 C9.73642622,10.186537 9.76792287,9.89857832 9.79042048,9.5701255 C9.83541569,8.91321985 9.85341377,8.74674376 9.89840899,8.48128188 C9.92090659,8.34180192 9.91190755,8.28331032 9.86241282,8.24281613 C9.80391904,8.19332324 9.76792287,8.22031936 9.62393819,8.39579416 C9.52494873,8.50827801 9.31347123,8.75124311 9.15148847,8.93121726 C8.9040148,9.20117849 8.74653156,9.46664036 8.22458711,10.4474995 C7.87362445,11.0954064 7.50466372,11.801805 7.40117473,12.0132746 C7.29318622,12.2247442 7.17169915,12.4407132 7.13120346,12.4947055 C6.94672309,12.7286719 6.19530305,14.6858908 6.1413088,15.0728352 C6.11881119,15.2348119 6.01532221,15.5677641 5.91633274,15.8152286 C5.47537967,16.8995728 5.3763902,17.5114849 5.4618811,18.708313 C5.48887823,19.1222536 5.52037488,19.5901864 5.5248744,19.7521631 C5.54287248,20.1481062 5.66885908,20.755519 5.85333944,21.3269369 C5.93883035,21.5878995 6.01982173,21.8893562 6.03332029,22.00184 C6.05131838,22.1143238 6.15030784,22.357289 6.25829635,22.5417625 C6.36178534,22.726236 6.49677097,23.0096953 6.55076523,23.171672 C6.66325326,23.4956255 6.64075565,23.46413 7.87812398,24.8184355 C8.6475421,25.6553153 9.71842814,26.7216621 9.83991521,26.7666557 C9.86241282,26.771155 10.0468932,26.9466298 10.2493716,27.1491007 C10.4518501,27.3515717 10.9018022,27.725018 11.2482653,27.9724825 C11.5947285,28.2199469 11.918694,28.4674114 11.9636892,28.5214036 C12.0131839,28.5708965 12.0896758,28.6158901 12.134671,28.6158901 C12.1841657,28.6158901 12.3371495,28.7238746 12.4766346,28.8543558 C12.7016107,29.0658254 13.5385216,29.5922498 14.0874632,29.8667104 C14.258445,29.9521981 14.2809426,29.988193 14.4024297,30.3436419 C14.5014192,30.6450986 14.5194172,30.7485838 14.4834211,30.8115747 C14.4249273,30.9015618 14.2899417,30.9285579 14.1954517,30.865567 Z" id="Path"></path>
                <path d="M68.9996197,28.9083481 C67.3887911,28.6473855 66.2234151,27.5225471 65.7914611,25.8262907 C65.7059702,25.4978379 65.6924716,25.3223631 65.6969712,24.6114652 C65.7014707,23.7025957 65.7419664,23.4506319 66.0254362,22.7442334 C66.2954075,22.078329 66.8218514,21.403426 67.4112887,20.984986 C68.7206494,20.0446211 70.8174263,19.9096405 72.6757285,20.6430352 L73.094184,20.8050119 L73.094184,21.6283936 L73.094184,22.4517754 L72.8827065,22.3437909 C72.6037362,22.2043109 71.9558051,21.9883419 71.496854,21.8848568 C70.9929076,21.772373 69.9895144,21.7678736 69.5845575,21.8803575 C68.8826321,22.078329 68.2886954,22.5192657 68.000726,23.0591881 C67.8702399,23.3066526 67.6497633,24.0130511 67.6497633,24.1885259 L67.6497633,24.2965104 L70.5024598,24.2965104 L73.3596557,24.2965104 L73.3956519,24.5124794 C73.4631447,24.9219206 73.4361476,26.0467591 73.3461572,26.3887099 C73.1616768,27.0951085 72.7297228,27.801507 72.248274,28.1884515 C71.9108099,28.4584127 71.3573688,28.7283739 70.9119162,28.8408578 C70.434967,28.9623403 69.5215642,28.9983351 68.9996197,28.9083481 Z M70.5834512,27.2120917 C70.8714205,27.0771111 71.1593899,26.8116492 71.2943755,26.5506867 C71.402364,26.3392171 71.5193516,25.9072791 71.5193516,25.7273049 L71.5193516,25.601323 L69.6250531,25.601323 L67.7307547,25.601323 L67.7622514,25.7498017 C67.8162456,26.0107642 68.0907164,26.5281899 68.2976944,26.7531576 C68.6846532,27.1850956 69.1616025,27.3605704 69.8770263,27.3425729 C70.2504866,27.3290749 70.3764732,27.3065781 70.5834512,27.2120917 Z" id="Shape"></path>
                <path d="M78.5386046,28.9443429 C78.1516458,28.8723532 77.5397109,28.5034062 77.0672612,28.0624696 L76.7837913,27.7970077 L76.7837913,28.3189327 L76.7837913,28.8408578 L75.8748881,28.831859 L74.9614853,28.818361 L74.9479867,24.5799697 L74.9389877,20.3370791 L75.9288823,20.3370791 L76.918777,20.3370791 L76.918777,23.3021532 L76.918777,26.262728 L77.1572516,26.4921951 C77.6162028,26.924133 78.1786429,27.1131059 78.8805682,27.0681124 C79.1055443,27.0546143 79.3215213,27.0321175 79.362017,27.0141201 C79.4340093,26.987124 79.4385088,27.0681124 79.4385088,27.9814812 L79.4385088,28.9758384 L79.0470505,28.971339 C78.826574,28.9668397 78.6015979,28.9533416 78.5386046,28.9443429 Z" id="Path"></path>
                <path d="M84.2304989,28.9308448 C83.5690693,28.8228603 82.9211382,28.5304023 82.4936837,28.1344592 L82.3766962,28.0264747 L82.349699,28.1974502 C82.331701,28.2919366 82.3182024,28.4764101 82.3182024,28.6068914 L82.3182024,28.8408578 L81.4182982,28.8408578 L80.5183939,28.8408578 L80.5183939,22.5192657 L80.5183939,16.1976736 L81.4632934,16.1976736 L82.4081928,16.1976736 L82.4081928,18.6048279 L82.4081928,21.0119822 L82.6421679,20.832008 C83.1461143,20.4540623 83.6365621,20.2785875 84.4239783,20.1975991 C84.9954175,20.1391075 85.6208509,20.1975991 86.1292968,20.3550765 C87.3846632,20.755519 88.289067,21.925351 88.5770364,23.5316203 C88.6580277,23.9680576 88.6580277,25.1648857 88.5770364,25.601323 C88.2710689,27.2885807 87.2631762,28.5034062 85.8728241,28.8588552 C85.5218615,28.9488422 84.6039592,28.9893364 84.2304989,28.9308448 Z M85.3463801,27.2210904 C85.7468375,27.0726117 86.1472949,26.6721692 86.3677715,26.2132351 C86.6197446,25.6868108 86.700736,25.2548728 86.6962365,24.5214781 C86.6872375,23.5721145 86.4712604,22.8972114 86.0078098,22.3932838 C85.2563897,21.569902 83.8165429,21.569902 83.0291267,22.3977831 C82.7366579,22.7037392 82.5836741,22.9826991 82.444189,23.4731287 C82.3541986,23.7745854 82.3407,23.9275634 82.3407,24.5664717 C82.3451995,25.1423889 82.3631976,25.3763553 82.4261909,25.601323 C82.669165,26.4921951 83.2001085,27.0816104 83.9425295,27.2885807 C84.2934922,27.3875665 85.0044165,27.3515717 85.3463801,27.2210904 Z" id="Shape"></path>
                <path d="M93.2070437,28.9488422 C91.9606763,28.7238746 91.0562725,28.156956 90.4263396,27.203093 C89.8593999,26.3392171 89.6209253,25.3268625 89.7019167,24.1300343 C89.8728985,21.5923988 91.9201806,19.9141398 94.4894072,20.1975991 C95.0968425,20.2650894 95.4523047,20.3595759 95.8977573,20.5665461 C97.2611122,21.1964557 98.0800251,22.4157806 98.2555064,24.0805415 C98.4669839,26.0377603 97.4995869,27.8869948 95.8842588,28.6203894 C95.3218186,28.8768526 94.9663564,28.9398435 94.1069479,28.957841 C93.6749939,28.9623403 93.2700369,28.957841 93.2070437,28.9488422 Z M94.4219144,27.356071 C95.2813229,27.2210904 95.9427525,26.5731834 96.2082243,25.5968237 C96.2712176,25.3763553 96.2892157,25.1378896 96.2892157,24.5664717 C96.2892157,23.7430899 96.2217228,23.4191364 95.9427525,22.8882127 C95.7492731,22.5282644 95.2678244,22.0828284 94.9348598,21.9568465 C93.4770149,21.4124247 92.1451567,22.0873277 91.7357002,23.5811132 C91.6322112,23.9455608 91.6232122,25.1333902 91.7177021,25.511336 C91.803193,25.8712843 92.0911624,26.4472015 92.3026399,26.6856673 C92.7885882,27.2435872 93.5715049,27.4865523 94.4219144,27.356071 Z" id="Shape"></path>
                <path d="M102.521052,28.8903506 C101.868622,28.741872 101.405171,28.5304023 100.905724,28.1434579 C98.9034375,26.6046789 98.7234566,23.1401765 100.545763,21.3314363 C101.432168,20.4540623 102.660538,20.0581192 104.077887,20.1975991 C105.153272,20.3055836 105.958687,20.6655319 106.642614,21.3449344 C107.461527,22.1683161 107.875483,23.2526604 107.875483,24.5979671 C107.875483,26.6676699 106.750602,28.2739392 104.919297,28.8228603 C104.568335,28.9308448 104.428849,28.9443429 103.713426,28.957841 C103.038497,28.971339 102.840519,28.9623403 102.521052,28.8903506 Z M104.370356,27.2705833 C105.08128,27.0456156 105.598725,26.4337035 105.8327,25.5338327 C105.954187,25.0658999 105.945188,24.0400473 105.814702,23.5631158 C105.481737,22.3437909 104.590832,21.6958839 103.375962,21.7903704 C102.327573,21.8758581 101.648145,22.4832709 101.342178,23.6126087 C101.211692,24.1075376 101.211692,25.0748986 101.342178,25.5698276 C101.60315,26.5326893 102.26458,27.203093 103.10599,27.3515717 C103.447954,27.4145626 104.032892,27.3740684 104.370356,27.2705833 Z" id="Shape"></path>
                <path d="M120.879099,28.8543558 C118.863313,28.5888939 117.495459,27.0006221 117.382971,24.8139361 C117.270483,22.5732579 118.42686,20.8140106 120.339156,20.310083 C121.221063,20.0806159 122.408936,20.1481062 123.209851,20.4810584 C124.460718,20.9984841 125.302128,22.0918271 125.581099,23.5496177 C125.653091,23.9320628 125.680088,24.8814264 125.626094,25.2683709 C125.513606,26.0557578 125.131146,26.9646272 124.667696,27.5180477 C124.172748,28.1074631 123.434827,28.5663972 122.678907,28.7508707 C122.300948,28.8453571 121.24806,28.9038487 120.879099,28.8543558 Z M122.291949,27.419062 C123.092863,27.2210904 123.727296,26.555186 123.961271,25.664314 C124.136752,25.002909 124.136752,24.0715427 123.961271,23.401139 C123.718297,22.4652734 123.092863,21.8263652 122.219956,21.6193949 C121.846496,21.5339072 121.14907,21.5339072 120.811606,21.6193949 C119.898203,21.8578607 119.281769,22.523765 119.047794,23.5181222 C118.921807,24.0535453 118.935306,25.1423889 119.074791,25.6238198 C119.331264,26.5326893 119.799214,27.0816104 120.541635,27.3515717 C121.05458,27.5360452 121.707011,27.5630413 122.291949,27.419062 Z" id="Shape"></path>
                <path d="M139.898575,28.8138616 C139.219147,28.6923791 138.706202,28.4809095 138.25175,28.1344592 C138.143762,28.0534708 138.035773,27.9859805 138.017775,27.9859805 C137.995277,27.9859805 137.977279,28.1479573 137.977279,28.3459288 L137.977279,28.7058771 L137.257356,28.7058771 L136.537433,28.7058771 L136.537433,24.5214781 L136.537433,20.3370791 L137.302351,20.3370791 L138.06727,20.3370791 L138.06727,23.4146371 L138.06727,26.4921951 L138.292246,26.7396595 C138.733199,27.2210904 139.47562,27.495551 140.339528,27.5000503 C141.5409,27.5045497 142.116839,27.1086065 142.418307,26.0737552 C142.4858,25.8352894 142.499298,25.5068366 142.512797,23.0726862 L142.526295,20.3370791 L143.291214,20.3370791 L144.051633,20.3370791 L144.051633,22.9871985 C144.051633,25.1513877 144.038134,25.7093075 143.98414,26.033261 C143.777162,27.2435872 143.264217,28.0894657 142.490299,28.4899082 C141.801872,28.8498565 140.78948,28.9758384 139.898575,28.8138616 Z" id="Path"></path>
                <polygon id="Path" points="53.971219 24.5889684 53.971219 20.3370791 54.9161184 20.3370791 55.8610179 20.3370791 55.8610179 24.5889684 55.8610179 28.8408578 54.9161184 28.8408578 53.971219 28.8408578"></polygon>
                <path d="M56.9948972,28.7598694 C57.0038962,28.7103765 57.7283191,26.7981511 58.6057258,24.5079801 L60.2030558,20.3370791 L61.10296,20.3505772 L61.9983647,20.3595759 L63.6091933,24.5664717 C64.495599,26.8791395 65.2200219,28.7868655 65.2200219,28.8093623 C65.2200219,28.8273597 64.7835684,28.8363584 64.2436258,28.831859 L63.2717292,28.818361 L62.1918442,25.7453024 C61.5799093,24.0040524 61.093961,22.6947405 61.0759629,22.7307353 C61.0624643,22.7622308 60.5630175,24.1525311 59.9735802,25.817292 L58.9026942,28.8408578 L57.9397966,28.8408578 C57.0308934,28.8408578 56.9813986,28.8363584 56.9948972,28.7598694 Z" id="Path"></path>
                <path d="M17.1426381,24.4044949 C17.1066419,24.3640007 17.0751453,24.3100085 17.0751453,24.278513 C17.0751453,24.2425182 17.1876333,23.9815557 17.3226189,23.693597 C17.556594,23.1896694 17.5655931,23.1536746 17.6195873,22.6002541 C17.6690821,22.0153381 17.651084,21.4529188 17.5655931,21.124466 C17.5070993,20.9129964 17.3991108,20.7825151 17.133639,20.616039 C17.0301501,20.5530481 16.9221615,20.4540623 16.8906649,20.4045694 C16.8276716,20.2920856 16.3912181,19.941136 16.2472334,19.8871437 C16.1887396,19.864647 15.8962707,19.8421502 15.5993023,19.8331515 L15.0548603,19.8196534 L14.9153751,19.954634 C14.6004086,20.2515914 14.5014192,20.6745306 14.6184067,21.2369499 C14.7578919,21.9028542 15.104355,22.4157806 15.7207894,22.8567172 C16.2877291,23.2616591 16.382219,23.311152 16.598196,23.32465 C16.805174,23.3381481 16.9851548,23.4461326 16.9851548,23.5541171 C16.9851548,23.5811132 16.917662,23.6666009 16.8411702,23.7430899 L16.692686,23.8825699 L16.2607319,23.8510744 L15.8287779,23.8150796 L15.3788258,23.477628 C14.8523818,23.0771856 14.4204278,22.6362489 14.3484354,22.4382773 C14.3214383,22.357289 14.2044508,22.1188232 14.0874632,21.9028542 C13.8984833,21.5519046 13.8714862,21.4709163 13.8489886,21.1379641 C13.7634977,19.9906289 13.8174919,19.7566625 14.258445,19.4012135 C14.7488928,19.000771 15.1223531,18.8972859 15.7387875,18.9827736 C16.2112372,19.0502639 16.5666994,19.1807452 16.7601788,19.3652187 C16.8456697,19.4507064 17.0526477,19.585687 17.2191299,19.662176 C17.5655931,19.8286521 17.6330859,19.8916431 17.9120562,20.2920856 C18.0200447,20.4540623 18.1730284,20.6745306 18.2495203,20.7870145 L18.3890055,20.9894854 L18.3620083,21.7903704 C18.3350112,22.6407482 18.3440102,22.5957547 18.0110457,23.4911261 C17.858062,23.9050667 17.5070993,24.3685001 17.2911223,24.4449891 C17.2461271,24.4584872 17.1831338,24.4404898 17.1426381,24.4044949 Z" id="Path"></path>
                <polygon id="Path" points="45.7820904 10.1010492 45.7820904 4.13940548 49.3142145 4.13940548 52.8463387 4.13940548 52.8463387 4.85930209 52.8463387 5.57919869 50.1241283 5.57919869 47.401918 5.57919869 47.401918 10.8209459 47.401918 16.062693 46.5920042 16.062693 45.7820904 16.062693"></polygon>
                <path d="M101.769632,10.1145473 L99.650358,4.16190225 L100.617755,4.14840419 C101.153198,4.14390484 101.598651,4.14390484 101.60765,4.15290354 C101.616649,4.16190225 101.814628,4.71532277 102.048603,5.38122713 C102.282578,6.04713149 102.521052,6.70853649 102.570547,6.85251581 L102.665037,7.10897898 L104.878802,7.10897898 L107.088066,7.10897898 L107.605511,5.62419223 L108.122956,4.13940548 L109.108352,4.13940548 L110.089247,4.13940548 L110.06225,4.24289062 C110.048751,4.29688286 109.099352,6.97399837 107.951975,10.1910363 L105.864197,16.0401962 L104.878802,16.0536943 L103.888907,16.062693 L101.769632,10.1145473 Z M105.693215,11.063911 L106.467133,8.86372695 L104.869803,8.86372695 C103.438955,8.86372695 103.276972,8.87272566 103.303969,8.93571662 C103.321967,8.98520951 104.428849,12.1122604 104.829307,13.2505969 C104.856304,13.3225866 104.883301,13.3585814 104.8968,13.3225866 C104.905799,13.2910911 105.26576,12.2742371 105.693215,11.063911 Z" id="Shape"></path>
                <polygon id="Path" points="111.205128 15.0953319 111.205128 14.1279709 112.150028 14.1279709 113.094927 14.1279709 113.094927 15.0953319 113.094927 16.062693 112.150028 16.062693 111.205128 16.062693"></polygon>
                <path d="M146.076418,13.6780355 L146.076418,12.5981906 L145.423987,12.5981906 L144.771556,12.5981906 L144.771556,11.8333005 L144.771556,11.0684103 L145.423987,11.0684103 L146.076418,11.0684103 L146.076418,8.44978641 C146.076418,6.29459594 146.089916,5.77717026 146.14391,5.54320386 C146.328391,4.76931501 146.832337,4.24289062 147.583757,4.04941841 C147.885225,3.97292939 148.083204,3.95943133 148.96511,3.95943133 L150,3.95943133 L149.968503,4.71532277 C149.950505,5.12926331 149.932507,5.4712142 149.928008,5.4712142 C149.928008,5.47571356 149.599543,5.49821032 149.199085,5.52520645 C148.40267,5.57469934 148.240687,5.62419223 148.1237,5.85365927 C147.997713,6.09212502 147.966216,6.68603972 147.966216,8.89972178 L147.966216,11.0684103 L148.978609,11.0684103 L149.991001,11.0684103 L149.991001,11.8333005 L149.991001,12.5981906 L148.978609,12.5981906 L147.966216,12.5981906 L147.966216,13.6780355 L147.966216,14.7578804 L147.021317,14.7578804 L146.076418,14.7578804 L146.076418,13.6780355 Z" id="Path"></path>
                <path d="M4.94443617,14.5734069 C4.87244383,14.4924185 4.85894526,14.4024315 4.85444574,13.8445116 C4.84994622,13.4035749 4.86794431,13.1696085 4.90844,13.0886202 C4.93993664,13.0256292 4.98043234,12.7961622 4.99843042,12.5801932 C5.02092803,12.2922345 5.0569242,12.1482552 5.12441701,12.0447701 C5.34939307,11.7163173 5.60136626,11.9637817 5.60136626,12.5082035 C5.60136626,12.9761363 5.47537967,14.1504677 5.38988876,14.4564237 C5.37189068,14.5284134 5.16041318,14.6678933 5.07042276,14.6678933 C5.04792515,14.6678933 4.9939309,14.6273992 4.94443617,14.5734069 Z" id="Path"></path>
                <path d="M118.665334,12.7061751 C118.210883,12.5981906 117.715936,12.2967339 117.20299,11.8198024 L116.906022,11.5408425 L116.933019,12.0717662 L116.960016,12.5981906 L116.042114,12.5981906 L115.119712,12.5981906 L115.119712,8.36879804 L115.119712,4.13940548 L116.087109,4.13940548 L117.054506,4.13940548 L117.054506,7.06398544 L117.054506,9.99306475 L117.261484,10.2180324 C117.711436,10.6949639 118.170387,10.8569407 119.034295,10.8344439 L119.619233,10.8209459 L119.619233,11.7703095 C119.619233,12.5981906 119.610234,12.7286719 119.547241,12.7511686 C119.425754,12.7961622 118.935306,12.7736654 118.665334,12.7061751 Z" id="Path"></path>
                <path d="M133.378769,12.7286719 C132.739837,12.6341854 132.150399,12.4092177 131.632955,12.0582681 C129.347198,10.5059911 129.221211,6.58255459 131.398979,4.85480273 C132.096405,4.29688286 132.879322,4.01792293 133.882715,3.97292939 C135.259569,3.90993844 136.294458,4.26538739 137.162866,5.10226719 C137.734305,5.65568771 138.166259,6.45657268 138.341741,7.3114499 C138.449729,7.81987688 138.454229,8.79173729 138.359739,9.30016427 C138.008776,11.153898 136.721913,12.4497119 134.9671,12.7106744 C134.503649,12.7826641 133.792725,12.7916628 133.378769,12.7286719 Z M134.805117,11.0909071 C135.574535,10.8884362 136.132476,10.263026 136.388948,9.31366233 C136.496937,8.90872049 136.496937,7.84237365 136.388948,7.40593633 C136.271961,6.94250289 136.069482,6.55555846 135.772514,6.2406037 C135.331561,5.76817155 134.863611,5.57919869 134.130189,5.57919869 C133.428263,5.57919869 132.982811,5.75467349 132.546357,6.19111081 C132.222392,6.51956363 131.997416,6.9515016 131.880428,7.46892728 C131.76794,7.95935684 131.776939,8.8592276 131.898426,9.32716039 C132.1459,10.276524 132.685842,10.8749381 133.491257,11.0909071 C133.806223,11.1763948 134.476652,11.1763948 134.805117,11.0909071 Z" id="Shape"></path>
                <path d="M143.129231,12.7151738 C143.007744,12.6836783 142.791767,12.6071893 142.656781,12.5486977 C142.368812,12.4137171 141.738879,11.9502837 141.536401,11.7208166 L141.396916,11.5588399 L141.396916,12.0807649 L141.396916,12.5981906 L140.474514,12.5981906 L139.552112,12.5981906 L139.552112,8.36879804 L139.552112,4.13940548 L140.519509,4.13940548 L141.486906,4.13940548 L141.486906,7.06398544 L141.486906,9.99306475 L141.698383,10.2180324 C141.837869,10.3710105 142.031348,10.5014917 142.287821,10.631973 C142.652282,10.8119471 142.692778,10.8209459 143.156228,10.8344439 C143.51169,10.847942 143.696171,10.8344439 143.849155,10.784951 L144.051633,10.7129614 L144.051633,11.7208166 C144.051633,12.5936912 144.042634,12.7286719 143.979641,12.7511686 C143.862653,12.7961622 143.372205,12.7736654 143.129231,12.7151738 Z" id="Path"></path>
                <path d="M124.213244,12.6836783 C123.704798,12.5846925 123.200852,12.3507261 122.773397,12.0132746 C122.647411,11.9142888 122.534923,11.8333005 122.521424,11.8333005 C122.507926,11.8333005 122.498927,12.0042759 122.498927,12.2157455 L122.498927,12.5981906 L121.576525,12.5981906 L120.654123,12.5981906 L120.654123,6.2990953 L120.654123,0 L121.62152,0 L122.588917,0 L122.588917,2.38915686 L122.588917,4.77381436 L122.876886,4.56684409 C123.50232,4.12140807 123.997267,3.98642745 125.018658,3.9819281 C125.65759,3.9819281 125.810574,3.99542616 126.112042,4.08541324 C127.664377,4.53084926 128.636273,5.89865281 128.798256,7.85137235 C128.996235,10.2945215 127.812861,12.2652384 125.914063,12.6656809 C125.5676,12.7376706 124.546209,12.7511686 124.213244,12.6836783 Z M125.135646,11.1089045 C125.702586,11.0054194 126.206532,10.6274736 126.494501,10.0920505 C126.764473,9.58362356 126.840964,9.20117849 126.840964,8.36879804 C126.840964,7.50492211 126.800469,7.30245119 126.525998,6.72203455 C126.368515,6.40258043 126.269525,6.25860111 126.058048,6.06062955 C125.707085,5.73667607 125.401118,5.61969288 124.856676,5.5881974 C124.132253,5.55220257 123.59681,5.74117543 123.178354,6.18661145 C122.714904,6.67254166 122.498927,7.36544214 122.498927,8.34630127 C122.498927,9.02120434 122.584417,9.48013842 122.791395,9.9300738 C123.200852,10.8209459 124.141252,11.293378 125.135646,11.1089045 Z" id="Shape"></path>
                <path d="M57.0983862,12.6611815 C55.7215327,12.5441984 54.7271385,11.9907778 54.0387118,10.9559265 C53.2018008,9.69160805 53.0758142,7.78388205 53.7372439,6.37108496 C54.1556993,5.48471226 54.7631347,4.85030338 55.5910466,4.43186348 C56.5989393,3.9234365 58.1782713,3.81095266 59.3796434,4.16190225 C59.7801008,4.27438609 60.4820261,4.52185055 60.5720165,4.58034215 C60.6260108,4.61183763 60.7160012,5.80416638 60.6665065,5.80416638 C60.6530079,5.80416638 60.5270213,5.7636722 60.3875362,5.71417931 C59.7036089,5.48021291 58.331255,5.28224134 57.7508167,5.33173423 C56.2479767,5.46221549 55.3660705,6.15961533 55.0286064,7.48242534 C54.9701127,7.71189239 54.9161184,7.98635297 54.9116189,8.09883681 L54.8936208,8.30130773 L57.917299,8.31480579 L60.9409773,8.3238045 L60.9679744,8.41829093 C61.0309677,8.61176314 60.999471,9.69160805 60.9229792,10.0560557 C60.6485084,11.3653677 59.6946099,12.2967339 58.3492531,12.5711945 C58.0162885,12.6386848 57.381856,12.6836783 57.0983862,12.6611815 Z M58.0612837,11.2258877 C58.5967267,11.0999058 58.9746865,10.8209459 59.195163,10.3845085 C59.3256492,10.1325447 59.4156396,9.79059383 59.4156396,9.55212808 L59.4156396,9.35865587 L57.2333718,9.35865587 C55.4380629,9.35865587 55.051104,9.36765458 55.051104,9.41714747 C55.051104,9.4531423 55.0915997,9.59712162 55.1410945,9.73660159 C55.4110657,10.5239885 55.9510083,11.0504129 56.6619326,11.2213883 C57.0083958,11.3068761 57.7058215,11.3068761 58.0612837,11.2258877 Z" id="Shape"></path>
                <path d="M66.2324142,12.6386848 C65.5394879,12.5666951 64.8465616,12.310232 64.3426153,11.9502837 C64.2211282,11.8602966 64.1041407,11.7883069 64.0861426,11.7883069 C64.063645,11.7883069 64.0501464,11.9502837 64.0501464,12.1482552 L64.0501464,12.5082035 L63.3077254,12.5082035 L62.5653044,12.5082035 L62.5653044,8.3238045 L62.5653044,4.13940548 L63.330223,4.13940548 L64.0951416,4.13940548 L64.0951416,7.16747058 L64.0951416,10.200035 L64.2211282,10.3755098 C64.495599,10.7534555 64.8420621,10.9739239 65.444998,11.1673961 C65.7329673,11.2528838 65.876952,11.2708812 66.412395,11.2708812 C66.947838,11.2708812 67.0873232,11.2573832 67.3347969,11.1673961 C67.9332332,10.9604258 68.2616982,10.5734814 68.4686762,9.82658866 C68.5631661,9.48463778 68.5676657,9.38565199 68.5856638,6.80752228 L68.5991623,4.13940548 L69.3640809,4.13940548 L70.1245,4.13940548 L70.1245,6.62754812 C70.1245,7.99985103 70.1020024,9.29116556 70.0795048,9.51613325 C70.012012,10.110048 69.8770263,10.5914788 69.6520503,11.0459135 C69.3010876,11.7613108 68.9051298,12.1482552 68.2661977,12.4092177 C67.7622514,12.6116887 66.8938438,12.7106744 66.2324142,12.6386848 Z" id="Path"></path>
                <path d="M75.7713991,12.6386848 C75.0559752,12.5621958 74.3585494,12.3012332 73.8591026,11.9277869 L73.6116289,11.7433134 L73.5981303,12.1257584 L73.5846318,12.5082035 L72.8557094,12.4992048 L72.1267869,12.4857068 L72.1132884,8.31480579 L72.1042893,4.13940548 L72.8692079,4.13940548 L73.6341265,4.13940548 L73.6341265,7.17196993 L73.6341265,10.2045344 L73.7826107,10.4025059 C74.4215427,11.2348864 76.072867,11.5633392 77.125755,11.063911 C77.5802066,10.847942 77.8276803,10.5104904 78.0121606,9.86258349 C78.102151,9.52963131 78.1066506,9.41264812 78.1246487,6.83001904 L78.1381472,4.13940548 L78.9030658,4.13940548 L79.6634849,4.13940548 L79.6634849,6.67254166 C79.6634849,9.34965716 79.6409873,9.73660159 79.4565069,10.3935072 C79.1010448,11.6398282 78.3901204,12.3372281 77.238243,12.5711945 C76.8287866,12.6566822 76.1988536,12.6836783 75.7713991,12.6386848 Z" id="Path"></path>
                <path d="M84.8109371,12.6431841 C82.4576876,12.4092177 80.968346,10.4250027 81.1933221,7.82887558 C81.3598044,5.93464764 82.4711861,4.52634991 84.1405085,4.09441194 C84.6084587,3.97292939 85.4993639,3.92793585 86.0123093,3.99992551 C88.185578,4.31488028 89.5894286,6.18661145 89.4589425,8.58926637 C89.3779511,10.1055486 88.7435186,11.2978774 87.6456355,12.0267727 C86.8942154,12.5217016 85.8638251,12.7466693 84.8109371,12.6431841 Z M86.0708031,11.2033909 C86.5387533,11.0864077 86.8087245,10.9289303 87.1281905,10.6004775 C87.6006403,10.1055486 87.8391149,9.46664036 87.8841101,8.57126896 C87.960602,7.11797769 87.4611551,6.02013536 86.5297542,5.58369805 C86.1292968,5.39472519 85.8188299,5.33623359 85.2878864,5.33623359 C84.5274673,5.34073294 83.9650271,5.55670192 83.5195746,6.02463472 C83.0786215,6.48806816 82.8536454,7.02799061 82.7681545,7.82887558 C82.5881737,9.59262227 83.3260951,10.9424284 84.6309563,11.2258877 C85.0494118,11.3158748 85.6658462,11.3068761 86.0708031,11.2033909 Z" id="Shape"></path>
                <path d="M94.7143832,12.6386848 C94.021457,12.5666951 93.3285307,12.310232 92.8245844,11.9502837 C92.5591126,11.7568114 92.5321155,11.7793082 92.5321155,12.2067468 L92.5321155,12.5082035 L91.7896945,12.5082035 L91.0472735,12.5082035 L91.0472735,8.3238045 L91.0472735,4.13940548 L91.8121921,4.13940548 L92.5771107,4.13940548 L92.5771107,7.16747058 L92.5771107,10.200035 L92.7120963,10.3845085 C92.9100753,10.6634685 93.2565384,10.9109329 93.6479967,11.063911 C94.1384445,11.2528838 94.5299029,11.3113754 95.092343,11.2798799 C96.3207123,11.216889 96.8696539,10.6859652 97.0316367,9.3946507 C97.0586338,9.17868172 97.0766319,7.98635297 97.0766319,6.58255459 L97.0766319,4.13940548 L97.8415505,4.13940548 L98.6064691,4.13940548 L98.6064691,6.67254166 C98.6064691,9.35415652 98.5839715,9.74110094 98.3949916,10.3935072 C98.0305304,11.6578257 97.310607,12.3597248 96.15423,12.5756938 C95.7042779,12.6566822 95.1328387,12.6836783 94.7143832,12.6386848 Z" id="Path"></path>
                <polygon id="Path" points="111.205128 8.36879804 111.205128 4.13940548 112.150028 4.13940548 113.094927 4.13940548 113.094927 8.36879804 113.094927 12.5981906 112.150028 12.5981906 111.205128 12.5981906"></polygon>
                <path d="M5.25940265,11.3608683 C5.22340648,11.2753806 5.31789642,11.1583974 5.42138541,11.1583974 C5.53837296,11.1583974 5.57886865,11.3023767 5.48437871,11.369867 C5.3763902,11.446356 5.2908993,11.4418567 5.25940265,11.3608683 Z" id="Path"></path>
                <path d="M15.5858038,5.84016121 C15.4598172,5.73667607 15.3653272,5.56570063 15.3653272,5.43971872 C15.3653272,5.29124005 15.5183109,5.09326848 15.6757942,5.03027753 C15.7387875,5.00778076 16.1257463,4.98078464 16.5352027,4.97178593 C17.2461271,4.95378852 17.2956218,4.95828787 17.6375854,5.07527107 L17.9975471,5.19675362 L18.0110457,5.40822325 C18.0245442,5.5881974 18.0065462,5.64218965 17.9120562,5.73667607 C17.7770706,5.87165669 17.6285864,5.8806554 17.1696352,5.78166961 C16.8276716,5.70967995 16.2967281,5.72317801 16.1977386,5.80416638 C16.0987492,5.88515475 15.6712947,5.91215087 15.5858038,5.84016121 Z" id="Path"></path>
                <path d="M35.6806654,3.96393068 C35.4601888,3.90993844 35.3072051,3.78395653 35.2082156,3.58148561 C35.0912281,3.33852051 35.0957276,3.17204442 35.2217142,2.92457996 C35.3342022,2.69961227 35.6176721,2.51963812 35.8606462,2.51963812 C36.2116089,2.52413747 36.5445734,2.81209612 36.5895686,3.154047 C36.661561,3.66247398 36.1801122,4.08991259 35.6806654,3.96393068 Z M36.1576146,3.76595912 C36.4995782,3.54099143 36.5445734,3.1450483 36.2656031,2.84359159 C36.126118,2.69061356 36.0946213,2.6771155 35.8651457,2.6771155 C35.6536682,2.6771155 35.599674,2.69511292 35.4826864,2.80759676 C35.1587209,3.11805217 35.2352128,3.6309785 35.6356701,3.8064533 C35.8336491,3.89194102 35.9866328,3.88294232 36.1576146,3.76595912 Z" id="Shape"></path>
                <path d="M35.5906749,3.57698626 C35.505184,3.49599789 35.4781869,3.41950888 35.4781869,3.26203149 C35.4781869,3.10455411 35.505184,3.0280651 35.5906749,2.94707673 C35.7301601,2.80309741 36.022629,2.7940987 36.1531151,2.92457996 C36.3285964,3.10005476 36.2296069,3.17204442 36.031628,3.01456704 C35.8831438,2.89758384 35.8561467,2.90208319 35.7256606,3.0370638 C35.5186826,3.23953472 35.6221716,3.55448949 35.8921428,3.55448949 C35.9551361,3.55448949 36.031628,3.52299401 36.0631247,3.48699918 C36.126118,3.41051017 36.2431055,3.39701211 36.2431055,3.46450241 C36.2431055,3.49149854 36.2026098,3.54999014 36.1531151,3.59948303 C36.022629,3.72996429 35.7301601,3.72096558 35.5906749,3.57698626 Z" id="Path"></path>
            </g>
        </g>
    </g>
</svg>