<?xml version="1.0" encoding="UTF-8"?>
<svg width="150px" height="60px" viewBox="0 0 150 60" version="1.1" xmlns="http://www.w3.org/2000/svg" xmlns:xlink="http://www.w3.org/1999/xlink">
    <title>Artboard</title>
    <g id="Artboard" stroke="none" stroke-width="1" fill="none" fill-rule="evenodd">
        <g id="Group-16" transform="translate(45.000000, 0.000000)" fill="#9BA4B7">
            <path d="M29.9999248,0 C46.5685002,0 60,13.4314998 60,30.0000376 C60,46.5685002 46.5685002,60 29.9999248,60 C13.4314622,60 0,46.5685002 0,30.0000376 C0,13.4314998 13.4314622,0 29.9999248,0 Z M30.0010531,1.24306482 C14.1705689,1.24005642 1.24351669,14.1438646 1.23162325,29.9864598 C1.21978373,45.8087447 14.1152421,58.7791255 29.9875129,58.7637571 C45.8275505,58.7937941 58.7392572,45.861401 58.7569528,30.0225294 C58.7746121,14.199906 45.8723084,1.24607428 30.0010531,1.24306482 Z" id="Combined-Shape"></path>
            <path d="M29.6546676,2.16868962 C45.0936017,2.16493632 57.832832,14.7086989 57.8313244,30.3721609 C57.8301936,45.9313177 45.2036598,58.5594891 29.6335606,58.5542152 C14.0554332,58.548938 1.44182742,45.9105923 1.44578406,30.3620243 C1.44974256,14.704177 14.1806809,2.15287791 29.6546676,2.16868962 Z M29.6150919,3.46159238 C14.7476311,3.46385333 2.68657751,15.5177429 2.68966759,30.3711812 C2.69279655,45.2232628 14.7276548,57.2609489 29.6101921,57.2983407 C44.4471985,57.3355604 56.5445487,45.2454955 56.5520908,30.3728392 C56.560002,15.4989017 44.509012,3.45933143 29.6150919,3.46159238 Z" id="Combined-Shape"></path>
            <path d="M30.0280407,11.5664684 C34.3532853,11.6051568 38.2112802,12.9708742 41.592104,15.6826965 C41.7258938,15.7898116 41.8702064,15.8199849 42.0254176,15.8463865 C42.5500541,15.9361519 43.0731874,16.0330836 43.5981997,16.1171915 C43.75529,16.1420845 43.8157961,16.220535 43.8443579,16.3695155 C43.9544715,16.9424304 44.0784901,17.5127051 44.1897311,18.08562 C44.2160381,18.2206453 44.2622632,18.3353038 44.3494521,18.4439275 C46.5562326,21.1938435 47.9505029,24.3150793 48.3120361,27.8258897 C49.0039099,34.5413649 46.743388,40.116253 41.5906007,44.4563001 C38.9377289,46.6910076 35.8332413,47.9635651 32.400931,48.4452059 C31.9649866,48.5063068 31.5504636,48.7178968 31.1250421,48.857071 C29.9509988,49.2402714 29.9355904,49.2794967 28.7889816,48.8363269 C27.7389569,48.4308736 26.6306811,48.3139522 25.5554769,48.0408841 C21.9139509,47.1160735 18.8345677,45.249857 16.3179285,42.4595842 C14.076498,39.9748158 12.58523,37.0845941 11.9488264,33.7949538 C10.8957952,28.3513948 12.0160971,23.3734848 15.3169476,18.9146305 C15.6056856,18.524641 15.735116,18.1191877 15.8151268,17.6665887 C15.8905527,17.2400142 15.995743,16.8183428 16.0705301,16.3917683 C16.1034138,16.2039397 16.1984572,16.1330325 16.3752026,16.1047451 C16.9578648,16.0115851 17.5379714,15.902207 18.1207088,15.8098014 C18.2417585,15.7905659 18.3390944,15.749832 18.4325969,15.6743989 C20.7250254,13.8228918 23.3076951,12.5816391 26.1868446,11.9661045 C27.4522108,11.6956766 28.7318578,11.560274 30.0280407,11.5664684 Z M29.9055253,16.1017277 L28.3530372,16.1104026 C28.0850817,16.1518908 27.8137439,16.0953159 27.5461643,16.1413302 C27.2823428,16.147742 27.0185213,16.1541538 26.7546998,16.1601884 C26.6292718,16.1910218 26.5006729,16.1677553 26.373818,16.1734482 L26.2477265,16.1918704 L25.7058026,16.2103515 C25.6273827,16.2354959 25.5457893,16.2229237 25.4653651,16.2235942 L25.3461485,16.2409019 L24.8061036,16.2624004 C24.7222595,16.2921965 24.63135,16.2563657 24.5479193,16.291065 C24.41785,16.2974768 24.2874801,16.3035115 24.1570726,16.3099233 C24.0574819,16.3476399 23.9492474,16.3016256 23.8500325,16.3416052 C23.3190823,16.3861108 22.7889213,16.4407998 22.2588731,16.4871912 C21.5980416,16.5452748 20.9401414,16.6263654 20.283068,16.7078332 C19.4344797,16.8130625 18.5920924,16.968832 17.7466986,17.1000857 C17.6186963,17.1200755 17.5145582,17.1559062 17.4824261,17.3026237 C17.3291691,18.0022663 17.1521606,18.6973829 17.0229182,19.4015515 C16.8382431,20.4074528 16.6673229,21.4159942 16.5569087,22.4343419 C16.4837001,23.1093179 16.3733986,23.7803713 16.3623497,24.4612688 C16.336644,24.5156058 16.345697,24.5741336 16.3452571,24.6315215 L16.3319463,24.716082 L16.3102995,25.1564986 C16.2738079,25.2578807 16.3160118,25.3669948 16.2799713,25.4684147 C16.2736952,25.6324818 16.2674191,25.796549 16.261143,25.9606161 C16.2504417,25.998427 16.2456665,26.0366386 16.2438978,26.0750535 L16.2460071,26.3064035 L16.2303262,26.420947 C16.2240501,26.7021995 16.2178116,26.9834144 16.2115731,27.2646669 C16.193058,27.8052461 16.1868362,28.3458421 16.193019,28.8864325 L16.2116107,29.6973111 L16.2310778,30.5408424 C16.269223,30.6744723 16.2183753,30.8149289 16.2621201,30.9481815 C16.2681707,31.1131162 16.2742589,31.2780508 16.2803095,31.4429854 C16.2896109,31.4677369 16.2936368,31.4930494 16.2951048,31.5186337 L16.2949592,31.6730842 L16.3126295,31.7484143 C16.3131556,32.3479948 16.4088003,32.9392399 16.4621659,33.5343322 C16.5361262,34.3592315 16.6982148,35.1659515 16.9418551,35.9538509 C17.7026532,38.4133493 18.9965811,40.5669661 20.7310384,42.4535496 C21.7172874,43.5262092 22.8273296,44.4600718 24.0281684,45.2871964 C25.3078154,46.1682558 26.6690141,46.8954315 28.0971078,47.4977653 C28.5559016,47.6914777 29.0163792,47.8837418 29.4906626,48.0374806 L29.8491532,48.1449819 L29.8563009,48.1411293 L29.8491532,48.1951449 C29.96077,48.2709553 30.0584816,48.1909961 30.1535626,48.1585599 C30.7905675,47.9394265 31.4189287,47.6976632 32.0360155,47.4272353 C35.3281471,45.9860847 38.1676858,43.9482578 40.340643,41.0433266 C41.735665,39.1782416 42.7537454,37.127591 43.2084805,34.8276338 C43.5478406,33.1115293 43.6305197,31.3655155 43.6782481,29.6213499 C43.7534109,26.8861056 43.575275,24.1635718 43.1829251,21.4559738 C42.9856227,20.094028 42.738337,18.740757 42.3993527,17.4059672 C42.3655294,17.2732048 42.3253173,17.1834393 42.172361,17.1555291 C40.4203156,16.8379554 38.6569958,16.6090158 36.8843933,16.4487203 C35.7573268,16.3465084 34.628757,16.266172 33.498684,16.2186491 C32.3182519,16.1684861 31.1370681,16.1224719 29.9547569,16.152268 L29.9380655,16.1750437 L29.9380655,16.1750437 L29.9242283,16.1982956 L29.9055253,16.1017277 Z M26.0512651,31.7652651 L26.0667399,31.8204897 C26.089491,31.8717354 26.1327155,31.914081 26.169933,31.9584579 C26.7212523,32.6155939 27.2567874,33.2861571 27.8111132,33.9409169 C27.9851152,34.1464723 28.114771,34.4010592 28.3733311,34.5274098 C28.5822838,34.4746066 28.7837202,34.3886128 29.0020682,34.3750348 C29.087378,34.3697545 29.1366096,34.3293977 29.1685538,34.2501929 C29.2219946,34.1184866 29.2969723,34.0019791 29.3811584,33.8921469 L29.4679574,33.7842241 L29.7085987,33.5037817 C29.865689,33.3136902 30.0690044,33.3099185 30.2178268,33.4985014 C30.3824334,33.7070741 30.5647032,33.9088578 30.6733135,34.1540156 C30.7514828,34.3301521 30.8574624,34.4116576 31.0513825,34.4138829 C31.3445175,34.4172774 31.5752674,34.5590917 31.7541549,34.7880691 C31.8623894,34.9260741 31.9604768,35.0716601 32.0705904,35.2074398 C32.3554575,35.5585812 32.7455525,35.7415066 33.1600755,35.8821894 C33.2081797,35.8984076 33.2592904,35.8938816 33.2995025,35.853902 C33.4254539,35.8222201 33.3606145,35.7788999 33.3203487,35.7438927 L33.3032607,35.7271743 L32.4764696,34.7352282 C31.8488601,33.9763705 31.2178682,33.220153 30.5992781,32.4540538 C30.438129,32.254699 30.2531684,32.0734482 30.1065467,31.8623138 L30.0702651,31.8042651 L30.1544162,31.816751 L30.2399998,31.8196986 L32.4221645,31.821476 L32.4221645,31.821476 L34.6043291,31.8164927 L34.6833159,31.8170385 L34.7606678,31.9212694 C35.7723594,33.140571 36.7874333,34.357308 37.7975089,35.5778166 L38.4943739,36.4214717 L38.4943739,36.4214717 L39.190182,37.2661523 L40.561706,38.9327277 L40.548844,38.9560909 C40.0784187,39.7543624 39.553242,40.5108392 38.9495318,41.2069046 L38.6410222,41.5498168 L38.343706,41.8567277 L38.2733889,41.7476382 L38.1977509,41.6426431 C37.6614642,40.9890147 37.1249144,40.3361407 36.5844937,39.6855296 C36.0767688,39.0741438 35.5645342,38.4661525 35.0545544,37.8566525 C34.8354548,37.9467952 34.5712575,38.2617286 34.6219924,38.4174981 C34.7809618,38.904042 34.5990677,39.2849795 34.3115699,39.6598823 C33.9451512,40.1369971 33.8346618,40.6902994 33.9083214,41.2835812 C34.1725187,41.7011038 34.5186435,42.0526223 34.8286901,42.4328055 C35.0415513,42.6939048 35.2482123,42.9605828 35.4630973,43.2202517 L35.793396,43.6029247 L36.052706,43.8737277 L36.0256581,43.8939459 C35.2189105,44.4798101 34.3743204,45.0020276 33.491888,45.4601619 L32.9792651,45.7162651 L33.0024096,45.7048265 C33.0156652,45.6124559 32.943807,45.5597113 32.8951265,45.499918 C32.4377608,44.9379409 31.9834015,44.3733236 31.5132581,43.8219072 C31.4069027,43.6970653 31.3317398,43.5382785 31.1675091,43.4696343 C30.4568446,43.1943033 29.7480592,43.111704 29.0110877,43.4009901 C28.684881,43.5288494 28.3395079,43.4737832 28.0347226,43.2693593 C27.9727133,43.227871 27.9031877,43.1780851 27.8276491,43.2161789 C27.6044155,43.3285743 27.3458554,43.3440381 27.1308897,43.4775548 C27.0632432,43.541673 27.1034553,43.600888 27.1436674,43.6540684 C27.2184544,43.753263 27.2951205,43.8513261 27.3747931,43.9475034 C27.9299958,44.6158413 28.4867017,45.2826704 29.0378958,45.9542491 L29.859676,46.9659615 L29.8010469,46.895257 C28.6668819,46.4926976 27.551671,46.0456939 26.4807313,45.4916203 C24.2743266,44.3503165 22.3249037,42.8854045 20.7238604,40.9660076 C19.3534918,39.3226961 18.4242163,37.4587426 17.8701911,35.3971542 C17.5694646,34.2781032 17.5065158,33.1258616 17.3883222,31.9812387 C17.3810677,31.9107747 17.3621388,31.8216337 17.4385931,31.7829175 C17.693506,32.0944924 17.9481224,32.4063205 18.203651,32.717391 L19.112501,33.8238069 L19.112501,33.8238069 L20.0223658,34.9290914 L21.7997786,37.0789366 C22.3334346,37.7253988 22.8657378,38.3729925 23.3986797,39.0202091 C23.9210614,39.654602 24.4419397,40.2901264 24.9658246,40.9230107 C25.4630267,41.5230815 25.9632352,42.1205122 26.4619406,42.7190743 C26.5303387,42.5176678 26.6427072,42.3094723 26.4393917,42.124661 C26.1270902,41.8406551 25.9936762,41.4898909 26.0259962,41.0734998 C26.0511757,40.7412168 25.977892,40.4293006 25.8557524,40.1237963 C25.7708184,39.9118291 25.6336463,39.734184 25.5017355,39.5523901 C25.2706098,39.2336849 25.1559865,38.8897097 25.2732405,38.4955714 C25.3044331,38.3903422 25.2886489,38.299068 25.2029633,38.224012 C25.0056609,38.0512701 24.8857762,37.8181816 24.7369162,37.6088546 C24.5332625,37.3210771 24.5918896,37.1415461 24.9180962,37.0125554 C25.1108888,36.9367451 25.3179624,36.8990285 25.5002323,36.7945536 C25.6498063,36.6640542 25.5272909,36.5739116 25.4510006,36.4815059 C24.2675244,35.0414868 23.0796136,33.6048622 21.8905001,32.1691805 C21.7777984,32.0330895 21.6863753,31.8706612 21.538873,31.7661771 L23.8006505,31.7723059 L23.8006505,31.7723059 L26.0512651,31.7652651 Z M44.5708066,20.6296035 C44.6301853,21.1202962 44.6899397,21.6143834 44.75007,22.1080935 C44.7504458,22.1748519 44.7448086,22.2419874 44.751949,22.3076142 C44.8906244,23.6120045 44.9443659,24.9216374 44.9785649,26.2316852 C45.0240384,27.9694013 44.9624049,29.705571 44.8301184,31.4382331 C44.7598411,32.3610824 44.6982076,33.2880429 44.521575,34.1973897 C43.9044882,37.3780291 42.5143518,40.189046 40.4620309,42.6806034 C40.0163154,43.2214592 39.5134761,43.707626 39.0459634,44.2273605 C38.2338291,44.9413354 37.4169219,45.6496528 36.5187262,46.2572669 C41.1103103,44.5509687 46.6911498,39.4988325 47.376259,31.4920169 C47.5412414,29.5677923 47.3646087,27.6671783 46.8940895,25.7919475 C46.4412335,23.9865679 45.0247901,20.819695 44.5708066,20.6296035 Z M15.2266019,20.774058 C12.1412808,26.0855334 11.6449806,31.6049781 14.1439566,37.2765715 C15.9593267,41.3971081 19.0345384,44.308074 23.1432389,46.1120581 C22.4515906,45.5966987 21.8010714,45.0294413 21.1551414,44.4560527 L20.6709833,44.0255768 L20.6211363,43.9555182 L20.5671835,43.8894199 C18.9708755,42.2710013 17.6907774,40.4319408 16.7419971,38.3631862 C15.922309,36.5757974 15.3832412,34.7126359 15.2110808,32.7443206 C15.1259964,31.7714214 15.0311785,30.7989747 14.9935595,29.8235862 C14.948537,28.6555791 14.9136615,27.4873079 14.9457936,26.3168115 C14.9736696,25.3023392 15.0209728,24.2895641 15.0894315,23.2778652 L15.1650059,22.2665021 L15.2454865,21.5240522 L15.3259671,20.7816013 C15.2928203,20.7789611 15.2597111,20.7766981 15.2266019,20.774058 Z M27.7577476,41.981338 C27.6262127,42.0416845 27.5243671,42.0982594 27.4161326,42.1363531 C27.0384394,42.2687383 27.037312,42.2664753 27.0403185,42.6798491 L27.0403185,42.6798491 L27.0395199,42.6925784 L27.0406943,42.704742 C27.0662497,42.7816839 26.9715445,42.9257612 27.1560692,42.9148234 C27.4078647,42.8997368 27.7554927,42.7258633 27.7321923,42.6210112 C27.6863429,42.41357 27.7055095,42.2106548 27.7577476,41.981338 Z M32.1938574,41.994916 C32.2509812,42.2261186 32.2780398,42.4301653 32.2126481,42.6330805 C32.1912267,42.6998389 32.2182853,42.7481161 32.2881867,42.7632027 C32.4888715,42.8058225 32.706092,42.9770558 32.8706986,42.8872903 C32.9567601,42.8401446 32.9015154,42.5323773 32.9101591,42.3422857 L32.9101591,42.3173927 C32.9142931,42.2464856 32.8834763,42.2125406 32.8105684,42.2061288 C32.6023673,42.1880249 32.4152119,42.0986366 32.1938574,41.994916 Z M28.4304549,41.3069655 C28.2925311,41.4540602 28.193692,41.5868225 28.1155227,41.7339172 C27.9621905,42.0235806 27.9437756,42.3124896 28.1636269,42.5757513 C28.3815991,42.8359957 28.6792438,42.9453738 28.9934244,42.8318469 C29.6642526,42.5889521 30.3159143,42.5814088 30.9901248,42.8243036 C31.4023929,42.9729069 31.8202982,42.6941814 31.915755,42.263458 C32.0036955,41.8659252 31.7612954,41.6064352 31.5328004,41.3299726 C31.224257,42.0198089 31.1137676,42.0684633 30.3805543,41.8259457 C30.1347719,41.744855 29.893875,41.7305227 29.6477168,41.8157622 C29.513927,41.8617764 29.3790097,41.9043962 29.2422134,41.9390954 C28.8866932,42.0296152 28.5950615,41.8587591 28.4917126,41.506109 C28.474801,41.4484027 28.4563861,41.3910735 28.4304549,41.3069655 Z M34.1289243,38.7030126 C34.0049056,38.0810662 33.3111528,37.8630643 32.76284,38.2749294 C33.1912681,38.5585581 33.3224272,38.901779 33.0537201,39.2216156 C32.7136083,39.6263146 32.6001125,40.0713702 32.6046222,40.5828071 C32.6072529,40.9275367 32.3629738,41.1545905 32.0442834,41.167037 C31.9623559,41.1704315 31.8800526,41.1677913 31.7759521,41.1677913 C31.836834,41.319412 31.9364247,41.4302987 32.0307541,41.5426941 C32.267517,41.824437 32.5632827,41.9183513 32.8737051,41.8172708 C33.1908922,41.7139274 33.4111193,41.4434995 33.3968384,41.0746313 C33.3690281,40.3734801 33.5625724,39.7613399 34.0112945,39.2231243 C34.1323066,39.0779155 34.1676331,38.8953672 34.1289243,38.7030126 Z M26.5957304,38.0493843 C26.1646716,38.0369378 25.8245598,38.3616776 25.8238072,38.7924009 C25.8234324,39.0194548 25.9282845,39.2103007 26.0639534,39.3837969 C26.4487871,39.8767527 26.6393248,40.4221345 26.5795704,41.0591675 C26.5434922,41.446894 26.8013007,41.7490038 27.1797455,41.8368835 C27.5743503,41.9289119 27.9685793,41.6686675 28.1711432,41.1704315 C28.0599022,41.1704315 27.9535468,41.1813693 27.8501979,41.1681685 C27.5454127,41.1289432 27.3402182,40.8807681 27.3642703,40.5186889 C27.3939596,40.0687301 27.2872284,39.6783635 26.990711,39.3392914 C26.9471166,39.2895055 26.9106626,39.2321763 26.8779668,39.1744699 C26.7069714,38.8719829 26.7888988,38.535551 27.0763966,38.3398019 C27.1214943,38.3088743 27.1936506,38.3077428 27.2053009,38.2134514 C27.0128841,38.1304749 26.8137026,38.0557961 26.5957304,38.0493843 Z M30.4978083,39.9201268 C30.3722864,39.7402187 30.2569115,39.5814318 30.0002304,39.6983532 C29.9491197,39.7217375 29.8664406,39.7006162 29.8078136,39.6764776 C29.6920629,39.6297091 29.6274228,39.6693115 29.5594005,39.7647344 C29.3042227,40.1241735 29.0404012,40.4768235 28.7825927,40.8339995 C28.6401592,41.0312573 28.6337703,41.2394528 28.7731974,41.4374649 C28.9092421,41.6301966 29.1061687,41.6709305 29.3263957,41.6139785 C29.4466562,41.5830509 29.5642861,41.5426941 29.6845466,41.5136524 C29.9867011,41.4412365 30.2726957,41.5125209 30.5628242,41.6000233 C30.9600597,41.7195849 31.2674756,41.5136524 31.2704821,41.1202684 C31.2776226,41.0165478 31.2250086,40.9071697 31.1479667,40.8038263 C30.9292429,40.5107684 30.7071368,40.2199736 30.4978083,39.9201268 Z M32.8169572,38.8923499 C32.8199637,38.5385683 32.5309627,38.3122688 32.1878444,38.4050516 C31.8443503,38.4978344 31.5091241,38.621922 31.1671333,38.7214938 C30.9093248,38.7969269 30.6447516,38.8504845 30.6631665,39.2114322 C30.6654214,39.2548062 30.631974,39.3079866 30.6004056,39.3438174 C30.5158474,39.440749 30.5485432,39.5195766 30.6150623,39.6093421 C30.8728708,39.9567118 31.1197807,40.3116249 31.3820989,40.6552229 C31.5328004,40.853235 31.7304786,40.9637446 31.9909178,40.8743563 C32.2348211,40.7906255 32.3486928,40.6186379 32.3336603,40.3070989 C32.3148696,39.9144693 32.4178426,39.5686082 32.6613702,39.2608409 C32.7489349,39.1503313 32.8244735,39.0281296 32.8169572,38.8923499 Z M27.6465067,38.3933595 C27.4364266,38.3956225 27.2624246,38.4944399 27.1816246,38.6709535 C27.0989455,38.8504845 27.1034553,39.0228493 27.2410032,39.1808817 C27.5375206,39.522594 27.6788267,39.9171094 27.6566536,40.3742344 C27.6453792,40.6069457 27.7701495,40.7770475 27.9851152,40.8536122 C28.209852,40.9339485 28.4142949,40.8754878 28.5597349,40.6778529 C28.8258113,40.3161509 29.0858747,39.9503 29.3474413,39.5855807 C29.3857744,39.5320231 29.4308721,39.4780884 29.3996795,39.4037867 C29.2598766,39.0718808 29.1662989,38.7196079 28.6946522,38.6837772 C28.4379712,38.6641646 28.1888064,38.5325337 27.9385142,38.4454084 C27.8426816,38.4118406 27.7460974,38.396754 27.6465067,38.3933595 Z M29.9915867,38.5140526 C29.7461801,38.5121667 29.5443679,38.7116874 29.5451175,38.9549594 C29.5458712,39.1944597 29.7510657,39.3981292 29.9927142,39.3985069 C30.2321077,39.3988836 30.4466976,39.1895565 30.4459479,38.9568452 C30.4451943,38.7260197 30.229477,38.5159384 29.9915867,38.5140526 Z M29.515806,36.2469088 C29.2959548,36.1556347 29.07911,36.1993859 28.9543398,36.3830656 C28.6766131,36.7904047 28.3030539,37.032168 27.8423058,37.173228 C27.6277159,37.2392321 27.5330108,37.4251748 27.5326341,37.6409137 C27.5322592,37.8626872 27.6495132,38.023737 27.8614723,38.0935127 C28.3023023,38.2387215 28.7461387,38.3752555 29.1892236,38.5144297 C29.242965,38.5314022 29.3034711,38.5721361 29.3527027,38.5208415 C29.3897204,38.4823078 29.4312479,38.4465189 29.4741516,38.411563 L29.6038579,38.3072819 C29.7739486,38.1664733 29.9159228,38.0083989 29.829235,37.7106893 C29.8002973,37.6107404 29.8251011,37.4949505 29.8251011,37.3867039 L29.8251011,37.3867039 C29.8277318,37.1698336 29.8251011,36.9533404 29.8284834,36.73647 C29.8314899,36.5026272 29.7326508,36.3366742 29.515806,36.2469088 Z M31.070549,36.4694366 C30.9378866,36.2582238 30.751107,36.1507315 30.4993116,36.224656 C30.2407515,36.3000892 30.1321412,36.499987 30.1197393,36.7538196 C30.1095923,36.9703128 30.1178603,37.1879375 30.1174844,37.4048079 C30.1171086,37.4549709 30.116357,37.505134 30.1174844,37.555297 L30.1174844,37.555297 L30.1173539,37.640961 L30.1126928,37.8125772 C30.1083944,38.0680304 30.1374965,38.3078371 30.4872855,38.4405052 C30.6206995,38.4910454 30.7112707,38.5551636 30.8567108,38.5042462 C31.2411686,38.3703524 31.6267539,38.2390987 32.0172248,38.1248174 C32.2626314,38.0531559 32.4125812,37.9211479 32.4185942,37.6560003 C32.4242315,37.4089567 32.2889384,37.2294258 32.0206071,37.1517296 C31.6218683,37.036694 31.2956617,36.8269898 31.070549,36.4694366 Z M34.131555,37.2090588 C34.0819475,37.1920863 34.0139252,37.1494666 33.9842358,37.2331974 C33.9060665,37.4523308 33.7384534,37.6092317 33.5670822,37.7974375 C33.8113613,37.7955517 34.004154,37.8370399 34.1755252,37.9490581 C34.2529429,37.9999755 34.3025504,37.9950724 34.3566676,37.9147361 C34.4667812,37.7510461 34.5851626,37.5930136 34.7114361,37.4168772 C34.5039868,37.3421983 34.3187104,37.273177 34.131555,37.2090588 Z M26.026372,37.3968874 C25.9440687,37.1773769 25.8170436,37.1566328 25.6325188,37.2546959 C25.5964407,37.2739313 25.5554769,37.2837376 25.5160165,37.2969384 C25.2070973,37.3999047 25.2168684,37.3938701 25.3950043,37.6805161 C25.5306732,37.8988951 25.6449207,38.0754087 25.9331701,37.8679675 C26.0312576,37.7974375 26.1834623,37.803095 26.3537061,37.7646241 C26.2180372,37.639405 26.0808651,37.5424734 26.026372,37.3968874 Z M29.1431882,34.9151163 L29.0434077,34.9185307 C28.7927397,34.946441 28.5867936,35.0573278 28.4394744,35.271558 C28.0636603,35.8176941 27.5886313,36.2235245 26.9181789,36.358927 C26.7693565,36.3887231 26.6464653,36.4777343 26.5528876,36.6040848 C26.3668596,36.8545229 26.3270233,37.1290996 26.4694569,37.4025449 C26.6464653,37.7427484 26.9722961,37.8513722 27.3417214,37.9177534 C27.1496804,37.3987732 27.2451372,37.0664901 27.6592843,36.9533404 C28.1444604,36.820578 28.4977256,36.5607107 28.7709425,36.1397937 C28.9817742,35.8142996 29.3354153,35.7762058 29.643207,35.9889274 C29.6608703,36.0011224 29.678283,36.0137365 29.6968371,36.0274961 L29.6968371,36.0274961 L29.8329932,36.1296102 C29.8679439,35.8682343 29.8585485,35.6540041 29.7995457,35.4450542 C29.7040889,35.1086223 29.3775065,34.8811913 29.0434077,34.9185307 Z M31.406151,35.1263491 C30.9822327,34.6952486 30.3061431,34.8717622 30.1445431,35.4537291 C30.0896742,35.6509868 30.1054584,35.8497532 30.112223,36.0786928 C30.6210753,35.6860632 30.9232299,35.7279286 31.2734886,36.2431371 C31.4959706,36.5705171 31.7936154,36.7670205 32.1611616,36.8918623 C32.7380362,37.0872342 32.849653,37.3357865 32.6407004,37.8905974 C33.1074615,37.9015353 33.5095826,37.5964081 33.583618,37.1743595 C33.6505129,36.7941764 33.4212663,36.449824 32.9560084,36.3106498 C32.3389217,36.1265929 31.8454777,35.7916696 31.5023594,35.2410075 C31.4764283,35.198765 31.4411017,35.1618027 31.406151,35.1263491 Z M40.4722249,31.8153801 L42.1704819,31.8175111 C42.4440746,31.8179636 42.4824076,31.8620921 42.4564764,32.1245617 C42.3595164,33.1072835 42.2843689,34.0933858 42.0767289,35.0602573 L41.9762651,35.4762651 L41.9416015,35.4152689 C41.9284037,35.3953215 41.9140189,35.3760703 41.8990406,35.3571451 L41.852919,35.3009769 C40.9859158,34.261885 40.1268048,33.2163814 39.2658146,32.1719338 C39.2024157,32.0949656 39.1461271,32.0093878 39.0829995,31.9301847 L38.9814353,31.8180342 L40.4722249,31.8153801 Z M30.0077467,33.9820657 C29.9220611,33.8967885 29.8671922,34.0472777 29.8427643,34.1001186 C29.7672257,34.264148 29.4616888,34.3596087 29.598861,34.5625239 C29.7210006,34.7431486 29.8773392,34.9060843 29.9776816,35.1304979 C30.0622398,34.9140048 30.1580724,34.7333423 30.3200482,34.5957145 C30.3538715,34.5666727 30.419639,34.5391396 30.3786752,34.4798869 C30.2606696,34.3090308 30.152811,34.1261053 30.0077467,33.9820657 Z M29.9547569,16.8700145 C30.1306379,16.9601572 30.3200482,16.9039595 30.5026939,16.9209319 C30.7424633,16.9322469 30.9848634,16.8884957 31.2212505,16.957517 C31.5271632,16.9971194 31.8345791,16.9707178 32.1416192,16.9767525 C32.3494445,16.9744895 32.5587729,16.9454477 32.7639674,17.0057942 L32.8755407,17.0194019 L32.8755407,17.0194019 L32.9873541,17.0258958 L33.4355472,17.025784 C33.579484,17.018995 33.7237967,17.0069257 33.8639753,17.0536943 C34.0214414,17.0827361 34.1807866,17.0717982 34.3393802,17.0740612 C34.4652779,17.0680266 34.5915514,17.0608604 34.713691,17.1027258 C34.8531181,17.1295046 34.9940484,17.121207 35.134227,17.1227156 C35.2308112,17.1151723 35.3258922,17.1219613 35.4187183,17.1521346 C35.5423611,17.1766503 35.6678831,17.1709929 35.7926533,17.1728787 C35.8911166,17.1630724 35.9865734,17.1785362 36.080527,17.2060693 C36.7468454,17.3045096 37.4199284,17.3414718 38.0880132,17.4248255 C39.1526946,17.557965 40.2158727,17.6986478 41.2715345,17.8962827 C41.480863,17.935508 41.5924798,18.0301766 41.6259272,18.2451611 C41.6815477,18.599697 41.7627236,18.9497069 41.8277394,19.3027341 C42.1077209,20.8223352 42.2689452,22.3574001 42.4403164,23.8915975 C42.4688783,23.9858513 42.481656,24.0817645 42.4726364,24.1800917 C42.4737639,24.2917328 42.4718848,24.403487 42.4944337,24.5136949 C42.5312634,24.6209231 42.5278811,24.7312818 42.5211165,24.8418668 C42.5233713,24.9986924 42.5132244,25.156046 42.5425379,25.3116646 C42.5804951,25.4228154 42.5778644,25.5370589 42.5688449,25.6517173 C42.5733546,25.8909159 42.5534365,26.130831 42.5898904,26.3690867 C42.643256,26.5475616 42.6248412,26.7293178 42.61507,26.9105837 C42.6116877,27.8240039 42.6131909,28.7375749 42.6158216,29.6513723 C42.6222105,29.8420296 42.6451351,30.0330641 42.5959035,30.2217602 C42.5613286,30.3363809 42.6060504,30.4714439 42.5090904,30.5706763 C42.4513654,30.6115686 42.3882286,30.619385 42.3240636,30.6191035 L42.1956614,30.6151441 C40.4428644,30.6165019 38.6904432,30.6164265 36.9377589,30.6154836 L36.829956,30.6174351 L36.829956,30.6174351 L36.7222365,30.6146007 L36.669706,30.6037277 L36.7085123,30.589874 C36.7310612,30.5193063 36.699117,30.4603175 36.6709309,30.3995184 C36.4390536,29.8986045 36.4619783,29.7449848 36.8475636,29.3598231 C37.1049962,29.103124 37.3083117,28.8114617 37.4424773,28.4746903 C37.5732606,28.1475367 37.483441,28.0389129 37.1346855,28.0973359 C36.2090554,28.2522379 35.281922,28.3954855 34.3461448,28.4751052 C34.3034985,28.214634 34.4644974,28.1151839 34.7073022,28.0339344 C35.7137324,27.6970498 36.7118947,27.3357627 37.7167089,26.9944653 C37.8884559,26.9361178 37.9177694,26.8922534 37.8178028,26.7285634 C37.3229684,25.9210891 37.077186,25.0433111 37.0959767,24.0900999 C37.1046204,23.6466283 37.1726428,23.2099835 37.2053386,22.7696046 L37.2053386,22.7696046 L37.2384313,22.6925973 C37.2698433,22.5885997 37.2551715,22.4787268 37.2515637,22.3558915 C36.986239,22.4478445 36.7453421,22.5348189 36.5021904,22.6151552 C35.7712319,22.8567299 35.0560577,23.146167 34.3142006,23.3545888 C34.3089392,22.4362278 34.3002955,21.5182062 34.3014229,20.5998074 C34.3017988,20.4270654 34.2672239,20.3753937 34.0935977,20.4485639 C33.8872758,20.5349348 33.6708069,20.5979215 33.4588477,20.6714689 L33.4588477,20.6714689 L33.40403,20.6937911 C33.3417591,20.7360698 33.3180677,20.8209774 33.2525258,20.8592975 L33.2525258,20.8592975 L32.4824826,21.1180332 C32.4873682,21.1384002 32.491878,21.15839 32.4967636,21.1787569 C32.6662557,21.1700821 32.8353721,21.1617844 33.0048643,21.1534868 L33.0048643,21.1534868 L33.1516699,21.1588106 C33.3225896,21.16408 33.4849459,21.1482065 33.5618208,20.9237928 L33.5618208,20.9237928 L33.6375543,20.9209431 C33.6883031,20.9200212 33.7388292,20.9187639 33.7846785,20.9034259 C34.0518824,20.8132832 34.072928,20.9415196 34.0702973,21.1689506 C34.0428628,23.3555695 34.026327,25.5423392 34.0067847,27.7290712 L34.0067847,27.7290712 L34.0064089,28.011493 C33.2044216,26.8614012 32.6298018,25.7143268 32.8079377,24.321378 C32.8184017,24.2938253 32.8311774,24.2629764 32.8303359,24.2362719 C32.8706251,24.0843752 32.9072431,23.9321698 32.8534112,23.7724131 L32.8534112,23.7724131 L32.7337117,23.6067363 C32.2705213,22.9392581 31.9995615,22.2111468 32.0987764,21.3658312 L32.0987764,21.3658312 L32.109188,21.3213316 C32.1193861,21.26288 32.1119299,21.2086284 32.0517997,21.1666876 L32.0517997,21.1666876 L31.9490369,21.0234528 C31.5918397,20.4936902 31.4527207,19.9131141 31.6136004,19.2631317 L31.6136004,19.2631317 L31.6478641,19.2074644 C31.6745528,19.1500762 31.6798377,19.0872781 31.6756097,19.0168424 C31.1975742,19.1454559 30.7710252,19.3668523 30.3035124,19.4615209 L30.3035124,19.4615209 L30.3035124,18.1946209 C30.0197728,18.2907982 29.7638434,18.3779235 29.5079139,18.4646716 C29.3993037,18.4846614 29.356085,18.5740497 29.3064776,18.6562719 C29.0313817,18.747546 28.7566615,18.8388201 28.4815656,18.9300943 L28.4815656,18.9300943 L28.4996047,18.9976069 L28.4996047,18.9976069 L29.2579976,18.9474439 C29.4226041,18.9923266 29.5064107,18.9040698 29.5578972,18.763387 L29.5578972,18.763387 L29.8053708,18.7367968 L30.0528444,18.7102066 L30.0512002,19.0604993 L30.05773,19.4102264 C30.0641188,19.5437431 30.0084983,19.5988093 29.8889895,19.6384117 C29.4718358,19.7768315 29.0591919,19.9299609 28.6412866,20.0668721 C28.4894577,20.1162808 28.3819749,20.1996344 28.3026781,20.3369228 C28.1985776,20.5179624 28.1001143,20.7001335 28.0411115,20.90154 C27.9144621,21.3364122 27.9437756,21.7584608 28.1598687,22.1586337 C28.2508157,22.3264725 28.3064362,22.3453308 28.4473665,22.3110087 L28.4473665,22.3110087 L28.5549868,22.1855836 C28.7444685,21.9907321 28.9822753,21.8640672 29.2346971,21.7641183 C30.0761449,21.431458 30.9578048,21.2979413 31.8560005,21.2519271 C31.8710331,21.2696539 31.9409345,21.2692767 31.8935819,21.3047303 C31.8432228,21.342824 31.7703149,21.3503674 31.7079298,21.3718658 C30.6733135,21.7309277 29.6417038,22.0990415 28.6025778,22.4441483 C28.1854241,22.582719 27.9851152,22.8780398 27.910704,23.2761383 C27.7848062,23.9475689 28.0129254,24.5383238 28.3665665,25.0924181 C28.3981349,25.1417891 28.4353405,25.2252559 28.509,25.1270796 L28.509,25.1270796 L28.6833778,24.9582824 C28.9832461,24.6912708 29.3285253,24.4946417 29.7074712,24.3503443 C30.5444093,24.0315261 31.4234385,23.9361785 32.30585,23.8594253 L32.30585,23.8594253 L32.6102594,23.8594253 C32.5696715,23.920941 32.5257013,23.9408554 32.4806036,23.9565078 C31.1686365,24.4104646 29.8581727,24.867929 28.5431991,25.3130224 C28.3609293,25.3746513 28.2466818,25.4819927 28.1557348,25.6369324 C27.8603449,26.1387138 27.7942016,26.667802 27.9633179,27.2258943 L27.9633179,27.2258943 L27.9821732,27.3262729 L27.9159654,27.2716068 C27.5796117,26.5968194 27.3582572,25.8952156 27.41726,25.1279094 C27.4236648,25.1025108 27.4336575,25.0744396 27.4348492,25.0492733 C27.4724501,24.8945253 27.5204692,24.7404883 27.4552173,24.5786428 L27.4552173,24.5786428 L27.329383,24.4295181 C26.8949541,23.8748451 26.7404188,23.2324343 26.81483,22.5185254 L26.81483,22.5185254 L26.8388491,22.4770263 C26.8677597,22.4197984 26.8807478,22.3567966 26.8362514,22.3121402 C26.7900263,22.266126 26.7159909,22.3287355 26.6554848,22.3464623 C26.3210103,22.4437711 26.0075813,22.6063296 25.6610807,22.6652429 L25.6610807,22.6652429 L25.6610807,21.1180332 C25.3517857,21.2111932 25.0759381,21.2934153 24.8139957,21.4163714 C24.7027547,21.4340982 24.6956142,21.5645975 24.6076737,21.6072173 C24.348362,21.6939654 24.0894261,21.7807136 23.8304902,21.8670845 C24.1364028,21.9115901 24.4261555,21.9232822 24.7121501,21.8644444 L24.7121501,21.8644444 L24.7724952,21.862906 C24.8565097,21.8421706 24.865357,21.7389739 24.9135864,21.679256 L24.9135864,21.679256 L25.1563013,21.6517229 L25.3987624,21.6241897 L25.4192972,21.8793006 C25.4272069,22.1346106 25.4043057,22.3903927 25.4141708,22.6455171 C25.4186806,22.7643998 25.3480275,22.7967606 25.2525708,22.8278768 C24.9613148,22.9228094 24.6790784,23.0593057 24.3814336,23.1187848 C23.9082837,23.2132648 23.7200008,23.5530912 23.5843319,23.9494171 C23.5257049,24.1206881 23.4843654,24.3036512 23.4712119,24.4839365 C23.4407709,24.9043255 23.4516695,25.3204526 23.8071897,25.6302943 C23.8489051,25.6843044 23.8800976,25.6430425 23.9052772,25.6152831 C24.1660922,25.328373 24.5035732,25.1783742 24.8631898,25.0630746 C25.6900184,24.7980024 26.5412373,24.6815714 27.4037307,24.626656 C27.3428489,24.6889638 27.2612972,24.705446 27.1831279,24.7323002 C26.1090511,25.1023753 25.0364776,25.4778061 23.960146,25.8406397 C23.7846408,25.8997415 23.6835468,26.00135 23.6113905,26.1624375 C23.2892803,26.8810516 23.5486296,27.8594952 24.2070559,28.3882439 C24.2333629,28.4246782 24.2641796,28.4132877 24.2900732,28.3913744 C24.59903,28.1304888 24.9755958,28.0485307 25.3581745,27.9827152 C25.3596603,27.9856821 25.361112,27.9886515 25.3625304,27.9916234 C25.3565008,27.9900688 25.3491088,27.9901666 25.3412629,27.9905603 C25.2491884,28.1542503 25.2897764,28.3337812 25.2886489,28.506146 C25.2871457,28.6910704 25.2191233,28.7596391 25.0308404,28.7348593 C23.3874053,28.5188565 21.7526891,28.2594795 20.1657388,27.7598857 C20.1101559,27.7423852 20.0551368,27.7226217 19.998013,27.7108918 C19.9052997,27.6918072 19.805521,27.6779653 19.7597844,27.7845523 C19.7115675,27.89691 19.7999214,27.9522402 19.8811724,27.997387 C19.9904216,28.0581107 20.1060596,28.1060862 20.2222989,28.1518741 C20.7569696,28.3625589 21.2832597,28.5926678 21.8047018,28.8341671 C21.9966676,28.9230651 22.1620634,29.0437581 22.2928091,29.2137091 C22.5574574,29.5576843 22.7985422,29.9184434 23.0467298,30.2740731 C23.0865285,30.3311005 23.1633449,30.3920505 23.1118208,30.4714439 C23.0714208,30.5336763 22.9897564,30.5112349 22.925154,30.5112726 C21.1442085,30.5121401 19.3632254,30.5135356 17.5822423,30.5106692 C17.3218783,30.5102166 17.2835077,30.4808354 17.2955337,30.2224013 L17.3051341,29.8879778 L17.3051341,29.8879778 L17.3049015,29.5537659 L17.2689983,28.2166223 L17.274413,27.5461835 C17.3254861,26.2204079 17.3669008,24.8955375 17.4853574,23.573609 C17.6441765,21.8007034 17.8813903,20.039339 18.2313485,18.2934384 C18.3098184,17.9023174 18.3104197,17.8981686 18.6989739,17.8280157 C21.3148657,17.3558041 23.9563879,17.1151723 26.6073806,16.9824099 C27.6115559,16.9322469 28.6183619,16.8952846 29.6255438,16.9239492 C29.7326508,16.9269666 29.8431401,16.9341327 29.9416034,16.8745405 C29.9457973,16.8711734 29.9494945,16.867672 29.9547569,16.8700145 Z M23.454676,23.5214847 C23.3343404,23.542342 23.248993,23.5903552 23.1679675,23.6448179 C22.35899,24.1885402 21.6758727,24.8679667 21.0675048,25.6252403 C20.653959,26.1400339 20.304076,26.6969947 20.0281533,27.2984233 C20.0001551,27.3594864 19.886509,27.4915322 20.0818947,27.4801418 C20.7334436,27.4422366 21.3726283,27.5551978 22.0156838,27.6220693 L22.0156838,27.6220693 L22.4781982,27.7221314 C22.6190534,27.7537002 22.6612949,27.7237155 22.6415271,27.5598369 C22.5684688,26.9545235 22.5472353,26.3490969 22.6513358,25.7411433 C22.766147,25.0703916 22.9912972,24.4393555 23.2692118,23.8235568 L23.2692118,23.8235568 Z M20.4891645,15.5080687 L21.2242381,15.4252337 L21.9593117,15.3421158 L22.1213252,15.3437187 L22.2826997,15.3379669 C23.9139209,15.1799345 25.5498397,15.101484 27.186886,15.0641446 C29.5154302,15.0109642 31.8451019,15.0154902 34.1728945,15.1101588 C34.4081542,15.1197137 34.6432885,15.1321182 34.8783672,15.1460035 L36.288728,15.2361322 L37.1711254,15.2903026 L38.0534383,15.3447559 L38.7894233,15.4313155 L39.5251264,15.517875 C36.7746556,13.6448696 33.7365743,12.6823424 30.4369264,12.6038919 C26.8287351,12.5175209 23.505411,13.4815568 20.4891645,15.5080687 Z" id="Combined-Shape"></path>
            <path d="M9.43306248,19.3404843 C9.06622115,18.7781116 8.73190819,18.242871 8.37046854,17.7231344 C8.23929043,17.5342674 8.20305578,17.3795797 8.35658976,17.1981124 C8.41368201,17.1304585 8.45031094,17.0490625 8.49529869,16.9733043 C8.74456469,16.5543437 8.74523497,16.5529342 9.20240665,16.7682285 C10.4195991,17.3408197 11.6332825,17.9194011 12.8557978,18.4831831 C13.0451327,18.570217 13.0457636,18.643861 12.9460887,18.778464 C12.7988239,18.9768448 12.7589618,19.3182853 12.5369802,19.3655021 C12.3423619,19.407081 12.0769303,19.191082 11.8454464,19.0839634 C11.2499996,18.8087673 10.6565241,18.5303999 10.0609983,18.2555561 C9.98754332,18.2213768 9.92264426,18.1583037 9.79414728,18.1868452 C10.041639,18.5853686 10.2836502,18.975083 10.5259768,19.3647974 C10.6359425,19.541684 10.740743,19.7217419 10.8585944,19.8940478 C10.9503441,20.0286508 10.9276728,20.0751628 10.7437396,20.0896097 C10.0147489,20.147045 9.28698046,20.2164607 8.49959638,20.2869334 C8.70951289,20.3891189 8.87227311,20.470515 9.03712303,20.548035 C9.72246655,20.8711526 10.4061935,21.1970891 11.0958741,21.5128071 C11.2471607,21.5818704 11.2682154,21.6421246 11.1815914,21.770385 C11.0601915,21.9497382 10.9561795,22.1389575 10.8542178,22.3281417 C10.8051295,22.4191925 10.7574606,22.4289882 10.6583772,22.3820533 C9.31201746,21.7446625 7.96451428,21.1093505 6.61421169,20.4786193 C6.48512329,20.4183651 6.4805496,20.363044 6.55317661,20.2675534 C6.59690265,20.2101181 6.6405104,20.1473974 6.66046115,20.081153 C6.81797739,19.5603593 7.22148709,19.4211756 7.78487874,19.4310418 C8.31475629,19.4402032 8.8462504,19.3757206 9.43306248,19.3404843 Z" id="Fill-6"></path>
            <path d="M17.5878852,10.8561574 C18.0770903,11.6340851 18.5272281,12.3606812 18.9907507,13.0789631 C19.0904064,13.2333195 19.1015417,13.3150164 18.9131783,13.4003282 C18.6838727,13.504076 18.4603785,13.7827853 18.2588551,13.7278387 C18.081402,13.6793989 17.9814839,13.3576723 17.8527713,13.1530686 C17.2245056,12.1560776 16.6013764,11.1558331 15.9674493,10.1620954 C15.8724802,10.0135228 15.8754046,9.95640725 16.0312619,9.8353079 C16.448556,9.51068934 16.8384429,9.52081108 17.3156879,9.73192159 C18.0820019,10.0706383 18.8805971,10.3413947 19.6670821,10.6370941 C19.7401929,10.6645673 19.8116541,10.7249363 19.9112723,10.6819189 C19.9155839,10.5904618 19.8425106,10.5304543 19.7995064,10.4610481 C19.4032083,9.8237402 19.0059728,9.18679377 18.6011637,8.55454671 C18.5279779,8.43995419 18.5335643,8.38464613 18.6605522,8.32066229 C18.8363557,8.2317356 19.007285,8.13087973 19.1688412,8.01990211 C19.3186622,7.91687729 19.3963096,7.92302263 19.5003894,8.09183874 C20.1646107,9.17052669 20.8434916,10.2409004 21.517161,11.3141659 C21.770087,11.717228 21.7574519,11.7005994 21.3610412,11.965572 C21.1193631,12.1271583 20.9203142,12.1235434 20.65794,12.0190726 C19.7172099,11.6442069 18.7659443,11.2939225 17.8185405,10.9342393 C17.7662006,10.9147188 17.712436,10.8980903 17.5878852,10.8561574 Z" id="Fill-7"></path>
            <path d="M51.8246431,20.0871675 C51.8260657,20.3553482 51.7104815,20.5425321 51.4910493,20.65492 C51.2268061,20.7893979 50.9888804,20.7645951 50.7968328,20.5475702 C50.5030712,20.2150571 50.3928216,19.7627928 50.1879708,19.3709854 C50.143871,19.2868883 50.2199788,19.2706114 50.2637229,19.2458086 C50.5631749,19.0787769 50.8636939,18.9132955 51.1649241,18.7493642 C51.2097352,18.7249489 51.2709059,18.6703051 51.3054033,18.7536272 C51.4839365,19.1869018 51.7584934,19.5756089 51.8242875,20.0619771 C51.8257101,20.0701155 51.8246431,20.079029 51.8246431,20.0871675 Z M52.5224161,19.2551096 C52.259951,18.6714678 51.9821933,18.0948017 51.7275524,17.5068969 C51.6446874,17.3150624 51.5700022,17.3208755 51.4152972,17.4057478 C50.3988676,17.9653619 49.375325,18.5102493 48.358184,19.0687008 C48.1298608,19.1942652 47.7614139,19.2489089 47.7158915,19.4748473 C47.6728586,19.690322 47.9161189,19.9689664 48.0217451,20.2262959 C48.0722465,20.3487599 48.1199027,20.3704624 48.229441,20.3041923 C48.4421159,20.1755276 48.662615,20.0623646 48.8799133,19.9422259 C49.3546977,19.6802459 49.3482961,19.6833462 49.6011587,20.196455 C49.6804673,20.3584486 49.6815342,20.480525 49.5933346,20.6390307 C49.370346,21.0420769 49.1647839,21.4567494 48.9538872,21.8683215 C48.9129882,21.9481557 48.8578634,22.0233393 48.9087205,22.1291389 C49.065915,22.4535136 49.2167079,22.7808723 49.3820822,23.1325301 C49.6655302,22.5810157 49.9404428,22.0632564 50.1972176,21.5350333 C50.2818608,21.3602508 50.3291614,21.3466868 50.479243,21.4695383 C51.3082485,22.146966 52.6017246,21.5757255 52.7553627,20.4692862 C52.8158221,20.0367867 52.694192,19.6372284 52.5224161,19.2551096 Z" id="Fill-8"></path>
            <path d="M31.8027295,7.56913182 C31.8027295,8.32145131 31.7974806,9.0737708 31.807171,9.82609029 C31.8091898,9.98407338 31.7587189,10.0208694 31.6117474,10.0176698 C31.370698,10.0128703 31.1288411,10.0172698 30.8885992,10.0368677 C30.7270921,10.0500663 30.6964058,9.98687309 30.6947907,9.84328845 C30.6887342,9.31214529 30.6645081,8.78140209 30.6608742,8.25025893 C30.6600667,8.08627647 30.610807,8.0402814 30.445666,8.04828054 C29.9102699,8.07467772 29.3740662,8.09187588 28.8378626,8.09787523 C28.6727216,8.09987502 28.6258845,8.14667001 28.6343636,8.31145238 C28.6610123,8.83299657 28.6626274,9.35614058 28.6900836,9.87728481 C28.6985627,10.0400674 28.6581859,10.1008609 28.4910261,10.0980612 C28.2499767,10.0944616 28.0081198,10.1036606 27.7674742,10.1192589 C27.6310006,10.128058 27.5845673,10.0912619 27.5813372,9.94727732 C27.5494395,8.41584121 27.5110816,6.88480505 27.4703011,5.35376889 C27.4666672,5.22698246 27.4836254,5.16018961 27.6370572,5.16298931 C27.8777028,5.16658892 28.1199634,5.15459021 28.3598015,5.13379243 C28.5160597,5.11979393 28.5540138,5.17658785 28.5564364,5.3237721 C28.5649156,5.84571625 28.5943906,6.36766039 28.6004471,6.89000449 C28.6020622,7.05118724 28.642439,7.10278172 28.8112139,7.09558249 C29.34661,7.07198502 29.8828137,7.05678664 30.4190173,7.0571866 C30.610807,7.0571866 30.6330142,6.98039482 30.6261502,6.81961203 C30.6051543,6.31566595 30.6043467,5.81052001 30.5821395,5.30657394 C30.5748717,5.13979179 30.6116145,5.06499979 30.7965402,5.07499872 C31.0101334,5.08659748 31.2265529,5.08299787 31.4397423,5.06339996 C31.6214378,5.04660176 31.6880595,5.09339675 31.6852331,5.28617612 C31.6755427,6.04689472 31.6811954,6.80801327 31.6811954,7.56953177 C31.721976,7.56913182 31.7623528,7.56913182 31.8027295,7.56913182 Z" id="Fill-9"></path>
            <path d="M49.8795181,15.7250308 C49.8124003,15.7872662 49.759988,15.8413332 49.7022969,15.8895656 C49.5345024,16.0295953 49.3625601,16.2800927 49.1966509,16.276203 C49.0043471,16.2719243 48.8908502,15.9720275 48.7460567,15.7989353 C48.3923685,15.3749567 48.0413197,14.9482554 47.7034683,14.5110517 C47.599775,14.3764677 47.5386903,14.3904707 47.4319805,14.493937 C47.2562676,14.6643064 46.9489586,14.8004463 46.9180391,14.9894863 C46.8863655,15.182027 47.178592,15.3749567 47.3297956,15.5671085 C47.5763969,15.8813972 47.8248836,16.194519 48.0820429,16.4994724 C48.196294,16.6352234 48.2170326,16.7145735 48.0179416,16.7608611 C47.775488,16.8172619 47.525493,17.031196 47.3120734,16.9534018 C47.1137365,16.8806642 46.9828945,16.6064395 46.826412,16.4177885 C46.6363706,16.1890734 46.4459521,15.9603584 46.2653373,15.7238639 C46.1861534,15.6203976 46.1292164,15.6036718 46.0311791,15.6989697 C45.8856315,15.8405553 45.734805,15.9782511 45.5726665,16.0984432 C45.4346602,16.2007426 45.4176922,16.2699794 45.5375993,16.4135098 C46.0006367,16.9674048 46.4451979,17.5376365 46.9048418,18.0946433 C47.0002396,18.2097787 47.0164534,18.274348 46.8867426,18.3715907 C46.6985865,18.5127873 46.5258901,18.7947914 46.3460295,18.7951807 C46.1597587,18.7955693 46.0311791,18.4770019 45.8811067,18.2953524 C45.3132448,17.6072624 44.7525472,16.9129488 44.1824229,16.2268036 C44.0768443,16.099999 44.0530891,16.0319291 44.1990138,15.9074583 C45.2928832,14.9766503 46.3792113,14.0361179 47.4640312,13.0940297 C47.5809217,12.9925082 47.6446459,12.9711148 47.7570117,13.1115334 C48.4206484,13.9415979 49.0955972,14.7615492 49.7663982,15.5850012 C49.8022195,15.6289549 49.8376637,15.6732976 49.8795181,15.7250308 Z" id="Fill-10"></path>
            <path d="M35.4817562,8.89073941 C35.010948,8.79124846 34.5587931,8.70044037 34.1092496,8.59950228 C33.9465931,8.56332376 33.8525807,8.57019768 33.8331813,8.76917956 C33.8111705,8.99782784 33.6257571,9.26518714 33.7298423,9.4352262 C33.8346736,9.60635062 34.1607325,9.56908674 34.3897945,9.62009846 C34.9042514,9.73478439 35.4198274,9.84114925 35.9357765,9.94823768 C36.0697069,9.97609514 36.1592426,10.0017819 36.0965676,10.1772477 C36.0219546,10.387445 36.058515,10.6967714 35.9178694,10.8049451 C35.7727471,10.9167368 35.4877253,10.7535716 35.2650054,10.7079867 C34.4103131,10.5332444 33.5582323,10.3454779 32.7035401,10.1692885 C32.542749,10.1360042 32.5050694,10.0889721 32.5446143,9.91748593 C32.8449318,8.61469726 33.1321919,7.30901431 33.41311,6.002246 C33.4548933,5.80760554 33.5063763,5.75008168 33.727977,5.80036983 C34.7068999,6.02286776 35.6910458,6.22474393 36.6751917,6.42589652 C36.8348635,6.4584572 36.9094766,6.49246501 36.843444,6.67046335 C36.7692041,6.87125416 36.8158372,7.16683271 36.6557923,7.26885615 C36.4931359,7.37268851 36.2349748,7.21712086 36.0189701,7.1744302 C35.4940674,7.0713214 34.9695378,6.96423297 34.4479927,6.84520562 C34.3092125,6.81373031 34.2581026,6.82892529 34.2394493,6.97363939 C34.2084849,7.20988515 34.0309059,7.48484194 34.134618,7.66392564 C34.2316149,7.83107042 34.5655082,7.79380654 34.7949433,7.84735076 C35.1553242,7.93164672 35.5183166,8.00472734 35.8816821,8.07780796 C36.0141202,8.10421828 36.0656032,8.14329109 35.9738292,8.27461913 C35.858179,8.4395932 35.7574514,8.61469726 35.6570969,8.78943954 C35.6115829,8.86903229 35.5615922,8.91895866 35.4817562,8.89073941 Z" id="Fill-11"></path>
            <path d="M14.0513723,14.8053117 C13.8398206,14.3409578 13.6354148,13.8930983 13.4091428,13.3964726 C13.9073485,13.58831 14.3646445,13.7643701 14.8561689,13.9536974 C14.5828417,14.2427084 14.3285224,14.5119978 14.0513723,14.8053117 Z M17.1869528,13.8425393 C15.9642693,13.3975484 14.7444799,12.9435931 13.5227611,12.4946579 C13.3093159,12.41613 13.0777917,12.2601502 12.8809961,12.2938562 C12.6684798,12.3307893 12.5558261,12.6180075 12.3780384,12.7725531 C12.2682431,12.8672167 12.2710657,12.9514817 12.3276605,13.0791342 C12.7412241,14.0117864 13.1453196,14.9487415 13.5527021,15.8846209 C13.7604307,16.3615249 13.9676949,16.8387875 14.1901796,17.3493976 C14.4026602,17.1206271 14.5809481,16.9187497 14.7715625,16.7294223 C14.8547397,16.6469502 14.8585627,16.5813311 14.8091137,16.4816474 C14.7002831,16.2621998 14.610889,16.0327121 14.4996645,15.8146989 C14.4368886,15.6917078 14.4449991,15.6117457 14.5462552,15.5088348 C14.8737833,15.1760777 15.1989533,14.8386592 15.504115,14.4851047 C15.6500681,14.3162162 15.7736549,14.2731872 15.9799544,14.3739466 C16.2119787,14.486539 16.4881642,14.6672606 16.6992157,14.6181359 C16.9126609,14.5690112 17.0605077,14.2652986 17.253516,14.0910314 C17.4194059,13.9418644 17.3523782,13.9031384 17.1869528,13.8425393 Z" id="Fill-12"></path>
            <path d="M40.043276,7.22891566 C40.801038,7.3166092 41.4552261,7.79007566 41.900131,8.62925957 C41.9478248,8.71970582 41.9342997,8.77200735 41.8545727,8.81487101 C41.8403358,8.82234266 41.8275225,8.83256702 41.8139974,8.8412184 C41.6250018,8.96666341 41.4406332,9.18058846 41.2459428,9.19199255 C41.0484051,9.20378989 40.9939487,8.86835227 40.8473081,8.7106612 C40.6348215,8.4821861 40.4123691,8.28202462 40.1162404,8.20966762 C39.9414818,8.16680396 39.7809601,8.20180273 39.678454,8.37758305 C39.5770157,8.55179039 39.603354,8.72167205 39.7218767,8.88172259 C39.8678055,9.07913136 40.0482589,9.23446297 40.2223057,9.39726622 C40.4273179,9.58877632 40.6287708,9.78382563 40.8021057,10.0107277 C41.1548263,10.4731834 41.2082149,10.9706377 40.9533734,11.5101693 C40.7020911,12.0430157 40.300609,12.3001976 39.7652994,12.2887935 C38.7373912,12.2671651 37.9025005,11.2569198 37.6088633,10.5667756 C37.5601017,10.4527346 37.6159818,10.4322859 37.6807599,10.3976804 C37.8505356,10.3068409 38.0248315,10.2254393 38.1889125,10.1231957 C38.3188247,10.0425806 38.3850265,10.0594901 38.457635,10.2144284 C38.6533932,10.6332339 38.9306579,10.971031 39.3268012,11.1735519 C39.4421205,11.2325386 39.5599313,11.2773685 39.6880639,11.2844469 C39.8482297,11.2934915 39.9856163,11.2498414 40.0699703,11.0842854 C40.1582394,10.9100781 40.1286977,10.7504208 40.0190732,10.6013811 C39.8941439,10.4318927 39.7428762,10.2922909 39.5948119,10.1483633 C39.3880201,9.94741537 39.1773131,9.74961335 38.9847583,9.53254235 C38.5928861,9.0909287 38.5192098,8.58128374 38.7651533,8.02444943 C38.9989953,7.49553548 39.3915793,7.240713 40.043276,7.22891566 Z" id="Fill-13"></path>
            <path d="M24.0523846,10.8433735 C22.8412944,10.8503775 21.9306765,10.0015379 21.7294972,8.80736782 C21.5203958,7.56660553 22.0924584,6.42255143 23.1369708,5.99069255 C23.7731564,5.7275836 24.4055053,5.69547804 25.0389199,6.00557073 C25.168587,6.06899878 25.1977176,6.13281836 25.1259567,6.27533571 C25.0307491,6.46366221 24.9497161,6.66177698 24.8765697,6.86184941 C24.8253778,7.00201757 24.772836,7.04234528 24.6371297,6.9671713 C24.3877427,6.82896079 24.1188168,6.77062265 23.8374571,6.80664352 C23.2247536,6.88534128 22.8154321,7.30193045 22.6993001,7.9655758 C22.5833814,8.62804654 22.8864825,9.35903525 23.4072467,9.67304325 C23.8953632,9.96786623 24.5270015,9.8582375 24.9479754,9.40053755 C25.0314596,9.31009385 25.1220489,9.21416871 25.1710737,9.1010162 C25.2680576,8.87784343 25.3810278,8.90368449 25.5337862,9.02153538 C25.6424934,9.10532305 25.7597266,9.18245469 25.8822886,9.23726905 C26.067375,9.31988213 26.0471256,9.42402942 25.9583126,9.58416567 C25.4900902,10.4283069 24.7855896,10.7983038 24.0523846,10.8433735 Z" id="Fill-14"></path>
            <path d="M43.9454908,11.0020507 C43.9468922,10.9109966 43.8782247,10.890013 43.8323297,10.8517927 C43.5688711,10.6337126 43.3068138,10.4133842 43.0373993,10.2035476 C42.938252,10.1263578 42.9347485,10.070901 43.0125249,9.97347683 C43.137948,9.81609941 43.2588167,9.65235194 43.3649709,9.47961148 C43.4392438,9.35820604 43.4945981,9.38930682 43.5797317,9.45900253 C44.4412274,10.1638286 45.3034239,10.8690293 46.1712258,11.5656118 C46.289642,11.6607877 46.2917441,11.720741 46.2013553,11.8335281 C46.080837,11.9845355 45.9694277,12.1452853 45.8667769,12.3105316 C45.7960074,12.4244429 45.7403027,12.4180728 45.6478119,12.3390094 C45.4001188,12.1261752 45.1387622,11.9309522 44.8956235,11.7128721 C44.7645949,11.5952137 44.6990806,11.5985861 44.5918753,11.7529659 C43.9945389,12.6102981 43.3810867,13.4548903 42.7834,14.3122226 C42.6723409,14.4710988 42.5963163,14.5156891 42.4498725,14.3665553 C42.2778537,14.1911918 41.9485304,14.0915195 41.9285608,13.8816829 C41.9110436,13.6992 42.1685464,13.4844923 42.3086839,13.2873958 C42.8212371,12.5694549 43.3358923,11.8526382 43.8498469,11.1350721 C43.8827792,11.0893577 43.9157115,11.0436433 43.9454908,11.0020507 Z" id="Fill-15"></path>
            <path d="M21.686747,52.4035409 C21.6856529,50.9173886 22.840967,49.8089473 24.2939066,49.8830235 C24.9078088,49.9146601 25.4563942,50.0875044 25.9241831,50.5072692 C26.0272553,50.5998643 26.0499085,50.6573505 25.9449486,50.7661498 C25.7871312,50.9301204 25.6387526,51.1060512 25.5013231,51.2885408 C25.4167511,51.4008125 25.363516,51.387309 25.2668623,51.3035875 C24.8557064,50.9463245 24.3822541,50.7823539 23.8476004,50.9154595 C23.27942,51.0566671 22.9505708,51.4552121 22.8338312,52.0285305 C22.7028578,52.6728385 22.8524823,53.2426845 23.370788,53.656662 C23.8310258,54.024342 24.3463865,54.0046655 24.8632575,53.7754925 C24.9614214,53.7318956 25.0527894,53.6674648 25.1407594,53.603034 C25.4412921,53.3831205 25.4401594,53.3815773 25.6927428,53.6474025 C25.7157735,53.6720946 25.7391819,53.6967866 25.7625902,53.7210928 C26.1178682,54.0937884 26.1246641,54.1038195 25.6995387,54.4194147 C24.8647677,55.0386448 23.9653972,55.089958 23.0472245,54.6543749 C22.2027503,54.2542866 21.6874651,53.3680738 21.686747,52.4035409 Z" id="Fill-16"></path>
            <path d="M33.9759036,49.8839899 C34.3286623,49.8839899 34.6334458,49.8927865 34.9375238,49.8799914 C35.0743942,49.8743935 35.1452987,49.9299723 35.2123228,50.0611222 C35.5231032,50.6712892 35.8437609,51.2750587 36.1721792,51.9032189 C36.5055362,51.2734593 36.8290159,50.66929 37.1440294,50.0599227 C37.210348,49.9319715 37.2812525,49.8735938 37.4181229,49.8799914 C37.7143344,49.8931864 38.0110044,49.8839899 38.3080273,49.8839899 C38.3323676,49.9847514 38.2656962,50.0367315 38.2311259,50.098308 C37.7379692,50.9791717 37.2442129,51.8588358 36.7454121,52.735701 C36.6829738,52.8452592 36.6533421,52.9516185 36.6544003,53.0807692 C36.6586335,53.620963 36.6512255,54.1611567 36.659339,54.7009506 C36.6618083,54.8592901 36.6279434,54.9244653 36.4787265,54.9148689 C36.2226237,54.8980753 35.8882085,55.008833 35.7301726,54.8644882 C35.564376,54.7133459 35.6575043,54.3134985 35.685725,54.0324059 C35.7629791,53.2611004 35.5650815,52.6129479 35.1654059,51.9895859 C34.74139,51.3286383 34.3836927,50.6129115 33.9759036,49.8839899 Z" id="Fill-17"></path>
            <path d="M31.458637,49.8836763 C31.9833551,49.8836763 32.5080733,49.8900789 33.032448,49.8796746 C33.1842317,49.8768735 33.2525687,49.9100871 33.2378024,50.106968 C33.2192587,50.3610723 33.305796,50.6936088 33.1969375,50.8516737 C33.0812111,51.0193426 32.7845118,50.8900895 32.5674818,50.9036951 C32.423253,50.9128988 32.2769638,50.9217025 32.134452,50.9016942 C31.9431771,50.8744831 31.9136445,50.971723 31.9150181,51.1694042 C31.9222296,52.3474878 31.9146747,53.5259717 31.9222296,54.7044555 C31.9236032,54.8905319 31.8820516,54.9521572 31.7209961,54.9377513 C31.532125,54.9209444 31.3405067,54.9213446 31.1512923,54.9377513 C30.992984,54.9513569 30.9641382,54.8765262 30.9651684,54.710458 C30.9703194,53.5319741 30.9627646,52.3534903 30.9723798,51.1754066 C30.9740969,50.9533154 30.9232734,50.8884888 30.7333721,50.9000936 C30.4225934,50.9197016 30.1100976,50.9004938 29.7982886,50.9080969 C29.681532,50.910898 29.6355161,50.8712818 29.6416974,50.7288233 C29.6506258,50.5167362 29.6561202,50.3022481 29.6403238,50.0913616 C29.6255575,49.8968817 29.7041965,49.8792745 29.8391535,49.8808751 C30.3789813,49.8876779 30.9188091,49.8836763 31.458637,49.8836763 Z" id="Fill-18"></path>
            <path d="M27.4730749,52.7660602 C27.4730749,52.111209 27.4774807,51.4560138 27.4699649,50.8015067 C27.4678916,50.6377079 27.5031378,50.5929729 27.6220937,50.6039846 C27.7762958,50.6180933 27.9317937,50.6125875 28.0865142,50.6053611 C28.1707422,50.6015758 28.1927711,50.6432137 28.1925119,50.7502336 C28.1904386,52.0981327 28.1904386,53.4460317 28.1927711,54.7939308 C28.1927711,54.9064565 28.160894,54.9391474 28.0818492,54.9367386 C27.9214272,54.9322651 27.7602277,54.9253828 27.600324,54.9388033 C27.4862922,54.9484385 27.4702241,54.8851213 27.4710016,54.7533252 C27.4754074,54.0909036 27.4730749,53.4284819 27.4730749,52.7660602 Z" id="Fill-19"></path>
            <path d="M50.9602799,30.2848067 C50.6719031,30.2818413 50.5066949,30.1195355 50.5140703,29.8463482 C50.5207081,29.5841215 50.6870226,29.4308244 50.96323,29.4317957 C51.2276368,29.4328138 51.4367284,29.622596 51.4418912,29.8653039 C51.4463164,30.1000543 51.2313245,30.2873216 50.9602799,30.2848067 Z M52.0120068,29.8892895 C51.8999013,29.1581251 51.4780304,28.8525067 50.7530321,28.9264152 C50.3318988,28.9688684 49.9918945,29.2789911 49.9011775,29.7029981 C49.8200485,30.0800476 49.9708747,30.4751143 50.2858028,30.6489062 C50.644983,30.8476595 51.0163326,30.8326826 51.3961639,30.6454153 C51.3961639,30.6923729 51.4028017,30.7258175 51.3950576,30.7552833 C51.2759455,31.2182527 50.8784133,31.3745903 50.4299912,31.1113876 C50.2754773,31.0210009 50.2046738,31.0389431 50.1316577,31.1877735 C50.0988373,31.2536867 50.0538476,31.3151332 50.0059077,31.3715874 C49.9502237,31.4384766 49.9668183,31.479466 50.0261899,31.5358451 C50.4561737,31.9458887 51.3471177,31.8819649 51.7092481,31.4070214 C52.0544152,30.9535486 52.0938734,30.4236524 52.0120068,29.8892895 Z" id="Fill-20"></path>
            <path d="M53.9601121,30.6599062 C53.7980251,30.6578556 53.6362771,30.6594125 53.4223087,30.6594125 C53.6474672,30.365825 53.8390555,30.116213 54.074726,29.8090303 C54.074726,30.0889467 54.0737087,30.2905579 54.0750651,30.4916374 C54.0757433,30.5825884 54.0689614,30.6619189 53.9601121,30.6599062 Z M54.8505736,30.6775648 C54.5484406,30.6871725 54.6054084,30.4780042 54.6040521,30.2864945 C54.6026957,30.1263144 54.6033739,29.966666 54.6033739,29.8070176 C54.6033739,29.6134951 54.6108339,29.419479 54.6006611,29.2269439 C54.5952356,29.1299549 54.6647499,28.9682558 54.5297904,28.9500656 C54.3833017,28.9298627 54.2018863,28.8581272 54.0815079,29.0116996 C53.6556055,29.5548992 53.2408933,30.1081242 52.8200773,30.6563365 C52.7112281,30.7978327 52.8149909,30.9271768 52.8339802,31.0585336 C52.8543258,31.1990044 52.9686006,31.1636494 53.0537132,31.1646367 C53.286671,31.1671811 53.5192896,31.1651684 53.7522474,31.1651684 C54.0665877,31.1656621 54.0635359,31.1656621 54.0709959,31.5178456 C54.0730305,31.6012015 54.027931,31.7093174 54.1306765,31.7618752 C54.3788935,31.888713 54.6098167,31.7386343 54.6006611,31.4470975 C54.5948965,31.2626512 54.6087994,31.130307 54.8214115,31.1616367 C54.9309389,31.1783079 54.9441636,31.0782428 54.9292434,30.9933679 C54.9099151,30.8827077 55.0024878,30.6730457 54.8505736,30.6775648 Z" id="Fill-21"></path>
            <path d="M8.28579161,31.2732384 C8.17667058,31.2807565 8.05763286,31.2567739 7.95496142,31.1782477 C7.75110977,31.0231877 7.77239713,30.7730993 8.00059317,30.6570956 C8.09633037,30.6085665 8.20000839,30.580073 8.30812283,30.582554 C8.56905145,30.5875535 8.76593158,30.7411099 8.76795346,30.9366548 C8.76943598,31.1332521 8.57945281,31.2707575 8.28579161,31.2732384 Z M8.30267983,29.4287194 C8.52092188,29.4297343 8.68163959,29.5747953 8.68163959,29.7698139 C8.68163959,29.9588931 8.51048325,30.112412 8.30018202,30.1114393 C8.09036543,30.109931 7.92219156,29.9563746 7.92219156,29.7653406 C7.92271349,29.5702845 8.08391585,29.4272533 8.30267983,29.4287194 Z M9.27488964,30.6310831 C9.05959277,30.3870092 9.02287114,30.2579617 9.20640473,29.9584045 C9.46088376,29.5422797 9.11763904,29.0611237 8.55466105,28.9420752 C8.09383255,28.8445659 7.60127806,29.0246235 7.41826641,29.3572226 C7.24662541,29.6692974 7.30765415,29.9528787 7.638969,30.3175047 C7.31112127,30.5045541 7.17668655,30.7765952 7.24714734,31.1227268 C7.32252921,31.495322 7.60921888,31.6648543 7.94306883,31.7534171 C8.30514037,31.8494227 8.66378207,31.8214179 8.99561885,31.6333536 C9.36167944,31.4258175 9.53082262,30.9221449 9.27488964,30.6310831 Z" id="Fill-22"></path>
            <path d="M6.49995119,30.3852708 C6.4999961,30.7784183 6.48719633,31.1719905 6.50534057,31.5645205 C6.51450251,31.7637384 6.43226959,31.8287419 6.21575133,31.8012196 C6.16711219,31.7950435 6.11559872,31.7950821 6.06691468,31.8012196 C5.8495431,31.8287805 5.77305885,31.7614996 5.77799911,31.5637099 C5.79290972,30.9657473 5.77575354,30.3671671 5.78769999,29.7690887 C5.79156238,29.5765873 5.7360967,29.5354776 5.51885985,29.5922205 C5.23236951,29.6670672 5.00421918,29.4560761 5.07239481,29.2053649 C5.0864521,29.15364 5.12489633,29.1341081 5.1713348,29.1227981 C5.53251295,29.0350588 5.88035238,28.9052835 6.27058825,28.9163232 C6.45840807,28.9216501 6.50632862,28.9783545 6.503095,29.1289742 C6.49406779,29.5475982 6.49995119,29.9664538 6.49995119,30.3852708 Z" id="Fill-23"></path>
        </g>
    </g>
</svg>