<?xml version="1.0" encoding="UTF-8"?>
<svg width="150px" height="60px" viewBox="0 0 150 60" version="1.1" xmlns="http://www.w3.org/2000/svg" xmlns:xlink="http://www.w3.org/1999/xlink">
    <title>Artboard</title>
    <g id="Artboard" stroke="none" stroke-width="1" fill="none" fill-rule="evenodd">
        <path d="M75.223084,60.000003 C58.5293635,59.9929601 45,46.5597654 45,29.9964831 C45,13.4254904 58.5370472,-0.0073690977 75.223084,3.03299034e-06 C91.9321719,3.03299034e-06 105.461535,13.4332008 105.461535,29.9964831 C105.461535,46.5671405 91.9244882,60.000003 75.223084,60.000003 Z M50.4250843,44.3076931 L50.9999997,43.8769239 C49.3391329,40.9463257 48.7006929,38.9924797 47.9738862,36.8235909 C47.9100067,36.6618815 47.8702595,36.5538473 47.7982176,36.4615397 C47.750308,36.5842747 47.7744402,36.6926508 47.7822477,36.8307704 C48.245374,39.2000011 49.3632651,42.1849582 50.4250843,44.3076931 L50.4250843,44.3076931 Z M75.6574883,2.99938178 L79.7893929,27.019361 L75.4688046,29.5488927 L75.3254453,3.00710093 C75.3254453,2.68994457 75.1139315,2.68994457 75.0686071,3.00710093 L72.6284769,28.1822677 L70.8158375,27.132799 L74.6982902,3.00743654 C59.6512681,3.09771703 47.7692306,15.1718092 47.7692306,30.0925894 C47.7692306,34.804291 49.249827,39.7579713 51.379737,43.6162035 L70.3397637,27.8573922 L72.1597893,28.8991417 L50.8737827,44.1901055 C50.3601064,44.5525699 50.5111876,44.7264186 51.0775745,44.4169814 L74.8490357,30.6889776 L74.8490357,35.6275551 L51.8930776,44.3864404 C56.6971259,52.2321167 65.2177732,57.2307694 75.1585844,57.2307694 C85.0769013,57.2307694 93.740908,52.2247332 98.5449563,44.3941595 L75.6269363,35.6426578 L75.6269363,30.7040802 L98.4922457,43.8880518 C99.0129725,44.1750028 99.1643895,44.0165924 98.6732075,43.6692307 L78.3165185,28.9071965 L80.1368798,27.8651113 L99.0817984,43.6390253 C101.257369,39.7579713 102.692305,34.7969075 102.692305,30.0472813 C102.692305,15.3151169 90.440286,3.3997707 75.6574883,2.99938178 Z M103.8897,24.658801 C103.941906,24.8016445 103.987084,24.9217933 104.055018,25.0042287 C104.100197,24.8840799 104.062715,24.7789498 104.055018,24.6437824 C101.562854,11.0676401 89.756947,0.923079909 75.1121745,0.923079909 C58.7208454,0.923079909 45.4615384,14.1764893 45.4615384,30.5157192 C45.4615384,34.3751644 46.448097,38.0550539 47.7883843,41.4262278 C48.4058201,42.9801518 50.3782679,46.5248739 50.8601689,47.2230717 C50.9655848,47.3729239 51.010763,47.4480169 51.1312383,47.5384622 C51.1238759,47.3956186 51.1165135,47.3278681 51.0408818,47.1553211 C50.9578878,47.0124776 49.2789311,43.8211931 48.3077666,41.4482551 C47.4794991,39.4060599 46.448097,35.3366882 46.448097,30.6205157 C46.448097,14.7692231 59.3459781,1.90629725 75.2400122,1.90629725 C83.5528055,1.91363968 91.3683037,5.96098412 96.1565262,11.2024737 C99.7935406,15.1827351 101.675967,17.856045 103.8897,24.658801 Z M51.1926085,44.3459273 L50.5384613,44.5869722 C54.7875771,52.7106183 63.6992888,58.6153847 75.0627991,58.6153847 C91.1868434,58.6230707 104.07692,45.5722138 104.07692,29.8290765 C104.07692,25.977708 102.963834,23.6160702 102.33977,21.9086971 C101.881499,20.6299224 100.895766,18.66646 100.459556,17.8617513 C100.369306,17.7036179 100.309473,17.6360852 100.18914,17.5384637 C100.196159,17.6812184 100.204181,17.7641298 100.294097,17.9222633 C100.633037,18.5915723 101.384454,20.276546 101.918268,21.9688747 C102.64027,24.2178466 103.091521,26.7376178 103.091521,29.8294108 C103.091521,34.7409086 101.550247,39.7657409 99.2789489,43.7668848 C99.4069706,44.0978618 99.2859684,44.2636846 98.9029062,44.3689954 C93.9464957,52.3425317 85.1099926,57.5622727 75.0551111,57.5549177 C65.6092516,57.5549177 58.0586476,52.4923072 55.6747037,49.8675594 C53.7346574,47.7309192 52.2983413,46.1442356 51.1926085,44.3459273 Z M73.6153832,28.8041224 L74.8443609,29.5384631 L74.9999985,9.99530969 C74.9999985,9.60155234 74.8818718,9.58640783 74.8519289,9.98016518 L73.6153832,28.8041224 Z M75.9230754,30.2728221 L92.7390311,40.0662734 C93.0402723,40.2387894 93.1005206,40.133881 92.8150108,39.9467111 L77.2036854,29.5384631 L75.9230754,30.2728221 L75.9230754,30.2728221 Z M73.343751,29.5384631 L69.1280346,33.0205357 C68.8952383,33.2174306 69.0004476,33.3084608 69.2783335,33.1496637 L74.53846,30.2063548 L73.343751,29.5384631 Z" id="Shape" fill="#9DA6B9" fill-rule="nonzero"></path>
    </g>
</svg>