<?xml version="1.0" encoding="UTF-8"?>
<svg width="150px" height="60px" viewBox="0 0 150 60" version="1.1" xmlns="http://www.w3.org/2000/svg" xmlns:xlink="http://www.w3.org/1999/xlink">
    <title>Artboard</title>
    <g id="Artboard" stroke="none" stroke-width="1" fill="none" fill-rule="evenodd">
        <g id="Combined-Shape-3" transform="translate(26.500000, 16.000000)" fill="#9DA6B9">
            <path d="M95.5,0 L95.5,28 L-0.5,28 L-0.5,0 L95.5,0 Z M10.6444933,2.33333333 L1.84146341,2.33333333 L1.84146341,25.6666667 L7.66661721,25.6666667 L7.66661721,12.5384487 L12.171104,25.6666667 L17.2598063,25.6666667 L21.8257284,12.5384487 L21.8257284,25.6666667 L27.597561,25.6666667 L27.597561,2.33333333 L18.786417,2.33333333 L14.7235692,14.7777778 L10.6444933,2.33333333 Z M70.7610351,8.16666667 C65.3039991,8.16666667 61.147539,11.3773274 61.147539,16.9323958 C61.147539,22.4552387 65.3039991,25.6666667 70.7610351,25.6666667 C76.2184502,25.6666667 80.3745313,22.4552387 80.3745313,16.9323958 C80.3745313,11.3773274 76.2184502,8.16666667 70.7610351,8.16666667 Z M35.6500347,8.55183854 L29.9390244,8.55183854 L29.9390244,25.2811112 L35.6500347,25.2811112 L35.6500347,8.55183854 Z M47.8226063,8.16666667 C45.3484417,8.16666667 43.9204996,9.51515185 42.936823,11.6343644 L42.8735189,11.6343644 L42.8735189,8.5514549 L37.6696991,8.5514549 L37.6696991,25.2811112 L43.3810885,25.2811112 L43.3810885,18.2171972 C43.3810885,14.9417017 44.8719556,12.9828496 47.5371695,12.9828496 C48.2035678,12.9828496 48.5955222,12.9893714 49.2300789,13.182341 L49.878661,8.37191263 C49.3074084,8.27561967 48.4890046,8.16666667 47.8226063,8.16666667 Z M60.4815198,8.16666667 C58.006597,8.16666667 56.579413,9.51515185 55.5957364,11.6343644 L55.5324324,11.6343644 L55.5324324,8.5514549 L50.3286125,8.5514549 L50.3286125,25.2811112 L56.0396229,25.2811112 L56.0396229,18.2171972 C56.0396229,14.9417017 57.5452735,12.9540768 60.0455937,12.9713405 C60.7116129,12.9759441 61.0872675,13.0047169 61.7441891,13.1838755 L62.4170315,8.3592526 C61.8457788,8.262576 61.1479181,8.16666667 60.4815198,8.16666667 Z M91.2230249,8.16666667 C88.7484812,8.16666667 87.3205391,9.51515185 86.3368625,11.6343644 L86.2735584,11.6343644 L86.2735584,8.5514549 L81.0704967,8.5514549 L81.0704967,25.2811112 L86.781128,25.2811112 L86.7727885,18.2133608 C86.7727885,14.938249 88.2727532,12.9828496 90.9372091,12.9828496 C91.6039864,12.9828496 91.8719861,12.9893714 92.5065428,13.182341 L93.1585366,8.3592526 C92.587663,8.262576 91.8894232,8.16666667 91.2230249,8.16666667 Z M70.7610351,12.2121222 C73.3944076,12.2121222 74.4732298,14.4280114 74.4732298,16.9323958 C74.4732298,19.4045547 73.3944076,21.6204439 70.7610351,21.6204439 C68.1280418,21.6204439 67.0492196,19.4045547 67.0492196,16.9323958 C67.0492196,14.4280114 68.1280418,12.2121222 70.7610351,12.2121222 Z M35.7926829,2.33333333 L29.9390244,2.33333333 L29.9390244,7 L35.7926829,7 L35.7926829,2.33333333 Z" id="Combined-Shape"></path>
        </g>
    </g>
</svg>