<?xml version="1.0" encoding="UTF-8"?>
<svg width="188px" height="55px" viewBox="0 0 188 55" version="1.1" xmlns="http://www.w3.org/2000/svg" xmlns:xlink="http://www.w3.org/1999/xlink">
    <title>Combined Shape</title>
    <g id="Page-1" stroke="none" stroke-width="1" fill="none" fill-rule="evenodd">
        <g id="iPhone-X" transform="translate(-516.000000, -3212.000000)" fill="#9DA6B9">
            <path d="M703.318841,3212 L703.318841,3267 L516,3267 L516,3212 L703.318841,3212 Z M655.382144,3228.42029 C644.634821,3228.42029 636.448908,3234.67942 636.448908,3245.50892 C636.448908,3256.27561 644.634821,3262.53623 655.382144,3262.53623 C666.130214,3262.53623 674.31538,3256.27561 674.31538,3245.50892 C674.31538,3234.67942 666.130214,3228.42029 655.382144,3228.42029 Z M586.233018,3229.17118 L574.985507,3229.17118 L574.985507,3261.7846 L586.233018,3261.7846 L586.233018,3229.17118 Z M610.206208,3228.42029 C605.333481,3228.42029 602.52123,3231.04914 600.583935,3235.18051 L600.459261,3235.18051 L600.459261,3229.17043 L590.210633,3229.17043 L590.210633,3261.7846 L601.458891,3261.7846 L601.458891,3248.01362 C601.458891,3241.6281 604.395069,3237.80935 609.644057,3237.80935 C610.95649,3237.80935 611.728422,3237.82207 612.978146,3238.19826 L614.255492,3228.82041 C613.130442,3228.63269 611.518642,3228.42029 610.206208,3228.42029 Z M635.137221,3228.42029 C630.263001,3228.42029 627.452243,3231.04914 625.514948,3235.18051 L625.390274,3235.18051 L625.390274,3229.17043 L615.141646,3229.17043 L615.141646,3261.7846 L626.389157,3261.7846 L626.389157,3248.01362 C626.389157,3241.6281 629.35445,3237.75326 634.278689,3237.78692 C635.590376,3237.79589 636.330207,3237.85198 637.623977,3238.20125 L638.949102,3228.79573 C637.824052,3228.60726 636.449655,3228.42029 635.137221,3228.42029 Z M695.680873,3228.42029 C690.8074,3228.42029 687.995148,3231.04914 686.057853,3235.18051 L685.933179,3235.18051 L685.933179,3229.17043 L675.686044,3229.17043 L675.686044,3261.7846 L686.932809,3261.7846 L686.916385,3248.00614 C686.916385,3241.62137 689.87048,3237.80935 695.117975,3237.80935 C696.431155,3237.80935 696.958965,3237.82207 698.208689,3238.19826 L699.492754,3228.79573 C698.36845,3228.60726 696.993307,3228.42029 695.680873,3228.42029 Z M538.260924,3217.10145 L521.26087,3217.10145 L521.26087,3261.73913 L532.51017,3261.73913 L532.51017,3236.62428 L541.209052,3261.73913 L551.036148,3261.73913 L559.853671,3236.62428 L559.853671,3261.73913 L571,3261.73913 L571,3217.10145 L553.984276,3217.10145 L546.13827,3240.90821 L538.260924,3217.10145 Z M655.382144,3236.30683 C660.568422,3236.30683 662.693101,3240.62667 662.693101,3245.50892 C662.693101,3250.32835 660.568422,3254.64819 655.382144,3254.64819 C650.196613,3254.64819 648.071934,3250.32835 648.071934,3245.50892 C648.071934,3240.62667 650.196613,3236.30683 655.382144,3236.30683 Z M586.144928,3217.10145 L574.985507,3217.10145 L574.985507,3226.02899 L586.144928,3226.02899 L586.144928,3217.10145 Z" id="Combined-Shape"></path>
        </g>
    </g>
</svg>