<?xml version="1.0" encoding="UTF-8"?>
<svg width="150px" height="60px" viewBox="0 0 150 60" version="1.1" xmlns="http://www.w3.org/2000/svg" xmlns:xlink="http://www.w3.org/1999/xlink">
    <title>Artboard</title>
    <g id="Artboard" stroke="none" stroke-width="1" fill="none" fill-rule="evenodd">
        <g id="Combined-Shape-2" transform="translate(39.500000, 15.000000)" fill="#9DA6B9">
            <path d="M69.5,0 L69.5,29 L-0.5,29 L-0.5,0 L69.5,0 Z M59.9199394,2.67692308 C54.934776,2.67692308 49.7863795,4.47808025 49.7863795,10.4872255 C49.7863795,17.0573002 58.6148687,15.6547731 58.6148687,19.3933538 C58.6148687,21.7948967 55.6536372,22.1630194 53.7623571,22.1630194 C51.7765527,22.1630194 49.363006,21.6285297 48.1604028,20.8263883 L48.1604028,20.8263883 L46.726652,25.5639849 C48.7124564,26.1997592 51.4171221,26.7692308 53.7623571,26.7692308 C59.0386394,26.7692308 64.8713441,25.0998656 64.8713441,18.6615829 C64.8713441,11.5871191 56.0428549,12.8188047 56.0428549,9.51871705 C56.0428549,7.64718946 57.9988722,7.2835412 60.4076529,7.2835412 C62.6547892,7.2835412 64.2505816,7.7830491 65.4233977,8.34845301 L65.4233977,8.34845301 L66.8913043,3.71132748 C65.3594548,2.97914977 62.7231009,2.67692308 59.9199394,2.67692308 Z M14.118155,3.07595993 L6.53119063,3.07595993 L1.67391304,26.366533 L7.40812186,26.366533 L10.570714,10.250488 L10.635054,10.250488 L15.3894669,26.366533 L22.951013,26.366533 L27.769766,3.07595993 L22.0347628,3.07595993 L18.8427808,19.22658 L18.7784408,19.22658 L14.118155,3.07595993 Z M36.1053786,3.07595993 L30.0157108,3.07595993 L25.2914821,26.366533 L31.381547,26.366533 L33.4011101,16.3910184 L40.6032256,16.3910184 L38.5836625,26.366533 L44.6729331,26.366533 L49.3971618,3.07595993 L43.307494,3.07595993 L41.5147098,11.986156 L34.3169631,11.986156 L36.1053786,3.07595993 Z" id="Combined-Shape"></path>
        </g>
    </g>
</svg>