<?xml version="1.0" encoding="UTF-8"?>
<svg width="137px" height="55px" viewBox="0 0 137 55" version="1.1" xmlns="http://www.w3.org/2000/svg" xmlns:xlink="http://www.w3.org/1999/xlink">
    <title>Combined Shape</title>
    <g id="Page-1" stroke="none" stroke-width="1" fill="none" fill-rule="evenodd">
        <g id="iPhone-X" transform="translate(-1766.000000, -3070.000000)" fill="#9DA6B9">
            <path d="M1902.23077,3070 L1902.23077,3125 L1766,3125 L1766,3070 L1902.23077,3070 Z M1883.5865,3075.07692 C1873.8846,3075.07692 1863.86503,3078.49291 1863.86503,3089.88957 C1863.86503,3102.35005 1881.04663,3099.69009 1881.04663,3106.7805 C1881.04663,3111.33515 1875.28362,3112.03331 1871.60289,3112.03331 C1867.73821,3112.03331 1863.04108,3111.01963 1860.70063,3109.49832 L1860.70063,3109.49832 L1857.91033,3118.48342 C1861.77501,3119.6892 1867.03871,3120.76923 1871.60289,3120.76923 C1881.87135,3120.76923 1893.22269,3117.60319 1893.22269,3105.39266 C1893.22269,3091.97557 1876.04109,3094.31153 1876.04109,3088.05274 C1876.04109,3084.50329 1879.84781,3083.81361 1884.53566,3083.81361 C1888.90894,3083.81361 1892.01459,3084.76096 1894.29707,3085.83327 L1894.29707,3085.83327 L1897.15385,3077.03872 C1894.17263,3075.65011 1889.04188,3075.07692 1883.5865,3075.07692 Z M1794.44918,3075.83372 L1779.68378,3075.83372 L1770.23077,3120.00549 L1781.39042,3120.00549 L1787.54531,3089.44058 L1787.67053,3089.44058 L1796.92335,3120.00549 L1811.63928,3120.00549 L1821.01731,3075.83372 L1809.85612,3075.83372 L1803.64403,3106.4642 L1803.51881,3106.4642 L1794.44918,3075.83372 Z M1837.2397,3075.83372 L1825.38827,3075.83372 L1816.19419,3120.00549 L1828.0464,3120.00549 L1831.97678,3101.08641 L1845.9932,3101.08641 L1842.06282,3120.00549 L1853.91348,3120.00549 L1863.10755,3075.83372 L1851.25612,3075.83372 L1847.76709,3092.73236 L1833.75917,3092.73236 L1837.2397,3075.83372 Z" id="Combined-Shape"></path>
        </g>
    </g>
</svg>