<?xml version="1.0" encoding="UTF-8"?>
<svg width="150px" height="60px" viewBox="0 0 150 60" version="1.1" xmlns="http://www.w3.org/2000/svg" xmlns:xlink="http://www.w3.org/1999/xlink">
    <title>Artboard</title>
    <defs>
        <path d="M4.10991654,0.0848985008 C5.11221893,0.313214163 8.404175,1.25550392 8.404175,3.78337072 C8.404175,7.36926418 0.102659375,8.01529161 0.102659375,11.5982127 C0.102659375,14.1287732 3.39661324,15.0718061 4.39719026,15.2979853 C4.40127665,15.2928766 4.38352353,15.2821946 4.33353327,15.2668683 C3.8202818,15.1126762 2.95609963,14.7425225 2.95609963,13.9770891 C2.95609963,11.3037152 10.19942,11.4002246 10.19942,6.0734474 C10.19942,1.53095962 5.55041691,0.337271834 4.18115607,0.0848985008 C4.16195,0.0816474641 4.14537739,0.0801612759 4.13257335,0.0801612759 C4.12008713,0.0801612759 4.11164191,0.0816474641 4.10991654,0.0848985008 Z" id="path-1"></path>
        <path d="M71.3540905,26.4603607 L71.3540905,27.4456424 C71.3540905,28.2577967 72.0050251,28.9159146 72.8071357,28.9159146 C73.6097085,28.9159146 74.2592563,28.2577967 74.2592563,27.4456424 L74.2592563,26.4603607 C74.2592563,25.6484871 73.6097085,24.989761 72.8071357,24.989761 C72.0050251,24.989761 71.3540905,25.6484871 71.3540905,26.4603607 Z M66.8946332,26.3642516 L66.8946332,27.4456424 C66.8946332,28.2577967 67.5455678,28.9159146 68.3481407,28.9159146 C69.1497889,28.9159146 69.799799,28.2577967 69.799799,27.4456424 L69.799799,26.3642516 C69.799799,25.552378 69.1497889,24.8939326 68.3481407,24.8939326 C67.5455678,24.8939326 66.8946332,25.552378 66.8946332,26.3642516 Z M75.8140101,26.1275351 L75.8140101,27.4456424 C75.8140101,28.2577967 76.4640201,28.9159146 77.2670553,28.9159146 C78.0687035,28.9159146 78.7196382,28.2577967 78.7196382,27.4456424 L78.7196382,26.1275351 C78.7196382,25.3153807 78.0687035,24.6569353 77.2670553,24.6569353 C76.4640201,24.6569353 75.8140101,25.3153807 75.8140101,26.1275351 Z M62.4351759,25.8670018 L62.4351759,27.4456424 C62.4351759,28.2577967 63.0856482,28.9159146 63.8872965,28.9159146 C64.6898693,28.9159146 65.3403417,28.2577967 65.3403417,27.4456424 L65.3403417,25.8670018 C65.3403417,25.0551282 64.6898693,24.3969636 63.8872965,24.3969636 C63.0856482,24.3969636 62.4351759,25.0551282 62.4351759,25.8670018 Z M57.9757186,25.1849737 L57.9757186,27.4456424 C57.9757186,28.2577967 58.6257286,28.9159146 59.4283015,28.9159146 C60.2304121,28.9159146 60.8808844,28.2577967 60.8808844,27.4456424 L60.8808844,25.1849737 C60.8808844,24.3728194 60.2304121,23.714374 59.4283015,23.714374 C58.6257286,23.714374 57.9757186,24.3728194 57.9757186,25.1849737 Z M80.2739296,25.0446938 L80.2739296,27.4456424 C80.2739296,28.2577967 80.9239397,28.9159146 81.7260503,28.9159146 C82.5286231,28.9159146 83.1790955,28.2577967 83.1790955,27.4456424 L83.1790955,25.0446938 C83.1790955,24.2322119 82.5286231,23.5737665 81.7260503,23.5737665 C80.9239397,23.5737665 80.2739296,24.2322119 80.2739296,25.0446938 Z M53.515799,23.7913455 L53.515799,27.4456424 C53.515799,28.2577967 54.1662714,28.9159146 54.9683819,28.9159146 C55.7709548,28.9159146 56.4209648,28.2577967 56.4209648,27.4456424 L56.4209648,23.7913455 C56.4209648,22.9791911 55.7709548,22.3207457 54.9683819,22.3207457 C54.1662714,22.3207457 53.515799,22.9791911 53.515799,23.7913455 Z M84.7333869,23.6991201 L84.7333869,27.4456424 C84.7333869,28.2577967 85.383397,28.9159146 86.1859698,28.9159146 C86.9885427,28.9159146 87.6390151,28.2577967 87.6390151,27.4456424 L87.6390151,23.6991201 C87.6390151,22.8872932 86.9885427,22.2288479 86.1859698,22.2288479 C85.383397,22.2288479 84.7333869,22.8872932 84.7333869,23.6991201 Z M49.0563417,22.1816824 L49.0563417,27.4456424 C49.0563417,28.2577967 49.7063518,28.9159146 50.5093869,28.9159146 C51.3110352,28.9159146 51.9615075,28.2577967 51.9615075,27.4456424 L51.9615075,22.1816824 C51.9615075,21.3698088 51.3110352,20.7110826 50.5093869,20.7110826 C49.7063518,20.7110826 49.0563417,21.3698088 49.0563417,22.1816824 Z M89.1928442,21.6312778 L89.1928442,27.4456424 C89.1928442,28.2577967 89.8433166,28.9159146 90.6454271,28.9159146 C91.2270151,28.9159146 91.7290854,28.5697067 91.9611658,28.0694623 L91.9611658,20.9895369 C91.7290854,20.4615453 91.2270151,20.0642883 90.6454271,20.0642883 C89.8433166,20.0642883 89.1928442,20.8194042 89.1928442,21.6312778 Z M44.5964221,20.7110826 L44.5964221,27.4456424 C44.5964221,28.2577967 45.2466171,28.9159146 46.0489588,28.9159146 C46.8515779,28.9159146 47.5015879,28.2577967 47.5015879,27.4456424 L47.5015879,20.7110826 C47.5015879,19.8989283 46.8515779,19.2407637 46.0489588,19.2407637 C45.2466171,19.2407637 44.5964221,19.8989283 44.5964221,20.7110826 Z M0,20.5752479 L0,27.4456424 C0,28.2577967 0.650486231,28.9159146 1.45253668,28.9159146 C2.25459176,28.9159146 2.90507799,28.2577967 2.90507799,27.4456424 L2.90507799,20.5752479 C2.90507799,19.7634211 2.25459176,19.1052564 1.45253668,19.1052564 C0.650486231,19.1052564 0,19.7634211 0,20.5752479 Z M40.1367799,19.3541855 L40.1367799,27.4456424 C40.1367799,28.2577967 40.7872523,28.9159146 41.589594,28.9159146 C42.3919357,28.9159146 43.0415296,28.2577967 43.0415296,27.4456424 L43.0415296,19.3541855 C43.0415296,18.5420311 42.3919357,17.8839133 41.589594,17.8839133 C40.7872523,17.8839133 40.1367799,18.5420311 40.1367799,19.3541855 Z M4.45934633,18.8115483 L4.45934633,27.4456424 C4.45934633,28.2577967 5.11011457,28.9159146 5.91217889,28.9159146 C6.71479799,28.9159146 7.36531658,28.2577967 7.36531658,27.4456424 L7.36531658,18.8115483 C7.36531658,17.9993939 6.71479799,17.3409485 5.91217889,17.3409485 C5.11011457,17.3409485 4.45934633,17.9993939 4.45934633,18.8115483 Z M35.6774151,17.9973351 L35.6774151,27.4456424 C35.6774151,28.2577967 36.3278874,28.9159146 37.1296744,28.9159146 C37.9322935,28.9159146 38.5828121,28.2577967 38.5828121,27.4456424 L38.5828121,17.9973351 C38.5828121,17.1848532 37.9322935,16.5267353 37.1296744,16.5267353 C36.3278874,16.5267353 35.6774151,17.1848532 35.6774151,17.9973351 Z M8.91928442,17.0478486 L8.91928442,27.4456424 C8.91928442,28.2577967 9.57035779,28.9159146 10.3720985,28.9159146 C11.1738854,28.9159146 11.8246352,28.2577967 11.8246352,27.4456424 L11.8246352,17.0478486 C11.8246352,16.2356943 11.1738854,15.5772489 10.3720985,15.5772489 C9.57035779,15.5772489 8.91928442,16.2356943 8.91928442,17.0478486 Z M31.2174955,16.6404379 L31.2174955,27.4456424 C31.2174955,28.2577967 31.8679678,28.9159146 32.6700322,28.9159146 C33.4723739,28.9159146 34.1228462,28.2577967 34.1228462,27.4456424 L34.1228462,16.6404379 C34.1228462,15.8285643 33.4723739,15.1701189 32.6700322,15.1701189 C31.8679678,15.1701189 31.2174955,15.8285643 31.2174955,16.6404379 Z M26.7575296,15.8515387 L26.7575296,27.4456424 C26.7575296,28.2577967 27.4083256,28.9159146 28.2106673,28.9159146 C29.013009,28.9159146 29.663204,28.2577967 29.663204,27.4456424 L29.663204,15.8515387 C29.663204,15.0393844 29.013009,14.3812666 28.2106673,14.3812666 C27.4083256,14.3812666 26.7575296,15.0393844 26.7575296,15.8515387 Z M13.3789266,15.8515387 L13.3789266,27.4456424 C13.3789266,28.2577967 14.029399,28.9159146 14.8317407,28.9159146 C15.6340824,28.9159146 16.2842774,28.2577967 16.2842774,27.4456424 L16.2842774,15.8515387 C16.2842774,15.0397119 15.6340824,14.380939 14.8317407,14.380939 C14.029399,14.380939 13.3789266,15.0397119 13.3789266,15.8515387 Z M17.8385688,15.1934209 L17.8385688,27.4456424 C17.8385688,28.2577967 18.4890412,28.9159146 19.2913829,28.9159146 C20.0934472,28.9159146 20.7439196,28.2577967 20.7439196,27.4456424 L20.7439196,15.1934209 C20.7439196,14.380939 20.0934472,13.7228212 19.2913829,13.7228212 C18.4890412,13.7228212 17.8385688,14.380939 17.8385688,15.1934209 Z M22.2978874,15.1930934 L22.2978874,27.4456424 C22.2978874,28.2577967 22.949007,28.9159146 23.7507477,28.9159146 C24.5530894,28.9159146 25.2035618,28.2577967 25.2035618,27.4456424 L25.2035618,15.1930934 C25.2035618,14.3806583 24.5530894,13.7228212 23.7507477,13.7228212 C22.949007,13.7228212 22.2978874,14.3806583 22.2978874,15.1930934 Z M0,8.86449385 L0,15.6963324 C0,16.5084868 0.650486231,17.1666514 1.45253668,17.1666514 C2.25459176,17.1666514 2.90507799,16.5084868 2.90507799,15.6963324 L2.90507799,8.86449385 C2.90507799,8.05201195 2.25459176,7.39417487 1.45253668,7.39417487 C0.650486231,7.39417487 0,8.05201195 0,8.86449385 Z M89.1928442,8.86449385 L89.1928442,16.6756716 C89.1928442,17.4874985 89.8433166,18.1456631 90.6454271,18.1456631 C91.2270151,18.1456631 91.7290854,17.7994084 91.9611658,17.2994915 L91.9611658,8.24039321 C91.7290854,7.74014879 91.2270151,7.39417487 90.6454271,7.39417487 C89.8433166,7.39417487 89.1928442,8.05201195 89.1928442,8.86449385 Z M4.45934633,7.61325114 L4.45934633,13.9487758 C4.45934633,14.7612109 5.11011457,15.4196562 5.91217889,15.4196562 C6.71479799,15.4196562 7.36531658,14.7612109 7.36531658,13.9487758 L7.36531658,7.61325114 C7.36531658,6.80081603 6.71479799,6.14237066 5.91217889,6.14237066 C5.11011457,6.14237066 4.45934633,6.80081603 4.45934633,7.61325114 Z M84.7333869,7.61325114 L84.7333869,18.7429056 C84.7333869,19.5553875 85.383397,20.2135053 86.1859698,20.2135053 C86.9885427,20.2135053 87.6390151,19.5553875 87.6390151,18.7429056 L87.6390151,7.61325114 C87.6390151,6.80081603 86.9885427,6.14237066 86.1859698,6.14237066 C85.383397,6.14237066 84.7333869,6.80081603 84.7333869,7.61325114 Z M8.91928442,6.19458961 L8.91928442,12.147456 C8.91928442,12.9596104 9.57035779,13.6177282 10.3720985,13.6177282 C11.1738854,13.6177282 11.8246352,12.9596104 11.8246352,12.147456 L11.8246352,6.19458961 C11.8246352,5.38243525 11.1738854,4.72398988 10.3720985,4.72398988 C9.57035779,4.72398988 8.91928442,5.38243525 8.91928442,6.19458961 Z M80.2739296,6.19458961 L80.2739296,20.0884325 C80.2739296,20.9005869 80.9239397,21.5590323 81.7260503,21.5590323 C82.5286231,21.5590323 83.1790955,20.9005869 83.1790955,20.0884325 L83.1790955,6.19458961 C83.1790955,5.38243525 82.5286231,4.72398988 81.7260503,4.72398988 C80.9239397,4.72398988 80.2739296,5.38243525 80.2739296,6.19458961 Z M13.3789266,5.36034981 L13.3789266,10.7959398 C13.3789266,11.6080942 14.029399,12.2662588 14.8317407,12.2662588 C15.6340824,12.2662588 16.2842774,11.6080942 16.2842774,10.7959398 L16.2842774,5.36034981 C16.2842774,4.54820481 15.6340824,3.88976412 14.8317407,3.88976412 C14.029399,3.88976412 13.3789266,4.54820481 13.3789266,5.36034981 Z M75.8140101,5.36034981 L75.8140101,21.1713206 C75.8140101,21.9831942 76.4640201,22.6416396 77.2670553,22.6416396 C78.0687035,22.6416396 78.7196382,21.9831942 78.7196382,21.1713206 L78.7196382,5.36034981 C78.7196382,4.54820481 78.0687035,3.88976412 77.2670553,3.88976412 C76.4640201,3.88976412 75.8140101,4.54820481 75.8140101,5.36034981 Z M17.8385688,4.39508538 L17.8385688,10.1703419 C17.8385688,10.9821687 18.4890412,11.6406141 19.2913829,11.6406141 C20.0934472,11.6406141 20.7439196,10.9821687 20.7439196,10.1703419 L20.7439196,4.39508538 C20.7439196,3.58292634 20.0934472,2.92448565 19.2913829,2.92448565 C18.4890412,2.92448565 17.8385688,3.58292634 17.8385688,4.39508538 Z M71.3540905,4.39508538 L71.3540905,21.504427 C71.3540905,22.3165813 72.0050251,22.9747459 72.8071357,22.9747459 C73.6097085,22.9747459 74.2592563,22.3165813 74.2592563,21.504427 L74.2592563,4.39508538 C74.2592563,3.58292634 73.6097085,2.92448565 72.8071357,2.92448565 C72.0050251,2.92448565 71.3540905,3.58292634 71.3540905,4.39508538 Z M22.2978874,3.56054144 L22.2978874,10.2536302 C22.2978874,11.0657845 22.949007,11.7242299 23.7507477,11.7242299 C24.5530894,11.7242299 25.2035618,11.0657845 25.2035618,10.2536302 L25.2035618,3.56054144 C25.2035618,2.7483824 24.5530894,2.08994171 23.7507477,2.08994171 C22.949007,2.08994171 22.2978874,2.7483824 22.2978874,3.56054144 Z M66.8946332,3.56054144 L66.8946332,21.4085986 C66.8946332,22.220753 67.5455678,22.8789176 68.3481407,22.8789176 C69.1497889,22.8789176 69.799799,22.220753 69.799799,21.4085986 L69.799799,3.56054144 C69.799799,2.7483824 69.1497889,2.08994171 68.3481407,2.08994171 C67.5455678,2.08994171 66.8946332,2.7483824 66.8946332,3.56054144 Z M26.7575296,2.93463466 L26.7575296,10.8126443 C26.7575296,11.6247986 27.4083256,12.2829633 28.2106673,12.2829633 C29.013009,12.2829633 29.663204,11.6247986 29.663204,10.8126443 L29.663204,2.93463466 C29.663204,2.12247561 29.013009,1.46432971 28.2106673,1.46432971 C27.4083256,1.46432971 26.7575296,2.12247561 26.7575296,2.93463466 Z M62.4351759,2.93463466 L62.4351759,21.0044633 C62.4351759,21.8166177 63.0856482,22.475063 63.8872965,22.475063 C64.6898693,22.475063 65.3403417,21.8166177 65.3403417,21.0044633 L65.3403417,2.93463466 C65.3403417,2.12247561 64.6898693,1.46432971 63.8872965,1.46432971 C63.0856482,1.46432971 62.4351759,2.12247561 62.4351759,2.93463466 Z M31.2174955,2.47617008 L31.2174955,11.7818298 C31.2174955,12.5942649 31.8679678,13.252102 32.6700322,13.252102 C33.4723739,13.252102 34.1228462,12.5942649 34.1228462,11.7818298 L34.1228462,2.47617008 C34.1228462,1.66371625 33.4723739,1.00557035 32.6700322,1.00557035 C31.8679678,1.00557035 31.2174955,1.66371625 31.2174955,2.47617008 Z M57.9757186,2.47617008 L57.9757186,20.0884325 C57.9757186,20.9005869 58.6257286,21.5590323 59.4283015,21.5590323 C60.2304121,21.5590323 60.8808844,20.9005869 60.8808844,20.0884325 L60.8808844,2.47617008 C60.8808844,1.66371625 60.2304121,1.00557035 59.4283015,1.00557035 C58.6257286,1.00557035 57.9757186,1.66371625 57.9757186,2.47617008 Z M35.6774151,2.05860098 L35.6774151,13.1413941 C35.6774151,13.9535485 36.3278874,14.6116663 37.1296744,14.6116663 C37.9322935,14.6116663 38.5828121,13.9535485 38.5828121,13.1413941 L38.5828121,2.05860098 C38.5828121,1.24674141 37.9322935,0.588600183 37.1296744,0.588600183 C36.3278874,0.588600183 35.6774151,1.24674141 35.6774151,2.05860098 Z M53.515799,2.05860098 L53.515799,18.7429056 C53.515799,19.5553875 54.1662714,20.2135053 54.9683819,20.2135053 C55.7709548,20.2135053 56.4209648,19.5553875 56.4209648,18.7429056 L56.4209648,2.05860098 C56.4209648,1.24674141 55.7709548,0.588600183 54.9683819,0.588600183 C54.1662714,0.588600183 53.515799,1.24674141 53.515799,2.05860098 Z M40.1367799,1.68341533 L40.1367799,14.4666137 C40.1367799,15.2790956 40.7872523,15.9372134 41.589594,15.9372134 C42.3919357,15.9372134 43.0415296,15.2790956 43.0415296,14.4666137 L43.0415296,1.68341533 C43.0415296,0.871256292 42.3919357,0.21281467 41.589594,0.21281467 C40.7872523,0.21281467 40.1367799,0.871256292 40.1367799,1.68341533 Z M49.0563417,1.68341533 L49.0563417,17.2687497 C49.0563417,18.0811849 49.7063518,18.7396302 50.5093869,18.7396302 C51.3110352,18.7396302 51.9615075,18.0811849 51.9615075,17.2687497 L51.9615075,1.68341533 C51.9615075,0.871256292 51.3110352,0.21281467 50.5093869,0.21281467 C49.7063518,0.21281467 49.0563417,0.871256292 49.0563417,1.68341533 Z M44.5964221,1.47030026 L44.5964221,15.6963324 C44.5964221,16.5084868 45.2466171,17.1666514 46.0489588,17.1666514 C46.8515779,17.1666514 47.5015879,16.5084868 47.5015879,15.6963324 L47.5015879,1.47030026 C47.5015879,0.658440686 46.8515779,0 46.0489588,0 C45.2466171,0 44.5964221,0.658440686 44.5964221,1.47030026 Z" id="path-3"></path>
    </defs>
    <g id="Artboard" stroke="none" stroke-width="1" fill="none" fill-rule="evenodd">
        <g id="Group-12" transform="translate(28.500000, 4.000000)">
            <g id="Group-10" transform="translate(-0.500000, 0.000000)">
                <path d="M29.2460108,32.4538479 C29.76814,32.6087102 30.6494846,32.982419 30.6494846,33.7528951 C30.6494846,36.4451417 23.2705882,36.3473881 23.2705882,41.7121436 C23.2705882,46.2888365 28.0069307,47.4902705 29.3999998,47.743775 C29.4393988,47.7512586 29.469318,47.7512586 29.4720001,47.743775 C28.4529441,47.5159951 25.0981099,46.5662884 25.0981099,44.0178659 C25.0981099,40.4095417 33.5529412,39.7589891 33.5529412,36.1476714 C33.5529412,33.6019149 30.2002342,32.6529566 29.1793747,32.4230719 C29.1778949,32.4290119 29.1941724,32.4388808 29.2460108,32.4538479" id="Path" stroke="#9DA6B9" stroke-width="1.5"></path>
                <path d="M28.9750337,32.4278429 C29.9957598,32.6577863 33.3482265,33.6067939 33.3482265,36.1526825 C33.3482265,39.7641407 24.8941176,40.4147738 24.8941176,44.0232384 C24.8941176,46.5718399 28.2486189,47.5215959 29.2675879,47.7493877 C29.2717494,47.7442425 29.2536699,47.7334844 29.2027608,47.7180488 C28.6800751,47.5627575 27.800008,47.1899648 27.800008,46.4190745 C27.800008,43.7266414 35.1764706,43.8238388 35.1764706,38.4590857 C35.1764706,33.8842133 30.4420124,32.6820155 29.0475827,32.4278429 C29.0280236,32.4245687 29.0111464,32.4230719 28.998107,32.4230719 C28.9853912,32.4230719 28.9767908,32.4245687 28.9750337,32.4278429 Z" id="Path" fill="#9DA6B9"></path>
                <g id="Clipped" transform="translate(24.894118, 32.423072)">
                    <mask id="mask-2" fill="white">
                        <use xlink:href="#path-1"></use>
                    </mask>
                    <g id="Path"></g>
                </g>
                <path d="M50.3877042,40.2687523 L54.9572437,40.2687523 C55.1933513,40.2687523 55.4025546,40.1437731 55.4517244,39.9141571 C55.4600739,39.8857802 55.4628571,39.8531769 55.4628571,39.8176013 C55.4628571,37.8800763 54.4641546,36.2546508 52.4885513,36.2546508 C50.564437,36.2546508 49.1334118,37.7225403 49.1334118,39.994597 C49.1334118,42.1120901 50.5899496,43.7348683 52.7144538,43.7348683 C53.7957244,43.7348683 54.5958924,43.2666725 54.9980639,42.9718964 C55.2341714,42.7973157 55.2643227,42.5904569 55.132121,42.3512735 L55.0119798,42.1399097 C54.8751395,41.8962677 54.6144471,41.8263239 54.4103462,41.9841386 C54.1028034,42.2242044 53.5285378,42.5488901 52.7937748,42.5488901 C51.6243697,42.5488901 50.4930017,41.8092792 50.3877042,40.2687523 Z M3.33550716,43.616159 C3.1219481,43.616159 3.00925197,43.503766 3.00925197,43.2777261 L3.00925197,37.2507685 L0.876013176,37.2507685 C0.652986622,37.2507685 0.541176471,37.1276006 0.541176471,36.9117782 L0.541176471,36.7060805 C0.541176471,36.4806443 0.652986622,36.3679727 0.876013176,36.3679727 L6.13901311,36.3679727 C6.35285513,36.3679727 6.4643684,36.4806443 6.4643684,36.7060805 L6.4643684,36.9117782 C6.4643684,37.1276006 6.35285513,37.2507685 6.13901311,37.2507685 L4.00547281,37.2507685 L4.00547281,43.2777261 C4.00547281,43.503766 3.88330918,43.616159 3.6706361,43.616159 L3.33550716,43.616159 Z M7.43932101,43.2777261 C7.43932101,43.503766 7.55023126,43.616159 7.77474218,43.616159 L8.09949445,43.616159 C8.32372706,43.616159 8.43524034,43.503766 8.43524034,43.2777261 L8.43524034,40.4334869 L12.1627711,40.4334869 L12.1627711,43.2777261 C12.1627711,43.503766 12.2846286,43.616159 12.4979139,43.616159 L12.8336134,43.616159 C13.0456928,43.616159 13.1586904,43.503766 13.1586904,43.2777261 L13.1586904,36.7060805 C13.1586904,36.4806443 13.0456928,36.3679727 12.8336134,36.3679727 L12.4979139,36.3679727 C12.2846286,36.3679727 12.1627711,36.4806443 12.1627711,36.7060805 L12.1627711,39.5608158 L8.43524034,39.5608158 L8.43524034,36.7060805 C8.43524034,36.4806443 8.32372706,36.3679727 8.09949445,36.3679727 L7.77474218,36.3679727 C7.55023126,36.3679727 7.43932101,36.4806443 7.43932101,36.7060805 L7.43932101,43.2777261 Z M15.3229943,43.616159 C15.1005708,43.616159 14.9872948,43.503766 14.9872948,43.2777261 L14.9872948,36.7060805 C14.9872948,36.4806443 15.1005708,36.3679727 15.3229943,36.3679727 L18.8177573,36.3679727 C19.0405055,36.3679727 19.1522971,36.4806443 19.1522971,36.7060805 L19.1522971,36.9117782 C19.1522971,37.1276006 19.0405055,37.2507685 18.8177573,37.2507685 L15.9828894,37.2507685 L15.9828894,39.5195741 L18.2285553,39.5195741 C18.4412376,39.5195741 18.5639765,39.6325708 18.5639765,39.8588894 L18.5639765,40.0642621 C18.5639765,40.2902556 18.4412376,40.4035774 18.2285553,40.4035774 L15.9828894,40.4035774 L15.9828894,42.7333632 L18.9898978,42.7333632 C19.2132491,42.7333632 19.3262467,42.8472424 19.3262467,43.0732358 L19.3262467,43.2777261 C19.3262467,43.503766 19.2132491,43.616159 18.9898978,43.616159 L15.3229943,43.616159 Z M59.272121,43.2098723 C59.1900168,43.4457582 59.292995,43.5994394 59.5453378,43.5994394 L59.8899899,43.5994394 C60.0722891,43.5994394 60.2049546,43.5082246 60.2545882,43.3237979 L60.8835899,41.5192868 L63.5786487,41.5192868 L64.2169277,43.3237979 C64.2772303,43.5082246 64.3992269,43.5994394 64.5926588,43.5994394 L64.9363832,43.5994394 C65.1803765,43.5994394 65.2912403,43.4457582 65.2105277,43.2098723 L62.8591933,36.6438928 C62.7988908,36.4507812 62.6666891,36.3679727 62.4829983,36.3679727 L61.9973311,36.3679727 C61.8057546,36.3679727 61.6832941,36.4507812 61.6229916,36.6438928 L59.272121,43.2098723 Z M66.2941176,43.2604027 C66.2941176,43.487325 66.4059092,43.5994394 66.6290286,43.5994394 L66.9532706,43.5994394 C67.1749983,43.5994394 67.2872538,43.487325 67.2872538,43.2604027 L67.2872538,40.7210644 L68.8180101,40.7210644 L70.2161008,43.3653183 C70.2977412,43.5282881 70.4197378,43.5994394 70.6117782,43.5994394 L71.0162689,43.5994394 C71.2704672,43.5994394 71.3715899,43.4349833 71.2398521,43.2003049 L69.9535529,40.7934231 C69.832484,40.5683121 69.7406387,40.4660438 69.7406387,40.4660438 L69.7406387,40.4448191 C70.5301378,40.178745 71.0162689,39.3784327 71.0162689,38.4570424 C71.0162689,37.5347698 70.570958,36.8696076 69.8918588,36.5625705 C69.5973042,36.4292315 69.2535798,36.3679727 68.5554622,36.3679727 L66.6290286,36.3679727 C66.4059092,36.3679727 66.2941176,36.4806443 66.2941176,36.7060805 L66.2941176,43.2604027 Z M84.9809412,43.2098723 C84.9011563,43.4457582 85.0027429,43.5994394 85.2546218,43.5994394 L85.5983462,43.5994394 C85.7829647,43.5994394 85.9147025,43.5082246 85.9652639,43.3237979 L86.5928739,41.5192868 L89.2883966,41.5192868 L89.9276034,43.3237979 C89.9879059,43.5082246 90.1099025,43.5994394 90.3028706,43.5994394 L90.6475227,43.5994394 C90.8901244,43.5994394 91.0014521,43.4457582 90.9207395,43.2098723 L88.5703328,36.6438928 C88.5081748,36.4507812 88.3773647,36.3679727 88.1946017,36.3679727 L87.7084706,36.3679727 C87.5145748,36.3679727 87.3935059,36.4507812 87.3327395,36.6438928 L84.9809412,43.2098723 Z M87.6579092,38.3856125 L86.8572773,40.6804264 L89.0258487,40.6804264 L88.2363496,38.3856125 C88.1138891,38.0173165 87.9617412,37.3601891 87.9617412,37.3601891 L87.9413311,37.3601891 C87.9413311,37.3601891 87.7799059,38.0173165 87.6579092,38.3856125 Z M85.7653378,51.1815535 C85.9202689,51.3111306 86.3150185,51.5809666 86.8646992,51.5809666 C87.5804437,51.5809666 88.0076639,51.1225705 88.0076639,50.5401705 C88.0076639,49.8862476 87.4705076,49.6526374 86.972316,49.4362113 C86.540921,49.2495089 86.1392134,49.0748818 86.1392134,48.652247 C86.1392134,48.2532984 86.4968538,48.0164371 86.9240739,48.0164371 C87.265479,48.0164371 87.5113277,48.1659848 87.6444571,48.2579427 C87.7145008,48.3015995 87.7831529,48.3015995 87.8318588,48.2203236 L87.8791731,48.1339389 C87.9223126,48.0642738 87.9121076,48.0043618 87.8476303,47.9565252 C87.7084706,47.8478476 87.3833008,47.6588231 86.9347429,47.6588231 C86.2779092,47.6588231 85.7602353,48.0531274 85.7602353,48.6731465 C85.7602353,49.2917724 86.2774454,49.522596 86.7672874,49.7413443 C87.2088874,49.9382642 87.6286857,50.1254311 87.6286857,50.5777896 C87.6286857,50.971165 87.313721,51.2247459 86.8646992,51.2247459 C86.444437,51.2247459 86.1285445,51.0041398 86.0005176,50.8959268 C85.9262992,50.8420524 85.8673882,50.8471612 85.8140437,50.9126464 L85.7500303,50.9929934 C85.6966857,51.0686961 85.7124571,51.1281437 85.7653378,51.1815535 Z M89.7402017,51.3817245 C89.7402017,51.4681092 89.7884437,51.5164103 89.873795,51.5164103 L89.9809479,51.5164103 C90.0658353,51.5164103 90.1085109,51.4681092 90.1085109,51.3817245 L90.1085109,48.0582362 L91.326158,48.0582362 C91.4110454,48.0582362 91.4588235,48.009935 91.4588235,47.9235504 L91.4588235,47.8589941 C91.4588235,47.7730738 91.4110454,47.7243083 91.326158,47.7243083 L88.5285849,47.7243083 C88.4432336,47.7243083 88.3949916,47.7730738 88.3949916,47.8589941 L88.3949916,47.9235504 C88.3949916,48.009935 88.4432336,48.0582362 88.5285849,48.0582362 L89.7402017,48.0582362 L89.7402017,51.3817245 Z M83.5735731,48.6085902 L83.0725983,49.9847076 L84.3644639,49.9847076 L83.8672,48.6085902 C83.8082891,48.4307121 83.7289681,48.1125749 83.7289681,48.1125749 L83.7178353,48.1125749 C83.7178353,48.1125749 83.632484,48.4307121 83.5735731,48.6085902 Z M82.1977479,51.3598961 C82.1703798,51.4564984 82.2074891,51.5164103 82.3090756,51.5164103 L82.4213311,51.5164103 C82.4960134,51.5164103 82.5488941,51.4839 82.5706958,51.4086617 L82.9654454,50.308418 L84.4706891,50.308418 L84.8714689,51.4086617 C84.8928067,51.4839 84.9452235,51.5164103 85.0208336,51.5164103 L85.1381916,51.5164103 C85.2337479,51.5164103 85.2722487,51.4564984 85.2453445,51.3598961 L83.9530151,47.8315925 C83.9312134,47.7563542 83.8778689,47.7243083 83.8082891,47.7243083 L83.632484,47.7243083 C83.5629042,47.7243083 83.5100235,47.7563542 83.4886857,47.8315925 L82.1977479,51.3598961 Z M80.1803966,51.5164103 C80.0950454,51.5164103 80.0523697,51.4681092 80.0523697,51.3817245 L80.0523697,47.8589941 C80.0523697,47.7730738 80.0950454,47.7243083 80.1803966,47.7243083 L81.893916,47.7243083 C81.9797311,47.7243083 82.0270454,47.7730738 82.0270454,47.8589941 L82.0270454,47.9235504 C82.0270454,48.009935 81.9797311,48.0582362 81.893916,48.0582362 L80.420679,48.0582362 L80.420679,49.4831191 L81.669405,49.4831191 C81.7552202,49.4831191 81.7978958,49.525847 81.7978958,49.6122317 L81.7978958,49.6818968 C81.7978958,49.7692103 81.7552202,49.8175114 81.669405,49.8175114 L80.420679,49.8175114 L80.420679,51.3817245 C80.420679,51.4681092 80.3729008,51.5164103 80.2926521,51.5164103 L80.1803966,51.5164103 Z M77.2840202,51.3817245 C77.2840202,51.4681092 77.3266958,51.5164103 77.4125109,51.5164103 L79.2582319,51.5164103 C79.3445109,51.5164103 79.3922891,51.4681092 79.3922891,51.3817245 L79.3922891,51.3171682 C79.3922891,51.2307835 79.3445109,51.1815535 79.2582319,51.1815535 L77.6523294,51.1815535 L77.6523294,47.8589941 C77.6523294,47.7730738 77.6040874,47.7243083 77.5247664,47.7243083 L77.4125109,47.7243083 C77.3266958,47.7243083 77.2840202,47.7730738 77.2840202,47.8589941 L77.2840202,51.3817245 Z M74.3561008,51.5164103 C74.2698218,51.5164103 74.2271462,51.4681092 74.2271462,51.3817245 L74.2271462,47.8589941 C74.2271462,47.7730738 74.2698218,47.7243083 74.3561008,47.7243083 L76.2069244,47.7243083 C76.2927395,47.7243083 76.3405176,47.7730738 76.3405176,47.8589941 L76.3405176,47.9235504 C76.3405176,48.009935 76.2927395,48.0582362 76.2069244,48.0582362 L74.5954555,48.0582362 L74.5954555,49.4394623 L75.8868571,49.4394623 C75.9731361,49.4394623 76.0204504,49.4831191 76.0204504,49.5690394 L76.0204504,49.6391689 C76.0204504,49.7250891 75.9731361,49.7738547 75.8868571,49.7738547 L74.5954555,49.7738547 L74.5954555,51.1815535 L76.3038723,51.1815535 C76.3887597,51.1815535 76.4360739,51.2307835 76.4360739,51.3171682 L76.4360739,51.3817245 C76.4360739,51.4681092 76.3887597,51.5164103 76.3038723,51.5164103 L74.3561008,51.5164103 Z M71.2296471,51.1815535 L71.2296471,49.6935076 L72.1856739,49.6935076 C72.6226353,49.6935076 72.9264672,49.9898164 72.9264672,50.4426394 C72.9264672,50.8959268 72.6435092,51.1815535 72.1903126,51.1815535 L71.2296471,51.1815535 Z M71.2296471,48.0582362 L71.2296471,49.3697972 L72.1420706,49.3697972 C72.5210487,49.3697972 72.7771025,49.0999612 72.7771025,48.7061213 C72.7771025,48.3178547 72.537284,48.0582362 72.1374319,48.0582362 L71.2296471,48.0582362 Z M70.8604101,51.3817245 C70.8604101,51.4681092 70.9044773,51.5164103 70.9893647,51.5164103 L72.1856739,51.5164103 C72.8146756,51.5164103 73.3110118,51.1281437 73.3110118,50.4537858 C73.3110118,49.9949252 73.0660908,49.6233781 72.6806185,49.5156295 L72.6806185,49.5044831 C72.9691429,49.3591153 73.1611832,49.0725596 73.1611832,48.6791842 C73.1611832,48.0851733 72.7348908,47.7243083 72.1420706,47.7243083 L70.9893647,47.7243083 C70.9044773,47.7243083 70.8604101,47.7730738 70.8604101,47.8589941 L70.8604101,51.3817245 Z M78.5067697,43.5994394 C78.2845782,43.5994394 78.1718588,43.487325 78.1718588,43.2604027 L78.1718588,36.7060805 C78.1718588,36.4806443 78.2845782,36.3679727 78.5067697,36.3679727 L78.8908504,36.3679727 C79.0842824,36.3679727 79.1965378,36.4292315 79.2967328,36.5930838 L82.3480403,41.0693433 C82.6003832,41.4589104 82.9348303,42.11418 82.9348303,42.11418 L82.9547765,42.11418 C82.9547765,42.11418 82.8954017,41.4693601 82.8954017,41.0693433 L82.8954017,36.7060805 C82.8954017,36.4806443 83.0164706,36.3679727 83.2284571,36.3679727 L83.553163,36.3679727 C83.7767462,36.3679727 83.8871462,36.4806443 83.8871462,36.7060805 L83.8871462,43.2604027 C83.8871462,43.487325 83.7767462,43.5994394 83.553163,43.5994394 L83.1676908,43.5994394 C82.9853916,43.5994394 82.8647866,43.5378554 82.773405,43.3746069 L79.7128202,38.907311 C79.4590857,38.5099879 79.1241748,37.8522567 79.1241748,37.8522567 L79.1033008,37.8522567 C79.1033008,37.8522567 79.1659227,38.4977268 79.1659227,38.907311 L79.1659227,43.2604027 C79.1659227,43.487325 79.0532034,43.5994394 78.8324034,43.5994394 L78.5067697,43.5994394 Z M72.5474891,43.2604027 C72.5474891,43.487325 72.6588168,43.5994394 72.8824,43.5994394 L76.5390521,43.5994394 C76.7640269,43.5994394 76.8744269,43.487325 76.8744269,43.2604027 L76.8744269,43.0562376 C76.8744269,42.8310801 76.7640269,42.7190122 76.5390521,42.7190122 L73.5406252,42.7190122 L73.5406252,40.3940101 L75.7806319,40.3940101 C75.9935462,40.3940101 76.115079,40.281292 76.115079,40.0546947 L76.115079,39.8510869 C76.115079,39.6244897 75.9935462,39.5117716 75.7806319,39.5117716 L73.5406252,39.5117716 L73.5406252,37.2486785 L76.366958,37.2486785 C76.5919328,37.2486785 76.7009412,37.1257893 76.7009412,36.9096418 L76.7009412,36.7060805 C76.7009412,36.4806443 76.5919328,36.3679727 76.366958,36.3679727 L72.8824,36.3679727 C72.6588168,36.3679727 72.5474891,36.4806443 72.5474891,36.7060805 L72.5474891,43.2604027 Z M67.2872538,37.2486785 L67.2872538,39.839151 L68.7270924,39.839151 C69.5077782,39.839151 70.0036504,39.3076065 70.0036504,38.4977268 C70.0036504,37.9754246 69.7796034,37.5661655 69.3342924,37.3718464 C69.1519933,37.2887592 68.9404706,37.2486785 68.4830992,37.2486785 L67.2872538,37.2486785 Z M61.9467697,38.3856125 L61.1466017,40.6804264 L63.3147092,40.6804264 L62.5252101,38.3856125 C62.4022857,38.0173165 62.2515294,37.3601891 62.2515294,37.3601891 L62.2311193,37.3601891 C62.2311193,37.3601891 62.0678387,38.0173165 61.9467697,38.3856125 Z M50.4350185,39.2313465 L54.2790723,39.2313465 C54.2790723,38.4492864 53.7238252,37.3270285 52.4616471,37.3270285 C51.4731496,37.3270285 50.5514487,38.0223788 50.4350185,39.2313465 Z M44.7813324,38.2857592 C44.7813324,37.6791622 45.2971973,37.3826212 45.9677613,37.3826212 C46.6378151,37.3826212 47.1091025,37.6283532 47.4059765,37.7930878 C47.6439395,37.9237331 47.8610286,37.8938235 48.0201345,37.636713 L48.1467697,37.4259529 C48.2919597,37.1751587 48.2446454,36.9646772 47.9923025,36.8047262 C47.6578555,36.5918762 47.0154017,36.2546508 46.038037,36.2546508 C44.6541405,36.2546508 43.4822306,36.9595685 43.4822306,38.3156688 C43.4822306,39.6859807 44.658037,40.1279359 45.6741345,40.5098399 C46.4471664,40.8004361 47.1276571,41.0562927 47.1276571,41.659778 C47.1276571,42.2678612 46.6238992,42.6056903 45.9260598,42.6056903 C45.102281,42.6056903 44.5160013,42.2373943 44.1942178,42.0271916 C43.9522192,41.8678443 43.730677,41.8789443 43.5514393,42.1249549 L43.4124188,42.3231752 C43.2568383,42.5563675 43.2763671,42.7829647 43.5100161,42.9593567 C43.9028639,43.2529253 44.7106393,43.7348683 45.8840336,43.7348683 C47.4059765,43.7348683 48.4246252,42.8463599 48.4246252,41.6325622 C48.4246252,40.257513 47.2566118,39.8237782 46.2435294,39.4474475 C45.4670185,39.1590806 44.7813324,38.9044315 44.7813324,38.2857592 Z M40.0534292,43.7348683 C41.5752793,43.7348683 42.5951805,42.8463599 42.5951805,41.6325622 C42.5951805,40.257513 41.4269351,39.8237782 40.4133425,39.4474475 C39.6366461,39.1590806 38.9507281,38.9044315 38.9507281,38.2857592 C38.9507281,37.6791622 39.4674743,37.3826212 40.1377136,37.3826212 C40.8079993,37.3826212 41.2809566,37.6283532 41.5752793,37.7930878 C41.8148659,37.9237331 42.030517,37.8938235 42.1908289,37.636713 L42.3162118,37.4259529 C42.4626541,37.1751587 42.4158965,36.9646772 42.1627187,36.8047262 C41.8272975,36.5918762 41.185122,36.2546508 40.2075254,36.2546508 C38.8247422,36.2546508 37.6522292,36.9595685 37.6522292,38.3156688 C37.6522292,39.6859807 38.8274326,40.1279359 39.8430662,40.5098399 C40.6157271,40.8004361 41.2960323,41.0562927 41.2960323,41.659778 C41.2960323,42.2678612 40.7949647,42.6056903 40.0957338,42.6056903 C39.2713519,42.6056903 38.6856753,42.2373943 38.3632887,42.0271916 C38.1219395,41.8678443 37.9006756,41.8789443 37.7217163,42.1249549 L37.5818145,42.3231752 C37.4256309,42.5563675 37.4457627,42.7829647 37.6794118,42.9593567 C38.0722131,43.2529253 38.880035,43.7348683 40.0534292,43.7348683 Z" id="Shape" fill="#9DA6B9"></path>
                <g id="Clipped" transform="translate(0.000000, 0.128335)">
                    <mask id="mask-4" fill="white">
                        <use xlink:href="#path-3"></use>
                    </mask>
                    <g id="Shape"></g>
                    <rect id="Rectangle" fill="#9DA6B9" fill-rule="nonzero" mask="url(#mask-4)" x="0" y="0" width="91.9611658" height="28.9159146"></rect>
                </g>
            </g>
        </g>
    </g>
</svg>