<?xml version="1.0" encoding="UTF-8"?>
<svg width="162px" height="91px" viewBox="0 0 162 91" version="1.1" xmlns="http://www.w3.org/2000/svg" xmlns:xlink="http://www.w3.org/1999/xlink">
    <title>Group 10</title>
    <defs>
        <path d="M7.19470516,0.146939713 C8.94930774,0.542101435 14.7121141,2.17298756 14.7121141,6.54814163 C14.7121141,12.7544957 0.179712636,13.8726201 0.179712636,20.0738297 C0.179712636,24.4536459 5.9460163,26.0858182 7.69759851,26.4772823 C7.70475204,26.4684402 7.67367391,26.4499522 7.58616236,26.4234258 C6.68767867,26.156555 5.17486549,25.5159043 5.17486549,24.1911158 C5.17486549,19.5641225 17.85482,19.7311579 17.85482,10.5117359 C17.85482,2.6497378 9.71640489,0.583739713 7.31941508,0.146939713 C7.28579348,0.141312919 7.25678193,0.13874067 7.23436753,0.13874067 C7.21250951,0.13874067 7.19772554,0.141312919 7.19470516,0.146939713 Z" id="path-1"></path>
        <path d="M124.910479,45.7967781 L124.910479,47.5020733 C124.910479,48.9077251 126.049987,50.0467752 127.454139,50.0467752 C128.859101,50.0467752 129.996181,48.9077251 129.996181,47.5020733 L129.996181,45.7967781 C129.996181,44.3916122 128.859101,43.2515093 127.454139,43.2515093 C126.049987,43.2515093 124.910479,44.3916122 124.910479,45.7967781 Z M117.103877,45.6304355 L117.103877,47.5020733 C117.103877,48.9077251 118.243385,50.0467752 119.648347,50.0467752 C121.05169,50.0467752 122.189579,48.9077251 122.189579,47.5020733 L122.189579,45.6304355 C122.189579,44.2252696 121.05169,43.0856526 119.648347,43.0856526 C118.243385,43.0856526 117.103877,44.2252696 117.103877,45.6304355 Z M132.717889,45.2207338 L132.717889,47.5020733 C132.717889,48.9077251 133.855779,50.0467752 135.26155,50.0467752 C136.664893,50.0467752 137.804401,48.9077251 137.804401,47.5020733 L137.804401,45.2207338 C137.804401,43.815082 136.664893,42.675465 135.26155,42.675465 C133.855779,42.675465 132.717889,43.815082 132.717889,45.2207338 Z M109.297276,44.7698109 L109.297276,47.5020733 C109.297276,48.9077251 110.435975,50.0467752 111.839318,50.0467752 C113.244279,50.0467752 114.382978,48.9077251 114.382978,47.5020733 L114.382978,44.7698109 C114.382978,43.364645 113.244279,42.2255139 111.839318,42.2255139 C110.435975,42.2255139 109.297276,43.364645 109.297276,44.7698109 Z M101.490674,43.5893776 L101.490674,47.5020733 C101.490674,48.9077251 102.628564,50.0467752 104.033526,50.0467752 C105.437678,50.0467752 106.576377,48.9077251 106.576377,47.5020733 L106.576377,43.5893776 C106.576377,42.1837258 105.437678,41.0441088 104.033526,41.0441088 C102.628564,41.0441088 101.490674,42.1837258 101.490674,43.5893776 Z M140.5253,43.3465854 L140.5253,47.5020733 C140.5253,48.9077251 141.66319,50.0467752 143.067342,50.0467752 C144.472304,50.0467752 145.611002,48.9077251 145.611002,47.5020733 L145.611002,43.3465854 C145.611002,41.9403667 144.472304,40.8007497 143.067342,40.8007497 C141.66319,40.8007497 140.5253,41.9403667 140.5253,43.3465854 Z M93.6832637,41.1773287 L93.6832637,47.5020733 C93.6832637,48.9077251 94.8219624,50.0467752 96.2261148,50.0467752 C97.6310764,50.0467752 98.7689659,48.9077251 98.7689659,47.5020733 L98.7689659,41.1773287 C98.7689659,39.7716769 97.6310764,38.6320599 96.2261148,38.6320599 C94.8219624,38.6320599 93.6832637,39.7716769 93.6832637,41.1773287 Z M148.331902,41.0177078 L148.331902,47.5020733 C148.331902,48.9077251 149.469791,50.0467752 150.874753,50.0467752 C152.279714,50.0467752 153.418413,48.9077251 153.418413,47.5020733 L153.418413,41.0177078 C153.418413,39.6126229 152.279714,38.4730059 150.874753,38.4730059 C149.469791,38.4730059 148.331902,39.6126229 148.331902,41.0177078 Z M85.8766623,38.3913733 L85.8766623,47.5020733 C85.8766623,48.9077251 87.0145517,50.0467752 88.4203227,50.0467752 C89.8236657,50.0467752 90.9623645,48.9077251 90.9623645,47.5020733 L90.9623645,38.3913733 C90.9623645,36.9862075 89.8236657,35.8461046 88.4203227,35.8461046 C87.0145517,35.8461046 85.8766623,36.9862075 85.8766623,38.3913733 Z M156.138503,37.4387501 L156.138503,47.5020733 C156.138503,48.9077251 157.277202,50.0467752 158.681354,50.0467752 C159.699466,50.0467752 160.578376,49.4475693 160.98465,48.5817616 L160.98465,36.3280447 C160.578376,35.4142131 159.699466,34.7266528 158.681354,34.7266528 C157.277202,34.7266528 156.138503,36.0335842 156.138503,37.4387501 Z M78.0692515,35.8461046 L78.0692515,47.5020733 C78.0692515,48.9077251 79.2074647,50.0467752 80.6120217,50.0467752 C82.0170643,50.0467752 83.1549537,48.9077251 83.1549537,47.5020733 L83.1549537,35.8461046 C83.1549537,34.4404528 82.0170643,33.3013217 80.6120217,33.3013217 C79.2074647,33.3013217 78.0692515,34.4404528 78.0692515,35.8461046 Z M0,35.6110059 L0,47.5020733 C0,48.9077251 1.13872304,50.0467752 2.54277017,50.0467752 C3.94682539,50.0467752 5.08554843,48.9077251 5.08554843,47.5020733 L5.08554843,35.6110059 C5.08554843,34.2059211 3.94682539,33.06679 2.54277017,33.06679 C1.13872304,33.06679 0,34.2059211 0,35.6110059 Z M70.2623264,33.4976287 L70.2623264,47.5020733 C70.2623264,48.9077251 71.4010251,50.0467752 72.8055821,50.0467752 C74.2101391,50.0467752 75.3473002,48.9077251 75.3473002,47.5020733 L75.3473002,33.4976287 C75.3473002,32.0919769 74.2101391,30.9529268 72.8055821,30.9529268 C71.4010251,30.9529268 70.2623264,32.0919769 70.2623264,33.4976287 Z M7.80640719,32.5584489 L7.80640719,47.5020733 C7.80640719,48.9077251 8.94562391,50.0467752 10.3496953,50.0467752 C11.7547379,50.0467752 12.8935176,48.9077251 12.8935176,47.5020733 L12.8935176,32.5584489 C12.8935176,31.1527971 11.7547379,30.0131801 10.3496953,30.0131801 C8.94562391,30.0131801 7.80640719,31.1527971 7.80640719,32.5584489 Z M62.4558868,31.1492338 L62.4558868,47.5020733 C62.4558868,48.9077251 63.5945856,50.0467752 64.9981714,50.0467752 C66.403214,50.0467752 67.5419937,48.9077251 67.5419937,47.5020733 L67.5419937,31.1492338 C67.5419937,29.7430151 66.403214,28.603965 64.9981714,28.603965 C63.5945856,28.603965 62.4558868,29.7430151 62.4558868,31.1492338 Z M15.6138503,29.5058919 L15.6138503,47.5020733 C15.6138503,48.9077251 16.7536012,50.0467752 18.1571061,50.0467752 C19.5606919,50.0467752 20.6998762,48.9077251 20.6998762,47.5020733 L20.6998762,29.5058919 C20.6998762,28.1002401 19.5606919,26.9606231 18.1571061,26.9606231 C16.7536012,26.9606231 15.6138503,28.1002401 15.6138503,29.5058919 Z M54.6484761,28.8007579 L54.6484761,47.5020733 C54.6484761,48.9077251 55.7871748,50.0467752 57.1912462,50.0467752 C58.5958032,50.0467752 59.734502,48.9077251 59.734502,47.5020733 L59.734502,28.8007579 C59.734502,27.395592 58.5958032,26.255975 57.1912462,26.255975 C55.7871748,26.255975 54.6484761,27.395592 54.6484761,28.8007579 Z M46.8409844,27.4353555 L46.8409844,47.5020733 C46.8409844,48.9077251 47.9802497,50.0467752 49.3848067,50.0467752 C50.7893637,50.0467752 51.9275768,48.9077251 51.9275768,47.5020733 L51.9275768,27.4353555 C51.9275768,26.0297037 50.7893637,24.8906537 49.3848067,24.8906537 C47.9802497,24.8906537 46.8409844,26.0297037 46.8409844,27.4353555 Z M23.4207755,27.4353555 L23.4207755,47.5020733 C23.4207755,48.9077251 24.5594742,50.0467752 25.9640312,50.0467752 C27.3685882,50.0467752 28.5068014,48.9077251 28.5068014,47.5020733 L28.5068014,27.4353555 C28.5068014,26.0302706 27.3685882,24.8900868 25.9640312,24.8900868 C24.5594742,24.8900868 23.4207755,26.0302706 23.4207755,27.4353555 Z M31.2277006,26.2963054 L31.2277006,47.5020733 C31.2277006,48.9077251 32.3663994,50.0467752 33.7709564,50.0467752 C35.1750278,50.0467752 36.3137265,48.9077251 36.3137265,47.5020733 L36.3137265,26.2963054 C36.3137265,24.8900868 35.1750278,23.7510367 33.7709564,23.7510367 C32.3663994,23.7510367 31.2277006,24.8900868 31.2277006,26.2963054 Z M39.0340592,26.2957385 L39.0340592,47.5020733 C39.0340592,48.9077251 40.173891,50.0467752 41.5773959,50.0467752 C42.9819529,50.0467752 44.1206517,48.9077251 44.1206517,47.5020733 L44.1206517,26.2957385 C44.1206517,24.8896008 42.9819529,23.7510367 41.5773959,23.7510367 C40.173891,23.7510367 39.0340592,24.8896008 39.0340592,26.2957385 Z M0,15.3423932 L0,27.1667292 C0,28.572381 1.13872304,29.7115121 2.54277017,29.7115121 C3.94682539,29.7115121 5.08554843,28.572381 5.08554843,27.1667292 L5.08554843,15.3423932 C5.08554843,13.9361745 3.94682539,12.7976104 2.54277017,12.7976104 C1.13872304,12.7976104 0,13.9361745 0,15.3423932 Z M156.138503,15.3423932 L156.138503,28.8617394 C156.138503,30.2668243 157.277202,31.4059553 158.681354,31.4059553 C159.699466,31.4059553 160.578376,30.8066684 160.98465,29.9414277 L160.98465,14.262219 C160.578376,13.3964114 159.699466,12.7976104 158.681354,12.7976104 C157.277202,12.7976104 156.138503,13.9361745 156.138503,15.3423932 Z M7.80640719,13.1767808 L7.80640719,24.1421119 C7.80640719,25.5482496 8.94562391,26.6878666 10.3496953,26.6878666 C11.7547379,26.6878666 12.8935176,25.5482496 12.8935176,24.1421119 L12.8935176,13.1767808 C12.8935176,11.7706431 11.7547379,10.6310261 10.3496953,10.6310261 C8.94562391,10.6310261 7.80640719,11.7706431 7.80640719,13.1767808 Z M148.331902,13.1767808 L148.331902,32.4396443 C148.331902,33.845863 149.469791,34.9849131 150.874753,34.9849131 C152.279714,34.9849131 153.418413,33.845863 153.418413,32.4396443 L153.418413,13.1767808 C153.418413,11.7706431 152.279714,10.6310261 150.874753,10.6310261 C149.469791,10.6310261 148.331902,11.7706431 148.331902,13.1767808 Z M15.6138503,10.7214051 L15.6138503,21.0244431 C15.6138503,22.4300949 16.7536012,23.569145 18.1571061,23.569145 C19.5606919,23.569145 20.6998762,22.4300949 20.6998762,21.0244431 L20.6998762,10.7214051 C20.6998762,9.31575331 19.5606919,8.17613633 18.1571061,8.17613633 C16.7536012,8.17613633 15.6138503,9.31575331 15.6138503,10.7214051 Z M140.5253,10.7214051 L140.5253,34.7684409 C140.5253,36.1740927 141.66319,37.3137097 143.067342,37.3137097 C144.472304,37.3137097 145.611002,36.1740927 145.611002,34.7684409 L145.611002,10.7214051 C145.611002,9.31575331 144.472304,8.17613633 143.067342,8.17613633 C141.66319,8.17613633 140.5253,9.31575331 140.5253,10.7214051 Z M23.4207755,9.27752852 L23.4207755,18.6852805 C23.4207755,20.0909323 24.5594742,21.2300633 25.9640312,21.2300633 C27.3685882,21.2300633 28.5068014,20.0909323 28.5068014,18.6852805 L28.5068014,9.27752852 C28.5068014,7.87189294 27.3685882,6.73228406 25.9640312,6.73228406 C24.5594742,6.73228406 23.4207755,7.87189294 23.4207755,9.27752852 Z M132.717889,9.27752852 L132.717889,36.6426703 C132.717889,38.0478362 133.855779,39.1874531 135.26155,39.1874531 C136.664893,39.1874531 137.804401,38.0478362 137.804401,36.6426703 L137.804401,9.27752852 C137.804401,7.87189294 136.664893,6.73228406 135.26155,6.73228406 C133.855779,6.73228406 132.717889,7.87189294 132.717889,9.27752852 Z M31.2277006,7.60687854 L31.2277006,17.6025148 C31.2277006,19.0075997 32.3663994,20.1472166 33.7709564,20.1472166 C35.1750278,20.1472166 36.3137265,19.0075997 36.3137265,17.6025148 L36.3137265,7.60687854 C36.3137265,6.20121866 35.1750278,5.06160978 33.7709564,5.06160978 C32.3663994,5.06160978 31.2277006,6.20121866 31.2277006,7.60687854 Z M124.910479,7.60687854 L124.910479,37.2192005 C124.910479,38.6248523 126.049987,39.7639834 127.454139,39.7639834 C128.859101,39.7639834 129.996181,38.6248523 129.996181,37.2192005 L129.996181,7.60687854 C129.996181,6.20121866 128.859101,5.06160978 127.454139,5.06160978 C126.049987,5.06160978 124.910479,6.20121866 124.910479,7.60687854 Z M39.0340592,6.16247557 L39.0340592,17.7466676 C39.0340592,19.1523194 40.173891,20.2919363 41.5773959,20.2919363 C42.9819529,20.2919363 44.1206517,19.1523194 44.1206517,17.7466676 L44.1206517,6.16247557 C44.1206517,4.75681569 42.9819529,3.61720681 41.5773959,3.61720681 C40.173891,3.61720681 39.0340592,4.75681569 39.0340592,6.16247557 Z M117.103877,6.16247557 L117.103877,37.0533438 C117.103877,38.4589956 118.243385,39.5981267 119.648347,39.5981267 C121.05169,39.5981267 122.189579,38.4589956 122.189579,37.0533438 L122.189579,6.16247557 C122.189579,4.75681569 121.05169,3.61720681 119.648347,3.61720681 C118.243385,3.61720681 117.103877,4.75681569 117.103877,6.16247557 Z M46.8409844,5.07917537 L46.8409844,18.714192 C46.8409844,20.1198438 47.9802497,21.2589749 49.3848067,21.2589749 C50.7893637,21.2589749 51.9275768,20.1198438 51.9275768,18.714192 L51.9275768,5.07917537 C51.9275768,3.67351548 50.7893637,2.53441681 49.3848067,2.53441681 C47.9802497,2.53441681 46.8409844,3.67351548 46.8409844,5.07917537 Z M109.297276,5.07917537 L109.297276,36.3538788 C109.297276,37.7595306 110.435975,38.8991475 111.839318,38.8991475 C113.244279,38.8991475 114.382978,37.7595306 114.382978,36.3538788 L114.382978,5.07917537 C114.382978,3.67351548 113.244279,2.53441681 111.839318,2.53441681 C110.435975,2.53441681 109.297276,3.67351548 109.297276,5.07917537 Z M54.6484761,4.28567898 L54.6484761,20.3916285 C54.6484761,21.7977662 55.7871748,22.9363304 57.1912462,22.9363304 C58.5958032,22.9363304 59.734502,21.7977662 59.734502,20.3916285 L59.734502,4.28567898 C59.734502,2.8795089 58.5958032,1.74041022 57.1912462,1.74041022 C55.7871748,1.74041022 54.6484761,2.8795089 54.6484761,4.28567898 Z M101.490674,4.28567898 L101.490674,34.7684409 C101.490674,36.1740927 102.628564,37.3137097 104.033526,37.3137097 C105.437678,37.3137097 106.576377,36.1740927 106.576377,34.7684409 L106.576377,4.28567898 C106.576377,2.8795089 105.437678,1.74041022 104.033526,1.74041022 C102.628564,1.74041022 101.490674,2.8795089 101.490674,4.28567898 Z M62.4558868,3.56296324 L62.4558868,22.7447205 C62.4558868,24.1503723 63.5945856,25.2894224 64.9981714,25.2894224 C66.403214,25.2894224 67.5419937,24.1503723 67.5419937,22.7447205 L67.5419937,3.56296324 C67.5419937,2.15782166 66.403214,1.01873109 64.9981714,1.01873109 C63.5945856,1.01873109 62.4558868,2.15782166 62.4558868,3.56296324 Z M93.6832637,3.56296324 L93.6832637,32.4396443 C93.6832637,33.845863 94.8219624,34.9849131 96.2261148,34.9849131 C97.6310764,34.9849131 98.7689659,33.845863 98.7689659,32.4396443 L98.7689659,3.56296324 C98.7689659,2.15782166 97.6310764,1.01873109 96.2261148,1.01873109 C94.8219624,1.01873109 93.6832637,2.15782166 93.6832637,3.56296324 Z M70.2623264,2.91360346 L70.2623264,25.0383698 C70.2623264,26.4445885 71.4010251,27.5836385 72.8055821,27.5836385 C74.2101391,27.5836385 75.3473002,26.4445885 75.3473002,25.0383698 L75.3473002,2.91360346 C75.3473002,1.50794358 74.2101391,0.368333083 72.8055821,0.368333083 C71.4010251,0.368333083 70.2623264,1.50794358 70.2623264,2.91360346 Z M85.8766623,2.91360346 L85.8766623,29.8882207 C85.8766623,31.2943584 87.0145517,32.4339754 88.4203227,32.4339754 C89.8236657,32.4339754 90.9623645,31.2943584 90.9623645,29.8882207 L90.9623645,2.91360346 C90.9623645,1.50794358 89.8236657,0.368333083 88.4203227,0.368333083 C87.0145517,0.368333083 85.8766623,1.50794358 85.8766623,2.91360346 Z M78.0692515,2.54475046 L78.0692515,27.1667292 C78.0692515,28.572381 79.2074647,29.7115121 80.6120217,29.7115121 C82.0170643,29.7115121 83.1549537,28.572381 83.1549537,27.1667292 L83.1549537,2.54475046 C83.1549537,1.13960888 82.0170643,0 80.6120217,0 C79.2074647,0 78.0692515,1.13960888 78.0692515,2.54475046 Z" id="path-3"></path>
    </defs>
    <g id="Page-1" stroke="none" stroke-width="1" fill="none" fill-rule="evenodd">
        <g id="iPhone-X" transform="translate(-1505.000000, -3050.000000)">
            <g id="Group-10" transform="translate(1505.000000, 3050.765542)">
                <path d="M51.19725,56.1701214 C52.1112749,56.4381523 53.654132,57.0849559 53.654132,58.4184723 C53.654132,63.07813 40.7368421,62.908941 40.7368421,72.1940946 C40.7368421,80.115294 49.028151,82.1946989 51.4668189,82.6334568 C51.5357897,82.646409 51.5881654,82.646409 51.5928606,82.6334568 C49.8089295,82.2392223 43.9360506,80.5954991 43.9360506,76.1847678 C43.9360506,69.9395913 58.7368421,68.8136349 58.7368421,62.5632775 C58.7368421,58.1571604 52.8676869,56.5147325 51.0805987,56.1168552 C51.0780083,56.1271361 51.1065032,56.1442168 51.19725,56.1701214" id="Path" stroke="#9DA6B9" stroke-width="1.5"></path>
                <path d="M50.7228851,56.1251127 C52.5097396,56.5230916 58.3784743,58.1656047 58.3784743,62.5719504 C58.3784743,68.8225511 43.5789474,69.9486469 43.5789474,76.1940665 C43.5789474,80.6051076 49.4512436,82.248916 51.2350223,82.643171 C51.2423073,82.6342658 51.2106579,82.615646 51.1215378,82.5889306 C50.2065387,82.3201572 48.665918,81.6749391 48.665918,80.3407058 C48.665918,75.6807255 61.5789474,75.8489517 61.5789474,66.5638021 C61.5789474,58.6457539 53.2909371,56.5650267 50.8498873,56.1251127 C50.8156477,56.1194458 50.7861029,56.1168552 50.7632765,56.1168552 C50.7410167,56.1168552 50.725961,56.1194458 50.7228851,56.1251127 Z" id="Path" fill="#9DA6B9"></path>
                <g id="Clipped" transform="translate(43.578947, 56.116855)">
                    <mask id="mask-2" fill="white">
                        <use xlink:href="#path-1"></use>
                    </mask>
                    <g id="Path"></g>
                </g>
                <path d="M88.2073083,69.6959174 L96.2066165,69.6959174 C96.6199398,69.6959174 96.9861654,69.4796073 97.0722406,69.0821949 C97.0868571,69.033081 97.0917293,68.9766523 97.0917293,68.9150791 C97.0917293,65.5616705 95.3434286,62.7484341 91.8849925,62.7484341 C88.5166917,62.7484341 86.0115789,65.2890121 86.0115789,69.2214179 C86.0115789,72.8863097 88.5613534,75.6949643 92.2804511,75.6949643 C94.1732932,75.6949643 95.5740451,74.8846255 96.2780752,74.3744361 C96.6913985,74.0722772 96.7441805,73.7142523 96.5127519,73.300281 L96.3024361,72.934459 C96.0628872,72.512771 95.6065263,72.3917145 95.2492331,72.6648552 C94.7108571,73.0803538 93.7055639,73.6423097 92.4193083,73.6423097 C90.3721805,73.6423097 88.3916391,72.362214 88.2073083,69.6959174 Z M5.83904571,75.4895059 C5.46519519,75.4895059 5.26791248,75.2949796 5.26791248,74.9037566 L5.26791248,64.4724839 L1.53352421,64.4724839 C1.14310015,64.4724839 0.947368421,64.2593088 0.947368421,63.88577 L0.947368421,63.5297547 C0.947368421,63.1395767 1.14310015,62.9445681 1.53352421,62.9445681 L10.746785,62.9445681 C11.1211308,62.9445681 11.3163429,63.1395767 11.3163429,63.5297547 L11.3163429,63.88577 C11.3163429,64.2593088 11.1211308,64.4724839 10.746785,64.4724839 L7.01186887,64.4724839 L7.01186887,74.9037566 C7.01186887,75.2949796 6.79801263,75.4895059 6.42571308,75.4895059 L5.83904571,75.4895059 Z M13.0230677,74.9037566 C13.0230677,75.2949796 13.2172241,75.4895059 13.6102466,75.4895059 L14.1787489,75.4895059 C14.5712842,75.4895059 14.7664962,75.2949796 14.7664962,74.9037566 L14.7664962,69.9810351 L21.2918075,69.9810351 L21.2918075,74.9037566 C21.2918075,75.2949796 21.5051278,75.4895059 21.8784992,75.4895059 L22.4661654,75.4895059 C22.8374256,75.4895059 23.0352361,75.2949796 23.0352361,74.9037566 L23.0352361,63.5297547 C23.0352361,63.1395767 22.8374256,62.9445681 22.4661654,62.9445681 L21.8784992,62.9445681 C21.5051278,62.9445681 21.2918075,63.1395767 21.2918075,63.5297547 L21.2918075,68.4706428 L14.7664962,68.4706428 L14.7664962,63.5297547 C14.7664962,63.1395767 14.5712842,62.9445681 14.1787489,62.9445681 L13.6102466,62.9445681 C13.2172241,62.9445681 13.0230677,63.1395767 13.0230677,63.5297547 L13.0230677,74.9037566 Z M26.824006,75.4895059 C26.4346376,75.4895059 26.2363398,75.2949796 26.2363398,74.9037566 L26.2363398,63.5297547 C26.2363398,63.1395767 26.4346376,62.9445681 26.824006,62.9445681 L32.9418406,62.9445681 C33.3317774,62.9445681 33.5274767,63.1395767 33.5274767,63.5297547 L33.5274767,63.88577 C33.5274767,64.2593088 33.3317774,64.4724839 32.9418406,64.4724839 L27.9792,64.4724839 L27.9792,68.3992628 L31.9104,68.3992628 C32.2827158,68.3992628 32.4975789,68.5948341 32.4975789,68.9865394 L32.4975789,69.341992 C32.4975789,69.7331346 32.2827158,69.9292686 31.9104,69.9292686 L27.9792,69.9292686 L27.9792,73.9615901 L33.243185,73.9615901 C33.6341774,73.9615901 33.831988,74.1586887 33.831988,74.5498313 L33.831988,74.9037566 C33.831988,75.2949796 33.6341774,75.4895059 33.243185,75.4895059 L26.824006,75.4895059 Z M103.76012,74.7863174 C103.616391,75.1945815 103.796662,75.4605681 104.238406,75.4605681 L104.841744,75.4605681 C105.160872,75.4605681 105.393113,75.3026963 105.48,74.9834963 L106.581113,71.860304 L111.299008,71.860304 L112.416361,74.9834963 C112.521925,75.3026963 112.735489,75.4605681 113.074105,75.4605681 L113.67582,75.4605681 C114.102947,75.4605681 114.297023,75.1945815 114.155729,74.7863174 L110.039549,63.4221222 C109.933985,63.0878906 109.702556,62.9445681 109.380992,62.9445681 L108.530797,62.9445681 C108.195429,62.9445681 107.981053,63.0878906 107.875489,63.4221222 L103.76012,74.7863174 Z M116.052632,74.8737739 C116.052632,75.2665241 116.248331,75.4605681 116.638917,75.4605681 L117.206526,75.4605681 C117.594677,75.4605681 117.791188,75.2665241 117.791188,74.8737739 L117.791188,70.4787652 L120.470887,70.4787652 L122.918346,75.0553585 C123.061263,75.3374217 123.274827,75.4605681 123.611008,75.4605681 L124.319098,75.4605681 C124.76409,75.4605681 124.941113,75.1759327 124.710496,74.7697585 L122.458737,70.6040016 C122.246797,70.2143863 122.086015,70.0373834 122.086015,70.0373834 L122.086015,70.0006485 C123.46809,69.5401356 124.319098,68.1549796 124.319098,66.5602657 C124.319098,64.9640246 123.539549,63.8127825 122.350737,63.2813719 C121.835098,63.050593 121.233383,62.9445681 120.011278,62.9445681 L116.638917,62.9445681 C116.248331,62.9445681 116.052632,63.1395767 116.052632,63.5297547 L116.052632,74.8737739 Z M148.765263,74.7863174 C148.625594,75.1945815 148.803429,75.4605681 149.244361,75.4605681 L149.846075,75.4605681 C150.169263,75.4605681 150.39988,75.3026963 150.488391,74.9834963 L151.587068,71.860304 L156.305774,71.860304 L157.424752,74.9834963 C157.530316,75.3026963 157.74388,75.4605681 158.081684,75.4605681 L158.685023,75.4605681 C159.109714,75.4605681 159.304602,75.1945815 159.163308,74.7863174 L155.048752,63.4221222 C154.93994,63.0878906 154.710947,62.9445681 154.391008,62.9445681 L153.54,62.9445681 C153.200571,62.9445681 152.988632,63.0878906 152.882256,63.4221222 L148.765263,74.7863174 Z M153.451489,66.436637 L152.049925,70.4084303 L155.846165,70.4084303 L154.46409,66.436637 C154.249714,65.7992016 153.983368,64.6618657 153.983368,64.6618657 L153.947639,64.6618657 C153.947639,64.6618657 153.665053,65.7992016 153.451489,66.436637 Z M150.138406,88.5834581 C150.409624,88.807726 151.100662,89.2747499 152.062917,89.2747499 C153.31588,89.2747499 154.063759,88.4813719 154.063759,87.4733719 C154.063759,86.3415825 153.123429,85.9372571 152.251308,85.5626734 C151.49612,85.2395346 150.792902,84.9372954 150.792902,84.2058121 C150.792902,83.5153241 151.418977,83.1053719 152.166857,83.1053719 C152.764511,83.1053719 153.194887,83.3642045 153.42794,83.5233624 C153.550556,83.5989222 153.670737,83.5989222 153.756,83.4582523 L153.838827,83.3087404 C153.914346,83.1881662 153.896481,83.0844724 153.783609,83.0016782 C153.54,82.8135825 152.970767,82.4864246 152.185534,82.4864246 C151.035699,82.4864246 150.129474,83.1688743 150.129474,84.2419844 C150.129474,85.3126829 151.034887,85.7121853 151.892391,86.0907882 C152.665444,86.4316112 153.400331,86.7555538 153.400331,87.538482 C153.400331,88.2193241 152.848962,88.658214 152.062917,88.658214 C151.327218,88.658214 150.774226,88.2763959 150.550105,88.089104 C150.42018,87.99586 150.317053,88.0047021 150.223669,88.1180418 L150.111609,88.257104 C150.018226,88.3881279 150.045835,88.4910179 150.138406,88.5834581 Z M157.096692,88.9299078 C157.096692,89.0794198 157.181143,89.1630179 157.330556,89.1630179 L157.518135,89.1630179 C157.666737,89.1630179 157.741444,89.0794198 157.741444,88.9299078 L157.741444,83.1777164 L159.873023,83.1777164 C160.021624,83.1777164 160.105263,83.0941184 160.105263,82.9446064 L160.105263,82.8328743 C160.105263,82.6841662 160.021624,82.5997643 159.873023,82.5997643 L154.975669,82.5997643 C154.826256,82.5997643 154.741805,82.6841662 154.741805,82.8328743 L154.741805,82.9446064 C154.741805,83.0941184 154.826256,83.1777164 154.975669,83.1777164 L157.096692,83.1777164 L157.096692,88.9299078 Z M146.301564,84.1302523 L145.424571,86.5119939 L147.686075,86.5119939 L146.815579,84.1302523 C146.712451,83.8223863 146.573594,83.2717643 146.573594,83.2717643 L146.554105,83.2717643 C146.554105,83.2717643 146.404692,83.8223863 146.301564,84.1302523 Z M143.893083,88.8921279 C143.845173,89.0593241 143.910135,89.1630179 144.08797,89.1630179 L144.284481,89.1630179 C144.415218,89.1630179 144.507789,89.1067499 144.545955,88.9765298 L145.236992,87.0722619 L147.87203,87.0722619 L148.573624,88.9765298 C148.610977,89.1067499 148.702737,89.1630179 148.835098,89.1630179 L149.040541,89.1630179 C149.20782,89.1630179 149.275218,89.0593241 149.22812,88.8921279 L146.965805,82.7854485 C146.927639,82.6552284 146.834256,82.5997643 146.712451,82.5997643 L146.404692,82.5997643 C146.282887,82.5997643 146.190316,82.6552284 146.152962,82.7854485 L143.893083,88.8921279 Z M140.361564,89.1630179 C140.21215,89.1630179 140.137444,89.0794198 140.137444,88.9299078 L140.137444,82.8328743 C140.137444,82.6841662 140.21215,82.5997643 140.361564,82.5997643 L143.361203,82.5997643 C143.511429,82.5997643 143.594256,82.6841662 143.594256,82.8328743 L143.594256,82.9446064 C143.594256,83.0941184 143.511429,83.1777164 143.361203,83.1777164 L140.782195,83.1777164 L140.782195,85.64386 L142.96818,85.64386 C143.118406,85.64386 143.193113,85.7178121 143.193113,85.8673241 L143.193113,85.9878983 C143.193113,86.1390179 143.118406,86.222616 142.96818,86.222616 L140.782195,86.222616 L140.782195,88.9299078 C140.782195,89.0794198 140.698556,89.1630179 140.558075,89.1630179 L140.361564,89.1630179 Z M135.291248,88.9299078 C135.291248,89.0794198 135.365955,89.1630179 135.51618,89.1630179 L138.747248,89.1630179 C138.898286,89.1630179 138.981925,89.0794198 138.981925,88.9299078 L138.981925,88.8181758 C138.981925,88.6686638 138.898286,88.5834581 138.747248,88.5834581 L135.936,88.5834581 L135.936,82.8328743 C135.936,82.6841662 135.851549,82.5997643 135.712692,82.5997643 L135.51618,82.5997643 C135.365955,82.5997643 135.291248,82.6841662 135.291248,82.8328743 L135.291248,88.9299078 Z M130.165714,89.1630179 C130.014677,89.1630179 129.93997,89.0794198 129.93997,88.9299078 L129.93997,82.8328743 C129.93997,82.6841662 130.014677,82.5997643 130.165714,82.5997643 L133.405714,82.5997643 C133.55594,82.5997643 133.639579,82.6841662 133.639579,82.8328743 L133.639579,82.9446064 C133.639579,83.0941184 133.55594,83.1777164 133.405714,83.1777164 L130.584722,83.1777164 L130.584722,85.5683002 L132.845414,85.5683002 C132.996451,85.5683002 133.079278,85.64386 133.079278,85.7925681 L133.079278,85.9139461 C133.079278,86.0626542 132.996451,86.1470561 132.845414,86.1470561 L130.584722,86.1470561 L130.584722,88.5834581 L133.575429,88.5834581 C133.72403,88.5834581 133.806857,88.6686638 133.806857,88.8181758 L133.806857,88.9299078 C133.806857,89.0794198 133.72403,89.1630179 133.575429,89.1630179 L130.165714,89.1630179 Z M124.692632,88.5834581 L124.692632,86.0079939 L126.366226,86.0079939 C127.131158,86.0079939 127.663038,86.5208361 127.663038,87.3045681 C127.663038,88.089104 127.167699,88.5834581 126.374346,88.5834581 L124.692632,88.5834581 Z M124.692632,83.1777164 L124.692632,85.447726 L126.289895,85.447726 C126.953323,85.447726 127.401564,84.9807021 127.401564,84.2990561 C127.401564,83.6270561 126.981744,83.1777164 126.281774,83.1777164 L124.692632,83.1777164 Z M124.046256,88.9299078 C124.046256,89.0794198 124.123398,89.1630179 124.272,89.1630179 L126.366226,89.1630179 C127.467338,89.1630179 128.336211,88.4910179 128.336211,87.32386 C128.336211,86.5296782 127.907459,85.886616 127.232662,85.7001279 L127.232662,85.6808361 C127.737744,85.429238 128.073925,84.9332762 128.073925,84.2524341 C128.073925,83.2243384 127.327669,82.5997643 126.289895,82.5997643 L124.272,82.5997643 C124.123398,82.5997643 124.046256,82.6841662 124.046256,82.8328743 L124.046256,88.9299078 Z M137.431759,75.4605681 C137.042797,75.4605681 136.845474,75.2665241 136.845474,74.8737739 L136.845474,63.5297547 C136.845474,63.1395767 137.042797,62.9445681 137.431759,62.9445681 L138.10412,62.9445681 C138.442737,62.9445681 138.639248,63.050593 138.814647,63.3341834 L144.15618,71.0815557 C144.597925,71.7558064 145.183398,72.889927 145.183398,72.889927 L145.218316,72.889927 C145.218316,72.889927 145.114376,71.7738925 145.114376,71.0815557 L145.114376,63.5297547 C145.114376,63.1395767 145.326316,62.9445681 145.697414,62.9445681 L146.265835,62.9445681 C146.657233,62.9445681 146.850496,63.1395767 146.850496,63.5297547 L146.850496,74.8737739 C146.850496,75.2665241 146.657233,75.4605681 146.265835,75.4605681 L145.591038,75.4605681 C145.27191,75.4605681 145.060782,75.3539806 144.900812,75.0714351 L139.543038,67.3395767 C139.098857,66.6519021 138.512571,65.5135212 138.512571,65.5135212 L138.47603,65.5135212 C138.47603,65.5135212 138.585654,66.630681 138.585654,67.3395767 L138.585654,74.8737739 C138.585654,75.2665241 138.388331,75.4605681 138.001805,75.4605681 L137.431759,75.4605681 Z M126.999609,74.8737739 C126.999609,75.2665241 127.194496,75.4605681 127.585895,75.4605681 L133.987128,75.4605681 C134.380962,75.4605681 134.574226,75.2665241 134.574226,74.8737739 L134.574226,74.5204112 C134.574226,74.1307155 134.380962,73.9367518 133.987128,73.9367518 L128.738165,73.9367518 L128.738165,69.9127097 L132.659459,69.9127097 C133.03218,69.9127097 133.244932,69.7176207 133.244932,69.3254332 L133.244932,68.9730351 C133.244932,68.5808475 133.03218,68.3857585 132.659459,68.3857585 L128.738165,68.3857585 L128.738165,64.4688667 L133.685865,64.4688667 C134.079699,64.4688667 134.270526,64.2561739 134.270526,63.8820724 L134.270526,63.5297547 C134.270526,63.1395767 134.079699,62.9445681 133.685865,62.9445681 L127.585895,62.9445681 C127.194496,62.9445681 126.999609,63.1395767 126.999609,63.5297547 L126.999609,74.8737739 Z M117.791188,64.4688667 L117.791188,68.9523767 L120.311729,68.9523767 C121.678376,68.9523767 122.546436,68.0323959 122.546436,66.630681 C122.546436,65.7266963 122.154226,65.0183633 121.374677,64.6820418 C121.055549,64.538237 120.685263,64.4688667 119.884602,64.4688667 L117.791188,64.4688667 Z M108.442286,66.436637 L107.041534,70.4084303 L110.836962,70.4084303 L109.454887,66.436637 C109.239699,65.7992016 108.975789,64.6618657 108.975789,64.6618657 L108.94006,64.6618657 C108.94006,64.6618657 108.654226,65.7992016 108.442286,66.436637 Z M88.2901353,67.9004073 L95.0194286,67.9004073 C95.0194286,66.5468418 94.0474286,64.6044724 91.8378947,64.6044724 C90.1074586,64.6044724 88.4939549,65.8079633 88.2901353,67.9004073 Z M78.3929504,66.263814 C78.3929504,65.2139346 79.296009,64.7006906 80.4698797,64.7006906 C81.6428571,64.7006906 82.4678797,65.1259959 82.9875789,65.4111136 C83.4041504,65.6372303 83.7841805,65.5854638 84.0627068,65.1404648 L84.284391,64.7756877 C84.5385564,64.3416207 84.4557293,63.977326 84.013985,63.7004877 C83.4285113,63.3320935 82.3038496,62.7484341 80.5929023,62.7484341 C78.1702917,62.7484341 76.1187789,63.9684839 76.1187789,66.3155806 C76.1187789,68.6872743 78.1771128,69.4521968 79.9558647,70.1131844 C81.3091128,70.6161394 82.5003609,71.0589681 82.5003609,72.1034619 C82.5003609,73.1559136 81.6184962,73.7406179 80.3968782,73.7406179 C78.954794,73.7406179 77.9284692,73.1031825 77.3651639,72.73937 C76.9415278,72.4635767 76.5537023,72.4827882 76.2399338,72.9085758 L75.9965684,73.2516495 C75.7242135,73.6552514 75.7584,74.0474389 76.1674195,74.3527327 C76.8551278,74.8608322 78.269197,75.6949643 80.3233083,75.6949643 C82.9875789,75.6949643 84.770797,74.1571614 84.770797,72.0563576 C84.770797,69.6764648 82.7261053,68.92577 80.9526316,68.2744284 C79.5932932,67.7753317 78.3929504,67.334593 78.3929504,66.263814 Z M70.116415,75.6949643 C72.7805233,75.6949643 74.5659338,74.1571614 74.5659338,72.0563576 C74.5659338,69.6764648 72.5208361,68.92577 70.7464692,68.2744284 C69.386806,67.7753317 68.1860571,67.334593 68.1860571,66.263814 C68.1860571,65.2139346 69.0906586,64.7006906 70.2639609,64.7006906 C71.4373444,64.7006906 72.2652902,65.1259959 72.7805233,65.4111136 C73.1999368,65.6372303 73.5774496,65.5854638 73.8580872,65.1404648 L74.0775789,64.7756877 C74.3339368,64.3416207 74.2520842,63.977326 73.8088782,63.7004877 C73.2216992,63.3320935 72.0975248,62.7484341 70.3861714,62.7484341 C67.9655098,62.7484341 65.9129414,63.9684839 65.9129414,66.3155806 C65.9129414,68.6872743 67.9702195,69.4521968 69.7481594,70.1131844 C71.1007579,70.6161394 72.2916812,71.0589681 72.2916812,72.1034619 C72.2916812,73.1559136 71.4145263,73.7406179 70.1904722,73.7406179 C68.7473323,73.7406179 67.7220632,73.1031825 67.1577023,72.73937 C66.735203,72.4635767 66.3478647,72.4827882 66.0345835,72.9085758 L65.7896752,73.2516495 C65.5162647,73.6552514 65.5515068,74.0474389 65.9605263,74.3527327 C66.6481534,74.8608322 68.0623038,75.6949643 70.116415,75.6949643 Z" id="Shape" fill="#9DA6B9"></path>
                <g id="Clipped" transform="translate(0.000000, 0.222118)">
                    <mask id="mask-4" fill="white">
                        <use xlink:href="#path-3"></use>
                    </mask>
                    <g id="Shape"></g>
                    <rect id="Rectangle" fill="#9DA6B9" fill-rule="nonzero" mask="url(#mask-4)" x="0" y="0" width="160.98465" height="50.0467752"></rect>
                </g>
            </g>
        </g>
    </g>
</svg>