<?xml version="1.0" encoding="UTF-8"?>
<svg width="204px" height="70px" viewBox="0 0 204 70" version="1.1" xmlns="http://www.w3.org/2000/svg" xmlns:xlink="http://www.w3.org/1999/xlink">
    <title>pfa-logo--dark</title>
    <g id="Page-1" stroke="none" stroke-width="1" fill="none" fill-rule="evenodd">
        <g id="iPhone-X" transform="translate(-1238.000000, -3061.000000)" fill="#9DA6B9" fill-rule="nonzero">
            <g id="pfa-logo--dark" transform="translate(1238.000000, 3061.000000)">
                <path d="M151.524177,19.0802781 C152.496149,19.3725362 153.259139,19.593191 153.259139,20.1455587 C153.259139,20.6979263 152.761232,21.0062586 151.902867,21.0062586 C151.050114,21.0734779 150.253462,20.5313393 149.971548,19.6910974 L149.971548,19.5990361 L147.567568,21.0062586 L147.567568,21.0515585 C148.378245,22.7539616 150.108999,23.7797873 151.928113,23.6351195 C153.821564,23.6351195 156.081081,22.7276583 156.081081,20.1762457 C156.081081,17.7242009 154.023532,17.1382235 152.521395,16.7042204 C151.569059,16.435343 150.811679,16.2176107 150.811679,15.6652431 C150.811679,15.1128754 151.259094,14.843998 151.947749,14.843998 C152.622379,14.8235399 153.245113,15.237085 153.513001,15.8829753 L153.513001,15.961885 L155.823011,14.6467238 L155.867893,14.6467238 L155.837036,14.5941174 C155.033372,13.1284434 153.511599,12.2429015 151.89305,12.2998918 C149.57743,12.2998918 147.965893,13.7071143 147.965893,15.7324624 C147.965893,18.0705266 150.01082,18.6711169 151.500334,19.1124265" id="Path"></path>
                <polygon id="Path" points="160.810811 12.2972973 157.972973 13.4051239 158.041812 22.6337275 158.041812 22.7027027 160.810811 22.7027027"></polygon>
                <path d="M159.369064,11.3513083 C160.144003,11.3573359 160.790386,10.7292598 160.810811,9.95169925 C160.807206,9.55869962 160.647413,9.18378281 160.367474,8.9101297 C160.104355,8.65576491 159.752329,8.51351351 159.387086,8.51351351 C158.610946,8.51351351 157.972973,9.1536448 157.972973,9.93241092 C157.972973,10.711177 158.610946,11.3513083 159.387086,11.3513083 L159.389489,11.3513083" id="Path"></path>
                <path d="M165.590597,17.9686071 C165.589142,17.9264033 165.587687,17.8841996 165.587687,17.8434511 C165.587687,16.3372141 166.826064,15.1002079 168.330743,15.1002079 L168.393317,15.1002079 C169.123829,15.0929314 169.829602,15.3723493 170.35784,15.8787942 C170.97048,16.4245322 171.322639,17.2060291 171.322639,18.0268191 C171.322639,19.6043659 170.024599,20.9024948 168.44716,20.9024948 C166.86972,20.9024948 165.57168,19.6043659 165.57168,18.0268191 C165.57168,18.0079002 165.57168,17.987526 165.57168,17.9671518 M164.387145,22.0070686 C165.449443,23.0577963 166.884272,23.6486486 168.378765,23.6486486 C171.491443,23.6486486 174.054054,21.0858628 174.054054,17.972973 C174.054054,14.8586279 171.491443,12.2972973 168.378765,12.2972973 C166.076635,12.2972973 163.994241,13.6972973 163.12403,15.8278586 C162.255274,17.9482328 162.755863,20.3975052 164.387145,22.0070686" id="Shape"></path>
                <path d="M178.650956,17.7044896 C178.650956,16.0175121 179.429109,15.045813 180.793279,15.045813 C181.298324,15.0188214 181.793762,15.2167601 182.165684,15.591644 C182.54035,16.0310079 182.733859,16.6188259 182.702294,17.2171406 L182.702294,23.6471491 L185.400442,23.6471491 L185.400442,16.899239 C185.45671,15.6171361 185.032637,14.3635244 184.227036,13.4308132 C183.510641,12.6795459 182.54584,12.2731718 181.553591,12.304662 C180.446061,12.2296852 179.370096,12.7305301 178.650956,13.654244 L178.650956,12.6045691 L175.945946,12.6045691 L175.945946,23.6486486 L178.650956,23.6486486 L178.650956,17.7044896 Z" id="Path"></path>
                <path d="M190.130466,17.984728 C190.127592,17.9322077 190.126156,17.8782285 190.126156,17.8257082 C190.126156,16.2953251 191.366026,15.0362968 192.873122,15.0362968 C192.90473,15.0362968 192.936337,15.0362968 192.967945,15.0377557 C193.712154,15.0231668 194.43194,15.3061928 194.972138,15.8255602 C195.518084,16.3945301 195.814043,17.1648278 195.792493,17.9584678 C195.795366,18.0139059 195.796803,18.069344 195.796803,18.1247821 C195.796803,19.6551652 194.556933,20.9141934 193.049836,20.9141934 C193.022539,20.9141934 192.995242,20.9141934 192.967945,20.9127345 C192.229482,20.9273235 191.514006,20.6472152 190.976681,20.1322246 C190.419242,19.5632547 190.113225,18.7885803 190.129029,17.9861869 M195.791056,13.7451729 C194.943404,12.777924 193.710717,12.2483444 192.436366,12.3008647 C189.590267,12.3927752 187.297297,14.7955788 187.297297,17.6871129 C187.297297,17.7775646 187.300171,17.8680162 187.304481,17.9584678 C187.280057,19.5369945 187.889217,21.0600831 188.991164,22.1732217 C189.912088,23.1083747 191.160578,23.6364955 192.462227,23.64379 C193.732268,23.7050637 194.964955,23.1842374 195.816917,22.225742 L195.816917,23.3417983 L198.648649,23.3417983 L198.648649,12.5955619 L195.816917,12.5955619 L195.791056,13.7451729 Z" id="Shape"></path>
                <polygon id="Path" points="200.565891 8.95527194 200.540541 8.96795148 200.60955 22.6336697 200.60955 22.7027027 203.378378 22.7027027 203.378378 7.56756757"></polygon>
                <path d="M91.8782027,11.4222074 L94.3696378,11.4222074 C94.8924446,11.4148518 95.3983412,11.620808 95.7788205,11.9974136 C96.1917111,12.4240371 96.4199987,13.0095411 96.4129528,13.6156407 C96.414362,13.6435919 96.414362,13.6730142 96.414362,13.7009654 C96.414362,14.8705022 95.4927564,15.8326118 94.3724562,15.8326118 L91.9232965,15.8326118 L91.8782027,11.4222074 Z M91.8782027,18.7027582 L94.3696378,18.7027582 L94.4429153,18.7027582 C97.1203625,18.7027582 99.3243243,16.4034046 99.3243243,13.606814 C99.3243243,12.2475032 98.8015175,10.9411526 97.8756845,9.98492754 C96.9301228,9.02870244 95.6604492,8.49910085 94.3442725,8.513812 L88.9189189,8.513812 L88.9189189,23.6486486 L91.8782027,23.6486486 L91.8782027,18.7027582 Z" id="Shape"></path>
                <path d="M101.216216,23.6486486 L103.892474,23.6486486 L103.892474,18.3455278 C103.891116,18.3047345 103.889758,18.2624304 103.889758,18.2216372 C103.889758,16.7576132 104.971938,15.5549682 106.286305,15.5549682 C106.472326,15.5549682 106.65699,15.5791419 106.837579,15.6259786 L106.891892,15.6259786 L106.891892,12.3020852 L106.81857,12.3020852 C105.604681,12.2310747 104.460041,12.954777 103.892474,14.1513786 L103.892474,12.52116 L101.216216,12.52116 L101.216216,23.6486486 Z" id="Path"></path>
                <path d="M110.725733,17.9686071 C110.724277,17.9264033 110.722822,17.8841996 110.722822,17.8434511 C110.722822,16.3372141 111.961199,15.1002079 113.465879,15.1002079 L113.528452,15.1002079 C114.258964,15.0929314 114.964737,15.3723493 115.492975,15.8787942 C116.105616,16.4245322 116.457774,17.2060291 116.457774,18.0268191 C116.457774,19.6043659 115.159734,20.9024948 113.582295,20.9024948 C112.004855,20.9024948 110.706815,19.6043659 110.706815,18.0268191 C110.706815,18.0079002 110.706815,17.987526 110.706815,17.9671518 M109.52228,22.0070686 C110.584578,23.0577963 112.019407,23.6486486 113.5139,23.6486486 C116.626578,23.6486486 119.189189,21.0858628 119.189189,17.972973 C119.189189,14.8586279 116.626578,12.2972973 113.5139,12.2972973 C111.21177,12.2972973 109.129376,13.6972973 108.259165,15.8278586 C107.390409,17.9482328 107.890999,20.3975052 109.52228,22.0070686" id="Shape"></path>
                <path d="M123.571187,14.7981173 L125.810811,14.7981173 L125.810811,12.0699605 L123.571187,12.0699605 C123.571187,10.7715252 124.26354,10.233396 125.748397,10.3387135 L125.806456,10.3387135 L125.806456,7.58458801 L125.735334,7.58458801 C122.469519,7.38405189 120.713236,8.96092939 120.713236,12.0310075 L120.713236,12.0829449 L119.189189,12.0829449 L119.189189,14.8154298 L120.710333,14.8154298 L120.710333,22.7027027 L123.571187,22.7027027 L123.571187,14.7981173 Z" id="Path"></path>
                <path d="M129.558374,16.8931036 C129.832935,15.6575146 130.906592,14.8006446 132.090893,14.8737563 C133.235581,14.8255026 134.251867,15.6882215 134.469057,16.8931036 L129.558374,16.8931036 Z M128.292114,22.0240882 C129.367137,23.1149159 130.808242,23.6983479 132.287594,23.642783 C134.018285,23.7290548 135.675214,22.8590247 136.669645,21.339762 L136.669645,21.2812725 L134.484083,19.9652605 L134.484083,20.0047409 C133.944523,20.6934538 133.137231,21.0765596 132.298522,21.0443904 C131.097829,21.1950006 129.955873,20.4083179 129.588425,19.1756533 L137.056216,19.1756533 L137.056216,19.136173 C137.125881,18.7589162 137.16003,18.3758105 137.161396,17.9912425 C137.185984,16.4266505 136.617738,14.9161612 135.587792,13.8063244 C134.64117,12.8266266 133.370813,12.2841372 132.054012,12.3002218 C131.996641,12.2987595 131.93927,12.2972973 131.881899,12.2972973 C129.069354,12.2972973 126.756757,14.7743243 126.756757,17.7836051 C126.756757,17.8479435 126.756757,17.9137441 126.759489,17.9780824 C126.730803,19.5017319 127.281292,20.9742031 128.283918,22.0577196" id="Shape"></path>
                <path d="M142.091366,19.0832167 C143.056325,19.3752868 143.826328,19.5957996 143.826328,20.147812 C143.826328,20.6998244 143.328421,21.0079583 142.470057,21.0079583 C141.617303,21.0751344 140.820651,20.5333445 140.538737,19.6936431 L140.506478,19.6016411 L138.108108,21.0079583 L138.108108,21.0532291 C138.918785,22.7545371 140.649539,23.7797029 142.468654,23.6351282 C144.362104,23.6351282 146.621622,22.7282508 146.621622,20.1784794 C146.621622,17.7280118 144.564072,17.1424114 143.061935,16.7086874 C142.102587,16.4399829 141.35222,16.2223907 141.35222,15.6703784 C141.35222,15.118366 141.799635,14.8496616 142.48829,14.8496616 C143.161517,14.8277563 143.782849,15.2381147 144.053542,15.8806688 L144.084398,15.9595277 L146.394408,14.6452126 L146.437887,14.6452126 L146.437887,14.59264 C145.634222,13.1279087 144.112449,12.2429365 142.4939,12.2998902 C140.17828,12.2998902 138.566744,13.7062074 138.566744,15.7302527 C138.566744,18.066813 140.61167,18.6670169 142.101184,19.1080427" id="Path"></path>
                <path d="M95.143769,56.8220832 L91.2541472,56.8220832 L93.2186027,50.9673578 L95.143769,56.8220832 Z M91.319629,47.2972973 L86.0810811,62.4324324 L89.3551736,62.4324324 L90.2457267,59.729572 L96.0663355,59.729572 L96.9568887,62.4324324 L100.27027,62.4324324 L95.0259017,47.2972973 L91.319629,47.2972973 Z" id="Shape"></path>
                <path d="M106.158823,56.449652 C105.206487,56.1743842 104.454717,55.9646564 104.454717,55.4141209 C104.454717,54.8635853 104.896523,54.5955998 105.583775,54.5955998 C106.258404,54.5752096 106.881139,54.987383 107.149027,55.6311309 L107.179883,55.7024966 L109.489893,54.3916977 L109.533372,54.3916977 L109.533372,54.33344 C108.722695,52.8638888 107.191104,51.9754584 105.559931,52.0293468 C103.244312,52.0293468 101.632775,53.4377274 101.632775,55.4505319 C101.632775,57.7808411 103.677702,58.3867214 105.167216,58.8251108 C106.139187,59.1163995 106.902177,59.3363224 106.902177,59.886858 C106.902177,60.4373935 106.40988,60.744703 105.545906,60.744703 C104.693152,60.8116994 103.8965,60.271359 103.614587,59.4339041 L103.614587,59.347974 L101.216216,60.7432466 L101.216216,60.7956785 C102.029699,62.4909784 103.75905,63.5090322 105.576762,63.3648443 C107.470212,63.3648443 109.72973,62.4676753 109.72973,59.9247255 C109.72973,57.3817756 107.67218,56.8909543 106.170043,56.4642164" id="Path"></path>
                <path d="M114.079895,52.0290958 C111.766455,52.0290958 110.146907,53.4373288 110.146907,55.4499224 C110.146907,57.7799874 112.19487,58.3858043 113.686596,58.8241478 C114.660011,59.1052119 115.424134,59.3353058 115.424134,59.8857836 C115.424134,60.4362615 114.931106,60.7435388 114.065849,60.7435388 C113.211828,60.8105282 112.413994,60.2702444 112.131661,59.4328773 L112.131661,59.341131 L109.72973,60.7435388 L109.72973,60.7959653 C110.538801,62.4896313 112.266507,63.5090347 114.084109,63.3648619 C115.980371,63.3648619 118.243243,62.4605054 118.243243,59.917822 C118.243243,57.4741664 116.182639,56.8901939 114.678271,56.464957 C113.724521,56.1897181 112.971635,55.9800122 112.971635,55.4295344 C112.971635,54.8790565 113.414096,54.6110991 114.102369,54.6110991 C114.778,54.590711 115.40166,55.0028412 115.669946,55.6465217 L115.707871,55.7178799 L118.014287,54.4072184 L118.059236,54.4072184 L118.059236,54.3475105 C117.250164,52.8722881 115.716299,51.9781256 114.079895,52.0290958" id="Path"></path>
                <path d="M124.81513,60.5829942 C124.080802,60.5946965 123.36988,60.3153044 122.840346,59.8062548 C122.290332,59.2547845 121.987531,58.5043752 121.997771,57.726173 C121.996308,57.685215 121.994845,57.6427942 121.994845,57.6018362 C121.994845,56.0849271 123.242616,54.8371199 124.759543,54.8371199 L124.820981,54.8371199 C125.555308,54.8327822 126.263305,55.1136371 126.795765,55.6197611 C127.338465,56.174157 127.635414,56.9245663 127.61786,57.6998429 C127.619323,57.7378753 127.620786,57.774445 127.620786,57.8124774 C127.620786,59.3323121 126.370089,60.5829942 124.850237,60.5829942 C124.837072,60.5829942 124.825369,60.5829942 124.813667,60.5829942 M124.813667,52.0271585 C121.719838,52.0549515 119.189189,54.6089759 119.189189,57.7027685 C119.189189,60.8155772 121.750557,63.3783784 124.864865,63.3783784 C127.97771,63.3783784 130.540541,60.8155772 130.540541,57.7027685 C130.540541,56.1829337 129.930552,54.7259988 128.848077,53.6596278 C127.772917,52.604959 126.321817,52.016919 124.81513,52.0271585" id="Shape"></path>
                <path d="M139.396653,59.152356 C138.943622,60.0355144 138.0247,60.5727083 137.050041,60.524536 C136.334053,60.5420532 135.639502,60.2676172 135.120733,59.7625382 C134.596246,59.2195053 134.308994,58.4823235 134.323285,57.7188659 C134.321856,57.6765327 134.320427,57.6356592 134.320427,57.593326 C134.320427,56.0941464 135.528031,54.8606442 136.995735,54.8606442 C137.018601,54.8606442 137.040038,54.862104 137.062903,54.862104 C138.02327,54.8299891 138.919327,55.3657232 139.365212,56.234284 L139.365212,56.3131113 L141.783279,54.8679431 L141.751838,54.8153915 C140.811479,53.0811896 139.009362,52.0097214 137.06862,52.0272386 C137.060045,52.0272386 137.051471,52.0272386 137.042896,52.0272386 C133.994588,52.0272386 131.486486,54.5891278 131.486486,57.7028085 C131.486486,60.8164892 133.994588,63.3783784 137.042896,63.3783784 C139.015078,63.3783784 140.845778,62.3054504 141.840444,60.5654095 L141.891892,60.5654095 L139.435239,59.1333791 L139.396653,59.152356 Z" id="Path"></path>
                <polygon id="Path" points="143.783784 62.3535823 143.783784 62.4324324 146.621622 62.4324324 146.621622 52.027027 143.795308 52.9394361"></polygon>
                <path d="M146.20777,47.7123311 C145.939358,47.4486486 145.578716,47.2996622 145.202703,47.2972973 C144.424662,47.2972973 143.783784,47.9381757 143.783784,48.7162162 C143.783784,49.4942568 144.424662,50.1351351 145.202703,50.1351351 C145.974831,50.1351351 146.612162,49.5060811 146.621622,48.7339527 C146.618074,48.3484797 146.460811,47.9807432 146.185304,47.7123311" id="Path"></path>
                <path d="M157.028106,57.7036904 C157.030983,57.7548767 157.032421,57.8046006 157.032421,57.8557869 C157.032421,59.3943007 155.786664,60.6593334 154.274781,60.6593334 C154.241695,60.6593334 154.207171,60.6593334 154.174085,60.6578709 C153.436125,60.6724956 152.721181,60.3873148 152.18749,59.8681395 C151.636538,59.3007029 151.337326,58.5270586 151.358904,57.7300148 C151.356027,57.6773661 151.354588,57.6232548 151.354588,57.5706061 C151.354588,56.0394046 152.593153,54.7802217 154.099282,54.7802217 C154.132368,54.7802217 154.166892,54.7802217 154.199978,54.7816842 C154.946569,54.7641346 155.671583,55.0493154 156.213904,55.5714156 C156.756226,56.1417772 157.049684,56.9110341 157.029544,57.7036904 M157.029544,53.4786273 C156.175064,52.5090127 154.937938,51.9766752 153.657657,52.0307864 C150.806512,52.1273091 148.513514,54.5389149 148.513514,57.4389842 C148.513514,57.5267321 148.514952,57.61448 148.519268,57.702228 C148.504882,59.2773034 149.11913,60.7938802 150.221035,61.9009667 C151.141687,62.8398696 152.39176,63.3707446 153.696497,63.375132 C154.959516,63.4248558 156.182257,62.9012932 157.029544,61.9477656 L157.029544,63.079714 L159.864865,63.079714 L159.864865,52.3291294 L157.029544,52.3291294 L157.029544,53.4786273 Z" id="Shape"></path>
                <path d="M166.144497,54.6995361 L168.378378,54.6995361 L168.378378,52.0573597 L166.144497,52.0573597 L166.144497,49.1891892 L163.477944,50.0262039 L163.477944,52.0601497 L161.756757,52.0601497 L161.756757,54.6995361 L163.477944,54.6995361 L163.477944,58.8553143 C163.370794,59.8736822 163.69767,60.8920501 164.374481,61.6453633 C165.12589,62.2284836 166.06176,62.5033034 166.998987,62.4168119 C167.445221,62.4154169 167.891455,62.3889114 168.334976,62.3359005 L168.377022,62.3359005 L168.377022,59.8248563 L168.298355,59.8248563 C167.370622,59.8750772 166.693812,59.8876324 166.37643,59.580727 C166.202819,59.3854236 166.118726,59.123159 166.144497,58.8594993 L166.144497,54.6995361 Z" id="Path"></path>
                <path d="M172.533534,46.8978979 C172.180069,46.5506618 171.70515,46.3544656 171.209988,46.3513514 C170.174508,46.3544656 169.324324,47.2077633 169.324324,48.2432432 C169.324324,49.2818374 170.179179,50.1351351 171.216216,50.1351351 C172.239239,50.1351351 173.084751,49.3067512 173.108108,48.2852853 C173.103437,47.7761094 172.896341,47.2902903 172.533534,46.9337115" id="Path"></path>
                <polygon id="Path" points="170.27027 62.3535823 170.27027 62.4324324 173.108108 62.4324324 173.108108 52.027027 170.276044 52.9394361"></polygon>
                <path d="M183.467352,57.7100959 L183.467352,57.7394045 C183.467352,59.3088798 182.174828,60.6013889 180.605334,60.6013889 C179.878473,60.6013889 179.177989,60.3229572 178.647497,59.8261765 C178.100886,59.2707786 177.800469,58.5160823 177.816589,57.7364736 C177.815123,57.6954416 177.813658,57.6529441 177.813658,57.6119121 C177.813658,56.0922614 179.063684,54.8422498 180.583353,54.8422498 L180.644901,54.8422498 C181.380556,54.836388 182.091297,55.1177506 182.623255,55.6262547 C183.169866,56.1801872 183.468817,56.9319527 183.454163,57.7100959 M180.619989,52.0271591 C177.527896,52.0579331 175,54.6092464 175,57.7027687 C175,60.8153416 177.561601,63.3783784 180.675676,63.3783784 C183.788285,63.3783784 186.351351,60.8153416 186.351351,57.7027687 C186.351351,56.1845835 185.741725,54.7279462 184.661691,53.6625788 C183.584588,52.6045384 182.129399,52.0169011 180.619989,52.0271591" id="Shape"></path>
                <path d="M193.825033,52.0343869 C192.721258,51.9594596 191.647574,52.4599739 190.932241,53.3830781 L190.932241,52.334096 L188.243243,52.334096 L188.243243,63.3783784 L190.963699,63.3783784 L190.963699,57.4276531 C190.963699,55.7417891 191.744684,54.7782242 193.105596,54.7782242 C193.607561,54.755746 194.099951,54.9490584 194.473347,55.3177007 C194.842639,55.7612702 195.032757,56.3501987 195.002666,56.949617 L195.002666,63.3753813 L197.698502,63.3753813 L197.698502,56.6319253 C197.750477,55.3446745 197.318268,54.0888931 196.504456,53.1597948 C195.787755,52.4060262 194.822123,51.9999203 193.827768,52.0343869" id="Path"></path>
                <polygon id="Path" points="91.8137341 34.7636975 91.8137341 31.3391524 97.4324324 31.3391524 97.4324324 28.3783784 88.9189189 28.3783784 88.9189189 43.5135135 91.8137341 43.5135135 91.8137341 37.7259438 97.2711499 37.7259438 97.2711499 34.7636975"></polygon>
                <path d="M107.794983,37.7957097 L107.794983,37.8247636 C107.794983,39.3805989 106.513707,40.6618751 104.957872,40.6618751 C104.237336,40.6618751 103.542948,40.3858632 103.017073,39.8933999 C102.47667,39.3413762 102.178868,38.5946914 102.193395,37.8218582 C102.191942,37.7811828 102.19049,37.7390546 102.19049,37.6983792 C102.19049,36.1919355 103.429638,34.9527874 104.936081,34.9527874 L104.997095,34.9527874 C105.7278,34.9440713 106.432356,35.2229885 106.958232,35.7299788 C107.502992,36.2776444 107.800794,37.0243292 107.781909,37.7957097 M104.957872,32.1621622 C104.938987,32.1621622 104.918649,32.1621622 104.899764,32.1621622 C101.84039,32.1621622 99.3243243,34.6782283 99.3243243,37.7376019 L99.3243243,37.7957097 L99.3243243,37.8378378 C99.3243243,40.9509612 101.886877,43.5135135 105,43.5135135 C108.113123,43.5135135 110.675676,40.9509612 110.675676,37.8378378 C110.675676,34.7247145 108.113123,32.1621622 105,32.1621622 C104.985473,32.1621622 104.972399,32.1621622 104.957872,32.1621622" id="Shape"></path>
                <path d="M114.477618,37.827669 C114.476165,37.7869935 114.474713,37.7448654 114.474713,37.70419 C114.474713,36.1977462 115.713861,34.9585982 117.220305,34.9585982 L117.255169,34.9585982 C117.985874,34.9498821 118.690431,35.2287993 119.216306,35.7357895 C119.836607,36.2790971 120.193969,37.0650046 120.193969,37.8886821 C120.193969,39.4590444 118.901072,40.7504894 117.332162,40.7504894 C115.7618,40.7504894 114.470355,39.4590444 114.470355,37.8886821 C114.470355,37.8683444 114.470355,37.8480067 114.470355,37.827669 M117.255169,32.1621622 C117.236284,32.1621622 117.215946,32.1621622 117.197061,32.1621622 C114.137688,32.1621622 111.621622,34.6782283 111.621622,37.7376019 L111.621622,37.7957097 L111.621622,37.8378378 C111.621622,40.9509612 114.184174,43.5135135 117.297297,43.5135135 C120.410421,43.5135135 122.972973,40.9509612 122.972973,37.8378378 C122.972973,34.7247145 120.410421,32.1621622 117.297297,32.1621622 C117.28277,32.1621622 117.269696,32.1621622 117.255169,32.1621622" id="Shape"></path>
                <path d="M130.460451,39.9504896 C129.531958,40.0078326 128.847805,40.0190215 128.530163,39.711327 C128.360482,39.5127242 128.279035,39.2511838 128.304827,38.9882449 L128.304827,34.8035994 L130.533753,34.8035994 L130.533753,32.1546293 L128.304827,32.1546293 L128.304827,28.3783784 L125.636088,29.2175453 L125.636088,32.1546293 L123.918919,32.1546293 L123.918919,34.8119911 L125.634731,34.8119911 L125.634731,38.9714616 C125.524778,39.9980424 125.854637,41.0232246 126.53879,41.7784748 C127.290815,42.3630943 128.227453,42.6386208 129.165448,42.5519069 C129.572682,42.5519069 130.008422,42.5211374 130.497102,42.4707874 L130.540541,42.4707874 L130.540541,39.9532868 L130.460451,39.9504896 Z" id="Path"></path>
                <path d="M135.312434,37.9241401 C135.309576,37.8723236 135.308146,37.820507 135.308146,37.7672511 C135.308146,36.2588135 136.541616,35.0152161 138.040932,35.0152161 C138.0638,35.0152161 138.086669,35.0166554 138.109537,35.0166554 C138.851334,35.0008226 139.570263,35.2800562 140.110531,35.7939038 C140.652229,36.3566892 140.946661,37.1152261 140.926651,37.8982319 C140.929509,37.9457304 140.930938,37.9946682 140.930938,38.0421667 C140.930938,39.5549224 139.693181,40.8013985 138.191006,40.8013985 C138.16385,40.8013985 138.136694,40.8013985 138.109537,40.7999592 C137.376316,40.8143527 136.667393,40.5379977 136.1357,40.0299075 C135.594002,39.4671221 135.299571,38.7085853 135.31958,37.9255795 M135.31958,28.3798177 L132.432432,29.5903101 L132.503896,43.1389011 L132.503896,43.216626 L135.313863,43.216626 L135.313863,42.0838584 C136.145705,43.0439041 137.36917,43.5692664 138.632654,43.5088138 C141.48407,43.4253315 143.783784,41.0403305 143.783784,38.1688294 C143.783784,38.0882259 143.782355,38.0076224 143.778067,37.9270188 C143.802364,36.3710827 143.197778,34.8698418 142.105808,33.7687399 C141.178204,32.8432386 139.924725,32.3236337 138.619791,32.3221943 C137.370599,32.263181 136.159998,32.7784679 135.332444,33.7212414 L135.332444,28.3783784 L135.31958,28.3798177 Z" id="Shape"></path>
                <path d="M147.564327,37.8516793 C147.561446,37.7991498 147.560006,37.7451611 147.560006,37.6926316 C147.560006,36.1619802 148.803023,34.9027312 150.313944,34.9027312 C150.344191,34.9027312 150.372998,34.9027312 150.403245,34.9041903 C151.150783,34.8881396 151.876717,35.1712153 152.419727,35.6921329 C152.965617,36.2626617 153.262328,37.0316353 153.242163,37.8254146 C153.245044,37.8764849 153.246484,37.9275553 153.246484,37.9800848 C153.246484,39.5107362 152.003467,40.7699852 150.492546,40.7699852 C150.453657,40.7699852 150.416208,40.7685261 150.377319,40.7670669 C149.638422,40.7816585 148.924012,40.5015011 148.388204,39.9864201 C147.842313,39.4158913 147.545602,38.6469177 147.565767,37.8531385 M156.081081,43.2169847 L156.081081,32.4615683 L153.245044,32.4615683 L153.245044,33.6099216 C152.39236,32.6454215 151.157985,32.115749 149.88184,32.1653602 C147.028519,32.2543685 144.72973,34.6561343 144.72973,37.5481755 C144.72973,37.6401021 144.73261,37.7320288 144.736931,37.8239554 C144.712446,39.4012998 145.321711,40.9231963 146.422134,42.0394483 C147.348275,42.9747654 148.601374,43.5044379 149.909207,43.5102745 C151.173829,43.5598857 152.398121,43.0375089 153.246484,42.0861412 L153.246484,43.2155256 L156.081081,43.2169847 Z" id="Shape"></path>
                <polygon id="Path" points="158.95045 28.5537623 158.918919 28.5664406 158.938984 42.5675676 161.756757 42.5675676 161.756757 27.4324324"></polygon>
                <polygon id="Path" points="166.486486 42.5675676 166.486486 27.4324324 163.680196 28.5589777 163.648649 28.5716513 163.66729 42.5675676"></polygon>
                <path d="M171.166946,36.7722173 C171.441433,35.5365475 172.517531,34.6816448 173.704243,34.7575065 C174.848621,34.7093635 175.864632,35.5701017 176.081763,36.7722173 L171.166946,36.7722173 Z M178.677781,38.9838767 C178.746061,38.6104039 178.781567,38.2296367 178.782932,37.8488695 C178.808879,36.2864109 178.240787,34.7764719 177.209754,33.6677245 C176.263389,32.6902761 174.993375,32.1490323 173.676931,32.1650799 C173.61821,32.163621 173.560854,32.1621622 173.502133,32.1621622 C170.691715,32.1621622 168.378378,34.6335019 168.378378,37.6358732 C168.378378,37.698605 168.379744,37.7598779 168.38111,37.8226096 C168.352432,39.3413019 168.90004,40.8103922 169.898298,41.8928799 C170.975761,42.9782853 172.417842,43.5603777 173.898159,43.5078581 C175.625651,43.592473 177.276669,42.7229816 178.268099,41.2101249 L178.30497,41.1576053 L176.12,39.8446149 L176.12,39.8840046 C175.580586,40.5711362 174.773512,40.9548212 173.93503,40.9271025 C172.733297,41.0715314 171.594381,40.2822783 171.227033,39.0509851 L178.698265,39.0509851 L178.677781,38.9838767 Z" id="Shape"></path>
                <path d="M186.295694,35.4623323 L186.351351,35.4623323 L186.351351,32.1675691 L186.278047,32.1675691 C185.063091,32.0920704 183.91601,32.812328 183.345863,34.0082274 L183.345863,32.3850054 L180.675676,32.3850054 L180.675676,43.5135135 L183.344506,43.5135135 L183.344506,38.1999151 C183.343148,38.1606558 183.341791,38.1213965 183.341791,38.0821372 C183.341791,36.6159524 184.426427,35.4109932 185.743195,35.4109932 C185.929171,35.4109932 186.11379,35.4351528 186.294337,35.481962" id="Path"></path>
                <path d="M191.644593,32.1621622 C189.33268,32.1621622 187.7142,33.5706519 187.7142,35.5836124 C187.7142,37.9141021 189.753793,38.5127466 191.244536,38.9584528 C192.217308,39.2395681 192.980927,39.4697039 192.980927,40.0129994 C192.980927,40.5562948 192.488224,40.8781937 191.623538,40.8781937 C190.772888,40.9422821 189.979791,40.4033564 189.697645,39.5672932 L189.697645,39.4755302 L187.297297,40.8781937 L187.297297,40.9306297 C188.105835,42.6246044 189.832401,43.6441936 191.648805,43.4999946 C193.543816,43.4999946 195.810811,42.5954733 195.810811,40.0523264 C195.810811,37.5091795 193.74595,37.0241463 192.242575,36.5988319 C191.289454,36.3235428 190.537065,36.1079725 190.537065,35.5573944 C190.537065,35.0068162 190.979234,34.7446361 191.667053,34.7446361 C192.340835,34.7227877 192.962679,35.13208 193.233596,35.7729647 L193.271496,35.8516187 L195.576391,34.5407182 L195.62131,34.5407182 L195.62131,34.482456 C194.80856,33.0273565 193.286937,32.1475966 191.667053,32.195663" id="Path"></path>
                <path d="M198.876536,33.1081081 L197.702703,33.1081081 L197.702703,31.5925899 C198.192875,31.5925899 198.992629,31.6933238 198.992629,30.9160193 L198.992629,30.3416861 L197.702703,30.3416861 L197.702703,27.4324324 L200.540541,27.4324324 L200.540541,31.0257741 C200.540541,32.120315 199.998771,33.1081081 198.876536,33.1081081 L198.876536,33.1081081 Z" id="Path"></path>
                <path d="M36.9385029,3.83890608 L37.0089918,3.89038571 L51.7138419,14.2292101 C51.4649729,14.0905011 51.2031569,13.977532 50.9312711,13.8945926 C48.6036985,13.2253575 46.1279553,13.2468073 43.811891,13.9589421 L37.4822745,16.0109771 L37.2103887,16.0753266 C37.1859333,16.0853366 37.1686707,16.1067864 37.1657936,16.1325262 C37.1672322,16.156836 37.1830562,16.1782859 37.2046345,16.1897258 C37.2262127,16.2011657 48.7130282,24.502255 49.9170939,25.3645387 C52.7567901,27.4122838 56.4222135,27.9799896 59.7524549,26.8846176 L63.6365378,25.597627 L64.32848,25.3731187 C65.4160232,25.0127613 66.141052,24.7296234 66.1468062,24.7296234 C66.1741387,24.7310534 66.2000325,24.7124635 66.2043482,24.6852937 C66.2201722,24.6624139 66.2201722,24.6309541 66.2043482,24.6080743 L65.9526021,24.4221756 C65.9526021,24.4221756 65.4807579,24.0489484 64.781623,23.5341521 L64.3932147,23.3096438 L54.684446,16.302695 C54.684446,16.302695 54.5405911,16.1811459 54.3420713,16.026707 C54.9894185,15.8079186 63.7084653,12.8993199 65.7267498,12.1657352 C65.8303254,12.1271255 65.9468479,12.0956657 66.0504234,12.0499061 C66.0763173,12.0413261 66.0935799,12.0184463 66.0950184,11.9927065 C66.0950184,11.9698266 66.0791944,11.9483768 66.0561776,11.9412269 L65.9856887,11.8897472 C65.9468479,11.8897472 54.872896,4.04053461 53.2027403,2.88081309 C51.3110481,1.56093274 49.0395789,0.884547679 46.7292689,0.950327199 C45.5856222,0.974637021 44.4520454,1.17626555 43.3702564,1.54806283 L39.149553,2.96947244 L37.4535035,3.54146826 L37.2664921,3.60581779 C37.1571624,3.64442751 37.0463941,3.67588728 36.9370643,3.72164694 C36.9140475,3.73308686 36.8982235,3.7545367 36.8924693,3.77884652 C36.8867151,3.80315635 36.9255559,3.82174621 36.9385029,3.83890608 L36.9385029,3.83890608 Z" id="Path"></path>
                <path d="M7.60076352,24.162679 L7.60076352,24.7046722 C7.60651845,24.7287923 7.62234449,24.7500747 7.64536419,24.7614254 C7.66550643,24.7699384 7.68996486,24.7699384 7.71010709,24.7614254 L7.78060492,24.7103475 L22.2887703,14.1457375 C22.081593,14.3386984 21.8945579,14.5529418 21.7319813,14.7842111 C20.3507994,16.757804 19.592588,19.0903609 19.5508648,21.4867652 C19.5508648,23.1780108 19.4990705,28.0233161 19.4990705,28.0233161 L19.4990705,28.3070822 C19.4990705,28.3340399 19.5134578,28.35816 19.5379162,28.3709295 C19.5580585,28.3808613 19.5825169,28.3808613 19.6026591,28.3709295 L32.3598886,19.3046043 C35.2013827,17.2813523 36.8890144,14.0279746 36.8918919,10.5717041 L36.8918919,3.82232867 C36.8674335,3.8095592 36.8386588,3.8095592 36.8142004,3.82232867 L36.5552288,3.99400713 C36.5552288,3.99400713 36.0502341,4.32601341 35.3452559,4.81692867 L34.9510435,5.08508759 C32.3224816,7.00050841 25.8237328,11.5904242 25.2022009,12.0245863 L24.8338858,12.2601121 C24.8338858,11.5577912 24.7892851,2.51274836 24.7561943,0.405785449 L24.7561943,0.0638473609 C24.7533168,0.0340519258 24.7317358,0.00851298145 24.7029612,0 L24.6382183,0 L24.5677205,0.0510778887 C24.5288747,0.0510778887 13.5628656,8.01213438 11.9514867,9.21246476 C9.14452209,11.2726063 7.51012346,14.5458476 7.56911144,17.9964428 L7.56911144,22.3820471 C7.5950086,22.9878876 7.5950086,23.5937281 7.60076352,24.162679 Z" id="Path"></path>
                <path d="M71.2832267,33.9806709 C70.9138901,32.8948982 70.3727691,31.8763604 69.6799052,30.9622514 C68.7980784,29.7849247 67.9219777,28.5932928 67.0387194,27.4088135 L65.9765189,25.9782829 L65.8519752,25.819494 L65.6458339,25.5491237 C65.6243608,25.5376795 65.5971616,25.5376795 65.5756886,25.5491237 C65.5728255,25.5720122 65.5585101,25.5920396 65.5370371,25.6006228 C65.4983856,25.6206503 65.5370371,25.6592746 65.5370371,25.6835936 C65.5370371,25.7079126 61.9581945,37.192212 60.2174455,42.7984613 C60.2732755,42.5209384 60.2961801,42.2391238 60.2875908,41.9558788 C60.2145825,39.5368516 59.4301002,37.192212 58.03292,35.2166493 C57.0408649,33.8333262 54.1677701,29.8678955 54.1677701,29.8678955 L53.9945541,29.6361496 C53.9745126,29.6232748 53.9501765,29.6232748 53.930135,29.6361496 C53.9100934,29.6490243 53.8986411,29.6361496 53.8914835,29.6876487 C53.8843258,29.7391478 49.505254,43.1460802 49.0543199,44.5551528 C47.9763725,47.8768448 48.5633027,51.5218367 50.6290106,54.3385514 L53.0311297,57.6402159 C53.1742834,57.8519344 53.3174371,58.0450561 53.4605908,58.2324556 C54.1047825,59.1522867 54.6058204,59.7574011 54.6058204,59.7645538 L54.5156336,59.7645538 L36.5970848,59.9076069 C36.877666,59.8732741 37.1553842,59.8089002 37.4216501,59.7144852 C39.7049516,58.907666 41.6976511,57.4428027 43.1477981,55.5044338 L47.0129481,50.1943043 C47.0644834,50.1242083 47.1732802,49.969711 47.1732802,49.9625584 C47.1890271,49.9425309 47.1890271,49.9124898 47.1732802,49.8924624 L47.1160188,49.8924624 C47.0974088,49.8924624 32.9438023,49.8152137 31.4836345,49.8152137 C29.3892959,49.7980473 27.3350403,50.3960091 25.5771128,51.5318504 C24.4461986,52.2571294 23.4598696,53.1841132 22.6653665,54.2670248 L20.2503636,57.5572451 L19.8209025,58.1494848 C19.1767108,59.0764686 18.7200505,59.7001799 18.7128928,59.7073326 C18.7057351,59.7144852 18.7128928,59.7073326 18.7128928,59.7588317 L18.7128928,59.7202074 C18.7143244,59.6930273 18.7143244,59.6644167 18.7128928,59.6372366 C18.7114613,59.6100565 14.8477429,48.2444912 12.9165994,42.689741 C13.035417,42.9429449 13.1828653,43.183274 13.3546498,43.4050062 C14.8391537,45.3147646 16.8561893,46.7467257 19.1509431,47.5177816 L25.4239383,49.5577182 L25.6944988,49.640689 C25.7202665,49.6507027 25.7488973,49.6464111 25.7689388,49.6278142 C25.7789595,49.6077868 25.7789595,49.5834678 25.7689388,49.5634403 C25.758918,49.5434129 21.3626678,36.116453 20.9017129,34.7088109 C19.8166079,31.3942716 17.1954636,28.7992892 13.8685716,27.7449881 C12.5801882,27.315829 11.2918049,26.9081278 10.0034216,26.4575106 L9.30626308,26.2372089 C8.21829495,25.8967427 7.48964261,25.6778715 7.47675878,25.6778715 L7.40231885,25.6778715 C7.38657194,25.70076 7.38657194,25.7322316 7.40231885,25.7551201 L7.49823183,26.05124 C7.49823183,26.05124 7.65856398,26.636327 7.92769294,27.4545904 C7.97207058,27.5976435 8.01787977,27.7406966 8.07084664,27.8980549 C9.02425029,30.9622514 11.5065355,38.5440634 11.7427391,39.2650508 L11.8515359,39.69421 C11.2073442,39.4753388 2.4735369,36.7587612 0.432165119,36.1479247 L0.104343143,36.0520791 C0.0828700873,36.0392044 0.055670884,36.0392044 0.0341978287,36.0520791 C0.0155878475,36.0663844 0.00413555138,36.0878424 0.00127247735,36.1107309 C-0.00159059668,36.1336194 0.00127247735,36.1593689 0.00127247735,36.1951322 C0.00127247735,36.2308955 4.34312425,49.0699073 5.01165203,50.9467634 C5.75605128,53.1226004 7.18186215,55.0023175 9.07578562,56.308392 C10.0134424,56.9549918 11.0455806,57.4513859 12.1349802,57.7818384 L16.3608775,59.0693159 L18.0672696,59.5971817 L18.2533694,59.6558335 L18.5811914,59.751679 C18.6026645,59.7645538 18.6298637,59.7645538 18.6513367,59.751679 C18.662789,59.7774286 18.6885567,59.7945949 18.7157559,59.7960255 L19.030694,59.7960255 C19.030694,59.7960255 19.6290765,59.7960255 20.4922933,59.8346498 L20.9618375,59.8346498 L32.9609807,59.9247732 L33.3904418,59.9247732 C32.9781592,60.4969855 27.6514099,67.9057033 26.4346035,69.6437979 C26.3630266,69.7353518 26.2957444,69.8311974 26.2356198,69.929904 C26.2198729,69.9499314 26.2198729,69.9799726 26.2356198,70 L26.4088358,70 C26.4603711,70 39.9740806,69.9227513 41.9954108,69.8970018 C44.2987539,69.8769744 46.5348147,69.1173626 48.3714767,67.7283175 C49.2805027,67.0445239 50.0778688,66.2248298 50.7349443,65.2964155 C51.5938665,64.0904782 52.4527888,62.8916936 53.311711,61.6986311 L54.3481438,60.2509342 L54.4640983,60.0907148 C54.5285174,60.0005913 54.5986627,59.9047458 54.6573558,59.8046087 C54.6716711,59.7874423 54.6716711,59.7645538 54.6573558,59.7473874 C54.6859865,59.7416653 54.7103226,59.7230684 54.7217749,59.6958883 C54.7332272,59.6687083 54.7919202,59.5027667 54.8248456,59.3997685 C54.8248456,59.3997685 55.0309869,58.8275563 55.3072736,58.0164454 L55.4504273,57.572981 C56.4525032,54.5030624 58.9032945,46.9269725 59.1409297,46.2059851 L59.2955357,45.8011449 C59.7135445,46.3733572 65.1505221,53.7048263 66.4389054,55.397144 L66.6450467,55.6732364 C66.6665198,55.6846806 66.693719,55.6846806 66.715192,55.6732364 L66.7538435,55.6160152 L66.7853374,55.5387665 C66.7853374,55.4872674 70.8437448,42.5881733 71.4364011,40.6512349 C72.0949082,38.4682453 72.0376467,36.1321889 71.276069,33.9835319 L71.2832267,33.9806709 Z" id="Path"></path>
            </g>
        </g>
    </g>
</svg>