<?xml version="1.0" encoding="UTF-8"?>
<svg width="150px" height="60px" viewBox="0 0 150 60" version="1.1" xmlns="http://www.w3.org/2000/svg" xmlns:xlink="http://www.w3.org/1999/xlink">
    <title>Artboard</title>
    <g id="Artboard" stroke="none" stroke-width="1" fill="none" fill-rule="evenodd">
        <g id="pfa-logo--dark-2" transform="translate(22.500000, 13.000000)" fill="#9DA6B9" fill-rule="nonzero">
            <g id="pfa-logo--dark" transform="translate(0.500000, 0.000000)">
                <path d="M76.7386897,9.26756367 C77.2309398,9.40951757 77.6173526,9.51669276 77.6173526,9.78498563 C77.6173526,10.0532785 77.3651898,10.2030399 76.9304755,10.2030399 C76.4986024,10.2356893 76.0951419,9.97236478 75.9523681,9.56424732 L75.9523681,9.51953184 L74.7348837,10.2030399 L74.7348837,10.2250427 C75.1454473,11.0519242 76.0219792,11.5501824 76.9432612,11.4799152 C77.90219,11.4799152 79.0465116,11.0391483 79.0465116,9.79989079 C79.0465116,8.60889757 78.0044757,8.32428 77.2437255,8.11347846 C76.7614199,7.98288087 76.3778484,7.87712521 76.3778484,7.60883234 C76.3778484,7.34053947 76.6044397,7.20994188 76.9532056,7.20994188 C77.2948684,7.20000511 77.6102494,7.40086988 77.7459201,7.714588 L77.7459201,7.75291555 L78.9158132,7.114123 L78.9385434,7.114123 L78.9229164,7.0885713 C78.5159044,6.37667249 77.7452098,5.94655217 76.9255032,5.97423318 C75.7527689,5.97423318 74.9366139,6.65774121 74.9366139,7.64148174 C74.9366139,8.77711294 75.972257,9.06882821 76.7266143,9.2831786" id="Path"></path>
                <polygon id="Path" points="81.4418605 5.97297297 80.0046512 6.51106017 80.0395142 10.9935248 80.0395142 11.027027 81.4418605 11.027027"></polygon>
                <path d="M80.7116949,5.51349262 C81.1041589,5.51642031 81.4315165,5.21135478 81.4418605,4.83368249 C81.4400351,4.64279696 81.3591084,4.46069451 81.2173345,4.32777728 C81.0840793,4.20422867 80.9057972,4.13513514 80.7208219,4.13513514 C80.3277494,4.13513514 80.0046512,4.44605605 80.0046512,4.82431388 C80.0046512,5.20257171 80.3277494,5.51349262 80.7208219,5.51349262 L80.7220389,5.51349262" id="Path"></path>
                <path d="M83.8625604,8.72760915 C83.8618234,8.70711019 83.8610864,8.68661123 83.8610864,8.66681913 C83.8610864,7.9352183 84.4882566,7.33438669 85.2502941,7.33438669 L85.2819842,7.33438669 C85.6519483,7.33085239 86.0093837,7.46656965 86.2769075,7.71255717 C86.5871762,7.97762994 86.7655254,8.35721414 86.7655254,8.75588358 C86.7655254,9.52212058 86.108139,10.1526403 85.3092525,10.1526403 C84.510366,10.1526403 83.8529796,9.52212058 83.8529796,8.75588358 C83.8529796,8.74669439 83.8529796,8.73679834 83.8529796,8.72690229 M83.2530778,10.6891476 C83.7910733,11.199501 84.5177358,11.4864865 85.2746144,11.4864865 C86.8510151,11.4864865 88.1488372,10.2417048 88.1488372,8.72972973 C88.1488372,7.21704782 86.8510151,5.97297297 85.2746144,5.97297297 C84.1087118,5.97297297 83.0540931,6.65297297 82.613379,7.68781705 C82.1734018,8.7177131 82.426923,9.90735967 83.2530778,10.6891476" id="Shape"></path>
                <path d="M90.4769158,8.59932353 C90.4769158,7.77993445 90.8710079,7.30796634 91.5618854,7.30796634 C91.8176629,7.29485611 92.0685752,7.39099776 92.2569331,7.57308423 C92.4466811,7.78648956 92.5446829,8.07200113 92.5286968,8.36261113 L92.5286968,11.4857581 L93.8951606,11.4857581 L93.8951606,8.20820181 C93.9236576,7.58546611 93.7088878,6.97656897 93.3008948,6.52353785 C92.9380799,6.15863658 92.4494613,5.96125486 91.9469418,5.97655012 C91.3860383,5.94013283 90.8411208,6.18340034 90.4769158,6.63206139 L90.4769158,6.12221929 L89.1069767,6.12221929 L89.1069767,11.4864865 L90.4769158,11.4864865 L90.4769158,8.59932353 Z" id="Path"></path>
                <path d="M96.2906585,8.73543929 C96.2892033,8.70992943 96.2884757,8.68371097 96.2884757,8.65820111 C96.2884757,7.91487217 96.9164021,7.30334417 97.6796637,7.30334417 C97.6956711,7.30334417 97.7116785,7.30334417 97.7276859,7.30405278 C98.1045873,7.29696671 98.4691193,7.4344365 98.7427002,7.68670066 C99.0191916,7.96305746 99.169079,8.33720206 99.1581648,8.72268436 C99.1596201,8.74961144 99.1603477,8.77653851 99.1603477,8.80346558 C99.1603477,9.54679452 98.5324213,10.1583225 97.7691596,10.1583225 C97.7553351,10.1583225 97.7415105,10.1583225 97.7276859,10.1576139 C97.353695,10.1647 96.9913458,10.0286474 96.7192201,9.77850907 C96.4369079,9.50215227 96.2819272,9.12588185 96.2899309,8.7361479 M99.1574372,6.67622681 C98.728148,6.20642025 98.1038597,5.94919584 97.4584707,5.9747057 C96.0170776,6.01934795 94.855814,7.18642399 94.855814,8.59088343 C94.855814,8.63481707 94.8572692,8.67875072 94.859452,8.72268436 C94.8470826,9.48939734 95.1555888,10.2291832 95.7136647,10.7698505 C96.180062,11.2240677 96.812354,11.4805835 97.4715676,11.4841266 C98.1147738,11.5138881 98.7390622,11.2609153 99.1705342,10.7953604 L99.1705342,11.3374449 L100.604651,11.3374449 L100.604651,6.11784435 L99.1705342,6.11784435 L99.1574372,6.67622681 Z" id="Shape"></path>
                <polygon id="Path" points="101.575629 4.34970352 101.562791 4.35586215 101.59774 10.9934967 101.59774 11.027027 103 11.027027 103 3.67567568"></polygon>
                <path d="M46.5312731,5.54792932 L47.7930485,5.54792932 C48.0578214,5.54435661 48.3140303,5.64439247 48.5067223,5.82731517 C48.7158287,6.03453231 48.8314439,6.31891996 48.8278755,6.61331119 C48.8285892,6.62688749 48.8285892,6.64117832 48.8285892,6.65475462 C48.8285892,7.22281537 48.3618465,7.69012573 47.7944758,7.69012573 L46.5541107,7.69012573 L46.5312731,5.54792932 Z M46.5312731,9.08419685 L47.7930485,9.08419685 L47.8301595,9.08419685 C49.1861397,9.08419685 50.3023256,7.96736796 50.3023256,6.60902394 C50.3023256,5.94878729 50.0375526,5.31427414 49.5686689,4.84982195 C49.0897938,4.38536976 48.4467737,4.1281347 47.7802023,4.13528012 L45.0325581,4.13528012 L45.0325581,11.4864865 L46.5312731,11.4864865 L46.5312731,9.08419685 Z" id="Shape"></path>
                <path d="M51.2604651,11.4864865 L52.6158429,11.4864865 L52.6158429,8.91068492 C52.6151552,8.89087106 52.6144676,8.87032335 52.6144676,8.8505095 C52.6144676,8.13941214 53.1625325,7.55527024 53.8281874,7.55527024 C53.9223968,7.55527024 54.0159185,7.56701179 54.1073773,7.58976103 L54.1348837,7.58976103 L54.1348837,5.97529851 L54.0977501,5.97529851 C53.4829821,5.94080772 52.9032847,6.29232024 52.6158429,6.87352675 L52.6158429,6.08170627 L51.2604651,6.08170627 L51.2604651,11.4864865 Z" id="Path"></path>
                <path d="M56.0765139,8.72760915 C56.0757769,8.70711019 56.0750399,8.68661123 56.0750399,8.66681913 C56.0750399,7.9352183 56.7022101,7.33438669 57.4642476,7.33438669 L57.4959377,7.33438669 C57.8659018,7.33085239 58.2233372,7.46656965 58.490861,7.71255717 C58.8011297,7.97762994 58.9794789,8.35721414 58.9794789,8.75588358 C58.9794789,9.52212058 58.3220925,10.1526403 57.523206,10.1526403 C56.7243195,10.1526403 56.0669331,9.52212058 56.0669331,8.75588358 C56.0669331,8.74669439 56.0669331,8.73679834 56.0669331,8.72690229 M55.4670313,10.6891476 C56.0050268,11.199501 56.7316893,11.4864865 57.4885679,11.4864865 C59.0649686,11.4864865 60.3627907,10.2417048 60.3627907,8.72972973 C60.3627907,7.21704782 59.0649686,5.97297297 57.4885679,5.97297297 C56.3226653,5.97297297 55.2680466,6.65297297 54.8273324,7.68781705 C54.3873553,8.7177131 54.6408765,9.90735967 55.4670313,10.6891476" id="Shape"></path>
                <path d="M62.5820326,7.18765697 L63.7162791,7.18765697 L63.7162791,5.86255225 L62.5820326,5.86255225 C62.5820326,5.23188369 62.9326713,4.97050661 63.6846701,5.02166084 L63.7140738,5.02166084 L63.7140738,3.68394275 L63.6780543,3.68394275 C62.024098,3.58653949 61.134637,4.35245142 61.134637,5.8436322 L61.134637,5.86885894 L60.3627907,5.86885894 L60.3627907,7.19606589 L61.1331668,7.19606589 L61.1331668,11.027027 L62.5820326,11.027027 L62.5820326,7.18765697 Z" id="Path"></path>
                <path d="M65.6142142,8.20522177 C65.7532644,7.60507852 66.2970129,7.1888845 66.8967965,7.22439594 C67.4765182,7.20095839 67.9912114,7.61999332 68.1012064,8.20522177 L65.6142142,8.20522177 Z M64.972923,10.6974143 C65.5173633,11.2272449 66.2472038,11.5106261 66.9964146,11.4836374 C67.872915,11.5255409 68.7120587,11.1029549 69.2156832,10.3650272 L69.2156832,10.3366181 L68.1088161,9.69741226 L68.1088161,9.71658844 C67.8355582,10.0511062 67.4267092,10.2371861 67.0019489,10.221561 C66.3938637,10.2947146 65.8155257,9.91261156 65.6294336,9.31388876 L69.4114604,9.31388876 L69.4114604,9.29471259 C69.4467418,9.11147359 69.4640366,8.92539367 69.4647283,8.73860352 C69.4771806,7.97865881 69.1893951,7.24499257 68.667784,6.70592899 C68.1883721,6.23007576 67.5450056,5.96658091 66.8781181,5.97439343 C66.8490629,5.9736832 66.8200076,5.97297297 66.7909523,5.97297297 C65.3665527,5.97297297 64.1953488,7.17610039 64.1953488,8.63775104 C64.1953488,8.66900111 64.1953488,8.7009614 64.1967324,8.73221146 C64.1822048,9.47226976 64.460997,10.1874701 64.9687723,10.7137495" id="Shape"></path>
                <path d="M71.9614881,9.26899099 C72.4501866,9.41085358 72.840151,9.51795983 72.840151,9.78608012 C72.840151,10.0542004 72.5879882,10.2038654 72.1532738,10.2038654 C71.7214007,10.2364938 71.3179403,9.97333874 71.1751665,9.5654838 L71.1588292,9.52079708 L69.944186,10.2038654 L69.944186,10.2258541 C70.3547496,11.0522037 71.2312816,11.5501414 72.1525635,11.4799194 C73.1114923,11.4799194 74.255814,11.0394361 74.255814,9.80097569 C74.255814,8.61074858 73.213778,8.32631409 72.4530279,8.11564814 C71.9671706,7.98513456 71.5871507,7.87944693 71.5871507,7.61132664 C71.5871507,7.34320635 71.813742,7.21269277 72.1625079,7.21269277 C72.5034604,7.20205307 72.8181311,7.40137001 72.9552224,7.71346771 L72.9708494,7.7517706 L74.1407425,7.11338896 L74.1627623,7.11338896 L74.1627623,7.08785369 C73.7557504,6.37641281 72.9850557,5.94656917 72.1653492,5.97423237 C70.9926148,5.97423237 70.1764599,6.65730073 70.1764599,7.64040847 C70.1764599,8.77530918 71.212103,9.0668368 71.9664603,9.28104931" id="Path"></path>
                <path d="M48.1851035,27.5992976 L46.2152232,27.5992976 L47.2101123,24.7555738 L48.1851035,27.5992976 Z M46.2483862,22.972973 L43.5953488,30.3243243 L45.2534972,30.3243243 L45.7045136,29.0115064 L48.6523329,29.0115064 L49.1033492,30.3243243 L50.7813953,30.3243243 L48.1254102,22.972973 L46.2483862,22.972973 Z" id="Shape"></path>
                <path d="M53.7636244,27.4184024 C53.2813187,27.2847009 52.9005885,27.1828331 52.9005885,26.9154301 C52.9005885,26.6480272 53.1243385,26.5178627 53.4723942,26.5178627 C53.8140569,26.5079589 54.129438,26.7081575 54.2651086,27.020835 L54.2807356,27.0554984 L55.4506287,26.4188246 L55.4726486,26.4188246 L55.4726486,26.390528 C55.062085,25.676746 54.2864181,25.2452227 53.4603188,25.271397 C52.2875844,25.271397 51.4714294,25.9554676 51.4714294,26.9331155 C51.4714294,28.0649799 52.5070725,28.3592647 53.2614298,28.5721967 C53.7536799,28.7136798 54.1400927,28.8204995 54.1400927,29.0879024 C54.1400927,29.3553054 53.8907712,29.50457 53.4532156,29.50457 C53.0213425,29.5371111 52.6178821,29.2746601 52.4751082,28.8678963 L52.4751082,28.8261588 L51.2604651,29.5038626 L51.2604651,29.5293296 C51.6724493,30.3527609 52.5482709,30.8472442 53.4688426,30.7772101 C54.4277713,30.7772101 55.572093,30.3414423 55.572093,29.1062952 C55.572093,27.8711482 54.5300571,27.6327492 53.7693069,27.4254765" id="Path"></path>
                <path d="M57.7752132,25.2712751 C56.603583,25.2712751 55.7833706,25.955274 55.7833706,26.9328195 C55.7833706,28.0645653 56.8205515,28.3588192 57.576029,28.5717289 C58.06901,28.7082458 58.4559966,28.8200057 58.4559966,29.0873806 C58.4559966,29.3547556 58.2063049,29.5040046 57.7680995,29.5040046 C57.3355851,29.5365423 56.9315256,29.2741187 56.7885398,28.8673975 L56.7885398,28.822835 L55.572093,29.5040046 L55.572093,29.5294688 C55.9818435,30.3521066 56.8568315,30.8472454 57.7773474,30.7772186 C58.7377,30.7772186 59.8837209,30.3379598 59.8837209,29.1029421 C59.8837209,27.9160237 58.8401377,27.6323799 58.0782579,27.4258363 C57.595236,27.2921488 57.2139404,27.1902917 57.2139404,26.9229167 C57.2139404,26.6555417 57.4380227,26.525391 57.7865952,26.525391 C58.1287653,26.5154882 58.4446146,26.7156657 58.5804868,27.0283105 L58.5996938,27.0629702 L59.7677672,26.4263632 L59.7905312,26.4263632 L59.7905312,26.3973622 C59.3807807,25.6808256 58.603962,25.2465182 57.7752132,25.2712751" id="Path"></path>
                <path d="M63.2120211,29.4260258 C62.8401247,29.4317097 62.4800815,29.296005 62.2119012,29.0487523 C61.9333493,28.7808953 61.7799976,28.4164108 61.7851834,28.0384269 C61.7844426,28.018533 61.7837018,27.9979286 61.7837018,27.9780347 C61.7837018,27.2412503 62.4156293,26.6351725 63.1838696,26.6351725 L63.2149844,26.6351725 C63.5868808,26.6330656 63.9454423,26.7694809 64.2151043,27.0153125 C64.489952,27.2845906 64.6403404,27.649075 64.6314505,28.025638 C64.6321913,28.0441109 64.6329322,28.0618733 64.6329322,28.0803462 C64.6329322,28.8185516 63.9995229,29.4260258 63.229801,29.4260258 C63.2231335,29.4260258 63.2172069,29.4260258 63.2112803,29.4260258 M63.2112803,25.2703342 C61.6444258,25.2838336 60.3627907,26.5243597 60.3627907,28.027059 C60.3627907,29.5389946 61.6599832,30.7837838 63.2372093,30.7837838 C64.8136946,30.7837838 66.1116279,29.5389946 66.1116279,28.027059 C66.1116279,27.2888535 65.802702,26.5811994 65.2544881,26.0632478 C64.7099784,25.5509801 63.9750755,25.2653607 63.2120211,25.2703342" id="Shape"></path>
                <path d="M70.5967632,28.7311444 C70.3673282,29.160107 69.9019442,29.4210297 69.4083333,29.3976318 C69.0457246,29.4061401 68.6939725,29.2728426 68.4312441,29.0275186 C68.1656206,28.7637597 68.0201429,28.4057 68.0273806,28.0348777 C68.0266568,28.0143159 68.0259331,27.9944631 68.0259331,27.9739012 C68.0259331,27.2457283 68.6375185,26.6465986 69.38083,26.6465986 C69.3924103,26.6465986 69.4032669,26.6473077 69.4148472,26.6473077 C69.9012204,26.631709 70.3550241,26.8919227 70.5808402,27.3137951 L70.5808402,27.3520826 L71.8054586,26.6501438 L71.7895357,26.6246187 C71.3132952,25.7822921 70.4006216,25.2618647 69.4177423,25.270373 C69.4133996,25.270373 69.409057,25.270373 69.4047144,25.270373 C67.8609136,25.270373 66.5906977,26.5147192 66.5906977,28.0270784 C66.5906977,29.5394376 67.8609136,30.7837838 69.4047144,30.7837838 C70.4035166,30.7837838 71.3306657,30.2626474 71.8344094,29.4174846 L71.8604651,29.4174846 L70.6163049,28.721927 L70.5967632,28.7311444 Z" id="Path"></path>
                <polygon id="Path" points="72.8186047 30.2860257 72.8186047 30.3243243 74.255814 30.3243243 74.255814 25.2702703 72.824441 25.7134404"></polygon>
                <path d="M74.0462209,23.1745608 C73.9102849,23.0464865 73.7276395,22.9741216 73.5372093,22.972973 C73.1431744,22.972973 72.8186047,23.2842568 72.8186047,23.6621622 C72.8186047,24.0400676 73.1431744,24.3513514 73.5372093,24.3513514 C73.92825,24.3513514 74.2510233,24.0458108 74.255814,23.670777 C74.2540174,23.4835473 74.1743721,23.3049324 74.034843,23.1745608" id="Path"></path>
                <path d="M79.5261278,28.0275068 C79.5275849,28.0523687 79.5283134,28.0765203 79.5283134,28.1013822 C79.5283134,28.8486603 78.8974056,29.4631048 78.1317197,29.4631048 C78.1149635,29.4631048 78.0974787,29.4631048 78.0807225,29.4623945 C77.7069862,29.4694979 77.3449063,29.3309815 77.0746214,29.0788106 C76.795594,28.8031985 76.6440596,28.4274284 76.6549876,28.0402929 C76.6535305,28.0147207 76.652802,27.9884381 76.652802,27.9628658 C76.652802,27.2191394 77.2800671,26.6075363 78.0428389,26.6075363 C78.0595951,26.6075363 78.0770799,26.6075363 78.0938361,26.6082466 C78.4719436,26.5997225 78.8391232,26.7382389 79.1137793,26.9918304 C79.3884355,27.2688632 79.5370558,27.6425023 79.5268563,28.0275068 M79.5268563,25.9753333 C79.094109,25.5043776 78.4675724,25.2458137 77.8191799,25.2720963 C76.3752317,25.3189787 75.2139535,26.4903301 75.2139535,27.8989352 C75.2139535,27.9415556 75.214682,27.984176 75.2168676,28.0267964 C75.2095823,28.7918331 75.520665,29.5284561 76.0787196,30.0661838 C76.5449794,30.5222224 77.1780728,30.780076 77.8388503,30.782207 C78.4785004,30.8063585 79.0977516,30.5520567 79.5268563,30.0889147 L79.5268563,30.6387182 L80.9627907,30.6387182 L80.9627907,25.4170057 L79.5268563,25.4170057 L79.5268563,25.9753333 Z" id="Shape"></path>
                <path d="M84.1430799,26.5683461 L85.2744186,26.5683461 L85.2744186,25.2850033 L84.1430799,25.2850033 L84.1430799,23.8918919 L82.7926174,24.2984419 L82.7926174,25.2863584 L81.9209302,25.2863584 L81.9209302,26.5683461 L82.7926174,26.5683461 L82.7926174,28.5868669 C82.7383516,29.0815028 82.9038966,29.5761386 83.2466641,29.9420336 C83.6272115,30.2252635 84.1011785,30.3587474 84.5758324,30.3167372 C84.8018254,30.3160596 85.0278184,30.3031855 85.2524375,30.2774374 L85.2737317,30.2774374 L85.2737317,29.0577874 L85.233891,29.0577874 C84.7640454,29.0821804 84.421278,29.0882786 84.2605413,28.9392103 C84.172617,28.8443486 84.1300287,28.7169629 84.1430799,28.5888997 L84.1430799,26.5683461 Z" id="Path"></path>
                <path d="M87.3787769,22.778979 C87.1997665,22.6103214 86.9592459,22.5150261 86.7084735,22.5135135 C86.1840597,22.5150261 85.7534884,22.929485 85.7534884,23.4324324 C85.7534884,23.9368924 86.1864255,24.3513514 86.7116279,24.3513514 C87.229733,24.3513514 87.6579386,23.9489934 87.6697674,23.4528529 C87.6674017,23.2055389 87.5625189,22.9695696 87.3787769,22.7963742" id="Path"></path>
                <polygon id="Path" points="86.2325581 30.2860257 86.2325581 30.3243243 87.6697674 30.3243243 87.6697674 25.2702703 86.2354823 25.7134404"></polygon>
                <path d="M92.9161566,28.030618 L92.9161566,28.0448536 C92.9161566,28.8071702 92.261564,29.4349603 91.4667015,29.4349603 C91.0985859,29.4349603 90.7438294,29.2997221 90.4751644,29.0584286 C90.1983355,28.7886639 90.046191,28.4220971 90.0543548,28.04343 C90.0536127,28.0235002 90.0528705,28.0028586 90.0528705,27.9829287 C90.0528705,27.2448127 90.6859402,26.6376642 91.455569,26.6376642 L91.48674,26.6376642 C91.8593086,26.634817 92.2192604,26.7714788 92.4886675,27.0184666 C92.7654964,27.2875195 92.9168987,27.6526627 92.9094771,28.030618 M91.4741232,25.2703344 C89.9081476,25.2852818 88.627907,26.5244911 88.627907,28.0270591 C88.627907,29.5388802 89.9252175,30.7837838 91.5023256,30.7837838 C93.0786915,30.7837838 94.3767442,29.5388802 94.3767442,28.0270591 C94.3767442,27.2896548 94.0680021,26.5821453 93.5210239,26.0646811 C92.9755301,25.5507758 92.2385567,25.265352 91.4741232,25.2703344" id="Shape"></path>
                <path d="M98.1617542,25.2738451 C97.6027529,25.2374518 97.0589907,25.4805587 96.6967135,25.9289236 L96.6967135,25.4194181 L95.3348837,25.4194181 L95.3348837,30.7837838 L96.7126454,30.7837838 L96.7126454,27.8934315 C96.7126454,27.0745833 97.1081718,26.606566 97.797399,26.606566 C98.0516164,26.5956481 98.3009851,26.6895427 98.4900896,26.8685975 C98.6771161,27.0840455 98.7734001,27.3700965 98.7581609,27.6612425 L98.7581609,30.7823281 L100.123454,30.7823281 L100.123454,27.5069352 C100.149776,26.881699 99.9308861,26.2717481 99.5187352,25.8204717 C99.1557653,25.4543556 98.6667257,25.2571042 98.1631396,25.2738451" id="Path"></path>
                <polygon id="Path" points="46.4986233 16.8852245 46.4986233 15.221874 49.344186 15.221874 49.344186 13.7837838 45.0325581 13.7837838 45.0325581 21.1351351 46.4986233 21.1351351 46.4986233 18.3240299 49.2625053 18.3240299 49.2625053 16.8852245"></polygon>
                <path d="M54.59225,18.3579161 L54.59225,18.372028 C54.59225,19.1277195 53.9433539,19.7500536 53.1554086,19.7500536 C52.7904965,19.7500536 52.4388271,19.6159907 52.1725002,19.3767943 C51.8988161,19.1086684 51.7479955,18.745993 51.7553526,18.3706168 C51.7546169,18.3508602 51.7538812,18.330398 51.7538812,18.3106413 C51.7538812,17.5789401 52.3814418,16.9770682 53.144373,16.9770682 L53.1752728,16.9770682 C53.5453348,16.9728346 53.9021542,17.1083087 54.1684811,17.3545611 C54.4443724,17.6205701 54.5951929,17.9832456 54.5856287,18.3579161 M53.1554086,15.6216216 C53.1458444,15.6216216 53.1355444,15.6216216 53.1259802,15.6216216 C51.5765751,15.6216216 50.3023256,16.8437109 50.3023256,18.3296924 L50.3023256,18.3579161 L50.3023256,18.3783784 C50.3023256,19.8904669 51.6001179,21.1351351 53.1767442,21.1351351 C54.7533705,21.1351351 56.0511628,19.8904669 56.0511628,18.3783784 C56.0511628,16.8662899 54.7533705,15.6216216 53.1767442,15.6216216 C53.1693871,15.6216216 53.1627657,15.6216216 53.1554086,15.6216216" id="Shape"></path>
                <path d="M57.9766382,18.3734392 C57.9759025,18.3536826 57.9751668,18.3332203 57.9751668,18.3134637 C57.9751668,17.5817625 58.6027274,16.9798906 59.3656585,16.9798906 L59.3833156,16.9798906 C59.7533777,16.975657 60.110197,17.1111311 60.3765239,17.3573835 C60.6906721,17.6212757 60.8716567,18.0030022 60.8716567,18.4030742 C60.8716567,19.1658216 60.2168749,19.7930949 59.4223082,19.7930949 C58.6270058,19.7930949 57.9729597,19.1658216 57.9729597,18.4030742 C57.9729597,18.3931959 57.9729597,18.3833175 57.9729597,18.3734392 M59.3833156,15.6216216 C59.3737513,15.6216216 59.3634514,15.6216216 59.3538872,15.6216216 C57.8044821,15.6216216 56.5302326,16.8437109 56.5302326,18.3296924 L56.5302326,18.3579161 L56.5302326,18.3783784 C56.5302326,19.8904669 57.8280248,21.1351351 59.4046512,21.1351351 C60.9812775,21.1351351 62.2790698,19.8904669 62.2790698,18.3783784 C62.2790698,16.8662899 60.9812775,15.6216216 59.4046512,15.6216216 C59.3972941,15.6216216 59.3906727,15.6216216 59.3833156,15.6216216" id="Shape"></path>
                <path d="M66.0710671,19.4045235 C65.6008362,19.4323759 65.2543503,19.4378105 65.0934819,19.2883588 C65.0075479,19.1918946 64.9662996,19.0648607 64.9793615,18.9371475 L64.9793615,16.9046054 L66.1081905,16.9046054 L66.1081905,15.6179628 L64.9793615,15.6179628 L64.9793615,13.7837838 L63.6277916,14.1913791 L63.6277916,15.6179628 L62.7581395,15.6179628 L62.7581395,16.9086814 L63.6271041,16.9086814 L63.6271041,18.9289956 C63.5714189,19.4276206 63.7384746,19.9255662 64.0849605,20.292402 C64.46582,20.5763601 64.9401756,20.7101872 65.4152188,20.6680691 C65.6214604,20.6680691 65.8421389,20.6531239 66.0896288,20.6286682 L66.1116279,20.6286682 L66.1116279,19.4058822 L66.0710671,19.4045235 Z" id="Path"></path>
                <path d="M68.5283304,18.4202966 C68.5268827,18.3951286 68.5261588,18.3699605 68.5261588,18.3440934 C68.5261588,17.6114237 69.1508436,17.0073907 69.910165,17.0073907 C69.9217466,17.0073907 69.9333283,17.0080898 69.9449099,17.0080898 C70.3205894,17.0003995 70.6846872,17.1360273 70.9583035,17.3856104 C71.2326436,17.6589633 71.3817573,18.0273955 71.3716233,18.4077126 C71.373071,18.4307833 71.3737949,18.4545531 71.3737949,18.4776238 C71.3737949,19.2123909 70.7469386,19.8178221 69.9861695,19.8178221 C69.9724163,19.8178221 69.9586631,19.8178221 69.9449099,19.817123 C69.5735735,19.8241142 69.2145426,19.6898846 68.9452695,19.4430979 C68.6709294,19.169745 68.5218157,18.8013128 68.5319497,18.4209957 M68.5319497,13.7844829 L67.0697674,14.3724364 L67.1059601,20.9531805 L67.1059601,20.9909326 L68.5290542,20.9909326 L68.5290542,20.4407312 C68.9503365,20.9070391 69.5699543,21.1622151 70.2098399,21.1328524 C71.6539258,21.0923039 72.8186047,19.9338748 72.8186047,18.5391457 C72.8186047,18.4999954 72.8178808,18.4608451 72.8157092,18.4216949 C72.8280147,17.6659545 72.5218251,16.9367803 71.9688017,16.4019594 C71.4990214,15.9524302 70.8642027,15.7000506 70.2033253,15.6993515 C69.5706781,15.6706879 68.957575,15.9209701 68.5384643,16.3788887 L68.5384643,13.7837838 L68.5319497,13.7844829 Z" id="Shape"></path>
                <path d="M74.7332424,18.3851014 C74.7317835,18.359587 74.7310541,18.333364 74.7310541,18.3078497 C74.7310541,17.5643904 75.360574,16.9527551 76.1257726,16.9527551 C76.1410912,16.9527551 76.1556803,16.9527551 76.1709988,16.9534639 C76.5495861,16.9456678 76.9172316,17.0831617 77.1922363,17.3361788 C77.4686998,17.6132928 77.6189676,17.9867943 77.6087552,18.3723442 C77.6102141,18.3971498 77.6109436,18.4219554 77.6109436,18.4474697 C77.6109436,19.190929 76.9814237,19.8025643 76.2162251,19.8025643 C76.1965298,19.8025643 76.1775639,19.8018555 76.1578686,19.8011468 C75.7836581,19.8082341 75.4218482,19.6721577 75.1504909,19.4219755 C74.8740273,19.1448615 74.7237595,18.77136 74.7339719,18.3858101 M79.0465116,20.9911069 L79.0465116,15.7670474 L77.6102141,15.7670474 L77.6102141,16.3248191 C77.1783766,15.8563476 76.5532334,15.5990781 75.906936,15.623175 C74.4618851,15.6664076 73.2976744,16.8329795 73.2976744,18.2376852 C73.2976744,18.2823353 73.2991333,18.3269854 73.3013217,18.3716355 C73.288921,19.1377742 73.5974805,19.8769811 74.1547844,20.4191606 C74.6238242,20.8734575 75.2584503,21.130727 75.9207957,21.1335619 C76.5612574,21.1576588 77.1812944,20.9039329 77.6109436,20.44184 L77.6109436,20.9903981 L79.0465116,20.9911069 Z" id="Shape"></path>
                <polygon id="Path" points="80.4996899 13.8689702 80.4837209 13.8751283 80.493883 20.6756757 81.9209302 20.6756757 81.9209302 13.3243243"></polygon>
                <polygon id="Path" points="84.3162791 20.6756757 84.3162791 13.3243243 82.8950468 13.8715034 82.8790698 13.8776592 82.8885108 20.6756757"></polygon>
                <path d="M86.6866754,17.8607913 C86.825688,17.2606088 87.3706725,16.8453704 87.971677,16.8822174 C88.5512417,16.8588337 89.0657956,17.2769065 89.1757608,17.8607913 L86.6866754,17.8607913 Z M90.4905013,18.9350258 C90.5250816,18.7536247 90.5430633,18.5686807 90.5437549,18.3837366 C90.5568954,17.6248281 90.2691878,16.8914292 89.7470263,16.3528947 C89.2677442,15.8781341 88.6245518,15.6152442 87.9578449,15.6230388 C87.9281059,15.6223302 87.8990585,15.6216216 87.8693195,15.6216216 C86.445997,15.6216216 85.2744186,16.8219866 85.2744186,18.2802813 C85.2744186,18.310751 85.2751102,18.3405121 85.2758018,18.3709818 C85.2612781,19.1086323 85.5386116,19.8221905 86.0441746,20.3479702 C86.5898508,20.8751671 87.3201853,21.1578977 88.0698848,21.1323882 C88.9447648,21.1734869 89.7809149,20.7511625 90.2830199,20.0163464 L90.3016932,19.9908368 L89.1951257,19.3530986 L89.1951257,19.3722308 C88.9219418,19.7059804 88.5132035,19.8923417 88.0885582,19.8788784 C87.479946,19.9490296 86.9031477,19.565678 86.717106,18.9676213 L90.5008754,18.9676213 L90.4905013,18.9350258 Z" id="Shape"></path>
                <path d="M94.3485569,17.2245614 L94.3767442,17.2245614 L94.3767442,15.6242479 L94.3396194,15.6242479 C93.724311,15.5875771 93.1433773,15.9374165 92.8546292,16.5182819 L92.8546292,15.7298598 L91.5023256,15.7298598 L91.5023256,21.1351351 L92.8539417,21.1351351 L92.8539417,18.5542445 C92.8532542,18.5351757 92.8525667,18.5161069 92.8525667,18.497038 C92.8525667,17.7848912 93.4018756,17.1996253 94.0687462,17.1996253 C94.1629331,17.1996253 94.2564325,17.2113599 94.3478694,17.2340958" id="Path"></path>
                <path d="M97.0574812,15.6216216 C95.8866236,15.6216216 95.0669522,16.3057452 95.0669522,17.2834689 C95.0669522,18.415421 96.0998946,18.7061912 96.8548738,18.9226771 C97.3475297,19.0592188 97.734261,19.1709991 97.734261,19.4348854 C97.734261,19.6987717 97.484734,19.8551226 97.0468176,19.8551226 C96.6160103,19.8862513 96.21435,19.6244874 96.0714584,19.2183996 L96.0714584,19.1738289 L94.855814,19.8551226 L94.855814,19.8805916 C95.2652942,20.7033793 96.1397051,21.1986083 97.0596139,21.1285688 C98.0193332,21.1285688 99.1674419,20.6892299 99.1674419,19.4539871 C99.1674419,18.2187443 98.1217033,17.9831568 97.3603259,17.7765755 C96.8776227,17.6428637 96.4965785,17.5381581 96.4965785,17.2707344 C96.4965785,17.0033107 96.720513,16.8759661 97.0688556,16.8759661 C97.4100892,16.865354 97.7250193,17.0641531 97.8622236,17.37544 L97.881418,17.4136434 L99.048721,16.7769203 L99.0714699,16.7769203 L99.0714699,16.7486215 C98.659857,16.0418589 97.8892379,15.6145469 97.0688556,15.6378934" id="Path"></path>
                <path d="M100.720063,16.0810811 L100.125581,16.0810811 L100.125581,15.3449723 C100.373827,15.3449723 100.778858,15.3939001 100.778858,15.0163522 L100.778858,14.7373904 L100.125581,14.7373904 L100.125581,13.3243243 L101.562791,13.3243243 L101.562791,15.0696617 C101.562791,15.6012959 101.288414,16.0810811 100.720063,16.0810811 L100.720063,16.0810811 Z" id="Path"></path>
                <path d="M18.7073268,1.86461153 L18.7430256,1.88961592 L26.1902261,6.91133064 C26.0641876,6.8439577 25.9315922,6.78908696 25.7938969,6.74880211 C24.615109,6.42374506 23.3612807,6.43416355 22.1883212,6.7800576 L18.9827173,7.77676031 L18.8450221,7.8080158 C18.8326368,7.81287776 18.8238942,7.82329626 18.8224372,7.83579845 C18.8231657,7.84760608 18.8311797,7.85802457 18.8421079,7.8635811 C18.8530361,7.86913764 24.6704785,11.9010953 25.2802718,12.3199188 C26.7184222,13.3145378 28.5747582,13.5902807 30.261343,13.0582428 L32.228418,12.4331331 L32.5788488,12.3240862 C33.1296298,12.1490555 33.4968172,12.0115314 33.4997314,12.0115314 C33.5135737,12.0122259 33.5266876,12.0031966 33.5288732,11.9899998 C33.5368872,11.9788867 33.5368872,11.9636063 33.5288732,11.9524932 L33.4013776,11.8621996 C33.4013776,11.8621996 33.1624144,11.6809178 32.8083409,11.4308739 L32.6116334,11.321827 L27.6946743,7.91845185 C27.6946743,7.91845185 27.6218196,7.85941371 27.5212802,7.78440054 C27.8491261,7.67813189 32.2648453,6.26538393 33.2869958,5.90907139 C33.3394512,5.8903181 33.3984634,5.87503764 33.4509188,5.85281152 C33.4640326,5.84864412 33.4727751,5.83753106 33.4735037,5.82502886 C33.4735037,5.8139158 33.4654897,5.80349731 33.4538329,5.80002447 L33.4181342,5.77502009 C33.3984634,5.77502009 27.7901138,1.96254538 26.9442716,1.39925207 C25.9862331,0.758167329 24.8358585,0.429637444 23.6658131,0.461587496 C23.0866188,0.473395124 22.5125243,0.57132898 21.9646574,0.751916231 L19.8271025,1.44231518 L18.9681464,1.72014173 L18.8734354,1.75139721 C18.8180659,1.7701505 18.7619678,1.78543096 18.7065983,1.80765709 C18.6949415,1.81321362 18.6869275,1.82363211 18.6840134,1.83543974 C18.6810992,1.84724737 18.7007699,1.85627673 18.7073268,1.86461153 L18.7073268,1.86461153 Z" id="Path"></path>
                <path d="M3.84937007,11.7361584 L3.84937007,11.9994122 C3.85228462,12.0111277 3.86029965,12.0214649 3.87195786,12.026978 C3.8821588,12.0311129 3.89454566,12.0311129 3.9047466,12.026978 L3.94044988,12.0021688 L11.2880403,6.87078679 C11.1831164,6.96451066 11.0883934,7.06857173 11.0060572,7.18090254 C10.3065643,8.13950479 9.92257182,9.27246101 9.9014413,10.4364288 C9.9014413,11.257891 9.87521032,13.611325 9.87521032,13.611325 L9.87521032,13.7491542 C9.87521032,13.762248 9.8824967,13.7739635 9.89488356,13.7801658 C9.9050845,13.7849898 9.91747135,13.7849898 9.92767229,13.7801658 L16.3885097,9.37652208 C17.8275707,8.39379971 18.6822637,6.81358766 18.6837209,5.13482772 L18.6837209,1.85655964 C18.6713341,1.85035733 18.6567613,1.85035733 18.6443745,1.85655964 L18.5132195,1.93994632 C18.5132195,1.93994632 18.2574674,2.10120651 17.9004346,2.33965107 L17.7007876,2.46989969 C16.3695651,3.40024694 13.0783051,5.62963463 12.7635333,5.84051335 L12.5770018,5.9549116 C12.5770018,5.61378427 12.554414,1.22047777 12.5376553,0.19709579 L12.5376553,0.0310115753 C12.5361981,0.0165395068 12.5252685,0.00413487671 12.5106957,0 L12.477907,0 L12.4422037,0.0248092602 C12.4225305,0.0248092602 6.86884794,3.89160813 6.05277284,4.47462574 C4.63119916,5.4752659 3.80346585,7.065126 3.83334002,8.74112936 L3.83334002,10.87128 C3.84645552,11.1655454 3.84645552,11.4598108 3.84937007,11.7361584 Z" id="Path"></path>
                <path d="M36.1010468,16.5048973 C35.913998,15.977522 35.6399499,15.4828036 35.2890523,15.0388078 C34.8424554,14.4669634 34.3987584,13.8881708 33.9514365,13.3128523 L33.4134902,12.6180231 L33.3504156,12.5408971 L33.2460163,12.4095744 C33.2351414,12.4040157 33.2213665,12.4040157 33.2104916,12.4095744 C33.2090416,12.4206916 33.2017916,12.4304193 33.1909167,12.4345882 C33.1713419,12.4443158 33.1909167,12.4630762 33.1909167,12.4748883 C33.1909167,12.4867004 31.3784292,18.0647887 30.4968352,20.7878241 C30.52511,20.6530272 30.5367099,20.5161459 30.53236,20.3785697 C30.4953852,19.2036136 30.0980879,18.0647887 29.3904928,17.1052297 C28.8880712,16.4333299 27.4330062,14.5072635 27.4330062,14.5072635 L27.3452818,14.3947012 C27.3351319,14.3884477 27.322807,14.3884477 27.3126571,14.3947012 C27.3025071,14.4009547 27.2967072,14.3947012 27.2930822,14.4197151 C27.2894572,14.4447289 25.0716974,20.9566675 24.843324,21.6410742 C24.2974027,23.2544675 24.5946507,25.0248921 25.6408185,26.3930107 L26.8573602,27.9966763 C26.9298597,28.099511 27.0023592,28.1933129 27.0748587,28.2843356 C27.4011064,28.7311107 27.6548547,29.0250234 27.6548547,29.0284976 L27.60918,29.0284976 L18.5344173,29.0979805 C18.6765163,29.0813046 18.8171653,29.0500373 18.9520144,29.0041785 C20.1083815,28.6122949 21.1175746,27.9007899 21.8519945,26.9592964 L23.8094811,24.3800907 C23.8355809,24.346044 23.8906805,24.2710025 23.8906805,24.2675283 C23.8986555,24.2578007 23.8986555,24.2432093 23.8906805,24.2334817 L23.8616807,24.2334817 C23.8522558,24.2334817 16.68423,24.1959609 15.944735,24.1959609 C14.8840673,24.187623 13.8436995,24.4780616 12.9534056,25.0297559 C12.3806595,25.3820343 11.8811379,25.8322836 11.4787657,26.3582692 L10.2556991,27.9563762 L10.0382006,28.2440355 C9.71195281,28.6942847 9.4806794,28.9972302 9.47705442,29.0007044 C9.47342945,29.0041785 9.47705442,29.0007044 9.47705442,29.0257182 L9.47705442,29.0069579 C9.47777942,28.9937561 9.47777942,28.9798595 9.47705442,28.9666578 C9.47632943,28.953456 7.51956785,23.4330386 6.54154956,20.735017 C6.60172415,20.8580018 6.67639864,20.9747331 6.76339804,21.0824316 C7.51521788,22.0100285 8.53673587,22.7055525 9.6989029,23.0800654 L12.8758311,24.0708917 L13.0128552,24.1111918 C13.0259051,24.1160556 13.040405,24.1139711 13.0505549,24.1049383 C13.0556299,24.0952107 13.0556299,24.0833986 13.0505549,24.073671 C13.0454799,24.0639434 10.8190202,17.5422772 10.5855718,16.8585653 C10.0360256,15.2486462 8.70855969,13.9882262 7.02367125,13.4761371 C6.37117573,13.2676884 5.71868021,13.0696621 5.06618468,12.8507909 L4.71311211,12.7437872 C4.16211589,12.5784179 3.79309342,12.472109 3.78656846,12.472109 L3.74886872,12.472109 C3.74089378,12.4832263 3.74089378,12.4985125 3.74886872,12.5096298 L3.79744339,12.6534594 C3.79744339,12.6534594 3.87864283,12.9376445 4.0149419,13.3350868 C4.03741674,13.4045697 4.06061658,13.4740526 4.0874414,13.5504838 C4.57028809,15.0388078 5.82742946,18.7214022 5.94705364,19.0715961 L6.00215326,19.2800448 C5.6759055,19.173736 1.25271085,17.8542555 0.218867943,17.5575634 L0.0528440819,17.5110099 C0.0419691565,17.5047564 0.028194251,17.5047564 0.0173193256,17.5110099 C0.00789439028,17.5179582 0.00209443007,17.5283806 0.000644440023,17.5394979 C-0.000805550029,17.5506151 0.000644440023,17.5631221 0.000644440023,17.5804928 C0.000644440023,17.5978635 2.19955435,23.833955 2.53812703,24.7455708 C2.91512444,25.8024059 3.63721949,26.7154114 4.59638791,27.3497904 C5.07125965,27.6638531 5.59398106,27.9049589 6.14570228,28.0654644 L8.28588759,28.6908106 L9.15008167,28.9472026 L9.24433102,28.9756905 L9.41035488,29.0222441 C9.4212298,29.0284976 9.43500471,29.0284976 9.44587964,29.0222441 C9.4516796,29.034751 9.46472951,29.043089 9.47850441,29.0437838 L9.63800332,29.0437838 C9.63800332,29.0437838 9.94105124,29.0437838 10.3782232,29.0625442 L10.6160216,29.0625442 L16.6929299,29.1063184 L16.9104284,29.1063184 C16.7016299,29.3842501 14.0039234,32.9827702 13.3876776,33.8269875 C13.3514278,33.8714566 13.3173531,33.9180102 13.2869033,33.9659534 C13.2789283,33.975681 13.2789283,33.9902724 13.2869033,34 L13.3746277,34 C13.4007275,34 20.2446805,33.9624792 21.2683735,33.9499723 C22.4348905,33.9402447 23.5673327,33.5712904 24.4975014,32.8966113 C24.9578732,32.564483 25.3616954,32.1663459 25.6944682,31.7154018 C26.1294652,31.1296609 26.5644622,30.547394 26.9994592,29.9679065 L27.5243556,29.2647395 L27.5830802,29.1869186 C27.615705,29.1431444 27.6512297,29.0965908 27.6809545,29.0479528 C27.6882045,29.0396148 27.6882045,29.0284976 27.6809545,29.0201596 C27.6954544,29.0173803 27.7077793,29.0083475 27.7135793,28.9951458 C27.7193793,28.981944 27.7491041,28.9013438 27.7657789,28.8513161 C27.7657789,28.8513161 27.8701782,28.5733845 28.0101023,28.1794164 L28.0826018,27.9640193 C28.5900983,26.472916 29.8312898,22.7931009 29.9516389,22.442907 L30.0299384,22.2462704 C30.241637,22.5242021 32.9951681,26.0852014 33.6476636,26.9071842 L33.7520629,27.0412862 C33.7629378,27.0468449 33.7767127,27.0468449 33.7875876,27.0412862 L33.8071625,27.0134931 L33.8231124,26.9759723 C33.8231124,26.9509585 35.8784733,20.6856842 36.1786212,19.7448855 C36.5121189,18.6845763 36.4831191,17.5499203 36.0974218,16.5062869 L36.1010468,16.5048973 Z" id="Path"></path>
            </g>
        </g>
    </g>
</svg>