<?xml version="1.0" encoding="UTF-8"?>
<svg width="150px" height="60px" viewBox="0 0 150 60" version="1.1" xmlns="http://www.w3.org/2000/svg" xmlns:xlink="http://www.w3.org/1999/xlink">
    <title>Artboard</title>
    <g id="Artboard" stroke="none" stroke-width="1" fill="none" fill-rule="evenodd">
        <g id="Group-7" transform="translate(49.000000, 0.000000)">
            <g id="Group-6" transform="translate(0.000000, 38.238543)" fill="#9DA6B9">
                <path d="M48.2637259,1.35444078 C48.2637259,1.35444078 49.5563892,4.11770033 45.6391626,4.40805007 L49.6753881,7.5679826 C49.6753881,7.5679826 52.9118435,5.678205 50.8754012,3.64833257 L48.2637259,1.35444078" id="Fill-3"></path>
                <path d="M47.4543614,3.14934314 C48.1695005,2.39763923 47.4837173,1.1310618 47.4837173,1.1310618 C47.4837173,1.1310618 46.8628036,-0.0324836828 45.611525,0.0244700871 C45.305221,0.0178874906 44.9953369,0.0728378615 44.6876008,0.173580208 C44.4295551,1.19159307 44.1156614,2.15107806 43.7409079,3.04001479 L43.7431991,3.04073029 C43.6906448,3.17195292 43.2505923,4.24377136 42.3702008,5.70825599 C42.4750229,5.79926754 42.637841,5.93993476 42.8408981,6.11594767 L45.8741532,8.73324529 C46.2491931,6.16474474 47.6906408,6.79238101 47.6906408,6.79238101 L44.287501,4.08392874 C46.8778396,3.9851898 47.4543614,3.14934314 47.4543614,3.14934314" id="Fill-4"></path>
                <path d="M3.37449991,1.38563657 C3.37449991,1.38563657 2.08126381,4.14889611 5.99849042,4.43924586 L1.96226489,7.59917839 C1.96226489,7.59917839 -1.27376095,5.70940079 0.762824571,3.67938526 L3.37449991,1.38563657" id="Fill-5"></path>
            </g>
            <path d="M4.19469676,41.4611905 C3.48800135,40.7182708 4.16627624,39.4664943 4.16627624,39.4664943 C4.16627624,39.4664943 4.77922634,38.31697 6.01417587,38.3729753 C6.31704533,38.3661868 6.6228841,38.4206365 6.92688473,38.520343 C7.18167968,39.5258939 7.49161892,40.4748737 7.86165132,41.3531397 L7.85938899,41.3542712 C7.910857,41.4835361 8.3453658,42.5432538 9.21523179,43.990342 C9.11158878,44.0808557 8.95082194,44.219172 8.74989873,44.3932695 L5.75513906,46.9802649 C5.38496527,44.4414963 3.96139395,45.0617982 3.96139395,45.0617982 L7.32180276,42.3847134 C4.7643798,42.2872697 4.19469676,41.4611905 4.19469676,41.4611905" id="Fill-7" fill="#9DA6B9"></path>
            <path d="M44.6975306,0.0928476821 L44.6975306,30.7679763 C44.7086876,30.9412668 44.7129787,31.1364497 44.7129787,31.3623387 C44.7129787,31.4601434 44.7124065,31.564203 44.7115483,31.6743754 C44.7072572,32.4499892 44.6693522,33.2503385 44.5981193,34.0523937 C44.3842778,36.4650275 43.902679,38.627731 43.1653479,40.4895128 L42.9990552,40.8918477 L42.9910552,40.9108477 L42.9906604,40.9137898 L43.0030552,40.8828477 C42.9320162,41.0591857 42.4464289,42.2202644 41.4759291,43.7637892 L41.3405762,43.976583 L46.6103753,48.5090052 C45.4411842,50.2049496 45.0043467,50.7034976 44.2818627,51.5105283 C39.4497189,56.918727 33.2622631,59.8321441 26.3621322,59.9562586 L25.9010747,59.9603974 L25.7833545,59.9603974 C18.6994069,59.9603974 12.3429495,57.0389091 7.40285255,51.5105283 C6.71907158,50.7459729 6.29114682,50.2582829 5.25374685,48.7670548 L5.07505519,48.5090052 L10.3352708,43.9849703 C9.27092639,42.3200163 8.74755103,41.0478447 8.6816106,40.8836523 C7.85299255,38.9352353 7.31617164,36.6372519 7.08702506,34.0523937 C7.01593527,33.2503385 6.97688595,32.4498471 6.97359608,31.6743754 C6.97288089,31.5643452 6.97230874,31.4600012 6.97230874,31.3623387 C6.97230874,31.211746 6.9737709,31.0748005 6.97830573,30.9488907 L6.98761378,30.7679763 L6.98761378,0.0928476821 L44.6975306,0.0928476821 Z M25.1968995,53.8706299 C23.9325883,53.8712034 23.1613284,54.6377191 23.1626141,55.9855187 C23.16376,57.2751757 23.8587808,57.9825537 25.1073578,57.9818434 C26.3982741,57.980137 27.1382087,57.1954251 27.136923,55.8369636 C27.135491,54.5763068 26.420588,53.8685024 25.1968995,53.8706299 Z M30.2278255,53.5013084 C29.6618248,53.6212897 29.2113988,53.7159669 28.875689,53.7738252 C28.523673,53.8336737 28.0629482,53.8953702 27.5039564,53.9675865 C27.5347095,54.0861462 27.559312,54.1639066 27.5678943,54.2150835 C27.5827702,54.3003782 27.5904943,54.4051487 27.5989335,54.5150368 C27.8917319,54.4183693 28.1976898,54.3417462 28.5082249,54.2888634 C28.6388184,54.9481921 28.7405183,55.442191 28.7945866,55.7560757 C28.8971447,56.3498695 28.9941243,56.997399 29.0603508,57.7143016 C29.2564557,57.6631247 29.4123669,57.6250264 29.5392414,57.6037027 C29.635792,57.5867859 29.8010006,57.5701534 30.0282877,57.5493984 C29.8353297,56.7999416 29.6993007,56.0125287 29.5542604,55.1790566 C29.5431034,55.1115315 29.5290857,55.0306437 29.5140668,54.9452067 C29.4768769,54.7343865 29.4299605,54.4598795 29.3950593,54.1377495 C29.7048792,54.0844403 30.0146991,54.0548714 30.3228026,54.0487586 C30.294052,53.9421402 30.2711659,53.8399286 30.25629,53.7549181 C30.2471356,53.703457 30.2386963,53.6227112 30.2278255,53.5013084 Z M25.1502692,54.2473532 C25.7827824,54.247069 26.1978781,54.8444167 26.1990247,55.9303614 C26.2001667,57.0049334 25.7753444,57.6037027 25.1537021,57.6044135 C24.5161826,57.6044135 24.1015159,57.0127521 24.1006532,55.9322094 C24.0990843,54.8583482 24.5130357,54.2480641 25.1502692,54.2473532 Z M20.2762557,53.1449183 C20.1416571,53.863669 19.9831712,54.5110563 19.8355562,55.0775558 C19.7021019,55.5870499 19.5366072,56.2205058 19.2758492,56.97309 C19.475244,57.0067814 19.638021,57.0372033 19.7584588,57.0680515 C19.8886232,57.101743 20.0402433,57.1529198 20.2256203,57.2188811 C20.3071519,56.7429363 20.3653683,56.4587625 20.3892556,56.3690608 L20.5883642,55.6070942 C20.652016,55.6291287 20.7119489,55.6451925 20.7721678,55.6601191 C21.6970503,55.8988023 22.2677712,55.6157658 22.4801823,54.8027645 C22.6688492,54.0793226 22.3681837,53.6788636 21.5874833,53.4768572 C21.2630736,53.3932683 20.9491056,53.3487729 20.6590249,53.2734291 C20.5538921,53.2464191 20.4268745,53.202208 20.2762557,53.1449183 Z M33.4198573,52.4092509 C32.881606,52.6213506 32.4530647,52.7883862 32.1312296,52.9001223 C31.7948047,53.0165497 31.3503862,53.1524527 30.8108476,53.3152236 C30.8603387,53.4272441 30.8981007,53.4998868 30.9151222,53.5497842 C30.9441588,53.6316672 30.9687613,53.7333101 30.9949372,53.8406394 C31.2675673,53.6967755 31.5570759,53.5715344 31.8548806,53.4683277 C32.0928955,54.0972345 32.2745535,54.5682038 32.3801154,54.8685836 C32.5803684,55.4370733 32.7829099,56.0600094 32.9669996,56.7565834 C33.1513753,56.6737054 33.2995625,56.6105872 33.4210016,56.568082 C33.5141192,56.5358121 33.6741785,56.4928804 33.8937416,56.4343113 C33.5800596,55.7280706 33.3145815,54.9737805 33.0343704,54.1751371 C33.01034,54.1098866 32.9843072,54.0331213 32.9549844,53.9510961 C32.8834655,53.7486632 32.7919213,53.4866661 32.7040961,53.1733499 C33.0011856,53.0701433 33.3017081,52.9903926 33.6045191,52.9339559 C33.5581749,52.8334503 33.5188395,52.736925 33.4900889,52.6547577 C33.4729243,52.6058554 33.4506104,52.5273842 33.4198573,52.4092509 Z M16.3741842,51.3132131 C16.2051135,51.7210287 16.0108592,52.1081337 15.8074728,52.4911406 L15.6016369,52.8733966 L15.4853472,53.0874865 C15.4216954,53.2050512 15.3574714,53.3216207 15.2938196,53.4384745 C15.0530869,53.881723 14.7993379,54.3379079 14.4813648,54.7925291 C14.7737341,54.9237409 15.0087452,55.0432957 15.1855399,55.1383994 C15.4219815,55.2653465 15.7980279,55.4804314 16.3125349,55.7762622 C16.3648867,55.6594083 16.3997879,55.5732606 16.4246765,55.52777 C16.4608651,55.4608137 16.5067802,55.3878866 16.5680004,55.2956261 C16.1966742,55.1482083 15.8656847,54.9897022 15.5521459,54.8220979 C15.6194094,54.6654754 15.702121,54.4987774 15.7979273,54.3178059 L15.8980113,54.1319211 L16.199678,53.5762256 C16.5197967,53.7552025 16.8430621,53.9486794 17.1706187,54.157083 C17.2221123,54.0403713 17.2541528,53.959057 17.2796135,53.9137086 C17.3067907,53.8625317 17.3561388,53.7833497 17.4278007,53.6835549 C17.0740205,53.5153346 16.7788461,53.3742626 16.5426913,53.2600097 L16.4080841,53.1946736 L16.5544118,52.9245735 C16.6872939,52.680204 16.8283292,52.432707 16.9756582,52.1832198 C17.0736391,52.2289946 17.1736225,52.2825882 17.273892,52.3366082 C17.5053272,52.4611386 17.7360472,52.5990318 17.9730608,52.7582487 C18.0159722,52.6563214 18.045581,52.5799826 18.0760481,52.5246832 C18.1066582,52.4679622 18.1574366,52.3963145 18.2190859,52.3050491 C17.8205825,52.110577 17.4918816,51.9466689 17.2465718,51.8151728 C17.0869416,51.7294516 16.79729,51.5602836 16.3741842,51.3132131 Z M35.8987026,50.9554015 C35.5179359,51.183565 35.2009641,51.368939 34.9567986,51.5019988 C34.7983127,51.5888573 34.4979333,51.7385497 34.0593794,51.9574729 C34.3965195,52.4412365 34.6787331,52.9414903 34.958372,53.4492785 C34.9978504,53.5204997 35.0366137,53.5915787 35.075806,53.6627998 C35.1406022,53.7796536 35.2051122,53.8965075 35.2693362,54.013077 C35.5132157,54.4549039 35.760242,54.9143585 35.972224,55.4271222 C36.2415642,55.2524101 36.4698526,55.122762 36.6463612,55.0259525 C36.8826597,54.897726 37.2685757,54.7005529 37.7979587,54.4320165 L37.7722929,54.3933545 L37.7722929,54.3933545 L37.6726441,54.242942 L37.6484842,54.2028579 C37.6127247,54.1370387 37.5741045,54.0587097 37.5303349,53.9567825 C37.2036366,54.1883578 36.8905268,54.378423 36.577417,54.5488703 C36.4824757,54.4074943 36.3867297,54.2480463 36.285412,54.0700468 L36.1820605,53.8858456 L35.877533,53.3314296 C36.2023719,53.1618351 36.5413715,52.9969319 36.8946749,52.837715 C36.8240142,52.7301014 36.7732358,52.6591646 36.7480611,52.6135319 C36.7201687,52.5626394 36.6798321,52.4791926 36.6349182,52.3647555 C36.3003289,52.5693445 36.0206701,52.7386901 35.7957763,52.8740265 L35.6674104,52.9511571 L35.5185081,52.6817677 C35.3847677,52.438109 35.2520286,52.1866316 35.1212921,51.9276198 C35.2136945,51.8708987 35.3129627,51.8168787 35.4132323,51.7618636 C35.6439522,51.6370489 35.8854001,51.5182048 36.1485896,51.4083167 C36.0862252,51.3166248 36.0378784,51.2505214 36.0065531,51.1945112 C35.976086,51.1385009 35.9429013,51.057613 35.8987026,50.9554015 Z M21.0672548,53.7738252 C21.1603724,53.7857664 21.2213065,53.7955753 21.2513445,53.8038205 C21.6215263,53.8990663 21.7516907,54.1781224 21.6345428,54.6264886 C21.487786,55.1873017 21.2175876,55.3446706 20.6874894,55.2076303 L20.9117727,54.3494227 C20.9493917,54.2041373 20.9774271,54.0979453 20.9951638,54.0304203 C21.0020296,54.0026995 21.0244865,53.9183998 21.0672548,53.7738252 Z M13.0468386,48.7390167 C12.6094289,49.3485901 12.1917585,49.8617803 11.8248665,50.3044602 C11.7809539,50.3577694 11.731892,50.4157699 11.6806844,50.4791723 C11.3804481,50.8408222 11.0065472,51.2847815 10.5190743,51.7935648 C10.6771311,51.9007519 10.809012,51.9930124 10.9044182,52.0707728 C11.0044016,52.1525136 11.1201192,52.2631125 11.2650165,52.4038489 C11.3749649,52.2438738 11.4887277,52.09028 11.60711,51.9392346 L11.7882489,51.7140985 L12.447081,50.9184404 C12.6983985,51.107937 12.8774818,51.2469674 12.9850462,51.3352475 C13.1017651,51.4305644 13.2366676,51.5448328 13.3878832,51.677033 L13.5444671,51.8151728 L12.8854919,52.6115417 C12.7006871,52.8345875 12.5077291,53.0439862 12.3024698,53.2518211 C12.4693949,53.3655475 12.5999884,53.4570972 12.7001149,53.5388381 C12.7958072,53.6173092 12.9080919,53.7243542 13.0486981,53.8618209 C13.4566419,53.2877871 13.8231048,52.837715 14.122626,52.4754965 C14.1744057,52.4122362 14.2223233,52.3542358 14.2668081,52.301353 C14.6404228,51.8485799 15.0666755,51.3424976 15.5770344,50.8068464 C15.3980941,50.6909877 15.2676437,50.6068302 15.1843956,50.5380257 C15.1042945,50.4727752 14.9872895,50.3549263 14.8308062,50.1965623 C14.7104637,50.3686682 14.5885319,50.5354037 14.4625527,50.6979481 L14.270241,50.938769 L13.8664452,51.4259443 C13.6434493,51.2584822 13.4450558,51.1119174 13.2811345,50.9775781 C13.2044901,50.9150286 13.0753985,50.7984788 12.8885619,50.6336875 L12.7694883,50.5290698 L13.173141,50.0420366 C13.3688167,49.8043485 13.5739329,49.5736261 13.7930668,49.3488744 C13.6265708,49.2426824 13.4922583,49.1546866 13.3879838,49.0702448 C13.3084547,49.0057051 13.196027,48.8909836 13.0468386,48.7390167 Z M37.6728006,49.5019785 C37.3761402,49.732843 37.1282556,49.975791 36.8757939,50.1721111 C36.7821041,50.2446117 36.6726802,50.3145534 36.5516702,50.3940197 C37.0587392,50.9401906 37.4749793,51.4623368 37.8302852,51.9143991 C37.8694776,51.9645808 37.912818,52.019596 37.9557294,52.0744689 C38.2602569,52.4622758 38.6178514,52.9267059 38.9991902,53.5121124 C39.1395103,53.3818957 39.2539406,53.277836 39.3487746,53.205762 C39.4376011,53.1359624 39.5671934,53.0505255 39.728397,52.9473188 C39.478653,52.6784981 39.244214,52.3970253 39.0146383,52.105175 L38.5457604,51.50669 C39.463777,51.8672026 40.1001523,52.160048 40.4620379,52.378687 C40.60622,52.2443477 40.7332376,52.1316164 40.8472388,52.043052 C40.9447905,51.9677083 41.1028473,51.8593839 41.3093939,51.7222015 C40.7215085,51.5162146 40.0147587,51.2415654 39.1867128,50.8628566 C39.5490276,50.522957 39.5646187,50.0410415 39.2201836,49.6029107 C38.7720462,49.0328572 38.2882923,49.0250386 37.6728006,49.5019785 Z M42.9676313,1.81210603 L8.71722702,1.81210603 L8.71722702,30.7961235 C8.71722702,30.7961235 8.44087796,35.9283102 10.2857797,40.2412405 C10.2857797,40.2412405 14.6726064,51.3665223 25.7833545,51.3665223 L25.8424292,51.3665223 C36.9533204,51.3665223 41.3993647,40.2412405 41.3993647,40.2412405 C43.2063351,36.0163291 42.9780275,31.0052593 42.9679562,30.8024855 L42.9676313,1.81210603 Z M38.5494793,50.1587483 C38.8827574,50.5843692 38.8229676,50.9170188 38.3786922,51.2610411 L38.3622428,51.273551 L37.8680472,50.6435069 C37.7674916,50.5158491 37.6314627,50.3424164 37.4749793,50.1180911 C37.5327666,50.0743064 37.568526,50.0532671 37.5805412,50.0436003 C37.9551572,49.7534559 38.2482417,49.7759169 38.5494793,50.1587483 Z M40.6537086,46.6544124 C40.3460343,46.7478102 40.087994,46.9260763 39.8591335,47.1842352 C39.2958506,47.8208185 39.3429101,48.5038875 39.9030462,48.993906 C40.3843684,49.4141249 40.8041844,49.3166045 41.4618722,49.064132 C41.9191641,48.889562 42.1731993,48.7955956 42.4306673,49.0216268 C42.697862,49.2550501 42.7075886,49.5773222 42.4446851,49.875001 C42.1813654,50.1728865 41.8699331,50.2200571 41.4891097,50.0282614 L41.3727597,49.9635654 L41.3146863,50.0291002 C41.502638,50.2557 41.7093277,50.50405 41.9270312,50.7759981 C42.1860727,50.6672473 42.4461154,50.4774664 42.6785519,50.2157536 C43.2987638,49.5142041 43.2774512,48.7765464 42.6642481,48.2406109 C42.156893,47.7973624 41.7582466,47.9140741 41.1479042,48.1395366 C40.6238137,48.3372784 40.3647722,48.4801471 40.106589,48.2552532 C39.8917462,48.0683155 39.8614222,47.7606857 40.1041573,47.4863208 C40.3126747,47.2501491 40.5696765,47.1957148 40.9153469,47.3066441 L41.0492082,47.355962 L41.0908322,47.3099028 C40.9322032,47.1029208 40.7883072,46.8882623 40.6537086,46.6544124 Z M10.5765755,46.1454869 C10.4954731,46.2378896 10.4446947,46.3017185 10.4066466,46.338111 C10.3444252,46.3988124 10.2623215,46.4639208 10.1756406,46.5328674 C10.4213795,46.7185257 10.657821,46.9266449 10.8779562,47.1511123 C10.404358,47.6299004 10.0519128,47.9928296 9.82162197,48.2151647 C9.38793132,48.6353836 8.90575085,49.0811909 8.3483325,49.5412141 C8.50109688,49.6719994 8.62139168,49.7779071 8.71136247,49.8703098 C8.78002062,49.9405358 8.88644075,50.0664878 9.03305451,50.2402048 C9.54470076,49.6587787 10.1211431,49.1010931 10.7309133,48.5114219 C10.7809766,48.4622352 10.839479,48.406225 10.9019866,48.3458078 C11.0564674,48.1961155 11.2565773,48.0023542 11.5043188,47.7912496 C11.7247401,48.0152906 11.9242778,48.2525522 12.1033612,48.5023237 C12.1760244,48.4171711 12.2469711,48.3418274 12.3101938,48.2806995 C12.3473837,48.244307 12.409319,48.1912821 12.5044392,48.1139482 C12.0840511,47.7181804 11.750773,47.4028741 11.5131871,47.159784 C11.2643013,46.9066007 10.952622,46.5630049 10.5765755,46.1454869 Z" id="Combined-Shape" fill="#9DA6B9"></path>
            <polygon id="Fill-10" fill="#9DA6B9" points="22.7041943 42.8743046 28.9812362 42.8743046 28.9812362 18.3709934 22.7041943 18.3709934"></polygon>
            <path d="M17.3458375,9.16107156 L17.3458375,5.01286277 C16.4995357,5.05802943 15.7182036,5.25821605 14.9580574,5.60416134 L15.4471667,4.06635762 L21.5022075,4.06635762 L20.8506738,5.43133118 C20.329927,5.16717032 19.7549446,5.03067297 19.060333,5.01286277 L19.060333,9.16107156 C19.060333,9.81634436 19.1469123,10.3979542 19.4073563,10.9537748 L16.9983905,10.9537748 C17.2586932,10.3979542 17.3458375,9.81634436 17.3458375,9.16107156" id="Fill-11" fill="#9DA6B9"></path>
            <path d="M29.3321165,9.16107156 L29.3321165,5.85891841 C29.3321165,5.20364561 29.2442177,4.62146586 28.9812362,4.06635762 L31.418389,4.06635762 C31.1552646,4.62146586 31.0666512,5.20364561 31.0666512,5.85891841 L31.0666512,7.18670427 L33.175363,4.80369981 C33.3841761,4.5670379 33.4939423,4.35758997 33.4939423,4.14814204 C33.4939423,4.12121303 33.48308,4.09328663 33.48308,4.06635762 L36.2063682,4.06635762 C35.5587761,4.46658838 35.053823,4.83048634 34.7238097,5.18569293 L32.9122385,7.14153761 L35.3715447,10.0343412 C35.6023682,10.3071934 35.9210904,10.6076871 36.3267108,10.9537748 L33.6041372,10.9537748 C33.6148566,10.871278 33.6262906,10.7894936 33.6262906,10.7171129 C33.6262906,10.4436908 33.5045187,10.2249815 33.2854151,9.96196054 L31.0666512,7.30524895 L31.0666512,9.16107156 C31.0666512,9.81634436 31.1552646,10.3979542 31.4181032,10.9537748 L28.9812362,10.9537748 C29.2442177,10.3979542 29.3321165,9.81634436 29.3321165,9.16107156" id="Fill-12" fill="#9DA6B9"></path>
            <path d="M36.9408336,9.16107156 L36.9408336,5.85891841 C36.9408336,5.20364561 36.8543977,4.62146586 36.593819,4.06635762 L41.2493516,4.06635762 L40.4790554,5.41295105 C39.9903819,5.22159829 39.3936636,5.12186118 38.6557102,5.10362354 L38.6557102,7.00504026 L41.0109468,7.00504026 L40.131617,8.25118418 C39.7956187,8.04202121 39.350022,7.95140293 38.8075379,7.95140293 C38.7534449,7.95126045 38.7098033,7.95140293 38.6557102,7.95140293 L38.6557102,9.92548525 C38.8833812,9.93474656 39.1117584,9.94386538 39.3288367,9.94386538 C40.3053362,9.94386538 41.1196978,9.83429704 41.8024283,9.57953997 L41.1518994,10.9537748 L36.593819,10.9537748 C36.8543977,10.3979542 36.9408336,9.81634436 36.9408336,9.16107156" id="Fill-13" fill="#9DA6B9"></path>
            <path d="M20.6579994,13.1364304 C19.7330802,13.1364304 19.0770784,13.7543435 19.0770784,14.7258545 C19.0770784,15.7088083 19.7604894,16.3388707 20.7823195,16.3388707 C21.3555344,16.3388707 21.7835927,16.1470266 22.1699779,15.7270321 L22.0185284,16.765081 C21.5282401,16.9504267 21.010263,17.0464901 20.451312,17.0464901 C19.8295716,17.0464901 19.2978899,16.9025364 18.8562669,16.6081305 C18.2142494,16.1827678 17.8962472,15.6073768 17.8962472,14.8878907 C17.8962472,14.1320984 18.2489304,13.4720869 18.8839558,13.016775 C19.4429068,12.6209376 20.1196053,12.4107285 20.8722383,12.4107285 C21.2449189,12.4107285 21.6524203,12.4709093 22.0804786,12.5907059 L22.0804786,13.7243944 C21.6317236,13.3349141 21.1621321,13.1364304 20.6579994,13.1364304" id="Fill-14" fill="#9DA6B9"></path>
            <path d="M20.6579994,13.1364304 C19.7330802,13.1364304 19.0770784,13.7543435 19.0770784,14.7258545 C19.0770784,15.7088083 19.7604894,16.3388707 20.7823195,16.3388707 C21.3555344,16.3388707 21.7835927,16.1470266 22.1699779,15.7270321 L22.0185284,16.765081 C21.5282401,16.9504267 21.010263,17.0464901 20.451312,17.0464901 C19.8295716,17.0464901 19.2978899,16.9025364 18.8562669,16.6081305 C18.2142494,16.1827678 17.8962472,15.6073768 17.8962472,14.8878907 C17.8962472,14.1320984 18.2489304,13.4720869 18.8839558,13.016775 C19.4429068,12.6209376 20.1196053,12.4107285 20.8722383,12.4107285 C21.2449189,12.4107285 21.6524203,12.4709093 22.0804786,12.5907059 L22.0804786,13.7243944 C21.6317236,13.3349141 21.1621321,13.1364304 20.6579994,13.1364304 Z" id="Stroke-15"></path>
            <path d="M23.0684116,15.7422848 L23.0684116,13.5829038 C23.0684116,13.1542506 23.0107824,12.7739417 22.8377483,12.4107285 L24.4403974,12.4107285 C24.2675096,12.7739417 24.2092953,13.1542506 24.2092953,13.5829038 L24.2092953,15.7422848 C24.2092953,16.1700973 24.2675096,16.5511068 24.4403974,16.9140397 L22.8377483,16.9140397 C23.0107824,16.5511068 23.0684116,16.1702374 23.0684116,15.7422848" id="Fill-16" fill="#9DA6B9"></path>
            <path d="M23.0684116,15.7422848 L23.0684116,13.5829038 C23.0684116,13.1542506 23.0107824,12.7739417 22.8377483,12.4107285 L24.4403974,12.4107285 C24.2675096,12.7739417 24.2092953,13.1542506 24.2092953,13.5829038 L24.2092953,15.7422848 C24.2092953,16.1700973 24.2675096,16.5511068 24.4403974,16.9140397 L22.8377483,16.9140397 C23.0107824,16.5511068 23.0684116,16.1702374 23.0684116,15.7422848 Z" id="Stroke-17"></path>
            <path d="M26.4007409,15.7422848 L26.4007409,13.029396 C25.8477408,13.0595237 25.3373675,13.1897031 24.8410596,13.416291 L25.1606888,12.4107285 L29.1147903,12.4107285 L28.689527,13.3030671 C28.3495174,13.1302886 27.9736265,13.0415872 27.520089,13.029396 L27.520089,15.7422848 C27.520089,16.1700973 27.5766376,16.5511068 27.7462837,16.9140397 L26.1736851,16.9140397 C26.3439052,16.5511068 26.4007409,16.1702374 26.4007409,15.7422848" id="Fill-18" fill="#9DA6B9"></path>
            <path d="M26.4007409,15.7422848 L26.4007409,13.029396 C25.8477408,13.0595237 25.3373675,13.1897031 24.8410596,13.416291 L25.1606888,12.4107285 L29.1147903,12.4107285 L28.689527,13.3030671 C28.3495174,13.1302886 27.9736265,13.0415872 27.520089,13.029396 L27.520089,15.7422848 C27.520089,16.1700973 27.5766376,16.5511068 27.7462837,16.9140397 L26.1736851,16.9140397 C26.3439052,16.5511068 26.4007409,16.1702374 26.4007409,15.7422848 Z" id="Stroke-19"></path>
            <path d="M32.4950765,16.9140397 L30.949208,16.9140397 C31.11594,16.5511068 31.1717995,16.1702374 31.1717995,15.7422848 L31.1717995,14.8080477 L30.0083427,13.1602761 C29.8201696,12.8989364 29.6114019,12.6488069 29.3818985,12.4107285 L30.9211372,12.4107285 C30.913661,12.4467415 30.913661,12.482194 30.913661,12.5121815 C30.913661,12.6251252 30.9417318,12.7261578 30.9902562,12.7979037 L31.777649,13.9576076 L32.4327283,12.8808598 C32.4950765,12.7739417 32.529777,12.6609981 32.529777,12.5476341 C32.529777,12.5004107 32.522583,12.4586524 32.5162354,12.4107285 L33.9227373,12.4107285 C33.6576869,12.6427814 33.4350954,12.8989364 33.2472045,13.1779323 L32.2716386,14.6241991 L32.2716386,15.7422848 C32.2716386,16.1700973 32.3277802,16.5511068 32.4950765,16.9140397" id="Fill-20" fill="#9DA6B9"></path>
            <path d="M32.4950765,16.9140397 L30.949208,16.9140397 C31.11594,16.5511068 31.1717995,16.1702374 31.1717995,15.7422848 L31.1717995,14.8080477 L30.0083427,13.1602761 C29.8201696,12.8989364 29.6114019,12.6488069 29.3818985,12.4107285 L30.9211372,12.4107285 C30.913661,12.4467415 30.913661,12.482194 30.913661,12.5121815 C30.913661,12.6251252 30.9417318,12.7261578 30.9902562,12.7979037 L31.777649,13.9576076 L32.4327283,12.8808598 C32.4950765,12.7739417 32.529777,12.6609981 32.529777,12.5476341 C32.529777,12.5004107 32.522583,12.4586524 32.5162354,12.4107285 L33.9227373,12.4107285 C33.6576869,12.6427814 33.4350954,12.8989364 33.2472045,13.1779323 L32.2716386,14.6241991 L32.2716386,15.7422848 C32.2716386,16.1700973 32.3277802,16.5511068 32.4950765,16.9140397 Z" id="Stroke-21"></path>
            <path d="M28.4470199,7.44419809 C28.4470199,9.72231684 26.8328361,10.9537748 24.8412028,10.9537748 C22.8498559,10.9537748 21.2350993,9.78815264 21.2350993,7.44419809 C21.2350993,5.50525512 22.8498559,3.93390728 24.8412028,3.93390728 C26.8328361,3.93390728 28.4470199,5.50525512 28.4470199,7.44419809 Z M24.8354752,4.761639 C23.7165865,4.761639 23.1988105,6.05436285 23.1988105,7.41049473 C23.1988105,8.76634098 23.7165865,10.0590648 24.8354752,10.0590648 C25.9536479,10.0590648 26.4717103,8.76634098 26.4717103,7.41049473 C26.4717103,6.05436285 25.9536479,4.761639 24.8354752,4.761639 L24.8354752,4.761639 Z" id="Fill-22" fill="#9DA6B9"></path>
            <path d="M23.0316344,45.3794531 C23.0316344,44.7858178 23.2140581,44.4772172 23.5722958,44.4772172 C23.9579999,44.4772172 24.1062008,44.7619714 24.1062008,45.3795934 C24.1062008,45.980102 23.9306804,46.2728518 23.5722958,46.2728518 C23.2073016,46.2728518 23.0316344,45.980102 23.0316344,45.3795934 L23.0316344,45.3794531 Z M24.2620393,46.423505 C24.7819908,46.265277 25.0528355,45.8621325 25.0528355,45.307493 C25.0528355,44.5093397 24.5455157,44.0663576 23.6195908,44.0663576 C22.6531274,44.0663576 22.0855872,44.5648878 22.0855872,45.307493 C22.0855872,45.8695669 22.3693573,46.2728518 22.8831398,46.4159302 L22.8831398,46.4710575 C22.2339349,46.6370005 21.9028698,47.1276754 21.9028698,47.8946881 C21.9028698,48.8437752 22.5041921,49.2554764 23.5722958,49.4531211 C24.6449527,49.6520282 25.2417219,49.1613532 25.2417219,48.1966959 C25.2417219,47.5003807 24.8899468,46.6215704 24.2620393,46.4710575 L24.2620393,46.423505 Z M22.9984398,47.8474161 C22.9984398,47.0717065 23.180129,46.684553 23.5722958,46.684553 C23.9579999,46.684553 24.1470331,47.0717065 24.1470331,47.8474161 C24.1470331,48.6148497 23.9438995,49.002985 23.5722958,49.002985 C23.1601535,49.002985 22.9984398,48.63042 22.9984398,47.8474161 L22.9984398,47.8474161 Z" id="Fill-23" fill="#9DA6B9"></path>
            <path d="M23.0316344,45.3794531 C23.0316344,44.7858178 23.2140581,44.4772172 23.5722958,44.4772172 C23.9579999,44.4772172 24.1062008,44.7619714 24.1062008,45.3795934 C24.1062008,45.980102 23.9306804,46.2728518 23.5722958,46.2728518 C23.2073016,46.2728518 23.0316344,45.980102 23.0316344,45.3795934 L23.0316344,45.3794531 Z M24.2620393,46.423505 C24.7819908,46.265277 25.0528355,45.8621325 25.0528355,45.307493 C25.0528355,44.5093397 24.5455157,44.0663576 23.6195908,44.0663576 C22.6531274,44.0663576 22.0855872,44.5648878 22.0855872,45.307493 C22.0855872,45.8695669 22.3693573,46.2728518 22.8831398,46.4159302 L22.8831398,46.4710575 C22.2339349,46.6370005 21.9028698,47.1276754 21.9028698,47.8946881 C21.9028698,48.8437752 22.5041921,49.2554764 23.5722958,49.4531211 C24.6449527,49.6520282 25.2417219,49.1613532 25.2417219,48.1966959 C25.2417219,47.5003807 24.8899468,46.6215704 24.2620393,46.4710575 L24.2620393,46.423505 Z M22.9984398,47.8474161 C22.9984398,47.0717065 23.180129,46.684553 23.5722958,46.684553 C23.9579999,46.684553 24.1470331,47.0717065 24.1470331,47.8474161 C24.1470331,48.6148497 23.9438995,49.002985 23.5722958,49.002985 C23.1601535,49.002985 22.9984398,48.63042 22.9984398,47.8474161 Z" id="Stroke-24"></path>
            <path d="M27.9900412,47.9569764 C27.9900412,48.777492 27.8224258,49.1833839 27.4855861,49.1833839 C27.1361679,49.1833839 26.9608007,48.7690418 26.9608007,47.9243022 C26.9608007,47.1771626 27.1294399,46.81155 27.4724226,46.81155 C27.8488991,46.81155 27.9900412,47.1771626 27.9900412,47.9569764 Z M26.9473446,46.6491651 C26.9473446,46.6412783 26.9473446,46.6329689 26.9473446,46.6249412 C26.9473446,45.3254393 27.2275812,44.570272 27.8392458,44.570272 C28.1289894,44.570272 28.3508677,44.723925 28.5528545,45.0410896 L28.5933689,45.0247526 C28.6071174,44.7811048 28.6409038,44.5295701 28.6871224,44.2531073 C28.4117124,44.1310017 27.8426098,44.0663576 27.5601793,44.0663576 C26.227593,44.0663576 25.7759382,45.5292303 25.7759382,47.5193962 C25.7759382,49.0383219 26.3729767,49.7746171 27.4855861,49.605472 C28.4962514,49.4523823 29.1147903,48.9073436 29.1147903,47.7458619 C29.1147903,46.7957763 28.6302267,46.2346822 27.8695219,46.2346822 C27.458674,46.2346822 27.1222731,46.3974896 26.9473446,46.6491651 L26.9473446,46.6491651 Z" id="Fill-25" fill="#9DA6B9"></path>
            <path d="M27.9900412,47.9569764 C27.9900412,48.777492 27.8224258,49.1833839 27.4855861,49.1833839 C27.1361679,49.1833839 26.9608007,48.7690418 26.9608007,47.9243022 C26.9608007,47.1771626 27.1294399,46.81155 27.4724226,46.81155 C27.8488991,46.81155 27.9900412,47.1771626 27.9900412,47.9569764 Z M26.9473446,46.6491651 L26.9473446,46.6249412 C26.9473446,45.3254393 27.2275812,44.570272 27.8392458,44.570272 C28.1289894,44.570272 28.3508677,44.723925 28.5528545,45.0410896 L28.5933689,45.0247526 C28.6071174,44.7811048 28.6409038,44.5295701 28.6871224,44.2531073 C28.4117124,44.1310017 27.8426098,44.0663576 27.5601793,44.0663576 C26.227593,44.0663576 25.7759382,45.5292303 25.7759382,47.5193962 C25.7759382,49.0383219 26.3729767,49.7746171 27.4855861,49.605472 C28.4962514,49.4523823 29.1147903,48.9073436 29.1147903,47.7458619 C29.1147903,46.7957763 28.6302267,46.2346822 27.8695219,46.2346822 C27.458674,46.2346822 27.1222731,46.3974896 26.9473446,46.6491651 Z" id="Stroke-26"></path>
            <path d="M29.5856621,48.1902382 C29.7671271,48.522128 30.2378524,48.5509571 30.2378524,48.5509571 C31.2194333,48.5117609 31.1051938,47.0125052 31.1051938,47.0125052 C30.9988632,46.240652 30.3998382,46.3343821 29.9181283,46.3767026 C29.8377213,46.3835194 29.7209919,46.3933184 29.6474686,46.4059578 L29.6651903,45.8440032 C29.7152799,45.8454234 29.7713745,45.8474116 29.8271761,45.842299 C30.3457941,45.79586 30.6987648,45.6458918 30.7971866,45.1475601 C30.8569426,44.8454935 30.7948432,44.3722985 30.2648012,44.385932 C29.6689983,44.4015537 29.5748239,44.8287357 29.4052222,45.0522678 L29.3347745,45.0152018 L29.2707711,44.3500021 C29.5793642,43.9915554 30.3605866,43.9415661 30.3605866,43.9415661 C31.1627529,43.8704164 31.7828684,44.302711 31.8410133,44.9173533 C31.8839264,45.3669738 31.7144711,45.5504575 31.1472281,45.8087834 L31.151329,45.8522401 C31.8177261,45.8151741 32.0787194,46.0291912 32.2327962,46.4815099 C32.4823656,47.2113266 32.4035696,49.0872069 29.1147903,49.2319205 C29.1147903,49.2319205 29.3794451,48.9447656 29.4736195,48.2285823 L29.5856621,48.1902382" id="Fill-27" fill="#9DA6B9"></path>
            <path d="M29.5856621,48.1902382 C29.7671271,48.522128 30.2378524,48.5509571 30.2378524,48.5509571 C31.2194333,48.5117609 31.1051938,47.0125052 31.1051938,47.0125052 C30.9988632,46.240652 30.3998382,46.3343821 29.9181283,46.3767026 C29.8377213,46.3835194 29.7209919,46.3933184 29.6474686,46.4059578 L29.6651903,45.8440032 C29.7152799,45.8454234 29.7713745,45.8474116 29.8271761,45.842299 C30.3457941,45.79586 30.6987648,45.6458918 30.7971866,45.1475601 C30.8569426,44.8454935 30.7948432,44.3722985 30.2648012,44.385932 C29.6689983,44.4015537 29.5748239,44.8287357 29.4052222,45.0522678 L29.3347745,45.0152018 L29.2707711,44.3500021 C29.5793642,43.9915554 30.3605866,43.9415661 30.3605866,43.9415661 C31.1627529,43.8704164 31.7828684,44.302711 31.8410133,44.9173533 C31.8839264,45.3669738 31.7144711,45.5504575 31.1472281,45.8087834 L31.151329,45.8522401 C31.8177261,45.8151741 32.0787194,46.0291912 32.2327962,46.4815099 C32.4823656,47.2113266 32.4035696,49.0872069 29.1147903,49.2319205 C29.1147903,49.2319205 29.3794451,48.9447656 29.4736195,48.2285823 L29.5856621,48.1902382 Z" id="Stroke-28"></path>
            <path d="M21.6357616,48.9670199 C21.0774299,48.7673659 20.2325487,48.3370258 20.2325487,48.3370258 C20.2799838,47.9085278 20.3806714,46.9923017 20.3806714,45.4677614 C20.3806714,45.2992812 20.3665006,45.1815293 20.3529264,44.9413494 C20.0850227,45.0454982 20.1948095,44.9569363 19.9272041,45.1064288 L19.6324503,44.6780725 C20.3460647,44.4510706 20.6438018,44.423581 21.3441403,44.0663576 L21.4813739,44.1377739 C21.460938,45.507012 21.4728714,46.2719036 21.4728714,46.7132962 C21.4728714,47.2778253 21.5492448,48.1849827 21.603094,48.7422851 C21.6144307,48.8593286 21.6357616,48.9670199 21.6357616,48.9670199" id="Fill-29" fill="#9DA6B9"></path>
            <path d="M21.6357616,48.9670199 C21.0774299,48.7673659 20.2325487,48.3370258 20.2325487,48.3370258 C20.2799838,47.9085278 20.3806714,46.9923017 20.3806714,45.4677614 C20.3806714,45.2992812 20.3665006,45.1815293 20.3529264,44.9413494 C20.0850227,45.0454982 20.1948095,44.9569363 19.9272041,45.1064288 L19.6324503,44.6780725 C20.3460647,44.4510706 20.6438018,44.423581 21.3441403,44.0663576 L21.4813739,44.1377739 C21.460938,45.507012 21.4728714,46.2719036 21.4728714,46.7132962 C21.4728714,47.2778253 21.5492448,48.1849827 21.603094,48.7422851 C21.6144307,48.8593286 21.6357616,48.9670199 21.6357616,48.9670199 Z" id="Stroke-30"></path>
            <path d="M16.5607064,46.1855629 C16.0745777,45.7528291 15.6039533,45.2817249 15.1475647,44.7686973 C12.8993077,42.2476145 11.8674295,39.6638599 11.8577041,39.6381375 L11.8485425,39.6155415 L11.8400857,39.5963563 C10.5583072,36.5549982 10.4172185,32.9733268 10.4172185,31.547366 C10.4172185,31.1557028 10.4273668,30.926759 10.4283534,30.9165268 L10.4300448,30.8703401 C10.4300448,30.8703401 10.4300448,25.5530439 10.4300448,12.2782781 L16.5444974,12.2782781 L16.5607064,46.1855629" id="Fill-31" fill="#9DA6B9"></path>
            <path d="M34.99117,46.1855629 C35.4760412,45.7528291 35.947804,45.2817249 36.4037803,44.7686973 C38.6512431,42.2476145 39.6841317,39.6638599 39.6942801,39.6381375 L39.70316,39.6155415 L39.7111943,39.5963563 C40.9939888,36.5549982 41.1346578,32.9733268 41.1346578,31.547366 C41.1346578,31.1557028 41.1242275,30.926759 41.1239456,30.9165268 L41.1212675,30.8703401 C41.1212675,30.8703401 41.1212675,25.5530439 41.1212675,12.2782781 L35.0075203,12.2782781 L34.99117,46.1855629" id="Fill-32" fill="#9DA6B9"></path>
            <path d="M14.2893485,7.30351757 C14.0537344,7.13593063 13.4866657,6.8627583 12.8229169,6.48161049 C12.2955836,6.17596116 11.8959911,5.91980059 11.9097027,5.55214971 C11.9234142,5.15736437 12.2800532,4.81164602 12.8923139,4.83259439 C13.5156278,4.85368335 14.1571304,5.26885468 14.6308769,5.85090998 L14.606532,4.15226453 C14.1800762,4.02109119 13.7522212,3.95290355 13.3018402,3.93743832 C11.4640787,3.87501499 10.3285422,4.64518382 10.2847493,5.85639311 C10.2571864,6.63668465 10.7554177,7.13888309 11.7142437,7.6742615 C12.5769493,8.16197885 13.3092556,8.37849218 13.3324813,8.98627601 L13.3320615,8.98627601 C13.3155517,9.43069071 12.9053259,9.81240089 12.2660619,9.79074955 C11.6151851,9.76909822 10.9508766,9.31751328 10.4575423,8.66389611 L10.4785293,10.5749777 C10.9224742,10.7217569 11.4881438,10.8016137 11.959232,10.8179225 C13.8782831,10.8825953 15.0420822,10.0201974 15.0916115,8.65644467 C15.0885334,8.11811381 14.8338911,7.69099207 14.2893485,7.30351757" id="Fill-40" fill="#9DA6B9"></path>
        </g>
    </g>
</svg>