<?xml version="1.0" encoding="UTF-8"?>
<svg width="104px" height="121px" viewBox="0 0 104 121" version="1.1" xmlns="http://www.w3.org/2000/svg" xmlns:xlink="http://www.w3.org/1999/xlink">
    <title>Group 7</title>
    <g id="Page-1" stroke="none" stroke-width="1" fill="none" fill-rule="evenodd">
        <g id="iPhone-X" transform="translate(-802.000000, -3036.000000)">
            <g id="Group-7" transform="translate(802.000000, 3036.000000)">
                <g id="Group-6" transform="translate(0.000000, 77.114395)" fill="#9DA6B9">
                    <path d="M96.5274517,2.73145558 C96.5274517,2.73145558 99.1127783,8.30402899 91.2783251,8.88956765 L99.3507762,15.2620983 C99.3507762,15.2620983 105.823687,11.4510468 101.750802,7.35747069 L96.5274517,2.73145558" id="Fill-3"></path>
                    <path d="M94.9087228,6.35117533 C96.339001,4.83523912 94.9674347,2.28097464 94.9674347,2.28097464 C94.9674347,2.28097464 93.7256072,-0.0655087604 91.22305,0.0493480089 C90.6104419,0.036073106 89.9906738,0.146889687 89.3752017,0.35005342 C88.8591101,2.40304603 88.2313228,4.33800743 87.4818158,6.1306965 L87.4863982,6.13213943 C87.3812897,6.39677173 86.5011846,8.55827224 84.7404016,11.5116496 C84.9500459,11.6951895 85.2756819,11.9788684 85.6817961,12.3338278 L91.7483064,17.6120447 C92.4983862,12.4322352 95.3812817,13.6979684 95.3812817,13.6979684 L88.575002,8.23592297 C93.7556792,8.03679942 94.9087228,6.35117533 94.9087228,6.35117533" id="Fill-4"></path>
                    <path d="M6.74899982,2.79436708 C6.74899982,2.79436708 4.16252762,8.36694049 11.9969808,8.95247914 L3.92452979,15.3250097 C3.92452979,15.3250097 -2.54752189,11.5139582 1.52564914,7.4200936 L6.74899982,2.79436708" id="Fill-5"></path>
                </g>
                <path d="M8.38939352,83.6134008 C6.97600269,82.1151795 8.33255247,79.5907635 8.33255247,79.5907635 C8.33255247,79.5907635 9.55845268,77.2725561 12.0283517,77.3855002 C12.6340907,77.37181 13.2457682,77.4816169 13.8537695,77.6826917 C14.3633594,79.7105527 14.9832378,81.6243287 15.7233026,83.3954985 L15.718778,83.3977802 C15.821714,83.6584644 16.6907316,85.7955618 18.4304636,88.7138563 C18.2231776,88.8963923 17.9016439,89.1753302 17.4997975,89.5264268 L11.5102781,94.7435342 C10.7699305,89.6236843 7.92278791,90.8746264 7.92278791,90.8746264 L14.6436055,85.4758386 C9.5287596,85.2793272 8.38939352,83.6134008 8.38939352,83.6134008" id="Fill-7" fill="#9DA6B9"></path>
                <path d="M89.3950612,0.187242826 L89.3950612,62.0487521 C89.4173751,62.3982214 89.4259574,62.7918402 89.4259574,63.247383 C89.4259574,63.4446225 89.4248131,63.654476 89.4230966,63.8766571 C89.4145144,65.4408116 89.3387043,67.0548494 89.1962387,68.6723274 C88.7575894,73.6625614 87.7556111,78.1225902 86.2162518,81.941467 L86.0136473,82.432071 L86.0061104,82.4482428 L85.9764754,82.5237977 C85.8799348,82.7587269 85.6096132,83.3961934 85.1528458,84.3203949 L84.960165,84.7050935 C84.4647138,85.6815077 83.7893968,86.917293 82.9223748,88.304197 L82.6811524,88.686109 L93.2207506,97.8264938 C90.8823684,101.246648 90.0086934,102.252053 88.5637254,103.879565 C78.8258051,114.869197 66.3357987,120.750728 52.4085821,120.916529 L51.8021493,120.920135 L51.5667091,120.920135 C37.3988137,120.920135 24.685899,115.028467 14.8057051,103.879565 C13.4102854,102.306304 12.547638,101.314367 10.3791683,98.1605725 L10.1501104,97.8264938 L20.6705415,88.7030234 C18.5418528,85.3453662 17.4951021,82.7798202 17.3632212,82.4486988 C15.7059851,78.5193912 14.6323433,73.8851247 14.1740501,68.6723274 C14.0318705,67.0548494 13.9537719,65.4405249 13.9471922,63.8766571 C13.9457618,63.6547627 13.9446175,63.4443358 13.9446175,63.247383 C13.9446175,62.8829488 13.9488285,62.5581459 13.9628165,62.2638738 L13.9752276,62.0487521 L13.9752276,0.187242826 L89.3950612,0.187242826 Z M50.393799,108.639104 C47.8651766,108.64026 46.3226568,110.186067 46.3252282,112.904129 C46.3275201,115.504938 47.7175615,116.931483 50.2147157,116.930051 C52.7965482,116.92661 54.2764174,115.344107 54.2738461,112.604543 C54.270982,110.062219 52.841176,108.634813 50.393799,108.639104 Z M60.4556509,107.894305 C59.3236497,108.136267 58.4227975,108.3272 57.751378,108.443881 C57.0473459,108.564575 56.1258963,108.688997 55.0079128,108.834633 C55.069419,109.073728 55.118624,109.230545 55.1357886,109.333752 C55.1655404,109.505763 55.1809885,109.71705 55.197867,109.938657 C55.7834638,109.743712 56.3953796,109.589188 57.0164497,109.482541 C57.2776368,110.812187 57.4810366,111.808418 57.5891732,112.441419 C57.7942894,113.638904 57.9882486,114.944755 58.1207017,116.390508 C58.5129113,116.287302 58.8247338,116.21047 59.0784829,116.167467 C59.2715839,116.133352 59.6020013,116.099809 60.0565754,116.057953 C59.6706594,114.546549 59.3986015,112.9586 59.1085208,111.277764 C59.0862069,111.141589 59.0581715,110.978465 59.0281335,110.806167 C58.9537539,110.381013 58.8599211,109.827424 58.7901186,109.177795 C59.4097584,109.070288 60.0293982,109.010657 60.6456051,108.99833 C60.5881039,108.783316 60.5423318,108.577189 60.51258,108.405752 C60.4942711,108.301972 60.4773927,108.139134 60.4556509,107.894305 Z M50.3005384,109.398829 C51.5655648,109.398256 52.3957562,110.602907 52.3980495,112.792895 C52.4003335,114.959949 51.5506888,116.167467 50.3074042,116.168901 C49.0323651,116.168901 48.2030319,114.975717 48.2013065,112.796622 C48.1981686,110.631002 49.0260714,109.400263 50.3005384,109.398829 Z M40.5525114,107.175585 C40.2833143,108.625066 39.9663425,109.93063 39.6711124,111.073071 C39.4042039,112.100551 39.0732144,113.37802 38.5516985,114.895732 C38.9504879,114.963676 39.276042,115.025027 39.5169177,115.087237 C39.7772465,115.155182 40.0804866,115.258388 40.4512406,115.39141 C40.6143038,114.431588 40.7307365,113.858504 40.7785112,113.677606 L41.1767284,112.140973 C41.3040321,112.185409 41.4238978,112.217805 41.5443356,112.247907 C43.3941006,112.729251 44.5355424,112.158461 44.9603647,110.518908 C45.3376984,109.059967 44.7363674,108.252375 43.1749667,107.844995 C42.5261472,107.676424 41.8982112,107.586692 41.3180498,107.434749 C41.1077842,107.380279 40.853749,107.291119 40.5525114,107.175585 Z M66.8397146,105.691989 C65.763212,106.119724 64.9061294,106.456579 64.2624593,106.681913 C63.5896094,106.916709 62.7007724,107.19078 61.6216952,107.519034 C61.7206773,107.744942 61.7962013,107.891438 61.8302443,107.992065 C61.8883177,108.157196 61.9375227,108.362175 61.9898745,108.578623 C62.5351346,108.288497 63.1141517,108.035928 63.7097612,107.827794 C64.185791,109.09609 64.549107,110.045878 64.7602309,110.651644 C65.1607367,111.798098 65.5658198,113.054352 65.9339992,114.45911 C66.3027506,114.291972 66.599125,114.164684 66.8420032,114.078965 C67.0282384,114.013888 67.348357,113.927309 67.7874831,113.809195 C67.1601193,112.384942 66.6291629,110.863791 66.0687408,109.253193 C66.0206801,109.121605 65.9686143,108.966795 65.9099688,108.801377 C65.766931,108.393137 65.5838426,107.864777 65.4081922,107.232922 C66.0023712,107.024789 66.6034161,106.863959 67.2090382,106.750144 C67.1163497,106.547458 67.0376789,106.352799 66.9801777,106.187095 C66.9458486,106.088475 66.9012208,105.930225 66.8397146,105.691989 Z M32.7483683,103.481646 C32.2975132,104.578217 31.7571163,105.600537 31.2032739,106.628017 C31.1260335,106.772219 31.0482209,106.915562 30.9706944,107.059765 C30.8433908,107.296853 30.7149428,107.531935 30.5876391,107.76759 C30.1061739,108.661475 29.5986757,109.581448 28.9627296,110.498267 C29.5474682,110.762877 30.0174904,111.00398 30.3710799,111.195772 C30.8439629,111.451782 31.5960557,111.885537 32.6250698,112.482129 C32.7297734,112.246473 32.7995759,112.072742 32.849353,111.981003 C32.9217302,111.845974 33.0135605,111.698905 33.1360008,111.512846 C32.3933485,111.215553 31.7313695,110.895899 31.1042917,110.557898 C31.2477873,110.220985 31.4264358,109.860954 31.6345249,109.46753 L31.7960226,109.166041 L32.3993561,108.045388 C33.0395933,108.406325 33.6861242,108.796504 34.3412374,109.216784 C34.4442247,108.981416 34.5083056,108.817432 34.5592271,108.725979 C34.6135814,108.622772 34.7122775,108.463089 34.8556014,108.261836 C34.112663,107.905629 33.4989503,107.609784 33.0154216,107.37353 L32.8161683,107.275925 L33.1088236,106.731223 C33.3745879,106.238411 33.6566585,105.739292 33.9513164,105.23616 C34.1472782,105.328472 34.347245,105.436553 34.547784,105.545493 C35.0106544,105.796629 35.4720944,106.074714 35.9461217,106.395802 C36.0319444,106.190248 36.091162,106.036298 36.1520961,105.924778 C36.2133163,105.81039 36.3148732,105.665901 36.4381718,105.481849 C35.6411651,105.089664 34.9837633,104.759116 34.4931436,104.493932 C34.1738832,104.321061 33.59458,103.979905 32.7483683,103.481646 Z M71.7974052,102.76006 C71.0358719,103.220189 70.4019283,103.594027 69.9135972,103.862364 C69.5966254,104.037529 68.9958666,104.339408 68.1187587,104.780904 C68.793039,105.756494 69.3574662,106.765339 69.916744,107.789378 C69.9957009,107.933008 70.0732274,108.07635 70.1516121,108.21998 C70.2812044,108.455635 70.4102245,108.69129 70.5386724,108.926372 C71.0264314,109.81739 71.520484,110.743956 71.944448,111.77803 C72.4831284,111.425694 72.9397051,111.164237 73.2927225,110.969004 C73.7653194,110.710414 74.5371514,110.312782 75.5959173,109.771233 C75.454596,109.555646 75.3478898,109.401409 75.2969683,109.309097 C75.2254494,109.176361 75.148209,109.018398 75.0606698,108.812845 C74.4072731,109.279855 73.7810536,109.663153 73.154834,110.006889 C72.9522925,109.702773 72.74792,109.357191 72.5301455,108.968969 L72.364121,108.669789 L71.755066,107.551716 C72.4047437,107.209701 73.082743,106.877146 73.7893498,106.556059 C73.6480284,106.339038 73.5464715,106.195982 73.4961222,106.103956 C73.4403375,106.001323 73.3596642,105.833038 73.2698364,105.602257 C72.5671989,106.035474 71.9856832,106.390332 71.5249058,106.669712 L71.3348209,106.784833 L71.0370162,106.241565 C70.7695355,105.750186 70.5040573,105.24304 70.2425841,104.7207 C70.427389,104.606312 70.6259255,104.497372 70.8264645,104.386425 C71.2879045,104.134715 71.7708001,103.895046 72.2971793,103.673439 C72.1724503,103.488527 72.0757568,103.355218 72.0131062,103.242264 C71.9521721,103.12931 71.8858025,102.966186 71.7974052,102.76006 Z M42.1345096,108.443881 C42.3207449,108.467962 42.4426131,108.487744 42.502689,108.504371 C43.2430527,108.69645 43.5033815,109.259213 43.2690856,110.163419 C42.975572,111.294392 42.4351751,111.611752 41.3749788,111.335388 L41.8235454,109.604669 C41.8987833,109.311677 41.9548541,109.097523 41.9903275,108.961348 C42.0040591,108.905444 42.048973,108.73544 42.1345096,108.443881 Z M26.0936771,98.2903504 C25.2188579,99.5196566 24.3835171,100.55459 23.6497331,101.447328 C23.5619079,101.554835 23.4637839,101.671803 23.3613688,101.799664 C22.7608961,102.528991 22.0130944,103.424309 21.0381487,104.450356 C21.3542623,104.666516 21.618024,104.852575 21.8088364,105.009392 C22.0088033,105.174236 22.2402385,105.397277 22.5300331,105.681095 C22.7499299,105.358479 22.9774554,105.048731 23.21422,104.744123 L23.5764977,104.290099 L24.894162,102.685521 C25.3967969,103.067673 25.7549636,103.348051 25.9700925,103.526083 C26.2294677,103.739663 26.5337409,104.000427 26.87778,104.305554 L27.0889342,104.493932 L25.7709838,106.099942 C25.4013741,106.549752 25.0154581,106.972039 24.6049396,107.391173 C24.9387898,107.620521 25.1999769,107.805146 25.4002298,107.96999 C25.5916144,108.12824 25.8161838,108.344114 26.0973961,108.621339 C26.9132838,107.463704 27.6462096,106.556059 28.2452519,105.825585 C28.3488113,105.69801 28.4446466,105.581042 28.5336162,105.474395 C29.2808457,104.561303 30.1333511,103.540703 31.1540689,102.460474 C30.7961883,102.226825 30.5352873,102.057107 30.3687913,101.918352 C30.2085889,101.786763 29.9745791,101.549101 29.6616123,101.229734 C29.4209274,101.576814 29.1770638,101.913064 28.9251054,102.240862 L28.540482,102.726517 L27.7328905,103.708988 C27.2868986,103.371273 26.8901117,103.0757 26.562269,102.804783 C26.3987609,102.670232 26.1159063,102.411776 25.7008463,102.04351 L25.5389765,101.900291 L26.3462819,100.918107 C26.7376334,100.438769 27.1478658,99.9734793 27.5861337,99.52023 C27.2531417,99.3060762 26.9845166,99.128618 26.7759675,98.958327 C26.6169095,98.8281719 26.392054,98.5968169 26.0936771,98.2903504 Z M75.3456012,99.82899 C74.7522803,100.294567 74.2565113,100.784512 73.7515878,101.180424 C73.5642082,101.326634 73.3453604,101.467683 73.1033404,101.62794 C74.1174785,102.729384 74.9499586,103.782379 75.6605704,104.694038 C75.7389551,104.795238 75.8256361,104.906185 75.9114587,105.016846 C76.5205138,105.798923 77.2357028,106.735524 77.9983804,107.916093 C78.2790206,107.65349 78.5078811,107.443636 78.6975493,107.298287 C78.8752022,107.157524 79.1343867,106.985226 79.456794,106.777093 C78.9573059,106.234971 78.488428,105.667334 78.0292766,105.07877 L77.0915207,103.871825 C78.9275541,104.598859 80.2003045,105.18943 80.9240759,105.630352 C81.2124401,105.359434 81.4664752,105.132093 81.6944775,104.953488 C81.8895811,104.801545 82.2056947,104.583091 82.6187879,104.30644 C81.443017,103.891033 80.0295174,103.337157 78.3734256,102.573428 C79.0980551,101.887963 79.1292374,100.9161 78.4403673,100.032536 C77.5440923,98.8829288 76.5765846,98.8671611 75.3456012,99.82899 Z M85.9352626,3.65441383 L17.434454,3.65441383 L17.434454,62.1055158 C17.434454,62.1055158 16.8817559,72.4554255 20.5715593,81.1531683 C20.5715593,81.1531683 29.3452127,103.589153 51.5667091,103.589153 L51.6848583,103.589153 C73.9066408,103.589153 82.7987294,81.1531683 82.7987294,81.1531683 C85.5776309,74.6016218 85.9497436,67.1126677 85.9641843,63.8157253 L85.9644863,63.4898263 C85.9623373,62.6617604 85.9383467,62.1661664 85.9355317,62.1107265 L85.9352626,3.65441383 Z M77.0989587,101.153476 C77.7655149,102.011811 77.6459353,102.682655 76.7573844,103.376433 C76.748516,103.383027 76.7327819,103.395927 76.7244857,103.401661 L75.7360944,102.131072 C75.5349832,101.873629 75.2629253,101.523873 74.9499586,101.071484 C75.0655331,100.983185 75.137052,100.940755 75.1610824,100.921261 C75.9103144,100.336136 76.4964834,100.381432 77.0989587,101.153476 Z M81.3074172,94.0863984 C80.6920685,94.2747506 80.1759881,94.6342539 79.7182671,95.1548742 C78.5917013,96.4386506 78.6858202,97.8161731 79.8060923,98.804377 C80.7687368,99.6518185 81.6083688,99.4551525 82.9237445,98.9459995 C83.8383283,98.5939501 84.3463986,98.4044511 84.8613347,98.8602806 C85.395724,99.3310178 85.4151771,99.9809332 84.8893701,100.581252 C84.3462734,101.200761 83.7008432,101.282567 82.9064072,100.852655 L82.7455194,100.759857 L82.6293727,100.892019 C83.005276,101.348995 83.4186553,101.849834 83.8540624,102.398263 C84.3721454,102.178949 84.8922309,101.796224 85.3571038,101.268436 C86.5975277,99.8536449 86.5549024,98.3660353 85.3284962,97.2852321 C84.3137859,96.3913476 83.5164932,96.6267161 82.2958085,97.0813989 C81.2476274,97.480178 80.7295444,97.7682967 80.2131779,97.3147606 C79.7834923,96.9377696 79.7228443,96.3173828 80.2083146,95.7640803 C80.6462011,95.2639866 81.1909959,95.1679636 81.9357351,95.4377853 L82.0984163,95.50119 L82.1816643,95.408304 C81.8644064,94.9908903 81.5766144,94.5579956 81.3074172,94.0863984 Z M21.1531511,93.0600653 C20.9909462,93.2464107 20.8893894,93.3751324 20.8132932,93.4485238 C20.6888503,93.5709384 20.5246429,93.7022402 20.3512811,93.8412826 C20.842759,94.2156935 21.315642,94.6354006 21.7559124,95.0880766 C20.808716,96.0536324 20.1038257,96.7855397 19.6432439,97.2339154 C18.7758626,98.0813569 17.8115017,98.9804017 16.696665,99.9081151 C17.0021938,100.171866 17.2427834,100.385446 17.4227249,100.571791 C17.5600412,100.713414 17.7728815,100.967417 18.066109,101.317746 C19.0894015,100.145204 20.2422863,99.0205377 21.4618267,97.8313674 C21.5619532,97.7321743 21.6789581,97.6192203 21.8039731,97.4973791 C22.1129348,97.1954996 22.5131546,96.8047476 23.0086376,96.3790201 C23.4494801,96.830836 23.8485556,97.3093136 24.2067223,97.8130195 C24.3520487,97.6412951 24.4939422,97.4893519 24.6203877,97.3660773 C24.6947673,97.2926859 24.8186381,97.1857523 25.0088784,97.0297955 C24.1681021,96.2316639 23.5015459,95.5957961 23.0263743,95.1055644 C22.5286027,94.594978 21.9052439,93.9020598 21.1531511,93.0600653 Z" id="Combined-Shape" fill="#9DA6B9"></path>
                <polygon id="Fill-10" fill="#9DA6B9" points="45.4083885 86.463181 57.9624724 86.463181 57.9624724 37.04817 45.4083885 37.04817"></polygon>
                <path d="M34.6916749,18.4748277 L34.6916749,10.1092733 C32.9990713,10.2003594 31.4364073,10.604069 29.9161148,11.3017254 L30.8943335,8.20048786 L43.004415,8.20048786 L41.7013475,10.9531845 C40.659854,10.4204602 39.5098891,10.1451905 38.1206661,10.1092733 L38.1206661,18.4748277 C38.1206661,19.7962945 38.2938246,20.9692076 38.8147127,22.0901126 L33.9967809,22.0901126 C34.5173865,20.9692076 34.6916749,19.7962945 34.6916749,18.4748277" id="Fill-11" fill="#9DA6B9"></path>
                <path d="M58.6642329,18.4748277 L58.6642329,11.8154855 C58.6642329,10.4940186 58.4884355,9.31995615 57.9624724,8.20048786 L62.8367781,8.20048786 C62.3105292,9.31995615 62.1333025,10.4940186 62.1333025,11.8154855 L62.1333025,14.493187 L66.350726,9.68746127 C66.7683521,9.21019309 66.9878845,8.78780644 66.9878845,8.36541979 C66.9878845,8.31111293 66.96616,8.25479471 66.96616,8.20048786 L72.4127364,8.20048786 C71.1175523,9.0076199 70.107646,9.74148079 69.4476195,10.4578141 L65.8244771,14.4021009 L70.7430894,20.2359214 C71.2047364,20.7861734 71.8421808,21.3921689 72.6534216,22.0901126 L67.2082745,22.0901126 C67.2297132,21.923744 67.2525812,21.758812 67.2525812,21.6128444 C67.2525812,21.0614431 67.0090374,20.6203794 66.5708301,20.0899538 L62.1333025,14.732252 L62.1333025,18.4748277 C62.1333025,19.7962945 62.3105292,20.9692076 62.8362064,22.0901126 L57.9624724,22.0901126 C58.4884355,20.9692076 58.6642329,19.7962945 58.6642329,18.4748277" id="Fill-12" fill="#9DA6B9"></path>
                <path d="M73.8816673,18.4748277 L73.8816673,11.8154855 C73.8816673,10.4940186 73.7087955,9.31995615 73.187638,8.20048786 L82.4987032,8.20048786 L80.9581107,10.916118 C79.9807638,10.5302232 78.7873272,10.3290867 77.3114204,10.2923075 L77.3114204,14.1268312 L82.0218935,14.1268312 L80.263234,16.6398881 C79.5912374,16.2180761 78.7000439,16.0353292 77.6150759,16.0353292 C77.5068898,16.0350419 77.4196065,16.0353292 77.3114204,16.0353292 L77.3114204,20.0163953 C77.7667624,20.0350722 78.2235167,20.0534618 78.6576734,20.0534618 C80.6106724,20.0534618 82.2393956,19.832499 83.6048565,19.3187389 L82.3037988,22.0901126 L73.187638,22.0901126 C73.7087955,20.9692076 73.8816673,19.7962945 73.8816673,18.4748277" id="Fill-13" fill="#9DA6B9"></path>
                <path d="M41.3159988,26.4918012 C39.4661604,26.4918012 38.1541569,27.7379261 38.1541569,29.6971399 C38.1541569,31.6794301 39.5209787,32.9500559 41.564639,32.9500559 C42.7110689,32.9500559 43.5671855,32.5631703 44.3399558,31.7161814 L44.0370567,33.8095801 C43.0564802,34.1833606 42.020526,34.3770883 40.9026239,34.3770883 C39.6591433,34.3770883 38.5957799,34.0867816 37.7125338,33.4930632 C36.4284988,32.6352484 35.7924945,31.4748765 35.7924945,30.023913 C35.7924945,28.4997318 36.4978607,27.1687086 37.7679115,26.2504963 C38.8858135,25.4522242 40.2392105,25.0283024 41.7444766,25.0283024 C42.4898378,25.0283024 43.3048407,25.1496671 44.1609573,25.391257 L44.1609573,27.6775287 C43.2634473,26.8920768 42.3242641,26.4918012 41.3159988,26.4918012" id="Fill-14" fill="#9DA6B9"></path>
                <path d="M41.3159988,26.4918012 C39.4661604,26.4918012 38.1541569,27.7379261 38.1541569,29.6971399 C38.1541569,31.6794301 39.5209787,32.9500559 41.564639,32.9500559 C42.7110689,32.9500559 43.5671855,32.5631703 44.3399558,31.7161814 L44.0370567,33.8095801 C43.0564802,34.1833606 42.020526,34.3770883 40.9026239,34.3770883 C39.6591433,34.3770883 38.5957799,34.0867816 37.7125338,33.4930632 C36.4284988,32.6352484 35.7924945,31.4748765 35.7924945,30.023913 C35.7924945,28.4997318 36.4978607,27.1687086 37.7679115,26.2504963 C38.8858135,25.4522242 40.2392105,25.0283024 41.7444766,25.0283024 C42.4898378,25.0283024 43.3048407,25.1496671 44.1609573,25.391257 L44.1609573,27.6775287 C43.2634473,26.8920768 42.3242641,26.4918012 41.3159988,26.4918012 Z" id="Stroke-15"></path>
                <path d="M46.1368232,31.746941 L46.1368232,27.3921893 C46.1368232,26.5277387 46.0215647,25.7607824 45.6754967,25.0283024 L48.8807947,25.0283024 C48.5350192,25.7607824 48.4185906,26.5277387 48.4185906,27.3921893 L48.4185906,31.746941 C48.4185906,32.6096961 48.5350192,33.3780654 48.8807947,34.1099801 L45.6754967,34.1099801 C46.0215647,33.3780654 46.1368232,32.6099787 46.1368232,31.746941" id="Fill-16" fill="#9DA6B9"></path>
                <path d="M46.1368232,31.746941 L46.1368232,27.3921893 C46.1368232,26.5277387 46.0215647,25.7607824 45.6754967,25.0283024 L48.8807947,25.0283024 C48.5350192,25.7607824 48.4185906,26.5277387 48.4185906,27.3921893 L48.4185906,31.746941 C48.4185906,32.6096961 48.5350192,33.3780654 48.8807947,34.1099801 L45.6754967,34.1099801 C46.0215647,33.3780654 46.1368232,32.6099787 46.1368232,31.746941 Z" id="Stroke-17"></path>
                <path d="M52.8014819,31.746941 L52.8014819,26.2759487 C51.6954817,26.3367061 50.674735,26.5992346 49.6821192,27.0561868 L50.3213776,25.0283024 L58.2295806,25.0283024 L57.3790541,26.827852 C56.6990347,26.4794153 55.9472531,26.3005342 55.0401779,26.2759487 L55.0401779,31.746941 C55.0401779,32.6096961 55.1532753,33.3780654 55.4925673,34.1099801 L52.3473702,34.1099801 C52.6878104,33.3780654 52.8014819,32.6099787 52.8014819,31.746941" id="Fill-18" fill="#9DA6B9"></path>
                <path d="M52.8014819,31.746941 L52.8014819,26.2759487 C51.6954817,26.3367061 50.674735,26.5992346 49.6821192,27.0561868 L50.3213776,25.0283024 L58.2295806,25.0283024 L57.3790541,26.827852 C56.6990347,26.4794153 55.9472531,26.3005342 55.0401779,26.2759487 L55.0401779,31.746941 C55.0401779,32.6096961 55.1532753,33.3780654 55.4925673,34.1099801 L52.3473702,34.1099801 C52.6878104,33.3780654 52.8014819,32.6099787 52.8014819,31.746941 Z" id="Stroke-19"></path>
                <path d="M64.9901529,34.1099801 L61.8984159,34.1099801 C62.23188,33.3780654 62.343599,32.6099787 62.343599,31.746941 L62.343599,29.8628963 L60.0166853,26.5398901 C59.6403392,26.012855 59.2228038,25.5084272 58.7637969,25.0283024 L61.8422743,25.0283024 C61.8273221,25.1009287 61.8273221,25.1724246 61.8273221,25.2328995 C61.8273221,25.4606691 61.8834637,25.6644183 61.9805124,25.8091057 L63.5552981,28.1478419 L64.8654565,25.9764005 C64.9901529,25.7607824 65.0595541,25.5330128 65.0595541,25.3043954 C65.0595541,25.2091617 65.0451661,25.1249491 65.0324707,25.0283024 L67.8454746,25.0283024 C67.3153739,25.4962757 66.8701908,26.012855 66.494409,26.5754968 L64.5432772,29.4921348 L64.5432772,31.746941 C64.5432772,32.6096961 64.6555604,33.3780654 64.9901529,34.1099801" id="Fill-20" fill="#9DA6B9"></path>
                <path d="M64.9901529,34.1099801 L61.8984159,34.1099801 C62.23188,33.3780654 62.343599,32.6099787 62.343599,31.746941 L62.343599,29.8628963 L60.0166853,26.5398901 C59.6403392,26.012855 59.2228038,25.5084272 58.7637969,25.0283024 L61.8422743,25.0283024 C61.8273221,25.1009287 61.8273221,25.1724246 61.8273221,25.2328995 C61.8273221,25.4606691 61.8834637,25.6644183 61.9805124,25.8091057 L63.5552981,28.1478419 L64.8654565,25.9764005 C64.9901529,25.7607824 65.0595541,25.5330128 65.0595541,25.3043954 C65.0595541,25.2091617 65.0451661,25.1249491 65.0324707,25.0283024 L67.8454746,25.0283024 C67.3153739,25.4962757 66.8701908,26.012855 66.494409,26.5754968 L64.5432772,29.4921348 L64.5432772,31.746941 C64.5432772,32.6096961 64.6555604,33.3780654 64.9901529,34.1099801 Z" id="Stroke-21"></path>
                <path d="M56.8940397,15.0124661 C56.8940397,19.6066723 53.6656722,22.0901126 49.6824056,22.0901126 C45.6997118,22.0901126 42.4701987,19.7394412 42.4701987,15.0124661 C42.4701987,11.1022645 45.6997118,7.93337969 49.6824056,7.93337969 C53.6656722,7.93337969 56.8940397,11.1022645 56.8940397,15.0124661 Z M49.6709504,9.60263864 C47.433173,9.60263864 46.3976211,12.2096318 46.3976211,14.9444977 C46.3976211,17.6787876 47.433173,20.2857807 49.6709504,20.2857807 C51.9072958,20.2857807 52.9434205,17.6787876 52.9434205,14.9444977 C52.9434205,12.2096318 51.9072958,9.60263864 49.6709504,9.60263864 L49.6709504,9.60263864 Z" id="Fill-22" fill="#9DA6B9"></path>
                <path d="M46.0632688,91.5152304 C46.0632688,90.3180659 46.4281161,89.6957214 47.1445916,89.6957214 C47.9159998,89.6957214 48.2124015,90.2699756 48.2124015,91.5155133 C48.2124015,92.7265391 47.8613608,93.3169178 47.1445916,93.3169178 C46.4146033,93.3169178 46.0632688,92.7265391 46.0632688,91.5155133 L46.0632688,91.5152304 Z M48.5240786,93.620735 C49.5639815,93.301642 50.1056711,92.4886338 50.1056711,91.370111 C50.1056711,89.7605018 49.0910313,88.8671545 47.2391816,88.8671545 C45.3062548,88.8671545 44.1711743,89.8725238 44.1711743,91.370111 C44.1711743,92.5036266 44.7387146,93.3169178 45.7662796,93.6054593 L45.7662796,93.7166327 C44.4678698,94.0512843 43.8057395,95.040812 43.8057395,96.587621 C43.8057395,98.5016133 45.0083843,99.3318774 47.1445916,99.7304608 C49.2899054,100.13159 50.4834437,99.1420623 50.4834437,97.19667 C50.4834437,95.7924345 49.7798936,94.020167 48.5240786,93.7166327 L48.5240786,93.620735 Z M45.9968796,96.4922892 C45.9968796,94.9279414 46.3602581,94.1471819 47.1445916,94.1471819 C47.9159998,94.1471819 48.2940662,94.9279414 48.2940662,96.4922892 C48.2940662,98.0399468 47.8877991,98.8226865 47.1445916,98.8226865 C46.320307,98.8226865 45.9968796,98.0713469 45.9968796,96.4922892 L45.9968796,96.4922892 Z" id="Fill-23" fill="#9DA6B9"></path>
                <path d="M46.0632688,91.5152304 C46.0632688,90.3180659 46.4281161,89.6957214 47.1445916,89.6957214 C47.9159998,89.6957214 48.2124015,90.2699756 48.2124015,91.5155133 C48.2124015,92.7265391 47.8613608,93.3169178 47.1445916,93.3169178 C46.4146033,93.3169178 46.0632688,92.7265391 46.0632688,91.5155133 L46.0632688,91.5152304 Z M48.5240786,93.620735 C49.5639815,93.301642 50.1056711,92.4886338 50.1056711,91.370111 C50.1056711,89.7605018 49.0910313,88.8671545 47.2391816,88.8671545 C45.3062548,88.8671545 44.1711743,89.8725238 44.1711743,91.370111 C44.1711743,92.5036266 44.7387146,93.3169178 45.7662796,93.6054593 L45.7662796,93.7166327 C44.4678698,94.0512843 43.8057395,95.040812 43.8057395,96.587621 C43.8057395,98.5016133 45.0083843,99.3318774 47.1445916,99.7304608 C49.2899054,100.13159 50.4834437,99.1420623 50.4834437,97.19667 C50.4834437,95.7924345 49.7798936,94.020167 48.5240786,93.7166327 L48.5240786,93.620735 Z M45.9968796,96.4922892 C45.9968796,94.9279414 46.3602581,94.1471819 47.1445916,94.1471819 C47.9159998,94.1471819 48.2940662,94.9279414 48.2940662,96.4922892 C48.2940662,98.0399468 47.8877991,98.8226865 47.1445916,98.8226865 C46.320307,98.8226865 45.9968796,98.0713469 45.9968796,96.4922892 Z" id="Stroke-24"></path>
                <path d="M55.9800824,96.7132357 C55.9800824,98.3679422 55.6448515,99.1864909 54.9711722,99.1864909 C54.2723359,99.1864909 53.9216014,98.350901 53.9216014,96.6473428 C53.9216014,95.1406112 54.2588798,94.4032926 54.9448451,94.4032926 C55.6977981,94.4032926 55.9800824,95.1406112 55.9800824,96.7132357 Z M53.8946893,94.0758163 C53.8946893,94.0599111 53.8946893,94.0431539 53.8946893,94.0269647 C53.8946893,91.4063026 54.4551624,89.8833818 55.6784916,89.8833818 C56.2579788,89.8833818 56.7017354,90.1932487 57.105709,90.8328641 L57.1867378,90.7999177 C57.2142349,90.3085613 57.2818076,89.8012997 57.3742447,89.2437664 C56.8234248,88.9975202 55.6852197,88.8671545 55.1203587,88.8671545 C52.4551859,88.8671545 51.5518764,91.817281 51.5518764,95.8307823 C51.5518764,98.8939492 52.7459533,100.378811 54.9711722,100.037702 C56.9925028,99.728971 58.2295806,98.6298096 58.2295806,96.2874881 C58.2295806,94.3714822 57.2604534,93.2399424 55.7390438,93.2399424 C54.917348,93.2399424 54.2445462,93.5682707 53.8946893,94.0758163 L53.8946893,94.0758163 Z" id="Fill-25" fill="#9DA6B9"></path>
                <path d="M55.9800824,96.7132357 C55.9800824,98.3679422 55.6448515,99.1864909 54.9711722,99.1864909 C54.2723359,99.1864909 53.9216014,98.350901 53.9216014,96.6473428 C53.9216014,95.1406112 54.2588798,94.4032926 54.9448451,94.4032926 C55.6977981,94.4032926 55.9800824,95.1406112 55.9800824,96.7132357 Z M53.8946893,94.0758163 L53.8946893,94.0269647 C53.8946893,91.4063026 54.4551624,89.8833818 55.6784916,89.8833818 C56.2579788,89.8833818 56.7017354,90.1932487 57.105709,90.8328641 L57.1867378,90.7999177 C57.2142349,90.3085613 57.2818076,89.8012997 57.3742447,89.2437664 C56.8234248,88.9975202 55.6852197,88.8671545 55.1203587,88.8671545 C52.4551859,88.8671545 51.5518764,91.817281 51.5518764,95.8307823 C51.5518764,98.8939492 52.7459533,100.378811 54.9711722,100.037702 C56.9925028,99.728971 58.2295806,98.6298096 58.2295806,96.2874881 C58.2295806,94.3714822 57.2604534,93.2399424 55.7390438,93.2399424 C54.917348,93.2399424 54.2445462,93.5682707 53.8946893,94.0758163 Z" id="Stroke-26"></path>
                <path d="M59.1713241,97.183647 C59.5342542,97.8529581 60.4757048,97.9110968 60.4757048,97.9110968 C62.4388666,97.8320511 62.2103876,94.8085522 62.2103876,94.8085522 C61.9977264,93.2519815 60.7996763,93.4410039 59.8362566,93.5263503 C59.6754425,93.5400974 59.4419838,93.5598588 59.2949371,93.5853482 L59.3303806,92.4520731 C59.4305599,92.4549371 59.5427489,92.4589467 59.6543521,92.4486364 C60.6915882,92.3549844 61.3975297,92.0525485 61.5943731,91.0475795 C61.7138852,90.4384119 61.5896864,89.4841353 60.5296024,89.5116295 C59.3379966,89.5431332 59.1496479,90.404617 58.8104445,90.8554068 L58.6695491,90.780657 L58.5415423,89.4391709 C59.1587285,88.7163035 60.7211733,88.6154915 60.7211733,88.6154915 C62.3255059,88.4720064 63.5657367,89.3438005 63.6820267,90.5833291 C63.7678528,91.4900638 63.4289423,91.8600894 62.2944562,92.3810465 L62.302658,92.4686842 C63.6354521,92.3939344 64.1574387,92.8255355 64.4655924,93.7377117 C64.9647312,95.2095087 64.8071392,98.992534 58.2295806,99.2843731 C58.2295806,99.2843731 58.7588902,98.7052772 58.9472389,97.2609744 L59.1713241,97.183647" id="Fill-27" fill="#9DA6B9"></path>
                <path d="M59.1713241,97.183647 C59.5342542,97.8529581 60.4757048,97.9110968 60.4757048,97.9110968 C62.4388666,97.8320511 62.2103876,94.8085522 62.2103876,94.8085522 C61.9977264,93.2519815 60.7996763,93.4410039 59.8362566,93.5263503 C59.6754425,93.5400974 59.4419838,93.5598588 59.2949371,93.5853482 L59.3303806,92.4520731 C59.4305599,92.4549371 59.5427489,92.4589467 59.6543521,92.4486364 C60.6915882,92.3549844 61.3975297,92.0525485 61.5943731,91.0475795 C61.7138852,90.4384119 61.5896864,89.4841353 60.5296024,89.5116295 C59.3379966,89.5431332 59.1496479,90.404617 58.8104445,90.8554068 L58.6695491,90.780657 L58.5415423,89.4391709 C59.1587285,88.7163035 60.7211733,88.6154915 60.7211733,88.6154915 C62.3255059,88.4720064 63.5657367,89.3438005 63.6820267,90.5833291 C63.7678528,91.4900638 63.4289423,91.8600894 62.2944562,92.3810465 L62.302658,92.4686842 C63.6354521,92.3939344 64.1574387,92.8255355 64.4655924,93.7377117 C64.9647312,95.2095087 64.8071392,98.992534 58.2295806,99.2843731 C58.2295806,99.2843731 58.7588902,98.7052772 58.9472389,97.2609744 L59.1713241,97.183647 Z" id="Stroke-28"></path>
                <path d="M43.2715232,98.7501567 C42.1548599,98.3475212 40.4650974,97.4796687 40.4650974,97.4796687 C40.5599676,96.6155311 40.7613428,94.7678084 40.7613428,91.6933188 C40.7613428,91.3535504 40.7330011,91.116084 40.7058528,90.6317212 C40.1700453,90.8417546 40.389619,90.6631548 39.8544082,90.9646314 L39.2649007,90.1007795 C40.6921294,89.6429923 41.2876036,89.5875549 42.6882807,88.8671545 L42.9627477,89.0111775 C42.921876,91.7724743 42.9457427,93.3150056 42.9457427,94.2051473 C42.9457427,95.3436143 43.0984896,97.1730485 43.2061881,98.2969417 C43.2288614,98.5329793 43.2715232,98.7501567 43.2715232,98.7501567" id="Fill-29" fill="#9DA6B9"></path>
                <path d="M43.2715232,98.7501567 C42.1548599,98.3475212 40.4650974,97.4796687 40.4650974,97.4796687 C40.5599676,96.6155311 40.7613428,94.7678084 40.7613428,91.6933188 C40.7613428,91.3535504 40.7330011,91.116084 40.7058528,90.6317212 C40.1700453,90.8417546 40.389619,90.6631548 39.8544082,90.9646314 L39.2649007,90.1007795 C40.6921294,89.6429923 41.2876036,89.5875549 42.6882807,88.8671545 L42.9627477,89.0111775 C42.921876,91.7724743 42.9457427,93.3150056 42.9457427,94.2051473 C42.9457427,95.3436143 43.0984896,97.1730485 43.2061881,98.2969417 C43.2288614,98.5329793 43.2715232,98.7501567 43.2715232,98.7501567 Z" id="Stroke-30"></path>
                <path d="M33.1214128,93.1408852 C32.1491555,92.2682054 31.2079067,91.3181452 30.2951293,90.2835396 C25.7986155,85.1993559 23.7348591,79.9887842 23.7154083,79.9369106 L23.6970851,79.8913421 L23.6801714,79.8526518 C21.1166144,73.7192463 20.8344371,66.496209 20.8344371,63.6205214 C20.8344371,62.8306674 20.8547336,62.3689639 20.8567068,62.3483291 L20.8600896,62.2551859 C20.8600896,62.2551859 20.8600896,51.5319719 20.8600896,24.7611943 L33.0889948,24.7611943 L33.1214128,93.1408852" id="Fill-31" fill="#9DA6B9"></path>
                <path d="M69.98234,93.1408852 C70.9520825,92.2682054 71.8956081,91.3181452 72.8075607,90.2835396 C77.3024863,85.1993559 79.3682633,79.9887842 79.3885603,79.9369106 L79.4063201,79.8913421 L79.4223885,79.8526518 C81.9879776,73.7192463 82.2693157,66.496209 82.2693157,63.6205214 C82.2693157,62.8306674 82.2484549,62.3689639 82.2478911,62.3483291 L82.242535,62.2551859 C82.242535,62.2551859 82.242535,51.5319719 82.242535,24.7611943 L70.0150406,24.7611943 L69.98234,93.1408852" id="Fill-32" fill="#9DA6B9"></path>
                <path d="M28.578697,14.7287604 C28.1074689,14.3907934 26.9733315,13.8398959 25.6458338,13.0712478 C24.5911672,12.454855 23.7919823,11.9382645 23.8194053,11.1968353 C23.8468283,10.4006848 24.5601064,9.70348614 25.7846279,9.74573201 C27.0312556,9.78826141 28.3142608,10.6255236 29.2617538,11.7993351 L29.213064,8.37373346 C28.3601523,8.10920057 27.5044424,7.97168883 26.6036805,7.9405006 C22.9281574,7.81461357 20.6570843,9.36778738 20.5694986,11.8103928 C20.5143728,13.3839807 21.5108355,14.3967476 23.4284875,15.4764273 C25.1538986,16.4599907 26.6185113,16.8966259 26.6649625,18.1223233 L26.664123,18.1223233 C26.6311035,19.0185596 25.8106517,19.7883418 24.5321238,19.7446783 C23.2303702,19.7010147 21.9017533,18.7903185 20.9150845,17.4721905 L20.9570585,21.326205 C21.8449485,21.6222097 22.9762876,21.7832543 23.9184639,21.8161437 C27.7565663,21.9465672 30.0841643,20.2073982 30.183223,17.4571634 C30.1770668,16.3715295 29.6677823,15.5101673 28.578697,14.7287604" id="Fill-40" fill="#9DA6B9"></path>
            </g>
        </g>
    </g>
</svg>