<?xml version="1.0" encoding="UTF-8"?>
<svg width="129px" height="121px" viewBox="0 0 129 121" version="1.1" xmlns="http://www.w3.org/2000/svg" xmlns:xlink="http://www.w3.org/1999/xlink">
    <title>Group 5</title>
    <defs>
        <polygon id="path-1" points="0 0.00388986098 106.530988 0.00388986098 106.530988 35.8999724 0 35.8999724"></polygon>
    </defs>
    <g id="Page-1" stroke="none" stroke-width="1" fill="none" fill-rule="evenodd">
        <g id="iPhone-X" transform="translate(-1034.000000, -2892.000000)">
            <g id="Group-5" transform="translate(1034.000000, 2892.000000)">
                <path d="M107.784839,6.91405992 C108.60984,9.14056149 106.998594,11.2320153 107.485197,13.4017111 C108.032088,15.880802 109.674554,17.1294578 109.674554,20.0601369 C98.5964304,19.0211981 91.5223788,0.842627364 78.8326506,7.00659264 C76.3745137,8.18343734 74.5669757,10.6986124 74.2174537,13.4231472 C72.7913754,24.168018 89.0890027,31.0826059 96.6457103,34.5577632 C100.254327,36.6138474 103.858638,38.6656443 107.463666,40.7220858 C112.08604,43.7913854 116.595734,48.1447104 118.635091,53.2704514 C119.584972,55.6816612 119.770858,59.0650004 119.424924,61.8106141 C118.323966,70.2364505 111.902308,76.3918414 104.112346,79.5297366 C104.112346,79.28465 110.281373,72.8959624 111.170967,70.9888595 C112.771806,67.5283501 113.212118,61.5787463 111.217618,57.8981592 C108.739026,53.3276145 102.930287,50.6130832 98.5501385,48.4791144 C88.6964185,43.6670557 73.8704437,37.8482124 67.2184022,28.404516 C59.8238957,17.9261681 66.5577555,0.113083685 80.3728439,0.113083685 C80.3728439,-0.0112459919 105.223711,0.0669959599 107.784839,6.91405992" id="Fill-1" fill="#9DA6B9"></path>
                <path d="M9.61214953,71.4845256 C9.61214953,71.4845256 20.1018418,69.5188406 27.741832,62.2877354 C32.745172,57.5515519 47.0207142,39.9171548 55.5193141,38.962876 C66.3159576,37.750985 72.0911215,44.6177684 72.0911215,44.6177684 C72.0911215,44.6177684 66.582717,46.2079936 62.963325,48.9105859 C59.3435773,51.612819 43.8857573,71.8474102 34.3204754,73.8698633 C20.7854574,76.7309033 9.61214953,71.4845256 9.61214953,71.4845256" id="Fill-3" fill="#9DA6B9"></path>
                <path d="M26.2920561,81.0967701 C26.2920561,81.0967701 36.7816887,79.1310369 44.4219911,71.8993953 C49.4249468,67.1648923 63.7004078,49.5282667 72.1982479,48.5750425 C82.9955413,47.3631218 88.771028,54.2293548 88.771028,54.2293548 C88.771028,54.2293548 83.2622992,55.8189003 79.6429278,58.5219182 C76.0224894,61.2245767 60.5658244,81.4585857 51.0005969,83.4818069 C37.4660116,86.3432763 26.2920561,81.0967701 26.2920561,81.0967701" id="Fill-4" fill="#9DA6B9"></path>
                <g id="Group-8" transform="translate(0.000000, 58.043755)">
                    <mask id="mask-2" fill="white">
                        <use xlink:href="#path-1"></use>
                    </mask>
                    <g id="Clip-6"></g>
                    <path d="M43.7046082,32.6615768 C43.7046082,32.6615768 54.2522698,30.6963413 61.9347414,23.4665304 C66.9651866,18.7317892 81.3204642,1.10106541 89.8663198,0.147364017 C100.723712,-1.06460905 106.530988,5.80024491 106.530988,5.80024491 C106.530988,5.80024491 100.99124,7.39010644 97.3513647,10.09244 C93.7118475,12.7947735 78.1680757,33.0233009 68.5499646,35.0463691 C54.9404018,37.9067549 43.7046082,32.6615768 43.7046082,32.6615768" id="Fill-5" fill="#9DA6B9" mask="url(#mask-2)"></path>
                    <path d="M9.52869687,26.8563911 L7.71287246,26.4152817 C7.99363318,25.6171181 7.98791067,25.0075395 7.69642024,24.5883419 C7.55443042,24.3843109 7.38382805,24.2553546 7.18425546,24.2018324 C6.98504054,24.1483102 6.81694176,24.1695036 6.67995914,24.2654125 C6.54333418,24.3616807 6.44605149,24.4988987 6.38882637,24.6770667 C6.31371841,24.9173779 6.22931137,25.5427617 6.13453227,26.5532182 C6.05227117,27.4943473 5.99003886,28.0733931 5.94890831,28.2899964 C5.85019498,28.8284516 5.70140969,29.2656096 5.50326773,29.6007521 C5.30476811,29.9355355 5.03366413,30.2239807 4.68959813,30.4650104 C4.02077961,30.9337788 3.3068963,31.0893166 2.54830588,30.9312644 C1.78971546,30.7732122 1.15129777,30.3206081 0.632695172,29.5748891 C0.22746983,28.9922511 0.0168098774,28.3848278 0.000715313931,27.7526189 C-0.0153792495,27.1207693 0.174536599,26.4368343 0.570105203,25.7015323 L2.26682985,26.4580277 C1.81975864,27.3564108 1.77397855,28.0622576 2.13056254,28.5744904 C2.31582885,28.8413831 2.54973651,29.0116485 2.8315702,29.084568 C3.11340388,29.1578468 3.35553765,29.1226442 3.55904446,28.9803972 C3.74359546,28.8510818 3.88057808,28.6527981 3.96999232,28.3859054 C4.05940656,28.1186535 4.13165326,27.6179154 4.18744775,26.8833318 C4.29224124,25.4845698 4.45139859,24.5175776 4.66456214,23.9816369 C4.87736804,23.4460555 5.17958817,23.0405079 5.57158021,22.7653534 C6.13703587,22.3691452 6.77223464,22.2455771 7.47753418,22.3939307 C8.18283371,22.5426434 8.75615783,22.9345411 9.19750652,23.5689052 C9.4811285,23.9773264 9.65709572,24.4317265 9.72576586,24.9335423 C9.79372068,25.4353581 9.72826946,26.0761879 9.52869687,26.8563911" id="Fill-7" fill="#9DA6B9" mask="url(#mask-2)"></path>
                </g>
                <polyline id="Fill-9" fill="#9DA6B9" points="11.526159 85.4666525 12.7946923 86.8311623 9.22458137 92.2881198 14.9787021 89.1790279 16.0495235 90.3311445 12.7279646 96.0549458 18.238123 92.6840585 19.5070093 94.0485683 10.8655896 99.3194563 9.62883147 97.989564 12.9856961 92.1842671 7.15990485 95.3348279 5.93691589 94.0200809 11.526159 85.4666525"></polyline>
                <path d="M22.8480882,99.4473357 L19.7733696,101.376207 L21.8738603,102.942063 L22.8480882,99.4473357 Z M23.6359051,96.7750637 L25.161215,97.9123214 L22.3129539,108.083475 L20.7497239,106.918211 L21.3451051,104.829103 L18.1218956,102.426611 L16.2641646,103.574149 L14.7009346,102.408531 L23.6359051,96.7750637 L23.6359051,96.7750637 Z" id="Fill-10" fill="#9DA6B9"></path>
                <polyline id="Fill-11" fill="#9DA6B9" points="29.5815232 100.733008 31.2116995 101.571202 31.9544726 109.304056 35.0494818 103.544761 36.7523364 104.420279 32.0493179 113.17226 30.4133274 112.330511 29.6669203 104.619341 26.5817227 110.360151 24.8785047 109.484633 29.5815232 100.733008"></polyline>
                <path d="M44.1028037,109.045448 L42.3193663,109.727598 C42.0850997,108.920678 41.7215825,108.431193 41.2302834,108.258789 C40.9912433,108.174898 40.7720315,108.168144 40.573015,108.238528 C40.3743657,108.309622 40.2462167,108.423373 40.1874664,108.578714 C40.1294505,108.734766 40.128349,108.901482 40.1852633,109.078507 C40.2638417,109.315962 40.5605305,109.870142 41.0756968,110.741759 C41.5603864,111.550456 41.8493643,112.05416 41.9418959,112.253579 C42.1761626,112.745196 42.3087178,113.183137 42.3391945,113.568113 C42.3700384,113.952733 42.3120225,114.341264 42.1655141,114.732994 C41.879841,115.495125 41.3723856,116.029399 40.6427809,116.33546 C39.912809,116.641521 39.1105008,116.641165 38.2362236,116.334749 C37.5532518,116.095161 37.0189917,115.724404 36.6334432,115.222478 C36.2482618,114.720197 36.0048154,114.057953 35.9042056,113.236458 L37.7731981,112.877787 C37.9270503,113.860666 38.3041535,114.457148 38.9045077,114.667942 C39.21772,114.778139 39.5140416,114.782049 39.7934725,114.679673 C40.0729034,114.578008 40.2557636,114.410936 40.3424202,114.178813 C40.4213659,113.96873 40.4195299,113.729853 40.3376468,113.462894 C40.2553964,113.19629 40.0214969,112.749107 39.6359484,112.123121 C38.9008358,110.930869 38.4649824,110.057831 38.328388,109.502229 C38.1914265,108.946627 38.2068484,108.446123 38.3742867,107.999651 C38.6155299,107.355536 39.075985,106.891646 39.7552848,106.607979 C40.4345847,106.325024 41.1461971,106.314004 41.8901222,106.575276 C42.3685696,106.742348 42.7842277,107.010018 43.1367292,107.376509 C43.4888636,107.743711 43.8112556,108.299313 44.1028037,109.045448" id="Fill-12" fill="#9DA6B9"></path>
                <polyline id="Fill-13" fill="#9DA6B9" points="46.3256111 108.366185 51.453271 109.595161 51.0395317 111.367262 47.6869245 110.563999 47.2849865 112.284424 50.6372466 113.087687 50.2307964 114.827447 46.8785362 114.023832 46.2936782 116.527132 49.6459384 117.330747 49.2308107 119.109176 44.1028037 117.879849 46.3256111 108.366185"></polyline>
                <path d="M57.671455,113.065911 L56.0592142,116.338619 L58.6334801,116.593119 L57.671455,113.065911 Z M56.9718957,110.345157 L58.8417031,110.530574 L61.6308411,120.805438 L59.7148398,120.615726 L59.150713,118.500618 L55.2000757,118.109382 L54.2174032,120.071647 L52.3014019,119.882293 L56.9718957,110.345157 L56.9718957,110.345157 Z" id="Fill-14" fill="#9DA6B9"></path>
                <path d="M78.337321,111.249655 L77.1663194,112.674315 C76.1307274,111.848176 75.0441748,111.508716 73.9070256,111.654863 C72.9467825,111.777783 72.1805536,112.203359 71.609431,112.930876 C71.0372163,113.658392 70.8144457,114.493107 70.9392992,115.435377 C71.0270242,116.092143 71.2505228,116.656004 71.609431,117.128389 C71.9679751,117.60006 72.4331725,117.947024 73.0046591,118.169281 C73.5750538,118.391181 74.1858528,118.460502 74.8370564,118.376888 C75.3917988,118.30578 75.8857525,118.138908 76.3181896,117.876273 C76.7502626,117.614353 77.2059959,117.180202 77.6850254,116.573104 L79.1588785,117.733343 C78.512043,118.539114 77.8768556,119.121199 77.2536804,119.480669 C76.6305052,119.840139 75.8959447,120.073831 75.0492708,120.182458 C73.4891488,120.382561 72.1467012,120.060967 71.0233842,119.216962 C69.8997031,118.372957 69.2368514,117.191993 69.0344651,115.672999 C68.9037876,114.690708 69.0140809,113.788459 69.3649809,112.966608 C69.715881,112.1444 70.2819076,111.447613 71.0648806,110.874819 C71.8467617,110.302025 72.7240119,109.952917 73.6980872,109.827853 C74.5261968,109.721727 75.3459343,109.791048 76.1591197,110.036889 C76.9712131,110.282015 77.6970376,110.686508 78.337321,111.249655" id="Fill-15" fill="#9DA6B9"></path>
                <polyline id="Fill-16" fill="#9DA6B9" points="80.2897196 108.82872 82.1079581 108.366185 84.5303738 118.08122 82.7121354 118.543755 80.2897196 108.82872"></polyline>
                <polyline id="Fill-17" fill="#9DA6B9" points="83.3995327 108.1394 88.6629196 106.387213 89.2737548 108.126718 87.5393159 108.704088 90.1845794 116.23525 88.3455604 116.847494 85.7006587 109.315979 84.0107297 109.878905 83.3995327 108.1394"></polyline>
                <polyline id="Fill-18" fill="#9DA6B9" points="89.9018692 105.467472 91.7658284 104.593266 95.0214085 107.013924 95.1472929 103.008633 96.9862204 102.146559 96.784878 108.474027 98.6658879 112.354074 96.919469 113.17226 95.0391847 109.292926 89.9018692 105.467472"></polyline>
                <path d="M107.513255,98.5735521 L108.537469,102.060712 L110.594341,100.454204 L107.513255,98.5735521 Z M105.168224,97.0938175 L106.6625,95.9269329 L115.628505,101.414415 L114.096934,102.610064 L112.258556,101.472653 L109.101825,103.938167 L109.703124,106.039696 L108.172608,107.235344 L105.168224,97.0938175 L105.168224,97.0938175 Z" id="Fill-19" fill="#9DA6B9"></path>
                <g id="Group-23" transform="translate(110.822430, 80.943288)" fill="#9DA6B9">
                    <polyline id="Fill-20" points="0.0392801727 11.3297395 3.5228796 7.81977838 4.83612707 9.12217848 2.67437483 11.3000092 3.95788163 12.5744701 6.1199922 10.3962811 7.41389032 11.6789804 5.25213807 13.8571694 8.4358226 17.0153822 7.11433374 18.3471544 0.0392801727 11.3297395"></polyline>
                    <path d="M11.9208553,0.0143326419 L12.1315482,1.83719131 C10.8265421,1.98405161 9.83435053,2.50809214 9.15318179,3.4089547 C8.57915111,4.16976268 8.35484199,5.00650818 8.48097108,5.91883301 C8.60710017,6.83151603 9.04998526,7.57477241 9.81105965,8.14860216 C10.3413751,8.54870693 10.8985647,8.78833995 11.4837034,8.86821762 C12.068842,8.9477371 12.6378562,8.86463567 13.1911042,8.6203461 C13.743994,8.37498194 14.2144698,7.99529434 14.6043233,7.47949232 C14.9361288,7.03998601 15.1572131,6.57576419 15.2682927,6.08790145 C15.3790139,5.60075509 15.3833138,4.97498695 15.2790423,4.21238799 L17.1258301,3.99353032 C17.2559008,5.0133139 17.2344015,5.86832739 17.060974,6.55857079 C16.8879048,7.248456 16.5485746,7.92866991 16.0422666,8.59885435 C15.1088397,9.83534641 13.9532536,10.5513799 12.5733584,10.7469548 C11.1948964,10.942888 9.8927569,10.5782446 8.6665815,9.65266653 C7.87361652,9.05447946 7.30388569,8.34310251 6.95810566,7.51961025 C6.61268395,6.6957598 6.50447093,5.80779229 6.63418323,4.85642412 C6.76425385,3.90505595 7.12078352,3.04323674 7.70269727,2.27204107 C8.19789727,1.61618448 8.81385154,1.08892019 9.55056008,0.691322795 C10.2861937,0.293367208 11.0762921,0.0677038234 11.9208553,0.0143326419" id="Fill-22"></path>
                </g>
            </g>
        </g>
    </g>
</svg>