<?xml version="1.0" encoding="UTF-8"?>
<svg width="150px" height="60px" viewBox="0 0 150 60" version="1.1" xmlns="http://www.w3.org/2000/svg" xmlns:xlink="http://www.w3.org/1999/xlink">
    <title>Artboard</title>
    <defs>
        <polygon id="path-1" points="0 0.00192885669 52.6884747 0.00192885669 52.6884747 17.8016392 0 17.8016392"></polygon>
    </defs>
    <g id="Artboard" stroke="none" stroke-width="1" fill="none" fill-rule="evenodd">
        <g id="Group-5" transform="translate(43.000000, 0.000000)">
            <path d="M53.3086083,3.42845946 C53.7166402,4.53250983 52.9197445,5.56959437 53.1604106,6.64547657 C53.4308937,7.87477783 54.2432304,8.493946 54.2432304,9.94717533 C48.7641728,9.43199907 45.2654632,0.417831751 38.9893324,3.47434346 C37.7735783,4.05790281 36.8795997,5.30509706 36.7067319,6.65610606 C36.001417,11.9841412 44.0619554,15.4128624 47.7993787,17.1360809 C49.5841412,18.1556268 51.3667739,19.1730468 53.1497616,20.1927698 C55.4359118,21.7147365 57.6663325,23.8734101 58.6749646,26.4150999 C59.1447604,27.6107411 59.2366963,29.2884299 59.0656033,30.6498913 C58.5210874,34.827992 55.3450408,37.8802519 51.492254,39.436233 C51.492254,39.3147025 54.543353,36.1467582 54.9833318,35.2010873 C55.7750805,33.4851323 55.9928514,30.5349155 55.0064045,28.709831 C53.7805339,26.4434452 50.9076271,25.0973966 48.7412776,24.0392303 C43.8677897,21.6530855 36.5351065,18.7677086 33.2451162,14.084884 C29.5879149,8.88900895 32.9183711,0.0560745545 39.7510866,0.0560745545 C39.7510866,-0.00557652493 52.0419168,0.0332211372 53.3086083,3.42845946" id="Fill-1" fill="#9DA6B9"></path>
            <path d="M4.75401106,35.4468722 C4.75401106,35.4468722 9.94204035,34.4721523 13.7206538,30.8864803 C16.1952235,28.5379596 23.2556719,19.7936305 27.4589396,19.3204344 C32.7987819,18.7194967 35.655083,22.1245133 35.655083,22.1245133 C35.655083,22.1245133 32.9307167,22.9130547 31.1406249,24.2531831 C29.3503573,25.5931334 21.7051737,35.626815 16.9743426,36.6296843 C10.2801453,38.0483818 4.75401106,35.4468722 4.75401106,35.4468722" id="Fill-3" fill="#9DA6B9"></path>
            <path d="M13.0036185,40.2132744 C13.0036185,40.2132744 18.1916182,39.2385307 21.9703861,35.6525927 C24.4447658,33.3049053 31.505174,24.5594711 35.7080659,24.0867979 C41.0482296,23.4858455 43.9046904,26.8905892 43.9046904,26.8905892 C43.9046904,26.8905892 41.1801637,27.6787935 39.3900822,29.019133 C37.5994729,30.3592942 29.9548606,40.3926871 25.2240564,41.3959373 C18.5300731,42.8148478 13.0036185,40.2132744 13.0036185,40.2132744" id="Fill-4" fill="#9DA6B9"></path>
            <g id="Group-8" transform="translate(0.000000, 28.782027)">
                <mask id="mask-2" fill="white">
                    <use xlink:href="#path-1"></use>
                </mask>
                <g id="Clip-6"></g>
                <path d="M21.6155804,16.1958232 C21.6155804,16.1958232 26.8322803,15.2213263 30.6319044,11.6362961 C33.1198799,9.2884905 40.2197641,0.545982847 44.4464037,0.0730730664 C49.8162914,-0.527905313 52.6884747,2.8761545 52.6884747,2.8761545 C52.6884747,2.8761545 49.9486061,3.66451559 48.1483838,5.00451569 C46.3483384,6.3445158 38.6606446,16.3751905 33.903685,17.3783649 C27.1726191,18.796738 21.6155804,16.1958232 21.6155804,16.1958232" id="Fill-5" fill="#9DA6B9" mask="url(#mask-2)"></path>
                <path d="M4.71273675,13.3172187 L3.81465986,13.0984868 C3.95351949,12.7027032 3.95068923,12.4004328 3.80652286,12.1925662 C3.73629703,12.0913938 3.65191991,12.0274486 3.55321459,12.0009086 C3.45468616,11.9743687 3.37154727,11.9848778 3.30379792,12.032436 C3.23622546,12.0801722 3.18811104,12.1482142 3.15980844,12.236562 C3.12266128,12.3557246 3.08091494,12.6658323 3.03403876,13.1668851 C2.99335377,13.6335606 2.9625747,13.9206908 2.9422322,14.0280974 C2.89341022,14.2951 2.81982346,14.5118725 2.7218257,14.6780589 C2.62365106,14.8440672 2.48956749,14.9870979 2.3193981,15.1066167 C1.98861146,15.3390639 1.63553652,15.41619 1.26035017,15.337817 C0.885163827,15.259444 0.569412942,15.0350123 0.312920626,14.6652342 C0.112502837,14.3763229 0.00831388886,14.0751212 0.000353782505,13.7616292 C-0.00760632385,13.4483154 0.0863229312,13.109174 0.281964656,12.7445615 L1.12113676,13.1196831 C0.900022692,13.5651624 0.877380612,13.9151691 1.05374119,14.1691688 C1.14537086,14.3015123 1.26105774,14.3859414 1.40044805,14.4220998 C1.53983835,14.4584364 1.65959373,14.4409806 1.76024485,14.3704449 C1.85152074,14.3063215 1.91927009,14.2079991 1.9634929,14.0756556 C2.00771572,13.943134 2.04344775,13.6948341 2.07104278,13.3305778 C2.12287192,12.6369767 2.20158853,12.1574765 2.30701571,11.8917208 C2.41226601,11.6261432 2.56173912,11.4250452 2.75561193,11.288605 C3.035277,11.0921381 3.34943586,11.0308647 3.69826541,11.1044284 C4.04709496,11.1781703 4.33065164,11.3724997 4.54893545,11.6870604 C4.68921021,11.8895834 4.77624071,12.1149057 4.81020383,12.36374 C4.84381317,12.6125742 4.81144207,12.9303411 4.71273675,13.3172187" id="Fill-7" fill="#9DA6B9" mask="url(#mask-2)"></path>
            </g>
            <polyline id="Fill-9" fill="#9DA6B9" points="5.70064868 42.3801583 6.32804438 43.0567747 4.56232622 45.762704 7.40821967 44.2210056 7.93783035 44.792303 6.29504194 47.6305517 9.02027566 45.9590373 9.64784598 46.6356537 5.37394193 49.2493172 4.76226167 48.5898665 6.4225117 45.7112068 3.54117117 47.2734684 2.93630095 46.6215277 5.70064868 42.3801583"></polyline>
            <path d="M11.3002886,49.3127284 L9.77958339,50.2691936 L10.8184515,51.0456513 L11.3002886,49.3127284 Z M11.6899299,47.9876349 L12.4443231,48.5515643 L11.03562,53.5951115 L10.2624722,53.0172948 L10.5569379,51.9813733 L8.96279151,50.7900548 L8.04398829,51.3590821 L7.27084045,50.7810896 L11.6899299,47.9876349 L11.6899299,47.9876349 Z" id="Fill-10" fill="#9DA6B9"></path>
            <polyline id="Fill-11" fill="#9DA6B9" points="14.6305348 49.9502517 15.4367932 50.3658851 15.8041566 54.2003582 17.3348972 51.3445094 18.1771011 51.7786506 15.8510655 56.118476 15.0419315 55.70108 14.6727708 51.8773591 13.1468828 54.7240421 12.3044992 54.2899009 14.6305348 49.9502517"></polyline>
            <path d="M21.8125213,54.072123 L20.9304625,54.4103792 C20.8145981,54.0102533 20.6348085,53.7675338 20.39182,53.6820444 C20.2735947,53.6404454 20.1651761,53.6370963 20.0667459,53.6719972 C19.9684972,53.7072505 19.9051168,53.7636559 19.8760599,53.8406846 C19.8473662,53.9180658 19.8468214,54.0007349 19.8749703,54.0885159 C19.9138339,54.2062621 20.0605713,54.4810623 20.315364,54.9132687 C20.5550836,55.3142759 20.6980072,55.5640461 20.7437719,55.6629319 C20.8596363,55.906709 20.9251959,56.1238698 20.9402692,56.3147669 C20.9555241,56.5054877 20.9268304,56.6981474 20.8543697,56.8923935 C20.7130805,57.2703098 20.4621014,57.5352389 20.1012509,57.6870047 C19.7402188,57.8387706 19.3434104,57.8385943 18.9110073,57.6866522 C18.5732207,57.5678483 18.3089844,57.3840019 18.1182984,57.1351131 C17.9277941,56.8860479 17.8073895,56.5576627 17.7576295,56.1503099 L18.6820025,55.9724565 C18.7580953,56.4598345 18.9446043,56.7556104 19.2415296,56.8601367 C19.3964393,56.9147794 19.5429951,56.9167184 19.681197,56.8659535 C19.8193989,56.8155412 19.9098385,56.7326957 19.9526975,56.6175934 C19.9917427,56.5134197 19.9908347,56.3949683 19.9503366,56.2625919 C19.9096569,56.1303917 19.7939741,55.9086479 19.6032881,55.5982419 C19.2397136,55.0070427 19.0241476,54.5741312 18.9565903,54.298626 C18.8888514,54.0231208 18.8964788,53.774937 18.979291,53.5535458 C19.0986059,53.2341502 19.3263395,53.0041218 19.66231,52.8634609 C19.9982805,52.7231524 20.3502323,52.7176881 20.7181655,52.8472443 C20.9547977,52.9300897 21.1603753,53.0628187 21.3347168,53.2445499 C21.5088766,53.4266336 21.6683264,53.7021388 21.8125213,54.072123" id="Fill-12" fill="#9DA6B9"></path>
            <polyline id="Fill-13" fill="#9DA6B9" points="22.9118853 53.7352985 25.4479416 54.3447079 25.2433129 55.2234358 23.5851685 54.8251233 23.3863766 55.6782267 25.0443493 56.0765392 24.8433257 56.9392301 23.185353 56.5407432 22.8960918 57.7820488 24.5540646 58.1805357 24.3487492 59.0624013 21.8125213 58.4528175 22.9118853 53.7352985"></polyline>
            <path d="M28.5233531,56.065741 L27.7259653,57.6885714 L28.9991549,57.8147699 L28.5233531,56.065741 Z M28.1773626,54.7166069 L29.1021385,54.8085489 L30.4816003,59.9035228 L29.5339776,59.8094508 L29.2549697,58.760637 L27.3010495,58.5666357 L26.8150359,59.5396594 L25.8674131,59.445765 L28.1773626,54.7166069 L28.1773626,54.7166069 Z" id="Fill-14" fill="#9DA6B9"></path>
            <path d="M38.7443505,55.165118 L38.1651924,55.8715612 C37.6530056,55.4619057 37.1156145,55.2935783 36.5531993,55.3660477 C36.0782788,55.4269999 35.6993146,55.6380292 35.4168467,55.9987812 C35.1338388,56.3595333 35.0236601,56.7734413 35.0854106,57.2406826 C35.1287979,57.5663517 35.2393367,57.8459522 35.4168467,58.080193 C35.5941768,58.3140794 35.8242558,58.4861276 36.1069036,58.5963377 C36.3890114,58.7063706 36.6911026,58.7407449 37.0131772,58.6992832 C37.2875437,58.664023 37.5318451,58.5812769 37.7457213,58.4510447 C37.9594175,58.3211668 38.1848157,58.105885 38.4217358,57.8048449 L39.1506793,58.38017 C38.8307651,58.7797259 38.5166119,59.068363 38.2083997,59.2466128 C37.9001875,59.4248626 37.5368859,59.5407426 37.118135,59.5946074 C36.3465242,59.6938319 35.6825718,59.5343639 35.1269976,59.115849 C34.5712435,58.6973341 34.2434079,58.1117322 34.143311,57.3585117 C34.07868,56.8714256 34.1332293,56.4240292 34.3067787,56.0164999 C34.4803281,55.6087934 34.7602755,55.2632794 35.1475211,54.9792492 C35.5342266,54.695219 35.9681001,54.5221076 36.4498617,54.4600923 C36.8594311,54.4074678 37.2648598,54.441842 37.667048,54.5637465 C38.068696,54.6852965 38.4276768,54.8858718 38.7443505,55.165118" id="Fill-15" fill="#9DA6B9"></path>
            <polyline id="Fill-16" fill="#9DA6B9" points="39.7099747 53.9646546 40.6092456 53.7352985 41.8073326 58.5526713 40.9080617 58.7820274 39.7099747 53.9646546"></polyline>
            <polyline id="Fill-17" fill="#9DA6B9" points="41.2480371 53.622843 43.8512217 52.75399 44.1533308 53.6165546 43.2955058 53.9028533 44.6038097 57.637314 43.6942611 57.9409059 42.3861362 54.2062706 41.5503251 54.4854075 41.2480371 53.622843"></polyline>
            <polyline id="Fill-18" fill="#9DA6B9" points="44.4639858 52.2979198 45.3858694 51.8644292 46.9960258 53.0647559 47.0582861 51.0786611 47.9677894 50.6511863 47.8682087 53.7887736 48.7985253 55.7127642 47.9347753 56.118476 47.0048176 54.1948393 44.4639858 52.2979198"></polyline>
            <path d="M53.1742877,48.8794473 L53.680847,50.6086174 L54.6981419,49.8120018 L53.1742877,48.8794473 Z M52.014474,48.1456946 L52.753518,47.5670742 L57.1879566,50.2881398 L56.4304668,50.8810233 L55.5212355,50.317018 L53.9599679,51.539587 L54.2573605,52.5816673 L53.5003928,53.1745508 L52.014474,48.1456946 L52.014474,48.1456946 Z" id="Fill-19" fill="#9DA6B9"></path>
            <g id="Group-23" transform="translate(54.810951, 40.137168)" fill="#9DA6B9">
                <polyline id="Fill-20" points="0.0194273274 5.61805264 1.74235831 3.87757605 2.39186891 4.52339429 1.3227018 5.60331037 1.95750316 6.23527441 3.02684748 5.15518072 3.66678821 5.79122997 2.59762111 6.87132367 4.17221911 8.4373796 3.51863245 9.09776249 0.0194273274 5.61805264"></polyline>
                <path d="M5.89585897,0.00710709517 L6.00006421,0.911003958 C5.35462967,0.983827246 4.86390802,1.24368205 4.52701316,1.69039076 C4.24310703,2.06765092 4.13216743,2.48256604 4.1945488,2.93495852 C4.25693017,3.38752861 4.47597386,3.75608549 4.85238873,4.04062917 C5.11467405,4.23902823 5.39025085,4.35785452 5.6796508,4.39746328 C5.96905075,4.43689443 6.2504758,4.39568711 6.52410319,4.27455178 C6.79755335,4.15288361 7.03024296,3.96460876 7.22305811,3.70883917 C7.38716366,3.49090216 7.49650828,3.26070952 7.55144642,3.01879411 C7.60620734,2.77723393 7.60833398,2.46693568 7.55676301,2.08878743 L8.47015391,1.98026297 C8.5344847,2.48594078 8.52385151,2.90991441 8.43807712,3.25218386 C8.35247996,3.5942757 8.1846528,3.93157186 7.93424121,4.26389472 C7.4725836,4.87703128 6.90104972,5.23208921 6.21857624,5.32906852 C5.53681163,5.42622544 4.89279485,5.24541055 4.28634866,4.78644621 C3.89416123,4.48982453 3.61238173,4.13707562 3.44136461,3.72873236 C3.27052472,3.32021147 3.21700434,2.87989701 3.28115791,2.40814419 C3.3454887,1.93639138 3.52182241,1.50904301 3.80962738,1.12663194 C4.05454515,0.80141379 4.359186,0.539960423 4.72354993,0.342804692 C5.0873822,0.145471343 5.47815188,0.0335721438 5.89585897,0.00710709517" id="Fill-22"></path>
            </g>
        </g>
    </g>
</svg>