<?xml version="1.0" encoding="UTF-8"?>
<svg width="150px" height="60px" viewBox="0 0 150 60" version="1.1" xmlns="http://www.w3.org/2000/svg" xmlns:xlink="http://www.w3.org/1999/xlink">
    <title>Artboard</title>
    <g id="Artboard" stroke="none" stroke-width="1" fill="none" fill-rule="evenodd">
        <g id="Group-14" transform="translate(48.000000, 1.000000)" fill="#9DA6B9">
            <path d="M53.9825078,1.94533479 L53.9825078,1.94163643 C45.7817899,0.695819098 36.6360066,0 26.9910953,0 C17.3462896,0 8.20034778,0.695819098 0,1.94163643 L0,1.9860167 L0.000687358689,24.4485576 C0.00592185948,43.4717868 11.044638,54.1703885 26.5521903,59.8581417 L26.9929987,60 L26.9943734,60 L27.4344945,59.8581417 C42.9424169,54.1703885 53.9798641,43.4717868 53.9856802,24.4485576 L53.9856802,1.94533479 L53.9825078,1.94533479 Z M52.1181795,3.80772076 L52.1181795,3.8040224 C44.4842682,2.64432391 35.9698503,1.99658342 26.9912539,1.99658342 C18.0124988,1.99658342 9.49823961,2.64432391 1.86434941,3.8040224 L1.86434941,3.84523264 L1.86508964,25.1328062 C1.86979541,42.8421683 12.1462097,52.8020499 26.5825398,58.0969955 L26.9929987,58.2290268 L26.9942677,58.2290268 L27.4040392,58.0969955 C41.8408453,52.8020499 52.1159059,42.8421683 52.1213519,25.1328062 L52.1213519,3.80772076 L52.1181795,3.80772076 Z" id="Fill-1"></path>
            <path d="M37.0739945,22.0839643 L37.0730946,22.0830659 C37.0730946,22.0830659 36.7019682,21.7194081 36.5087559,21.5098596 L34.4685398,19.1137662 C34.4685398,19.1137662 34.2758568,18.8574987 34.5752036,18.4934181 C35.3623981,17.5370525 36.9402281,16.1418769 36.9402281,16.1418769 C37.1683774,15.9712257 37.3236354,16.0127655 37.5759759,16.2550278 C38.8251861,17.4506963 42.0037139,20.5177676 42.1951264,20.7165877 C42.4355566,20.9637651 42.5459258,21.1303997 42.4686938,21.5542003 C42.3916736,21.981489 42.1635243,22.69184 42.5573068,23.3812625 L44.7052454,26.7562882 C44.9741016,27.1681448 45.0527099,27.532384 44.8498635,27.730147 C44.7410823,27.8363218 44.4685735,27.9593027 43.9135513,27.5749279 C43.6482417,27.3913285 40.7276657,25.4283373 39.7967529,24.6639741 C39.2515766,24.2161798 38.8355084,23.8088683 38.8355084,23.8088683 L38.8347144,23.8080755 L14.6928632,48.5324736 C14.2948988,48.9306951 13.6572452,48.509167 13.0033936,47.8569506 C12.3502831,47.2045228 11.9282862,46.5680555 12.32678,46.1698869 L37.0739945,22.0839643 Z M40.4389588,22.2043028 C40.2466464,22.3961467 39.9350188,22.3961467 39.7427064,22.2043028 L38.6975601,21.1603654 C38.5052477,20.9688386 38.5052477,20.6575547 38.697719,20.4658694 C38.8900843,20.2735498 39.2015002,20.2735498 39.3938655,20.4655523 L40.4389588,21.5091725 C40.6314301,21.700805 40.6314301,22.0121418 40.4389588,22.2043028 Z" id="Fill-2"></path>
            <path d="M15.4123028,23.8103678 L39.4463068,48.532429 C39.8428054,48.9307652 40.4776987,48.5091156 41.1286712,47.8567112 C41.7793275,47.2040954 42.1996023,46.5674447 41.8027347,46.1691614 L17.1659959,22.0857597 L17.1669976,22.0848081 C17.1669976,22.0848081 17.5363987,21.7210455 17.7288225,21.5114366 L19.7608712,19.1146526 C19.7608712,19.1146526 19.9527679,18.8583113 19.6542737,18.4941257 C18.8705023,17.5374845 17.2989002,16.1419068 17.2989002,16.1419068 C17.0721036,15.9712064 16.9175846,16.0127581 16.6659574,16.2550903 C15.4218449,17.4511034 12.2561297,20.5190587 12.0656565,20.717936 C11.8262074,20.9652375 11.7164994,21.1318674 11.7930472,21.5557901 C11.8699113,21.983202 12.0969187,22.6938105 11.704954,23.3833788 L9.56578053,26.7593773 C9.29786325,27.1713526 9.21973389,27.5356968 9.42191075,27.7335168 C9.53008986,27.8397222 9.80185562,27.9627386 10.3542439,27.5782529 C10.6186817,27.3946006 13.5273397,25.4310437 14.4542429,24.6664602 C14.9971945,24.2185368 15.4115647,23.8111079 15.4115647,23.8111079 L15.4123028,23.8103678 Z M15.5489501,20.466934 C15.7403196,20.6589918 15.7403196,20.9702068 15.5489501,21.1622646 L14.5077525,22.2060271 C14.3165412,22.3980849 14.006027,22.3980849 13.8148157,22.2058685 C13.6229718,22.0137578 13.6229718,21.7027543 13.8144994,21.5106436 L14.8555389,20.466934 C15.0466975,20.2747176 15.3572643,20.2747176 15.5489501,20.466934 Z" id="Fill-3"></path>
            <path d="M39.1818686,21.4646525 C39.1616285,21.4845784 39.1288613,21.4848889 39.1082588,21.4646525 C39.0880187,21.4440538 39.0880187,21.4111373 39.1082588,21.3909009 L39.5768871,20.9223579 C39.5974896,20.9019145 39.6302568,20.9017592 39.6506522,20.9219957 C39.6709441,20.9423873 39.6709441,20.9752004 39.6506522,20.9957473 L39.1818686,21.4646525 Z" id="Fill-4"></path>
            <path d="M39.35825,21.6017986 C39.3307093,21.6296232 39.2853862,21.6302737 39.2571226,21.6017986 C39.2290758,21.573974 39.2295818,21.5285152 39.2571226,21.5004738 C39.2851694,21.4729383 39.3304201,21.4726492 39.3584669,21.5004738 C39.3865137,21.528732 39.3865137,21.573974 39.35825,21.6017986" id="Fill-5"></path>
            <path d="M39.0719021,21.3157892 C39.0442828,21.3431702 38.9986131,21.3436772 38.9707039,21.3157892 C38.9428671,21.2876839 38.9430846,21.242049 38.9704864,21.2142334 C38.9986131,21.1863454 39.0442828,21.1863454 39.0719021,21.2142334 C39.1002463,21.242049 39.1000288,21.2876839 39.0719021,21.3157892" id="Fill-6"></path>
            <path d="M39.5058034,20.6700082 L39.3300021,20.4937296 C39.3075943,20.471709 39.271118,20.4718792 39.2489372,20.4941269 C39.2265295,20.5166583 39.2265295,20.5524135 39.2489372,20.5748314 L39.276961,20.6030382 C39.2871154,20.6137647 39.2874558,20.6297694 39.2780956,20.6408365 L38.8231905,21.0959484 C38.8011799,21.1183096 38.8011799,21.1546323 38.8231905,21.1766529 C38.8455415,21.1988438 38.8818477,21.1988438 38.9042554,21.1768232 L39.3604652,20.7200654 C39.3715272,20.7123468 39.3865603,20.7130846 39.3965445,20.7225058 L39.4249654,20.7508829 C39.4473164,20.7733008 39.4836226,20.7729035 39.5058034,20.7508829 C39.5282111,20.728692 39.5283813,20.6927666 39.5058034,20.6700082" id="Fill-7"></path>
            <path d="M40.3716716,21.573093 C40.3547263,21.5495225 40.3216252,21.544156 40.2977335,21.5614129 L40.0213998,21.7614465 C40.0100328,21.7703381 39.9936665,21.7694963 39.9835099,21.7588159 C39.9743005,21.7501348 39.9725639,21.7363502 39.9781421,21.725512 L40.0344508,21.6121842 C40.0438707,21.5935067 40.0407658,21.5715146 40.0287147,21.5559938 C40.0283463,21.555836 40.0280306,21.5553099 40.0280306,21.5553099 C40.027136,21.5542576 40.0266097,21.5532054 40.0255572,21.5525214 C40.0252415,21.5518374 40.0247152,21.5513113 40.024189,21.5507852 C40.0235048,21.5504169 40.0231365,21.5500486 40.0226102,21.5493646 C40.0217156,21.5488385 40.0210315,21.5477862 40.0198211,21.5471023 C40.0196632,21.5469444 40.0192948,21.5469444 40.019137,21.5465762 C40.0034021,21.5345278 39.9817732,21.5314237 39.9627756,21.5408414 L39.8497372,21.597137 C39.8387386,21.6029244 39.8251613,21.6008199 39.8162151,21.5917705 C39.8059532,21.5813005 39.8050586,21.5650958 39.8132681,21.5540998 L40.0137166,21.2774621 C40.0309776,21.2539442 40.0255572,21.2206403 40.0021917,21.2033308 C39.9783,21.1862842 39.9451463,21.1914929 39.9284115,21.2152212 L39.5325666,21.7609204 C39.5175684,21.7817024 39.5200418,21.8101133 39.5371449,21.8280542 C39.5378291,21.8287908 39.5387237,21.8296326 39.5395657,21.8306848 C39.5397236,21.8308427 39.5399341,21.8308427 39.5404603,21.831211 C39.5559847,21.8456795 39.5793502,21.849678 39.5995581,21.8394186 L39.7937442,21.7429794 C39.8043745,21.7382443 39.8174781,21.740191 39.8261612,21.7490825 C39.8354232,21.7582897 39.837002,21.7722847 39.8308975,21.7834386 L39.7354884,21.9756329 C39.7253318,21.9955205 39.7295418,22.0188806 39.7438558,22.0347696 C39.7440137,22.0352431 39.7445399,22.0354536 39.7445399,22.0357692 C39.745224,22.0365058 39.7461187,22.0368215 39.7468028,22.0377159 C39.7649584,22.0553412 39.7935864,22.0576035 39.8144785,22.0423984 L40.3601467,21.6470664 C40.3837227,21.6299673 40.3889326,21.5966635 40.3716716,21.573093" id="Fill-8"></path>
            <path d="M14.7342263,21.5341156 C14.7544623,21.5543571 14.7544623,21.5871265 14.7342263,21.6078857 C14.7139904,21.6279718 14.6808675,21.6279718 14.6604763,21.6075751 L14.1919432,21.1390705 C14.1715002,21.1184666 14.1715002,21.0853866 14.1919432,21.0653004 C14.2121792,21.045059 14.2450951,21.045059 14.2655381,21.0653004 L14.7342263,21.5341156 Z" id="Fill-9"></path>
            <path d="M15.0148404,21.3575823 C15.0424227,21.3854175 15.0431467,21.4308936 15.0148404,21.4589456 C14.9867514,21.4867807 14.9409256,21.4864915 14.9137777,21.4589456 C14.885761,21.4308936 14.8854715,21.3856344 14.9133433,21.3573655 C14.9416496,21.3293134 14.9869685,21.3297472 15.0148404,21.3575823" id="Fill-10"></path>
            <path d="M14.5853041,21.7871691 C14.6129181,21.8145241 14.6134254,21.86055 14.5853041,21.8884116 C14.5574002,21.9164902 14.5115219,21.9159837 14.483908,21.8886287 C14.4560766,21.86055 14.4560766,21.8150307 14.4836905,21.7871691 C14.5118118,21.7588733 14.5574002,21.7593075 14.5853041,21.7871691" id="Fill-11"></path>
            <path d="M13.9397645,21.3534484 L13.7637504,21.5292445 C13.7414012,21.5518218 13.7414012,21.5879567 13.7639773,21.6101368 C13.7863265,21.632317 13.8222327,21.6324872 13.8446386,21.6101368 L13.8728304,21.5821138 C13.883381,21.5719598 13.8997175,21.5717896 13.9110055,21.5809793 L14.3654772,22.0358709 C14.3878264,22.058051 14.4239595,22.058051 14.4461386,22.0358709 C14.4684878,22.0134638 14.4687147,21.9773856 14.4463087,21.9552055 L13.9899652,21.4986121 C13.9820805,21.4878908 13.9826478,21.472688 13.9922341,21.4627041 L14.0205961,21.4345109 C14.043002,21.4117635 14.0428318,21.3756286 14.0205961,21.3534484 C13.998417,21.3308712 13.9623406,21.3308712 13.9397645,21.3534484" id="Fill-12"></path>
            <path d="M14.8428135,20.4873776 C14.8190832,20.5044792 14.8136637,20.5379455 14.8309747,20.5613615 L15.0313401,20.837617 C15.0397062,20.8491408 15.0390222,20.8655582 15.0287619,20.8758191 C15.0196592,20.8847119 15.0058735,20.8864484 14.9952449,20.8808707 L14.8818553,20.824725 C14.8628606,20.8151482 14.841235,20.8184632 14.825713,20.8304606 C14.8253973,20.8306711 14.8250289,20.8309868 14.8246606,20.8311973 C14.8239766,20.8317235 14.8229243,20.8324076 14.8222402,20.83346 C14.8215562,20.8339862 14.82103,20.8343019 14.8206617,20.8348281 C14.8201356,20.8353543 14.8194515,20.8358805 14.8190832,20.8365645 C14.8182413,20.8373012 14.8175047,20.8383536 14.8166628,20.8391956 C14.8166628,20.8391956 14.8162945,20.8398796 14.8161367,20.840248 C14.8040874,20.8557709 14.8011408,20.8772399 14.8105593,20.8960779 L14.8667016,21.0092637 C14.8721211,21.0204191 14.8703848,21.0338373 14.861282,21.0429405 C14.8510217,21.0534119 14.8347631,21.0539381 14.8234504,21.0460978 L14.5470008,20.8452995 C14.5232705,20.8280401 14.4901218,20.83346 14.4732318,20.8568233 C14.4557629,20.8807128 14.4613403,20.9138635 14.4849127,20.9307545 L15.0302878,21.326405 C15.0514398,21.3417174 15.0796952,21.339139 15.0980059,21.3220375 C15.098532,21.321143 15.0995844,21.3203011 15.0999001,21.3195644 C15.1002684,21.3194065 15.1005841,21.3190382 15.1011103,21.318512 C15.1150538,21.3031995 15.1192631,21.2796257 15.1091607,21.2595775 L15.0127137,21.0654619 C15.0079782,21.0546222 15.0097146,21.0417303 15.0186068,21.0331532 C15.0278674,21.0237342 15.0421792,21.0219978 15.0529657,21.0281017 L15.2451756,21.123344 C15.2652753,21.1336576 15.2886372,21.129448 15.3044749,21.1153458 L15.3052116,21.1146091 C15.3060534,21.1137672 15.3065796,21.1128727 15.3074741,21.1120307 C15.3248903,21.0940347 15.3273633,21.0656198 15.312157,21.044677 L14.9164246,20.4990593 C14.8996924,20.4755381 14.8663859,20.4702761 14.8428135,20.4873776" id="Fill-13"></path>
            <path d="M17.2684538,14.454531 C16.3285443,14.5449069 15.4341236,13.9048832 15.4078963,12.9020706 C15.3793998,11.9786515 15.3506922,11.0553932 15.3221957,10.1321348 C15.7488516,10.0982238 15.962417,10.0820451 16.3894423,10.0512948 C16.4153003,10.9747674 16.4413693,11.8981865 16.46728,12.8216591 C16.480209,13.2812526 16.7832217,13.5046474 17.236791,13.4742722 C17.2997471,13.4699864 17.3312516,13.4678971 17.3942078,13.4637721 C17.8478298,13.4339325 18.1383885,13.171323 18.1275176,12.7115153 C18.105512,11.7879355 18.0836119,10.8644629 18.0617646,9.9410438 C18.4891065,9.91527571 18.702883,9.90322203 19.1304361,9.88066826 C19.1496448,10.8040873 19.1690646,11.7277207 19.1883262,12.651354 C19.2038937,13.6591488 18.3834584,14.398602 17.4255539,14.4440309 C17.3627561,14.4483167 17.3312516,14.4502989 17.2684538,14.454531" id="Fill-14"></path>
            <path d="M19.9045346,9.87159097 C20.4025692,9.84801854 20.6517719,9.8373899 21.1501243,9.81802684 C21.7099828,10.712832 22.265974,11.610005 22.8180978,12.5094931 C22.8230246,12.5094931 22.8254616,12.5093352 22.8302295,12.5091774 C22.8212764,11.5939568 22.8121114,10.6786309 22.8031584,9.76330513 C23.232747,9.75141368 23.4476737,9.74620459 23.8774212,9.73747017 C23.8897118,11.1727575 23.9017905,12.6078869 23.9140811,14.0431742 C23.4236222,14.0531188 23.1784458,14.0592224 22.6881458,14.0733764 C22.1360219,13.1764665 21.5798719,12.2818718 21.0198545,11.3897501 C21.0149276,11.3899079 21.0124907,11.3900658 21.0077228,11.3902763 C21.0210729,12.3034974 21.034582,13.2167712 21.0480911,14.1300449 C20.6236412,14.1471454 20.4113633,14.1563534 19.9870724,14.176611 C19.9595245,12.7416394 19.9320825,11.3065626 19.9045346,9.87159097" id="Fill-15"></path>
            <path d="M24.6300716,9.75050245 C25.0818672,9.74375079 25.3078207,9.74113386 25.7597833,9.73747017 C25.76513,11.1652117 25.7703096,12.5929008 25.7756563,14.02059 C25.3290404,14.0240443 25.1056488,14.0266612 24.6590329,14.0334129 C24.6494534,12.6057237 24.6396511,11.1781916 24.6300716,9.75050245" id="Fill-16"></path>
            <path d="M27.8827525,10.6376023 C27.3268108,10.6346697 27.0489731,10.6344602 26.4930314,10.6365549 C26.4924989,10.2770533 26.4921793,10.097224 26.4916468,9.73747017 C27.7808734,9.73667507 29.0690881,9.74814351 30.3579952,9.77207537 C30.3547999,10.131577 30.3532022,10.3114063 30.349847,10.6711174 C29.7941183,10.6589681 29.5162806,10.6542551 28.9603389,10.6471331 C28.954534,11.7760152 28.9485161,12.9046879 28.9426579,14.0334129 C28.5156495,14.0280191 28.3020388,14.0260815 27.8749771,14.0238297 C27.8774802,12.895157 27.8800897,11.7662749 27.8827525,10.6376023" id="Fill-17"></path>
            <path d="M31.1217141,9.73747017 C32.1013245,9.76656957 33.0803998,9.80185922 34.0596892,9.84376236 C34.0527332,10.2069759 34.0493623,10.388662 34.0424599,10.7518755 C33.3033645,10.7178556 32.933576,10.7031472 32.1939455,10.6782275 C32.1895044,10.9930302 32.1873641,11.1505373 32.182923,11.46534 C32.785254,11.4857096 33.0864462,11.4972964 33.688456,11.5237504 C33.6818746,11.8869639 33.6786642,12.06865 33.6721363,12.4319164 C33.0715711,12.4055682 32.7712351,12.3938227 32.1703488,12.3736647 C32.1656937,12.7005833 32.1636069,12.8640161 32.1589518,13.1909347 C32.9280648,13.2169126 33.3124072,13.2325204 34.0811456,13.2684979 C34.0742432,13.6317114 34.0706582,13.8133975 34.0637557,14.176611 C33.0672906,14.1332793 32.0709859,14.0966141 31.0739857,14.0668269 C31.0899843,12.6237609 31.105769,11.1805362 31.1217141,9.73747017" id="Fill-18"></path>
            <path d="M36.4787145,13.3982796 C37.2153079,13.4442393 37.6777632,13.0410859 37.7013427,12.2112168 C37.7249222,11.387331 37.2654409,10.9292695 36.5424429,10.884157 C36.3021339,10.8692254 36.1818998,10.8620243 35.9415908,10.8479928 C35.9217288,11.686069 35.9018137,12.5241981 35.8819517,13.3622743 C36.1206675,13.3761469 36.2399988,13.383348 36.4787145,13.3982796 M34.8876303,9.88066826 C35.5763212,9.91561457 35.9205074,9.93509979 36.6084548,9.97809435 C37.8578489,10.0246365 38.8401682,11.0433216 38.805808,12.2933936 C38.7721913,13.5199034 37.7192929,14.426972 36.4980986,14.3095842 C35.8180109,14.2669073 35.477914,14.2474221 34.797136,14.2126876 C34.827407,12.7686635 34.8575186,11.3246924 34.8876303,9.88066826" id="Fill-19"></path>
            <path d="M6.30071599,4.9005633 C6.86118839,4.83037284 7.14161068,4.79659698 7.70266796,4.73115625 C7.95432491,5.95711446 8.20587551,7.18307266 8.45753245,8.40940029 C8.46354074,8.40871422 8.46673099,8.40839757 8.4726861,8.40765873 C8.76071181,7.12132617 9.04868435,5.83520471 9.33702908,4.54908325 C9.82035078,4.49789171 10.0621711,4.47308756 10.5456524,4.42506251 C10.8266064,5.65313171 11.1073477,6.88067316 11.3879295,8.10884791 C11.3940973,8.10816183 11.397128,8.10800351 11.4032958,8.10731744 C11.6754235,6.82789838 11.9479234,5.54810989 12.2205827,4.26884915 C12.7736644,4.22029635 13.0503648,4.1965477 13.6038186,4.15274463 C13.1421906,6.00038978 12.6811474,7.84803493 12.2205827,9.69578563 C11.5716343,9.75299349 11.247293,9.78323344 10.5988762,9.84693261 C10.3783773,8.80916928 10.1580379,7.77140594 9.93753902,6.73343151 C9.93137122,6.73395926 9.92839366,6.73448701 9.92222585,6.73501476 C9.70172694,7.81811163 9.48138754,8.9009974 9.26126083,9.98409427 C8.6069953,10.0540209 8.28004864,10.0905938 7.62652751,10.1670644 C7.1847853,8.41151129 6.74277723,6.65638033 6.30071599,4.9005633" id="Fill-20"></path>
            <path d="M41.3135187,4.15274463 C41.9156237,4.20443608 42.2166231,4.23214697 42.8183559,4.28970034 C43.2160196,5.46581413 43.6130985,6.64192792 44.0098583,7.8186279 C44.0160261,7.8191608 44.0190036,7.81948054 44.0251714,7.82001344 C44.4217717,6.72559346 44.818691,5.63154652 45.2159825,4.53696667 C45.8108564,4.60304647 46.108187,4.63768507 46.7026886,4.70909388 C47.0303265,6.57584812 47.3576453,8.44308197 47.6849642,10.3102625 C47.1334245,10.2402926 46.857628,10.2065599 46.3057693,10.1415459 C46.1441304,8.92232036 45.9824914,7.70309483 45.8208525,6.48365615 C45.8146847,6.48312324 45.8117071,6.48259034 45.8055393,6.48205744 C45.4144156,7.63893348 45.0236641,8.79618256 44.6330721,9.95343163 C44.1498036,9.90168689 43.9081427,9.87674709 43.424502,9.8285195 C43.0259875,8.58968319 42.6271541,7.35100676 42.2277358,6.11222374 C42.2217806,6.11169084 42.2185904,6.11169084 42.2125821,6.11115794 C42.0708822,7.29872911 41.9293418,8.48635358 41.7878013,9.67413791 C41.2255743,9.62399187 40.9444608,9.60011788 40.3818616,9.55492783 C40.692219,7.75414681 41.0027891,5.95341907 41.3135187,4.15274463" id="Fill-21"></path>
            <path d="M14.0334129,4.11109049 C15.2602879,4.01884567 16.487481,3.93673178 17.7159467,3.86634845 C17.6894346,4.32810577 17.6760724,4.55898443 17.6495073,5.02020855 C16.8887685,5.06446473 16.1282417,5.11192016 15.3678741,5.16310804 L15.3678741,6.16020526 C16.1123875,6.10795097 16.4848828,6.08448986 17.2297674,6.04130009 L17.2297674,7.19142774 C16.4848828,7.23461751 16.1123875,7.2582919 15.3678741,7.31027959 L15.3678741,8.34550112 C16.1637149,8.28999426 16.95998,8.24051265 17.7564042,8.19721623 C17.7564042,8.65732061 17.7564042,8.8872395 17.7565632,9.34734388 C16.5145764,9.41842038 15.273809,9.50058759 14.0334129,9.59427208 L14.0334129,4.11109049" id="Fill-22"></path>
            <path d="M24.0413625,4.739305 C23.3602946,4.75089853 23.019813,4.7588032 22.3389021,4.77777443 L22.3389021,3.6405548 C23.9141335,3.60050443 25.4888413,3.58047925 27.0644391,3.57995227 L27.0644391,4.71664492 C26.3833712,4.71506399 26.0426802,4.71664492 25.3616123,4.72244169 L25.3616123,9.00451101 C24.833481,9.00904302 24.5694938,9.01236299 24.0413625,9.02147971 L24.0413625,4.739305" id="Fill-23"></path>
            <path d="M29.2124105,3.57995227 C29.7494965,3.58683757 30.0179597,3.59107469 30.5550457,3.60219711 L30.5550457,5.78060234 C31.3309372,5.79808043 32.1065092,5.81979562 32.8822409,5.84468866 L32.8822409,3.66628343 C33.4191672,3.68482079 33.6876304,3.69541357 34.2243437,3.71818805 L34.2243437,9.1646778 C33.6876304,9.14169147 33.4191672,9.13115166 32.8822409,9.11250836 L32.8822409,6.97970505 C32.1065092,6.95481201 31.3309372,6.93309682 30.5550457,6.91561873 L30.5550457,9.04826315 C30.0179597,9.03735259 29.7494965,9.03300955 29.2124105,9.02649499 L29.2124105,3.57995227" id="Fill-24"></path>
            <path d="M37.3682386,5.17359188 C37.1714277,5.83121373 36.974669,6.48936892 36.7780145,7.14699077 C37.2533628,7.17525838 37.4907242,7.19072556 37.965864,7.22267329 C37.7716592,6.54003727 37.5776629,5.85734793 37.3832496,5.17465858 C37.3772035,5.17412523 37.3742847,5.17412523 37.3682386,5.17359188 M38.2732246,8.31758966 C37.5524361,8.26740133 37.1918594,8.2445739 36.4704975,8.20286585 C36.3414446,8.65562756 36.2769703,8.88214175 36.1479174,9.33506346 C35.6076257,9.3050358 35.3375841,9.29122201 34.797136,9.26594117 C35.3393041,7.4657747 35.8819934,5.6658749 36.4252039,3.86634845 C37.1335875,3.90688313 37.4878054,3.92928387 38.1958241,3.97835217 C38.7822434,5.84988101 39.3677766,7.72194321 39.9522673,9.59427208 C39.4127053,9.55080397 39.1430286,9.53026995 38.6032581,9.49154866 C38.4712343,9.02177306 38.4052484,8.78699192 38.2732246,8.31758966" id="Fill-25"></path>
            <path d="M20.2997185,3.58230362 C19.3124683,3.61694917 18.1935041,4.22429618 18.1861575,5.33242888 C18.1748381,7.02376169 20.7192577,6.569695 20.8763155,7.4940488 C20.9198521,7.74984845 20.6312381,7.96454588 20.2659093,7.96402095 C19.5854659,7.96333854 19.0487774,7.83089804 18.4927919,7.54606962 C18.4657656,8.01226225 18.4434189,8.25740577 18.4253312,8.68060643 C18.9990889,9.06464711 19.592091,9.147324 20.2329413,9.16401685 C21.1846472,9.18853121 22.3292706,8.5297408 22.3388402,7.41872097 C22.3532998,5.74030151 19.8308588,6.1203527 19.6480366,5.2473898 C19.6011349,5.02376852 19.8746057,4.80329683 20.2829979,4.7801998 C20.9068122,4.74450438 21.3554284,4.89883456 21.6970435,5.0395165 C21.7242801,4.50251045 21.7324301,4.4258703 21.762769,3.90303743 C21.4622718,3.73138448 20.9890479,3.55763179 20.2997185,3.58230362" id="Fill-26"></path>
            <polygon id="Fill-27" points="19.2187388 48.5441527 19.8775131 48.8299924 18.9484849 50.9429083 20.0477327 51.4200201 19.8009814 51.9809069 18.0429594 51.2181158"></polygon>
            <path d="M21.7547342,51.8695181 C22.1688396,51.9843908 22.5992822,51.7171858 22.7288248,51.2403979 C22.8531667,50.7832418 22.6140961,50.347044 22.2001483,50.2322244 C21.7860955,50.1173517 21.3599604,50.3688513 21.2354608,50.8260073 C21.1059183,51.3027952 21.3407864,51.7546454 21.7547342,51.8695181 M22.3701401,49.6069244 C23.2058103,49.8387391 23.6470745,50.6335625 23.4292266,51.4347529 C23.2059679,52.255416 22.4204652,52.7265796 21.584795,52.4946058 C20.7491247,52.2627912 20.3120106,51.4523154 20.5352692,50.6318115 C20.7531171,49.8306741 21.5344698,49.3751098 22.3701401,49.6069244" id="Fill-28"></path>
            <path d="M24.0635685,50.1193317 L24.7751545,50.1924208 L25.4344771,51.6293232 C25.5277366,51.8315594 25.6255982,52.1490618 25.6255982,52.1490618 L25.6336387,52.1499694 C25.6336387,52.1499694 25.632951,51.8342289 25.6513596,51.6515863 L25.7881542,50.2964753 L26.4916468,50.3688703 L26.1990142,53.2696897 L25.4914485,53.1969744 L24.8277353,51.7638092 C24.7344759,51.5615196 24.6366143,51.2440172 24.6366143,51.2440172 L24.6285737,51.2431096 C24.6285737,51.2431096 24.6290498,51.5588502 24.6106413,51.7414928 L24.4744285,53.0925462 L23.7708831,53.0201511 L24.0635685,50.1193317 Z" id="Fill-29"></path>
            <path d="M28.176716,52.5966311 C28.6617931,52.5697714 28.942832,52.2565889 28.9133458,51.6917796 C28.8839121,51.1311856 28.5601945,50.8596167 28.0869959,50.8859359 L27.7984409,50.9018787 L27.8880033,52.612574 L28.176716,52.5966311 Z M27.0644391,50.3223695 L28.0827911,50.265894 C28.984775,50.2159577 29.590425,50.7240214 29.6390431,51.6516252 C29.6874509,52.5790669 29.139144,53.1634401 28.2370024,53.2134304 L27.2188082,53.2696897 L27.0644391,50.3223695 Z" id="Fill-30"></path>
            <path d="M31.6156174,52.1671533 C32.0351128,52.0738292 32.2929484,51.6343506 32.187733,51.1508391 C32.0868796,50.687246 31.673796,50.4134881 31.2543006,50.5068122 C30.8348053,50.5999239 30.5734484,51.0237334 30.6743543,51.4873265 C30.7795698,51.9706787 31.196122,52.2603181 31.6156174,52.1671533 M31.1163433,49.8727711 C31.9631647,49.6845293 32.7206424,50.1808948 32.8974905,50.9930857 C33.0784905,51.8252481 32.6004487,52.6127934 31.7535747,52.8011945 C30.9067533,52.9893831 30.1457544,52.4771892 29.9647544,51.6450799 C29.7879588,50.8326765 30.2694693,50.0609597 31.1163433,49.8727711" id="Fill-31"></path>
            <path d="M32.9355609,49.4542332 L33.5888217,49.1874991 L34.8167145,50.136385 C34.9901775,50.2697257 35.2198636,50.5015033 35.2198636,50.5015033 L35.2271585,50.498498 C35.2271585,50.498498 35.0830836,50.2230644 35.0160745,50.0549254 L34.5187688,48.8079343 L35.1644221,48.5441527 L36.2291169,51.2140772 L35.5796599,51.4791769 L34.3495265,50.5355635 C34.1760635,50.402381 33.9463774,50.1704451 33.9463774,50.1704451 L33.9389262,50.1734505 C33.9389262,50.1734505 34.0831574,50.4488841 34.1501665,50.6170231 L34.6460653,51.8603762 L34.0002557,52.124105 L32.9355609,49.4542332 Z" id="Fill-32"></path>
        </g>
    </g>
</svg>