<?xml version="1.0" encoding="UTF-8"?>
<svg width="200px" height="184px" viewBox="0 0 200 184" version="1.1" xmlns="http://www.w3.org/2000/svg" xmlns:xlink="http://www.w3.org/1999/xlink">
    <title>Shape</title>
    <g id="Page-1" stroke="none" stroke-width="1" fill="none" fill-rule="evenodd">
        <g id="iPhone-X" transform="translate(-1051.000000, -178.000000)" fill="#E4E6EB" fill-rule="nonzero">
            <path d="M1222.49498,220.230569 L1222.49498,178 L1079.50446,178 L1079.50446,220.230569 L1051,238.662241 L1079.50446,257.794424 L1079.50446,321.023526 L1103.33621,321.023526 L1143.99038,361.62069 L1143.99038,320.790023 L1158.24289,320.790023 L1158.24289,361.387186 L1198.89706,320.790023 L1222.72881,320.790023 L1222.72881,257.560921 L1251,238.662241 L1222.49498,220.230569 Z M1205.38763,250.738763 L1205.38763,303.523056 L1191.57485,303.523056 L1172.64409,325.413793 L1172.64409,303.523056 L1127.63177,303.523056 L1127.63177,325.413793 L1106.35974,303.756241 L1094.88824,303.756241 L1094.88824,250.738763 L1076.86207,238.827305 L1094.88824,227.382777 L1094.88824,193.517241 L1205.38763,193.517241 L1205.38763,227.382777 L1223.41379,238.827305 L1205.38763,250.738763 Z" id="Shape"></path>
        </g>
    </g>
</svg>