<?xml version="1.0" encoding="utf-8"?>
<!-- Generator: Adobe Illustrator 22.1.0, SVG Export Plug-In . SVG Version: 6.00 Build 0)  -->
<svg version="1.1" id="Layer_1" xmlns="http://www.w3.org/2000/svg" xmlns:xlink="http://www.w3.org/1999/xlink" x="0px" y="0px"
	 viewBox="0 0 390.8 78.7" style="enable-background:new 0 0 390.8 78.7;" xml:space="preserve">
<style type="text/css">
	.st0{fill:#FFFFFF;}
</style>
<title>ant-logo</title>
<path class="st0" d="M128.8,61.5v-5.5c-4.2,4-9.7,6.3-15.5,6.2c-6.2,0.1-12-2.5-16.2-7c-4.4-4.4-6.8-10.4-6.7-16.6
	c-0.1-6.3,2.4-12.3,6.9-16.6c9.1-9.2,24-9.3,33.2-0.2c0.1,0.1,0.1,0.1,0.2,0.2c4.5,4.3,7.1,10.4,7,16.6v22.8H128.8z M128.8,38.8
	c0-3.9-1.5-7.7-4.4-10.4c-5.8-5.7-15.1-5.7-20.9,0c-2.7,2.7-4.3,6.5-4.3,10.3c0.2,8.2,7,14.6,15.1,14.4
	C122.2,52.9,128.5,46.6,128.8,38.8z"/>
<path class="st0" d="M173.7,61.5V35.1c-0.2-6.1-5.3-10.9-11.4-10.7c-5.9,0.2-10.6,4.9-10.7,10.7v26.5h-8.9V35.1
	c0-5.3,2.2-10.3,6-13.9c7.2-7.7,19.3-8,27-0.8c0.3,0.3,0.6,0.5,0.8,0.8c3.9,3.6,6,8.6,6.1,13.9v26.5H173.7z"/>
<path class="st0" d="M200.2,24.8v36.8h-8.9V24.8H184v-8.9h7.4V1.2h8.9v14.7h7.4v8.9H200.2z"/>
<path class="st0" d="M247.6,55.2c-4.3,4.6-10.4,7.2-16.7,7c-6.3,0.1-12.3-2.3-16.8-6.8c-4.5-4.3-7-10.3-6.9-16.6
	c-0.1-6.3,2.4-12.4,6.9-16.8c4.4-4.5,10.4-7.1,16.7-7c3.5,0.1,7,0.9,10.2,2.4l-3.6,8.1c-2.1-1-4.3-1.5-6.6-1.6
	c-3.9-0.1-7.7,1.5-10.4,4.4c-2.8,2.8-4.3,6.5-4.3,10.5c-0.1,3.9,1.5,7.7,4.3,10.4c2.8,2.8,6.6,4.4,10.5,4.3
	c3.9,0.1,7.7-1.5,10.4-4.5c2.8-2.9,4.3-6.8,4.2-10.8h8.9C254.6,44.5,252.1,50.7,247.6,55.2z"/>
<path class="st0" d="M259.6,61.5V1.2h8.8v60.4H259.6z"/>
<path class="st0" d="M312,61.5v-5.5c-4.2,4-9.7,6.2-15.5,6.2c-6.2,0.1-12-2.5-16.2-7c-4.4-4.4-6.8-10.4-6.7-16.6
	c-0.1-6.3,2.4-12.3,6.9-16.6c9.1-9.2,24-9.3,33.2-0.2c0.1,0.1,0.1,0.1,0.2,0.2c4.5,4.4,7,10.4,7,16.6v22.8H312z M312,38.8
	c0-8.2-6.6-14.8-14.7-14.8c-8.2,0-14.8,6.6-14.8,14.7c0,3.9,1.6,7.7,4.3,10.4c5.8,5.8,15.1,5.7,20.9-0.1
	C310.4,46.4,312,42.7,312,38.8z"/>
<path class="st0" d="M338.3,27.2c-2.3,2-3.5,4.9-3.5,7.9v26.5H326V35.1c-0.1-5.3,2.2-10.4,6.2-14c3.9-3.8,9.1-5.9,14.5-5.9V24
	C343.6,23.9,340.6,25.1,338.3,27.2z"/>
<path class="st0" d="M378.4,61.5L361.7,45l-2.9,2.9v13.7H350V1.2h8.8v34.3l19.6-19.5h12.5L368,38.8l22.9,22.8L378.4,61.5z"/>
<path class="st0" d="M73.4,18.1V0H12.2v18.1L0,26l12.2,8.2v27.1h10.2l17.4,17.4V61.2h6.1v17.4l17.4-17.4h10.2V34.1L85.6,26
	L73.4,18.1z M66.4,31.2v22.6h-5.9l-9.8,12.8V53.8H34.9v12.8L24.1,53.9h-4.9V31.2l-7.7-5.1l7.7-4.9V6.7h47.2v14.5l7.7,4.9L66.4,31.2z
	"/>
</svg>
